%TF.GenerationSoftware,KiCad,Pcbnew,(6.0.1-0)*%
%TF.CreationDate,2022-03-20T09:15:38+09:00*%
%TF.ProjectId,keyplate,6b657970-6c61-4746-952e-6b696361645f,rev?*%
%TF.SameCoordinates,Original*%
%TF.FileFunction,Soldermask,Top*%
%TF.FilePolarity,Negative*%
%FSLAX46Y46*%
G04 Gerber Fmt 4.6, Leading zero omitted, Abs format (unit mm)*
G04 Created by KiCad (PCBNEW (6.0.1-0)) date 2022-03-20 09:15:38*
%MOMM*%
%LPD*%
G01*
G04 APERTURE LIST*
%ADD10C,5.400000*%
G04 APERTURE END LIST*
%TO.C,G\u002A\u002A\u002A*%
G36*
X214134603Y-17544580D02*
G01*
X214080082Y-17636138D01*
X213962507Y-17837453D01*
X213789154Y-18135948D01*
X213567300Y-18519044D01*
X213304221Y-18974164D01*
X213007194Y-19488729D01*
X212683495Y-20050162D01*
X212340400Y-20645884D01*
X212318287Y-20684302D01*
X211976969Y-21275536D01*
X211656196Y-21827793D01*
X211362932Y-22329320D01*
X211104145Y-22768362D01*
X210886800Y-23133164D01*
X210717865Y-23411972D01*
X210604304Y-23593033D01*
X210553084Y-23664592D01*
X210551598Y-23665274D01*
X210504041Y-23606653D01*
X210396661Y-23441655D01*
X210239372Y-23186575D01*
X210042090Y-22857710D01*
X209814731Y-22471357D01*
X209604005Y-22107799D01*
X209361412Y-21683088D01*
X209145414Y-21298486D01*
X208965182Y-20970848D01*
X208829883Y-20717035D01*
X208748686Y-20553903D01*
X208729066Y-20499103D01*
X208768929Y-20426264D01*
X208869608Y-20248317D01*
X209021339Y-19982346D01*
X209214356Y-19645433D01*
X209438895Y-19254663D01*
X209632778Y-18918016D01*
X210514722Y-17388150D01*
X214235118Y-17385830D01*
X214134603Y-17544580D01*
G37*
G36*
X184015823Y-17387772D02*
G01*
X184458635Y-17393242D01*
X184833073Y-17401709D01*
X185120635Y-17412640D01*
X185302819Y-17425501D01*
X185361463Y-17438747D01*
X185327271Y-17517759D01*
X185232707Y-17696472D01*
X185089523Y-17954755D01*
X184909474Y-18272476D01*
X184704314Y-18629504D01*
X184485797Y-19005707D01*
X184265678Y-19380954D01*
X184055711Y-19735112D01*
X183867649Y-20048051D01*
X183713248Y-20299639D01*
X183604260Y-20469744D01*
X183552441Y-20538236D01*
X183551532Y-20538641D01*
X183499759Y-20485804D01*
X183390939Y-20328254D01*
X183236763Y-20084515D01*
X183048920Y-19773110D01*
X182839101Y-19412565D01*
X182821667Y-19382067D01*
X182593181Y-18981714D01*
X182371423Y-18592934D01*
X182172678Y-18244292D01*
X182013230Y-17964353D01*
X181917998Y-17796894D01*
X181684606Y-17385830D01*
X183523136Y-17385830D01*
X184015823Y-17387772D01*
G37*
G36*
X116989809Y-17520700D02*
G01*
X117087955Y-17647589D01*
X117226177Y-17857293D01*
X117411870Y-18160859D01*
X117652429Y-18569332D01*
X117863005Y-18933288D01*
X118106049Y-19356832D01*
X118323977Y-19739301D01*
X118507379Y-20063961D01*
X118646849Y-20314082D01*
X118732978Y-20472931D01*
X118757222Y-20523634D01*
X118689816Y-20533801D01*
X118500192Y-20542909D01*
X118207242Y-20550559D01*
X117829858Y-20556352D01*
X117386931Y-20559890D01*
X116993333Y-20560830D01*
X116511185Y-20561803D01*
X116079286Y-20564539D01*
X115716529Y-20568766D01*
X115441805Y-20574212D01*
X115274007Y-20580603D01*
X115229445Y-20586282D01*
X115263318Y-20651758D01*
X115358562Y-20822431D01*
X115505613Y-21081516D01*
X115694906Y-21412225D01*
X115916879Y-21797770D01*
X116103713Y-22120866D01*
X116343183Y-22538410D01*
X116555065Y-22915902D01*
X116730128Y-23236229D01*
X116859143Y-23482278D01*
X116932878Y-23636935D01*
X116946216Y-23682913D01*
X116868142Y-23701414D01*
X116673714Y-23715954D01*
X116385669Y-23726653D01*
X116026740Y-23733634D01*
X115619663Y-23737017D01*
X115187173Y-23736923D01*
X114752004Y-23733474D01*
X114336891Y-23726791D01*
X113964569Y-23716994D01*
X113657774Y-23704206D01*
X113439240Y-23688547D01*
X113331702Y-23670138D01*
X113324445Y-23663613D01*
X113358616Y-23590256D01*
X113455666Y-23409253D01*
X113607399Y-23134860D01*
X113805619Y-22781336D01*
X114042130Y-22362938D01*
X114308736Y-21893924D01*
X114597240Y-21388552D01*
X114899448Y-20861079D01*
X115207161Y-20325763D01*
X115512186Y-19796861D01*
X115806326Y-19288632D01*
X116081384Y-18815332D01*
X116329164Y-18391221D01*
X116541472Y-18030554D01*
X116710110Y-17747591D01*
X116826883Y-17556588D01*
X116883594Y-17471804D01*
X116884162Y-17471178D01*
X116924343Y-17465578D01*
X116989809Y-17520700D01*
G37*
G36*
X154743650Y-98470618D02*
G01*
X156593738Y-98489441D01*
X157433358Y-99935830D01*
X157673815Y-100350126D01*
X157893439Y-100728657D01*
X158081364Y-101052682D01*
X158226722Y-101303461D01*
X158318644Y-101462252D01*
X158343694Y-101505691D01*
X158357726Y-101542898D01*
X158341963Y-101571792D01*
X158281283Y-101593418D01*
X158160566Y-101608822D01*
X157964690Y-101619049D01*
X157678533Y-101625143D01*
X157286976Y-101628150D01*
X156774896Y-101629115D01*
X156557206Y-101629163D01*
X154700003Y-101629163D01*
X153820696Y-100102867D01*
X153578300Y-99681313D01*
X153359574Y-99299384D01*
X153174334Y-98974347D01*
X153032396Y-98723467D01*
X152943575Y-98564010D01*
X152917476Y-98514183D01*
X152978329Y-98497496D01*
X153164040Y-98484126D01*
X153458385Y-98474461D01*
X153845140Y-98468889D01*
X154308082Y-98467795D01*
X154743650Y-98470618D01*
G37*
G36*
X142184247Y-17491194D02*
G01*
X142293128Y-17651841D01*
X142450919Y-17902547D01*
X142647441Y-18226873D01*
X142872514Y-18608379D01*
X143051681Y-18918221D01*
X143290456Y-19332136D01*
X143506562Y-19702124D01*
X143690075Y-20011570D01*
X143831070Y-20243858D01*
X143919623Y-20382373D01*
X143945556Y-20414732D01*
X143988847Y-20355949D01*
X144091733Y-20191089D01*
X144244272Y-19936859D01*
X144436521Y-19609971D01*
X144658537Y-19227133D01*
X144830798Y-18926999D01*
X145069439Y-18514427D01*
X145287709Y-18146485D01*
X145475289Y-17839810D01*
X145621862Y-17611038D01*
X145717108Y-17476808D01*
X145748020Y-17448029D01*
X145800239Y-17508938D01*
X145911979Y-17676040D01*
X146073053Y-17932838D01*
X146273272Y-18262834D01*
X146502449Y-18649530D01*
X146705282Y-18998132D01*
X147595285Y-20540073D01*
X146738215Y-22024099D01*
X146494739Y-22443688D01*
X146270269Y-22826763D01*
X146075757Y-23154937D01*
X145922153Y-23409819D01*
X145820410Y-23573018D01*
X145786655Y-23621978D01*
X145741954Y-23657732D01*
X145663420Y-23685259D01*
X145534288Y-23705594D01*
X145337794Y-23719770D01*
X145057172Y-23728823D01*
X144675658Y-23733785D01*
X144176487Y-23735691D01*
X143941080Y-23735830D01*
X143458310Y-23733561D01*
X143023592Y-23727182D01*
X142656415Y-23717331D01*
X142376266Y-23704649D01*
X142202633Y-23689776D01*
X142153727Y-23677147D01*
X142177523Y-23602363D01*
X142263574Y-23423073D01*
X142402732Y-23156484D01*
X142585850Y-22819804D01*
X142803781Y-22430241D01*
X142988275Y-22107286D01*
X143859090Y-20596108D01*
X142077806Y-20560830D01*
X140296523Y-20525552D01*
X141186178Y-18989267D01*
X141431478Y-18568932D01*
X141655523Y-18191205D01*
X141848172Y-17872686D01*
X141999285Y-17629974D01*
X142098720Y-17479669D01*
X142134459Y-17437045D01*
X142184247Y-17491194D01*
G37*
G36*
X160235333Y-17516028D02*
G01*
X160348565Y-17698952D01*
X160505733Y-17961484D01*
X160695078Y-18283172D01*
X160904846Y-18643565D01*
X161123278Y-19022212D01*
X161338618Y-19398661D01*
X161539109Y-19752459D01*
X161712994Y-20063157D01*
X161848517Y-20310301D01*
X161933921Y-20473440D01*
X161958325Y-20530504D01*
X161925422Y-20619275D01*
X161832295Y-20805069D01*
X161690547Y-21068065D01*
X161511778Y-21388443D01*
X161307593Y-21746382D01*
X161089592Y-22122062D01*
X160869379Y-22495661D01*
X160658555Y-22847361D01*
X160468723Y-23157339D01*
X160311485Y-23405776D01*
X160198444Y-23572851D01*
X160141201Y-23638743D01*
X160138749Y-23638947D01*
X160085217Y-23574504D01*
X159972736Y-23404583D01*
X159811945Y-23146465D01*
X159613484Y-22817430D01*
X159387993Y-22434759D01*
X159239175Y-22177962D01*
X159003029Y-21771028D01*
X158788402Y-21407094D01*
X158605735Y-21103386D01*
X158465467Y-20877126D01*
X158378038Y-20745539D01*
X158354882Y-20719031D01*
X158306263Y-20772545D01*
X158198749Y-20932593D01*
X158042506Y-21182653D01*
X157847704Y-21506205D01*
X157624508Y-21886727D01*
X157455289Y-22180826D01*
X157218055Y-22592853D01*
X157002326Y-22960931D01*
X156818263Y-23268254D01*
X156676028Y-23498017D01*
X156585785Y-23633414D01*
X156558988Y-23663045D01*
X156487515Y-23611762D01*
X156407790Y-23506524D01*
X156295955Y-23322799D01*
X156141226Y-23060272D01*
X155955268Y-22739580D01*
X155749743Y-22381363D01*
X155536318Y-22006259D01*
X155326656Y-21634906D01*
X155132422Y-21287945D01*
X154965280Y-20986012D01*
X154836895Y-20749747D01*
X154758930Y-20599788D01*
X154740556Y-20556577D01*
X154808915Y-20536457D01*
X155005253Y-20519357D01*
X155316460Y-20505760D01*
X155729427Y-20496151D01*
X156231043Y-20491016D01*
X156532821Y-20490274D01*
X158325086Y-20490274D01*
X159222461Y-18932470D01*
X159467386Y-18513243D01*
X159691334Y-18141235D01*
X159884403Y-17831989D01*
X160036689Y-17601048D01*
X160138288Y-17463953D01*
X160177792Y-17433164D01*
X160235333Y-17516028D01*
G37*
G36*
X43613781Y-23596665D02*
G01*
X44056001Y-23602147D01*
X44429805Y-23610631D01*
X44716671Y-23621582D01*
X44898077Y-23634466D01*
X44955907Y-23647636D01*
X44921592Y-23727749D01*
X44826692Y-23907506D01*
X44682999Y-24166756D01*
X44502306Y-24485343D01*
X44296407Y-24843115D01*
X44077095Y-25219918D01*
X43856162Y-25595599D01*
X43645403Y-25950004D01*
X43456609Y-26262980D01*
X43301574Y-26514373D01*
X43192091Y-26684031D01*
X43139953Y-26751799D01*
X43139291Y-26752085D01*
X43087597Y-26699547D01*
X42976633Y-26540175D01*
X42816474Y-26290033D01*
X42617193Y-25965183D01*
X42388865Y-25581689D01*
X42180120Y-25222732D01*
X41937282Y-24799344D01*
X41719563Y-24416974D01*
X41536375Y-24092381D01*
X41397132Y-23842323D01*
X41311246Y-23683558D01*
X41287222Y-23633004D01*
X41354690Y-23622733D01*
X41544742Y-23613503D01*
X41838853Y-23605701D01*
X42218500Y-23599713D01*
X42665157Y-23595927D01*
X43121667Y-23594719D01*
X43613781Y-23596665D01*
G37*
G36*
X122394588Y-101646728D02*
G01*
X122444714Y-101723929D01*
X122557868Y-101911346D01*
X122726911Y-102196768D01*
X122944702Y-102567982D01*
X123204102Y-103012776D01*
X123497971Y-103518938D01*
X123819169Y-104074255D01*
X124160557Y-104666516D01*
X124189011Y-104715969D01*
X124529947Y-105307090D01*
X124850051Y-105859171D01*
X125142393Y-106360470D01*
X125400047Y-106799245D01*
X125616084Y-107163755D01*
X125783579Y-107442256D01*
X125895602Y-107623008D01*
X125945226Y-107694268D01*
X125946550Y-107694920D01*
X125991961Y-107635732D01*
X126096816Y-107470520D01*
X126251045Y-107216064D01*
X126444574Y-106889141D01*
X126667333Y-106506527D01*
X126835833Y-106213548D01*
X127074070Y-105803060D01*
X127292160Y-105438224D01*
X127479736Y-105135504D01*
X127626429Y-104911366D01*
X127721874Y-104782277D01*
X127752751Y-104757319D01*
X127804498Y-104821734D01*
X127913571Y-104988849D01*
X128068128Y-105238365D01*
X128256328Y-105549986D01*
X128466329Y-105903415D01*
X128686292Y-106278353D01*
X128904374Y-106654503D01*
X129108735Y-107011567D01*
X129287533Y-107329248D01*
X129428928Y-107587248D01*
X129521078Y-107765270D01*
X129552222Y-107841899D01*
X129484455Y-107860761D01*
X129292310Y-107878730D01*
X128992518Y-107895036D01*
X128601812Y-107908908D01*
X128136925Y-107919576D01*
X127745451Y-107925055D01*
X125938681Y-107943886D01*
X125048478Y-109482192D01*
X124773110Y-109956100D01*
X124558402Y-110319606D01*
X124395648Y-110585195D01*
X124276146Y-110765352D01*
X124191192Y-110872563D01*
X124132082Y-110919311D01*
X124090112Y-110918082D01*
X124064734Y-110893303D01*
X124003167Y-110796560D01*
X123883175Y-110596939D01*
X123716319Y-110314092D01*
X123514164Y-109967672D01*
X123288272Y-109577332D01*
X123190130Y-109406810D01*
X122961367Y-109011099D01*
X122754573Y-108657956D01*
X122580482Y-108365342D01*
X122449830Y-108151222D01*
X122373355Y-108033559D01*
X122359370Y-108016799D01*
X122311683Y-108066382D01*
X122204754Y-108222148D01*
X122048951Y-108467534D01*
X121854641Y-108785974D01*
X121632193Y-109160906D01*
X121486477Y-109411374D01*
X121203507Y-109901686D01*
X120983297Y-110282830D01*
X120817433Y-110567488D01*
X120697505Y-110768341D01*
X120615100Y-110898068D01*
X120561807Y-110969352D01*
X120529212Y-110994872D01*
X120508905Y-110987310D01*
X120492472Y-110959347D01*
X120477488Y-110932390D01*
X120351738Y-110728582D01*
X120186168Y-110449569D01*
X119991869Y-110115143D01*
X119779931Y-109745100D01*
X119561445Y-109359231D01*
X119347501Y-108977331D01*
X119149189Y-108619193D01*
X118977600Y-108304610D01*
X118843824Y-108053376D01*
X118758951Y-107885284D01*
X118733829Y-107820413D01*
X118810153Y-107806000D01*
X119008354Y-107793081D01*
X119309198Y-107782217D01*
X119693453Y-107773968D01*
X120141887Y-107768894D01*
X120549604Y-107767497D01*
X122333658Y-107767497D01*
X123180408Y-106303469D01*
X124027157Y-104839441D01*
X122269196Y-104820580D01*
X121711659Y-104813329D01*
X121281050Y-104804385D01*
X120963186Y-104792818D01*
X120743884Y-104777701D01*
X120608964Y-104758105D01*
X120544243Y-104733101D01*
X120533812Y-104706986D01*
X120574052Y-104621840D01*
X120675298Y-104432371D01*
X120827702Y-104156285D01*
X121021414Y-103811290D01*
X121246585Y-103415095D01*
X121435739Y-103085355D01*
X121721805Y-102592825D01*
X121947608Y-102214378D01*
X122119886Y-101939907D01*
X122245375Y-101759305D01*
X122330812Y-101662463D01*
X122382934Y-101639274D01*
X122394588Y-101646728D01*
G37*
G36*
X253808188Y-17500757D02*
G01*
X253917183Y-17669299D01*
X254079066Y-17932517D01*
X254285720Y-18276321D01*
X254529028Y-18686622D01*
X254800872Y-19149330D01*
X255093135Y-19650356D01*
X255397699Y-20175610D01*
X255706447Y-20711003D01*
X256011262Y-21242447D01*
X256304025Y-21755850D01*
X256576621Y-22237125D01*
X256820930Y-22672182D01*
X257028836Y-23046931D01*
X257192222Y-23347283D01*
X257302969Y-23559148D01*
X257352961Y-23668438D01*
X257354630Y-23679807D01*
X257278552Y-23692322D01*
X257077685Y-23703195D01*
X256768337Y-23712439D01*
X256366821Y-23720066D01*
X255889447Y-23726090D01*
X255352526Y-23730524D01*
X254772369Y-23733380D01*
X254165287Y-23734672D01*
X253547591Y-23734412D01*
X252935591Y-23732614D01*
X252345599Y-23729291D01*
X251793925Y-23724455D01*
X251296880Y-23718120D01*
X250870776Y-23710299D01*
X250531923Y-23701004D01*
X250296632Y-23690248D01*
X250181214Y-23678046D01*
X250172390Y-23674085D01*
X250198852Y-23602680D01*
X250288913Y-23423898D01*
X250434455Y-23151842D01*
X250627358Y-22800617D01*
X250859506Y-22384327D01*
X251122778Y-21917076D01*
X251409058Y-21412969D01*
X251710226Y-20886109D01*
X252018164Y-20350601D01*
X252324753Y-19820549D01*
X252621875Y-19310057D01*
X252901412Y-18833229D01*
X253155245Y-18404170D01*
X253375256Y-18036983D01*
X253553327Y-17745773D01*
X253681338Y-17544645D01*
X253751171Y-17447701D01*
X253760199Y-17440978D01*
X253808188Y-17500757D01*
G37*
G36*
X176837843Y-104665552D02*
G01*
X177277520Y-104671907D01*
X177648612Y-104681788D01*
X177932504Y-104694569D01*
X178110583Y-104709622D01*
X178165000Y-104724527D01*
X178130887Y-104795012D01*
X178033979Y-104973310D01*
X177882424Y-105245252D01*
X177684370Y-105596672D01*
X177447965Y-106013400D01*
X177181357Y-106481268D01*
X176892694Y-106986108D01*
X176590124Y-107513751D01*
X176281794Y-108050030D01*
X175975852Y-108580776D01*
X175680447Y-109091821D01*
X175403726Y-109568996D01*
X175153837Y-109998133D01*
X174938928Y-110365064D01*
X174767147Y-110655621D01*
X174646642Y-110855636D01*
X174585560Y-110950939D01*
X174581432Y-110955954D01*
X174532247Y-110913245D01*
X174423565Y-110763217D01*
X174265301Y-110521409D01*
X174067374Y-110203360D01*
X173839700Y-109824608D01*
X173623951Y-109455744D01*
X173380105Y-109028970D01*
X173163044Y-108639892D01*
X172982014Y-108305839D01*
X172846258Y-108044139D01*
X172765022Y-107872121D01*
X172745699Y-107809528D01*
X172785741Y-107726171D01*
X172886862Y-107538413D01*
X173039227Y-107263851D01*
X173233003Y-106920085D01*
X173458356Y-106524710D01*
X173649445Y-106192299D01*
X174531389Y-104663648D01*
X176348195Y-104663350D01*
X176837843Y-104665552D01*
G37*
G36*
X281692667Y-92260636D02*
G01*
X282064877Y-92266574D01*
X282347798Y-92276289D01*
X282523737Y-92289367D01*
X282575858Y-92304147D01*
X282535372Y-92379834D01*
X282434100Y-92560461D01*
X282281852Y-92828784D01*
X282088439Y-93167561D01*
X281863672Y-93559549D01*
X281671928Y-93892830D01*
X280791912Y-95420274D01*
X278973178Y-95420274D01*
X278445265Y-95417850D01*
X277987573Y-95410937D01*
X277615221Y-95400074D01*
X277343327Y-95385798D01*
X277187011Y-95368651D01*
X277154445Y-95355466D01*
X277188523Y-95278895D01*
X277284324Y-95097936D01*
X277432191Y-94829929D01*
X277622470Y-94492215D01*
X277845507Y-94102135D01*
X278028494Y-93785605D01*
X278902543Y-92280552D01*
X280751157Y-92261730D01*
X281248863Y-92258884D01*
X281692667Y-92260636D01*
G37*
G36*
X23942542Y-107769606D02*
G01*
X24410029Y-107776190D01*
X24753644Y-107787632D01*
X24981977Y-107804315D01*
X25103618Y-107826623D01*
X25130000Y-107847275D01*
X25096747Y-107923922D01*
X25004539Y-108100840D01*
X24864702Y-108358140D01*
X24688565Y-108675933D01*
X24487454Y-109034330D01*
X24272697Y-109413443D01*
X24055619Y-109793382D01*
X23847549Y-110154258D01*
X23659813Y-110476183D01*
X23503738Y-110739267D01*
X23390652Y-110923621D01*
X23331882Y-111009357D01*
X23327044Y-111013052D01*
X23282477Y-110956589D01*
X23186961Y-110806866D01*
X23059130Y-110593385D01*
X23026211Y-110536802D01*
X22897240Y-110313850D01*
X22716153Y-110000719D01*
X22501447Y-109629404D01*
X22271624Y-109231897D01*
X22111691Y-108955247D01*
X21910000Y-108600437D01*
X21739047Y-108288298D01*
X21609270Y-108038847D01*
X21531105Y-107872103D01*
X21513963Y-107808719D01*
X21592953Y-107797495D01*
X21793705Y-107787433D01*
X22096868Y-107778971D01*
X22483096Y-107772545D01*
X22933040Y-107768590D01*
X23342593Y-107767497D01*
X23942542Y-107769606D01*
G37*
G36*
X157314730Y-107765709D02*
G01*
X157691481Y-107771374D01*
X158004643Y-107781127D01*
X158231475Y-107795136D01*
X158349235Y-107813569D01*
X158360159Y-107820413D01*
X158332764Y-107889390D01*
X158245356Y-108060141D01*
X158109283Y-108312705D01*
X157935897Y-108627122D01*
X157736549Y-108983431D01*
X157522588Y-109361671D01*
X157305366Y-109741882D01*
X157096233Y-110104102D01*
X156906540Y-110428371D01*
X156747637Y-110694729D01*
X156630875Y-110883214D01*
X156567605Y-110973866D01*
X156566038Y-110975483D01*
X156520433Y-110929050D01*
X156415120Y-110775588D01*
X156259913Y-110530866D01*
X156064622Y-110210652D01*
X155839061Y-109830716D01*
X155631177Y-109473135D01*
X155388061Y-109048055D01*
X155170231Y-108661359D01*
X154987186Y-108330385D01*
X154848425Y-108072473D01*
X154763445Y-107904963D01*
X154740556Y-107847275D01*
X154807309Y-107826318D01*
X154992409Y-107808098D01*
X155273112Y-107792784D01*
X155626678Y-107780545D01*
X156030365Y-107771549D01*
X156461430Y-107765965D01*
X156897132Y-107763962D01*
X157314730Y-107765709D01*
G37*
G36*
X110290051Y-20491076D02*
G01*
X110726155Y-20494071D01*
X111051030Y-20500145D01*
X111279614Y-20510183D01*
X111426846Y-20525072D01*
X111507662Y-20545696D01*
X111537002Y-20572942D01*
X111534548Y-20597392D01*
X111480122Y-20708631D01*
X111369318Y-20912629D01*
X111213837Y-21189423D01*
X111025384Y-21519051D01*
X110815662Y-21881548D01*
X110596373Y-22256952D01*
X110379222Y-22625300D01*
X110175910Y-22966628D01*
X109998142Y-23260973D01*
X109857620Y-23488372D01*
X109766048Y-23628863D01*
X109736038Y-23665274D01*
X109688853Y-23606693D01*
X109581887Y-23441914D01*
X109425148Y-23187390D01*
X109228642Y-22859570D01*
X109002373Y-22474904D01*
X108806961Y-22137830D01*
X108564508Y-21716264D01*
X108345743Y-21334468D01*
X108160469Y-21009669D01*
X108018491Y-20759092D01*
X107929612Y-20599962D01*
X107903426Y-20550330D01*
X107964439Y-20534297D01*
X108148414Y-20519877D01*
X108437206Y-20507668D01*
X108812670Y-20498267D01*
X109256662Y-20492272D01*
X109727780Y-20490274D01*
X110290051Y-20491076D01*
G37*
G36*
X28771368Y-101621829D02*
G01*
X28874347Y-101787131D01*
X29027665Y-102042857D01*
X29221719Y-102372829D01*
X29446904Y-102760870D01*
X29668950Y-103147608D01*
X30574289Y-104732072D01*
X29679687Y-106285062D01*
X29434407Y-106707064D01*
X29210277Y-107085470D01*
X29017310Y-107403952D01*
X28865521Y-107646182D01*
X28764923Y-107795833D01*
X28727216Y-107838052D01*
X28677393Y-107779505D01*
X28567985Y-107614930D01*
X28409226Y-107360928D01*
X28211352Y-107034098D01*
X27984597Y-106651041D01*
X27802839Y-106338747D01*
X27562467Y-105918658D01*
X27347617Y-105535168D01*
X27168017Y-105206298D01*
X27033394Y-104950070D01*
X26953476Y-104784505D01*
X26935269Y-104731507D01*
X26968195Y-104647861D01*
X27059967Y-104464793D01*
X27199269Y-104202299D01*
X27374785Y-103880374D01*
X27575200Y-103519013D01*
X27789197Y-103138211D01*
X28005461Y-102757965D01*
X28212676Y-102398267D01*
X28399526Y-102079115D01*
X28554696Y-101820503D01*
X28666870Y-101642425D01*
X28724732Y-101564878D01*
X28728333Y-101563131D01*
X28771368Y-101621829D01*
G37*
G36*
X288441571Y-104665280D02*
G01*
X288883815Y-104671556D01*
X289257653Y-104681268D01*
X289544561Y-104693804D01*
X289726013Y-104708553D01*
X289783889Y-104723629D01*
X289749931Y-104799209D01*
X289654542Y-104979139D01*
X289507452Y-105245915D01*
X289318390Y-105582032D01*
X289097085Y-105969985D01*
X288930979Y-106258212D01*
X288690079Y-106674656D01*
X288471030Y-107053553D01*
X288284296Y-107376781D01*
X288140346Y-107626217D01*
X288049646Y-107783738D01*
X288023927Y-107828747D01*
X287968169Y-107841850D01*
X287871569Y-107741159D01*
X287726720Y-107518879D01*
X287722147Y-107511247D01*
X287551161Y-107222809D01*
X287352097Y-106882877D01*
X287136369Y-106511405D01*
X286915392Y-106128347D01*
X286700580Y-105753656D01*
X286503347Y-105407285D01*
X286335107Y-105109190D01*
X286207275Y-104879322D01*
X286131265Y-104737636D01*
X286115000Y-104701729D01*
X286182467Y-104691353D01*
X286372519Y-104682029D01*
X286666631Y-104674147D01*
X287046278Y-104668098D01*
X287492934Y-104664272D01*
X287949445Y-104663052D01*
X288441571Y-104665280D01*
G37*
G36*
X59846747Y-20492355D02*
G01*
X60286921Y-20498216D01*
X60657667Y-20507290D01*
X60940803Y-20519006D01*
X61118148Y-20532795D01*
X61172130Y-20547177D01*
X61116849Y-20656281D01*
X61004999Y-20858570D01*
X60848211Y-21134304D01*
X60658119Y-21463745D01*
X60446355Y-21827156D01*
X60224551Y-22204797D01*
X60004341Y-22576931D01*
X59797357Y-22923819D01*
X59615231Y-23225722D01*
X59469597Y-23462903D01*
X59372088Y-23615622D01*
X59334918Y-23664560D01*
X59278478Y-23608257D01*
X59173591Y-23458351D01*
X59040606Y-23244445D01*
X59008020Y-23189024D01*
X58635813Y-22547458D01*
X58309233Y-21980789D01*
X58032690Y-21496824D01*
X57810592Y-21103373D01*
X57647349Y-20808244D01*
X57547369Y-20619244D01*
X57515000Y-20544933D01*
X57582472Y-20530292D01*
X57772556Y-20517132D01*
X58066759Y-20506002D01*
X58446584Y-20497451D01*
X58893538Y-20492028D01*
X59355324Y-20490274D01*
X59846747Y-20492355D01*
G37*
G36*
X86892065Y-17387226D02*
G01*
X87332651Y-17391155D01*
X87660330Y-17398684D01*
X87889199Y-17410555D01*
X88033352Y-17427508D01*
X88106882Y-17450284D01*
X88123887Y-17479624D01*
X88123646Y-17480718D01*
X88083289Y-17565275D01*
X87980760Y-17755097D01*
X87824226Y-18036109D01*
X87621858Y-18394236D01*
X87381824Y-18815403D01*
X87112293Y-19285535D01*
X86821434Y-19790558D01*
X86517417Y-20316395D01*
X86208410Y-20848973D01*
X85902582Y-21374215D01*
X85608104Y-21878048D01*
X85333142Y-22346396D01*
X85085868Y-22765184D01*
X84874449Y-23120337D01*
X84707054Y-23397781D01*
X84591854Y-23583440D01*
X84537017Y-23663239D01*
X84534159Y-23665274D01*
X84487098Y-23606688D01*
X84380094Y-23441795D01*
X84223064Y-23186899D01*
X84025921Y-22858299D01*
X83798579Y-22472297D01*
X83589021Y-22111275D01*
X83346285Y-21686643D01*
X83130296Y-21301560D01*
X82950241Y-20973007D01*
X82815308Y-20717961D01*
X82734687Y-20553402D01*
X82715685Y-20497452D01*
X82755979Y-20422216D01*
X82857232Y-20242115D01*
X83009620Y-19974361D01*
X83203320Y-19636165D01*
X83428509Y-19244738D01*
X83620556Y-18912057D01*
X84502500Y-17386485D01*
X86324479Y-17386157D01*
X86892065Y-17387226D01*
G37*
G36*
X256061746Y-98456359D02*
G01*
X256501920Y-98462546D01*
X256872666Y-98472122D01*
X257155802Y-98484487D01*
X257333147Y-98499040D01*
X257387130Y-98514219D01*
X257336249Y-98615296D01*
X257228248Y-98811104D01*
X257074729Y-99081868D01*
X256887295Y-99407815D01*
X256677548Y-99769172D01*
X256457091Y-100146164D01*
X256237528Y-100519018D01*
X256030459Y-100867960D01*
X255847489Y-101173216D01*
X255700219Y-101415014D01*
X255600253Y-101573579D01*
X255559368Y-101629163D01*
X255513614Y-101570571D01*
X255407901Y-101405678D01*
X255252092Y-101150808D01*
X255056053Y-100822286D01*
X254829646Y-100436436D01*
X254622578Y-100078859D01*
X254379766Y-99655715D01*
X254162080Y-99273658D01*
X253978936Y-98949437D01*
X253839751Y-98699798D01*
X253753942Y-98541491D01*
X253730000Y-98491359D01*
X253797472Y-98481396D01*
X253987559Y-98472440D01*
X254281765Y-98464866D01*
X254661594Y-98459047D01*
X255108552Y-98455357D01*
X255570324Y-98454163D01*
X256061746Y-98456359D01*
G37*
G36*
X259204870Y-14340859D02*
G01*
X259311236Y-14511642D01*
X259473978Y-14782277D01*
X259686523Y-15141306D01*
X259942297Y-15577272D01*
X260234727Y-16078717D01*
X260557238Y-16634184D01*
X260903257Y-17232216D01*
X261266211Y-17861354D01*
X261639526Y-18510143D01*
X262016628Y-19167123D01*
X262390944Y-19820838D01*
X262755900Y-20459830D01*
X263104923Y-21072642D01*
X263431439Y-21647817D01*
X263728874Y-22173896D01*
X263990654Y-22639423D01*
X264210207Y-23032940D01*
X264380958Y-23342989D01*
X264496334Y-23558114D01*
X264549761Y-23666856D01*
X264552549Y-23677780D01*
X264474211Y-23695115D01*
X264278117Y-23709303D01*
X263987589Y-23720348D01*
X263625946Y-23728254D01*
X263216508Y-23733025D01*
X262782597Y-23734666D01*
X262347532Y-23733181D01*
X261934635Y-23728573D01*
X261567225Y-23720848D01*
X261268623Y-23710008D01*
X261062149Y-23696058D01*
X260971125Y-23679003D01*
X260969282Y-23677147D01*
X260993078Y-23602362D01*
X261079126Y-23423070D01*
X261218280Y-23156480D01*
X261401392Y-22819797D01*
X261619316Y-22430231D01*
X261803797Y-22107286D01*
X262674580Y-20596108D01*
X260886886Y-20577285D01*
X259099191Y-20558462D01*
X259977651Y-19036451D01*
X260218566Y-18617927D01*
X260434250Y-18241096D01*
X260615194Y-17922742D01*
X260751893Y-17679652D01*
X260834840Y-17528611D01*
X260856111Y-17485413D01*
X260788705Y-17477479D01*
X260599080Y-17470371D01*
X260306129Y-17464401D01*
X259928743Y-17459880D01*
X259485815Y-17457119D01*
X259092222Y-17456386D01*
X258610075Y-17454920D01*
X258178177Y-17450797D01*
X257815421Y-17444428D01*
X257540697Y-17436223D01*
X257372898Y-17426593D01*
X257328333Y-17418036D01*
X257362204Y-17345145D01*
X257456117Y-17172168D01*
X257598522Y-16918868D01*
X257777869Y-16605009D01*
X257982609Y-16250353D01*
X258201191Y-15874664D01*
X258422065Y-15497704D01*
X258633681Y-15139237D01*
X258824490Y-14819025D01*
X258982942Y-14556832D01*
X259097486Y-14372421D01*
X259156573Y-14285555D01*
X259161453Y-14281386D01*
X259204870Y-14340859D01*
G37*
G36*
X262804690Y-107896064D02*
G01*
X262907493Y-108056908D01*
X263056983Y-108300799D01*
X263241587Y-108607950D01*
X263449731Y-108958574D01*
X263669841Y-109332886D01*
X263890343Y-109711098D01*
X264099665Y-110073424D01*
X264286232Y-110400079D01*
X264438470Y-110671275D01*
X264544805Y-110867226D01*
X264593665Y-110968146D01*
X264595556Y-110975856D01*
X264528088Y-110985835D01*
X264338036Y-110994802D01*
X264043924Y-111002382D01*
X263664277Y-111008200D01*
X263217621Y-111011879D01*
X262761111Y-111013052D01*
X262268981Y-111011644D01*
X261826734Y-111007678D01*
X261452894Y-111001540D01*
X261165987Y-110993616D01*
X260984537Y-110984294D01*
X260926667Y-110974767D01*
X260960583Y-110898431D01*
X261054619Y-110722506D01*
X261197202Y-110466788D01*
X261376761Y-110151075D01*
X261581724Y-109795163D01*
X261800519Y-109418850D01*
X262021575Y-109041931D01*
X262233319Y-108684203D01*
X262424182Y-108365464D01*
X262582590Y-108105510D01*
X262696971Y-107924138D01*
X262755756Y-107841145D01*
X262760148Y-107838052D01*
X262804690Y-107896064D01*
G37*
G36*
X39567410Y-95407897D02*
G01*
X39668453Y-95568517D01*
X39816440Y-95812117D01*
X39999823Y-96118934D01*
X40207054Y-96469208D01*
X40426585Y-96843177D01*
X40646865Y-97221082D01*
X40856348Y-97583160D01*
X41043484Y-97909650D01*
X41196726Y-98180792D01*
X41304523Y-98376825D01*
X41355328Y-98477988D01*
X41357778Y-98486369D01*
X41290306Y-98496641D01*
X41100219Y-98505875D01*
X40806013Y-98513684D01*
X40426184Y-98519684D01*
X39979227Y-98523488D01*
X39517454Y-98524719D01*
X39026032Y-98522545D01*
X38585858Y-98516419D01*
X38215112Y-98506937D01*
X37931976Y-98494693D01*
X37754631Y-98480283D01*
X37700648Y-98465252D01*
X37749494Y-98369564D01*
X37855690Y-98178163D01*
X38007659Y-97910821D01*
X38193822Y-97587313D01*
X38402599Y-97227411D01*
X38622412Y-96850890D01*
X38841682Y-96477523D01*
X39048829Y-96127083D01*
X39232276Y-95819343D01*
X39380442Y-95574078D01*
X39481750Y-95411060D01*
X39524620Y-95350064D01*
X39524861Y-95350017D01*
X39567410Y-95407897D01*
G37*
G36*
X97217086Y-101680735D02*
G01*
X97331000Y-101864588D01*
X97487720Y-102127353D01*
X97675898Y-102449073D01*
X97884185Y-102809792D01*
X98101233Y-103189553D01*
X98315693Y-103568399D01*
X98516216Y-103926375D01*
X98691455Y-104243523D01*
X98830060Y-104499887D01*
X98920682Y-104675510D01*
X98951974Y-104750436D01*
X98951744Y-104751247D01*
X98873680Y-104771392D01*
X98679270Y-104786959D01*
X98391259Y-104798126D01*
X98032390Y-104805072D01*
X97625408Y-104807974D01*
X97193055Y-104807009D01*
X96758076Y-104802357D01*
X96343215Y-104794195D01*
X95971216Y-104782700D01*
X95664822Y-104768052D01*
X95446777Y-104750427D01*
X95339825Y-104730004D01*
X95332778Y-104722933D01*
X95366267Y-104637627D01*
X95459149Y-104455472D01*
X95600046Y-104195969D01*
X95777582Y-103878619D01*
X95980378Y-103522922D01*
X96197057Y-103148379D01*
X96416241Y-102774490D01*
X96626553Y-102420755D01*
X96816615Y-102106676D01*
X96975050Y-101851752D01*
X97090480Y-101675485D01*
X97151527Y-101597374D01*
X97157327Y-101595750D01*
X97217086Y-101680735D01*
G37*
G36*
X134997696Y-23695116D02*
G01*
X135016977Y-23715410D01*
X135108857Y-23861719D01*
X135248681Y-24095511D01*
X135424828Y-24396313D01*
X135625676Y-24743657D01*
X135839603Y-25117072D01*
X136054987Y-25496089D01*
X136260207Y-25860236D01*
X136443641Y-26189044D01*
X136593666Y-26462043D01*
X136698661Y-26658762D01*
X136747005Y-26758732D01*
X136748889Y-26765920D01*
X136682132Y-26783954D01*
X136497036Y-26800073D01*
X136216364Y-26814053D01*
X135862877Y-26825667D01*
X135459338Y-26834692D01*
X135028509Y-26840901D01*
X134593151Y-26844071D01*
X134176028Y-26843975D01*
X133799901Y-26840389D01*
X133487532Y-26833087D01*
X133261684Y-26821845D01*
X133145119Y-26806437D01*
X133135452Y-26801652D01*
X133158914Y-26732781D01*
X133244896Y-26558687D01*
X133384490Y-26295844D01*
X133568785Y-25960725D01*
X133788870Y-25569804D01*
X134014685Y-25176094D01*
X134295957Y-24691996D01*
X134516465Y-24318877D01*
X134684498Y-24044655D01*
X134808348Y-23857250D01*
X134896304Y-23744579D01*
X134956657Y-23694562D01*
X134997696Y-23695116D01*
G37*
G36*
X10764172Y-58027628D02*
G01*
X10873957Y-58187420D01*
X11033263Y-58437978D01*
X11232097Y-58763281D01*
X11460472Y-59147307D01*
X11674675Y-59515433D01*
X12574327Y-61076617D01*
X11684439Y-62620142D01*
X11439650Y-63042564D01*
X11216589Y-63423369D01*
X11025281Y-63745775D01*
X10875750Y-63992998D01*
X10778023Y-64148256D01*
X10743581Y-64195168D01*
X10696009Y-64145355D01*
X10588650Y-63988755D01*
X10431424Y-63741273D01*
X10234249Y-63418815D01*
X10007044Y-63037286D01*
X9797417Y-62677903D01*
X9553711Y-62254273D01*
X9335267Y-61870725D01*
X9151551Y-61544193D01*
X9012028Y-61291610D01*
X8926163Y-61129910D01*
X8902426Y-61076789D01*
X8936654Y-60997830D01*
X9031316Y-60819059D01*
X9174647Y-60560625D01*
X9354879Y-60242682D01*
X9560245Y-59885382D01*
X9778976Y-59508875D01*
X9999306Y-59133313D01*
X10209468Y-58778849D01*
X10397694Y-58465634D01*
X10552217Y-58213820D01*
X10661269Y-58043558D01*
X10713083Y-57975000D01*
X10713896Y-57974624D01*
X10764172Y-58027628D01*
G37*
G36*
X284849174Y-17387405D02*
G01*
X285290418Y-17391841D01*
X285663185Y-17398705D01*
X285948915Y-17407564D01*
X286129048Y-17417984D01*
X286185556Y-17428498D01*
X286151718Y-17498796D01*
X286056506Y-17674302D01*
X285909373Y-17938174D01*
X285719770Y-18273571D01*
X285497150Y-18663651D01*
X285294581Y-19015998D01*
X284403606Y-20560830D01*
X282578192Y-20560830D01*
X282087330Y-20559185D01*
X281646396Y-20554554D01*
X281273960Y-20547387D01*
X280988594Y-20538139D01*
X280808868Y-20527261D01*
X280752778Y-20516329D01*
X280786591Y-20445495D01*
X280881726Y-20269466D01*
X281028732Y-20005129D01*
X281218153Y-19669367D01*
X281440537Y-19279063D01*
X281641624Y-18928829D01*
X282530470Y-17385830D01*
X284358013Y-17385830D01*
X284849174Y-17387405D01*
G37*
G36*
X272531720Y-107765704D02*
G01*
X272908372Y-107771366D01*
X273221412Y-107781115D01*
X273448094Y-107795119D01*
X273565673Y-107813548D01*
X273576545Y-107820413D01*
X273549014Y-107889442D01*
X273461508Y-108060262D01*
X273325379Y-108312904D01*
X273151976Y-108627400D01*
X272952648Y-108983781D01*
X272738745Y-109362078D01*
X272521617Y-109742323D01*
X272312614Y-110104547D01*
X272123085Y-110428782D01*
X271964381Y-110695059D01*
X271847850Y-110883410D01*
X271784842Y-110973865D01*
X271783260Y-110975500D01*
X271737655Y-110929062D01*
X271632342Y-110775596D01*
X271477134Y-110530870D01*
X271281844Y-110210653D01*
X271056283Y-109830714D01*
X270848399Y-109473135D01*
X270605283Y-109048055D01*
X270387453Y-108661359D01*
X270204409Y-108330385D01*
X270065647Y-108072473D01*
X269980667Y-107904963D01*
X269957778Y-107847275D01*
X270024531Y-107826320D01*
X270209627Y-107808102D01*
X270490322Y-107792788D01*
X270843872Y-107780548D01*
X271247531Y-107771551D01*
X271678555Y-107765965D01*
X272114199Y-107763960D01*
X272531720Y-107765704D01*
G37*
G36*
X23832710Y-20492705D02*
G01*
X24298154Y-20499665D01*
X24673798Y-20510655D01*
X24945639Y-20525176D01*
X25099673Y-20542728D01*
X25130000Y-20555792D01*
X25095802Y-20639161D01*
X25001097Y-20821699D01*
X24857719Y-21083125D01*
X24677503Y-21403160D01*
X24472284Y-21761523D01*
X24253896Y-22137932D01*
X24034173Y-22512108D01*
X23824950Y-22863770D01*
X23638061Y-23172637D01*
X23485341Y-23418429D01*
X23378623Y-23580865D01*
X23330529Y-23639531D01*
X23275430Y-23587779D01*
X23163686Y-23431142D01*
X23007164Y-23188096D01*
X22817730Y-22877117D01*
X22607252Y-22516683D01*
X22590000Y-22486512D01*
X22361514Y-22086159D01*
X22139757Y-21697379D01*
X21941012Y-21348736D01*
X21781563Y-21068797D01*
X21686331Y-20901339D01*
X21452940Y-20490274D01*
X23291470Y-20490274D01*
X23832710Y-20492705D01*
G37*
G36*
X14356989Y-20554597D02*
G01*
X14421912Y-20644962D01*
X14539710Y-20833268D01*
X14699012Y-21099412D01*
X14888448Y-21423293D01*
X15096646Y-21784810D01*
X15312237Y-22163862D01*
X15523848Y-22540346D01*
X15720110Y-22894161D01*
X15889652Y-23205207D01*
X16021102Y-23453381D01*
X16103090Y-23618581D01*
X16125000Y-23680107D01*
X16047940Y-23695222D01*
X15848952Y-23708779D01*
X15547217Y-23720197D01*
X15161913Y-23728892D01*
X14712222Y-23734282D01*
X14290385Y-23735830D01*
X13725376Y-23734605D01*
X13287450Y-23730439D01*
X12962598Y-23722590D01*
X12736809Y-23710320D01*
X12596073Y-23692889D01*
X12526380Y-23669557D01*
X12513021Y-23642002D01*
X12560143Y-23531219D01*
X12665261Y-23329115D01*
X12816786Y-23055094D01*
X13003129Y-22728559D01*
X13212701Y-22368915D01*
X13433912Y-21995566D01*
X13655174Y-21627916D01*
X13864897Y-21285369D01*
X14051492Y-20987329D01*
X14203370Y-20753200D01*
X14308941Y-20602387D01*
X14356617Y-20554293D01*
X14356989Y-20554597D01*
G37*
G36*
X50325482Y-17402285D02*
G01*
X52179624Y-17421108D01*
X52912422Y-18691108D01*
X53145193Y-19094439D01*
X53365200Y-19475507D01*
X53558547Y-19810254D01*
X53711339Y-20074625D01*
X53809682Y-20244563D01*
X53819195Y-20260969D01*
X53993171Y-20560830D01*
X52138113Y-20560116D01*
X50283056Y-20559402D01*
X49401111Y-19029518D01*
X49158341Y-18607753D01*
X48939230Y-18225871D01*
X48753579Y-17901054D01*
X48611189Y-17650482D01*
X48521861Y-17491335D01*
X48495254Y-17441549D01*
X48556167Y-17426750D01*
X48740063Y-17414748D01*
X49028836Y-17405930D01*
X49404379Y-17400686D01*
X49848584Y-17399403D01*
X50325482Y-17402285D01*
G37*
G36*
X189450812Y-20492503D02*
G01*
X189892088Y-20498784D01*
X190264015Y-20508507D01*
X190548446Y-20521065D01*
X190727238Y-20535848D01*
X190782685Y-20551478D01*
X190730912Y-20655472D01*
X190622015Y-20853641D01*
X190467626Y-21126215D01*
X190279379Y-21453421D01*
X190068905Y-21815486D01*
X189847837Y-22192638D01*
X189627808Y-22565106D01*
X189420449Y-22913115D01*
X189237394Y-23216895D01*
X189090274Y-23456673D01*
X188990722Y-23612676D01*
X188950783Y-23665274D01*
X188903182Y-23606749D01*
X188795946Y-23442308D01*
X188639276Y-23188656D01*
X188443370Y-22862498D01*
X188218430Y-22480537D01*
X188046840Y-22184892D01*
X187806492Y-21766906D01*
X187588886Y-21385738D01*
X187404300Y-21059617D01*
X187263014Y-20806771D01*
X187175309Y-20645426D01*
X187151563Y-20597392D01*
X187152875Y-20564780D01*
X187194812Y-20539434D01*
X187292312Y-20520466D01*
X187460314Y-20506992D01*
X187713754Y-20498126D01*
X188067572Y-20492983D01*
X188536706Y-20490676D01*
X188958331Y-20490274D01*
X189450812Y-20492503D01*
G37*
G36*
X49294543Y-107767760D02*
G01*
X49671452Y-107773538D01*
X49984812Y-107783068D01*
X50211885Y-107796480D01*
X50329936Y-107813904D01*
X50341011Y-107820413D01*
X50314223Y-107889851D01*
X50227497Y-108061043D01*
X50092178Y-108313964D01*
X49919614Y-108628588D01*
X49721152Y-108984887D01*
X49508136Y-109362835D01*
X49291915Y-109742406D01*
X49083834Y-110103573D01*
X48895239Y-110426309D01*
X48737478Y-110690587D01*
X48621896Y-110876382D01*
X48560544Y-110962954D01*
X48512342Y-110919770D01*
X48404764Y-110769244D01*
X48247689Y-110526978D01*
X48050996Y-110208577D01*
X47824564Y-109829646D01*
X47613237Y-109466656D01*
X47369909Y-109041072D01*
X47151812Y-108654265D01*
X46968410Y-108323459D01*
X46829170Y-108065879D01*
X46743554Y-107898750D01*
X46720000Y-107841060D01*
X46786754Y-107821487D01*
X46971858Y-107804629D01*
X47252575Y-107790616D01*
X47606168Y-107779577D01*
X48009898Y-107771643D01*
X48441029Y-107766942D01*
X48876823Y-107765604D01*
X49294543Y-107767760D01*
G37*
G36*
X240278427Y-18930477D02*
G01*
X240521655Y-19352971D01*
X240739654Y-19734761D01*
X240922960Y-20059017D01*
X241062107Y-20308905D01*
X241147631Y-20467595D01*
X241171111Y-20517977D01*
X241103650Y-20529493D01*
X240913636Y-20539838D01*
X240619629Y-20548579D01*
X240240186Y-20555279D01*
X239793864Y-20559503D01*
X239343146Y-20560830D01*
X237515180Y-20560830D01*
X236626757Y-19019846D01*
X236384298Y-18597525D01*
X236167049Y-18215718D01*
X235984476Y-17891341D01*
X235846049Y-17641312D01*
X235761234Y-17482550D01*
X235738333Y-17432346D01*
X235805791Y-17419832D01*
X235995779Y-17408592D01*
X236289717Y-17399099D01*
X236669026Y-17391828D01*
X237115127Y-17387252D01*
X237562038Y-17385830D01*
X239385743Y-17385830D01*
X240278427Y-18930477D01*
G37*
G36*
X216800101Y-106289316D02*
G01*
X217045250Y-105866926D01*
X217269038Y-105488119D01*
X217461508Y-105169208D01*
X217612698Y-104926506D01*
X217712649Y-104776328D01*
X217749891Y-104733608D01*
X217798730Y-104792134D01*
X217907366Y-104956706D01*
X218065651Y-105210814D01*
X218263435Y-105537947D01*
X218490569Y-105921596D01*
X218679960Y-106246653D01*
X219555590Y-107759698D01*
X220426329Y-106244544D01*
X220668121Y-105829043D01*
X220889355Y-105458800D01*
X221079838Y-105150076D01*
X221229378Y-104919133D01*
X221327780Y-104782232D01*
X221362432Y-104751178D01*
X221405961Y-104813110D01*
X221511924Y-104983175D01*
X221672108Y-105247350D01*
X221878303Y-105591614D01*
X222122298Y-106001946D01*
X222395881Y-106464322D01*
X222690842Y-106964722D01*
X222998970Y-107489123D01*
X223312052Y-108023504D01*
X223621879Y-108553843D01*
X223920238Y-109066117D01*
X224198919Y-109546305D01*
X224449711Y-109980385D01*
X224664402Y-110354335D01*
X224834782Y-110654133D01*
X224952639Y-110865758D01*
X225009761Y-110975187D01*
X225013889Y-110986641D01*
X224945522Y-110991676D01*
X224749175Y-110996296D01*
X224437980Y-111000415D01*
X224025066Y-111003949D01*
X223523564Y-111006812D01*
X222946607Y-111008918D01*
X222307323Y-111010182D01*
X221618845Y-111010519D01*
X221362639Y-111010398D01*
X217711389Y-111007743D01*
X216808069Y-109426384D01*
X215961221Y-107943886D01*
X219660411Y-107943886D01*
X220484198Y-109372925D01*
X220719035Y-109775785D01*
X220932351Y-110133152D01*
X221113733Y-110428275D01*
X221252768Y-110644405D01*
X221339045Y-110764791D01*
X221361379Y-110784036D01*
X221410313Y-110720280D01*
X221518425Y-110551252D01*
X221675175Y-110294367D01*
X221870025Y-109967040D01*
X222092434Y-109586685D01*
X222226254Y-109354997D01*
X223037734Y-107943886D01*
X222191367Y-107924075D01*
X221741485Y-107917464D01*
X221230738Y-107916033D01*
X220738212Y-107919781D01*
X220502705Y-107924075D01*
X219660411Y-107943886D01*
X215961221Y-107943886D01*
X215904748Y-107845024D01*
X216800101Y-106289316D01*
G37*
G36*
X69223160Y-15761768D02*
G01*
X69463508Y-16179754D01*
X69681114Y-16560921D01*
X69865700Y-16887042D01*
X70006986Y-17139889D01*
X70094691Y-17301234D01*
X70118437Y-17349268D01*
X70115444Y-17373257D01*
X70079277Y-17393429D01*
X69999089Y-17410107D01*
X69864034Y-17423611D01*
X69663267Y-17434265D01*
X69385941Y-17442391D01*
X69021210Y-17448312D01*
X68558229Y-17452349D01*
X67986152Y-17454825D01*
X67294132Y-17456063D01*
X66514296Y-17456386D01*
X62869051Y-17456386D01*
X63102442Y-17045321D01*
X63213551Y-16849963D01*
X63378355Y-16560628D01*
X63580572Y-16205880D01*
X63803921Y-15814281D01*
X64006111Y-15459962D01*
X64676389Y-14285666D01*
X66522688Y-14283526D01*
X68368988Y-14281386D01*
X69223160Y-15761768D01*
G37*
G36*
X266399096Y-95408561D02*
G01*
X266501373Y-95575757D01*
X266657704Y-95837310D01*
X266859963Y-96179223D01*
X267100024Y-96587502D01*
X267369760Y-97048149D01*
X267661047Y-97547167D01*
X267965757Y-98070562D01*
X268275766Y-98604336D01*
X268582946Y-99134493D01*
X268879173Y-99647036D01*
X269156321Y-100127971D01*
X269406262Y-100563300D01*
X269620872Y-100939026D01*
X269792025Y-101241154D01*
X269911594Y-101455688D01*
X269971453Y-101568631D01*
X269976592Y-101580745D01*
X269949316Y-101661228D01*
X269861127Y-101840484D01*
X269723546Y-102098695D01*
X269548098Y-102416045D01*
X269346306Y-102772714D01*
X269129692Y-103148886D01*
X268909780Y-103524743D01*
X268698093Y-103880466D01*
X268506155Y-104196238D01*
X268345488Y-104452242D01*
X268227615Y-104628659D01*
X268164061Y-104705671D01*
X268158611Y-104707337D01*
X268104843Y-104642877D01*
X267991757Y-104472991D01*
X267829965Y-104214818D01*
X267630079Y-103885498D01*
X267402707Y-103502169D01*
X267243058Y-103228460D01*
X267005097Y-102820603D01*
X266789714Y-102456738D01*
X266607101Y-102153656D01*
X266467450Y-101928145D01*
X266380955Y-101796995D01*
X266357802Y-101770274D01*
X266312825Y-101828773D01*
X266208232Y-101993002D01*
X266054222Y-102246057D01*
X265860992Y-102571037D01*
X265638739Y-102951038D01*
X265485253Y-103216563D01*
X265248513Y-103625402D01*
X265033224Y-103992362D01*
X264849847Y-104300002D01*
X264708841Y-104530884D01*
X264620668Y-104667569D01*
X264596975Y-104697452D01*
X264511743Y-104681991D01*
X264472368Y-104644636D01*
X264404969Y-104542434D01*
X264284766Y-104344105D01*
X264123538Y-104070392D01*
X263933062Y-103742038D01*
X263725117Y-103379783D01*
X263511481Y-103004371D01*
X263303934Y-102636543D01*
X263114253Y-102297041D01*
X262954217Y-102006607D01*
X262835603Y-101785983D01*
X262770192Y-101655912D01*
X262761111Y-101631071D01*
X262831265Y-101605698D01*
X263040316Y-101585683D01*
X263386149Y-101571111D01*
X263866649Y-101562068D01*
X264479701Y-101558639D01*
X264551027Y-101558608D01*
X266340943Y-101558608D01*
X267196860Y-100075703D01*
X267434598Y-99662471D01*
X267646959Y-99290772D01*
X267824302Y-98977693D01*
X267956987Y-98740320D01*
X268035373Y-98595739D01*
X268052778Y-98558759D01*
X267985366Y-98549469D01*
X267795705Y-98541145D01*
X267502656Y-98534150D01*
X267125077Y-98528846D01*
X266681830Y-98525596D01*
X266283009Y-98524719D01*
X265801599Y-98522438D01*
X265371850Y-98516020D01*
X265012290Y-98506102D01*
X264741446Y-98493321D01*
X264577845Y-98478315D01*
X264536759Y-98464663D01*
X264585922Y-98367714D01*
X264692335Y-98175247D01*
X264844423Y-97907047D01*
X265030612Y-97582898D01*
X265239328Y-97222585D01*
X265458997Y-96845893D01*
X265678045Y-96472607D01*
X265884897Y-96122512D01*
X266067981Y-95815392D01*
X266215721Y-95571031D01*
X266316544Y-95409216D01*
X266358875Y-95349731D01*
X266358998Y-95349719D01*
X266399096Y-95408561D01*
G37*
G36*
X219603184Y-14382716D02*
G01*
X219709809Y-14545023D01*
X219863719Y-14790794D01*
X220053309Y-15100637D01*
X220266980Y-15455161D01*
X220493128Y-15834974D01*
X220720153Y-16220686D01*
X220936452Y-16592906D01*
X221130424Y-16932243D01*
X221290466Y-17219305D01*
X221313923Y-17262358D01*
X221419179Y-17456386D01*
X219582923Y-17456386D01*
X219090542Y-17454432D01*
X218648033Y-17448928D01*
X218273913Y-17440410D01*
X217986697Y-17429415D01*
X217804901Y-17416478D01*
X217746667Y-17403211D01*
X217780694Y-17320904D01*
X217874965Y-17140413D01*
X218017767Y-16881683D01*
X218197386Y-16564661D01*
X218402108Y-16209294D01*
X218620219Y-15835527D01*
X218840005Y-15463306D01*
X219049752Y-15112578D01*
X219237747Y-14803288D01*
X219392275Y-14555384D01*
X219501622Y-14388811D01*
X219554076Y-14323516D01*
X219555443Y-14323263D01*
X219603184Y-14382716D01*
G37*
G36*
X148036018Y-104664763D02*
G01*
X148478264Y-104669582D01*
X148852103Y-104677040D01*
X149139010Y-104686666D01*
X149320461Y-104697992D01*
X149378333Y-104709568D01*
X149344299Y-104789012D01*
X149249949Y-104967491D01*
X149106912Y-105225173D01*
X148926818Y-105542224D01*
X148721294Y-105898814D01*
X148501972Y-106275109D01*
X148280478Y-106651277D01*
X148068444Y-107007485D01*
X147877497Y-107323902D01*
X147719267Y-107580695D01*
X147605383Y-107758031D01*
X147547474Y-107836079D01*
X147543889Y-107838052D01*
X147494389Y-107779439D01*
X147385234Y-107614525D01*
X147226485Y-107359695D01*
X147028200Y-107031335D01*
X146800439Y-106645833D01*
X146597868Y-106297068D01*
X146355409Y-105874747D01*
X146138160Y-105492940D01*
X145955587Y-105168563D01*
X145817160Y-104918535D01*
X145732346Y-104759773D01*
X145709445Y-104709568D01*
X145776911Y-104697089D01*
X145966963Y-104685875D01*
X146261073Y-104676396D01*
X146640718Y-104669121D01*
X147087373Y-104664520D01*
X147543889Y-104663052D01*
X148036018Y-104664763D01*
G37*
G36*
X23392481Y-92280552D02*
G01*
X24268980Y-93797497D01*
X24543987Y-94275966D01*
X24753988Y-94648724D01*
X24906365Y-94931188D01*
X25008500Y-95138775D01*
X25067776Y-95286902D01*
X25091575Y-95390986D01*
X25087279Y-95466446D01*
X25079813Y-95490830D01*
X25026430Y-95600826D01*
X24912636Y-95812841D01*
X24749417Y-96107178D01*
X24547760Y-96464140D01*
X24318654Y-96864031D01*
X24184439Y-97095969D01*
X23354730Y-98524719D01*
X21527603Y-98524719D01*
X20973369Y-98524457D01*
X20543361Y-98522745D01*
X20220694Y-98518190D01*
X19988481Y-98509401D01*
X19829839Y-98494986D01*
X19727880Y-98473555D01*
X19665721Y-98443715D01*
X19626475Y-98404075D01*
X19601227Y-98365969D01*
X19516541Y-98225459D01*
X19382500Y-97997086D01*
X19210967Y-97701604D01*
X19013804Y-97359769D01*
X18802875Y-96992334D01*
X18590041Y-96620055D01*
X18387165Y-96263685D01*
X18206110Y-95943979D01*
X18058738Y-95681692D01*
X17956912Y-95497577D01*
X17912495Y-95412390D01*
X17911592Y-95409826D01*
X17941382Y-95335534D01*
X18032278Y-95155950D01*
X18175073Y-94888128D01*
X18360563Y-94549123D01*
X18579541Y-94155988D01*
X18780000Y-93801025D01*
X19661945Y-92248614D01*
X23392481Y-92280552D01*
G37*
G36*
X289439138Y-51688745D02*
G01*
X289838781Y-51692223D01*
X291619856Y-51711108D01*
X289830436Y-54812049D01*
X289480894Y-55416069D01*
X289151445Y-55982067D01*
X288848986Y-56498424D01*
X288580412Y-56953522D01*
X288352622Y-57335741D01*
X288172511Y-57633464D01*
X288046976Y-57835071D01*
X287982914Y-57928944D01*
X287977130Y-57934287D01*
X287925972Y-57881602D01*
X287815178Y-57722232D01*
X287654811Y-57472186D01*
X287454933Y-57147474D01*
X287225610Y-56764107D01*
X287012195Y-56399156D01*
X286111147Y-54842730D01*
X287008255Y-53287264D01*
X287255192Y-52862999D01*
X287482103Y-52480519D01*
X287678718Y-52156542D01*
X287834768Y-51907791D01*
X287939983Y-51750985D01*
X287981535Y-51702568D01*
X288070401Y-51695300D01*
X288280478Y-51690174D01*
X288591884Y-51687298D01*
X288984732Y-51686785D01*
X289439138Y-51688745D01*
G37*
G36*
X82738307Y-107863987D02*
G01*
X82790011Y-107927795D01*
X82899024Y-108094335D01*
X83053514Y-108343327D01*
X83241646Y-108654493D01*
X83451585Y-109007554D01*
X83671497Y-109382230D01*
X83889549Y-109758244D01*
X84093907Y-110115317D01*
X84272735Y-110433169D01*
X84414201Y-110691523D01*
X84506469Y-110870098D01*
X84537778Y-110947534D01*
X84469565Y-110966822D01*
X84274261Y-110983409D01*
X83965871Y-110996795D01*
X83558396Y-111006482D01*
X83065842Y-111011971D01*
X82699248Y-111013052D01*
X80860717Y-111013052D01*
X81094109Y-110603425D01*
X81205151Y-110408591D01*
X81369843Y-110119695D01*
X81571928Y-109765251D01*
X81795149Y-109373775D01*
X81997778Y-109018442D01*
X82209339Y-108654613D01*
X82400817Y-108338759D01*
X82560359Y-108089361D01*
X82676113Y-107924895D01*
X82736226Y-107863841D01*
X82738307Y-107863987D01*
G37*
G36*
X109805507Y-104819584D02*
G01*
X109917008Y-104989028D01*
X110072876Y-105241313D01*
X110261426Y-105556076D01*
X110470971Y-105912951D01*
X110689825Y-106291570D01*
X110906303Y-106671570D01*
X111108718Y-107032584D01*
X111285384Y-107354246D01*
X111424616Y-107616190D01*
X111514726Y-107798052D01*
X111544029Y-107879464D01*
X111543980Y-107879684D01*
X111504890Y-107959770D01*
X111404806Y-108144496D01*
X111253498Y-108416414D01*
X111060735Y-108758076D01*
X110836286Y-109152034D01*
X110645262Y-109484822D01*
X109765245Y-111013052D01*
X107946512Y-111013052D01*
X107456591Y-111010806D01*
X107016633Y-111004479D01*
X106645240Y-110994691D01*
X106361017Y-110982063D01*
X106182568Y-110967213D01*
X106127778Y-110952476D01*
X106161728Y-110876842D01*
X106257070Y-110696926D01*
X106404038Y-110430303D01*
X106592870Y-110094548D01*
X106813801Y-109707236D01*
X106974445Y-109428469D01*
X107210963Y-109018529D01*
X107422017Y-108650563D01*
X107597898Y-108341679D01*
X107728894Y-108108984D01*
X107805296Y-107969584D01*
X107821111Y-107936823D01*
X107753705Y-107929111D01*
X107564080Y-107922202D01*
X107271129Y-107916399D01*
X106893743Y-107912005D01*
X106450815Y-107909321D01*
X106057222Y-107908608D01*
X105575075Y-107907095D01*
X105143178Y-107902838D01*
X104780421Y-107896263D01*
X104505697Y-107887792D01*
X104337898Y-107877850D01*
X104293333Y-107869015D01*
X104327658Y-107785971D01*
X104422831Y-107605480D01*
X104567155Y-107347152D01*
X104748931Y-107030596D01*
X104956460Y-106675423D01*
X105178045Y-106301242D01*
X105401985Y-105927662D01*
X105616584Y-105574293D01*
X105810141Y-105260745D01*
X105970960Y-105006628D01*
X106087340Y-104831551D01*
X106147583Y-104755124D01*
X106151997Y-104753440D01*
X106204221Y-104818320D01*
X106315770Y-104988904D01*
X106476258Y-105248207D01*
X106675298Y-105579244D01*
X106902503Y-105965030D01*
X107077734Y-106267224D01*
X107937260Y-107758936D01*
X108810419Y-106245063D01*
X109052917Y-105829931D01*
X109274866Y-105460045D01*
X109466036Y-105151649D01*
X109616193Y-104920985D01*
X109715107Y-104784296D01*
X109750060Y-104753350D01*
X109805507Y-104819584D01*
G37*
G36*
X40010406Y-17387282D02*
G01*
X40453506Y-17391371D01*
X40828258Y-17397701D01*
X41116166Y-17405872D01*
X41298735Y-17415488D01*
X41357778Y-17425422D01*
X41323892Y-17499599D01*
X41229942Y-17673675D01*
X41087487Y-17927867D01*
X40908087Y-18242398D01*
X40703301Y-18597486D01*
X40484691Y-18973350D01*
X40263814Y-19350212D01*
X40052232Y-19708289D01*
X39861504Y-20027803D01*
X39703190Y-20288973D01*
X39588850Y-20472019D01*
X39530043Y-20557160D01*
X39525410Y-20560830D01*
X39480393Y-20502276D01*
X39375399Y-20337574D01*
X39220341Y-20083162D01*
X39025134Y-19755478D01*
X38799693Y-19370960D01*
X38604183Y-19033386D01*
X38361730Y-18611820D01*
X38142965Y-18230024D01*
X37957691Y-17905224D01*
X37815713Y-17654647D01*
X37726834Y-17495518D01*
X37700648Y-17445886D01*
X37761642Y-17429821D01*
X37945561Y-17415378D01*
X38234227Y-17403157D01*
X38609456Y-17393759D01*
X39053069Y-17387786D01*
X39517454Y-17385830D01*
X40010406Y-17387282D01*
G37*
G36*
X70556075Y-107769208D02*
G01*
X70969079Y-107772939D01*
X71336561Y-107779969D01*
X71635196Y-107790350D01*
X71841663Y-107804133D01*
X71932637Y-107821370D01*
X71934444Y-107823219D01*
X71908546Y-107893525D01*
X71822610Y-108065444D01*
X71688008Y-108318879D01*
X71516111Y-108633735D01*
X71318290Y-108989914D01*
X71105917Y-109367322D01*
X70890362Y-109745861D01*
X70682997Y-110105435D01*
X70495194Y-110425948D01*
X70338324Y-110687304D01*
X70223757Y-110869406D01*
X70165206Y-110949957D01*
X70115402Y-110907911D01*
X70006310Y-110758420D01*
X69847858Y-110517009D01*
X69649970Y-110199203D01*
X69422575Y-109820529D01*
X69207719Y-109452363D01*
X68965576Y-109027166D01*
X68751251Y-108641227D01*
X68573736Y-108311537D01*
X68442024Y-108055081D01*
X68365107Y-107888849D01*
X68349549Y-107831142D01*
X68428166Y-107813221D01*
X68624521Y-107798239D01*
X68915293Y-107786247D01*
X69277157Y-107777296D01*
X69686791Y-107771438D01*
X70120871Y-107768725D01*
X70556075Y-107769208D01*
G37*
G36*
X95373792Y-17445087D02*
G01*
X95473564Y-17605302D01*
X95620512Y-17848297D01*
X95803052Y-18154294D01*
X96009600Y-18503520D01*
X96228576Y-18876198D01*
X96448394Y-19252554D01*
X96657472Y-19612813D01*
X96844227Y-19937198D01*
X96997077Y-20205936D01*
X97104437Y-20399249D01*
X97154726Y-20497364D01*
X97155463Y-20499229D01*
X97094465Y-20515836D01*
X96910120Y-20530706D01*
X96620186Y-20543240D01*
X96242423Y-20552836D01*
X95794590Y-20558895D01*
X95332625Y-20560830D01*
X93486269Y-20560830D01*
X93673382Y-20225691D01*
X93889384Y-19841561D01*
X94122070Y-19432489D01*
X94360868Y-19016554D01*
X94595211Y-18611833D01*
X94814529Y-18236406D01*
X95008251Y-17908350D01*
X95165810Y-17645743D01*
X95276634Y-17466664D01*
X95330156Y-17389191D01*
X95332778Y-17387426D01*
X95373792Y-17445087D01*
G37*
G36*
X17035812Y-106215843D02*
G01*
X17280078Y-106641095D01*
X17499051Y-107027397D01*
X17683249Y-107357604D01*
X17823189Y-107614572D01*
X17909391Y-107781157D01*
X17933333Y-107838621D01*
X17863938Y-107861673D01*
X17660272Y-107880351D01*
X17329117Y-107894397D01*
X16877252Y-107903552D01*
X16311459Y-107907559D01*
X16116528Y-107907716D01*
X14299722Y-107906825D01*
X13400139Y-106337695D01*
X13156516Y-105910768D01*
X12937935Y-105523932D01*
X12753754Y-105194058D01*
X12613331Y-104938018D01*
X12526024Y-104772682D01*
X12500556Y-104715808D01*
X12568009Y-104701598D01*
X12757967Y-104688836D01*
X13051825Y-104678063D01*
X13430981Y-104669819D01*
X13876829Y-104664642D01*
X14319423Y-104663052D01*
X16138291Y-104663052D01*
X17035812Y-106215843D01*
G37*
G36*
X292975828Y-95362590D02*
G01*
X293403884Y-95366145D01*
X295210528Y-95384997D01*
X294343829Y-96886238D01*
X294100673Y-97305346D01*
X293877989Y-97685249D01*
X293686291Y-98008321D01*
X293536096Y-98256937D01*
X293437919Y-98413470D01*
X293405287Y-98459321D01*
X293348792Y-98429736D01*
X293233885Y-98283990D01*
X293059137Y-98019895D01*
X292823119Y-97635262D01*
X292524402Y-97127901D01*
X292433606Y-96970964D01*
X292191103Y-96547243D01*
X291975810Y-96164795D01*
X291796756Y-95840180D01*
X291662973Y-95589957D01*
X291583490Y-95430688D01*
X291565504Y-95379030D01*
X291641792Y-95371144D01*
X291840072Y-95365424D01*
X292141240Y-95362002D01*
X292526194Y-95361013D01*
X292975828Y-95362590D01*
G37*
G36*
X52187807Y-98538496D02*
G01*
X52246738Y-98625573D01*
X52363365Y-98815599D01*
X52525896Y-99088707D01*
X52722538Y-99425030D01*
X52941498Y-99804703D01*
X52996336Y-99900552D01*
X53224040Y-100298549D01*
X53436414Y-100668589D01*
X53620416Y-100988038D01*
X53763002Y-101234260D01*
X53851130Y-101384621D01*
X53860263Y-101399858D01*
X53998731Y-101629163D01*
X52158532Y-101629163D01*
X51665598Y-101627599D01*
X51222516Y-101623191D01*
X50847784Y-101616370D01*
X50559898Y-101607563D01*
X50377352Y-101597199D01*
X50318333Y-101586495D01*
X50352173Y-101516208D01*
X50447397Y-101340691D01*
X50594566Y-101076762D01*
X50784240Y-100741240D01*
X51006978Y-100350944D01*
X51211535Y-99995133D01*
X51496405Y-99504832D01*
X51721004Y-99127461D01*
X51892663Y-98852083D01*
X52018711Y-98667765D01*
X52106477Y-98563569D01*
X52163290Y-98528560D01*
X52187807Y-98538496D01*
G37*
G36*
X202184591Y-104665710D02*
G01*
X202676696Y-104673759D01*
X203033173Y-104687311D01*
X203256715Y-104706478D01*
X203350014Y-104731372D01*
X203353333Y-104737876D01*
X203319898Y-104813079D01*
X203227284Y-104989991D01*
X203087028Y-105248205D01*
X202910666Y-105567316D01*
X202709736Y-105926919D01*
X202495774Y-106306609D01*
X202280317Y-106685979D01*
X202074902Y-107044626D01*
X201891066Y-107362144D01*
X201740344Y-107618126D01*
X201634275Y-107792169D01*
X201587992Y-107860266D01*
X201540864Y-107817616D01*
X201434247Y-107667659D01*
X201277991Y-107425985D01*
X201081948Y-107108184D01*
X200855969Y-106729849D01*
X200646481Y-106370183D01*
X200403243Y-105944895D01*
X200185287Y-105557986D01*
X200002106Y-105226788D01*
X199863195Y-104968629D01*
X199778046Y-104800841D01*
X199755000Y-104742831D01*
X199802196Y-104716135D01*
X199949505Y-104695313D01*
X200205508Y-104679985D01*
X200578785Y-104669770D01*
X201077917Y-104664288D01*
X201554167Y-104663052D01*
X202184591Y-104665710D01*
G37*
%TD*%
D10*
%TO.C,REF\u002A\u002A*%
X98971553Y-107624719D03*
%TD*%
M02*
