%TF.GenerationSoftware,KiCad,Pcbnew,(6.0.1-0)*%
%TF.CreationDate,2022-02-13T11:08:50+09:00*%
%TF.ProjectId,keyplate,6b657970-6c61-4746-952e-6b696361645f,rev?*%
%TF.SameCoordinates,Original*%
%TF.FileFunction,Profile,NP*%
%FSLAX46Y46*%
G04 Gerber Fmt 4.6, Leading zero omitted, Abs format (unit mm)*
G04 Created by KiCad (PCBNEW (6.0.1-0)) date 2022-02-13 11:08:50*
%MOMM*%
%LPD*%
G01*
G04 APERTURE LIST*
%TA.AperFunction,Profile*%
%ADD10C,0.352776*%
%TD*%
G04 APERTURE END LIST*
D10*
X218287272Y-58200356D02*
X218287272Y-72000282D01*
X218287272Y-72000282D02*
X204087290Y-72000282D01*
X204087290Y-72000282D02*
X204087290Y-58200356D01*
X204087290Y-58200356D02*
X218287272Y-58200356D01*
X218287272Y-58200356D02*
X218287272Y-58200356D01*
X173644419Y-24200075D02*
X173644419Y-38000000D01*
X173644419Y-38000000D02*
X159441965Y-38000000D01*
X159441965Y-38000000D02*
X159441965Y-24200075D01*
X159441965Y-24200075D02*
X173644419Y-24200075D01*
X173644419Y-24200075D02*
X173644419Y-24200075D01*
X231688196Y-92206288D02*
X231688196Y-106005856D01*
X231688196Y-106005856D02*
X217488230Y-106005856D01*
X217488230Y-106005856D02*
X217488230Y-92206288D01*
X217488230Y-92206288D02*
X231688196Y-92206288D01*
X231688196Y-92206288D02*
X231688196Y-92206288D01*
X35232409Y-58200356D02*
X35232409Y-72000282D01*
X35232409Y-72000282D02*
X21032433Y-72000282D01*
X21032433Y-72000282D02*
X21032433Y-58200356D01*
X21032433Y-58200356D02*
X35232409Y-58200356D01*
X35232409Y-58200356D02*
X35232409Y-58200356D01*
X57554011Y-58200356D02*
X57554011Y-72000282D01*
X57554011Y-72000282D02*
X43354037Y-72000282D01*
X43354037Y-72000282D02*
X43354037Y-58200356D01*
X43354037Y-58200356D02*
X57554011Y-58200356D01*
X57554011Y-58200356D02*
X57554011Y-58200356D01*
X209359202Y-24200075D02*
X209359202Y-38000000D01*
X209359202Y-38000000D02*
X195159220Y-38000000D01*
X195159220Y-38000000D02*
X195159220Y-24200075D01*
X195159220Y-24200075D02*
X202699488Y-24200075D01*
X202699488Y-24200075D02*
X202699488Y-21590232D01*
X202699488Y-21590232D02*
X202701718Y-21502770D01*
X202701718Y-21502770D02*
X202708368Y-21415900D01*
X202708368Y-21415900D02*
X202719376Y-21329767D01*
X202719376Y-21329767D02*
X202734681Y-21244516D01*
X202734681Y-21244516D02*
X202754221Y-21160292D01*
X202754221Y-21160292D02*
X202777934Y-21077241D01*
X202777934Y-21077241D02*
X202805760Y-20995507D01*
X202805760Y-20995507D02*
X202837637Y-20915237D01*
X202837637Y-20915237D02*
X202873503Y-20836575D01*
X202873503Y-20836575D02*
X202913297Y-20759666D01*
X202913297Y-20759666D02*
X202956958Y-20684655D01*
X202956958Y-20684655D02*
X203004423Y-20611689D01*
X203004423Y-20611689D02*
X203055632Y-20540912D01*
X203055632Y-20540912D02*
X203110522Y-20472468D01*
X203110522Y-20472468D02*
X203169034Y-20406505D01*
X203169034Y-20406505D02*
X203231104Y-20343166D01*
X203231104Y-20343166D02*
X203296334Y-20282830D01*
X203296334Y-20282830D02*
X203364258Y-20225952D01*
X203364258Y-20225952D02*
X203434728Y-20172593D01*
X203434728Y-20172593D02*
X203507594Y-20122812D01*
X203507594Y-20122812D02*
X203582706Y-20076669D01*
X203582706Y-20076669D02*
X203659916Y-20034224D01*
X203659916Y-20034224D02*
X203739074Y-19995536D01*
X203739074Y-19995536D02*
X203820030Y-19960667D01*
X203820030Y-19960667D02*
X203902636Y-19929675D01*
X203902636Y-19929675D02*
X203986742Y-19902622D01*
X203986742Y-19902622D02*
X204072197Y-19879565D01*
X204072197Y-19879565D02*
X204158854Y-19860567D01*
X204158854Y-19860567D02*
X204246563Y-19845686D01*
X204246563Y-19845686D02*
X204335174Y-19834982D01*
X204335174Y-19834982D02*
X204424538Y-19828516D01*
X204424538Y-19828516D02*
X204514506Y-19826348D01*
X204514506Y-19826348D02*
X206103068Y-19826348D01*
X206103068Y-19826348D02*
X206193102Y-19828516D01*
X206193102Y-19828516D02*
X206282524Y-19834982D01*
X206282524Y-19834982D02*
X206371184Y-19845686D01*
X206371184Y-19845686D02*
X206458935Y-19860567D01*
X206458935Y-19860567D02*
X206545627Y-19879565D01*
X206545627Y-19879565D02*
X206631111Y-19902622D01*
X206631111Y-19902622D02*
X206715240Y-19929675D01*
X206715240Y-19929675D02*
X206797863Y-19960667D01*
X206797863Y-19960667D02*
X206878833Y-19995536D01*
X206878833Y-19995536D02*
X206958001Y-20034224D01*
X206958001Y-20034224D02*
X207035218Y-20076669D01*
X207035218Y-20076669D02*
X207110336Y-20122812D01*
X207110336Y-20122812D02*
X207183205Y-20172593D01*
X207183205Y-20172593D02*
X207253677Y-20225952D01*
X207253677Y-20225952D02*
X207321603Y-20282830D01*
X207321603Y-20282830D02*
X207386835Y-20343166D01*
X207386835Y-20343166D02*
X207448846Y-20406505D01*
X207448846Y-20406505D02*
X207507313Y-20472468D01*
X207507313Y-20472468D02*
X207562173Y-20540912D01*
X207562173Y-20540912D02*
X207613364Y-20611689D01*
X207613364Y-20611689D02*
X207660823Y-20684655D01*
X207660823Y-20684655D02*
X207704486Y-20759666D01*
X207704486Y-20759666D02*
X207744290Y-20836575D01*
X207744290Y-20836575D02*
X207780173Y-20915237D01*
X207780173Y-20915237D02*
X207812070Y-20995507D01*
X207812070Y-20995507D02*
X207839919Y-21077241D01*
X207839919Y-21077241D02*
X207863657Y-21160292D01*
X207863657Y-21160292D02*
X207883220Y-21244516D01*
X207883220Y-21244516D02*
X207898546Y-21329767D01*
X207898546Y-21329767D02*
X207909571Y-21415900D01*
X207909571Y-21415900D02*
X207916232Y-21502770D01*
X207916232Y-21502770D02*
X207918467Y-21590232D01*
X207918467Y-21590232D02*
X207918467Y-24200075D01*
X207918467Y-24200075D02*
X209359202Y-24200075D01*
X209359202Y-24200075D02*
X209359202Y-24200075D01*
X209356714Y-75200680D02*
X209356714Y-89000607D01*
X209356714Y-89000607D02*
X195156748Y-89000607D01*
X195156748Y-89000607D02*
X195156748Y-75200680D01*
X195156748Y-75200680D02*
X209356714Y-75200680D01*
X209356714Y-75200680D02*
X209356714Y-75200680D01*
X254004877Y-92204525D02*
X254004877Y-106004093D01*
X254004877Y-106004093D02*
X239804896Y-106004093D01*
X239804896Y-106004093D02*
X239804896Y-92204525D01*
X239804896Y-92204525D02*
X254004877Y-92204525D01*
X254004877Y-92204525D02*
X254004877Y-92204525D01*
X271862818Y-42921240D02*
X271863208Y-42937003D01*
X271863208Y-42937003D02*
X271864373Y-42952657D01*
X271864373Y-42952657D02*
X271866301Y-42968175D01*
X271866301Y-42968175D02*
X271868981Y-42983532D01*
X271868981Y-42983532D02*
X271872402Y-42998701D01*
X271872402Y-42998701D02*
X271876555Y-43013655D01*
X271876555Y-43013655D02*
X271881428Y-43028368D01*
X271881428Y-43028368D02*
X271887011Y-43042814D01*
X271887011Y-43042814D02*
X271893292Y-43056967D01*
X271893292Y-43056967D02*
X271900262Y-43070800D01*
X271900262Y-43070800D02*
X271907908Y-43084287D01*
X271907908Y-43084287D02*
X271916222Y-43097401D01*
X271916222Y-43097401D02*
X271925191Y-43110116D01*
X271925191Y-43110116D02*
X271934806Y-43122405D01*
X271934806Y-43122405D02*
X271945054Y-43134243D01*
X271945054Y-43134243D02*
X271955927Y-43145603D01*
X271955927Y-43145603D02*
X271967352Y-43156475D01*
X271967352Y-43156475D02*
X271979246Y-43166723D01*
X271979246Y-43166723D02*
X271991584Y-43176338D01*
X271991584Y-43176338D02*
X272004340Y-43185309D01*
X272004340Y-43185309D02*
X272017489Y-43193624D01*
X272017489Y-43193624D02*
X272031004Y-43201273D01*
X272031004Y-43201273D02*
X272044860Y-43208245D01*
X272044860Y-43208245D02*
X272059031Y-43214529D01*
X272059031Y-43214529D02*
X272073490Y-43220115D01*
X272073490Y-43220115D02*
X272088213Y-43224991D01*
X272088213Y-43224991D02*
X272103173Y-43229147D01*
X272103173Y-43229147D02*
X272118345Y-43232571D01*
X272118345Y-43232571D02*
X272133702Y-43235253D01*
X272133702Y-43235253D02*
X272149218Y-43237183D01*
X272149218Y-43237183D02*
X272164869Y-43238348D01*
X272164869Y-43238348D02*
X272180628Y-43238739D01*
X272180628Y-43238739D02*
X279663050Y-43238739D01*
X279663050Y-43238739D02*
X279678755Y-43238348D01*
X279678755Y-43238348D02*
X279694357Y-43237183D01*
X279694357Y-43237183D02*
X279709832Y-43235253D01*
X279709832Y-43235253D02*
X279725152Y-43232571D01*
X279725152Y-43232571D02*
X279740292Y-43229147D01*
X279740292Y-43229147D02*
X279755225Y-43224991D01*
X279755225Y-43224991D02*
X279769924Y-43220115D01*
X279769924Y-43220115D02*
X279784365Y-43214529D01*
X279784365Y-43214529D02*
X279798520Y-43208245D01*
X279798520Y-43208245D02*
X279812364Y-43201273D01*
X279812364Y-43201273D02*
X279825870Y-43193624D01*
X279825870Y-43193624D02*
X279839011Y-43185309D01*
X279839011Y-43185309D02*
X279851763Y-43176338D01*
X279851763Y-43176338D02*
X279864098Y-43166723D01*
X279864098Y-43166723D02*
X279875991Y-43156475D01*
X279875991Y-43156475D02*
X279887415Y-43145603D01*
X279887415Y-43145603D02*
X279898283Y-43134243D01*
X279898283Y-43134243D02*
X279908529Y-43122405D01*
X279908529Y-43122405D02*
X279918143Y-43110116D01*
X279918143Y-43110116D02*
X279927112Y-43097401D01*
X279927112Y-43097401D02*
X279935427Y-43084287D01*
X279935427Y-43084287D02*
X279943077Y-43070800D01*
X279943077Y-43070800D02*
X279950050Y-43056967D01*
X279950050Y-43056967D02*
X279956335Y-43042814D01*
X279956335Y-43042814D02*
X279961922Y-43028368D01*
X279961922Y-43028368D02*
X279966800Y-43013655D01*
X279966800Y-43013655D02*
X279970957Y-42998701D01*
X279970957Y-42998701D02*
X279974383Y-42983532D01*
X279974383Y-42983532D02*
X279977067Y-42968175D01*
X279977067Y-42968175D02*
X279978997Y-42952657D01*
X279978997Y-42952657D02*
X279980164Y-42937003D01*
X279980164Y-42937003D02*
X279980555Y-42921240D01*
X279980555Y-42921240D02*
X279980555Y-41200392D01*
X279980555Y-41200392D02*
X294180536Y-41200392D01*
X294180536Y-41200392D02*
X294180536Y-54999966D01*
X294180536Y-54999966D02*
X279980555Y-54999966D01*
X279980555Y-54999966D02*
X279980555Y-48370583D01*
X279980555Y-48370583D02*
X279980147Y-48354155D01*
X279980147Y-48354155D02*
X279978932Y-48337829D01*
X279978932Y-48337829D02*
X279976921Y-48321635D01*
X279976921Y-48321635D02*
X279974125Y-48305601D01*
X279974125Y-48305601D02*
X279970556Y-48289755D01*
X279970556Y-48289755D02*
X279966225Y-48274125D01*
X279966225Y-48274125D02*
X279961144Y-48258740D01*
X279961144Y-48258740D02*
X279955324Y-48243629D01*
X279955324Y-48243629D02*
X279948777Y-48228819D01*
X279948777Y-48228819D02*
X279941514Y-48214339D01*
X279941514Y-48214339D02*
X279933546Y-48200218D01*
X279933546Y-48200218D02*
X279924885Y-48186484D01*
X279924885Y-48186484D02*
X279915542Y-48173166D01*
X279915542Y-48173166D02*
X279905530Y-48160291D01*
X279905530Y-48160291D02*
X279894858Y-48147888D01*
X279894858Y-48147888D02*
X279883539Y-48135986D01*
X279883539Y-48135986D02*
X279871575Y-48124665D01*
X279871575Y-48124665D02*
X279859126Y-48113991D01*
X279859126Y-48113991D02*
X279846219Y-48103977D01*
X279846219Y-48103977D02*
X279832881Y-48094633D01*
X279832881Y-48094633D02*
X279819139Y-48085972D01*
X279819139Y-48085972D02*
X279805018Y-48078005D01*
X279805018Y-48078005D02*
X279790547Y-48070742D01*
X279790547Y-48070742D02*
X279775751Y-48064196D01*
X279775751Y-48064196D02*
X279760658Y-48058378D01*
X279760658Y-48058378D02*
X279745294Y-48053298D01*
X279745294Y-48053298D02*
X279729686Y-48048969D01*
X279729686Y-48048969D02*
X279713861Y-48045401D01*
X279713861Y-48045401D02*
X279697845Y-48042607D01*
X279697845Y-48042607D02*
X279681665Y-48040597D01*
X279681665Y-48040597D02*
X279665348Y-48039382D01*
X279665348Y-48039382D02*
X279648920Y-48038975D01*
X279648920Y-48038975D02*
X272194758Y-48038975D01*
X272194758Y-48038975D02*
X272178271Y-48039382D01*
X272178271Y-48039382D02*
X272161902Y-48040597D01*
X272161902Y-48040597D02*
X272145677Y-48042607D01*
X272145677Y-48042607D02*
X272129625Y-48045401D01*
X272129625Y-48045401D02*
X272113770Y-48048969D01*
X272113770Y-48048969D02*
X272098141Y-48053298D01*
X272098141Y-48053298D02*
X272082765Y-48058378D01*
X272082765Y-48058378D02*
X272067667Y-48064196D01*
X272067667Y-48064196D02*
X272052876Y-48070742D01*
X272052876Y-48070742D02*
X272038418Y-48078005D01*
X272038418Y-48078005D02*
X272024319Y-48085972D01*
X272024319Y-48085972D02*
X272010608Y-48094633D01*
X272010608Y-48094633D02*
X271997310Y-48103977D01*
X271997310Y-48103977D02*
X271984453Y-48113991D01*
X271984453Y-48113991D02*
X271972064Y-48124665D01*
X271972064Y-48124665D02*
X271960169Y-48135986D01*
X271960169Y-48135986D02*
X271948786Y-48147888D01*
X271948786Y-48147888D02*
X271938059Y-48160291D01*
X271938059Y-48160291D02*
X271927999Y-48173166D01*
X271927999Y-48173166D02*
X271918616Y-48186484D01*
X271918616Y-48186484D02*
X271909922Y-48200218D01*
X271909922Y-48200218D02*
X271901928Y-48214339D01*
X271901928Y-48214339D02*
X271894643Y-48228819D01*
X271894643Y-48228819D02*
X271888079Y-48243629D01*
X271888079Y-48243629D02*
X271882247Y-48258740D01*
X271882247Y-48258740D02*
X271877157Y-48274125D01*
X271877157Y-48274125D02*
X271872821Y-48289755D01*
X271872821Y-48289755D02*
X271869249Y-48305601D01*
X271869249Y-48305601D02*
X271866451Y-48321635D01*
X271866451Y-48321635D02*
X271864440Y-48337829D01*
X271864440Y-48337829D02*
X271863225Y-48354155D01*
X271863225Y-48354155D02*
X271862818Y-48370583D01*
X271862818Y-48370583D02*
X271862818Y-54999966D01*
X271862818Y-54999966D02*
X257662821Y-54999966D01*
X257662821Y-54999966D02*
X257662821Y-41200392D01*
X257662821Y-41200392D02*
X271862818Y-41200392D01*
X271862818Y-41200392D02*
X271862818Y-42921240D01*
X271862818Y-42921240D02*
X271862818Y-42921240D01*
X102199335Y-75200680D02*
X102199335Y-89000607D01*
X102199335Y-89000607D02*
X87999361Y-89000607D01*
X87999361Y-89000607D02*
X87999361Y-75200680D01*
X87999361Y-75200680D02*
X102199335Y-75200680D01*
X102199335Y-75200680D02*
X102199335Y-75200680D01*
X236148737Y-58200356D02*
X236148737Y-72000282D01*
X236148737Y-72000282D02*
X221948740Y-72000282D01*
X221948740Y-72000282D02*
X221948740Y-58200356D01*
X221948740Y-58200356D02*
X236148737Y-58200356D01*
X236148737Y-58200356D02*
X236148737Y-58200356D01*
X102202166Y-24200075D02*
X102202166Y-38000000D01*
X102202166Y-38000000D02*
X88002192Y-38000000D01*
X88002192Y-38000000D02*
X88002192Y-24200075D01*
X88002192Y-24200075D02*
X102202166Y-24200075D01*
X102202166Y-24200075D02*
X102202166Y-24200075D01*
X262942835Y-75200680D02*
X262942835Y-89000607D01*
X262942835Y-89000607D02*
X248742838Y-89000607D01*
X248742838Y-89000607D02*
X248742838Y-75200680D01*
X248742838Y-75200680D02*
X262942835Y-75200680D01*
X262942835Y-75200680D02*
X262942835Y-75200680D01*
X280796534Y-24200075D02*
X280796534Y-38000000D01*
X280796534Y-38000000D02*
X266596522Y-38000000D01*
X266596522Y-38000000D02*
X266596522Y-24200075D01*
X266596522Y-24200075D02*
X280796534Y-24200075D01*
X280796534Y-24200075D02*
X280796534Y-24200075D01*
X40310986Y-48038975D02*
X40187552Y-48035849D01*
X40187552Y-48035849D02*
X40065729Y-48026572D01*
X40065729Y-48026572D02*
X39945668Y-48011295D01*
X39945668Y-48011295D02*
X39827520Y-47990170D01*
X39827520Y-47990170D02*
X39711437Y-47963347D01*
X39711437Y-47963347D02*
X39597570Y-47930979D01*
X39597570Y-47930979D02*
X39486071Y-47893217D01*
X39486071Y-47893217D02*
X39377090Y-47850211D01*
X39377090Y-47850211D02*
X39270780Y-47802114D01*
X39270780Y-47802114D02*
X39167291Y-47749077D01*
X39167291Y-47749077D02*
X39066774Y-47691250D01*
X39066774Y-47691250D02*
X38969382Y-47628786D01*
X38969382Y-47628786D02*
X38875266Y-47561836D01*
X38875266Y-47561836D02*
X38784576Y-47490551D01*
X38784576Y-47490551D02*
X38697465Y-47415082D01*
X38697465Y-47415082D02*
X38614083Y-47335581D01*
X38614083Y-47335581D02*
X38534582Y-47252199D01*
X38534582Y-47252199D02*
X38459113Y-47165088D01*
X38459113Y-47165088D02*
X38387828Y-47074398D01*
X38387828Y-47074398D02*
X38320878Y-46980281D01*
X38320878Y-46980281D02*
X38258414Y-46882889D01*
X38258414Y-46882889D02*
X38200588Y-46782373D01*
X38200588Y-46782373D02*
X38147550Y-46678884D01*
X38147550Y-46678884D02*
X38099453Y-46572574D01*
X38099453Y-46572574D02*
X38056448Y-46463593D01*
X38056448Y-46463593D02*
X38018686Y-46352094D01*
X38018686Y-46352094D02*
X37986318Y-46238227D01*
X37986318Y-46238227D02*
X37959496Y-46122144D01*
X37959496Y-46122144D02*
X37938370Y-46003997D01*
X37938370Y-46003997D02*
X37923094Y-45883936D01*
X37923094Y-45883936D02*
X37913817Y-45762113D01*
X37913817Y-45762113D02*
X37910691Y-45638680D01*
X37910691Y-45638680D02*
X37913817Y-45515278D01*
X37913817Y-45515278D02*
X37923094Y-45393485D01*
X37923094Y-45393485D02*
X37938370Y-45273453D01*
X37938370Y-45273453D02*
X37959496Y-45155331D01*
X37959496Y-45155331D02*
X37986318Y-45039273D01*
X37986318Y-45039273D02*
X38018686Y-44925429D01*
X38018686Y-44925429D02*
X38056448Y-44813951D01*
X38056448Y-44813951D02*
X38099453Y-44704990D01*
X38099453Y-44704990D02*
X38147550Y-44598697D01*
X38147550Y-44598697D02*
X38200588Y-44495225D01*
X38200588Y-44495225D02*
X38258414Y-44394724D01*
X38258414Y-44394724D02*
X38320878Y-44297345D01*
X38320878Y-44297345D02*
X38387828Y-44203241D01*
X38387828Y-44203241D02*
X38459113Y-44112563D01*
X38459113Y-44112563D02*
X38534582Y-44025461D01*
X38534582Y-44025461D02*
X38614083Y-43942088D01*
X38614083Y-43942088D02*
X38697465Y-43862595D01*
X38697465Y-43862595D02*
X38784576Y-43787133D01*
X38784576Y-43787133D02*
X38875266Y-43715854D01*
X38875266Y-43715854D02*
X38969382Y-43648908D01*
X38969382Y-43648908D02*
X39066774Y-43586449D01*
X39066774Y-43586449D02*
X39167291Y-43528626D01*
X39167291Y-43528626D02*
X39270780Y-43475592D01*
X39270780Y-43475592D02*
X39377090Y-43427497D01*
X39377090Y-43427497D02*
X39486071Y-43384493D01*
X39486071Y-43384493D02*
X39597570Y-43346732D01*
X39597570Y-43346732D02*
X39711437Y-43314365D01*
X39711437Y-43314365D02*
X39827520Y-43287544D01*
X39827520Y-43287544D02*
X39945668Y-43266419D01*
X39945668Y-43266419D02*
X40065729Y-43251142D01*
X40065729Y-43251142D02*
X40187552Y-43241865D01*
X40187552Y-43241865D02*
X40310986Y-43238739D01*
X40310986Y-43238739D02*
X43322287Y-43238739D01*
X43322287Y-43238739D02*
X43322287Y-41200392D01*
X43322287Y-41200392D02*
X57534258Y-41200392D01*
X57534258Y-41200392D02*
X57534258Y-54999966D01*
X57534258Y-54999966D02*
X43322287Y-54999966D01*
X43322287Y-54999966D02*
X43322287Y-48038975D01*
X43322287Y-48038975D02*
X40310986Y-48038975D01*
X40310986Y-48038975D02*
X40310986Y-48038975D01*
X280801813Y-75200680D02*
X280801813Y-89000607D01*
X280801813Y-89000607D02*
X266601832Y-89000607D01*
X266601832Y-89000607D02*
X266601832Y-75200680D01*
X266601832Y-75200680D02*
X280801813Y-75200680D01*
X280801813Y-75200680D02*
X280801813Y-75200680D01*
X218287272Y-41200392D02*
X218287272Y-54999966D01*
X218287272Y-54999966D02*
X204087290Y-54999966D01*
X204087290Y-54999966D02*
X204087290Y-41200392D01*
X204087290Y-41200392D02*
X218287272Y-41200392D01*
X218287272Y-41200392D02*
X218287272Y-41200392D01*
X66484564Y-24200075D02*
X66484564Y-38000000D01*
X66484564Y-38000000D02*
X52284582Y-38000000D01*
X52284582Y-38000000D02*
X52284582Y-24200075D01*
X52284582Y-24200075D02*
X66484564Y-24200075D01*
X66484564Y-24200075D02*
X66484564Y-24200075D01*
X137921885Y-24200075D02*
X137921885Y-38000000D01*
X137921885Y-38000000D02*
X123721895Y-38000000D01*
X123721895Y-38000000D02*
X123721895Y-24200075D01*
X123721895Y-24200075D02*
X137921885Y-24200075D01*
X137921885Y-24200075D02*
X137921885Y-24200075D01*
X111130244Y-41200392D02*
X111130244Y-54999966D01*
X111130244Y-54999966D02*
X96930262Y-54999966D01*
X96930262Y-54999966D02*
X96930262Y-41200392D01*
X96930262Y-41200392D02*
X111130244Y-41200392D01*
X111130244Y-41200392D02*
X111130244Y-41200392D01*
X20968579Y-75200680D02*
X20912733Y-75199268D01*
X20912733Y-75199268D02*
X20857620Y-75195078D01*
X20857620Y-75195078D02*
X20803309Y-75188178D01*
X20803309Y-75188178D02*
X20749868Y-75178636D01*
X20749868Y-75178636D02*
X20697366Y-75166520D01*
X20697366Y-75166520D02*
X20645869Y-75151899D01*
X20645869Y-75151899D02*
X20595447Y-75134840D01*
X20595447Y-75134840D02*
X20546168Y-75115412D01*
X20546168Y-75115412D02*
X20498099Y-75093683D01*
X20498099Y-75093683D02*
X20451310Y-75069721D01*
X20451310Y-75069721D02*
X20405867Y-75043594D01*
X20405867Y-75043594D02*
X20361840Y-75015370D01*
X20361840Y-75015370D02*
X20319296Y-74985118D01*
X20319296Y-74985118D02*
X20278304Y-74952905D01*
X20278304Y-74952905D02*
X20238931Y-74918800D01*
X20238931Y-74918800D02*
X20201246Y-74882871D01*
X20201246Y-74882871D02*
X20165317Y-74845186D01*
X20165317Y-74845186D02*
X20131212Y-74805813D01*
X20131212Y-74805813D02*
X20098999Y-74764821D01*
X20098999Y-74764821D02*
X20068747Y-74722277D01*
X20068747Y-74722277D02*
X20040523Y-74678249D01*
X20040523Y-74678249D02*
X20014396Y-74632807D01*
X20014396Y-74632807D02*
X19990434Y-74586017D01*
X19990434Y-74586017D02*
X19968705Y-74537948D01*
X19968705Y-74537948D02*
X19949277Y-74488669D01*
X19949277Y-74488669D02*
X19932218Y-74438247D01*
X19932218Y-74438247D02*
X19917597Y-74386750D01*
X19917597Y-74386750D02*
X19905481Y-74334248D01*
X19905481Y-74334248D02*
X19895939Y-74280807D01*
X19895939Y-74280807D02*
X19889039Y-74226496D01*
X19889039Y-74226496D02*
X19884849Y-74171383D01*
X19884849Y-74171383D02*
X19883437Y-74115536D01*
X19883437Y-74115536D02*
X19883437Y-74114826D01*
X19883437Y-74114826D02*
X19880281Y-73987598D01*
X19880281Y-73987598D02*
X19870870Y-73861241D01*
X19870870Y-73861241D02*
X19855290Y-73735965D01*
X19855290Y-73735965D02*
X19833630Y-73611983D01*
X19833630Y-73611983D02*
X19805975Y-73489503D01*
X19805975Y-73489503D02*
X19772412Y-73368736D01*
X19772412Y-73368736D02*
X19733029Y-73249892D01*
X19733029Y-73249892D02*
X19687911Y-73133182D01*
X19687911Y-73133182D02*
X19637146Y-73018816D01*
X19637146Y-73018816D02*
X19580821Y-72907005D01*
X19580821Y-72907005D02*
X19519023Y-72797958D01*
X19519023Y-72797958D02*
X19451838Y-72691886D01*
X19451838Y-72691886D02*
X19379352Y-72589000D01*
X19379352Y-72589000D02*
X19301654Y-72489509D01*
X19301654Y-72489509D02*
X19218830Y-72393624D01*
X19218830Y-72393624D02*
X19130965Y-72301556D01*
X19130965Y-72301556D02*
X19038703Y-72213893D01*
X19038703Y-72213893D02*
X18942633Y-72131279D01*
X18942633Y-72131279D02*
X18842967Y-72053798D01*
X18842967Y-72053798D02*
X18739918Y-71981536D01*
X18739918Y-71981536D02*
X18633695Y-71914582D01*
X18633695Y-71914582D02*
X18524511Y-71853019D01*
X18524511Y-71853019D02*
X18412576Y-71796936D01*
X18412576Y-71796936D02*
X18298103Y-71746417D01*
X18298103Y-71746417D02*
X18181302Y-71701550D01*
X18181302Y-71701550D02*
X18062385Y-71662420D01*
X18062385Y-71662420D02*
X17941564Y-71629115D01*
X17941564Y-71629115D02*
X17819049Y-71601719D01*
X17819049Y-71601719D02*
X17695051Y-71580320D01*
X17695051Y-71580320D02*
X17569783Y-71565003D01*
X17569783Y-71565003D02*
X17443456Y-71555856D01*
X17443456Y-71555856D02*
X17316281Y-71552963D01*
X17316281Y-71552963D02*
X15422221Y-71556847D01*
X15422221Y-71556847D02*
X15068739Y-71410443D01*
X15068739Y-71410443D02*
X14922337Y-71056961D01*
X14922337Y-71056961D02*
X14923395Y-19575523D01*
X14923395Y-19575523D02*
X14929393Y-19418537D01*
X14929393Y-19418537D02*
X14947384Y-19262257D01*
X14947384Y-19262257D02*
X14978428Y-19108447D01*
X14978428Y-19108447D02*
X15020409Y-18956399D01*
X15020409Y-18956399D02*
X15075442Y-18809291D01*
X15075442Y-18809291D02*
X15140353Y-18667475D01*
X15140353Y-18667475D02*
X15217258Y-18530245D01*
X15217258Y-18530245D02*
X15304394Y-18399365D01*
X15304394Y-18399365D02*
X15402466Y-18276245D01*
X15402466Y-18276245D02*
X15508300Y-18160535D01*
X15508300Y-18160535D02*
X15624362Y-18054349D01*
X15624362Y-18054349D02*
X15747482Y-17956277D01*
X15747482Y-17956277D02*
X15878362Y-17869494D01*
X15878362Y-17869494D02*
X16015240Y-17792236D01*
X16015240Y-17792236D02*
X16157409Y-17727325D01*
X16157409Y-17727325D02*
X16304517Y-17672291D01*
X16304517Y-17672291D02*
X16456211Y-17630311D01*
X16456211Y-17630311D02*
X16610374Y-17599267D01*
X16610374Y-17599267D02*
X16766302Y-17581275D01*
X16766302Y-17581275D02*
X16923287Y-17574219D01*
X16923287Y-17574219D02*
X298297785Y-17575277D01*
X298297785Y-17575277D02*
X298453699Y-17581275D01*
X298453699Y-17581275D02*
X298609644Y-17599267D01*
X298609644Y-17599267D02*
X298763788Y-17630311D01*
X298763788Y-17630311D02*
X298916559Y-17672291D01*
X298916559Y-17672291D02*
X299062617Y-17727325D01*
X299062617Y-17727325D02*
X299204767Y-17792236D01*
X299204767Y-17792236D02*
X299341639Y-17869494D01*
X299341639Y-17869494D02*
X299472529Y-17956277D01*
X299472529Y-17956277D02*
X299595637Y-18054349D01*
X299595637Y-18054349D02*
X299711725Y-18160535D01*
X299711725Y-18160535D02*
X299817530Y-18276245D01*
X299817530Y-18276245D02*
X299916681Y-18399365D01*
X299916681Y-18399365D02*
X300002741Y-18530245D01*
X300002741Y-18530245D02*
X300079645Y-18667475D01*
X300079645Y-18667475D02*
X300144556Y-18809291D01*
X300144556Y-18809291D02*
X300199610Y-18956399D01*
X300199610Y-18956399D02*
X300241602Y-19108447D01*
X300241602Y-19108447D02*
X300272639Y-19262257D01*
X300272639Y-19262257D02*
X300291681Y-19418537D01*
X300291681Y-19418537D02*
X300297663Y-19575523D01*
X300297663Y-19575523D02*
X300297663Y-71043556D01*
X300297663Y-71043556D02*
X300297037Y-71068816D01*
X300297037Y-71068816D02*
X300295172Y-71093903D01*
X300295172Y-71093903D02*
X300292084Y-71118775D01*
X300292084Y-71118775D02*
X300287791Y-71143390D01*
X300287791Y-71143390D02*
X300282309Y-71167709D01*
X300282309Y-71167709D02*
X300275655Y-71191688D01*
X300275655Y-71191688D02*
X300267847Y-71215287D01*
X300267847Y-71215287D02*
X300258902Y-71238464D01*
X300258902Y-71238464D02*
X300248836Y-71261178D01*
X300248836Y-71261178D02*
X300237666Y-71283388D01*
X300237666Y-71283388D02*
X300225411Y-71305053D01*
X300225411Y-71305053D02*
X300212085Y-71326130D01*
X300212085Y-71326130D02*
X300197708Y-71346578D01*
X300197708Y-71346578D02*
X300182295Y-71366357D01*
X300182295Y-71366357D02*
X300165864Y-71385425D01*
X300165864Y-71385425D02*
X300148432Y-71403740D01*
X300148432Y-71403740D02*
X300130120Y-71421170D01*
X300130120Y-71421170D02*
X300111056Y-71437600D01*
X300111056Y-71437600D02*
X300091281Y-71453011D01*
X300091281Y-71453011D02*
X300070835Y-71467388D01*
X300070835Y-71467388D02*
X300049761Y-71480712D01*
X300049761Y-71480712D02*
X300028100Y-71492967D01*
X300028100Y-71492967D02*
X300005892Y-71504136D01*
X300005892Y-71504136D02*
X299983179Y-71514202D01*
X299983179Y-71514202D02*
X299960003Y-71523147D01*
X299960003Y-71523147D02*
X299936405Y-71530955D01*
X299936405Y-71530955D02*
X299912426Y-71537609D01*
X299912426Y-71537609D02*
X299888108Y-71543091D01*
X299888108Y-71543091D02*
X299863491Y-71547385D01*
X299863491Y-71547385D02*
X299838617Y-71550473D01*
X299838617Y-71550473D02*
X299813527Y-71552338D01*
X299813527Y-71552338D02*
X299788264Y-71552963D01*
X299788264Y-71552963D02*
X297901606Y-71552963D01*
X297901606Y-71552963D02*
X297774440Y-71556116D01*
X297774440Y-71556116D02*
X297648137Y-71565514D01*
X297648137Y-71565514D02*
X297522907Y-71581071D01*
X297522907Y-71581071D02*
X297398959Y-71602699D01*
X297398959Y-71602699D02*
X297276504Y-71630312D01*
X297276504Y-71630312D02*
X297155751Y-71663821D01*
X297155751Y-71663821D02*
X297036910Y-71703140D01*
X297036910Y-71703140D02*
X296920191Y-71748181D01*
X296920191Y-71748181D02*
X296805804Y-71798856D01*
X296805804Y-71798856D02*
X296693958Y-71855079D01*
X296693958Y-71855079D02*
X296584864Y-71916762D01*
X296584864Y-71916762D02*
X296478730Y-71983818D01*
X296478730Y-71983818D02*
X296375768Y-72056160D01*
X296375768Y-72056160D02*
X296276187Y-72133700D01*
X296276187Y-72133700D02*
X296180197Y-72216350D01*
X296180197Y-72216350D02*
X296088007Y-72304024D01*
X296088007Y-72304024D02*
X296000328Y-72396217D01*
X296000328Y-72396217D02*
X295917672Y-72492210D01*
X295917672Y-72492210D02*
X295840128Y-72591794D01*
X295840128Y-72591794D02*
X295767783Y-72694759D01*
X295767783Y-72694759D02*
X295700723Y-72800894D01*
X295700723Y-72800894D02*
X295639037Y-72909990D01*
X295639037Y-72909990D02*
X295582811Y-73021838D01*
X295582811Y-73021838D02*
X295532133Y-73136227D01*
X295532133Y-73136227D02*
X295487091Y-73252947D01*
X295487091Y-73252947D02*
X295447770Y-73371789D01*
X295447770Y-73371789D02*
X295414260Y-73492543D01*
X295414260Y-73492543D02*
X295386646Y-73615000D01*
X295386646Y-73615000D02*
X295365017Y-73738948D01*
X295365017Y-73738948D02*
X295349459Y-73864179D01*
X295349459Y-73864179D02*
X295340061Y-73990483D01*
X295340061Y-73990483D02*
X295336909Y-74117649D01*
X295336909Y-74117649D02*
X295336909Y-74122238D01*
X295336909Y-74122238D02*
X295335583Y-74175727D01*
X295335583Y-74175727D02*
X295331632Y-74228847D01*
X295331632Y-74228847D02*
X295325091Y-74281511D01*
X295325091Y-74281511D02*
X295315996Y-74333633D01*
X295315996Y-74333633D02*
X295304384Y-74385124D01*
X295304384Y-74385124D02*
X295290290Y-74435898D01*
X295290290Y-74435898D02*
X295273750Y-74485866D01*
X295273750Y-74485866D02*
X295254801Y-74534942D01*
X295254801Y-74534942D02*
X295233479Y-74583039D01*
X295233479Y-74583039D02*
X295209820Y-74630068D01*
X295209820Y-74630068D02*
X295183859Y-74675942D01*
X295183859Y-74675942D02*
X295155634Y-74720575D01*
X295155634Y-74720575D02*
X295125180Y-74763879D01*
X295125180Y-74763879D02*
X295092534Y-74805766D01*
X295092534Y-74805766D02*
X295057731Y-74846149D01*
X295057731Y-74846149D02*
X295020807Y-74884941D01*
X295020807Y-74884941D02*
X294982081Y-74921798D01*
X294982081Y-74921798D02*
X294941756Y-74956544D01*
X294941756Y-74956544D02*
X294899919Y-74989140D01*
X294899919Y-74989140D02*
X294856658Y-75019552D01*
X294856658Y-75019552D02*
X294812062Y-75047742D01*
X294812062Y-75047742D02*
X294766218Y-75073673D01*
X294766218Y-75073673D02*
X294719213Y-75097308D01*
X294719213Y-75097308D02*
X294671137Y-75118612D01*
X294671137Y-75118612D02*
X294622077Y-75137547D01*
X294622077Y-75137547D02*
X294572120Y-75154076D01*
X294572120Y-75154076D02*
X294521355Y-75168163D01*
X294521355Y-75168163D02*
X294469869Y-75179771D01*
X294469869Y-75179771D02*
X294417750Y-75188864D01*
X294417750Y-75188864D02*
X294365087Y-75195404D01*
X294365087Y-75195404D02*
X294311967Y-75199355D01*
X294311967Y-75199355D02*
X294258478Y-75200680D01*
X294258478Y-75200680D02*
X284456934Y-75200680D01*
X284456934Y-75200680D02*
X284456934Y-89000607D01*
X284456934Y-89000607D02*
X298533777Y-89000607D01*
X298533777Y-89000607D02*
X298621243Y-89002771D01*
X298621243Y-89002771D02*
X298708116Y-89009226D01*
X298708116Y-89009226D02*
X298794252Y-89019912D01*
X298794252Y-89019912D02*
X298879507Y-89034770D01*
X298879507Y-89034770D02*
X298963736Y-89053742D01*
X298963736Y-89053742D02*
X299046794Y-89076768D01*
X299046794Y-89076768D02*
X299128538Y-89103789D01*
X299128538Y-89103789D02*
X299208822Y-89134748D01*
X299208822Y-89134748D02*
X299287503Y-89169584D01*
X299287503Y-89169584D02*
X299364435Y-89208239D01*
X299364435Y-89208239D02*
X299439473Y-89250654D01*
X299439473Y-89250654D02*
X299512475Y-89296771D01*
X299512475Y-89296771D02*
X299583294Y-89346530D01*
X299583294Y-89346530D02*
X299651787Y-89399872D01*
X299651787Y-89399872D02*
X299717808Y-89456739D01*
X299717808Y-89456739D02*
X299781214Y-89517071D01*
X299781214Y-89517071D02*
X299841485Y-89580472D01*
X299841485Y-89580472D02*
X299898305Y-89646490D01*
X299898305Y-89646490D02*
X299951615Y-89714979D01*
X299951615Y-89714979D02*
X300001354Y-89785797D01*
X300001354Y-89785797D02*
X300047461Y-89858797D01*
X300047461Y-89858797D02*
X300089877Y-89933836D01*
X300089877Y-89933836D02*
X300128540Y-90010768D01*
X300128540Y-90010768D02*
X300163389Y-90089449D01*
X300163389Y-90089449D02*
X300194366Y-90169734D01*
X300194366Y-90169734D02*
X300221408Y-90251479D01*
X300221408Y-90251479D02*
X300244456Y-90334538D01*
X300244456Y-90334538D02*
X300263449Y-90418767D01*
X300263449Y-90418767D02*
X300278327Y-90504022D01*
X300278327Y-90504022D02*
X300289029Y-90590158D01*
X300289029Y-90590158D02*
X300295494Y-90677029D01*
X300295494Y-90677029D02*
X300297663Y-90764492D01*
X300297663Y-90764492D02*
X300297663Y-110501995D01*
X300297663Y-110501995D02*
X300291681Y-110657215D01*
X300291681Y-110657215D02*
X300272639Y-110813152D01*
X300272639Y-110813152D02*
X300241602Y-110967312D01*
X300241602Y-110967312D02*
X300199610Y-111119015D01*
X300199610Y-111119015D02*
X300144556Y-111267170D01*
X300144556Y-111267170D02*
X300079645Y-111408276D01*
X300079645Y-111408276D02*
X300002741Y-111545155D01*
X300002741Y-111545155D02*
X299916681Y-111676045D01*
X299916681Y-111676045D02*
X299817530Y-111800228D01*
X299817530Y-111800228D02*
X299711725Y-111916279D01*
X299711725Y-111916279D02*
X299595637Y-112021053D01*
X299595637Y-112021053D02*
X299472529Y-112119129D01*
X299472529Y-112119129D02*
X299341639Y-112206265D01*
X299341639Y-112206265D02*
X299204767Y-112283169D01*
X299204767Y-112283169D02*
X299062617Y-112348080D01*
X299062617Y-112348080D02*
X298916559Y-112404171D01*
X298916559Y-112404171D02*
X298763788Y-112446156D01*
X298763788Y-112446156D02*
X298609644Y-112476139D01*
X298609644Y-112476139D02*
X298453699Y-112494129D01*
X298453699Y-112494129D02*
X298297785Y-112500126D01*
X298297785Y-112500126D02*
X16923287Y-112502247D01*
X16923287Y-112502247D02*
X16766302Y-112494129D01*
X16766302Y-112494129D02*
X16610374Y-112476139D01*
X16610374Y-112476139D02*
X16456211Y-112446156D01*
X16456211Y-112446156D02*
X16304517Y-112404171D01*
X16304517Y-112404171D02*
X16157409Y-112348080D01*
X16157409Y-112348080D02*
X16015240Y-112283169D01*
X16015240Y-112283169D02*
X15878362Y-112206265D01*
X15878362Y-112206265D02*
X15747482Y-112119129D01*
X15747482Y-112119129D02*
X15624362Y-112021053D01*
X15624362Y-112021053D02*
X15508300Y-111916279D01*
X15508300Y-111916279D02*
X15402466Y-111800228D01*
X15402466Y-111800228D02*
X15304394Y-111676045D01*
X15304394Y-111676045D02*
X15217258Y-111545155D01*
X15217258Y-111545155D02*
X15140353Y-111408276D01*
X15140353Y-111408276D02*
X15075442Y-111267170D01*
X15075442Y-111267170D02*
X15020409Y-111119015D01*
X15020409Y-111119015D02*
X14978428Y-110967312D01*
X14978428Y-110967312D02*
X14947384Y-110813152D01*
X14947384Y-110813152D02*
X14929393Y-110657215D01*
X14929393Y-110657215D02*
X14922337Y-110501995D01*
X14922337Y-110501995D02*
X14922337Y-90764492D01*
X14922337Y-90764492D02*
X14924506Y-90677029D01*
X14924506Y-90677029D02*
X14930972Y-90590158D01*
X14930972Y-90590158D02*
X14941675Y-90504022D01*
X14941675Y-90504022D02*
X14956556Y-90418767D01*
X14956556Y-90418767D02*
X14975555Y-90334538D01*
X14975555Y-90334538D02*
X14998611Y-90251479D01*
X14998611Y-90251479D02*
X15025665Y-90169734D01*
X15025665Y-90169734D02*
X15056657Y-90089449D01*
X15056657Y-90089449D02*
X15091526Y-90010768D01*
X15091526Y-90010768D02*
X15130213Y-89933836D01*
X15130213Y-89933836D02*
X15172658Y-89858797D01*
X15172658Y-89858797D02*
X15218802Y-89785797D01*
X15218802Y-89785797D02*
X15268583Y-89714979D01*
X15268583Y-89714979D02*
X15321942Y-89646490D01*
X15321942Y-89646490D02*
X15378819Y-89580472D01*
X15378819Y-89580472D02*
X15439155Y-89517071D01*
X15439155Y-89517071D02*
X15502494Y-89456739D01*
X15502494Y-89456739D02*
X15568458Y-89399872D01*
X15568458Y-89399872D02*
X15636901Y-89346530D01*
X15636901Y-89346530D02*
X15707679Y-89296771D01*
X15707679Y-89296771D02*
X15780645Y-89250654D01*
X15780645Y-89250654D02*
X15855656Y-89208239D01*
X15855656Y-89208239D02*
X15932564Y-89169584D01*
X15932564Y-89169584D02*
X16011227Y-89134748D01*
X16011227Y-89134748D02*
X16091497Y-89103789D01*
X16091497Y-89103789D02*
X16173231Y-89076768D01*
X16173231Y-89076768D02*
X16256282Y-89053742D01*
X16256282Y-89053742D02*
X16340505Y-89034770D01*
X16340505Y-89034770D02*
X16425756Y-89019912D01*
X16425756Y-89019912D02*
X16511889Y-89009226D01*
X16511889Y-89009226D02*
X16598760Y-89002771D01*
X16598760Y-89002771D02*
X16686221Y-89000607D01*
X16686221Y-89000607D02*
X30734501Y-89000607D01*
X30734501Y-89000607D02*
X30734501Y-75200680D01*
X30734501Y-75200680D02*
X20968579Y-75200680D01*
X20968579Y-75200680D02*
X20968579Y-75200680D01*
X35232409Y-41200392D02*
X35232409Y-54999966D01*
X35232409Y-54999966D02*
X21032433Y-54999966D01*
X21032433Y-54999966D02*
X21032433Y-41200392D01*
X21032433Y-41200392D02*
X35232409Y-41200392D01*
X35232409Y-41200392D02*
X35232409Y-41200392D01*
X48625937Y-24200075D02*
X48625937Y-38000000D01*
X48625937Y-38000000D02*
X34425959Y-38000000D01*
X34425959Y-38000000D02*
X34425959Y-24200075D01*
X34425959Y-24200075D02*
X48625937Y-24200075D01*
X48625937Y-24200075D02*
X48625937Y-24200075D01*
X298655146Y-24200075D02*
X298655146Y-38000000D01*
X298655146Y-38000000D02*
X284455164Y-38000000D01*
X284455164Y-38000000D02*
X284455164Y-24200075D01*
X284455164Y-24200075D02*
X298655146Y-24200075D01*
X298655146Y-24200075D02*
X298655146Y-24200075D01*
X120055483Y-92202755D02*
X120055483Y-106002331D01*
X120055483Y-106002331D02*
X105855524Y-106002331D01*
X105855524Y-106002331D02*
X105855524Y-92202755D01*
X105855524Y-92202755D02*
X120055483Y-92202755D01*
X120055483Y-92202755D02*
X120055483Y-92202755D01*
X245074335Y-75200680D02*
X245074335Y-89000607D01*
X245074335Y-89000607D02*
X230871515Y-89000607D01*
X230871515Y-89000607D02*
X230871515Y-75200680D01*
X230871515Y-75200680D02*
X245074335Y-75200680D01*
X245074335Y-75200680D02*
X245074335Y-75200680D01*
X236148737Y-41200392D02*
X236148737Y-54999966D01*
X236148737Y-54999966D02*
X221948740Y-54999966D01*
X221948740Y-54999966D02*
X221948740Y-41200392D01*
X221948740Y-41200392D02*
X236148737Y-41200392D01*
X236148737Y-41200392D02*
X236148737Y-41200392D01*
X146849955Y-41200392D02*
X146849955Y-54999966D01*
X146849955Y-54999966D02*
X132649988Y-54999966D01*
X132649988Y-54999966D02*
X132649988Y-41200392D01*
X132649988Y-41200392D02*
X146849955Y-41200392D01*
X146849955Y-41200392D02*
X146849955Y-41200392D01*
X120058321Y-75200680D02*
X120058321Y-89000607D01*
X120058321Y-89000607D02*
X105858340Y-89000607D01*
X105858340Y-89000607D02*
X105858340Y-75200680D01*
X105858340Y-75200680D02*
X120058321Y-75200680D01*
X120058321Y-75200680D02*
X120058321Y-75200680D01*
X294180536Y-58200356D02*
X294180536Y-72000282D01*
X294180536Y-72000282D02*
X279980555Y-72000282D01*
X279980555Y-72000282D02*
X279980555Y-58200356D01*
X279980555Y-58200356D02*
X294180536Y-58200356D01*
X294180536Y-58200356D02*
X294180536Y-58200356D01*
X173634196Y-75200680D02*
X173634196Y-89000607D01*
X173634196Y-89000607D02*
X159434199Y-89000607D01*
X159434199Y-89000607D02*
X159434199Y-75200680D01*
X159434199Y-75200680D02*
X173634196Y-75200680D01*
X173634196Y-75200680D02*
X173634196Y-75200680D01*
X262937906Y-24200075D02*
X262937906Y-38000000D01*
X262937906Y-38000000D02*
X248737925Y-38000000D01*
X248737925Y-38000000D02*
X248737925Y-24200075D01*
X248737925Y-24200075D02*
X262937906Y-24200075D01*
X262937906Y-24200075D02*
X262937906Y-24200075D01*
X128991335Y-58200356D02*
X128991335Y-72000282D01*
X128991335Y-72000282D02*
X114791353Y-72000282D01*
X114791353Y-72000282D02*
X114791353Y-58200356D01*
X114791353Y-58200356D02*
X128991335Y-58200356D01*
X128991335Y-58200356D02*
X128991335Y-58200356D01*
X245079264Y-24200075D02*
X245079264Y-38000000D01*
X245079264Y-38000000D02*
X230876810Y-38000000D01*
X230876810Y-38000000D02*
X230876810Y-24200075D01*
X230876810Y-24200075D02*
X245079264Y-24200075D01*
X245079264Y-24200075D02*
X245079264Y-24200075D01*
X66482092Y-75200680D02*
X66482092Y-89000607D01*
X66482092Y-89000607D02*
X52282114Y-89000607D01*
X52282114Y-89000607D02*
X52282114Y-75200680D01*
X52282114Y-75200680D02*
X66482092Y-75200680D01*
X66482092Y-75200680D02*
X66482092Y-75200680D01*
X93271265Y-58200356D02*
X93271265Y-72000282D01*
X93271265Y-72000282D02*
X79071291Y-72000282D01*
X79071291Y-72000282D02*
X79071291Y-58200356D01*
X79071291Y-58200356D02*
X93271265Y-58200356D01*
X93271265Y-58200356D02*
X93271265Y-58200356D01*
X254013712Y-41200392D02*
X254013712Y-54999966D01*
X254013712Y-54999966D02*
X239813715Y-54999966D01*
X239813715Y-54999966D02*
X239813715Y-41200392D01*
X239813715Y-41200392D02*
X254013712Y-41200392D01*
X254013712Y-41200392D02*
X254013712Y-41200392D01*
X84340708Y-75200680D02*
X84340708Y-89000607D01*
X84340708Y-89000607D02*
X70140738Y-89000607D01*
X70140738Y-89000607D02*
X70140738Y-75200680D01*
X70140738Y-75200680D02*
X84340708Y-75200680D01*
X84340708Y-75200680D02*
X84340708Y-75200680D01*
X187035135Y-92204525D02*
X187035135Y-106004093D01*
X187035135Y-106004093D02*
X172835154Y-106004093D01*
X172835154Y-106004093D02*
X172835154Y-92204525D01*
X172835154Y-92204525D02*
X187035135Y-92204525D01*
X187035135Y-92204525D02*
X187035135Y-92204525D01*
X84343180Y-24200075D02*
X84343180Y-38000000D01*
X84343180Y-38000000D02*
X70143210Y-38000000D01*
X70143210Y-38000000D02*
X70143210Y-24200075D01*
X70143210Y-24200075D02*
X84343180Y-24200075D01*
X84343180Y-24200075D02*
X84343180Y-24200075D01*
X75412638Y-92202755D02*
X75412638Y-106002331D01*
X75412638Y-106002331D02*
X61212664Y-106002331D01*
X61212664Y-106002331D02*
X61212664Y-92202755D01*
X61212664Y-92202755D02*
X75412638Y-92202755D01*
X75412638Y-92202755D02*
X75412638Y-92202755D01*
X254013712Y-58200356D02*
X254013712Y-72000282D01*
X254013712Y-72000282D02*
X239813715Y-72000282D01*
X239813715Y-72000282D02*
X239813715Y-58200356D01*
X239813715Y-58200356D02*
X254013712Y-58200356D01*
X254013712Y-58200356D02*
X254013712Y-58200356D01*
X48618178Y-75200680D02*
X48618178Y-89000607D01*
X48618178Y-89000607D02*
X34418200Y-89000607D01*
X34418200Y-89000607D02*
X34418200Y-75200680D01*
X34418200Y-75200680D02*
X48618178Y-75200680D01*
X48618178Y-75200680D02*
X48618178Y-75200680D01*
X120063257Y-24200075D02*
X120063257Y-38000000D01*
X120063257Y-38000000D02*
X105863283Y-38000000D01*
X105863283Y-38000000D02*
X105863283Y-24200075D01*
X105863283Y-24200075D02*
X107297320Y-24200075D01*
X107297320Y-24200075D02*
X107297320Y-21590232D01*
X107297320Y-21590232D02*
X107299681Y-21499476D01*
X107299681Y-21499476D02*
X107306688Y-21409910D01*
X107306688Y-21409910D02*
X107318229Y-21321644D01*
X107318229Y-21321644D02*
X107334187Y-21234790D01*
X107334187Y-21234790D02*
X107354451Y-21149459D01*
X107354451Y-21149459D02*
X107378905Y-21065762D01*
X107378905Y-21065762D02*
X107407435Y-20983809D01*
X107407435Y-20983809D02*
X107439929Y-20903711D01*
X107439929Y-20903711D02*
X107476271Y-20825580D01*
X107476271Y-20825580D02*
X107516348Y-20749526D01*
X107516348Y-20749526D02*
X107560047Y-20675660D01*
X107560047Y-20675660D02*
X107607252Y-20604093D01*
X107607252Y-20604093D02*
X107657850Y-20534936D01*
X107657850Y-20534936D02*
X107711728Y-20468299D01*
X107711728Y-20468299D02*
X107768770Y-20404295D01*
X107768770Y-20404295D02*
X107828864Y-20343033D01*
X107828864Y-20343033D02*
X107891896Y-20284625D01*
X107891896Y-20284625D02*
X107957750Y-20229181D01*
X107957750Y-20229181D02*
X108026314Y-20176813D01*
X108026314Y-20176813D02*
X108097474Y-20127630D01*
X108097474Y-20127630D02*
X108171115Y-20081746D01*
X108171115Y-20081746D02*
X108247123Y-20039269D01*
X108247123Y-20039269D02*
X108325386Y-20000311D01*
X108325386Y-20000311D02*
X108405788Y-19964983D01*
X108405788Y-19964983D02*
X108488215Y-19933396D01*
X108488215Y-19933396D02*
X108572555Y-19905661D01*
X108572555Y-19905661D02*
X108658692Y-19881888D01*
X108658692Y-19881888D02*
X108746514Y-19862189D01*
X108746514Y-19862189D02*
X108835905Y-19846675D01*
X108835905Y-19846675D02*
X108926753Y-19835456D01*
X108926753Y-19835456D02*
X109018942Y-19828643D01*
X109018942Y-19828643D02*
X109112360Y-19826348D01*
X109112360Y-19826348D02*
X110664568Y-19826348D01*
X110664568Y-19826348D02*
X110757954Y-19828643D01*
X110757954Y-19828643D02*
X110850117Y-19835456D01*
X110850117Y-19835456D02*
X110940940Y-19846675D01*
X110940940Y-19846675D02*
X111030312Y-19862189D01*
X111030312Y-19862189D02*
X111118117Y-19881888D01*
X111118117Y-19881888D02*
X111204241Y-19905661D01*
X111204241Y-19905661D02*
X111288570Y-19933396D01*
X111288570Y-19933396D02*
X111370991Y-19964983D01*
X111370991Y-19964983D02*
X111451388Y-20000311D01*
X111451388Y-20000311D02*
X111529648Y-20039269D01*
X111529648Y-20039269D02*
X111605657Y-20081746D01*
X111605657Y-20081746D02*
X111679300Y-20127630D01*
X111679300Y-20127630D02*
X111750463Y-20176813D01*
X111750463Y-20176813D02*
X111819032Y-20229181D01*
X111819032Y-20229181D02*
X111884894Y-20284625D01*
X111884894Y-20284625D02*
X111947933Y-20343033D01*
X111947933Y-20343033D02*
X112008037Y-20404295D01*
X112008037Y-20404295D02*
X112065089Y-20468299D01*
X112065089Y-20468299D02*
X112118978Y-20534936D01*
X112118978Y-20534936D02*
X112169587Y-20604093D01*
X112169587Y-20604093D02*
X112216804Y-20675660D01*
X112216804Y-20675660D02*
X112260514Y-20749526D01*
X112260514Y-20749526D02*
X112300602Y-20825580D01*
X112300602Y-20825580D02*
X112336956Y-20903711D01*
X112336956Y-20903711D02*
X112369459Y-20983809D01*
X112369459Y-20983809D02*
X112398000Y-21065762D01*
X112398000Y-21065762D02*
X112422463Y-21149459D01*
X112422463Y-21149459D02*
X112442734Y-21234790D01*
X112442734Y-21234790D02*
X112458699Y-21321644D01*
X112458699Y-21321644D02*
X112470243Y-21409910D01*
X112470243Y-21409910D02*
X112477254Y-21499476D01*
X112477254Y-21499476D02*
X112479616Y-21590232D01*
X112479616Y-21590232D02*
X112479616Y-24200075D01*
X112479616Y-24200075D02*
X120063257Y-24200075D01*
X120063257Y-24200075D02*
X120063257Y-24200075D01*
X155773081Y-75200680D02*
X155773081Y-89000607D01*
X155773081Y-89000607D02*
X141573130Y-89000607D01*
X141573130Y-89000607D02*
X141573130Y-75200680D01*
X141573130Y-75200680D02*
X155773081Y-75200680D01*
X155773081Y-75200680D02*
X155773081Y-75200680D01*
X111130244Y-58200356D02*
X111130244Y-72000282D01*
X111130244Y-72000282D02*
X96930262Y-72000282D01*
X96930262Y-72000282D02*
X96930262Y-58200356D01*
X96930262Y-58200356D02*
X111130244Y-58200356D01*
X111130244Y-58200356D02*
X111130244Y-58200356D01*
X93271265Y-41200392D02*
X93271265Y-54999966D01*
X93271265Y-54999966D02*
X79071291Y-54999966D01*
X79071291Y-54999966D02*
X79071291Y-41200392D01*
X79071291Y-41200392D02*
X93271265Y-41200392D01*
X93271265Y-41200392D02*
X93271265Y-41200392D01*
X200428644Y-41200392D02*
X200428644Y-54999966D01*
X200428644Y-54999966D02*
X186228678Y-54999966D01*
X186228678Y-54999966D02*
X186228678Y-41200392D01*
X186228678Y-41200392D02*
X200428644Y-41200392D01*
X200428644Y-41200392D02*
X200428644Y-41200392D01*
X97734240Y-92202755D02*
X97734240Y-106002331D01*
X97734240Y-106002331D02*
X83534266Y-106002331D01*
X83534266Y-106002331D02*
X83534266Y-92202755D01*
X83534266Y-92202755D02*
X97734240Y-92202755D01*
X97734240Y-92202755D02*
X97734240Y-92202755D01*
X146849955Y-58200356D02*
X146849955Y-72000282D01*
X146849955Y-72000282D02*
X132649988Y-72000282D01*
X132649988Y-72000282D02*
X132649988Y-58200356D01*
X132649988Y-58200356D02*
X146849955Y-58200356D01*
X146849955Y-58200356D02*
X146849955Y-58200356D01*
X227215342Y-75200680D02*
X227215342Y-89000607D01*
X227215342Y-89000607D02*
X213015391Y-89000607D01*
X213015391Y-89000607D02*
X213015391Y-75200680D01*
X213015391Y-75200680D02*
X227215342Y-75200680D01*
X227215342Y-75200680D02*
X227215342Y-75200680D01*
X142389811Y-92204525D02*
X142389811Y-106004093D01*
X142389811Y-106004093D02*
X128189821Y-106004093D01*
X128189821Y-106004093D02*
X128189821Y-92204525D01*
X128189821Y-92204525D02*
X142389811Y-92204525D01*
X142389811Y-92204525D02*
X142389811Y-92204525D01*
X227217814Y-24200075D02*
X227217814Y-38000000D01*
X227217814Y-38000000D02*
X213017847Y-38000000D01*
X213017847Y-38000000D02*
X213017847Y-24200075D01*
X213017847Y-24200075D02*
X227217814Y-24200075D01*
X227217814Y-24200075D02*
X227217814Y-24200075D01*
X75412638Y-41200392D02*
X75412638Y-54999966D01*
X75412638Y-54999966D02*
X61212664Y-54999966D01*
X61212664Y-54999966D02*
X61212664Y-41200392D01*
X61212664Y-41200392D02*
X75412638Y-41200392D01*
X75412638Y-41200392D02*
X75412638Y-41200392D01*
X182570032Y-41200392D02*
X182570032Y-54999966D01*
X182570032Y-54999966D02*
X168367594Y-54999966D01*
X168367594Y-54999966D02*
X168367594Y-41200392D01*
X168367594Y-41200392D02*
X182570032Y-41200392D01*
X182570032Y-41200392D02*
X182570032Y-41200392D01*
X164693415Y-92201000D02*
X164693415Y-106000576D01*
X164693415Y-106000576D02*
X150493433Y-106000576D01*
X150493433Y-106000576D02*
X150493433Y-92201000D01*
X150493433Y-92201000D02*
X164693415Y-92201000D01*
X164693415Y-92201000D02*
X164693415Y-92201000D01*
X137919413Y-75200680D02*
X137919413Y-89000607D01*
X137919413Y-89000607D02*
X123719431Y-89000607D01*
X123719431Y-89000607D02*
X123719431Y-75200680D01*
X123719431Y-75200680D02*
X137919413Y-75200680D01*
X137919413Y-75200680D02*
X137919413Y-75200680D01*
X128991335Y-41200392D02*
X128991335Y-54999966D01*
X128991335Y-54999966D02*
X114791353Y-54999966D01*
X114791353Y-54999966D02*
X114791353Y-41200392D01*
X114791353Y-41200392D02*
X128991335Y-41200392D01*
X128991335Y-41200392D02*
X128991335Y-41200392D01*
X191500574Y-24200075D02*
X191500574Y-38000000D01*
X191500574Y-38000000D02*
X177300608Y-38000000D01*
X177300608Y-38000000D02*
X177300608Y-24200075D01*
X177300608Y-24200075D02*
X191500574Y-24200075D01*
X191500574Y-24200075D02*
X191500574Y-24200075D01*
X164711405Y-41200392D02*
X164711405Y-54999966D01*
X164711405Y-54999966D02*
X150511423Y-54999966D01*
X150511423Y-54999966D02*
X150511423Y-41200392D01*
X150511423Y-41200392D02*
X164711405Y-41200392D01*
X164711405Y-41200392D02*
X164711405Y-41200392D01*
X271872339Y-58200356D02*
X271872339Y-72000282D01*
X271872339Y-72000282D02*
X257672343Y-72000282D01*
X257672343Y-72000282D02*
X257672343Y-58200356D01*
X257672343Y-58200356D02*
X271872339Y-58200356D01*
X271872339Y-58200356D02*
X271872339Y-58200356D01*
X200428644Y-58200356D02*
X200428644Y-72000282D01*
X200428644Y-72000282D02*
X186228678Y-72000282D01*
X186228678Y-72000282D02*
X186228678Y-58200356D01*
X186228678Y-58200356D02*
X200428644Y-58200356D01*
X200428644Y-58200356D02*
X200428644Y-58200356D01*
X30764841Y-24200075D02*
X30764841Y-38000000D01*
X30764841Y-38000000D02*
X16564866Y-38000000D01*
X16564866Y-38000000D02*
X16564866Y-24200075D01*
X16564866Y-24200075D02*
X30764841Y-24200075D01*
X30764841Y-24200075D02*
X30764841Y-24200075D01*
X191498102Y-75200680D02*
X191498102Y-89000607D01*
X191498102Y-89000607D02*
X177295664Y-89000607D01*
X177295664Y-89000607D02*
X177295664Y-75200680D01*
X177295664Y-75200680D02*
X191498102Y-75200680D01*
X191498102Y-75200680D02*
X191498102Y-75200680D01*
X155783320Y-24200075D02*
X155783320Y-38000000D01*
X155783320Y-38000000D02*
X141583353Y-38000000D01*
X141583353Y-38000000D02*
X141583353Y-24200075D01*
X141583353Y-24200075D02*
X155783320Y-24200075D01*
X155783320Y-24200075D02*
X155783320Y-24200075D01*
X209359202Y-92204525D02*
X209359202Y-106004093D01*
X209359202Y-106004093D02*
X195159220Y-106004093D01*
X195159220Y-106004093D02*
X195159220Y-92204525D01*
X195159220Y-92204525D02*
X209359202Y-92204525D01*
X209359202Y-92204525D02*
X209359202Y-92204525D01*
X75412638Y-58200356D02*
X75412638Y-72000282D01*
X75412638Y-72000282D02*
X61212664Y-72000282D01*
X61212664Y-72000282D02*
X61212664Y-58200356D01*
X61212664Y-58200356D02*
X75412638Y-58200356D01*
X75412638Y-58200356D02*
X75412638Y-58200356D01*
X182570032Y-58200356D02*
X182570032Y-72000282D01*
X182570032Y-72000282D02*
X168367594Y-72000282D01*
X168367594Y-72000282D02*
X168367594Y-58200356D01*
X168367594Y-58200356D02*
X182570032Y-58200356D01*
X182570032Y-58200356D02*
X182570032Y-58200356D01*
X164711405Y-58200356D02*
X164711405Y-72000282D01*
X164711405Y-72000282D02*
X150511423Y-72000282D01*
X150511423Y-72000282D02*
X150511423Y-58200356D01*
X150511423Y-58200356D02*
X164711405Y-58200356D01*
X164711405Y-58200356D02*
X164711405Y-58200356D01*
M02*
