%TF.GenerationSoftware,KiCad,Pcbnew,(6.0.1-0)*%
%TF.CreationDate,2022-03-20T09:15:38+09:00*%
%TF.ProjectId,keyplate,6b657970-6c61-4746-952e-6b696361645f,rev?*%
%TF.SameCoordinates,Original*%
%TF.FileFunction,Legend,Bot*%
%TF.FilePolarity,Positive*%
%FSLAX46Y46*%
G04 Gerber Fmt 4.6, Leading zero omitted, Abs format (unit mm)*
G04 Created by KiCad (PCBNEW (6.0.1-0)) date 2022-03-20 09:15:38*
%MOMM*%
%LPD*%
G01*
G04 APERTURE LIST*
%ADD10C,2.000000*%
%ADD11C,4.000000*%
%ADD12C,0.500000*%
%ADD13C,0.300000*%
%ADD14C,10.000000*%
%ADD15C,0.150000*%
G04 APERTURE END LIST*
D10*
X139800000Y-25000000D02*
X139800000Y-36600000D01*
X59300000Y-48050000D02*
X59300000Y-65550000D01*
D11*
X211776553Y-20759719D02*
X296776553Y-20759719D01*
D10*
X157600000Y-25000000D02*
X157600000Y-36600000D01*
D11*
X213500000Y-91750000D02*
X213500000Y-99250000D01*
X124500000Y-91750000D02*
X124500000Y-99250000D01*
D12*
X194900000Y-22259719D02*
G75*
G03*
X194900000Y-19259719I0J1500000D01*
G01*
D10*
X166600000Y-48050000D02*
X166600000Y-65550000D01*
X36875000Y-40750000D02*
X41625000Y-40750000D01*
D12*
X36976553Y-22259719D02*
G75*
G03*
X36976553Y-19259719I0J1500000D01*
G01*
D13*
X195499124Y-38600000D02*
X145100000Y-38595013D01*
D11*
X275776553Y-51009719D02*
X275776553Y-72009719D01*
X297000000Y-92000000D02*
X257500000Y-92000000D01*
D10*
X130800000Y-48050000D02*
X130800000Y-65550000D01*
D11*
X101646553Y-91750000D02*
X101646553Y-99250000D01*
X236000000Y-91750000D02*
X236000000Y-99250000D01*
D14*
X20975000Y-106379719D02*
X55025000Y-106379719D01*
D11*
X18026553Y-41009719D02*
X18026553Y-68509719D01*
X146800000Y-91750000D02*
X146800000Y-99250000D01*
D12*
X27876553Y-22259719D02*
X36976553Y-22259719D01*
X116776553Y-19259719D02*
G75*
G03*
X116776553Y-22259719I0J-1500000D01*
G01*
D10*
X273525000Y-40600000D02*
X278275000Y-40600000D01*
X193200000Y-25000000D02*
X193200000Y-36600000D01*
D13*
X145100000Y-38595013D02*
G75*
G03*
X145000588Y-40398251I-89943J-899401D01*
G01*
D14*
X260500000Y-106500000D02*
X294500000Y-106500000D01*
D11*
X90250000Y-109250000D02*
X63250000Y-109250000D01*
X191000000Y-91750000D02*
X191000000Y-99250000D01*
D10*
X238000000Y-48050000D02*
X238000000Y-65550000D01*
D12*
X116776553Y-19259719D02*
X194900000Y-19259719D01*
D11*
X107846553Y-109379719D02*
X252000000Y-109500000D01*
D10*
X77276553Y-48050000D02*
X77276553Y-65550000D01*
X121800000Y-25000000D02*
X121800000Y-36600000D01*
X95250000Y-48050000D02*
X95250000Y-65550000D01*
X113000000Y-48050000D02*
X113000000Y-65550000D01*
D12*
X116776553Y-22259719D02*
X194900000Y-22259719D01*
D10*
X255700000Y-48050000D02*
X255700000Y-65550000D01*
X202250000Y-48050000D02*
X202250000Y-65550000D01*
D11*
X39276553Y-51509719D02*
X39276553Y-72009719D01*
X168600000Y-91750000D02*
X168600000Y-99250000D01*
D13*
X145000588Y-40398251D02*
X195450297Y-40400010D01*
D11*
X42250000Y-20759719D02*
X103526553Y-20759719D01*
D12*
X27876553Y-19259719D02*
G75*
G03*
X27876553Y-22259719I0J-1500000D01*
G01*
D11*
X297026553Y-41009719D02*
X297026553Y-69000000D01*
D10*
X220250000Y-48050000D02*
X220250000Y-65550000D01*
D11*
X57500000Y-92000000D02*
X18000000Y-92000000D01*
D10*
X148600000Y-48050000D02*
X148600000Y-65550000D01*
D13*
X195450297Y-40400009D02*
G75*
G03*
X195499124Y-38600000I49353J899328D01*
G01*
D11*
X18263277Y-20750000D02*
X22736724Y-20750000D01*
X79500000Y-91750000D02*
X79500000Y-99250000D01*
D10*
X184400000Y-48050000D02*
X184400000Y-65550000D01*
D12*
X27876553Y-19259719D02*
X36976553Y-19259719D01*
D10*
X175400000Y-25000000D02*
X175400000Y-36600000D01*
D15*
X176864404Y-40052380D02*
X176864404Y-39052380D01*
X176483452Y-39052380D01*
X176388214Y-39100000D01*
X176340595Y-39147619D01*
X176292976Y-39242857D01*
X176292976Y-39385714D01*
X176340595Y-39480952D01*
X176388214Y-39528571D01*
X176483452Y-39576190D01*
X176864404Y-39576190D01*
X175864404Y-40052380D02*
X175864404Y-39052380D01*
X174816785Y-39957142D02*
X174864404Y-40004761D01*
X175007261Y-40052380D01*
X175102500Y-40052380D01*
X175245357Y-40004761D01*
X175340595Y-39909523D01*
X175388214Y-39814285D01*
X175435833Y-39623809D01*
X175435833Y-39480952D01*
X175388214Y-39290476D01*
X175340595Y-39195238D01*
X175245357Y-39100000D01*
X175102500Y-39052380D01*
X175007261Y-39052380D01*
X174864404Y-39100000D01*
X174816785Y-39147619D01*
X174197738Y-39052380D02*
X174007261Y-39052380D01*
X173912023Y-39100000D01*
X173816785Y-39195238D01*
X173769166Y-39385714D01*
X173769166Y-39719047D01*
X173816785Y-39909523D01*
X173912023Y-40004761D01*
X174007261Y-40052380D01*
X174197738Y-40052380D01*
X174292976Y-40004761D01*
X174388214Y-39909523D01*
X174435833Y-39719047D01*
X174435833Y-39385714D01*
X174388214Y-39195238D01*
X174292976Y-39100000D01*
X174197738Y-39052380D01*
X172578690Y-40052380D02*
X172578690Y-39385714D01*
X172578690Y-39576190D02*
X172531071Y-39480952D01*
X172483452Y-39433333D01*
X172388214Y-39385714D01*
X172292976Y-39385714D01*
X171578690Y-40004761D02*
X171673928Y-40052380D01*
X171864404Y-40052380D01*
X171959642Y-40004761D01*
X172007261Y-39909523D01*
X172007261Y-39528571D01*
X171959642Y-39433333D01*
X171864404Y-39385714D01*
X171673928Y-39385714D01*
X171578690Y-39433333D01*
X171531071Y-39528571D01*
X171531071Y-39623809D01*
X172007261Y-39719047D01*
X171150119Y-40004761D02*
X171054880Y-40052380D01*
X170864404Y-40052380D01*
X170769166Y-40004761D01*
X170721547Y-39909523D01*
X170721547Y-39861904D01*
X170769166Y-39766666D01*
X170864404Y-39719047D01*
X171007261Y-39719047D01*
X171102500Y-39671428D01*
X171150119Y-39576190D01*
X171150119Y-39528571D01*
X171102500Y-39433333D01*
X171007261Y-39385714D01*
X170864404Y-39385714D01*
X170769166Y-39433333D01*
X169912023Y-40004761D02*
X170007261Y-40052380D01*
X170197738Y-40052380D01*
X170292976Y-40004761D01*
X170340595Y-39909523D01*
X170340595Y-39528571D01*
X170292976Y-39433333D01*
X170197738Y-39385714D01*
X170007261Y-39385714D01*
X169912023Y-39433333D01*
X169864404Y-39528571D01*
X169864404Y-39623809D01*
X170340595Y-39719047D01*
X169435833Y-40052380D02*
X169435833Y-39385714D01*
X169435833Y-39576190D02*
X169388214Y-39480952D01*
X169340595Y-39433333D01*
X169245357Y-39385714D01*
X169150119Y-39385714D01*
X168912023Y-39385714D02*
X168673928Y-40052380D01*
X168435833Y-39385714D01*
X167673928Y-40004761D02*
X167769166Y-40052380D01*
X167959642Y-40052380D01*
X168054880Y-40004761D01*
X168102500Y-39909523D01*
X168102500Y-39528571D01*
X168054880Y-39433333D01*
X167959642Y-39385714D01*
X167769166Y-39385714D01*
X167673928Y-39433333D01*
X167626309Y-39528571D01*
X167626309Y-39623809D01*
X168102500Y-39719047D01*
X166769166Y-40052380D02*
X166769166Y-39052380D01*
X166769166Y-40004761D02*
X166864404Y-40052380D01*
X167054880Y-40052380D01*
X167150119Y-40004761D01*
X167197738Y-39957142D01*
X167245357Y-39861904D01*
X167245357Y-39576190D01*
X167197738Y-39480952D01*
X167150119Y-39433333D01*
X167054880Y-39385714D01*
X166864404Y-39385714D01*
X166769166Y-39433333D01*
X165102500Y-40052380D02*
X165102500Y-39528571D01*
X165150119Y-39433333D01*
X165245357Y-39385714D01*
X165435833Y-39385714D01*
X165531071Y-39433333D01*
X165102500Y-40004761D02*
X165197738Y-40052380D01*
X165435833Y-40052380D01*
X165531071Y-40004761D01*
X165578690Y-39909523D01*
X165578690Y-39814285D01*
X165531071Y-39719047D01*
X165435833Y-39671428D01*
X165197738Y-39671428D01*
X165102500Y-39623809D01*
X164626309Y-40052380D02*
X164626309Y-39385714D01*
X164626309Y-39576190D02*
X164578690Y-39480952D01*
X164531071Y-39433333D01*
X164435833Y-39385714D01*
X164340595Y-39385714D01*
X163626309Y-40004761D02*
X163721547Y-40052380D01*
X163912023Y-40052380D01*
X164007261Y-40004761D01*
X164054880Y-39909523D01*
X164054880Y-39528571D01*
X164007261Y-39433333D01*
X163912023Y-39385714D01*
X163721547Y-39385714D01*
X163626309Y-39433333D01*
X163578690Y-39528571D01*
X163578690Y-39623809D01*
X164054880Y-39719047D01*
X162721547Y-40052380D02*
X162721547Y-39528571D01*
X162769166Y-39433333D01*
X162864404Y-39385714D01*
X163054880Y-39385714D01*
X163150119Y-39433333D01*
X162721547Y-40004761D02*
X162816785Y-40052380D01*
X163054880Y-40052380D01*
X163150119Y-40004761D01*
X163197738Y-39909523D01*
X163197738Y-39814285D01*
X163150119Y-39719047D01*
X163054880Y-39671428D01*
X162816785Y-39671428D01*
X162721547Y-39623809D01*
X33688457Y-20312099D02*
X33688457Y-21121623D01*
X33640838Y-21216861D01*
X33593219Y-21264480D01*
X33497981Y-21312099D01*
X33307505Y-21312099D01*
X33212267Y-21264480D01*
X33164648Y-21216861D01*
X33117029Y-21121623D01*
X33117029Y-20312099D01*
X32688457Y-21264480D02*
X32545600Y-21312099D01*
X32307505Y-21312099D01*
X32212267Y-21264480D01*
X32164648Y-21216861D01*
X32117029Y-21121623D01*
X32117029Y-21026385D01*
X32164648Y-20931147D01*
X32212267Y-20883528D01*
X32307505Y-20835909D01*
X32497981Y-20788290D01*
X32593219Y-20740671D01*
X32640838Y-20693052D01*
X32688457Y-20597814D01*
X32688457Y-20502576D01*
X32640838Y-20407338D01*
X32593219Y-20359719D01*
X32497981Y-20312099D01*
X32259886Y-20312099D01*
X32117029Y-20359719D01*
X31355124Y-20788290D02*
X31212267Y-20835909D01*
X31164648Y-20883528D01*
X31117029Y-20978766D01*
X31117029Y-21121623D01*
X31164648Y-21216861D01*
X31212267Y-21264480D01*
X31307505Y-21312099D01*
X31688457Y-21312099D01*
X31688457Y-20312099D01*
X31355124Y-20312099D01*
X31259886Y-20359719D01*
X31212267Y-20407338D01*
X31164648Y-20502576D01*
X31164648Y-20597814D01*
X31212267Y-20693052D01*
X31259886Y-20740671D01*
X31355124Y-20788290D01*
X31688457Y-20788290D01*
X99854880Y-73321428D02*
X98926309Y-73321428D01*
X99483452Y-72764285D02*
X99854880Y-74435714D01*
X99050119Y-73878571D02*
X99978690Y-73878571D01*
X99421547Y-74435714D02*
X99050119Y-72764285D01*
X98492976Y-74188095D02*
X98492976Y-72888095D01*
X97750119Y-74188095D01*
X97750119Y-72888095D01*
X96945357Y-74188095D02*
X97069166Y-74126190D01*
X97131071Y-74064285D01*
X97192976Y-73940476D01*
X97192976Y-73569047D01*
X97131071Y-73445238D01*
X97069166Y-73383333D01*
X96945357Y-73321428D01*
X96759642Y-73321428D01*
X96635833Y-73383333D01*
X96573928Y-73445238D01*
X96512023Y-73569047D01*
X96512023Y-73940476D01*
X96573928Y-74064285D01*
X96635833Y-74126190D01*
X96759642Y-74188095D01*
X96945357Y-74188095D01*
X95954880Y-74188095D02*
X95954880Y-73321428D01*
X95954880Y-73569047D02*
X95892976Y-73445238D01*
X95831071Y-73383333D01*
X95707261Y-73321428D01*
X95583452Y-73321428D01*
X94592976Y-74188095D02*
X94592976Y-73507142D01*
X94654880Y-73383333D01*
X94778690Y-73321428D01*
X95026309Y-73321428D01*
X95150119Y-73383333D01*
X94592976Y-74126190D02*
X94716785Y-74188095D01*
X95026309Y-74188095D01*
X95150119Y-74126190D01*
X95212023Y-74002380D01*
X95212023Y-73878571D01*
X95150119Y-73754761D01*
X95026309Y-73692857D01*
X94716785Y-73692857D01*
X94592976Y-73630952D01*
X94283452Y-74311904D02*
X93292976Y-74311904D01*
X92983452Y-74188095D02*
X92983452Y-72888095D01*
X92859642Y-73692857D02*
X92488214Y-74188095D01*
X92488214Y-73321428D02*
X92983452Y-73816666D01*
X91931071Y-74188095D02*
X91931071Y-72888095D01*
X91931071Y-73383333D02*
X91807261Y-73321428D01*
X91559642Y-73321428D01*
X91435833Y-73383333D01*
X91373928Y-73445238D01*
X91312023Y-73569047D01*
X91312023Y-73940476D01*
X91373928Y-74064285D01*
X91435833Y-74126190D01*
X91559642Y-74188095D01*
X91807261Y-74188095D01*
X91931071Y-74126190D01*
X90197738Y-74188095D02*
X90197738Y-72888095D01*
X90197738Y-74126190D02*
X90321547Y-74188095D01*
X90569166Y-74188095D01*
X90692976Y-74126190D01*
X90754880Y-74064285D01*
X90816785Y-73940476D01*
X90816785Y-73569047D01*
X90754880Y-73445238D01*
X90692976Y-73383333D01*
X90569166Y-73321428D01*
X90321547Y-73321428D01*
X90197738Y-73383333D01*
X88650119Y-74126190D02*
X88464404Y-74188095D01*
X88154880Y-74188095D01*
X88031071Y-74126190D01*
X87969166Y-74064285D01*
X87907261Y-73940476D01*
X87907261Y-73816666D01*
X87969166Y-73692857D01*
X88031071Y-73630952D01*
X88154880Y-73569047D01*
X88402499Y-73507142D01*
X88526309Y-73445238D01*
X88588214Y-73383333D01*
X88650119Y-73259523D01*
X88650119Y-73135714D01*
X88588214Y-73011904D01*
X88526309Y-72950000D01*
X88402499Y-72888095D01*
X88092976Y-72888095D01*
X87907261Y-72950000D01*
X87473928Y-73321428D02*
X87226309Y-74188095D01*
X86978690Y-73569047D01*
X86731071Y-74188095D01*
X86483452Y-73321428D01*
X85988214Y-74188095D02*
X85988214Y-73321428D01*
X85988214Y-72888095D02*
X86050119Y-72950000D01*
X85988214Y-73011904D01*
X85926309Y-72950000D01*
X85988214Y-72888095D01*
X85988214Y-73011904D01*
X85554880Y-73321428D02*
X85059642Y-73321428D01*
X85369166Y-72888095D02*
X85369166Y-74002380D01*
X85307261Y-74126190D01*
X85183452Y-74188095D01*
X85059642Y-74188095D01*
X84069166Y-74126190D02*
X84192976Y-74188095D01*
X84440595Y-74188095D01*
X84564404Y-74126190D01*
X84626309Y-74064285D01*
X84688214Y-73940476D01*
X84688214Y-73569047D01*
X84626309Y-73445238D01*
X84564404Y-73383333D01*
X84440595Y-73321428D01*
X84192976Y-73321428D01*
X84069166Y-73383333D01*
X83512023Y-74188095D02*
X83512023Y-72888095D01*
X82954880Y-74188095D02*
X82954880Y-73507142D01*
X83016785Y-73383333D01*
X83140595Y-73321428D01*
X83326309Y-73321428D01*
X83450119Y-73383333D01*
X83512023Y-73445238D01*
X81345357Y-73321428D02*
X81345357Y-74621428D01*
X81345357Y-73383333D02*
X81221547Y-73321428D01*
X80973928Y-73321428D01*
X80850119Y-73383333D01*
X80788214Y-73445238D01*
X80726309Y-73569047D01*
X80726309Y-73940476D01*
X80788214Y-74064285D01*
X80850119Y-74126190D01*
X80973928Y-74188095D01*
X81221547Y-74188095D01*
X81345357Y-74126190D01*
X79983452Y-74188095D02*
X80107261Y-74126190D01*
X80169166Y-74002380D01*
X80169166Y-72888095D01*
X78931071Y-74188095D02*
X78931071Y-73507142D01*
X78992976Y-73383333D01*
X79116785Y-73321428D01*
X79364404Y-73321428D01*
X79488214Y-73383333D01*
X78931071Y-74126190D02*
X79054880Y-74188095D01*
X79364404Y-74188095D01*
X79488214Y-74126190D01*
X79550119Y-74002380D01*
X79550119Y-73878571D01*
X79488214Y-73754761D01*
X79364404Y-73692857D01*
X79054880Y-73692857D01*
X78931071Y-73630952D01*
X78497738Y-73321428D02*
X78002499Y-73321428D01*
X78312023Y-72888095D02*
X78312023Y-74002380D01*
X78250119Y-74126190D01*
X78126309Y-74188095D01*
X78002499Y-74188095D01*
X77073928Y-74126190D02*
X77197738Y-74188095D01*
X77445357Y-74188095D01*
X77569166Y-74126190D01*
X77631071Y-74002380D01*
X77631071Y-73507142D01*
X77569166Y-73383333D01*
X77445357Y-73321428D01*
X77197738Y-73321428D01*
X77073928Y-73383333D01*
X77012023Y-73507142D01*
X77012023Y-73630952D01*
X77631071Y-73754761D01*
X75650119Y-73321428D02*
X75154880Y-73321428D01*
X75464404Y-74188095D02*
X75464404Y-73073809D01*
X75402499Y-72950000D01*
X75278690Y-72888095D01*
X75154880Y-72888095D01*
X74535833Y-74188095D02*
X74659642Y-74126190D01*
X74721547Y-74064285D01*
X74783452Y-73940476D01*
X74783452Y-73569047D01*
X74721547Y-73445238D01*
X74659642Y-73383333D01*
X74535833Y-73321428D01*
X74350119Y-73321428D01*
X74226309Y-73383333D01*
X74164404Y-73445238D01*
X74102499Y-73569047D01*
X74102499Y-73940476D01*
X74164404Y-74064285D01*
X74226309Y-74126190D01*
X74350119Y-74188095D01*
X74535833Y-74188095D01*
X73545357Y-74188095D02*
X73545357Y-73321428D01*
X73545357Y-73569047D02*
X73483452Y-73445238D01*
X73421547Y-73383333D01*
X73297738Y-73321428D01*
X73173928Y-73321428D01*
X71316785Y-73507142D02*
X71750119Y-73507142D01*
X71750119Y-74188095D02*
X71750119Y-72888095D01*
X71131071Y-72888095D01*
X70078690Y-73321428D02*
X70078690Y-74188095D01*
X70635833Y-73321428D02*
X70635833Y-74002380D01*
X70573928Y-74126190D01*
X70450119Y-74188095D01*
X70264404Y-74188095D01*
X70140595Y-74126190D01*
X70078690Y-74064285D01*
X69273928Y-74188095D02*
X69397738Y-74126190D01*
X69459642Y-74002380D01*
X69459642Y-72888095D01*
X68592976Y-74188095D02*
X68716785Y-74126190D01*
X68778690Y-74002380D01*
X68778690Y-72888095D01*
X68035833Y-74126190D02*
X68035833Y-74188095D01*
X68097738Y-74311904D01*
X68159642Y-74373809D01*
X66488214Y-74188095D02*
X66488214Y-72888095D01*
X66178690Y-72888095D01*
X65992976Y-72950000D01*
X65869166Y-73073809D01*
X65807261Y-73197619D01*
X65745357Y-73445238D01*
X65745357Y-73630952D01*
X65807261Y-73878571D01*
X65869166Y-74002380D01*
X65992976Y-74126190D01*
X66178690Y-74188095D01*
X66488214Y-74188095D01*
X65188214Y-74188095D02*
X65188214Y-72888095D01*
X64445357Y-74188095D01*
X64445357Y-72888095D01*
X63578690Y-72888095D02*
X63454880Y-72888095D01*
X63331071Y-72950000D01*
X63269166Y-73011904D01*
X63207261Y-73135714D01*
X63145357Y-73383333D01*
X63145357Y-73692857D01*
X63207261Y-73940476D01*
X63269166Y-74064285D01*
X63331071Y-74126190D01*
X63454880Y-74188095D01*
X63578690Y-74188095D01*
X63702499Y-74126190D01*
X63764404Y-74064285D01*
X63826309Y-73940476D01*
X63888214Y-73692857D01*
X63888214Y-73383333D01*
X63826309Y-73135714D01*
X63764404Y-73011904D01*
X63702499Y-72950000D01*
X63578690Y-72888095D01*
X62340595Y-72888095D02*
X62216785Y-72888095D01*
X62092976Y-72950000D01*
X62031071Y-73011904D01*
X61969166Y-73135714D01*
X61907261Y-73383333D01*
X61907261Y-73692857D01*
X61969166Y-73940476D01*
X62031071Y-74064285D01*
X62092976Y-74126190D01*
X62216785Y-74188095D01*
X62340595Y-74188095D01*
X62464404Y-74126190D01*
X62526309Y-74064285D01*
X62588214Y-73940476D01*
X62650119Y-73692857D01*
X62650119Y-73383333D01*
X62588214Y-73135714D01*
X62526309Y-73011904D01*
X62464404Y-72950000D01*
X62340595Y-72888095D01*
X61473928Y-72888095D02*
X60669166Y-72888095D01*
X61102499Y-73383333D01*
X60916785Y-73383333D01*
X60792976Y-73445238D01*
X60731071Y-73507142D01*
X60669166Y-73630952D01*
X60669166Y-73940476D01*
X60731071Y-74064285D01*
X60792976Y-74126190D01*
X60916785Y-74188095D01*
X61288214Y-74188095D01*
X61412023Y-74126190D01*
X61473928Y-74064285D01*
X60173928Y-73011904D02*
X60112023Y-72950000D01*
X59988214Y-72888095D01*
X59678690Y-72888095D01*
X59554880Y-72950000D01*
X59492976Y-73011904D01*
X59431071Y-73135714D01*
X59431071Y-73259523D01*
X59492976Y-73445238D01*
X60235833Y-74188095D01*
X59431071Y-74188095D01*
X58502499Y-74683333D02*
X58564404Y-74621428D01*
X58688214Y-74435714D01*
X58750119Y-74311904D01*
X58812023Y-74126190D01*
X58873928Y-73816666D01*
X58873928Y-73569047D01*
X58812023Y-73259523D01*
X58750119Y-73073809D01*
X58688214Y-72950000D01*
X58564404Y-72764285D01*
X58502499Y-72702380D01*
X58069166Y-73011904D02*
X58007261Y-72950000D01*
X57883452Y-72888095D01*
X57573928Y-72888095D01*
X57450119Y-72950000D01*
X57388214Y-73011904D01*
X57326309Y-73135714D01*
X57326309Y-73259523D01*
X57388214Y-73445238D01*
X58131071Y-74188095D01*
X57326309Y-74188095D01*
X56892976Y-74683333D02*
X56831071Y-74621428D01*
X56707261Y-74435714D01*
X56645357Y-74311904D01*
X56583452Y-74126190D01*
X56521547Y-73816666D01*
X56521547Y-73569047D01*
X56583452Y-73259523D01*
X56645357Y-73073809D01*
X56707261Y-72950000D01*
X56831071Y-72764285D01*
X56892976Y-72702380D01*
X54912023Y-74188095D02*
X54912023Y-72888095D01*
X54912023Y-73383333D02*
X54788214Y-73321428D01*
X54540595Y-73321428D01*
X54416785Y-73383333D01*
X54354880Y-73445238D01*
X54292976Y-73569047D01*
X54292976Y-73940476D01*
X54354880Y-74064285D01*
X54416785Y-74126190D01*
X54540595Y-74188095D01*
X54788214Y-74188095D01*
X54912023Y-74126190D01*
X53859642Y-73321428D02*
X53550119Y-74188095D01*
X53240595Y-73321428D02*
X53550119Y-74188095D01*
X53673928Y-74497619D01*
X53735833Y-74559523D01*
X53859642Y-74621428D01*
X50950119Y-73569047D02*
X51012023Y-73507142D01*
X51135833Y-73445238D01*
X51259642Y-73445238D01*
X51383452Y-73507142D01*
X51445357Y-73569047D01*
X51507261Y-73692857D01*
X51507261Y-73816666D01*
X51445357Y-73940476D01*
X51383452Y-74002380D01*
X51259642Y-74064285D01*
X51135833Y-74064285D01*
X51012023Y-74002380D01*
X50950119Y-73940476D01*
X50950119Y-73445238D02*
X50950119Y-73940476D01*
X50888214Y-74002380D01*
X50826309Y-74002380D01*
X50702499Y-73940476D01*
X50640595Y-73816666D01*
X50640595Y-73507142D01*
X50764404Y-73321428D01*
X50950119Y-73197619D01*
X51197738Y-73135714D01*
X51445357Y-73197619D01*
X51631071Y-73321428D01*
X51754880Y-73507142D01*
X51816785Y-73754761D01*
X51754880Y-74002380D01*
X51631071Y-74188095D01*
X51445357Y-74311904D01*
X51197738Y-74373809D01*
X50950119Y-74311904D01*
X50764404Y-74188095D01*
X50083452Y-73321428D02*
X50083452Y-74435714D01*
X50145357Y-74559523D01*
X50269166Y-74621428D01*
X50331071Y-74621428D01*
X50083452Y-72888095D02*
X50145357Y-72950000D01*
X50083452Y-73011904D01*
X50021547Y-72950000D01*
X50083452Y-72888095D01*
X50083452Y-73011904D01*
X49464404Y-73321428D02*
X49464404Y-74621428D01*
X49464404Y-73383333D02*
X49340595Y-73321428D01*
X49092976Y-73321428D01*
X48969166Y-73383333D01*
X48907261Y-73445238D01*
X48845357Y-73569047D01*
X48845357Y-73940476D01*
X48907261Y-74064285D01*
X48969166Y-74126190D01*
X49092976Y-74188095D01*
X49340595Y-74188095D01*
X49464404Y-74126190D01*
X48350119Y-74126190D02*
X48226309Y-74188095D01*
X47978690Y-74188095D01*
X47854880Y-74126190D01*
X47792976Y-74002380D01*
X47792976Y-73940476D01*
X47854880Y-73816666D01*
X47978690Y-73754761D01*
X48164404Y-73754761D01*
X48288214Y-73692857D01*
X48350119Y-73569047D01*
X48350119Y-73507142D01*
X48288214Y-73383333D01*
X48164404Y-73321428D01*
X47978690Y-73321428D01*
X47854880Y-73383333D01*
X47235833Y-74188095D02*
X47235833Y-72888095D01*
X47112023Y-73692857D02*
X46740595Y-74188095D01*
X46740595Y-73321428D02*
X47235833Y-73816666D01*
X45688214Y-74126190D02*
X45812023Y-74188095D01*
X46059642Y-74188095D01*
X46183452Y-74126190D01*
X46245357Y-74002380D01*
X46245357Y-73507142D01*
X46183452Y-73383333D01*
X46059642Y-73321428D01*
X45812023Y-73321428D01*
X45688214Y-73383333D01*
X45626309Y-73507142D01*
X45626309Y-73630952D01*
X46245357Y-73754761D01*
X45069166Y-73321428D02*
X45069166Y-74188095D01*
X45069166Y-73445238D02*
X45007261Y-73383333D01*
X44883452Y-73321428D01*
X44697738Y-73321428D01*
X44573928Y-73383333D01*
X44512023Y-73507142D01*
X44512023Y-74188095D01*
X43892976Y-73321428D02*
X43892976Y-74188095D01*
X43892976Y-73445238D02*
X43831071Y-73383333D01*
X43707261Y-73321428D01*
X43521547Y-73321428D01*
X43397738Y-73383333D01*
X43335833Y-73507142D01*
X43335833Y-74188095D01*
X164597981Y-21212099D02*
X164597981Y-20212099D01*
X164217029Y-20212099D01*
X164121791Y-20259719D01*
X164074172Y-20307338D01*
X164026553Y-20402576D01*
X164026553Y-20545433D01*
X164074172Y-20640671D01*
X164121791Y-20688290D01*
X164217029Y-20735909D01*
X164597981Y-20735909D01*
X163597981Y-21212099D02*
X163597981Y-20212099D01*
X162550362Y-21116861D02*
X162597981Y-21164480D01*
X162740838Y-21212099D01*
X162836076Y-21212099D01*
X162978933Y-21164480D01*
X163074172Y-21069242D01*
X163121791Y-20974004D01*
X163169410Y-20783528D01*
X163169410Y-20640671D01*
X163121791Y-20450195D01*
X163074172Y-20354957D01*
X162978933Y-20259719D01*
X162836076Y-20212099D01*
X162740838Y-20212099D01*
X162597981Y-20259719D01*
X162550362Y-20307338D01*
X161931314Y-20212099D02*
X161740838Y-20212099D01*
X161645600Y-20259719D01*
X161550362Y-20354957D01*
X161502743Y-20545433D01*
X161502743Y-20878766D01*
X161550362Y-21069242D01*
X161645600Y-21164480D01*
X161740838Y-21212099D01*
X161931314Y-21212099D01*
X162026553Y-21164480D01*
X162121791Y-21069242D01*
X162169410Y-20878766D01*
X162169410Y-20545433D01*
X162121791Y-20354957D01*
X162026553Y-20259719D01*
X161931314Y-20212099D01*
X160312267Y-21212099D02*
X160312267Y-20545433D01*
X160312267Y-20735909D02*
X160264648Y-20640671D01*
X160217029Y-20593052D01*
X160121791Y-20545433D01*
X160026553Y-20545433D01*
X159312267Y-21164480D02*
X159407505Y-21212099D01*
X159597981Y-21212099D01*
X159693219Y-21164480D01*
X159740838Y-21069242D01*
X159740838Y-20688290D01*
X159693219Y-20593052D01*
X159597981Y-20545433D01*
X159407505Y-20545433D01*
X159312267Y-20593052D01*
X159264648Y-20688290D01*
X159264648Y-20783528D01*
X159740838Y-20878766D01*
X158883695Y-21164480D02*
X158788457Y-21212099D01*
X158597981Y-21212099D01*
X158502743Y-21164480D01*
X158455124Y-21069242D01*
X158455124Y-21021623D01*
X158502743Y-20926385D01*
X158597981Y-20878766D01*
X158740838Y-20878766D01*
X158836076Y-20831147D01*
X158883695Y-20735909D01*
X158883695Y-20688290D01*
X158836076Y-20593052D01*
X158740838Y-20545433D01*
X158597981Y-20545433D01*
X158502743Y-20593052D01*
X157645600Y-21164480D02*
X157740838Y-21212099D01*
X157931314Y-21212099D01*
X158026553Y-21164480D01*
X158074172Y-21069242D01*
X158074172Y-20688290D01*
X158026553Y-20593052D01*
X157931314Y-20545433D01*
X157740838Y-20545433D01*
X157645600Y-20593052D01*
X157597981Y-20688290D01*
X157597981Y-20783528D01*
X158074172Y-20878766D01*
X157169410Y-21212099D02*
X157169410Y-20545433D01*
X157169410Y-20735909D02*
X157121791Y-20640671D01*
X157074172Y-20593052D01*
X156978933Y-20545433D01*
X156883695Y-20545433D01*
X156645600Y-20545433D02*
X156407505Y-21212099D01*
X156169410Y-20545433D01*
X155407505Y-21164480D02*
X155502743Y-21212099D01*
X155693219Y-21212099D01*
X155788457Y-21164480D01*
X155836076Y-21069242D01*
X155836076Y-20688290D01*
X155788457Y-20593052D01*
X155693219Y-20545433D01*
X155502743Y-20545433D01*
X155407505Y-20593052D01*
X155359886Y-20688290D01*
X155359886Y-20783528D01*
X155836076Y-20878766D01*
X154502743Y-21212099D02*
X154502743Y-20212099D01*
X154502743Y-21164480D02*
X154597981Y-21212099D01*
X154788457Y-21212099D01*
X154883695Y-21164480D01*
X154931314Y-21116861D01*
X154978933Y-21021623D01*
X154978933Y-20735909D01*
X154931314Y-20640671D01*
X154883695Y-20593052D01*
X154788457Y-20545433D01*
X154597981Y-20545433D01*
X154502743Y-20593052D01*
X152836076Y-21212099D02*
X152836076Y-20688290D01*
X152883695Y-20593052D01*
X152978933Y-20545433D01*
X153169410Y-20545433D01*
X153264648Y-20593052D01*
X152836076Y-21164480D02*
X152931314Y-21212099D01*
X153169410Y-21212099D01*
X153264648Y-21164480D01*
X153312267Y-21069242D01*
X153312267Y-20974004D01*
X153264648Y-20878766D01*
X153169410Y-20831147D01*
X152931314Y-20831147D01*
X152836076Y-20783528D01*
X152359886Y-21212099D02*
X152359886Y-20545433D01*
X152359886Y-20735909D02*
X152312267Y-20640671D01*
X152264648Y-20593052D01*
X152169410Y-20545433D01*
X152074172Y-20545433D01*
X151359886Y-21164480D02*
X151455124Y-21212099D01*
X151645600Y-21212099D01*
X151740838Y-21164480D01*
X151788457Y-21069242D01*
X151788457Y-20688290D01*
X151740838Y-20593052D01*
X151645600Y-20545433D01*
X151455124Y-20545433D01*
X151359886Y-20593052D01*
X151312267Y-20688290D01*
X151312267Y-20783528D01*
X151788457Y-20878766D01*
X150455124Y-21212099D02*
X150455124Y-20688290D01*
X150502743Y-20593052D01*
X150597981Y-20545433D01*
X150788457Y-20545433D01*
X150883695Y-20593052D01*
X150455124Y-21164480D02*
X150550362Y-21212099D01*
X150788457Y-21212099D01*
X150883695Y-21164480D01*
X150931314Y-21069242D01*
X150931314Y-20974004D01*
X150883695Y-20878766D01*
X150788457Y-20831147D01*
X150550362Y-20831147D01*
X150455124Y-20783528D01*
M02*
