%TF.GenerationSoftware,KiCad,Pcbnew,(6.0.1-0)*%
%TF.CreationDate,2022-03-20T09:15:39+09:00*%
%TF.ProjectId,keyplate,6b657970-6c61-4746-952e-6b696361645f,rev?*%
%TF.SameCoordinates,Original*%
%TF.FileFunction,Profile,NP*%
%FSLAX46Y46*%
G04 Gerber Fmt 4.6, Leading zero omitted, Abs format (unit mm)*
G04 Created by KiCad (PCBNEW (6.0.1-0)) date 2022-03-20 09:15:39*
%MOMM*%
%LPD*%
G01*
G04 APERTURE LIST*
%TA.AperFunction,Profile*%
%ADD10C,0.352776*%
%TD*%
G04 APERTURE END LIST*
D10*
X20968579Y-75200680D02*
X20912733Y-75199268D01*
X20912733Y-75199268D02*
X20857620Y-75195078D01*
X20857620Y-75195078D02*
X20803309Y-75188178D01*
X20803309Y-75188178D02*
X20749868Y-75178636D01*
X20749868Y-75178636D02*
X20697366Y-75166520D01*
X20697366Y-75166520D02*
X20645869Y-75151899D01*
X20645869Y-75151899D02*
X20595447Y-75134840D01*
X20595447Y-75134840D02*
X20546168Y-75115412D01*
X20546168Y-75115412D02*
X20498099Y-75093683D01*
X20498099Y-75093683D02*
X20451310Y-75069721D01*
X20451310Y-75069721D02*
X20405867Y-75043594D01*
X20405867Y-75043594D02*
X20361840Y-75015370D01*
X20361840Y-75015370D02*
X20319296Y-74985118D01*
X20319296Y-74985118D02*
X20278304Y-74952905D01*
X20278304Y-74952905D02*
X20238931Y-74918800D01*
X20238931Y-74918800D02*
X20201246Y-74882871D01*
X20201246Y-74882871D02*
X20165317Y-74845186D01*
X20165317Y-74845186D02*
X20131212Y-74805813D01*
X20131212Y-74805813D02*
X20098999Y-74764821D01*
X20098999Y-74764821D02*
X20068747Y-74722277D01*
X20068747Y-74722277D02*
X20040523Y-74678249D01*
X20040523Y-74678249D02*
X20014396Y-74632807D01*
X20014396Y-74632807D02*
X19990434Y-74586017D01*
X19990434Y-74586017D02*
X19968705Y-74537948D01*
X19968705Y-74537948D02*
X19949277Y-74488669D01*
X19949277Y-74488669D02*
X19932218Y-74438247D01*
X19932218Y-74438247D02*
X19917597Y-74386750D01*
X19917597Y-74386750D02*
X19905481Y-74334248D01*
X19905481Y-74334248D02*
X19895939Y-74280807D01*
X19895939Y-74280807D02*
X19889039Y-74226496D01*
X19889039Y-74226496D02*
X19884849Y-74171383D01*
X19884849Y-74171383D02*
X19883437Y-74115536D01*
X19883437Y-74115536D02*
X19883437Y-74114826D01*
X19883437Y-74114826D02*
X19880281Y-73987598D01*
X19880281Y-73987598D02*
X19870870Y-73861241D01*
X19870870Y-73861241D02*
X19855290Y-73735965D01*
X19855290Y-73735965D02*
X19833630Y-73611983D01*
X19833630Y-73611983D02*
X19805975Y-73489503D01*
X19805975Y-73489503D02*
X19772412Y-73368736D01*
X19772412Y-73368736D02*
X19733029Y-73249892D01*
X19733029Y-73249892D02*
X19687911Y-73133182D01*
X19687911Y-73133182D02*
X19637146Y-73018816D01*
X19637146Y-73018816D02*
X19580821Y-72907005D01*
X19580821Y-72907005D02*
X19519023Y-72797958D01*
X19519023Y-72797958D02*
X19451838Y-72691886D01*
X19451838Y-72691886D02*
X19379352Y-72589000D01*
X19379352Y-72589000D02*
X19301654Y-72489509D01*
X19301654Y-72489509D02*
X19218830Y-72393624D01*
X19218830Y-72393624D02*
X19130965Y-72301556D01*
X19130965Y-72301556D02*
X19038703Y-72213893D01*
X19038703Y-72213893D02*
X18942633Y-72131279D01*
X18942633Y-72131279D02*
X18842967Y-72053798D01*
X18842967Y-72053798D02*
X18739918Y-71981536D01*
X18739918Y-71981536D02*
X18633695Y-71914582D01*
X18633695Y-71914582D02*
X18524511Y-71853019D01*
X18524511Y-71853019D02*
X18412576Y-71796936D01*
X18412576Y-71796936D02*
X18298103Y-71746417D01*
X18298103Y-71746417D02*
X18181302Y-71701550D01*
X18181302Y-71701550D02*
X18062385Y-71662420D01*
X18062385Y-71662420D02*
X17941564Y-71629115D01*
X17941564Y-71629115D02*
X17819049Y-71601719D01*
X17819049Y-71601719D02*
X17695051Y-71580320D01*
X17695051Y-71580320D02*
X17569783Y-71565003D01*
X17569783Y-71565003D02*
X17443456Y-71555856D01*
X17443456Y-71555856D02*
X17316281Y-71552963D01*
X17316281Y-71552963D02*
X16689397Y-71554020D01*
X16689397Y-71554020D02*
X16601865Y-71552042D01*
X16601865Y-71552042D02*
X16514916Y-71545751D01*
X16514916Y-71545751D02*
X16428696Y-71535206D01*
X16428696Y-71535206D02*
X16343350Y-71520469D01*
X16343350Y-71520469D02*
X16259023Y-71501600D01*
X16259023Y-71501600D02*
X16175860Y-71478660D01*
X16175860Y-71478660D02*
X16094007Y-71451708D01*
X16094007Y-71451708D02*
X16013608Y-71420806D01*
X16013608Y-71420806D02*
X15934809Y-71386013D01*
X15934809Y-71386013D02*
X15857756Y-71347391D01*
X15857756Y-71347391D02*
X15782593Y-71304999D01*
X15782593Y-71304999D02*
X15709465Y-71258898D01*
X15709465Y-71258898D02*
X15638518Y-71209149D01*
X15638518Y-71209149D02*
X15569897Y-71155812D01*
X15569897Y-71155812D02*
X15503747Y-71098948D01*
X15503747Y-71098948D02*
X15440213Y-71038616D01*
X15440213Y-71038616D02*
X15379749Y-70975210D01*
X15379749Y-70975210D02*
X15322752Y-70909179D01*
X15322752Y-70909179D02*
X15269281Y-70840667D01*
X15269281Y-70840667D02*
X15219397Y-70769820D01*
X15219397Y-70769820D02*
X15173159Y-70696782D01*
X15173159Y-70696782D02*
X15130627Y-70621698D01*
X15130627Y-70621698D02*
X15091861Y-70544712D01*
X15091861Y-70544712D02*
X15056921Y-70465969D01*
X15056921Y-70465969D02*
X15025868Y-70385614D01*
X15025868Y-70385614D02*
X14998760Y-70303791D01*
X14998760Y-70303791D02*
X14975659Y-70220645D01*
X14975659Y-70220645D02*
X14956623Y-70136322D01*
X14956623Y-70136322D02*
X14941713Y-70050965D01*
X14941713Y-70050965D02*
X14930989Y-69964718D01*
X14930989Y-69964718D02*
X14924510Y-69877728D01*
X14924510Y-69877728D02*
X14922337Y-69790138D01*
X14922337Y-69790138D02*
X14923395Y-19575523D01*
X14923395Y-19575523D02*
X14929393Y-19418537D01*
X14929393Y-19418537D02*
X14947384Y-19262257D01*
X14947384Y-19262257D02*
X14978428Y-19108447D01*
X14978428Y-19108447D02*
X15020409Y-18956399D01*
X15020409Y-18956399D02*
X15075442Y-18809291D01*
X15075442Y-18809291D02*
X15140353Y-18667475D01*
X15140353Y-18667475D02*
X15217258Y-18530245D01*
X15217258Y-18530245D02*
X15304394Y-18399365D01*
X15304394Y-18399365D02*
X15402466Y-18276245D01*
X15402466Y-18276245D02*
X15508300Y-18160535D01*
X15508300Y-18160535D02*
X15624362Y-18054349D01*
X15624362Y-18054349D02*
X15747482Y-17956277D01*
X15747482Y-17956277D02*
X15878362Y-17869494D01*
X15878362Y-17869494D02*
X16015240Y-17792236D01*
X16015240Y-17792236D02*
X16157409Y-17727325D01*
X16157409Y-17727325D02*
X16304517Y-17672291D01*
X16304517Y-17672291D02*
X16456211Y-17630311D01*
X16456211Y-17630311D02*
X16610374Y-17599267D01*
X16610374Y-17599267D02*
X16766302Y-17581275D01*
X16766302Y-17581275D02*
X16923287Y-17574219D01*
X16923287Y-17574219D02*
X298297785Y-17575277D01*
X298297785Y-17575277D02*
X298453699Y-17581275D01*
X298453699Y-17581275D02*
X298609644Y-17599267D01*
X298609644Y-17599267D02*
X298763788Y-17630311D01*
X298763788Y-17630311D02*
X298916559Y-17672291D01*
X298916559Y-17672291D02*
X299062617Y-17727325D01*
X299062617Y-17727325D02*
X299204767Y-17792236D01*
X299204767Y-17792236D02*
X299341639Y-17869494D01*
X299341639Y-17869494D02*
X299472529Y-17956277D01*
X299472529Y-17956277D02*
X299595637Y-18054349D01*
X299595637Y-18054349D02*
X299711725Y-18160535D01*
X299711725Y-18160535D02*
X299817530Y-18276245D01*
X299817530Y-18276245D02*
X299916681Y-18399365D01*
X299916681Y-18399365D02*
X300002741Y-18530245D01*
X300002741Y-18530245D02*
X300079645Y-18667475D01*
X300079645Y-18667475D02*
X300144556Y-18809291D01*
X300144556Y-18809291D02*
X300199610Y-18956399D01*
X300199610Y-18956399D02*
X300241602Y-19108447D01*
X300241602Y-19108447D02*
X300272639Y-19262257D01*
X300272639Y-19262257D02*
X300291681Y-19418537D01*
X300291681Y-19418537D02*
X300297663Y-19575523D01*
X300297663Y-19575523D02*
X300297663Y-69789082D01*
X300297663Y-69789082D02*
X300295494Y-69876543D01*
X300295494Y-69876543D02*
X300289029Y-69963412D01*
X300289029Y-69963412D02*
X300278327Y-70049544D01*
X300278327Y-70049544D02*
X300263449Y-70134795D01*
X300263449Y-70134795D02*
X300244456Y-70219018D01*
X300244456Y-70219018D02*
X300221408Y-70302069D01*
X300221408Y-70302069D02*
X300194366Y-70383803D01*
X300194366Y-70383803D02*
X300163389Y-70464073D01*
X300163389Y-70464073D02*
X300128540Y-70542735D01*
X300128540Y-70542735D02*
X300089877Y-70619644D01*
X300089877Y-70619644D02*
X300047461Y-70694654D01*
X300047461Y-70694654D02*
X300001354Y-70767621D01*
X300001354Y-70767621D02*
X299951615Y-70838398D01*
X299951615Y-70838398D02*
X299898305Y-70906842D01*
X299898305Y-70906842D02*
X299841485Y-70972805D01*
X299841485Y-70972805D02*
X299781214Y-71036144D01*
X299781214Y-71036144D02*
X299717808Y-71096480D01*
X299717808Y-71096480D02*
X299651787Y-71153358D01*
X299651787Y-71153358D02*
X299583294Y-71206717D01*
X299583294Y-71206717D02*
X299512475Y-71256498D01*
X299512475Y-71256498D02*
X299439473Y-71302642D01*
X299439473Y-71302642D02*
X299364435Y-71345087D01*
X299364435Y-71345087D02*
X299287503Y-71383774D01*
X299287503Y-71383774D02*
X299208822Y-71418644D01*
X299208822Y-71418644D02*
X299128538Y-71449635D01*
X299128538Y-71449635D02*
X299046794Y-71476689D01*
X299046794Y-71476689D02*
X298963736Y-71499745D01*
X298963736Y-71499745D02*
X298879507Y-71518744D01*
X298879507Y-71518744D02*
X298794252Y-71533625D01*
X298794252Y-71533625D02*
X298708116Y-71544329D01*
X298708116Y-71544329D02*
X298621243Y-71550795D01*
X298621243Y-71550795D02*
X298533777Y-71552963D01*
X298533777Y-71552963D02*
X297901606Y-71552963D01*
X297901606Y-71552963D02*
X297774440Y-71556116D01*
X297774440Y-71556116D02*
X297648137Y-71565514D01*
X297648137Y-71565514D02*
X297522907Y-71581071D01*
X297522907Y-71581071D02*
X297398959Y-71602699D01*
X297398959Y-71602699D02*
X297276504Y-71630312D01*
X297276504Y-71630312D02*
X297155751Y-71663821D01*
X297155751Y-71663821D02*
X297036910Y-71703140D01*
X297036910Y-71703140D02*
X296920191Y-71748181D01*
X296920191Y-71748181D02*
X296805804Y-71798856D01*
X296805804Y-71798856D02*
X296693958Y-71855079D01*
X296693958Y-71855079D02*
X296584864Y-71916762D01*
X296584864Y-71916762D02*
X296478730Y-71983818D01*
X296478730Y-71983818D02*
X296375768Y-72056160D01*
X296375768Y-72056160D02*
X296276187Y-72133700D01*
X296276187Y-72133700D02*
X296180197Y-72216350D01*
X296180197Y-72216350D02*
X296088007Y-72304024D01*
X296088007Y-72304024D02*
X296000328Y-72396217D01*
X296000328Y-72396217D02*
X295917672Y-72492210D01*
X295917672Y-72492210D02*
X295840128Y-72591794D01*
X295840128Y-72591794D02*
X295767783Y-72694759D01*
X295767783Y-72694759D02*
X295700723Y-72800894D01*
X295700723Y-72800894D02*
X295639037Y-72909990D01*
X295639037Y-72909990D02*
X295582811Y-73021838D01*
X295582811Y-73021838D02*
X295532133Y-73136227D01*
X295532133Y-73136227D02*
X295487091Y-73252947D01*
X295487091Y-73252947D02*
X295447770Y-73371789D01*
X295447770Y-73371789D02*
X295414260Y-73492543D01*
X295414260Y-73492543D02*
X295386646Y-73615000D01*
X295386646Y-73615000D02*
X295365017Y-73738948D01*
X295365017Y-73738948D02*
X295349459Y-73864179D01*
X295349459Y-73864179D02*
X295340061Y-73990483D01*
X295340061Y-73990483D02*
X295336909Y-74117649D01*
X295336909Y-74117649D02*
X295336909Y-74122238D01*
X295336909Y-74122238D02*
X295335583Y-74175727D01*
X295335583Y-74175727D02*
X295331632Y-74228847D01*
X295331632Y-74228847D02*
X295325091Y-74281511D01*
X295325091Y-74281511D02*
X295315996Y-74333633D01*
X295315996Y-74333633D02*
X295304384Y-74385124D01*
X295304384Y-74385124D02*
X295290290Y-74435898D01*
X295290290Y-74435898D02*
X295273750Y-74485866D01*
X295273750Y-74485866D02*
X295254801Y-74534942D01*
X295254801Y-74534942D02*
X295233479Y-74583039D01*
X295233479Y-74583039D02*
X295209820Y-74630068D01*
X295209820Y-74630068D02*
X295183859Y-74675942D01*
X295183859Y-74675942D02*
X295155634Y-74720575D01*
X295155634Y-74720575D02*
X295125180Y-74763879D01*
X295125180Y-74763879D02*
X295092534Y-74805766D01*
X295092534Y-74805766D02*
X295057731Y-74846149D01*
X295057731Y-74846149D02*
X295020807Y-74884941D01*
X295020807Y-74884941D02*
X294982081Y-74921798D01*
X294982081Y-74921798D02*
X294941756Y-74956544D01*
X294941756Y-74956544D02*
X294899919Y-74989140D01*
X294899919Y-74989140D02*
X294856658Y-75019552D01*
X294856658Y-75019552D02*
X294812062Y-75047742D01*
X294812062Y-75047742D02*
X294766218Y-75073673D01*
X294766218Y-75073673D02*
X294719213Y-75097308D01*
X294719213Y-75097308D02*
X294671137Y-75118612D01*
X294671137Y-75118612D02*
X294622077Y-75137547D01*
X294622077Y-75137547D02*
X294572120Y-75154076D01*
X294572120Y-75154076D02*
X294521355Y-75168163D01*
X294521355Y-75168163D02*
X294469869Y-75179771D01*
X294469869Y-75179771D02*
X294417750Y-75188864D01*
X294417750Y-75188864D02*
X294365087Y-75195404D01*
X294365087Y-75195404D02*
X294311967Y-75199355D01*
X294311967Y-75199355D02*
X294258478Y-75200680D01*
X294258478Y-75200680D02*
X284533838Y-75200680D01*
X284533838Y-75200680D02*
X284533838Y-89000607D01*
X284533838Y-89000607D02*
X298533777Y-89000607D01*
X298533777Y-89000607D02*
X298621243Y-89002771D01*
X298621243Y-89002771D02*
X298708116Y-89009226D01*
X298708116Y-89009226D02*
X298794252Y-89019912D01*
X298794252Y-89019912D02*
X298879507Y-89034770D01*
X298879507Y-89034770D02*
X298963736Y-89053742D01*
X298963736Y-89053742D02*
X299046794Y-89076768D01*
X299046794Y-89076768D02*
X299128538Y-89103789D01*
X299128538Y-89103789D02*
X299208822Y-89134748D01*
X299208822Y-89134748D02*
X299287503Y-89169584D01*
X299287503Y-89169584D02*
X299364435Y-89208239D01*
X299364435Y-89208239D02*
X299439473Y-89250654D01*
X299439473Y-89250654D02*
X299512475Y-89296771D01*
X299512475Y-89296771D02*
X299583294Y-89346530D01*
X299583294Y-89346530D02*
X299651787Y-89399872D01*
X299651787Y-89399872D02*
X299717808Y-89456739D01*
X299717808Y-89456739D02*
X299781214Y-89517071D01*
X299781214Y-89517071D02*
X299841485Y-89580472D01*
X299841485Y-89580472D02*
X299898305Y-89646490D01*
X299898305Y-89646490D02*
X299951615Y-89714979D01*
X299951615Y-89714979D02*
X300001354Y-89785797D01*
X300001354Y-89785797D02*
X300047461Y-89858797D01*
X300047461Y-89858797D02*
X300089877Y-89933836D01*
X300089877Y-89933836D02*
X300128540Y-90010768D01*
X300128540Y-90010768D02*
X300163389Y-90089449D01*
X300163389Y-90089449D02*
X300194366Y-90169734D01*
X300194366Y-90169734D02*
X300221408Y-90251479D01*
X300221408Y-90251479D02*
X300244456Y-90334538D01*
X300244456Y-90334538D02*
X300263449Y-90418767D01*
X300263449Y-90418767D02*
X300278327Y-90504022D01*
X300278327Y-90504022D02*
X300289029Y-90590158D01*
X300289029Y-90590158D02*
X300295494Y-90677029D01*
X300295494Y-90677029D02*
X300297663Y-90764492D01*
X300297663Y-90764492D02*
X300297663Y-110501995D01*
X300297663Y-110501995D02*
X300291681Y-110657215D01*
X300291681Y-110657215D02*
X300272639Y-110813152D01*
X300272639Y-110813152D02*
X300241602Y-110967312D01*
X300241602Y-110967312D02*
X300199610Y-111119015D01*
X300199610Y-111119015D02*
X300144556Y-111267170D01*
X300144556Y-111267170D02*
X300079645Y-111408276D01*
X300079645Y-111408276D02*
X300002741Y-111545155D01*
X300002741Y-111545155D02*
X299916681Y-111676045D01*
X299916681Y-111676045D02*
X299817530Y-111800228D01*
X299817530Y-111800228D02*
X299711725Y-111916279D01*
X299711725Y-111916279D02*
X299595637Y-112021053D01*
X299595637Y-112021053D02*
X299472529Y-112119129D01*
X299472529Y-112119129D02*
X299341639Y-112206265D01*
X299341639Y-112206265D02*
X299204767Y-112283169D01*
X299204767Y-112283169D02*
X299062617Y-112348080D01*
X299062617Y-112348080D02*
X298916559Y-112404171D01*
X298916559Y-112404171D02*
X298763788Y-112446156D01*
X298763788Y-112446156D02*
X298609644Y-112476139D01*
X298609644Y-112476139D02*
X298453699Y-112494129D01*
X298453699Y-112494129D02*
X298297785Y-112500126D01*
X298297785Y-112500126D02*
X16923287Y-112502247D01*
X16923287Y-112502247D02*
X16766302Y-112494129D01*
X16766302Y-112494129D02*
X16610374Y-112476139D01*
X16610374Y-112476139D02*
X16456211Y-112446156D01*
X16456211Y-112446156D02*
X16304517Y-112404171D01*
X16304517Y-112404171D02*
X16157409Y-112348080D01*
X16157409Y-112348080D02*
X16015240Y-112283169D01*
X16015240Y-112283169D02*
X15878362Y-112206265D01*
X15878362Y-112206265D02*
X15747482Y-112119129D01*
X15747482Y-112119129D02*
X15624362Y-112021053D01*
X15624362Y-112021053D02*
X15508300Y-111916279D01*
X15508300Y-111916279D02*
X15402466Y-111800228D01*
X15402466Y-111800228D02*
X15304394Y-111676045D01*
X15304394Y-111676045D02*
X15217258Y-111545155D01*
X15217258Y-111545155D02*
X15140353Y-111408276D01*
X15140353Y-111408276D02*
X15075442Y-111267170D01*
X15075442Y-111267170D02*
X15020409Y-111119015D01*
X15020409Y-111119015D02*
X14978428Y-110967312D01*
X14978428Y-110967312D02*
X14947384Y-110813152D01*
X14947384Y-110813152D02*
X14929393Y-110657215D01*
X14929393Y-110657215D02*
X14922337Y-110501995D01*
X14922337Y-110501995D02*
X14922337Y-90764492D01*
X14922337Y-90764492D02*
X14924506Y-90677029D01*
X14924506Y-90677029D02*
X14930972Y-90590158D01*
X14930972Y-90590158D02*
X14941675Y-90504022D01*
X14941675Y-90504022D02*
X14956556Y-90418767D01*
X14956556Y-90418767D02*
X14975555Y-90334538D01*
X14975555Y-90334538D02*
X14998611Y-90251479D01*
X14998611Y-90251479D02*
X15025665Y-90169734D01*
X15025665Y-90169734D02*
X15056657Y-90089449D01*
X15056657Y-90089449D02*
X15091526Y-90010768D01*
X15091526Y-90010768D02*
X15130213Y-89933836D01*
X15130213Y-89933836D02*
X15172658Y-89858797D01*
X15172658Y-89858797D02*
X15218802Y-89785797D01*
X15218802Y-89785797D02*
X15268583Y-89714979D01*
X15268583Y-89714979D02*
X15321942Y-89646490D01*
X15321942Y-89646490D02*
X15378819Y-89580472D01*
X15378819Y-89580472D02*
X15439155Y-89517071D01*
X15439155Y-89517071D02*
X15502494Y-89456739D01*
X15502494Y-89456739D02*
X15568458Y-89399872D01*
X15568458Y-89399872D02*
X15636901Y-89346530D01*
X15636901Y-89346530D02*
X15707679Y-89296771D01*
X15707679Y-89296771D02*
X15780645Y-89250654D01*
X15780645Y-89250654D02*
X15855656Y-89208239D01*
X15855656Y-89208239D02*
X15932564Y-89169584D01*
X15932564Y-89169584D02*
X16011227Y-89134748D01*
X16011227Y-89134748D02*
X16091497Y-89103789D01*
X16091497Y-89103789D02*
X16173231Y-89076768D01*
X16173231Y-89076768D02*
X16256282Y-89053742D01*
X16256282Y-89053742D02*
X16340505Y-89034770D01*
X16340505Y-89034770D02*
X16425756Y-89019912D01*
X16425756Y-89019912D02*
X16511889Y-89009226D01*
X16511889Y-89009226D02*
X16598760Y-89002771D01*
X16598760Y-89002771D02*
X16686221Y-89000607D01*
X16686221Y-89000607D02*
X30634314Y-89000607D01*
X30634314Y-89000607D02*
X30634314Y-75200680D01*
X30634314Y-75200680D02*
X20968579Y-75200680D01*
X20968579Y-75200680D02*
X20968579Y-75200680D01*
X231588389Y-92206288D02*
X231588389Y-106005856D01*
X231588389Y-106005856D02*
X217588419Y-106005856D01*
X217588419Y-106005856D02*
X217588419Y-92206288D01*
X217588419Y-92206288D02*
X231588389Y-92206288D01*
X231588389Y-92206288D02*
X231588389Y-92206288D01*
X186935297Y-92204525D02*
X186935297Y-106004093D01*
X186935297Y-106004093D02*
X172935343Y-106004093D01*
X172935343Y-106004093D02*
X172935343Y-92204525D01*
X172935343Y-92204525D02*
X186935297Y-92204525D01*
X186935297Y-92204525D02*
X186935297Y-92204525D01*
X209259348Y-92204525D02*
X209259348Y-106004093D01*
X209259348Y-106004093D02*
X195259409Y-106004093D01*
X195259409Y-106004093D02*
X195259409Y-92204525D01*
X195259409Y-92204525D02*
X209259348Y-92204525D01*
X209259348Y-92204525D02*
X209259348Y-92204525D01*
X142289957Y-92204525D02*
X142289957Y-106004093D01*
X142289957Y-106004093D02*
X128290011Y-106004093D01*
X128290011Y-106004093D02*
X128290011Y-92204525D01*
X128290011Y-92204525D02*
X142289957Y-92204525D01*
X142289957Y-92204525D02*
X142289957Y-92204525D01*
X253904688Y-92204525D02*
X253904688Y-106004093D01*
X253904688Y-106004093D02*
X239904734Y-106004093D01*
X239904734Y-106004093D02*
X239904734Y-92204525D01*
X239904734Y-92204525D02*
X253904688Y-92204525D01*
X253904688Y-92204525D02*
X253904688Y-92204525D01*
X119955652Y-92202755D02*
X119955652Y-106002331D01*
X119955652Y-106002331D02*
X105955713Y-106002331D01*
X105955713Y-106002331D02*
X105955713Y-92202755D01*
X105955713Y-92202755D02*
X119955652Y-92202755D01*
X119955652Y-92202755D02*
X119955652Y-92202755D01*
X97634051Y-92202755D02*
X97634051Y-106002331D01*
X97634051Y-106002331D02*
X83634104Y-106002331D01*
X83634104Y-106002331D02*
X83634104Y-92202755D01*
X83634104Y-92202755D02*
X97634051Y-92202755D01*
X97634051Y-92202755D02*
X97634051Y-92202755D01*
X75312800Y-92202755D02*
X75312800Y-106002331D01*
X75312800Y-106002331D02*
X61312849Y-106002331D01*
X61312849Y-106002331D02*
X61312849Y-92202755D01*
X61312849Y-92202755D02*
X75312800Y-92202755D01*
X75312800Y-92202755D02*
X75312800Y-92202755D01*
X164593577Y-92201000D02*
X164593577Y-106000576D01*
X164593577Y-106000576D02*
X150593622Y-106000576D01*
X150593622Y-106000576D02*
X150593622Y-92201000D01*
X150593622Y-92201000D02*
X164593577Y-92201000D01*
X164593577Y-92201000D02*
X164593577Y-92201000D01*
X244974146Y-75200680D02*
X244974146Y-89000607D01*
X244974146Y-89000607D02*
X230971705Y-89000607D01*
X230971705Y-89000607D02*
X230971705Y-75200680D01*
X230971705Y-75200680D02*
X244974146Y-75200680D01*
X244974146Y-75200680D02*
X244974146Y-75200680D01*
X48518339Y-75200680D02*
X48518339Y-89000607D01*
X48518339Y-89000607D02*
X34518387Y-89000607D01*
X34518387Y-89000607D02*
X34518387Y-75200680D01*
X34518387Y-75200680D02*
X48518339Y-75200680D01*
X48518339Y-75200680D02*
X48518339Y-75200680D01*
X262842982Y-75200680D02*
X262842982Y-89000607D01*
X262842982Y-89000607D02*
X248843027Y-89000607D01*
X248843027Y-89000607D02*
X248843027Y-75200680D01*
X248843027Y-75200680D02*
X262842982Y-75200680D01*
X262842982Y-75200680D02*
X262842982Y-75200680D01*
X84240877Y-75200680D02*
X84240877Y-89000607D01*
X84240877Y-89000607D02*
X70240927Y-89000607D01*
X70240927Y-89000607D02*
X70240927Y-75200680D01*
X70240927Y-75200680D02*
X84240877Y-75200680D01*
X84240877Y-75200680D02*
X84240877Y-75200680D01*
X280701624Y-75200680D02*
X280701624Y-89000607D01*
X280701624Y-89000607D02*
X266701685Y-89000607D01*
X266701685Y-89000607D02*
X266701685Y-75200680D01*
X266701685Y-75200680D02*
X280701624Y-75200680D01*
X280701624Y-75200680D02*
X280701624Y-75200680D01*
X227115519Y-75200680D02*
X227115519Y-89000607D01*
X227115519Y-89000607D02*
X213115580Y-89000607D01*
X213115580Y-89000607D02*
X213115580Y-75200680D01*
X213115580Y-75200680D02*
X227115519Y-75200680D01*
X227115519Y-75200680D02*
X227115519Y-75200680D01*
X209256907Y-75200680D02*
X209256907Y-89000607D01*
X209256907Y-89000607D02*
X195256952Y-89000607D01*
X195256952Y-89000607D02*
X195256952Y-75200680D01*
X195256952Y-75200680D02*
X209256907Y-75200680D01*
X209256907Y-75200680D02*
X209256907Y-75200680D01*
X102099505Y-75200680D02*
X102099505Y-89000607D01*
X102099505Y-89000607D02*
X88099550Y-89000607D01*
X88099550Y-89000607D02*
X88099550Y-75200680D01*
X88099550Y-75200680D02*
X102099505Y-75200680D01*
X102099505Y-75200680D02*
X102099505Y-75200680D01*
X66382250Y-75200680D02*
X66382250Y-89000607D01*
X66382250Y-89000607D02*
X52382303Y-89000607D01*
X52382303Y-89000607D02*
X52382303Y-75200680D01*
X52382303Y-75200680D02*
X66382250Y-75200680D01*
X66382250Y-75200680D02*
X66382250Y-75200680D01*
X137819575Y-75200680D02*
X137819575Y-89000607D01*
X137819575Y-89000607D02*
X123819620Y-89000607D01*
X123819620Y-89000607D02*
X123819620Y-75200680D01*
X123819620Y-75200680D02*
X137819575Y-75200680D01*
X137819575Y-75200680D02*
X137819575Y-75200680D01*
X191397913Y-75200680D02*
X191397913Y-89000607D01*
X191397913Y-89000607D02*
X177395487Y-89000607D01*
X177395487Y-89000607D02*
X177395487Y-75200680D01*
X177395487Y-75200680D02*
X191397913Y-75200680D01*
X191397913Y-75200680D02*
X191397913Y-75200680D01*
X119958132Y-75200680D02*
X119958132Y-89000607D01*
X119958132Y-89000607D02*
X105958170Y-89000607D01*
X105958170Y-89000607D02*
X105958170Y-75200680D01*
X105958170Y-75200680D02*
X119958132Y-75200680D01*
X119958132Y-75200680D02*
X119958132Y-75200680D01*
X173534357Y-75200680D02*
X173534357Y-89000607D01*
X173534357Y-89000607D02*
X159534403Y-89000607D01*
X159534403Y-89000607D02*
X159534403Y-75200680D01*
X159534403Y-75200680D02*
X173534357Y-75200680D01*
X173534357Y-75200680D02*
X173534357Y-75200680D01*
X155672907Y-75200680D02*
X155672907Y-89000607D01*
X155672907Y-89000607D02*
X141672953Y-89000607D01*
X141672953Y-89000607D02*
X141672953Y-75200680D01*
X141672953Y-75200680D02*
X155672907Y-75200680D01*
X155672907Y-75200680D02*
X155672907Y-75200680D01*
X294080683Y-58200356D02*
X294080683Y-72000282D01*
X294080683Y-72000282D02*
X280080744Y-72000282D01*
X280080744Y-72000282D02*
X280080744Y-58200356D01*
X280080744Y-58200356D02*
X294080683Y-58200356D01*
X294080683Y-58200356D02*
X294080683Y-58200356D01*
X164611216Y-58200356D02*
X164611216Y-72000282D01*
X164611216Y-72000282D02*
X150611262Y-72000282D01*
X150611262Y-72000282D02*
X150611262Y-58200356D01*
X150611262Y-58200356D02*
X164611216Y-58200356D01*
X164611216Y-58200356D02*
X164611216Y-58200356D01*
X253913523Y-58200356D02*
X253913523Y-72000282D01*
X253913523Y-72000282D02*
X239913569Y-72000282D01*
X239913569Y-72000282D02*
X239913569Y-58200356D01*
X239913569Y-58200356D02*
X253913523Y-58200356D01*
X253913523Y-58200356D02*
X253913523Y-58200356D01*
X271772486Y-58200356D02*
X271772486Y-72000282D01*
X271772486Y-72000282D02*
X257772532Y-72000282D01*
X257772532Y-72000282D02*
X257772532Y-58200356D01*
X257772532Y-58200356D02*
X271772486Y-58200356D01*
X271772486Y-58200356D02*
X271772486Y-58200356D01*
X236048533Y-58200356D02*
X236048533Y-72000282D01*
X236048533Y-72000282D02*
X222048578Y-72000282D01*
X222048578Y-72000282D02*
X222048578Y-58200356D01*
X222048578Y-58200356D02*
X236048533Y-58200356D01*
X236048533Y-58200356D02*
X236048533Y-58200356D01*
X75312800Y-58200356D02*
X75312800Y-72000282D01*
X75312800Y-72000282D02*
X61312849Y-72000282D01*
X61312849Y-72000282D02*
X61312849Y-58200356D01*
X61312849Y-58200356D02*
X75312800Y-58200356D01*
X75312800Y-58200356D02*
X75312800Y-58200356D01*
X218187449Y-58200356D02*
X218187449Y-72000282D01*
X218187449Y-72000282D02*
X204187479Y-72000282D01*
X204187479Y-72000282D02*
X204187479Y-58200356D01*
X204187479Y-58200356D02*
X218187449Y-58200356D01*
X218187449Y-58200356D02*
X218187449Y-58200356D01*
X200328806Y-58200356D02*
X200328806Y-72000282D01*
X200328806Y-72000282D02*
X186328882Y-72000282D01*
X186328882Y-72000282D02*
X186328882Y-58200356D01*
X186328882Y-58200356D02*
X200328806Y-58200356D01*
X200328806Y-58200356D02*
X200328806Y-58200356D01*
X128891504Y-58200356D02*
X128891504Y-72000282D01*
X128891504Y-72000282D02*
X114891550Y-72000282D01*
X114891550Y-72000282D02*
X114891550Y-58200356D01*
X114891550Y-58200356D02*
X128891504Y-58200356D01*
X128891504Y-58200356D02*
X128891504Y-58200356D01*
X111030054Y-58200356D02*
X111030054Y-72000282D01*
X111030054Y-72000282D02*
X97030100Y-72000282D01*
X97030100Y-72000282D02*
X97030100Y-58200356D01*
X97030100Y-58200356D02*
X111030054Y-58200356D01*
X111030054Y-58200356D02*
X111030054Y-58200356D01*
X93171419Y-58200356D02*
X93171419Y-72000282D01*
X93171419Y-72000282D02*
X79171480Y-72000282D01*
X79171480Y-72000282D02*
X79171480Y-58200356D01*
X79171480Y-58200356D02*
X93171419Y-58200356D01*
X93171419Y-58200356D02*
X93171419Y-58200356D01*
X57454176Y-58200356D02*
X57454176Y-72000282D01*
X57454176Y-72000282D02*
X43454226Y-72000282D01*
X43454226Y-72000282D02*
X43454226Y-58200356D01*
X43454226Y-58200356D02*
X57454176Y-58200356D01*
X57454176Y-58200356D02*
X57454176Y-58200356D01*
X182469843Y-58200356D02*
X182469843Y-72000282D01*
X182469843Y-72000282D02*
X168467417Y-72000282D01*
X168467417Y-72000282D02*
X168467417Y-58200356D01*
X168467417Y-58200356D02*
X182469843Y-58200356D01*
X182469843Y-58200356D02*
X182469843Y-58200356D01*
X146750132Y-58200356D02*
X146750132Y-72000282D01*
X146750132Y-72000282D02*
X132750170Y-72000282D01*
X132750170Y-72000282D02*
X132750170Y-58200356D01*
X132750170Y-58200356D02*
X146750132Y-58200356D01*
X146750132Y-58200356D02*
X146750132Y-58200356D01*
X35132574Y-58200356D02*
X35132574Y-72000282D01*
X35132574Y-72000282D02*
X21132622Y-72000282D01*
X21132622Y-72000282D02*
X21132622Y-58200356D01*
X21132622Y-58200356D02*
X35132574Y-58200356D01*
X35132574Y-58200356D02*
X35132574Y-58200356D01*
X164611216Y-41200392D02*
X164611216Y-54999966D01*
X164611216Y-54999966D02*
X150611262Y-54999966D01*
X150611262Y-54999966D02*
X150611262Y-41200392D01*
X150611262Y-41200392D02*
X164611216Y-41200392D01*
X164611216Y-41200392D02*
X164611216Y-41200392D01*
X271721674Y-42921240D02*
X271722177Y-42929133D01*
X271722177Y-42929133D02*
X271723650Y-42937003D01*
X271723650Y-42937003D02*
X271726040Y-42944845D01*
X271726040Y-42944845D02*
X271729294Y-42952657D01*
X271729294Y-42952657D02*
X271733359Y-42960435D01*
X271733359Y-42960435D02*
X271738182Y-42968175D01*
X271738182Y-42968175D02*
X271743710Y-42975875D01*
X271743710Y-42975875D02*
X271749891Y-42983532D01*
X271749891Y-42983532D02*
X271756670Y-42991141D01*
X271756670Y-42991141D02*
X271763995Y-42998701D01*
X271763995Y-42998701D02*
X271780070Y-43013655D01*
X271780070Y-43013655D02*
X271797693Y-43028368D01*
X271797693Y-43028368D02*
X271816439Y-43042814D01*
X271816439Y-43042814D02*
X271835884Y-43056967D01*
X271835884Y-43056967D02*
X271855603Y-43070800D01*
X271855603Y-43070800D02*
X271894168Y-43097401D01*
X271894168Y-43097401D02*
X271912166Y-43110116D01*
X271912166Y-43110116D02*
X271928741Y-43122405D01*
X271928741Y-43122405D02*
X271943469Y-43134243D01*
X271943469Y-43134243D02*
X271955927Y-43145603D01*
X271955927Y-43145603D02*
X271967352Y-43156475D01*
X271967352Y-43156475D02*
X271979246Y-43166723D01*
X271979246Y-43166723D02*
X271991584Y-43176338D01*
X271991584Y-43176338D02*
X272004340Y-43185309D01*
X272004340Y-43185309D02*
X272017489Y-43193624D01*
X272017489Y-43193624D02*
X272031004Y-43201273D01*
X272031004Y-43201273D02*
X272044860Y-43208245D01*
X272044860Y-43208245D02*
X272059031Y-43214529D01*
X272059031Y-43214529D02*
X272073490Y-43220115D01*
X272073490Y-43220115D02*
X272088213Y-43224991D01*
X272088213Y-43224991D02*
X272103173Y-43229147D01*
X272103173Y-43229147D02*
X272118345Y-43232571D01*
X272118345Y-43232571D02*
X272133702Y-43235253D01*
X272133702Y-43235253D02*
X272149218Y-43237183D01*
X272149218Y-43237183D02*
X272164869Y-43238348D01*
X272164869Y-43238348D02*
X272180628Y-43238739D01*
X272180628Y-43238739D02*
X279663050Y-43238739D01*
X279663050Y-43238739D02*
X279678755Y-43238348D01*
X279678755Y-43238348D02*
X279694357Y-43237183D01*
X279694357Y-43237183D02*
X279709832Y-43235253D01*
X279709832Y-43235253D02*
X279725152Y-43232571D01*
X279725152Y-43232571D02*
X279740292Y-43229147D01*
X279740292Y-43229147D02*
X279755225Y-43224991D01*
X279755225Y-43224991D02*
X279769924Y-43220115D01*
X279769924Y-43220115D02*
X279784365Y-43214529D01*
X279784365Y-43214529D02*
X279798520Y-43208245D01*
X279798520Y-43208245D02*
X279812364Y-43201273D01*
X279812364Y-43201273D02*
X279825870Y-43193624D01*
X279825870Y-43193624D02*
X279839011Y-43185309D01*
X279839011Y-43185309D02*
X279851763Y-43176338D01*
X279851763Y-43176338D02*
X279864098Y-43166723D01*
X279864098Y-43166723D02*
X279875991Y-43156475D01*
X279875991Y-43156475D02*
X279887415Y-43145603D01*
X279887415Y-43145603D02*
X279899867Y-43134243D01*
X279899867Y-43134243D02*
X279914591Y-43122405D01*
X279914591Y-43122405D02*
X279931162Y-43110116D01*
X279931162Y-43110116D02*
X279949156Y-43097401D01*
X279949156Y-43097401D02*
X279987716Y-43070800D01*
X279987716Y-43070800D02*
X280026877Y-43042814D01*
X280026877Y-43042814D02*
X280045621Y-43028368D01*
X280045621Y-43028368D02*
X280063243Y-43013655D01*
X280063243Y-43013655D02*
X280079318Y-42998701D01*
X280079318Y-42998701D02*
X280093422Y-42983532D01*
X280093422Y-42983532D02*
X280099602Y-42975875D01*
X280099602Y-42975875D02*
X280105130Y-42968175D01*
X280105130Y-42968175D02*
X280109953Y-42960435D01*
X280109953Y-42960435D02*
X280114018Y-42952657D01*
X280114018Y-42952657D02*
X280117272Y-42944845D01*
X280117272Y-42944845D02*
X280119662Y-42937003D01*
X280119662Y-42937003D02*
X280121135Y-42929133D01*
X280121135Y-42929133D02*
X280121638Y-42921240D01*
X280121638Y-42921240D02*
X280121638Y-41200392D01*
X280121638Y-41200392D02*
X294033777Y-41200392D01*
X294033777Y-41200392D02*
X294033777Y-54999966D01*
X294033777Y-54999966D02*
X280121638Y-54999966D01*
X280121638Y-54999966D02*
X280121638Y-48370583D01*
X280121638Y-48370583D02*
X280121131Y-48362358D01*
X280121131Y-48362358D02*
X280119646Y-48354155D01*
X280119646Y-48354155D02*
X280117235Y-48345977D01*
X280117235Y-48345977D02*
X280113953Y-48337829D01*
X280113953Y-48337829D02*
X280109851Y-48329714D01*
X280109851Y-48329714D02*
X280104984Y-48321635D01*
X280104984Y-48321635D02*
X280099404Y-48313596D01*
X280099404Y-48313596D02*
X280093164Y-48305601D01*
X280093164Y-48305601D02*
X280086317Y-48297652D01*
X280086317Y-48297652D02*
X280078917Y-48289755D01*
X280078917Y-48289755D02*
X280062669Y-48274125D01*
X280062669Y-48274125D02*
X280044843Y-48258740D01*
X280044843Y-48258740D02*
X280025866Y-48243629D01*
X280025866Y-48243629D02*
X280006161Y-48228819D01*
X280006161Y-48228819D02*
X279986153Y-48214339D01*
X279986153Y-48214339D02*
X279946929Y-48186484D01*
X279946929Y-48186484D02*
X279928562Y-48173166D01*
X279928562Y-48173166D02*
X279911592Y-48160291D01*
X279911592Y-48160291D02*
X279896443Y-48147888D01*
X279896443Y-48147888D02*
X279883539Y-48135986D01*
X279883539Y-48135986D02*
X279871575Y-48124665D01*
X279871575Y-48124665D02*
X279859126Y-48113991D01*
X279859126Y-48113991D02*
X279846219Y-48103977D01*
X279846219Y-48103977D02*
X279832881Y-48094633D01*
X279832881Y-48094633D02*
X279819139Y-48085972D01*
X279819139Y-48085972D02*
X279805018Y-48078005D01*
X279805018Y-48078005D02*
X279790547Y-48070742D01*
X279790547Y-48070742D02*
X279775751Y-48064196D01*
X279775751Y-48064196D02*
X279760658Y-48058378D01*
X279760658Y-48058378D02*
X279745294Y-48053298D01*
X279745294Y-48053298D02*
X279729686Y-48048969D01*
X279729686Y-48048969D02*
X279713861Y-48045401D01*
X279713861Y-48045401D02*
X279697845Y-48042607D01*
X279697845Y-48042607D02*
X279681665Y-48040597D01*
X279681665Y-48040597D02*
X279665348Y-48039382D01*
X279665348Y-48039382D02*
X279648920Y-48038975D01*
X279648920Y-48038975D02*
X272194758Y-48038975D01*
X272194758Y-48038975D02*
X272178271Y-48039382D01*
X272178271Y-48039382D02*
X272161902Y-48040597D01*
X272161902Y-48040597D02*
X272145677Y-48042607D01*
X272145677Y-48042607D02*
X272129625Y-48045401D01*
X272129625Y-48045401D02*
X272113770Y-48048969D01*
X272113770Y-48048969D02*
X272098141Y-48053298D01*
X272098141Y-48053298D02*
X272082765Y-48058378D01*
X272082765Y-48058378D02*
X272067667Y-48064196D01*
X272067667Y-48064196D02*
X272052876Y-48070742D01*
X272052876Y-48070742D02*
X272038418Y-48078005D01*
X272038418Y-48078005D02*
X272024319Y-48085972D01*
X272024319Y-48085972D02*
X272010608Y-48094633D01*
X272010608Y-48094633D02*
X271997310Y-48103977D01*
X271997310Y-48103977D02*
X271984453Y-48113991D01*
X271984453Y-48113991D02*
X271972064Y-48124665D01*
X271972064Y-48124665D02*
X271960169Y-48135986D01*
X271960169Y-48135986D02*
X271947201Y-48147888D01*
X271947201Y-48147888D02*
X271931994Y-48160291D01*
X271931994Y-48160291D02*
X271896563Y-48186484D01*
X271896563Y-48186484D02*
X271857269Y-48214339D01*
X271857269Y-48214339D02*
X271817507Y-48243629D01*
X271817507Y-48243629D02*
X271798512Y-48258740D01*
X271798512Y-48258740D02*
X271780672Y-48274125D01*
X271780672Y-48274125D02*
X271764413Y-48289755D01*
X271764413Y-48289755D02*
X271750159Y-48305601D01*
X271750159Y-48305601D02*
X271743916Y-48313596D01*
X271743916Y-48313596D02*
X271738333Y-48321635D01*
X271738333Y-48321635D02*
X271733464Y-48329714D01*
X271733464Y-48329714D02*
X271729361Y-48337829D01*
X271729361Y-48337829D02*
X271726078Y-48345977D01*
X271726078Y-48345977D02*
X271723667Y-48354155D01*
X271723667Y-48354155D02*
X271722181Y-48362358D01*
X271722181Y-48362358D02*
X271721674Y-48370583D01*
X271721674Y-48370583D02*
X271721674Y-54999966D01*
X271721674Y-54999966D02*
X257733729Y-54999966D01*
X257733729Y-54999966D02*
X257733729Y-41200392D01*
X257733729Y-41200392D02*
X271721674Y-41200392D01*
X271721674Y-41200392D02*
X271721674Y-42921240D01*
X271721674Y-42921240D02*
X271721674Y-42921240D01*
X253913523Y-41200392D02*
X253913523Y-54999966D01*
X253913523Y-54999966D02*
X239913569Y-54999966D01*
X239913569Y-54999966D02*
X239913569Y-41200392D01*
X239913569Y-41200392D02*
X253913523Y-41200392D01*
X253913523Y-41200392D02*
X253913523Y-41200392D01*
X236048533Y-41200392D02*
X236048533Y-54999966D01*
X236048533Y-54999966D02*
X222048578Y-54999966D01*
X222048578Y-54999966D02*
X222048578Y-41200392D01*
X222048578Y-41200392D02*
X236048533Y-41200392D01*
X236048533Y-41200392D02*
X236048533Y-41200392D01*
X93171419Y-41200392D02*
X93171419Y-54999966D01*
X93171419Y-54999966D02*
X79171480Y-54999966D01*
X79171480Y-54999966D02*
X79171480Y-41200392D01*
X79171480Y-41200392D02*
X93171419Y-41200392D01*
X93171419Y-41200392D02*
X93171419Y-41200392D01*
X75312800Y-41200392D02*
X75312800Y-54999966D01*
X75312800Y-54999966D02*
X61312849Y-54999966D01*
X61312849Y-54999966D02*
X61312849Y-41200392D01*
X61312849Y-41200392D02*
X75312800Y-41200392D01*
X75312800Y-41200392D02*
X75312800Y-41200392D01*
X111030054Y-41200392D02*
X111030054Y-54999966D01*
X111030054Y-54999966D02*
X97030100Y-54999966D01*
X97030100Y-54999966D02*
X97030100Y-41200392D01*
X97030100Y-41200392D02*
X111030054Y-41200392D01*
X111030054Y-41200392D02*
X111030054Y-41200392D01*
X128891504Y-41200392D02*
X128891504Y-54999966D01*
X128891504Y-54999966D02*
X114891550Y-54999966D01*
X114891550Y-54999966D02*
X114891550Y-41200392D01*
X114891550Y-41200392D02*
X128891504Y-41200392D01*
X128891504Y-41200392D02*
X128891504Y-41200392D01*
X218187449Y-41200392D02*
X218187449Y-54999966D01*
X218187449Y-54999966D02*
X204187479Y-54999966D01*
X204187479Y-54999966D02*
X204187479Y-41200392D01*
X204187479Y-41200392D02*
X218187449Y-41200392D01*
X218187449Y-41200392D02*
X218187449Y-41200392D01*
X200328806Y-41200392D02*
X200328806Y-54999966D01*
X200328806Y-54999966D02*
X186328882Y-54999966D01*
X186328882Y-54999966D02*
X186328882Y-41200392D01*
X186328882Y-41200392D02*
X200328806Y-41200392D01*
X200328806Y-41200392D02*
X200328806Y-41200392D01*
X182469843Y-41200392D02*
X182469843Y-54999966D01*
X182469843Y-54999966D02*
X168467417Y-54999966D01*
X168467417Y-54999966D02*
X168467417Y-41200392D01*
X168467417Y-41200392D02*
X182469843Y-41200392D01*
X182469843Y-41200392D02*
X182469843Y-41200392D01*
X146750132Y-41200392D02*
X146750132Y-54999966D01*
X146750132Y-54999966D02*
X132750170Y-54999966D01*
X132750170Y-54999966D02*
X132750170Y-41200392D01*
X132750170Y-41200392D02*
X146750132Y-41200392D01*
X146750132Y-41200392D02*
X146750132Y-41200392D01*
X40310986Y-48038975D02*
X40187552Y-48035849D01*
X40187552Y-48035849D02*
X40065729Y-48026572D01*
X40065729Y-48026572D02*
X39945668Y-48011295D01*
X39945668Y-48011295D02*
X39827520Y-47990170D01*
X39827520Y-47990170D02*
X39711437Y-47963347D01*
X39711437Y-47963347D02*
X39597570Y-47930979D01*
X39597570Y-47930979D02*
X39486071Y-47893217D01*
X39486071Y-47893217D02*
X39377090Y-47850211D01*
X39377090Y-47850211D02*
X39270780Y-47802114D01*
X39270780Y-47802114D02*
X39167291Y-47749077D01*
X39167291Y-47749077D02*
X39066774Y-47691250D01*
X39066774Y-47691250D02*
X38969382Y-47628786D01*
X38969382Y-47628786D02*
X38875266Y-47561836D01*
X38875266Y-47561836D02*
X38784576Y-47490551D01*
X38784576Y-47490551D02*
X38697465Y-47415082D01*
X38697465Y-47415082D02*
X38614083Y-47335581D01*
X38614083Y-47335581D02*
X38534582Y-47252199D01*
X38534582Y-47252199D02*
X38459113Y-47165088D01*
X38459113Y-47165088D02*
X38387828Y-47074398D01*
X38387828Y-47074398D02*
X38320878Y-46980281D01*
X38320878Y-46980281D02*
X38258414Y-46882889D01*
X38258414Y-46882889D02*
X38200588Y-46782373D01*
X38200588Y-46782373D02*
X38147550Y-46678884D01*
X38147550Y-46678884D02*
X38099453Y-46572574D01*
X38099453Y-46572574D02*
X38056448Y-46463593D01*
X38056448Y-46463593D02*
X38018686Y-46352094D01*
X38018686Y-46352094D02*
X37986318Y-46238227D01*
X37986318Y-46238227D02*
X37959496Y-46122144D01*
X37959496Y-46122144D02*
X37938370Y-46003997D01*
X37938370Y-46003997D02*
X37923094Y-45883936D01*
X37923094Y-45883936D02*
X37913817Y-45762113D01*
X37913817Y-45762113D02*
X37910691Y-45638680D01*
X37910691Y-45638680D02*
X37913817Y-45515278D01*
X37913817Y-45515278D02*
X37923094Y-45393485D01*
X37923094Y-45393485D02*
X37938370Y-45273453D01*
X37938370Y-45273453D02*
X37959496Y-45155331D01*
X37959496Y-45155331D02*
X37986318Y-45039273D01*
X37986318Y-45039273D02*
X38018686Y-44925429D01*
X38018686Y-44925429D02*
X38056448Y-44813951D01*
X38056448Y-44813951D02*
X38099453Y-44704990D01*
X38099453Y-44704990D02*
X38147550Y-44598697D01*
X38147550Y-44598697D02*
X38200588Y-44495225D01*
X38200588Y-44495225D02*
X38258414Y-44394724D01*
X38258414Y-44394724D02*
X38320878Y-44297345D01*
X38320878Y-44297345D02*
X38387828Y-44203241D01*
X38387828Y-44203241D02*
X38459113Y-44112563D01*
X38459113Y-44112563D02*
X38534582Y-44025461D01*
X38534582Y-44025461D02*
X38614083Y-43942088D01*
X38614083Y-43942088D02*
X38697465Y-43862595D01*
X38697465Y-43862595D02*
X38784576Y-43787133D01*
X38784576Y-43787133D02*
X38875266Y-43715854D01*
X38875266Y-43715854D02*
X38969382Y-43648908D01*
X38969382Y-43648908D02*
X39066774Y-43586449D01*
X39066774Y-43586449D02*
X39167291Y-43528626D01*
X39167291Y-43528626D02*
X39270780Y-43475592D01*
X39270780Y-43475592D02*
X39377090Y-43427497D01*
X39377090Y-43427497D02*
X39486071Y-43384493D01*
X39486071Y-43384493D02*
X39597570Y-43346732D01*
X39597570Y-43346732D02*
X39711437Y-43314365D01*
X39711437Y-43314365D02*
X39827520Y-43287544D01*
X39827520Y-43287544D02*
X39945668Y-43266419D01*
X39945668Y-43266419D02*
X40065729Y-43251142D01*
X40065729Y-43251142D02*
X40187552Y-43241865D01*
X40187552Y-43241865D02*
X40310986Y-43238739D01*
X40310986Y-43238739D02*
X43422476Y-43238739D01*
X43422476Y-43238739D02*
X43422476Y-41200392D01*
X43422476Y-41200392D02*
X57434420Y-41200392D01*
X57434420Y-41200392D02*
X57434420Y-54999966D01*
X57434420Y-54999966D02*
X43422476Y-54999966D01*
X43422476Y-54999966D02*
X43422476Y-48038975D01*
X43422476Y-48038975D02*
X40310986Y-48038975D01*
X40310986Y-48038975D02*
X40310986Y-48038975D01*
X35132574Y-41200392D02*
X35132574Y-54999966D01*
X35132574Y-54999966D02*
X21132622Y-54999966D01*
X21132622Y-54999966D02*
X21132622Y-41200392D01*
X21132622Y-41200392D02*
X35132574Y-41200392D01*
X35132574Y-41200392D02*
X35132574Y-41200392D01*
X298555292Y-24200075D02*
X298555292Y-38000000D01*
X298555292Y-38000000D02*
X284555323Y-38000000D01*
X284555323Y-38000000D02*
X284555323Y-24200075D01*
X284555323Y-24200075D02*
X298555292Y-24200075D01*
X298555292Y-24200075D02*
X298555292Y-24200075D01*
X137822046Y-24200075D02*
X137822046Y-38000000D01*
X137822046Y-38000000D02*
X123822085Y-38000000D01*
X123822085Y-38000000D02*
X123822085Y-24200075D01*
X123822085Y-24200075D02*
X137822046Y-24200075D01*
X137822046Y-24200075D02*
X137822046Y-24200075D01*
X262838053Y-24200075D02*
X262838053Y-38000000D01*
X262838053Y-38000000D02*
X248838114Y-38000000D01*
X248838114Y-38000000D02*
X248838114Y-24200075D01*
X248838114Y-24200075D02*
X262838053Y-24200075D01*
X262838053Y-24200075D02*
X262838053Y-24200075D01*
X155683146Y-24200075D02*
X155683146Y-38000000D01*
X155683146Y-38000000D02*
X141683192Y-38000000D01*
X141683192Y-38000000D02*
X141683192Y-24200075D01*
X141683192Y-24200075D02*
X155683146Y-24200075D01*
X155683146Y-24200075D02*
X155683146Y-24200075D01*
X84243349Y-24200075D02*
X84243349Y-38000000D01*
X84243349Y-38000000D02*
X70243399Y-38000000D01*
X70243399Y-38000000D02*
X70243399Y-24200075D01*
X70243399Y-24200075D02*
X84243349Y-24200075D01*
X84243349Y-24200075D02*
X84243349Y-24200075D01*
X191400736Y-24200075D02*
X191400736Y-38000000D01*
X191400736Y-38000000D02*
X177400782Y-38000000D01*
X177400782Y-38000000D02*
X177400782Y-24200075D01*
X177400782Y-24200075D02*
X191400736Y-24200075D01*
X191400736Y-24200075D02*
X191400736Y-24200075D01*
X102101961Y-24200075D02*
X102101961Y-38000000D01*
X102101961Y-38000000D02*
X88102022Y-38000000D01*
X88102022Y-38000000D02*
X88102022Y-24200075D01*
X88102022Y-24200075D02*
X102101961Y-24200075D01*
X102101961Y-24200075D02*
X102101961Y-24200075D01*
X48526098Y-24200075D02*
X48526098Y-38000000D01*
X48526098Y-38000000D02*
X34526148Y-38000000D01*
X34526148Y-38000000D02*
X34526148Y-24200075D01*
X34526148Y-24200075D02*
X48526098Y-24200075D01*
X48526098Y-24200075D02*
X48526098Y-24200075D01*
X66384722Y-24200075D02*
X66384722Y-38000000D01*
X66384722Y-38000000D02*
X52384775Y-38000000D01*
X52384775Y-38000000D02*
X52384775Y-24200075D01*
X52384775Y-24200075D02*
X66384722Y-24200075D01*
X66384722Y-24200075D02*
X66384722Y-24200075D01*
X227117975Y-24200075D02*
X227117975Y-38000000D01*
X227117975Y-38000000D02*
X213118036Y-38000000D01*
X213118036Y-38000000D02*
X213118036Y-24200075D01*
X213118036Y-24200075D02*
X227117975Y-24200075D01*
X227117975Y-24200075D02*
X227117975Y-24200075D01*
X244979075Y-24200075D02*
X244979075Y-38000000D01*
X244979075Y-38000000D02*
X230976664Y-38000000D01*
X230976664Y-38000000D02*
X230976664Y-24200075D01*
X230976664Y-24200075D02*
X244979075Y-24200075D01*
X244979075Y-24200075D02*
X244979075Y-24200075D01*
X280696680Y-24200075D02*
X280696680Y-38000000D01*
X280696680Y-38000000D02*
X266696711Y-38000000D01*
X266696711Y-38000000D02*
X266696711Y-24200075D01*
X266696711Y-24200075D02*
X280696680Y-24200075D01*
X280696680Y-24200075D02*
X280696680Y-24200075D01*
X173544581Y-24200075D02*
X173544581Y-38000000D01*
X173544581Y-38000000D02*
X159541819Y-38000000D01*
X159541819Y-38000000D02*
X159541819Y-24200075D01*
X159541819Y-24200075D02*
X173544581Y-24200075D01*
X173544581Y-24200075D02*
X173544581Y-24200075D01*
X209233973Y-24200075D02*
X209233973Y-38000000D01*
X209233973Y-38000000D02*
X195234019Y-38000000D01*
X195234019Y-38000000D02*
X195234019Y-24200075D01*
X195234019Y-24200075D02*
X202699488Y-24200075D01*
X202699488Y-24200075D02*
X202699488Y-21590232D01*
X202699488Y-21590232D02*
X202701718Y-21502770D01*
X202701718Y-21502770D02*
X202708368Y-21415900D01*
X202708368Y-21415900D02*
X202719376Y-21329767D01*
X202719376Y-21329767D02*
X202734681Y-21244516D01*
X202734681Y-21244516D02*
X202754221Y-21160292D01*
X202754221Y-21160292D02*
X202777934Y-21077241D01*
X202777934Y-21077241D02*
X202805760Y-20995507D01*
X202805760Y-20995507D02*
X202837637Y-20915237D01*
X202837637Y-20915237D02*
X202873503Y-20836575D01*
X202873503Y-20836575D02*
X202913297Y-20759666D01*
X202913297Y-20759666D02*
X202956958Y-20684655D01*
X202956958Y-20684655D02*
X203004423Y-20611689D01*
X203004423Y-20611689D02*
X203055632Y-20540912D01*
X203055632Y-20540912D02*
X203110522Y-20472468D01*
X203110522Y-20472468D02*
X203169034Y-20406505D01*
X203169034Y-20406505D02*
X203231104Y-20343166D01*
X203231104Y-20343166D02*
X203296334Y-20282830D01*
X203296334Y-20282830D02*
X203364258Y-20225952D01*
X203364258Y-20225952D02*
X203434728Y-20172593D01*
X203434728Y-20172593D02*
X203507594Y-20122812D01*
X203507594Y-20122812D02*
X203582706Y-20076669D01*
X203582706Y-20076669D02*
X203659916Y-20034224D01*
X203659916Y-20034224D02*
X203739074Y-19995536D01*
X203739074Y-19995536D02*
X203820030Y-19960667D01*
X203820030Y-19960667D02*
X203902636Y-19929675D01*
X203902636Y-19929675D02*
X203986742Y-19902622D01*
X203986742Y-19902622D02*
X204072197Y-19879565D01*
X204072197Y-19879565D02*
X204158854Y-19860567D01*
X204158854Y-19860567D02*
X204246563Y-19845686D01*
X204246563Y-19845686D02*
X204335174Y-19834982D01*
X204335174Y-19834982D02*
X204424538Y-19828516D01*
X204424538Y-19828516D02*
X204514506Y-19826348D01*
X204514506Y-19826348D02*
X206103068Y-19826348D01*
X206103068Y-19826348D02*
X206193102Y-19828516D01*
X206193102Y-19828516D02*
X206282524Y-19834982D01*
X206282524Y-19834982D02*
X206371184Y-19845686D01*
X206371184Y-19845686D02*
X206458935Y-19860567D01*
X206458935Y-19860567D02*
X206545627Y-19879565D01*
X206545627Y-19879565D02*
X206631111Y-19902622D01*
X206631111Y-19902622D02*
X206715240Y-19929675D01*
X206715240Y-19929675D02*
X206797863Y-19960667D01*
X206797863Y-19960667D02*
X206878833Y-19995536D01*
X206878833Y-19995536D02*
X206958001Y-20034224D01*
X206958001Y-20034224D02*
X207035218Y-20076669D01*
X207035218Y-20076669D02*
X207110336Y-20122812D01*
X207110336Y-20122812D02*
X207183205Y-20172593D01*
X207183205Y-20172593D02*
X207253677Y-20225952D01*
X207253677Y-20225952D02*
X207321603Y-20282830D01*
X207321603Y-20282830D02*
X207386835Y-20343166D01*
X207386835Y-20343166D02*
X207448846Y-20406505D01*
X207448846Y-20406505D02*
X207507313Y-20472468D01*
X207507313Y-20472468D02*
X207562173Y-20540912D01*
X207562173Y-20540912D02*
X207613364Y-20611689D01*
X207613364Y-20611689D02*
X207660823Y-20684655D01*
X207660823Y-20684655D02*
X207704486Y-20759666D01*
X207704486Y-20759666D02*
X207744290Y-20836575D01*
X207744290Y-20836575D02*
X207780173Y-20915237D01*
X207780173Y-20915237D02*
X207812070Y-20995507D01*
X207812070Y-20995507D02*
X207839919Y-21077241D01*
X207839919Y-21077241D02*
X207863657Y-21160292D01*
X207863657Y-21160292D02*
X207883220Y-21244516D01*
X207883220Y-21244516D02*
X207898546Y-21329767D01*
X207898546Y-21329767D02*
X207909571Y-21415900D01*
X207909571Y-21415900D02*
X207916232Y-21502770D01*
X207916232Y-21502770D02*
X207918467Y-21590232D01*
X207918467Y-21590232D02*
X207918467Y-24200075D01*
X207918467Y-24200075D02*
X209233973Y-24200075D01*
X209233973Y-24200075D02*
X209233973Y-24200075D01*
X119934138Y-24200075D02*
X119934138Y-38000000D01*
X119934138Y-38000000D02*
X105934183Y-38000000D01*
X105934183Y-38000000D02*
X105934183Y-24200075D01*
X105934183Y-24200075D02*
X107297320Y-24200075D01*
X107297320Y-24200075D02*
X107297320Y-21590232D01*
X107297320Y-21590232D02*
X107299681Y-21499476D01*
X107299681Y-21499476D02*
X107306688Y-21409910D01*
X107306688Y-21409910D02*
X107318229Y-21321644D01*
X107318229Y-21321644D02*
X107334187Y-21234790D01*
X107334187Y-21234790D02*
X107354451Y-21149459D01*
X107354451Y-21149459D02*
X107378905Y-21065762D01*
X107378905Y-21065762D02*
X107407435Y-20983809D01*
X107407435Y-20983809D02*
X107439929Y-20903711D01*
X107439929Y-20903711D02*
X107476271Y-20825580D01*
X107476271Y-20825580D02*
X107516348Y-20749526D01*
X107516348Y-20749526D02*
X107560047Y-20675660D01*
X107560047Y-20675660D02*
X107607252Y-20604093D01*
X107607252Y-20604093D02*
X107657850Y-20534936D01*
X107657850Y-20534936D02*
X107711728Y-20468299D01*
X107711728Y-20468299D02*
X107768770Y-20404295D01*
X107768770Y-20404295D02*
X107828864Y-20343033D01*
X107828864Y-20343033D02*
X107891896Y-20284625D01*
X107891896Y-20284625D02*
X107957750Y-20229181D01*
X107957750Y-20229181D02*
X108026314Y-20176813D01*
X108026314Y-20176813D02*
X108097474Y-20127630D01*
X108097474Y-20127630D02*
X108171115Y-20081746D01*
X108171115Y-20081746D02*
X108247123Y-20039269D01*
X108247123Y-20039269D02*
X108325386Y-20000311D01*
X108325386Y-20000311D02*
X108405788Y-19964983D01*
X108405788Y-19964983D02*
X108488215Y-19933396D01*
X108488215Y-19933396D02*
X108572555Y-19905661D01*
X108572555Y-19905661D02*
X108658692Y-19881888D01*
X108658692Y-19881888D02*
X108746514Y-19862189D01*
X108746514Y-19862189D02*
X108835905Y-19846675D01*
X108835905Y-19846675D02*
X108926753Y-19835456D01*
X108926753Y-19835456D02*
X109018942Y-19828643D01*
X109018942Y-19828643D02*
X109112360Y-19826348D01*
X109112360Y-19826348D02*
X110664568Y-19826348D01*
X110664568Y-19826348D02*
X110757954Y-19828643D01*
X110757954Y-19828643D02*
X110850117Y-19835456D01*
X110850117Y-19835456D02*
X110940940Y-19846675D01*
X110940940Y-19846675D02*
X111030312Y-19862189D01*
X111030312Y-19862189D02*
X111118117Y-19881888D01*
X111118117Y-19881888D02*
X111204241Y-19905661D01*
X111204241Y-19905661D02*
X111288570Y-19933396D01*
X111288570Y-19933396D02*
X111370991Y-19964983D01*
X111370991Y-19964983D02*
X111451388Y-20000311D01*
X111451388Y-20000311D02*
X111529648Y-20039269D01*
X111529648Y-20039269D02*
X111605657Y-20081746D01*
X111605657Y-20081746D02*
X111679300Y-20127630D01*
X111679300Y-20127630D02*
X111750463Y-20176813D01*
X111750463Y-20176813D02*
X111819032Y-20229181D01*
X111819032Y-20229181D02*
X111884894Y-20284625D01*
X111884894Y-20284625D02*
X111947933Y-20343033D01*
X111947933Y-20343033D02*
X112008037Y-20404295D01*
X112008037Y-20404295D02*
X112065089Y-20468299D01*
X112065089Y-20468299D02*
X112118978Y-20534936D01*
X112118978Y-20534936D02*
X112169587Y-20604093D01*
X112169587Y-20604093D02*
X112216804Y-20675660D01*
X112216804Y-20675660D02*
X112260514Y-20749526D01*
X112260514Y-20749526D02*
X112300602Y-20825580D01*
X112300602Y-20825580D02*
X112336956Y-20903711D01*
X112336956Y-20903711D02*
X112369459Y-20983809D01*
X112369459Y-20983809D02*
X112398000Y-21065762D01*
X112398000Y-21065762D02*
X112422463Y-21149459D01*
X112422463Y-21149459D02*
X112442734Y-21234790D01*
X112442734Y-21234790D02*
X112458699Y-21321644D01*
X112458699Y-21321644D02*
X112470243Y-21409910D01*
X112470243Y-21409910D02*
X112477254Y-21499476D01*
X112477254Y-21499476D02*
X112479616Y-21590232D01*
X112479616Y-21590232D02*
X112479616Y-24200075D01*
X112479616Y-24200075D02*
X119934138Y-24200075D01*
X119934138Y-24200075D02*
X119934138Y-24200075D01*
X30664654Y-24200075D02*
X30664654Y-38000000D01*
X30664654Y-38000000D02*
X16664702Y-38000000D01*
X16664702Y-38000000D02*
X16664702Y-24200075D01*
X16664702Y-24200075D02*
X30664654Y-24200075D01*
X30664654Y-24200075D02*
X30664654Y-24200075D01*
M02*
