<?xml version="1.0" standalone="no"?>
 <!DOCTYPE svg PUBLIC "-//W3C//DTD SVG 1.1//EN" 
 "http://www.w3.org/Graphics/SVG/1.1/DTD/svg11.dtd"> 
<svg
  xmlns:svg="http://www.w3.org/2000/svg"
  xmlns="http://www.w3.org/2000/svg"
  xmlns:xlink="http://www.w3.org/1999/xlink"
  version="1.1"
  width="41.998900cm" height="29.700220cm" viewBox="0 0 165350 116930">
<title>SVG Picture created as nora-Cmts_User.svg date 2021/11/18 20:35:47 </title>
  <desc>Picture generated by PCBNEW </desc>
<g style="fill:#000000; fill-opacity:1;stroke:#000000; stroke-opacity:1;
stroke-linecap:round; stroke-linejoin:round;"
 transform="translate(0 0) scale(1 1)">
</g>
<g style="fill:#000000; fill-opacity:0.0; 
stroke:#000000; stroke-width:-0.000393701; stroke-opacity:1; 
stroke-linecap:round; stroke-linejoin:round;">
</g>
<g style="fill:#000084; fill-opacity:0.0; 
stroke:#000084; stroke-width:-0.000393701; stroke-opacity:1; 
stroke-linecap:round; stroke-linejoin:round;">
</g>
<g style="fill:#000084; fill-opacity:0.0; 
stroke:#000084; stroke-width:59.0551; stroke-opacity:1; 
stroke-linecap:round; stroke-linejoin:round;">
<path d="M119606 30374
L120748 30374
" />
<path d="M119606 30374.2 A748.031 748.031 0.0 0 0 119606 31870.3" />
<path d="M120748 31870.3 A748.031 748.031 0.0 0 0 120748 30374.2" />
<path d="M119606 31870
L120748 31870
" />
<path d="M9251 30374
L10393 30374
" />
<path d="M9251.97 30374.2 A748.031 748.031 0.0 0 0 9251.97 31870.3" />
<path d="M10393.7 31870.3 A748.031 748.031 0.0 0 0 10393.7 30374.2" />
<path d="M9251 31870
L10393 31870
" />
<path d="M58799 26653
L59940 26653
" />
<path d="M58799.2 26653.7 A748.031 748.031 0.0 0 0 58799.2 28149.8" />
<path d="M59940.9 28149.8 A748.031 748.031 0.0 0 0 59940.9 26653.7" />
<path d="M58799 28149
L59940 28149
" />
<path d="M83326 41673
L84468 41673
" />
<path d="M83326.8 41673.4 A748.031 748.031 0.0 0 0 83326.8 43169.5" />
<path d="M84468.5 43169.5 A748.031 748.031 0.0 0 0 84468.5 41673.4" />
<path d="M83326 43169
L84468 43169
" />
<path d="M111850 20610.4 A748.031 748.031 0.0 0 0 111850 19114.4" />
<path d="M110709 19114.4 A748.031 748.031 0.0 0 0 110709 20610.4" />
<path d="M110708 20610
L111850 20610
" />
<path d="M110708 19114
L111850 19114
" />
</g>
<g style="fill:#000084; fill-opacity:0.0; 
stroke:#000084; stroke-width:60; stroke-opacity:1; 
stroke-linecap:round; stroke-linejoin:round;">
<path d="M32570 24793
L32570 30226
" />
<path d="M27137 24793
L32570 24793
" />
<path d="M27137 30226
L27137 24793
" />
<path d="M32570 30226
L27137 30226
" />
<path d="M25538 24793
L25538 30226
" />
<path d="M20105 24793
L25538 24793
" />
<path d="M20105 30226
L20105 24793
" />
<path d="M25538 30226
L20105 30226
" />
<path d="M16749 18100
L16749 23533
" />
<path d="M11316 18100
L16749 18100
" />
<path d="M11316 23533
L11316 18100
" />
<path d="M16749 23533
L11316 23533
" />
<path d="M14991 11407
L14991 16840
" />
<path d="M9558 11407
L14991 11407
" />
<path d="M9558 16840
L9558 11407
" />
<path d="M14991 16840
L9558 16840
" />
</g>
<g style="fill:#000084; fill-opacity:0.0; 
stroke:#000084; stroke-width:47.2441; stroke-opacity:1; 
stroke-linecap:round; stroke-linejoin:round;">
<path d="M51447 37569
L52864 37569
" />
<path d="M52864 37569
L52864 39399
" />
<path d="M51447 37569
L51447 39399
" />
<path d="M52864 39399
L53396 39399
" />
<path d="M50915 39399
L51447 39399
" />
<path d="M50915 42096
L50915 39399
" />
<path d="M53396 42096
L53396 39399
" />
<path d="M50915 42096
L53396 42096
" />
</g>
<g style="fill:#000084; fill-opacity:0.0; 
stroke:#000084; stroke-width:60; stroke-opacity:1; 
stroke-linecap:round; stroke-linejoin:round;">
<path d="M50148 38179
L50148 43612
" />
<path d="M44715 38179
L50148 38179
" />
<path d="M44715 43612
L44715 38179
" />
<path d="M50148 43612
L44715 43612
" />
</g>
<g style="fill:#000084; fill-opacity:0.0; 
stroke:#000084; stroke-width:47.2441; stroke-opacity:1; 
stroke-linecap:round; stroke-linejoin:round;">
<path d="M41998 37569
L43415 37569
" />
<path d="M43415 37569
L43415 39399
" />
<path d="M41998 37569
L41998 39399
" />
<path d="M43415 39399
L43947 39399
" />
<path d="M41467 39399
L41998 39399
" />
<path d="M41467 42096
L41467 39399
" />
<path d="M43947 42096
L43947 39399
" />
<path d="M41467 42096
L43947 42096
" />
<path d="M65509 37569
L66927 37569
" />
<path d="M66927 37569
L66927 39399
" />
<path d="M65509 37569
L65509 39399
" />
<path d="M66927 39399
L67458 39399
" />
<path d="M64978 39399
L65509 39399
" />
<path d="M64978 42096
L64978 39399
" />
<path d="M67458 42096
L67458 39399
" />
<path d="M64978 42096
L67458 42096
" />
</g>
<g style="fill:#000084; fill-opacity:0.0; 
stroke:#000084; stroke-width:60; stroke-opacity:1; 
stroke-linecap:round; stroke-linejoin:round;">
<path d="M64210 38179
L64210 43612
" />
<path d="M58777 38179
L64210 38179
" />
<path d="M58777 43612
L58777 38179
" />
<path d="M64210 43612
L58777 43612
" />
</g>
<g style="fill:#000084; fill-opacity:0.0; 
stroke:#000084; stroke-width:47.2441; stroke-opacity:1; 
stroke-linecap:round; stroke-linejoin:round;">
<path d="M56061 37569
L57478 37569
" />
<path d="M57478 37569
L57478 39399
" />
<path d="M56061 37569
L56061 39399
" />
<path d="M57478 39399
L58009 39399
" />
<path d="M55529 39399
L56061 39399
" />
<path d="M55529 42096
L55529 39399
" />
<path d="M58009 42096
L58009 39399
" />
<path d="M55529 42096
L58009 42096
" />
</g>
<g style="fill:#000084; fill-opacity:0.0; 
stroke:#000084; stroke-width:60; stroke-opacity:1; 
stroke-linecap:round; stroke-linejoin:round;">
<path d="M113429 11407
L113429 16840
" />
<path d="M107996 11407
L113429 11407
" />
<path d="M107996 16840
L107996 11407
" />
<path d="M113429 16840
L107996 16840
" />
<path d="M120460 11407
L120460 16840
" />
<path d="M115027 11407
L120460 11407
" />
<path d="M115027 16840
L115027 11407
" />
<path d="M120460 16840
L115027 16840
" />
<path d="M18507 31486
L18507 36919
" />
<path d="M13074 31486
L18507 31486
" />
<path d="M13074 36919
L13074 31486
" />
<path d="M18507 36919
L13074 36919
" />
<path d="M14991 38179
L14991 43612
" />
<path d="M9558 38179
L14991 38179
" />
<path d="M9558 43612
L9558 38179
" />
<path d="M14991 43612
L9558 43612
" />
<path d="M22023 11407
L22023 16840
" />
<path d="M16590 11407
L22023 11407
" />
<path d="M16590 16840
L16590 11407
" />
<path d="M22023 16840
L16590 16840
" />
<path d="M22023 31486
L22023 36919
" />
<path d="M16590 31486
L22023 31486
" />
<path d="M16590 36919
L16590 31486
" />
<path d="M22023 36919
L16590 36919
" />
<path d="M22023 38179
L22023 43612
" />
<path d="M16590 38179
L22023 38179
" />
<path d="M16590 43612
L16590 38179
" />
<path d="M22023 43612
L16590 43612
" />
<path d="M29054 11407
L29054 16840
" />
<path d="M23621 11407
L29054 11407
" />
<path d="M23621 16840
L23621 11407
" />
<path d="M29054 16840
L23621 16840
" />
<path d="M25538 18100
L25538 23533
" />
<path d="M20105 18100
L25538 18100
" />
<path d="M20105 23533
L20105 18100
" />
<path d="M25538 23533
L20105 23533
" />
<path d="M29054 31486
L29054 36919
" />
<path d="M23621 31486
L29054 31486
" />
<path d="M23621 36919
L23621 31486
" />
<path d="M29054 36919
L23621 36919
" />
<path d="M36085 11407
L36085 16840
" />
<path d="M30652 11407
L36085 11407
" />
<path d="M30652 16840
L30652 11407
" />
<path d="M36085 16840
L30652 16840
" />
<path d="M32570 18100
L32570 23533
" />
<path d="M27137 18100
L32570 18100
" />
<path d="M27137 23533
L27137 18100
" />
<path d="M32570 23533
L27137 23533
" />
<path d="M36085 31486
L36085 36919
" />
<path d="M30652 31486
L36085 31486
" />
<path d="M30652 36919
L30652 31486
" />
<path d="M36085 36919
L30652 36919
" />
<path d="M39601 38179
L39601 43612
" />
<path d="M34168 38179
L39601 38179
" />
<path d="M34168 43612
L34168 38179
" />
<path d="M39601 43612
L34168 43612
" />
<path d="M43116 11407
L43116 16840
" />
<path d="M37683 11407
L43116 11407
" />
<path d="M37683 16840
L37683 11407
" />
<path d="M43116 16840
L37683 16840
" />
<path d="M39601 18100
L39601 23533
" />
<path d="M34168 18100
L39601 18100
" />
<path d="M34168 23533
L34168 18100
" />
<path d="M39601 23533
L34168 23533
" />
<path d="M39601 24793
L39601 30226
" />
<path d="M34168 24793
L39601 24793
" />
<path d="M34168 30226
L34168 24793
" />
<path d="M39601 30226
L34168 30226
" />
<path d="M43116 31486
L43116 36919
" />
<path d="M37683 31486
L43116 31486
" />
<path d="M37683 36919
L37683 31486
" />
<path d="M43116 36919
L37683 36919
" />
<path d="M50148 11407
L50148 16840
" />
<path d="M44715 11407
L50148 11407
" />
<path d="M44715 16840
L44715 11407
" />
<path d="M50148 16840
L44715 16840
" />
<path d="M46632 18100
L46632 23533
" />
<path d="M41199 18100
L46632 18100
" />
<path d="M41199 23533
L41199 18100
" />
<path d="M46632 23533
L41199 23533
" />
<path d="M46632 24793
L46632 30226
" />
<path d="M41199 24793
L46632 24793
" />
<path d="M41199 30226
L41199 24793
" />
<path d="M46632 30226
L41199 30226
" />
<path d="M50148 31486
L50148 36919
" />
<path d="M44715 31486
L50148 31486
" />
<path d="M44715 36919
L44715 31486
" />
<path d="M50148 36919
L44715 36919
" />
<path d="M57179 11407
L57179 16840
" />
<path d="M51746 11407
L57179 11407
" />
<path d="M51746 16840
L51746 11407
" />
<path d="M57179 16840
L51746 16840
" />
<path d="M53663 18100
L53663 23533
" />
<path d="M48230 18100
L53663 18100
" />
<path d="M48230 23533
L48230 18100
" />
<path d="M53663 23533
L48230 23533
" />
<path d="M53663 24793
L53663 30226
" />
<path d="M48230 24793
L53663 24793
" />
<path d="M48230 30226
L48230 24793
" />
<path d="M53663 30226
L48230 30226
" />
<path d="M57179 31486
L57179 36919
" />
<path d="M51746 31486
L57179 31486
" />
<path d="M51746 36919
L51746 31486
" />
<path d="M57179 36919
L51746 36919
" />
<path d="M64210 11407
L64210 16840
" />
<path d="M58777 11407
L64210 11407
" />
<path d="M58777 16840
L58777 11407
" />
<path d="M64210 16840
L58777 16840
" />
<path d="M60695 18100
L60695 23533
" />
<path d="M55262 18100
L60695 18100
" />
<path d="M55262 23533
L55262 18100
" />
<path d="M60695 23533
L55262 23533
" />
<path d="M64210 31486
L64210 36919
" />
<path d="M58777 31486
L64210 31486
" />
<path d="M58777 36919
L58777 31486
" />
<path d="M64210 36919
L58777 36919
" />
<path d="M71242 11407
L71242 16840
" />
<path d="M65808 11407
L71242 11407
" />
<path d="M65808 16840
L65808 11407
" />
<path d="M71242 16840
L65808 16840
" />
<path d="M67726 18100
L67726 23533
" />
<path d="M62293 18100
L67726 18100
" />
<path d="M62293 23533
L62293 18100
" />
<path d="M67726 23533
L62293 23533
" />
<path d="M67726 24793
L67726 30226
" />
<path d="M62293 24793
L67726 24793
" />
<path d="M62293 30226
L62293 24793
" />
<path d="M67726 30226
L62293 30226
" />
<path d="M71242 31486
L71242 36919
" />
<path d="M65808 31486
L71242 31486
" />
<path d="M65808 36919
L65808 31486
" />
<path d="M71242 36919
L65808 36919
" />
<path d="M78273 11407
L78273 16840
" />
<path d="M72840 11407
L78273 11407
" />
<path d="M72840 16840
L72840 11407
" />
<path d="M78273 16840
L72840 16840
" />
<path d="M74757 18100
L74757 23533
" />
<path d="M69324 18100
L74757 18100
" />
<path d="M69324 23533
L69324 18100
" />
<path d="M74757 23533
L69324 23533
" />
<path d="M74757 24793
L74757 30226
" />
<path d="M69324 24793
L74757 24793
" />
<path d="M69324 30226
L69324 24793
" />
<path d="M74757 30226
L69324 30226
" />
<path d="M78273 31486
L78273 36919
" />
<path d="M72840 31486
L78273 31486
" />
<path d="M72840 36919
L72840 31486
" />
<path d="M78273 36919
L72840 36919
" />
<path d="M74757 38179
L74757 43612
" />
<path d="M69324 38179
L74757 38179
" />
<path d="M69324 43612
L69324 38179
" />
<path d="M74757 43612
L69324 43612
" />
<path d="M85304 11407
L85304 16840
" />
<path d="M79871 11407
L85304 11407
" />
<path d="M79871 16840
L79871 11407
" />
<path d="M85304 16840
L79871 16840
" />
<path d="M81788 18100
L81788 23533
" />
<path d="M76355 18100
L81788 18100
" />
<path d="M76355 23533
L76355 18100
" />
<path d="M81788 23533
L76355 23533
" />
<path d="M81788 24793
L81788 30226
" />
<path d="M76355 24793
L81788 24793
" />
<path d="M76355 30226
L76355 24793
" />
<path d="M81788 30226
L76355 30226
" />
<path d="M85304 31486
L85304 36919
" />
<path d="M79871 31486
L85304 31486
" />
<path d="M79871 36919
L79871 31486
" />
<path d="M85304 36919
L79871 36919
" />
<path d="M92335 11407
L92335 16840
" />
<path d="M86902 11407
L92335 11407
" />
<path d="M86902 16840
L86902 11407
" />
<path d="M92335 16840
L86902 16840
" />
<path d="M88820 18100
L88820 23533
" />
<path d="M83387 18100
L88820 18100
" />
<path d="M83387 23533
L83387 18100
" />
<path d="M88820 23533
L83387 23533
" />
<path d="M88820 24793
L88820 30226
" />
<path d="M83387 24793
L88820 24793
" />
<path d="M83387 30226
L83387 24793
" />
<path d="M88820 30226
L83387 30226
" />
<path d="M92335 31486
L92335 36919
" />
<path d="M86902 31486
L92335 31486
" />
<path d="M86902 36919
L86902 31486
" />
<path d="M92335 36919
L86902 36919
" />
<path d="M92335 39852
L92335 45285
" />
<path d="M86902 39852
L92335 39852
" />
<path d="M86902 45285
L86902 39852
" />
<path d="M92335 45285
L86902 45285
" />
<path d="M99367 11407
L99367 16840
" />
<path d="M93933 11407
L99367 11407
" />
<path d="M93933 16840
L93933 11407
" />
<path d="M99367 16840
L93933 16840
" />
<path d="M99367 33159
L99367 38592
" />
<path d="M93933 33159
L99367 33159
" />
<path d="M93933 38592
L93933 33159
" />
<path d="M99367 38592
L93933 38592
" />
<path d="M99367 39852
L99367 45285
" />
<path d="M93933 39852
L99367 39852
" />
<path d="M93933 45285
L93933 39852
" />
<path d="M99367 45285
L93933 45285
" />
<path d="M106398 11407
L106398 16840
" />
<path d="M100965 11407
L106398 11407
" />
<path d="M100965 16840
L100965 11407
" />
<path d="M106398 16840
L100965 16840
" />
<path d="M106398 18100
L106398 23533
" />
<path d="M100965 18100
L106398 18100
" />
<path d="M100965 23533
L100965 18100
" />
<path d="M106398 23533
L100965 23533
" />
<path d="M106398 24793
L106398 30226
" />
<path d="M100965 24793
L106398 24793
" />
<path d="M100965 30226
L100965 24793
" />
<path d="M106398 30226
L100965 30226
" />
<path d="M106398 31486
L106398 36919
" />
<path d="M100965 31486
L106398 31486
" />
<path d="M100965 36919
L100965 31486
" />
<path d="M106398 36919
L100965 36919
" />
<path d="M106398 39852
L106398 45285
" />
<path d="M100965 39852
L106398 39852
" />
<path d="M100965 45285
L100965 39852
" />
<path d="M106398 45285
L100965 45285
" />
<path d="M113429 24793
L113429 30226
" />
<path d="M107996 24793
L113429 24793
" />
<path d="M107996 30226
L107996 24793
" />
<path d="M113429 30226
L107996 30226
" />
<path d="M113429 31486
L113429 36919
" />
<path d="M107996 31486
L113429 31486
" />
<path d="M107996 36919
L107996 31486
" />
<path d="M113429 36919
L107996 36919
" />
<path d="M113429 38179
L113429 43612
" />
<path d="M107996 38179
L113429 38179
" />
<path d="M107996 43612
L107996 38179
" />
<path d="M113429 43612
L107996 43612
" />
<path d="M120460 18100
L120460 23533
" />
<path d="M115027 18100
L120460 18100
" />
<path d="M115027 23533
L115027 18100
" />
<path d="M120460 23533
L115027 23533
" />
<path d="M120460 38179
L120460 43612
" />
<path d="M115027 38179
L120460 38179
" />
<path d="M115027 43612
L115027 38179
" />
<path d="M120460 43612
L115027 43612
" />
<path d="M30812 38179
L30812 43612
" />
<path d="M25379 38179
L30812 38179
" />
<path d="M25379 43612
L25379 38179
" />
<path d="M30812 43612
L25379 43612
" />
<path d="M97609 18100
L97609 23533
" />
<path d="M92176 18100
L97609 18100
" />
<path d="M92176 23533
L92176 18100
" />
<path d="M97609 23533
L92176 23533
" />
<path d="M97609 24793
L97609 30226
" />
<path d="M92176 24793
L97609 24793
" />
<path d="M92176 30226
L92176 24793
" />
<path d="M97609 30226
L92176 30226
" />
</g>
<g style="fill:#000084; fill-opacity:0.0; 
stroke:#000084; stroke-width:59.0551; stroke-opacity:1; 
stroke-linecap:round; stroke-linejoin:round;">
<circle cx="46259.8" cy="10551.2" r="866.142" /> 
<circle cx="83759.8" cy="10551.2" r="866.142" /> 
<circle cx="41909.4" cy="44252" r="866.142" /> 
<circle cx="81889.8" cy="44252" r="866.142" /> 
</g>
<g style="fill:#000084; fill-opacity:0.0; 
stroke:#000084; stroke-width:60; stroke-opacity:1; 
stroke-linecap:round; stroke-linejoin:round;">
<path d="M60695 24793
L60695 30226
" />
<path d="M55262 24793
L60695 24793
" />
<path d="M55262 30226
L55262 24793
" />
<path d="M60695 30226
L55262 30226
" />
<path d="M83546 43612
L78113 43612
" />
<path d="M78113 43612
L78113 38179
" />
<path d="M78113 38179
L83546 38179
" />
<path d="M83546 38179
L83546 43612
" />
<path d="M113429 23533
L107996 23533
" />
<path d="M107996 23533
L107996 18100
" />
<path d="M107996 18100
L113429 18100
" />
<path d="M113429 18100
L113429 23533
" />
<path d="M120460 24793
L120460 30226
" />
<path d="M115027 24793
L120460 24793
" />
<path d="M115027 30226
L115027 24793
" />
<path d="M120460 30226
L115027 30226
" />
<path d="M120460 36919
L115027 36919
" />
<path d="M115027 36919
L115027 31486
" />
<path d="M115027 31486
L120460 31486
" />
<path d="M120460 31486
L120460 36919
" />
<path d="M14991 31486
L14991 36919
" />
<path d="M9558 31486
L14991 31486
" />
<path d="M9558 36919
L9558 31486
" />
<path d="M14991 36919
L9558 36919
" />
<path d="M16749 30226
L11316 30226
" />
<path d="M11316 30226
L11316 24793
" />
<path d="M11316 24793
L16749 24793
" />
<path d="M16749 24793
L16749 30226
" />
<g >
</g>
<g >
</g>
<g >
</g>
<g >
</g>
<g >
</g>
<g >
</g>
<g >
</g>
<g >
</g>
<g >
</g>
<g >
</g>
<g >
</g>
<g >
</g>
<g >
</g>
<g >
</g>
<g >
</g>
<g >
</g>
<g >
</g>
<g >
</g>
<g >
</g>
<g >
</g>
<g >
</g>
<g >
</g>
<g >
</g>
<g >
</g>
<g >
</g>
<g >
</g>
<g >
</g>
<g >
</g>
<g >
</g>
<g >
</g>
<g >
</g>
<g >
</g>
<g >
</g>
<g >
</g>
<g >
</g>
<g >
</g>
<g >
</g>
<g >
</g>
<g >
</g>
<g >
</g>
<g >
</g>
<g >
</g>
<g >
</g>
<g >
</g>
<g >
</g>
<g >
</g>
<g >
</g>
<g >
</g>
<g >
</g>
<g >
</g>
<g >
</g>
<g >
</g>
<g >
</g>
<g >
</g>
<g >
</g>
<g >
</g>
<g >
</g>
<g >
</g>
<g >
</g>
<g >
</g>
<g >
</g>
<g >
</g>
<g >
</g>
<g >
</g>
<g >
</g>
<g >
</g>
<g >
</g>
<g >
</g>
<g >
</g>
<g >
</g>
<g >
</g>
<g >
</g>
<g >
</g>
<g >
</g>
<g >
</g>
<g >
</g>
<g >
</g>
<g >
</g>
<g >
</g>
<g >
</g>
<g >
</g>
<g >
</g>
<g >
</g>
<g >
</g>
<g >
</g>
<g >
</g>
<g >
</g>
<g >
</g>
<g >
</g>
<g >
</g>
<g >
</g>
<g >
</g>
<g >
</g>
<g >
</g>
<g >
</g>
<g >
</g>
<g >
</g>
<g >
</g>
<g >
</g>
<g >
</g>
<g >
</g>
<g >
</g>
<g >
</g>
<g >
</g>
<g >
</g>
<g >
</g>
<g >
</g>
<g >
</g>
<g >
</g>
<g >
</g>
<g >
</g>
<g >
</g>
<g >
</g>
<g >
</g>
<g >
</g>
<g >
</g>
<g >
</g>
<g >
</g>
<g >
</g>
<g >
</g>
<g >
</g>
<g >
</g>
<g >
</g>
<g >
</g>
<g >
</g>
<g >
</g>
<g >
</g>
<g >
</g>
<g >
</g>
<g >
</g>
<g >
</g>
<g >
</g>
<g >
</g>
<g >
</g>
<g >
</g>
<g >
</g>
<g >
</g>
<g >
</g>
<g >
</g>
<g >
</g>
<g >
</g>
<g >
</g>
<g >
</g>
<g >
</g>
<g >
</g>
<g >
</g>
<g >
</g>
<g >
</g>
<g >
</g>
<g >
</g>
<g >
</g>
<g >
</g>
<g >
</g>
<g >
</g>
<g >
</g>
<g >
</g>
<g >
</g>
<g >
</g>
<g >
</g>
<g >
</g>
<g >
</g>
<g >
</g>
<g >
</g>
<g >
</g>
<g >
</g>
<g >
</g>
<g >
</g>
<g >
</g>
<g >
</g>
<g >
</g>
<g >
</g>
<g >
</g>
<g >
</g>
<g >
</g>
<g >
</g>
<g >
</g>
<g >
</g>
<g >
</g>
<g >
</g>
<g >
</g>
<g >
</g>
<g >
</g>
<g >
</g>
<g >
</g>
<g >
</g>
<g >
</g>
<g >
</g>
<g >
</g>
<g >
</g>
<g >
</g>
<g >
</g>
<g >
</g>
<g >
</g>
<g >
</g>
<g >
</g>
<g >
</g>
<g >
</g>
<g >
</g>
<g >
</g>
<g >
</g>
<g >
</g>
<g >
</g>
<g >
</g>
<g >
</g>
<g >
</g>
<g >
</g>
<g >
</g>
<g >
</g>
<g >
</g>
<g >
</g>
<g >
</g>
<g >
</g>
<g >
</g>
<g >
</g>
<g >
</g>
<g >
</g>
<g >
</g>
</g>
<g style="fill:#000000; fill-opacity:0.0; 
stroke:#000000; stroke-width:60; stroke-opacity:1; 
stroke-linecap:round; stroke-linejoin:round;">
</g>
<g style="fill:#C2C200; fill-opacity:0.0; 
stroke:#C2C200; stroke-width:60; stroke-opacity:1; 
stroke-linecap:round; stroke-linejoin:round;">
</g>
<g style="fill:#C2C200; fill-opacity:0.0; 
stroke:#C2C200; stroke-width:47.2441; stroke-opacity:1; 
stroke-linecap:round; stroke-linejoin:round;">
<path d="M52943 38730
L52943 37352
" />
<path d="M51368 37352
L51368 38730
" />
<path d="M51368 38730
L52943 38730
" />
<path d="M51368 37352
L52943 37352
" />
<path d="M51112 39636
L51112 41801
" />
<path d="M53199 41801
L53199 39636
" />
<path d="M51112 39636
L53199 39636
" />
<path d="M51112 41801
L53199 41801
" />
<path d="M43494 38730
L43494 37352
" />
<path d="M41919 37352
L41919 38730
" />
<path d="M41919 38730
L43494 38730
" />
<path d="M41919 37352
L43494 37352
" />
<path d="M41663 39636
L41663 41801
" />
<path d="M43750 41801
L43750 39636
" />
<path d="M41663 39636
L43750 39636
" />
<path d="M41663 41801
L43750 41801
" />
<path d="M67006 38730
L67006 37352
" />
<path d="M65431 37352
L65431 38730
" />
<path d="M65431 38730
L67006 38730
" />
<path d="M65431 37352
L67006 37352
" />
<path d="M65175 39636
L65175 41801
" />
<path d="M67261 41801
L67261 39636
" />
<path d="M65175 39636
L67261 39636
" />
<path d="M65175 41801
L67261 41801
" />
<path d="M57557 38730
L57557 37352
" />
<path d="M55982 37352
L55982 38730
" />
<path d="M55982 38730
L57557 38730
" />
<path d="M55982 37352
L57557 37352
" />
<path d="M55726 39636
L55726 41801
" />
<path d="M57813 41801
L57813 39636
" />
<path d="M55726 39636
L57813 39636
" />
<path d="M55726 41801
L57813 41801
" />
</g>
<g style="fill:#C2C200; fill-opacity:0.0; 
stroke:#C2C200; stroke-width:118.11; stroke-opacity:1; 
stroke-linecap:round; stroke-linejoin:round;">
<path d="M120314 46122
L9685 46122
" />
<path d="M9685 8877
L13700 8877
" />
<path d="M13897 8681
L18228 8681
" />
<path d="M119606 30570
L120944 30570
" />
<path d="M119606 31673
L120944 31673
" />
<path d="M121102 30413
L121102 9665
" />
<path d="M121102 31830
L121102 45334
" />
<path d="M8897 30413
L8897 9665
" />
<path d="M10393 30570
L9055 30570
" />
<path d="M9055 31673
L10393 31673
" />
<path d="M8897 45334
L8897 31830
" />
<path d="M120314 8877
L18425 8877
" />
<path d="M121102 31830.7 A157.48 157.48 0.0 0 0 120945 31673.2" />
<path d="M120945 30570.9 A157.48 157.48 0.0 0 0 121102 30413.4" />
<path d="M9055.12 31673.2 A157.48 157.48 0.0 0 0 8897.64 31830.7" />
<path d="M8897.64 30413.4 A157.48 157.48 0.0 0 0 9055.12 30570.9" />
<path d="M9685.04 8877.95 A787.402 787.402 0.0 0 0 8897.64 9665.35" />
<path d="M8897.64 45334.6 A787.402 787.402 0.0 0 0 9685.04 46122" />
<path d="M120315 46122 A787.402 787.402 0.0 0 0 121102 45334.6" />
<path d="M121102 9665.35 A787.402 787.402 0.0 0 0 120315 8877.95" />
<path d="M10944.9 31122 A551.181 551.181 0.0 0 0 10393.7 30570.9" />
<path d="M119606 30570.9 A551.181 551.181 0.0 0 0 119055 31122" />
<path d="M119055 31122 A551.181 551.181 0.0 0 0 119606 31673.2" />
<path d="M10393.7 31673.2 A551.181 551.181 0.0 0 0 10944.9 31122" />
<path d="M13700.8 8877.95 A196.85 196.85 0.0 0 0 13897.6 8681.1" />
<path d="M18228.3 8681.1 A196.85 196.85 0.0 0 0 18425.2 8877.95" />
</g>
<g style="fill:#C2C200; fill-opacity:0.0; 
stroke:#C2C200; stroke-width:47.2441; stroke-opacity:1; 
stroke-linecap:round; stroke-linejoin:round;">
<path d="M12942 12864
L11604 12864
" />
<path d="M12942 11683
L12942 12864
" />
<path d="M11604 11683
L12942 11683
" />
<path d="M11604 12864
L11604 11683
" />
<path d="M19974 12864
L18635 12864
" />
<path d="M19974 11683
L19974 12864
" />
<path d="M18635 11683
L19974 11683
" />
<path d="M18635 12864
L18635 11683
" />
<path d="M27005 12864
L25666 12864
" />
<path d="M27005 11683
L27005 12864
" />
<path d="M25666 11683
L27005 11683
" />
<path d="M25666 12864
L25666 11683
" />
<path d="M34036 12864
L32698 12864
" />
<path d="M34036 11683
L34036 12864
" />
<path d="M32698 11683
L34036 11683
" />
<path d="M32698 12864
L32698 11683
" />
<path d="M41067 12864
L39729 12864
" />
<path d="M41067 11683
L41067 12864
" />
<path d="M39729 11683
L41067 11683
" />
<path d="M39729 12864
L39729 11683
" />
<path d="M48099 12864
L46760 12864
" />
<path d="M48099 11683
L48099 12864
" />
<path d="M46760 11683
L48099 11683
" />
<path d="M46760 12864
L46760 11683
" />
<path d="M55130 12864
L53791 12864
" />
<path d="M55130 11683
L55130 12864
" />
<path d="M53791 11683
L55130 11683
" />
<path d="M53791 12864
L53791 11683
" />
<path d="M62161 12864
L60822 12864
" />
<path d="M62161 11683
L62161 12864
" />
<path d="M60822 11683
L62161 11683
" />
<path d="M60822 12864
L60822 11683
" />
<path d="M69192 12864
L67854 12864
" />
<path d="M69192 11683
L69192 12864
" />
<path d="M67854 11683
L69192 11683
" />
<path d="M67854 12864
L67854 11683
" />
<path d="M76224 12864
L74885 12864
" />
<path d="M76224 11683
L76224 12864
" />
<path d="M74885 11683
L76224 11683
" />
<path d="M74885 12864
L74885 11683
" />
<path d="M83255 12864
L81916 12864
" />
<path d="M83255 11683
L83255 12864
" />
<path d="M81916 11683
L83255 11683
" />
<path d="M81916 12864
L81916 11683
" />
<path d="M90286 12864
L88947 12864
" />
<path d="M90286 11683
L90286 12864
" />
<path d="M88947 11683
L90286 11683
" />
<path d="M88947 12864
L88947 11683
" />
<path d="M97317 12864
L95979 12864
" />
<path d="M97317 11683
L97317 12864
" />
<path d="M95979 11683
L97317 11683
" />
<path d="M95979 12864
L95979 11683
" />
<path d="M104348 12864
L103010 12864
" />
<path d="M104348 11683
L104348 12864
" />
<path d="M103010 11683
L104348 11683
" />
<path d="M103010 12864
L103010 11683
" />
<path d="M111380 12864
L110041 12864
" />
<path d="M111380 11683
L111380 12864
" />
<path d="M110041 11683
L111380 11683
" />
<path d="M110041 12864
L110041 11683
" />
<path d="M118411 12864
L117072 12864
" />
<path d="M118411 11683
L118411 12864
" />
<path d="M117072 11683
L118411 11683
" />
<path d="M117072 12864
L117072 11683
" />
<g >
</g>
<g >
</g>
<g >
</g>
<g >
</g>
<g >
</g>
<g >
</g>
<g >
</g>
<g >
</g>
<g >
</g>
<g >
</g>
<g >
</g>
<g >
</g>
<g >
</g>
<g >
</g>
<g >
</g>
<g >
</g>
<g >
</g>
<g >
</g>
<g >
</g>
<g >
</g>
<g >
</g>
<g >
</g>
<g >
</g>
<g >
</g>
<g >
</g>
<g >
</g>
<g >
</g>
<g >
</g>
<g >
</g>
<g >
</g>
<g >
</g>
<g >
</g>
<g >
</g>
<g >
</g>
<g >
</g>
<g >
</g>
<g >
</g>
<g >
</g>
<g >
</g>
<g >
</g>
<g >
</g>
<g >
</g>
<g >
</g>
<g >
</g>
<g >
</g>
<g >
</g>
<g >
</g>
<g >
</g>
<g >
</g>
<g >
</g>
<g >
</g>
<g >
</g>
<g >
</g>
<g >
</g>
<g >
</g>
<g >
</g>
<g >
</g>
<g >
</g>
<g >
</g>
<g >
</g>
<g >
</g>
<g >
</g>
<g >
</g>
<g >
</g>
<g >
</g>
<g >
</g>
<g >
</g>
<g >
</g>
<g >
</g>
<g >
</g>
<g >
</g>
<g >
</g>
<g >
</g>
<g >
</g>
<g >
</g>
<g >
</g>
<g >
</g>
<g >
</g>
<g >
</g>
<g >
</g>
<g >
</g>
<g >
</g>
<g >
</g>
<g >
</g>
<g >
</g>
<g >
</g>
<g >
</g>
<g >
</g>
<g >
</g>
<g >
</g>
<g >
</g>
<g >
</g>
<g >
</g>
<g >
</g>
<g >
</g>
<g >
</g>
<g >
</g>
<g >
</g>
<g >
</g>
<g >
</g>
<g >
</g>
<g >
</g>
<g >
</g>
<g >
</g>
<g >
</g>
<g >
</g>
<g >
</g>
<g >
</g>
<g >
</g>
<g >
</g>
<g >
</g>
<g >
</g>
<g >
</g>
<g >
</g>
<g >
</g>
<g >
</g>
<g >
</g>
<g >
</g>
<g >
</g>
<g >
</g>
<g >
</g>
<g >
</g>
<g >
</g>
<g >
</g>
<g >
</g>
<g >
</g>
<g >
</g>
<g >
</g>
<g >
</g>
<g >
</g>
<g >
</g>
<g >
</g>
<g >
</g>
<g >
</g>
<g >
</g>
<g >
</g>
<g >
</g>
<g >
</g>
<g >
</g>
<g >
</g>
<g >
</g>
<g >
</g>
<g >
</g>
<g >
</g>
<g >
</g>
<g >
</g>
<g >
</g>
<g >
</g>
<g >
</g>
<g >
</g>
<g >
</g>
<g >
</g>
<g >
</g>
<g >
</g>
<g >
</g>
<g >
</g>
<g >
</g>
<g >
</g>
<g >
</g>
<g >
</g>
<g >
</g>
<g >
</g>
<g >
</g>
<g >
</g>
<g >
</g>
<g >
</g>
<g >
</g>
<g >
</g>
<g >
</g>
<g >
</g>
<g >
</g>
<g >
</g>
<g >
</g>
<g >
</g>
<g >
</g>
<g >
</g>
<g >
</g>
<g >
</g>
<g >
</g>
<g >
</g>
<g >
</g>
<g >
</g>
<g >
</g>
<g >
</g>
<g >
</g>
<g >
</g>
<g >
</g>
<g >
</g>
<g >
</g>
<g >
</g>
<g >
</g>
<g >
</g>
<g >
</g>
<g >
</g>
<g >
</g>
<g >
</g>
<g >
</g>
<g >
</g>
<g >
</g>
<g >
</g>
<g >
</g>
<g >
</g>
<g >
</g>
<g >
</g>
<g >
</g>
<g >
</g>
<g >
</g>
<g >
</g>
<g >
</g>
<g >
</g>
<g >
</g>
<g >
</g>
<g >
</g>
<g >
</g>
<g >
</g>
<g >
</g>
<g >
</g>
</g> 
</svg>
