<?xml version="1.0" standalone="no"?>
 <!DOCTYPE svg PUBLIC "-//W3C//DTD SVG 1.1//EN" 
 "http://www.w3.org/Graphics/SVG/1.1/DTD/svg11.dtd"> 
<svg
  xmlns:svg="http://www.w3.org/2000/svg"
  xmlns="http://www.w3.org/2000/svg"
  xmlns:xlink="http://www.w3.org/1999/xlink"
  version="1.1"
  width="0.025400cm" height="0.025400cm" viewBox="0 0 254000 254000">
<title>SVG Picture created as nora-brd.svg date 2022/01/08 18:08:36 </title>
  <desc>Picture generated by PCBNEW </desc>
<g style="fill:#000000; fill-opacity:1.000000;stroke:#000000; stroke-opacity:1.000000;
stroke-linecap:round; stroke-linejoin:round;"
 transform="translate(0 0) scale(1 1)">
</g>
<g style="fill:#000000; fill-opacity:0.0; 
stroke:#000000; stroke-width:0.000000; stroke-opacity:1; 
stroke-linecap:round; stroke-linejoin:round;">
</g>
<g style="fill:#FF6E00; fill-opacity:0.0; 
stroke:#FF6E00; stroke-width:0.000000; stroke-opacity:1; 
stroke-linecap:round; stroke-linejoin:round;">
</g>
<g style="fill:#FF6E00; fill-opacity:0.0; 
stroke:#FF6E00; stroke-width:200000.000000; stroke-opacity:1; 
stroke-linecap:round; stroke-linejoin:round;">
<circle cx="165124992.000000" cy="78775520.000000" r="16500000.000000" /> 
</g>
<g style="fill:#FF6E00; fill-opacity:0.0; 
stroke:#FF6E00; stroke-width:300000.000000; stroke-opacity:1; 
stroke-linecap:round; stroke-linejoin:round;">
<text x="24110414.000000" y="124105262.000000"
textLength="11617143.000000" font-size="2000000.000000" lengthAdjust="spacingAndGlyphs"
text-anchor="start" opacity="0">Key pitch:</text>
<g class="stroked-text"><desc>Key pitch:</desc>
<path d="M24662556 124033833
L24662556 122533833
" />
<path d="M25519699 124033833
L24876842 123176690
" />
<path d="M25519699 122533833
L24662556 123390976
" />
<path d="M26733985 123962404
L26591128 124033833
L26305414 124033833
L26162556 123962404
L26091128 123819547
L26091128 123248119
L26162556 123105262
L26305414 123033833
L26591128 123033833
L26733985 123105262
L26805414 123248119
L26805414 123390976
L26091128 123533833
" />
<path d="M27305414 123033833
L27662556 124033833
" />
<path d="M28019699 123033833
L27662556 124033833
L27519699 124390976
L27448271 124462404
L27305414 124533833
" />
<path d="M29733985 123033833
L29733985 124533833
" />
<path d="M29733985 123105262
L29876842 123033833
L30162556 123033833
L30305414 123105262
L30376842 123176690
L30448271 123319547
L30448271 123748119
L30376842 123890976
L30305414 123962404
L30162556 124033833
L29876842 124033833
L29733985 123962404
" />
<path d="M31091128 124033833
L31091128 123033833
" />
<path d="M31091128 122533833
L31019699 122605262
L31091128 122676690
L31162556 122605262
L31091128 122533833
L31091128 122676690
" />
<path d="M31591128 123033833
L32162556 123033833
" />
<path d="M31805414 122533833
L31805414 123819547
L31876842 123962404
L32019699 124033833
L32162556 124033833
" />
<path d="M33305414 123962404
L33162556 124033833
L32876842 124033833
L32733985 123962404
L32662556 123890976
L32591128 123748119
L32591128 123319547
L32662556 123176690
L32733985 123105262
L32876842 123033833
L33162556 123033833
L33305414 123105262
" />
<path d="M33948271 124033833
L33948271 122533833
" />
<path d="M34591128 124033833
L34591128 123248119
L34519699 123105262
L34376842 123033833
L34162556 123033833
L34019699 123105262
L33948271 123176690
" />
<path d="M35305414 123890976
L35376842 123962404
L35305414 124033833
L35233985 123962404
L35305414 123890976
L35305414 124033833
" />
<path d="M35305414 123105262
L35376842 123176690
L35305414 123248119
L35233985 123176690
L35305414 123105262
L35305414 123248119
" />
</g><text x="24110414.000000" y="126520262.000000"
textLength="43032857.000000" font-size="2000000.000000" lengthAdjust="spacingAndGlyphs"
text-anchor="start" opacity="0">Vertical: 17mm --&gt; 1/4 = 4.25mm</text>
<g class="stroked-text"><desc>Vertical: 17mm --&gt; 1/4 = 4.25mm</desc>
<path d="M24448271 124948833
L24948271 126448833
L25448271 124948833
" />
<path d="M26519699 126377404
L26376842 126448833
L26091128 126448833
L25948271 126377404
L25876842 126234547
L25876842 125663119
L25948271 125520262
L26091128 125448833
L26376842 125448833
L26519699 125520262
L26591128 125663119
L26591128 125805976
L25876842 125948833
" />
<path d="M27233985 126448833
L27233985 125448833
" />
<path d="M27233985 125734547
L27305414 125591690
L27376842 125520262
L27519699 125448833
L27662556 125448833
" />
<path d="M27948271 125448833
L28519699 125448833
" />
<path d="M28162556 124948833
L28162556 126234547
L28233985 126377404
L28376842 126448833
L28519699 126448833
" />
<path d="M29019699 126448833
L29019699 125448833
" />
<path d="M29019699 124948833
L28948271 125020262
L29019699 125091690
L29091128 125020262
L29019699 124948833
L29019699 125091690
" />
<path d="M30376842 126377404
L30233985 126448833
L29948271 126448833
L29805414 126377404
L29733985 126305976
L29662556 126163119
L29662556 125734547
L29733985 125591690
L29805414 125520262
L29948271 125448833
L30233985 125448833
L30376842 125520262
" />
<path d="M31662556 126448833
L31662556 125663119
L31591128 125520262
L31448271 125448833
L31162556 125448833
L31019699 125520262
" />
<path d="M31662556 126377404
L31519699 126448833
L31162556 126448833
L31019699 126377404
L30948271 126234547
L30948271 126091690
L31019699 125948833
L31162556 125877404
L31519699 125877404
L31662556 125805976
" />
<path d="M32591128 126448833
L32448271 126377404
L32376842 126234547
L32376842 124948833
" />
<path d="M33162556 126305976
L33233985 126377404
L33162556 126448833
L33091128 126377404
L33162556 126305976
L33162556 126448833
" />
<path d="M33162556 125520262
L33233985 125591690
L33162556 125663119
L33091128 125591690
L33162556 125520262
L33162556 125663119
" />
<path d="M35805414 126448833
L34948271 126448833
" />
<path d="M35376842 126448833
L35376842 124948833
L35233985 125163119
L35091128 125305976
L34948271 125377404
" />
<path d="M36305414 124948833
L37305414 124948833
L36662556 126448833
" />
<path d="M37876842 126448833
L37876842 125448833
" />
<path d="M37876842 125591690
L37948271 125520262
L38091128 125448833
L38305414 125448833
L38448271 125520262
L38519699 125663119
L38519699 126448833
" />
<path d="M38519699 125663119
L38591128 125520262
L38733985 125448833
L38948271 125448833
L39091128 125520262
L39162556 125663119
L39162556 126448833
" />
<path d="M39876842 126448833
L39876842 125448833
" />
<path d="M39876842 125591690
L39948271 125520262
L40091128 125448833
L40305414 125448833
L40448271 125520262
L40519699 125663119
L40519699 126448833
" />
<path d="M40519699 125663119
L40591128 125520262
L40733985 125448833
L40948271 125448833
L41091128 125520262
L41162556 125663119
L41162556 126448833
" />
<path d="M43019699 125877404
L44162556 125877404
" />
<path d="M44876842 125877404
L46019699 125877404
" />
<path d="M46733985 125448833
L47876842 125877404
L46733985 126305976
" />
<path d="M50519699 126448833
L49662556 126448833
" />
<path d="M50091128 126448833
L50091128 124948833
L49948271 125163119
L49805414 125305976
L49662556 125377404
" />
<path d="M52233985 124877404
L50948271 126805976
" />
<path d="M53376842 125448833
L53376842 126448833
" />
<path d="M53019699 124877404
L52662556 125948833
L53591128 125948833
" />
<path d="M55305414 125663119
L56448271 125663119
" />
<path d="M56448271 126091690
L55305414 126091690
" />
<path d="M58948271 125448833
L58948271 126448833
" />
<path d="M58591128 124877404
L58233985 125948833
L59162556 125948833
" />
<path d="M59733985 126305976
L59805414 126377404
L59733985 126448833
L59662556 126377404
L59733985 126305976
L59733985 126448833
" />
<path d="M60376842 125091690
L60448271 125020262
L60591128 124948833
L60948271 124948833
L61091128 125020262
L61162556 125091690
L61233985 125234547
L61233985 125377404
L61162556 125591690
L60305414 126448833
L61233985 126448833
" />
<path d="M62591128 124948833
L61876842 124948833
L61805414 125663119
L61876842 125591690
L62019699 125520262
L62376842 125520262
L62519699 125591690
L62591128 125663119
L62662556 125805976
L62662556 126163119
L62591128 126305976
L62519699 126377404
L62376842 126448833
L62019699 126448833
L61876842 126377404
L61805414 126305976
" />
<path d="M63305414 126448833
L63305414 125448833
" />
<path d="M63305414 125591690
L63376842 125520262
L63519699 125448833
L63733985 125448833
L63876842 125520262
L63948271 125663119
L63948271 126448833
" />
<path d="M63948271 125663119
L64019699 125520262
L64162556 125448833
L64376842 125448833
L64519699 125520262
L64591128 125663119
L64591128 126448833
" />
<path d="M65305414 126448833
L65305414 125448833
" />
<path d="M65305414 125591690
L65376842 125520262
L65519699 125448833
L65733985 125448833
L65876842 125520262
L65948271 125663119
L65948271 126448833
" />
<path d="M65948271 125663119
L66019699 125520262
L66162556 125448833
L66376842 125448833
L66519699 125520262
L66591128 125663119
L66591128 126448833
" />
</g><text x="24110414.000000" y="128935262.000000"
textLength="63890000.000000" font-size="2000000.000000" lengthAdjust="spacingAndGlyphs"
text-anchor="start" opacity="0">Horisontal: 17.859375mm --&gt; 1/4 = 4.46484375mm</text>
<g class="stroked-text"><desc>Horisontal: 17.859375mm --&gt; 1/4 = 4.46484375mm</desc>
<path d="M24662556 128863833
L24662556 127363833
" />
<path d="M24662556 128078119
L25519699 128078119
" />
<path d="M25519699 128863833
L25519699 127363833
" />
<path d="M26448271 128863833
L26305414 128792404
L26233985 128720976
L26162556 128578119
L26162556 128149547
L26233985 128006690
L26305414 127935262
L26448271 127863833
L26662556 127863833
L26805414 127935262
L26876842 128006690
L26948271 128149547
L26948271 128578119
L26876842 128720976
L26805414 128792404
L26662556 128863833
L26448271 128863833
" />
<path d="M27591128 128863833
L27591128 127863833
" />
<path d="M27591128 128149547
L27662556 128006690
L27733985 127935262
L27876842 127863833
L28019699 127863833
" />
<path d="M28519699 128863833
L28519699 127863833
" />
<path d="M28519699 127363833
L28448271 127435262
L28519699 127506690
L28591128 127435262
L28519699 127363833
L28519699 127506690
" />
<path d="M29162556 128792404
L29305414 128863833
L29591128 128863833
L29733985 128792404
L29805414 128649547
L29805414 128578119
L29733985 128435262
L29591128 128363833
L29376842 128363833
L29233985 128292404
L29162556 128149547
L29162556 128078119
L29233985 127935262
L29376842 127863833
L29591128 127863833
L29733985 127935262
" />
<path d="M30662556 128863833
L30519699 128792404
L30448271 128720976
L30376842 128578119
L30376842 128149547
L30448271 128006690
L30519699 127935262
L30662556 127863833
L30876842 127863833
L31019699 127935262
L31091128 128006690
L31162556 128149547
L31162556 128578119
L31091128 128720976
L31019699 128792404
L30876842 128863833
L30662556 128863833
" />
<path d="M31805414 127863833
L31805414 128863833
" />
<path d="M31805414 128006690
L31876842 127935262
L32019699 127863833
L32233985 127863833
L32376842 127935262
L32448271 128078119
L32448271 128863833
" />
<path d="M32948271 127863833
L33519699 127863833
" />
<path d="M33162556 127363833
L33162556 128649547
L33233985 128792404
L33376842 128863833
L33519699 128863833
" />
<path d="M34662556 128863833
L34662556 128078119
L34591128 127935262
L34448271 127863833
L34162556 127863833
L34019699 127935262
" />
<path d="M34662556 128792404
L34519699 128863833
L34162556 128863833
L34019699 128792404
L33948271 128649547
L33948271 128506690
L34019699 128363833
L34162556 128292404
L34519699 128292404
L34662556 128220976
" />
<path d="M35591128 128863833
L35448271 128792404
L35376842 128649547
L35376842 127363833
" />
<path d="M36162556 128720976
L36233985 128792404
L36162556 128863833
L36091128 128792404
L36162556 128720976
L36162556 128863833
" />
<path d="M36162556 127935262
L36233985 128006690
L36162556 128078119
L36091128 128006690
L36162556 127935262
L36162556 128078119
" />
<path d="M38805414 128863833
L37948271 128863833
" />
<path d="M38376842 128863833
L38376842 127363833
L38233985 127578119
L38091128 127720976
L37948271 127792404
" />
<path d="M39305414 127363833
L40305414 127363833
L39662556 128863833
" />
<path d="M40876842 128720976
L40948271 128792404
L40876842 128863833
L40805414 128792404
L40876842 128720976
L40876842 128863833
" />
<path d="M41805414 128006690
L41662556 127935262
L41591128 127863833
L41519699 127720976
L41519699 127649547
L41591128 127506690
L41662556 127435262
L41805414 127363833
L42091128 127363833
L42233985 127435262
L42305414 127506690
L42376842 127649547
L42376842 127720976
L42305414 127863833
L42233985 127935262
L42091128 128006690
L41805414 128006690
L41662556 128078119
L41591128 128149547
L41519699 128292404
L41519699 128578119
L41591128 128720976
L41662556 128792404
L41805414 128863833
L42091128 128863833
L42233985 128792404
L42305414 128720976
L42376842 128578119
L42376842 128292404
L42305414 128149547
L42233985 128078119
L42091128 128006690
" />
<path d="M43733985 127363833
L43019699 127363833
L42948271 128078119
L43019699 128006690
L43162556 127935262
L43519699 127935262
L43662556 128006690
L43733985 128078119
L43805414 128220976
L43805414 128578119
L43733985 128720976
L43662556 128792404
L43519699 128863833
L43162556 128863833
L43019699 128792404
L42948271 128720976
" />
<path d="M44519699 128863833
L44805414 128863833
L44948271 128792404
L45019699 128720976
L45162556 128506690
L45233985 128220976
L45233985 127649547
L45162556 127506690
L45091128 127435262
L44948271 127363833
L44662556 127363833
L44519699 127435262
L44448271 127506690
L44376842 127649547
L44376842 128006690
L44448271 128149547
L44519699 128220976
L44662556 128292404
L44948271 128292404
L45091128 128220976
L45162556 128149547
L45233985 128006690
" />
<path d="M45733985 127363833
L46662556 127363833
L46162556 127935262
L46376842 127935262
L46519699 128006690
L46591128 128078119
L46662556 128220976
L46662556 128578119
L46591128 128720976
L46519699 128792404
L46376842 128863833
L45948271 128863833
L45805414 128792404
L45733985 128720976
" />
<path d="M47162556 127363833
L48162556 127363833
L47519699 128863833
" />
<path d="M49448271 127363833
L48733985 127363833
L48662556 128078119
L48733985 128006690
L48876842 127935262
L49233985 127935262
L49376842 128006690
L49448271 128078119
L49519699 128220976
L49519699 128578119
L49448271 128720976
L49376842 128792404
L49233985 128863833
L48876842 128863833
L48733985 128792404
L48662556 128720976
" />
<path d="M50162556 128863833
L50162556 127863833
" />
<path d="M50162556 128006690
L50233985 127935262
L50376842 127863833
L50591128 127863833
L50733985 127935262
L50805414 128078119
L50805414 128863833
" />
<path d="M50805414 128078119
L50876842 127935262
L51019699 127863833
L51233985 127863833
L51376842 127935262
L51448271 128078119
L51448271 128863833
" />
<path d="M52162556 128863833
L52162556 127863833
" />
<path d="M52162556 128006690
L52233985 127935262
L52376842 127863833
L52591128 127863833
L52733985 127935262
L52805414 128078119
L52805414 128863833
" />
<path d="M52805414 128078119
L52876842 127935262
L53019699 127863833
L53233985 127863833
L53376842 127935262
L53448271 128078119
L53448271 128863833
" />
<path d="M55305414 128292404
L56448271 128292404
" />
<path d="M57162556 128292404
L58305414 128292404
" />
<path d="M59019699 127863833
L60162556 128292404
L59019699 128720976
" />
<path d="M62805414 128863833
L61948271 128863833
" />
<path d="M62376842 128863833
L62376842 127363833
L62233985 127578119
L62091128 127720976
L61948271 127792404
" />
<path d="M64519699 127292404
L63233985 129220976
" />
<path d="M65662556 127863833
L65662556 128863833
" />
<path d="M65305414 127292404
L64948271 128363833
L65876842 128363833
" />
<path d="M67591128 128078119
L68733985 128078119
" />
<path d="M68733985 128506690
L67591128 128506690
" />
<path d="M71233985 127863833
L71233985 128863833
" />
<path d="M70876842 127292404
L70519699 128363833
L71448271 128363833
" />
<path d="M72019699 128720976
L72091128 128792404
L72019699 128863833
L71948271 128792404
L72019699 128720976
L72019699 128863833
" />
<path d="M73376842 127863833
L73376842 128863833
" />
<path d="M73019699 127292404
L72662556 128363833
L73591128 128363833
" />
<path d="M74805414 127363833
L74519699 127363833
L74376842 127435262
L74305414 127506690
L74162556 127720976
L74091128 128006690
L74091128 128578119
L74162556 128720976
L74233985 128792404
L74376842 128863833
L74662556 128863833
L74805414 128792404
L74876842 128720976
L74948271 128578119
L74948271 128220976
L74876842 128078119
L74805414 128006690
L74662556 127935262
L74376842 127935262
L74233985 128006690
L74162556 128078119
L74091128 128220976
" />
<path d="M76233985 127863833
L76233985 128863833
" />
<path d="M75876842 127292404
L75519699 128363833
L76448271 128363833
" />
<path d="M77233985 128006690
L77091128 127935262
L77019699 127863833
L76948271 127720976
L76948271 127649547
L77019699 127506690
L77091128 127435262
L77233985 127363833
L77519699 127363833
L77662556 127435262
L77733985 127506690
L77805413 127649547
L77805413 127720976
L77733985 127863833
L77662556 127935262
L77519699 128006690
L77233985 128006690
L77091128 128078119
L77019699 128149547
L76948271 128292404
L76948271 128578119
L77019699 128720976
L77091128 128792404
L77233985 128863833
L77519699 128863833
L77662556 128792404
L77733985 128720976
L77805413 128578119
L77805413 128292404
L77733985 128149547
L77662556 128078119
L77519699 128006690
" />
<path d="M79091128 127863833
L79091128 128863833
" />
<path d="M78733985 127292404
L78376842 128363833
L79305413 128363833
" />
<path d="M79733985 127363833
L80662556 127363833
L80162556 127935262
L80376842 127935262
L80519699 128006690
L80591128 128078119
L80662556 128220976
L80662556 128578119
L80591128 128720976
L80519699 128792404
L80376842 128863833
L79948271 128863833
L79805413 128792404
L79733985 128720976
" />
<path d="M81162556 127363833
L82162556 127363833
L81519699 128863833
" />
<path d="M83448271 127363833
L82733985 127363833
L82662556 128078119
L82733985 128006690
L82876842 127935262
L83233985 127935262
L83376842 128006690
L83448271 128078119
L83519699 128220976
L83519699 128578119
L83448271 128720976
L83376842 128792404
L83233985 128863833
L82876842 128863833
L82733985 128792404
L82662556 128720976
" />
<path d="M84162556 128863833
L84162556 127863833
" />
<path d="M84162556 128006690
L84233985 127935262
L84376842 127863833
L84591128 127863833
L84733985 127935262
L84805413 128078119
L84805413 128863833
" />
<path d="M84805413 128078119
L84876842 127935262
L85019699 127863833
L85233985 127863833
L85376842 127935262
L85448271 128078119
L85448271 128863833
" />
<path d="M86162556 128863833
L86162556 127863833
" />
<path d="M86162556 128006690
L86233985 127935262
L86376842 127863833
L86591128 127863833
L86733985 127935262
L86805413 128078119
L86805413 128863833
" />
<path d="M86805413 128078119
L86876842 127935262
L87019699 127863833
L87233985 127863833
L87376842 127935262
L87448271 128078119
L87448271 128863833
" />
</g></g>
<g style="fill:#FF6E00; fill-opacity:0.0; 
stroke:#FF6E00; stroke-width:200000.000000; stroke-opacity:1; 
stroke-linecap:round; stroke-linejoin:round;">
<text x="49039048.000000" y="40175520.000000"
textLength="1342381.000000" font-size="1333333.000000" lengthAdjust="spacingAndGlyphs"
text-anchor="middle" opacity="0">1</text>
<g class="stroked-text"><desc>1</desc>
<path d="M49324762 40127900
L48753333 40127900
" />
<path d="M49039048 40127900
L49039048 39127900
L48943809 39270758
L48848571 39365996
L48753333 39413615
" />
</g><text x="49039048.000000" y="91175520.000000"
textLength="1212381.000000" font-size="1333333.000000" lengthAdjust="spacingAndGlyphs"
text-anchor="middle" opacity="0">Z</text>
<g class="stroked-text"><desc>Z</desc>
<path d="M48705714 90127900
L49372381 90127900
L48705714 91127900
L49372381 91127900
" />
</g><text x="66898424.000000" y="40175520.000000"
textLength="1212381.000000" font-size="1333333.000000" lengthAdjust="spacingAndGlyphs"
text-anchor="middle" opacity="0">2</text>
<g class="stroked-text"><desc>2</desc>
<path d="M66612709 39223139
L66660328 39175520
L66755566 39127900
L66993662 39127900
L67088900 39175520
L67136519 39223139
L67184138 39318377
L67184138 39413615
L67136519 39556472
L66565090 40127900
L67184138 40127900
" />
</g><text x="57968736.000000" y="57175520.000000"
textLength="1307619.000000" font-size="1333333.000000" lengthAdjust="spacingAndGlyphs"
text-anchor="middle" opacity="0">Q</text>
<g class="stroked-text"><desc>Q</desc>
<path d="M58349688 57223139
L58254450 57175520
L58159212 57080281
L58016355 56937424
L57921116 56889805
L57825878 56889805
" />
<path d="M57873497 57127900
L57778259 57080281
L57683021 56985043
L57635402 56794567
L57635402 56461234
L57683021 56270758
L57778259 56175520
L57873497 56127900
L58063974 56127900
L58159212 56175520
L58254450 56270758
L58302069 56461234
L58302069 56794567
L58254450 56985043
L58159212 57080281
L58063974 57127900
L57873497 57127900
" />
</g><text x="66898424.000000" y="91175520.000000"
textLength="1212381.000000" font-size="1333333.000000" lengthAdjust="spacingAndGlyphs"
text-anchor="middle" opacity="0">X</text>
<g class="stroked-text"><desc>X</desc>
<path d="M66565090 90127900
L67231757 91127900
" />
<path d="M67231757 90127900
L66565090 91127900
" />
</g><text x="84757800.000000" y="40175520.000000"
textLength="1212381.000000" font-size="1333333.000000" lengthAdjust="spacingAndGlyphs"
text-anchor="middle" opacity="0">3</text>
<g class="stroked-text"><desc>3</desc>
<path d="M84424466 39127900
L85043514 39127900
L84710180 39508853
L84853038 39508853
L84948276 39556472
L84995895 39604091
L85043514 39699329
L85043514 39937424
L84995895 40032662
L84948276 40080281
L84853038 40127900
L84567323 40127900
L84472085 40080281
L84424466 40032662
" />
</g><text x="75828112.000000" y="57175520.000000"
textLength="1402857.000000" font-size="1333333.000000" lengthAdjust="spacingAndGlyphs"
text-anchor="middle" opacity="0">W</text>
<g class="stroked-text"><desc>W</desc>
<path d="M75399540 56127900
L75637635 57127900
L75828112 56413615
L76018588 57127900
L76256683 56127900
" />
</g><text x="75828112.000000" y="74175520.000000"
textLength="1212381.000000" font-size="1333333.000000" lengthAdjust="spacingAndGlyphs"
text-anchor="middle" opacity="0">S</text>
<g class="stroked-text"><desc>S</desc>
<path d="M75542397 74080281
L75685254 74127900
L75923350 74127900
L76018588 74080281
L76066207 74032662
L76113826 73937424
L76113826 73842186
L76066207 73746948
L76018588 73699329
L75923350 73651710
L75732873 73604091
L75637635 73556472
L75590016 73508853
L75542397 73413615
L75542397 73318377
L75590016 73223139
L75637635 73175520
L75732873 73127900
L75970969 73127900
L76113826 73175520
" />
</g><text x="84757800.000000" y="91175520.000000"
textLength="1260000.000000" font-size="1333333.000000" lengthAdjust="spacingAndGlyphs"
text-anchor="middle" opacity="0">C</text>
<g class="stroked-text"><desc>C</desc>
<path d="M85067323 91032662
L85019704 91080281
L84876847 91127900
L84781609 91127900
L84638752 91080281
L84543514 90985043
L84495895 90889805
L84448276 90699329
L84448276 90556472
L84495895 90365996
L84543514 90270758
L84638752 90175520
L84781609 90127900
L84876847 90127900
L85019704 90175520
L85067323 90223139
" />
</g><text x="102617176.000000" y="40175520.000000"
textLength="1212381.000000" font-size="1333333.000000" lengthAdjust="spacingAndGlyphs"
text-anchor="middle" opacity="0">4</text>
<g class="stroked-text"><desc>4</desc>
<path d="M102807652 39461234
L102807652 40127900
" />
<path d="M102569556 39080281
L102331461 39794567
L102950509 39794567
" />
</g><text x="93687488.000000" y="57175520.000000"
textLength="1164762.000000" font-size="1333333.000000" lengthAdjust="spacingAndGlyphs"
text-anchor="middle" opacity="0">E</text>
<g class="stroked-text"><desc>E</desc>
<path d="M93473202 56604091
L93806535 56604091
" />
<path d="M93949392 57127900
L93473202 57127900
L93473202 56127900
L93949392 56127900
" />
</g><text x="93687488.000000" y="74175520.000000"
textLength="1260000.000000" font-size="1333333.000000" lengthAdjust="spacingAndGlyphs"
text-anchor="middle" opacity="0">D</text>
<g class="stroked-text"><desc>D</desc>
<path d="M93425583 74127900
L93425583 73127900
L93663678 73127900
L93806535 73175520
L93901773 73270758
L93949392 73365996
L93997011 73556472
L93997011 73699329
L93949392 73889805
L93901773 73985043
L93806535 74080281
L93663678 74127900
L93425583 74127900
" />
</g><text x="102617176.000000" y="91175520.000000"
textLength="1117143.000000" font-size="1333333.000000" lengthAdjust="spacingAndGlyphs"
text-anchor="middle" opacity="0">V</text>
<g class="stroked-text"><desc>V</desc>
<path d="M102283842 90127900
L102617176 91127900
L102950509 90127900
" />
</g><text x="120476552.000000" y="40175520.000000"
textLength="1212381.000000" font-size="1333333.000000" lengthAdjust="spacingAndGlyphs"
text-anchor="middle" opacity="0">5</text>
<g class="stroked-text"><desc>5</desc>
<path d="M120714647 39127900
L120238456 39127900
L120190837 39604091
L120238456 39556472
L120333694 39508853
L120571790 39508853
L120667028 39556472
L120714647 39604091
L120762266 39699329
L120762266 39937424
L120714647 40032662
L120667028 40080281
L120571790 40127900
L120333694 40127900
L120238456 40080281
L120190837 40032662
" />
</g><text x="111546864.000000" y="57175520.000000"
textLength="1260000.000000" font-size="1333333.000000" lengthAdjust="spacingAndGlyphs"
text-anchor="middle" opacity="0">R</text>
<g class="stroked-text"><desc>R</desc>
<path d="M111856387 57127900
L111523054 56651710
" />
<path d="M111284959 57127900
L111284959 56127900
L111665911 56127900
L111761149 56175520
L111808768 56223139
L111856387 56318377
L111856387 56461234
L111808768 56556472
L111761149 56604091
L111665911 56651710
L111284959 56651710
" />
</g><text x="111546864.000000" y="74175520.000000"
textLength="1117143.000000" font-size="1333333.000000" lengthAdjust="spacingAndGlyphs"
text-anchor="middle" opacity="0">F</text>
<g class="stroked-text"><desc>F</desc>
<path d="M111689721 73604091
L111356387 73604091
" />
<path d="M111356387 74127900
L111356387 73127900
L111832578 73127900
" />
</g><text x="120476552.000000" y="91175520.000000"
textLength="1260000.000000" font-size="1333333.000000" lengthAdjust="spacingAndGlyphs"
text-anchor="middle" opacity="0">B</text>
<g class="stroked-text"><desc>B</desc>
<path d="M120547980 90604091
L120690837 90651710
L120738456 90699329
L120786075 90794567
L120786075 90937424
L120738456 91032662
L120690837 91080281
L120595599 91127900
L120214647 91127900
L120214647 90127900
L120547980 90127900
L120643218 90175520
L120690837 90223139
L120738456 90318377
L120738456 90413615
L120690837 90508853
L120643218 90556472
L120547980 90604091
L120214647 90604091
" />
</g><text x="138335928.000000" y="40175520.000000"
textLength="1355238.000000" font-size="1333333.000000" lengthAdjust="spacingAndGlyphs"
text-anchor="middle" opacity="0">`~</text>
<g class="stroked-text"><desc>`~</desc>
<path d="M137883547 39080281
L138026404 39223139
" />
<path d="M138264499 39746948
L138312118 39699329
L138407356 39651710
L138597832 39746948
L138693070 39699329
L138740689 39651710
" />
</g><text x="129406240.000000" y="57175520.000000"
textLength="1021905.000000" font-size="1333333.000000" lengthAdjust="spacingAndGlyphs"
text-anchor="middle" opacity="0">T</text>
<g class="stroked-text"><desc>T</desc>
<path d="M129120525 56127900
L129691954 56127900
" />
<path d="M129406240 57127900
L129406240 56127900
" />
</g><text x="129406240.000000" y="74175520.000000"
textLength="1260000.000000" font-size="1333333.000000" lengthAdjust="spacingAndGlyphs"
text-anchor="middle" opacity="0">G</text>
<g class="stroked-text"><desc>G</desc>
<path d="M129668144 73175520
L129572906 73127900
L129430049 73127900
L129287192 73175520
L129191954 73270758
L129144335 73365996
L129096716 73556472
L129096716 73699329
L129144335 73889805
L129191954 73985043
L129287192 74080281
L129430049 74127900
L129525287 74127900
L129668144 74080281
L129715763 74032662
L129715763 73699329
L129525287 73699329
" />
</g><text x="138335928.000000" y="91175520.000000"
textLength="6736190.000000" font-size="1333333.000000" lengthAdjust="spacingAndGlyphs"
text-anchor="middle" opacity="0">L-Macro</text>
<g class="stroked-text"><desc>L-Macro</desc>
<path d="M135812118 91127900
L135335928 91127900
L135335928 90127900
" />
<path d="M136145451 90746948
L136907356 90746948
" />
<path d="M137383547 91127900
L137383547 90127900
L137716880 90842186
L138050213 90127900
L138050213 91127900
" />
<path d="M138954975 91127900
L138954975 90604091
L138907356 90508853
L138812118 90461234
L138621642 90461234
L138526404 90508853
" />
<path d="M138954975 91080281
L138859737 91127900
L138621642 91127900
L138526404 91080281
L138478785 90985043
L138478785 90889805
L138526404 90794567
L138621642 90746948
L138859737 90746948
L138954975 90699329
" />
<path d="M139859737 91080281
L139764499 91127900
L139574023 91127900
L139478785 91080281
L139431166 91032662
L139383547 90937424
L139383547 90651710
L139431166 90556472
L139478785 90508853
L139574023 90461234
L139764499 90461234
L139859737 90508853
" />
<path d="M140288308 91127900
L140288308 90461234
" />
<path d="M140288308 90651710
L140335928 90556472
L140383547 90508853
L140478785 90461234
L140574023 90461234
" />
<path d="M141050213 91127900
L140954975 91080281
L140907356 91032662
L140859737 90937424
L140859737 90651710
L140907356 90556472
L140954975 90508853
L141050213 90461234
L141193070 90461234
L141288308 90508853
L141335928 90556472
L141383547 90651710
L141383547 90937424
L141335928 91032662
L141288308 91080281
L141193070 91127900
L141050213 91127900
" />
</g><text x="147265616.000000" y="57175520.000000"
textLength="1593333.000000" font-size="1333333.000000" lengthAdjust="spacingAndGlyphs"
text-anchor="middle" opacity="0">[{</text>
<g class="stroked-text"><desc>[{</desc>
<path d="M147122758 57461234
L146884663 57461234
L146884663 56032662
L147122758 56032662
" />
<path d="M147789425 57508853
L147741806 57508853
L147646568 57461234
L147598949 57365996
L147598949 56889805
L147551330 56794567
L147456092 56746948
L147551330 56699329
L147598949 56604091
L147598949 56127900
L147646568 56032662
L147741806 55985043
L147789425 55985043
" />
</g><text x="147265616.000000" y="74175520.000000"
textLength="1212381.000000" font-size="1333333.000000" lengthAdjust="spacingAndGlyphs"
text-anchor="middle" opacity="0">;:</text>
<g class="stroked-text"><desc>;:</desc>
<path d="M147075139 74080281
L147075139 74127900
L147027520 74223139
L146979901 74270758
" />
<path d="M147027520 73508853
L147075139 73556472
L147027520 73604091
L146979901 73556472
L147027520 73508853
L147027520 73604091
" />
<path d="M147503711 74032662
L147551330 74080281
L147503711 74127900
L147456092 74080281
L147503711 74032662
L147503711 74127900
" />
<path d="M147503711 73508853
L147551330 73556472
L147503711 73604091
L147456092 73556472
L147503711 73508853
L147503711 73604091
" />
</g><text x="191914056.000000" y="40175520.000000"
textLength="1879048.000000" font-size="1333333.000000" lengthAdjust="spacingAndGlyphs"
text-anchor="middle" opacity="0">\|</text>
<g class="stroked-text"><desc>\|</desc>
<path d="M191009294 39032662
L191866436 40318377
" />
<path d="M192247389 40461234
L192247389 39032662
" />
</g><text x="182984368.000000" y="57175520.000000"
textLength="1593333.000000" font-size="1333333.000000" lengthAdjust="spacingAndGlyphs"
text-anchor="middle" opacity="0">]}</text>
<g class="stroked-text"><desc>]}</desc>
<path d="M182460558 57461234
L182698653 57461234
L182698653 56032662
L182460558 56032662
" />
<path d="M183127225 57508853
L183174844 57508853
L183270082 57461234
L183317701 57365996
L183317701 56889805
L183365320 56794567
L183460558 56746948
L183365320 56699329
L183317701 56604091
L183317701 56127900
L183270082 56032662
L183174844 55985043
L183127225 55985043
" />
</g><text x="191914056.000000" y="91175520.000000"
textLength="6926667.000000" font-size="1333333.000000" lengthAdjust="spacingAndGlyphs"
text-anchor="middle" opacity="0">R-Macro</text>
<g class="stroked-text"><desc>R-Macro</desc>
<path d="M189390246 91127900
L189056913 90651710
" />
<path d="M188818817 91127900
L188818817 90127900
L189199770 90127900
L189295008 90175520
L189342627 90223139
L189390246 90318377
L189390246 90461234
L189342627 90556472
L189295008 90604091
L189199770 90651710
L188818817 90651710
" />
<path d="M189818817 90746948
L190580722 90746948
" />
<path d="M191056913 91127900
L191056913 90127900
L191390246 90842186
L191723579 90127900
L191723579 91127900
" />
<path d="M192628341 91127900
L192628341 90604091
L192580722 90508853
L192485484 90461234
L192295008 90461234
L192199770 90508853
" />
<path d="M192628341 91080281
L192533103 91127900
L192295008 91127900
L192199770 91080281
L192152151 90985043
L192152151 90889805
L192199770 90794567
L192295008 90746948
L192533103 90746948
L192628341 90699329
" />
<path d="M193533103 91080281
L193437865 91127900
L193247389 91127900
L193152151 91080281
L193104532 91032662
L193056913 90937424
L193056913 90651710
L193104532 90556472
L193152151 90508853
L193247389 90461234
L193437865 90461234
L193533103 90508853
" />
<path d="M193961675 91127900
L193961675 90461234
" />
<path d="M193961675 90651710
L194009294 90556472
L194056913 90508853
L194152151 90461234
L194247389 90461234
" />
<path d="M194723579 91127900
L194628341 91080281
L194580722 91032662
L194533103 90937424
L194533103 90651710
L194580722 90556472
L194628341 90508853
L194723579 90461234
L194866436 90461234
L194961675 90508853
L195009294 90556472
L195056913 90651710
L195056913 90937424
L195009294 91032662
L194961675 91080281
L194866436 91127900
L194723579 91127900
" />
</g><text x="187449212.000000" y="108175520.000000"
textLength="6831429.000000" font-size="1333333.000000" lengthAdjust="spacingAndGlyphs"
text-anchor="middle" opacity="0">Center R</text>
<g class="stroked-text"><desc>Center R</desc>
<path d="M184973021 108032662
L184925402 108080281
L184782545 108127900
L184687307 108127900
L184544450 108080281
L184449212 107985043
L184401592 107889805
L184353973 107699329
L184353973 107556472
L184401592 107365996
L184449212 107270758
L184544450 107175520
L184687307 107127900
L184782545 107127900
L184925402 107175520
L184973021 107223139
" />
<path d="M185782545 108080281
L185687307 108127900
L185496831 108127900
L185401592 108080281
L185353973 107985043
L185353973 107604091
L185401592 107508853
L185496831 107461234
L185687307 107461234
L185782545 107508853
L185830164 107604091
L185830164 107699329
L185353973 107794567
" />
<path d="M186258735 107461234
L186258735 108127900
" />
<path d="M186258735 107556472
L186306354 107508853
L186401592 107461234
L186544450 107461234
L186639688 107508853
L186687307 107604091
L186687307 108127900
" />
<path d="M187020640 107461234
L187401592 107461234
" />
<path d="M187163497 107127900
L187163497 107985043
L187211116 108080281
L187306354 108127900
L187401592 108127900
" />
<path d="M188115878 108080281
L188020640 108127900
L187830164 108127900
L187734926 108080281
L187687307 107985043
L187687307 107604091
L187734926 107508853
L187830164 107461234
L188020640 107461234
L188115878 107508853
L188163497 107604091
L188163497 107699329
L187687307 107794567
" />
<path d="M188592069 108127900
L188592069 107461234
" />
<path d="M188592069 107651710
L188639688 107556472
L188687307 107508853
L188782545 107461234
L188877783 107461234
" />
<path d="M190544450 108127900
L190211116 107651710
" />
<path d="M189973021 108127900
L189973021 107127900
L190353973 107127900
L190449212 107175520
L190496831 107223139
L190544450 107318377
L190544450 107461234
L190496831 107556472
L190449212 107604091
L190353973 107651710
L189973021 107651710
" />
</g><text x="209773432.000000" y="40175520.000000"
textLength="1212381.000000" font-size="1333333.000000" lengthAdjust="spacingAndGlyphs"
text-anchor="middle" opacity="0">6</text>
<g class="stroked-text"><desc>6</desc>
<path d="M209963908 39127900
L209773432 39127900
L209678193 39175520
L209630574 39223139
L209535336 39365996
L209487717 39556472
L209487717 39937424
L209535336 40032662
L209582955 40080281
L209678193 40127900
L209868670 40127900
L209963908 40080281
L210011527 40032662
L210059146 39937424
L210059146 39699329
L210011527 39604091
L209963908 39556472
L209868670 39508853
L209678193 39508853
L209582955 39556472
L209535336 39604091
L209487717 39699329
" />
</g><text x="200843744.000000" y="57175520.000000"
textLength="1117143.000000" font-size="1333333.000000" lengthAdjust="spacingAndGlyphs"
text-anchor="middle" opacity="0">Y</text>
<g class="stroked-text"><desc>Y</desc>
<path d="M200843744 56651710
L200843744 57127900
" />
<path d="M200510410 56127900
L200843744 56651710
L201177077 56127900
" />
</g><text x="200843744.000000" y="74175520.000000"
textLength="1307619.000000" font-size="1333333.000000" lengthAdjust="spacingAndGlyphs"
text-anchor="middle" opacity="0">H</text>
<g class="stroked-text"><desc>H</desc>
<path d="M200558029 74127900
L200558029 73127900
" />
<path d="M200558029 73604091
L201129458 73604091
" />
<path d="M201129458 74127900
L201129458 73127900
" />
</g><text x="209773432.000000" y="91175520.000000"
textLength="1307619.000000" font-size="1333333.000000" lengthAdjust="spacingAndGlyphs"
text-anchor="middle" opacity="0">N</text>
<g class="stroked-text"><desc>N</desc>
<path d="M209487717 91127900
L209487717 90127900
L210059146 91127900
L210059146 90127900
" />
</g><text x="209773432.000000" y="100575520.000000"
textLength="8260000.000000" font-size="1333333.000000" lengthAdjust="spacingAndGlyphs"
text-anchor="middle" opacity="0">RSPC 1.5u</text>
<g class="stroked-text"><desc>RSPC 1.5u</desc>
<path d="M206582955 100527900
L206249622 100051710
" />
<path d="M206011527 100527900
L206011527 99527900
L206392479 99527900
L206487717 99575520
L206535336 99623139
L206582955 99718377
L206582955 99861234
L206535336 99956472
L206487717 100004091
L206392479 100051710
L206011527 100051710
" />
<path d="M206963908 100480281
L207106765 100527900
L207344860 100527900
L207440098 100480281
L207487717 100432662
L207535336 100337424
L207535336 100242186
L207487717 100146948
L207440098 100099329
L207344860 100051710
L207154384 100004091
L207059146 99956472
L207011527 99908853
L206963908 99813615
L206963908 99718377
L207011527 99623139
L207059146 99575520
L207154384 99527900
L207392479 99527900
L207535336 99575520
" />
<path d="M207963908 100527900
L207963908 99527900
L208344860 99527900
L208440098 99575520
L208487717 99623139
L208535336 99718377
L208535336 99861234
L208487717 99956472
L208440098 100004091
L208344860 100051710
L207963908 100051710
" />
<path d="M209535336 100432662
L209487717 100480281
L209344860 100527900
L209249622 100527900
L209106765 100480281
L209011527 100385043
L208963908 100289805
L208916289 100099329
L208916289 99956472
L208963908 99765996
L209011527 99670758
L209106765 99575520
L209249622 99527900
L209344860 99527900
L209487717 99575520
L209535336 99623139
" />
<path d="M211249622 100527900
L210678193 100527900
" />
<path d="M210963908 100527900
L210963908 99527900
L210868670 99670758
L210773432 99765996
L210678193 99813615
" />
<path d="M211678193 100432662
L211725812 100480281
L211678193 100527900
L211630574 100480281
L211678193 100432662
L211678193 100527900
" />
<path d="M212630574 99527900
L212154384 99527900
L212106765 100004091
L212154384 99956472
L212249622 99908853
L212487717 99908853
L212582955 99956472
L212630574 100004091
L212678193 100099329
L212678193 100337424
L212630574 100432662
L212582955 100480281
L212487717 100527900
L212249622 100527900
L212154384 100480281
L212106765 100432662
" />
<path d="M213535336 99861234
L213535336 100527900
" />
<path d="M213106765 99861234
L213106765 100385043
L213154384 100480281
L213249622 100527900
L213392479 100527900
L213487717 100480281
L213535336 100432662
" />
</g><text x="227632808.000000" y="40175520.000000"
textLength="1212381.000000" font-size="1333333.000000" lengthAdjust="spacingAndGlyphs"
text-anchor="middle" opacity="0">7</text>
<g class="stroked-text"><desc>7</desc>
<path d="M227299474 39127900
L227966141 39127900
L227537569 40127900
" />
</g><text x="218703120.000000" y="74175520.000000"
textLength="1021905.000000" font-size="1333333.000000" lengthAdjust="spacingAndGlyphs"
text-anchor="middle" opacity="0">J</text>
<g class="stroked-text"><desc>J</desc>
<path d="M218845977 73127900
L218845977 73842186
L218798358 73985043
L218703120 74080281
L218560262 74127900
L218465024 74127900
" />
</g><text x="227632808.000000" y="91175520.000000"
textLength="1402857.000000" font-size="1333333.000000" lengthAdjust="spacingAndGlyphs"
text-anchor="middle" opacity="0">M</text>
<g class="stroked-text"><desc>M</desc>
<path d="M227299474 91127900
L227299474 90127900
L227632808 90842186
L227966141 90127900
L227966141 91127900
" />
</g><text x="232097652.000000" y="108175520.000000"
textLength="3688571.000000" font-size="1333333.000000" lengthAdjust="spacingAndGlyphs"
text-anchor="middle" opacity="0">RALT</text>
<g class="stroked-text"><desc>RALT</desc>
<path d="M231192890 108127900
L230859556 107651710
" />
<path d="M230621461 108127900
L230621461 107127900
L231002413 107127900
L231097652 107175520
L231145271 107223139
L231192890 107318377
L231192890 107461234
L231145271 107556472
L231097652 107604091
L231002413 107651710
L230621461 107651710
" />
<path d="M231573842 107842186
L232050032 107842186
" />
<path d="M231478604 108127900
L231811937 107127900
L232145271 108127900
" />
<path d="M232954794 108127900
L232478604 108127900
L232478604 107127900
" />
<path d="M233145271 107127900
L233716699 107127900
" />
<path d="M233430985 108127900
L233430985 107127900
" />
</g><text x="245492187.000000" y="40175520.000000"
textLength="1212381.000000" font-size="1333333.000000" lengthAdjust="spacingAndGlyphs"
text-anchor="middle" opacity="0">8</text>
<g class="stroked-text"><desc>8</desc>
<path d="M245396948 39556472
L245301710 39508853
L245254091 39461234
L245206472 39365996
L245206472 39318377
L245254091 39223139
L245301710 39175520
L245396948 39127900
L245587425 39127900
L245682663 39175520
L245730282 39223139
L245777901 39318377
L245777901 39365996
L245730282 39461234
L245682663 39508853
L245587425 39556472
L245396948 39556472
L245301710 39604091
L245254091 39651710
L245206472 39746948
L245206472 39937424
L245254091 40032662
L245301710 40080281
L245396948 40127900
L245587425 40127900
L245682663 40080281
L245730282 40032662
L245777901 39937424
L245777901 39746948
L245730282 39651710
L245682663 39604091
L245587425 39556472
" />
</g><text x="245491992.000000" y="91175520.000000"
textLength="1498095.000000" font-size="1333333.000000" lengthAdjust="spacingAndGlyphs"
text-anchor="middle" opacity="0">&lt;</text>
<g class="stroked-text"><desc>&lt;</desc>
<path d="M245872944 90461234
L245111039 90746948
L245872944 91032662
" />
</g><text x="263351560.000000" y="40175520.000000"
textLength="1212381.000000" font-size="1333333.000000" lengthAdjust="spacingAndGlyphs"
text-anchor="middle" opacity="0">9</text>
<g class="stroked-text"><desc>9</desc>
<path d="M263161083 40127900
L263351560 40127900
L263446798 40080281
L263494417 40032662
L263589655 39889805
L263637274 39699329
L263637274 39318377
L263589655 39223139
L263542036 39175520
L263446798 39127900
L263256321 39127900
L263161083 39175520
L263113464 39223139
L263065845 39318377
L263065845 39556472
L263113464 39651710
L263161083 39699329
L263256321 39746948
L263446798 39746948
L263542036 39699329
L263589655 39651710
L263637274 39556472
" />
</g><text x="254421672.000000" y="74175520.000000"
textLength="1069524.000000" font-size="1333333.000000" lengthAdjust="spacingAndGlyphs"
text-anchor="middle" opacity="0">L</text>
<g class="stroked-text"><desc>L</desc>
<path d="M254731195 74127900
L254255005 74127900
L254255005 73127900
" />
</g><text x="263351560.000000" y="91175520.000000"
textLength="1498095.000000" font-size="1333333.000000" lengthAdjust="spacingAndGlyphs"
text-anchor="middle" opacity="0">&gt;</text>
<g class="stroked-text"><desc>&gt;</desc>
<path d="M262970607 90461234
L263732512 90746948
L262970607 91032662
" />
</g><text x="281210937.000000" y="40175520.000000"
textLength="1212381.000000" font-size="1333333.000000" lengthAdjust="spacingAndGlyphs"
text-anchor="middle" opacity="0">0</text>
<g class="stroked-text"><desc>0</desc>
<path d="M281163317 39127900
L281258556 39127900
L281353794 39175520
L281401413 39223139
L281449032 39318377
L281496651 39508853
L281496651 39746948
L281449032 39937424
L281401413 40032662
L281353794 40080281
L281258556 40127900
L281163317 40127900
L281068079 40080281
L281020460 40032662
L280972841 39937424
L280925222 39746948
L280925222 39508853
L280972841 39318377
L281020460 39223139
L281068079 39175520
L281163317 39127900
" />
</g><text x="272281032.000000" y="57175520.000000"
textLength="1260000.000000" font-size="1333333.000000" lengthAdjust="spacingAndGlyphs"
text-anchor="middle" opacity="0">P</text>
<g class="stroked-text"><desc>P</desc>
<path d="M272019127 57127900
L272019127 56127900
L272400079 56127900
L272495317 56175520
L272542936 56223139
L272590555 56318377
L272590555 56461234
L272542936 56556472
L272495317 56604091
L272400079 56651710
L272019127 56651710
" />
</g><text x="272281032.000000" y="74175520.000000"
textLength="1498095.000000" font-size="1333333.000000" lengthAdjust="spacingAndGlyphs"
text-anchor="middle" opacity="0">-</text>
<g class="stroked-text"><desc>-</desc>
<path d="M271900079 73746948
L272661984 73746948
" />
</g><text x="281210936.000000" y="91175520.000000"
textLength="1307619.000000" font-size="1333333.000000" lengthAdjust="spacingAndGlyphs"
text-anchor="middle" opacity="0">/</text>
<g class="stroked-text"><desc>/</desc>
<path d="M281639507 90080281
L280782364 91365996
" />
</g><text x="299070312.000000" y="40175520.000000"
textLength="1498095.000000" font-size="1333333.000000" lengthAdjust="spacingAndGlyphs"
text-anchor="middle" opacity="0">=</text>
<g class="stroked-text"><desc>=</desc>
<path d="M298689359 39604091
L299451264 39604091
" />
<path d="M299451264 39889805
L298689359 39889805
" />
</g><text x="299070312.000000" y="91175520.000000"
textLength="3831429.000000" font-size="1333333.000000" lengthAdjust="spacingAndGlyphs"
text-anchor="middle" opacity="0">RSFT</text>
<g class="stroked-text"><desc>RSFT</desc>
<path d="M298094121 91127900
L297760788 90651710
" />
<path d="M297522692 91127900
L297522692 90127900
L297903645 90127900
L297998883 90175520
L298046502 90223139
L298094121 90318377
L298094121 90461234
L298046502 90556472
L297998883 90604091
L297903645 90651710
L297522692 90651710
" />
<path d="M298475073 91080281
L298617931 91127900
L298856026 91127900
L298951264 91080281
L298998883 91032662
L299046502 90937424
L299046502 90842186
L298998883 90746948
L298951264 90699329
L298856026 90651710
L298665550 90604091
L298570312 90556472
L298522692 90508853
L298475073 90413615
L298475073 90318377
L298522692 90223139
L298570312 90175520
L298665550 90127900
L298903645 90127900
L299046502 90175520
" />
<path d="M299808407 90604091
L299475073 90604091
" />
<path d="M299475073 91127900
L299475073 90127900
L299951264 90127900
" />
<path d="M300189359 90127900
L300760788 90127900
" />
<path d="M300475073 91127900
L300475073 90127900
" />
</g><text x="57968736.000000" y="74175520.000000"
textLength="1117143.000000" font-size="1333333.000000" lengthAdjust="spacingAndGlyphs"
text-anchor="middle" opacity="0">A</text>
<g class="stroked-text"><desc>A</desc>
<path d="M57730640 73842186
L58206831 73842186
" />
<path d="M57635402 74127900
L57968736 73127900
L58302069 74127900
" />
</g><text x="218703120.000000" y="57175520.000000"
textLength="1307619.000000" font-size="1333333.000000" lengthAdjust="spacingAndGlyphs"
text-anchor="middle" opacity="0">U</text>
<g class="stroked-text"><desc>U</desc>
<path d="M218417405 56127900
L218417405 56937424
L218465024 57032662
L218512643 57080281
L218607881 57127900
L218798358 57127900
L218893596 57080281
L218941215 57032662
L218988834 56937424
L218988834 56127900
" />
</g><text x="182984368.000000" y="74175520.000000"
textLength="1498095.000000" font-size="1333333.000000" lengthAdjust="spacingAndGlyphs"
text-anchor="middle" opacity="0">'"</text>
<g class="stroked-text"><desc>'"</desc>
<path d="M182651034 73127900
L182555796 73318377
" />
<path d="M183031987 73127900
L183031987 73318377
" />
<path d="M183412939 73127900
L183412939 73318377
" />
</g><text x="35644516.000000" y="57175520.000000"
textLength="6926667.000000" font-size="1333333.000000" lengthAdjust="spacingAndGlyphs"
text-anchor="middle" opacity="0">TAB 1.5u</text>
<g class="stroked-text"><desc>TAB 1.5u</desc>
<path d="M32406420 56127900
L32977849 56127900
" />
<path d="M32692135 57127900
L32692135 56127900
" />
<path d="M33263563 56842186
L33739754 56842186
" />
<path d="M33168325 57127900
L33501658 56127900
L33834992 57127900
" />
<path d="M34501658 56604091
L34644516 56651710
L34692135 56699329
L34739754 56794567
L34739754 56937424
L34692135 57032662
L34644516 57080281
L34549277 57127900
L34168325 57127900
L34168325 56127900
L34501658 56127900
L34596896 56175520
L34644516 56223139
L34692135 56318377
L34692135 56413615
L34644516 56508853
L34596896 56556472
L34501658 56604091
L34168325 56604091
" />
<path d="M36454039 57127900
L35882611 57127900
" />
<path d="M36168325 57127900
L36168325 56127900
L36073087 56270758
L35977849 56365996
L35882611 56413615
" />
<path d="M36882611 57032662
L36930230 57080281
L36882611 57127900
L36834992 57080281
L36882611 57032662
L36882611 57127900
" />
<path d="M37834992 56127900
L37358801 56127900
L37311182 56604091
L37358801 56556472
L37454039 56508853
L37692135 56508853
L37787373 56556472
L37834992 56604091
L37882611 56699329
L37882611 56937424
L37834992 57032662
L37787373 57080281
L37692135 57127900
L37454039 57127900
L37358801 57080281
L37311182 57032662
" />
<path d="M38739754 56461234
L38739754 57127900
" />
<path d="M38311182 56461234
L38311182 56985043
L38358801 57080281
L38454039 57127900
L38596896 57127900
L38692135 57080281
L38739754 57032662
" />
</g><text x="31179672.000000" y="40175520.000000"
textLength="3117143.000000" font-size="1333333.000000" lengthAdjust="spacingAndGlyphs"
text-anchor="middle" opacity="0">ESC</text>
<g class="stroked-text"><desc>ESC</desc>
<path d="M29989195 39604091
L30322529 39604091
" />
<path d="M30465386 40127900
L29989195 40127900
L29989195 39127900
L30465386 39127900
" />
<path d="M30846338 40080281
L30989195 40127900
L31227291 40127900
L31322529 40080281
L31370148 40032662
L31417767 39937424
L31417767 39842186
L31370148 39746948
L31322529 39699329
L31227291 39651710
L31036814 39604091
L30941576 39556472
L30893957 39508853
L30846338 39413615
L30846338 39318377
L30893957 39223139
L30941576 39175520
L31036814 39127900
L31274910 39127900
L31417767 39175520
" />
<path d="M32417767 40032662
L32370148 40080281
L32227291 40127900
L32132052 40127900
L31989195 40080281
L31893957 39985043
L31846338 39889805
L31798719 39699329
L31798719 39556472
L31846338 39365996
L31893957 39270758
L31989195 39175520
L32132052 39127900
L32227291 39127900
L32370148 39175520
L32417767 39223139
" />
</g><text x="31179680.000000" y="91175520.000000"
textLength="3640952.000000" font-size="1333333.000000" lengthAdjust="spacingAndGlyphs"
text-anchor="middle" opacity="0">LSFT</text>
<g class="stroked-text"><desc>LSFT</desc>
<path d="M30203489 91127900
L29727299 91127900
L29727299 90127900
" />
<path d="M30489203 91080281
L30632060 91127900
L30870156 91127900
L30965394 91080281
L31013013 91032662
L31060632 90937424
L31060632 90842186
L31013013 90746948
L30965394 90699329
L30870156 90651710
L30679680 90604091
L30584441 90556472
L30536822 90508853
L30489203 90413615
L30489203 90318377
L30536822 90223139
L30584441 90175520
L30679680 90127900
L30917775 90127900
L31060632 90175520
" />
<path d="M31822537 90604091
L31489203 90604091
" />
<path d="M31489203 91127900
L31489203 90127900
L31965394 90127900
" />
<path d="M32203489 90127900
L32774918 90127900
" />
<path d="M32489203 91127900
L32489203 90127900
" />
</g><text x="120476552.000000" y="100575520.000000"
textLength="8069524.000000" font-size="1333333.000000" lengthAdjust="spacingAndGlyphs"
text-anchor="middle" opacity="0">LSPC 1.5u</text>
<g class="stroked-text"><desc>LSPC 1.5u</desc>
<path d="M117286075 100527900
L116809885 100527900
L116809885 99527900
" />
<path d="M117571790 100480281
L117714647 100527900
L117952742 100527900
L118047980 100480281
L118095599 100432662
L118143218 100337424
L118143218 100242186
L118095599 100146948
L118047980 100099329
L117952742 100051710
L117762266 100004091
L117667028 99956472
L117619409 99908853
L117571790 99813615
L117571790 99718377
L117619409 99623139
L117667028 99575520
L117762266 99527900
L118000361 99527900
L118143218 99575520
" />
<path d="M118571790 100527900
L118571790 99527900
L118952742 99527900
L119047980 99575520
L119095599 99623139
L119143218 99718377
L119143218 99861234
L119095599 99956472
L119047980 100004091
L118952742 100051710
L118571790 100051710
" />
<path d="M120143218 100432662
L120095599 100480281
L119952742 100527900
L119857504 100527900
L119714647 100480281
L119619409 100385043
L119571790 100289805
L119524171 100099329
L119524171 99956472
L119571790 99765996
L119619409 99670758
L119714647 99575520
L119857504 99527900
L119952742 99527900
L120095599 99575520
L120143218 99623139
" />
<path d="M121857504 100527900
L121286075 100527900
" />
<path d="M121571790 100527900
L121571790 99527900
L121476552 99670758
L121381313 99765996
L121286075 99813615
" />
<path d="M122286075 100432662
L122333694 100480281
L122286075 100527900
L122238456 100480281
L122286075 100432662
L122286075 100527900
" />
<path d="M123238456 99527900
L122762266 99527900
L122714647 100004091
L122762266 99956472
L122857504 99908853
L123095599 99908853
L123190837 99956472
L123238456 100004091
L123286075 100099329
L123286075 100337424
L123238456 100432662
L123190837 100480281
L123095599 100527900
L122857504 100527900
L122762266 100480281
L122714647 100432662
" />
<path d="M124143218 99861234
L124143218 100527900
" />
<path d="M123714647 99861234
L123714647 100385043
L123762266 100480281
L123857504 100527900
L124000361 100527900
L124095599 100480281
L124143218 100432662
" />
</g><text x="142800772.000000" y="108175520.000000"
textLength="6640952.000000" font-size="1333333.000000" lengthAdjust="spacingAndGlyphs"
text-anchor="middle" opacity="0">Center L</text>
<g class="stroked-text"><desc>Center L</desc>
<path d="M140419819 108032662
L140372200 108080281
L140229343 108127900
L140134105 108127900
L139991248 108080281
L139896010 107985043
L139848391 107889805
L139800772 107699329
L139800772 107556472
L139848391 107365996
L139896010 107270758
L139991248 107175520
L140134105 107127900
L140229343 107127900
L140372200 107175520
L140419819 107223139
" />
<path d="M141229343 108080281
L141134105 108127900
L140943629 108127900
L140848391 108080281
L140800772 107985043
L140800772 107604091
L140848391 107508853
L140943629 107461234
L141134105 107461234
L141229343 107508853
L141276962 107604091
L141276962 107699329
L140800772 107794567
" />
<path d="M141705533 107461234
L141705533 108127900
" />
<path d="M141705533 107556472
L141753152 107508853
L141848391 107461234
L141991248 107461234
L142086486 107508853
L142134105 107604091
L142134105 108127900
" />
<path d="M142467438 107461234
L142848391 107461234
" />
<path d="M142610295 107127900
L142610295 107985043
L142657914 108080281
L142753152 108127900
L142848391 108127900
" />
<path d="M143562676 108080281
L143467438 108127900
L143276962 108127900
L143181724 108080281
L143134105 107985043
L143134105 107604091
L143181724 107508853
L143276962 107461234
L143467438 107461234
L143562676 107508853
L143610295 107604091
L143610295 107699329
L143134105 107794567
" />
<path d="M144038867 108127900
L144038867 107461234
" />
<path d="M144038867 107651710
L144086486 107556472
L144134105 107508853
L144229343 107461234
L144324581 107461234
" />
<path d="M145896010 108127900
L145419819 108127900
L145419819 107127900
" />
</g><text x="236562312.000000" y="74175520.000000"
textLength="1260000.000000" font-size="1333333.000000" lengthAdjust="spacingAndGlyphs"
text-anchor="middle" opacity="0">K</text>
<g class="stroked-text"><desc>K</desc>
<path d="M236300407 74127900
L236300407 73127900
" />
<path d="M236871835 74127900
L236443264 73556472
" />
<path d="M236871835 73127900
L236300407 73699329
" />
</g><text x="254421872.000000" y="108175520.000000"
textLength="7831429.000000" font-size="1333333.000000" lengthAdjust="spacingAndGlyphs"
text-anchor="middle" opacity="0">RGUI 1.5u</text>
<g class="stroked-text"><desc>RGUI 1.5u</desc>
<path d="M251445681 108127900
L251112348 107651710
" />
<path d="M250874252 108127900
L250874252 107127900
L251255205 107127900
L251350443 107175520
L251398062 107223139
L251445681 107318377
L251445681 107461234
L251398062 107556472
L251350443 107604091
L251255205 107651710
L250874252 107651710
" />
<path d="M252398062 107175520
L252302824 107127900
L252159967 107127900
L252017110 107175520
L251921872 107270758
L251874252 107365996
L251826633 107556472
L251826633 107699329
L251874252 107889805
L251921872 107985043
L252017110 108080281
L252159967 108127900
L252255205 108127900
L252398062 108080281
L252445681 108032662
L252445681 107699329
L252255205 107699329
" />
<path d="M252874252 107127900
L252874252 107937424
L252921872 108032662
L252969491 108080281
L253064729 108127900
L253255205 108127900
L253350443 108080281
L253398062 108032662
L253445681 107937424
L253445681 107127900
" />
<path d="M253921872 108127900
L253921872 107127900
" />
<path d="M255683776 108127900
L255112348 108127900
" />
<path d="M255398062 108127900
L255398062 107127900
L255302824 107270758
L255207586 107365996
L255112348 107413615
" />
<path d="M256112348 108032662
L256159967 108080281
L256112348 108127900
L256064729 108080281
L256112348 108032662
L256112348 108127900
" />
<path d="M257064729 107127900
L256588538 107127900
L256540919 107604091
L256588538 107556472
L256683776 107508853
L256921872 107508853
L257017110 107556472
L257064729 107604091
L257112348 107699329
L257112348 107937424
L257064729 108032662
L257017110 108080281
L256921872 108127900
L256683776 108127900
L256588538 108080281
L256540919 108032662
" />
<path d="M257969491 107461234
L257969491 108127900
" />
<path d="M257540919 107461234
L257540919 107985043
L257588538 108080281
L257683776 108127900
L257826633 108127900
L257921872 108080281
L257969491 108032662
" />
</g><text x="75828112.000000" y="108175520.000000"
textLength="7640952.000000" font-size="1333333.000000" lengthAdjust="spacingAndGlyphs"
text-anchor="middle" opacity="0">LGUI 1.5u</text>
<g class="stroked-text"><desc>LGUI 1.5u</desc>
<path d="M72851921 108127900
L72375731 108127900
L72375731 107127900
" />
<path d="M73709064 107175520
L73613826 107127900
L73470969 107127900
L73328112 107175520
L73232873 107270758
L73185254 107365996
L73137635 107556472
L73137635 107699329
L73185254 107889805
L73232873 107985043
L73328112 108080281
L73470969 108127900
L73566207 108127900
L73709064 108080281
L73756683 108032662
L73756683 107699329
L73566207 107699329
" />
<path d="M74185254 107127900
L74185254 107937424
L74232873 108032662
L74280492 108080281
L74375731 108127900
L74566207 108127900
L74661445 108080281
L74709064 108032662
L74756683 107937424
L74756683 107127900
" />
<path d="M75232873 108127900
L75232873 107127900
" />
<path d="M76994778 108127900
L76423350 108127900
" />
<path d="M76709064 108127900
L76709064 107127900
L76613826 107270758
L76518588 107365996
L76423350 107413615
" />
<path d="M77423350 108032662
L77470969 108080281
L77423350 108127900
L77375731 108080281
L77423350 108032662
L77423350 108127900
" />
<path d="M78375731 107127900
L77899540 107127900
L77851921 107604091
L77899540 107556472
L77994778 107508853
L78232873 107508853
L78328112 107556472
L78375731 107604091
L78423350 107699329
L78423350 107937424
L78375731 108032662
L78328112 108080281
L78232873 108127900
L77994778 108127900
L77899540 108080281
L77851921 108032662
" />
<path d="M79280492 107461234
L79280492 108127900
" />
<path d="M78851921 107461234
L78851921 107985043
L78899540 108080281
L78994778 108127900
L79137635 108127900
L79232873 108080281
L79280492 108032662
" />
</g><text x="98152332.000000" y="108175520.000000"
textLength="3498095.000000" font-size="1333333.000000" lengthAdjust="spacingAndGlyphs"
text-anchor="middle" opacity="0">LALT</text>
<g class="stroked-text"><desc>LALT</desc>
<path d="M97247570 108127900
L96771379 108127900
L96771379 107127900
" />
<path d="M97533284 107842186
L98009474 107842186
" />
<path d="M97438046 108127900
L97771379 107127900
L98104712 108127900
" />
<path d="M98914236 108127900
L98438046 108127900
L98438046 107127900
" />
<path d="M99104712 107127900
L99676141 107127900
" />
<path d="M99390427 108127900
L99390427 107127900
" />
</g><text x="236562312.000000" y="57175520.000000"
textLength="736190.000000" font-size="1333333.000000" lengthAdjust="spacingAndGlyphs"
text-anchor="middle" opacity="0">I</text>
<g class="stroked-text"><desc>I</desc>
<path d="M236562312 57127900
L236562312 56127900
" />
</g><text x="294605232.000000" y="57175520.000000"
textLength="6260000.000000" font-size="1333333.000000" lengthAdjust="spacingAndGlyphs"
text-anchor="middle" opacity="0">BS 1.5u</text>
<g class="stroked-text"><desc>BS 1.5u</desc>
<path d="M292176660 56604091
L292319517 56651710
L292367136 56699329
L292414755 56794567
L292414755 56937424
L292367136 57032662
L292319517 57080281
L292224279 57127900
L291843327 57127900
L291843327 56127900
L292176660 56127900
L292271898 56175520
L292319517 56223139
L292367136 56318377
L292367136 56413615
L292319517 56508853
L292271898 56556472
L292176660 56604091
L291843327 56604091
" />
<path d="M292795708 57080281
L292938565 57127900
L293176660 57127900
L293271898 57080281
L293319517 57032662
L293367136 56937424
L293367136 56842186
L293319517 56746948
L293271898 56699329
L293176660 56651710
L292986184 56604091
L292890946 56556472
L292843327 56508853
L292795708 56413615
L292795708 56318377
L292843327 56223139
L292890946 56175520
L292986184 56127900
L293224279 56127900
L293367136 56175520
" />
<path d="M295081422 57127900
L294509993 57127900
" />
<path d="M294795708 57127900
L294795708 56127900
L294700470 56270758
L294605232 56365996
L294509993 56413615
" />
<path d="M295509993 57032662
L295557612 57080281
L295509993 57127900
L295462374 57080281
L295509993 57032662
L295509993 57127900
" />
<path d="M296462374 56127900
L295986184 56127900
L295938565 56604091
L295986184 56556472
L296081422 56508853
L296319517 56508853
L296414755 56556472
L296462374 56604091
L296509993 56699329
L296509993 56937424
L296462374 57032662
L296414755 57080281
L296319517 57127900
L296081422 57127900
L295986184 57080281
L295938565 57032662
" />
<path d="M297367136 56461234
L297367136 57127900
" />
<path d="M296938565 56461234
L296938565 56985043
L296986184 57080281
L297081422 57127900
L297224279 57127900
L297319517 57080281
L297367136 57032662
" />
</g><text x="294605232.000000" y="74175520.000000"
textLength="8164762.000000" font-size="1333333.000000" lengthAdjust="spacingAndGlyphs"
text-anchor="middle" opacity="0">Enter 1.5u</text>
<g class="stroked-text"><desc>Enter 1.5u</desc>
<path d="M290890946 73604091
L291224279 73604091
" />
<path d="M291367136 74127900
L290890946 74127900
L290890946 73127900
L291367136 73127900
" />
<path d="M291795708 73461234
L291795708 74127900
" />
<path d="M291795708 73556472
L291843327 73508853
L291938565 73461234
L292081422 73461234
L292176660 73508853
L292224279 73604091
L292224279 74127900
" />
<path d="M292557612 73461234
L292938565 73461234
" />
<path d="M292700470 73127900
L292700470 73985043
L292748089 74080281
L292843327 74127900
L292938565 74127900
" />
<path d="M293652851 74080281
L293557612 74127900
L293367136 74127900
L293271898 74080281
L293224279 73985043
L293224279 73604091
L293271898 73508853
L293367136 73461234
L293557612 73461234
L293652851 73508853
L293700470 73604091
L293700470 73699329
L293224279 73794567
" />
<path d="M294129041 74127900
L294129041 73461234
" />
<path d="M294129041 73651710
L294176660 73556472
L294224279 73508853
L294319517 73461234
L294414755 73461234
" />
<path d="M296033803 74127900
L295462374 74127900
" />
<path d="M295748089 74127900
L295748089 73127900
L295652851 73270758
L295557612 73365996
L295462374 73413615
" />
<path d="M296462374 74032662
L296509993 74080281
L296462374 74127900
L296414755 74080281
L296462374 74032662
L296462374 74127900
" />
<path d="M297414755 73127900
L296938565 73127900
L296890946 73604091
L296938565 73556472
L297033803 73508853
L297271898 73508853
L297367136 73556472
L297414755 73604091
L297462374 73699329
L297462374 73937424
L297414755 74032662
L297367136 74080281
L297271898 74127900
L297033803 74127900
L296938565 74080281
L296890946 74032662
" />
<path d="M298319517 73461234
L298319517 74127900
" />
<path d="M297890946 73461234
L297890946 73985043
L297938565 74080281
L298033803 74127900
L298176660 74127900
L298271898 74080281
L298319517 74032662
" />
</g><text x="254421672.000000" y="57175520.000000"
textLength="1307619.000000" font-size="1333333.000000" lengthAdjust="spacingAndGlyphs"
text-anchor="middle" opacity="0">O</text>
<g class="stroked-text"><desc>O</desc>
<path d="M254326433 56127900
L254516910 56127900
L254612148 56175520
L254707386 56270758
L254755005 56461234
L254755005 56794567
L254707386 56985043
L254612148 57080281
L254516910 57127900
L254326433 57127900
L254231195 57080281
L254135957 56985043
L254088338 56794567
L254088338 56461234
L254135957 56270758
L254231195 56175520
L254326433 56127900
" />
</g><text x="35644516.000000" y="74175520.000000"
textLength="7688571.000000" font-size="1333333.000000" lengthAdjust="spacingAndGlyphs"
text-anchor="middle" opacity="0">LCTL 1.5u</text>
<g class="stroked-text"><desc>LCTL 1.5u</desc>
<path d="M32644515 74127900
L32168325 74127900
L32168325 73127900
" />
<path d="M33549277 74032662
L33501658 74080281
L33358801 74127900
L33263563 74127900
L33120706 74080281
L33025468 73985043
L32977849 73889805
L32930230 73699329
L32930230 73556472
L32977849 73365996
L33025468 73270758
L33120706 73175520
L33263563 73127900
L33358801 73127900
L33501658 73175520
L33549277 73223139
" />
<path d="M33834992 73127900
L34406420 73127900
" />
<path d="M34120706 74127900
L34120706 73127900
" />
<path d="M35215944 74127900
L34739754 74127900
L34739754 73127900
" />
<path d="M36834992 74127900
L36263563 74127900
" />
<path d="M36549277 74127900
L36549277 73127900
L36454039 73270758
L36358801 73365996
L36263563 73413615
" />
<path d="M37263563 74032662
L37311182 74080281
L37263563 74127900
L37215944 74080281
L37263563 74032662
L37263563 74127900
" />
<path d="M38215944 73127900
L37739754 73127900
L37692135 73604091
L37739754 73556472
L37834992 73508853
L38073087 73508853
L38168325 73556472
L38215944 73604091
L38263563 73699329
L38263563 73937424
L38215944 74032662
L38168325 74080281
L38073087 74127900
L37834992 74127900
L37739754 74080281
L37692135 74032662
" />
<path d="M39120706 73461234
L39120706 74127900
" />
<path d="M38692135 73461234
L38692135 73985043
L38739754 74080281
L38834992 74127900
L38977849 74127900
L39073087 74080281
L39120706 74032662
" />
</g><text x="156195304.000000" y="40175520.000000"
textLength="3021905.000000" font-size="1333333.000000" lengthAdjust="spacingAndGlyphs"
text-anchor="middle" opacity="0">R1L</text>
<g class="stroked-text"><desc>R1L</desc>
<path d="M155623875 40127900
L155290542 39651710
" />
<path d="M155052446 40127900
L155052446 39127900
L155433399 39127900
L155528637 39175520
L155576256 39223139
L155623875 39318377
L155623875 39461234
L155576256 39556472
L155528637 39604091
L155433399 39651710
L155052446 39651710
" />
<path d="M156576256 40127900
L156004827 40127900
" />
<path d="M156290542 40127900
L156290542 39127900
L156195304 39270758
L156100065 39365996
L156004827 39413615
" />
<path d="M157481018 40127900
L157004827 40127900
L157004827 39127900
" />
</g><text x="174054680.000000" y="91175520.000000"
textLength="3212381.000000" font-size="1333333.000000" lengthAdjust="spacingAndGlyphs"
text-anchor="middle" opacity="0">R4R</text>
<g class="stroked-text"><desc>R4R</desc>
<path d="M173388013 91127900
L173054680 90651710
" />
<path d="M172816584 91127900
L172816584 90127900
L173197537 90127900
L173292775 90175520
L173340394 90223139
L173388013 90318377
L173388013 90461234
L173340394 90556472
L173292775 90604091
L173197537 90651710
L172816584 90651710
" />
<path d="M174245156 90461234
L174245156 91127900
" />
<path d="M174007060 90080281
L173768965 90794567
L174388013 90794567
" />
<path d="M175340394 91127900
L175007060 90651710
" />
<path d="M174768965 91127900
L174768965 90127900
L175149918 90127900
L175245156 90175520
L175292775 90223139
L175340394 90318377
L175340394 90461234
L175292775 90556472
L175245156 90604091
L175149918 90651710
L174768965 90651710
" />
</g><text x="174054680.000000" y="40175520.000000"
textLength="3212381.000000" font-size="1333333.000000" lengthAdjust="spacingAndGlyphs"
text-anchor="middle" opacity="0">R1R</text>
<g class="stroked-text"><desc>R1R</desc>
<path d="M173388013 40127900
L173054680 39651710
" />
<path d="M172816584 40127900
L172816584 39127900
L173197537 39127900
L173292775 39175520
L173340394 39223139
L173388013 39318377
L173388013 39461234
L173340394 39556472
L173292775 39604091
L173197537 39651710
L172816584 39651710
" />
<path d="M174340394 40127900
L173768965 40127900
" />
<path d="M174054680 40127900
L174054680 39127900
L173959441 39270758
L173864203 39365996
L173768965 39413615
" />
<path d="M175340394 40127900
L175007060 39651710
" />
<path d="M174768965 40127900
L174768965 39127900
L175149918 39127900
L175245156 39175520
L175292775 39223139
L175340394 39318377
L175340394 39461234
L175292775 39556472
L175245156 39604091
L175149918 39651710
L174768965 39651710
" />
</g><text x="165124992.000000" y="108175520.000000"
textLength="9117143.000000" font-size="1333333.000000" lengthAdjust="spacingAndGlyphs"
text-anchor="middle" opacity="0">Center 1.5u</text>
<g class="stroked-text"><desc>Center 1.5u</desc>
<path d="M161505944 108032662
L161458325 108080281
L161315468 108127900
L161220230 108127900
L161077372 108080281
L160982134 107985043
L160934515 107889805
L160886896 107699329
L160886896 107556472
L160934515 107365996
L160982134 107270758
L161077372 107175520
L161220230 107127900
L161315468 107127900
L161458325 107175520
L161505944 107223139
" />
<path d="M162315468 108080281
L162220230 108127900
L162029753 108127900
L161934515 108080281
L161886896 107985043
L161886896 107604091
L161934515 107508853
L162029753 107461234
L162220230 107461234
L162315468 107508853
L162363087 107604091
L162363087 107699329
L161886896 107794567
" />
<path d="M162791658 107461234
L162791658 108127900
" />
<path d="M162791658 107556472
L162839277 107508853
L162934515 107461234
L163077372 107461234
L163172611 107508853
L163220230 107604091
L163220230 108127900
" />
<path d="M163553563 107461234
L163934515 107461234
" />
<path d="M163696420 107127900
L163696420 107985043
L163744039 108080281
L163839277 108127900
L163934515 108127900
" />
<path d="M164648801 108080281
L164553563 108127900
L164363087 108127900
L164267849 108080281
L164220230 107985043
L164220230 107604091
L164267849 107508853
L164363087 107461234
L164553563 107461234
L164648801 107508853
L164696420 107604091
L164696420 107699329
L164220230 107794567
" />
<path d="M165124992 108127900
L165124992 107461234
" />
<path d="M165124992 107651710
L165172611 107556472
L165220230 107508853
L165315468 107461234
L165410706 107461234
" />
<path d="M167029753 108127900
L166458325 108127900
" />
<path d="M166744039 108127900
L166744039 107127900
L166648801 107270758
L166553563 107365996
L166458325 107413615
" />
<path d="M167458325 108032662
L167505944 108080281
L167458325 108127900
L167410706 108080281
L167458325 108032662
L167458325 108127900
" />
<path d="M168410706 107127900
L167934515 107127900
L167886896 107604091
L167934515 107556472
L168029753 107508853
L168267849 107508853
L168363087 107556472
L168410706 107604091
L168458325 107699329
L168458325 107937424
L168410706 108032662
L168363087 108080281
L168267849 108127900
L168029753 108127900
L167934515 108080281
L167886896 108032662
" />
<path d="M169315468 107461234
L169315468 108127900
" />
<path d="M168886896 107461234
L168886896 107985043
L168934515 108080281
L169029753 108127900
L169172611 108127900
L169267849 108080281
L169315468 108032662
" />
</g><text x="156195304.000000" y="91175520.000000"
textLength="3021905.000000" font-size="1333333.000000" lengthAdjust="spacingAndGlyphs"
text-anchor="middle" opacity="0">R4L</text>
<g class="stroked-text"><desc>R4L</desc>
<path d="M155623875 91127900
L155290542 90651710
" />
<path d="M155052446 91127900
L155052446 90127900
L155433399 90127900
L155528637 90175520
L155576256 90223139
L155623875 90318377
L155623875 90461234
L155576256 90556472
L155528637 90604091
L155433399 90651710
L155052446 90651710
" />
<path d="M156481018 90461234
L156481018 91127900
" />
<path d="M156242923 90080281
L156004827 90794567
L156623875 90794567
" />
<path d="M157481018 91127900
L157004827 91127900
L157004827 90127900
" />
</g><text x="165124992.000000" y="74175520.000000"
textLength="3212381.000000" font-size="1333333.000000" lengthAdjust="spacingAndGlyphs"
text-anchor="middle" opacity="0">R3C</text>
<g class="stroked-text"><desc>R3C</desc>
<path d="M164458325 74127900
L164124992 73651710
" />
<path d="M163886896 74127900
L163886896 73127900
L164267849 73127900
L164363087 73175520
L164410706 73223139
L164458325 73318377
L164458325 73461234
L164410706 73556472
L164363087 73604091
L164267849 73651710
L163886896 73651710
" />
<path d="M164791658 73127900
L165410706 73127900
L165077372 73508853
L165220230 73508853
L165315468 73556472
L165363087 73604091
L165410706 73699329
L165410706 73937424
L165363087 74032662
L165315468 74080281
L165220230 74127900
L164934515 74127900
L164839277 74080281
L164791658 74032662
" />
<path d="M166410706 74032662
L166363087 74080281
L166220230 74127900
L166124992 74127900
L165982134 74080281
L165886896 73985043
L165839277 73889805
L165791658 73699329
L165791658 73556472
L165839277 73365996
L165886896 73270758
L165982134 73175520
L166124992 73127900
L166220230 73127900
L166363087 73175520
L166410706 73223139
" />
</g><text x="165124992.000000" y="57175520.000000"
textLength="3212381.000000" font-size="1333333.000000" lengthAdjust="spacingAndGlyphs"
text-anchor="middle" opacity="0">R2C</text>
<g class="stroked-text"><desc>R2C</desc>
<path d="M164458325 57127900
L164124992 56651710
" />
<path d="M163886896 57127900
L163886896 56127900
L164267849 56127900
L164363087 56175520
L164410706 56223139
L164458325 56318377
L164458325 56461234
L164410706 56556472
L164363087 56604091
L164267849 56651710
L163886896 56651710
" />
<path d="M164839277 56223139
L164886896 56175520
L164982134 56127900
L165220230 56127900
L165315468 56175520
L165363087 56223139
L165410706 56318377
L165410706 56413615
L165363087 56556472
L164791658 57127900
L165410706 57127900
" />
<path d="M166410706 57032662
L166363087 57080281
L166220230 57127900
L166124992 57127900
L165982134 57080281
L165886896 56985043
L165839277 56889805
L165791658 56699329
L165791658 56556472
L165839277 56365996
L165886896 56270758
L165982134 56175520
L166124992 56127900
L166220230 56127900
L166363087 56175520
L166410706 56223139
" />
</g><g >
</g>
<g >
</g>
<g >
</g>
<g >
</g>
<g >
</g>
<g >
</g>
<g >
</g>
<g >
</g>
<g >
</g>
<g >
</g>
<g >
</g>
<g >
</g>
<g >
</g>
<g >
</g>
<g >
</g>
<g >
</g>
<g >
</g>
<g >
</g>
<g >
</g>
<g >
</g>
<g >
</g>
<g >
</g>
<g >
</g>
<g >
</g>
<g >
</g>
<g >
</g>
<g >
</g>
<g >
</g>
<g >
</g>
<g >
</g>
<g >
</g>
<g >
</g>
<g >
</g>
<g >
</g>
<g >
</g>
<g >
</g>
<g >
</g>
<g >
</g>
<g >
</g>
<g >
</g>
<g >
</g>
<g >
</g>
<g >
</g>
<g >
</g>
<g >
</g>
<g >
</g>
<g >
</g>
<g >
</g>
<g >
</g>
<g >
</g>
<g >
</g>
<g >
</g>
<g >
</g>
<g >
</g>
<g >
</g>
<g >
</g>
<g >
</g>
<g >
</g>
<g >
</g>
<g >
</g>
<g >
</g>
<g >
</g>
<g >
</g>
<g >
</g>
<g >
</g>
<g >
</g>
<g >
</g>
<g >
</g>
<g >
</g>
<g >
</g>
<g >
</g>
<g >
</g>
<g >
</g>
<g >
</g>
<g >
</g>
<g >
</g>
<g >
</g>
<g >
</g>
<g >
</g>
<g >
</g>
<g >
</g>
<g >
</g>
<g >
</g>
<g >
</g>
<g >
</g>
<g >
</g>
<g >
</g>
<g >
</g>
<g >
</g>
<g >
</g>
<g >
</g>
<g >
</g>
<g >
</g>
<g >
</g>
<g >
</g>
<g >
</g>
<g >
</g>
<g >
</g>
<g >
</g>
<g >
</g>
<g >
</g>
<g >
</g>
<g >
</g>
<g >
</g>
<g >
</g>
<g >
</g>
<g >
</g>
<g >
</g>
<g >
</g>
<g >
</g>
<g >
</g>
<g >
</g>
<g >
</g>
<g >
</g>
<g >
</g>
<g >
</g>
<g >
</g>
<g >
</g>
<g >
</g>
<g >
</g>
<g >
</g>
<g >
</g>
<g >
</g>
<g >
</g>
<g >
</g>
<g >
</g>
<g >
</g>
<g >
</g>
<g >
</g>
<g >
</g>
<g >
</g>
<g >
</g>
<g >
</g>
<g >
</g>
<g >
</g>
<g >
</g>
<g >
</g>
<g >
</g>
<g >
</g>
<g >
</g>
<g >
</g>
<g >
</g>
<g >
</g>
<g >
</g>
<g >
</g>
<g >
</g>
<g >
</g>
<g >
</g>
<g >
</g>
<g >
</g>
<g >
</g>
<g >
</g>
<g >
</g>
<g >
</g>
<g >
</g>
<g >
</g>
<g >
</g>
<g >
</g>
<g >
</g>
<g >
</g>
<g >
</g>
<g >
</g>
<g >
</g>
<g >
</g>
<g >
</g>
<g >
</g>
<g >
</g>
<g >
</g>
<g >
</g>
<g >
</g>
<g >
</g>
<g >
</g>
<g >
</g>
<g >
</g>
<g >
</g>
<g >
</g>
<g >
</g>
<g >
</g>
<g >
</g>
<g >
</g>
<g >
</g>
<g >
</g>
<g >
</g>
<g >
</g>
<g >
</g>
<g >
</g>
<g >
</g>
<g >
</g>
<g >
</g>
<g >
</g>
<g >
</g>
<g >
</g>
<g >
</g>
<g >
</g>
<g >
</g>
<g >
</g>
<g >
</g>
<g >
</g>
<g >
</g>
<g >
</g>
<g >
</g>
<g >
</g>
<g >
</g>
<g >
</g>
<g >
</g>
<g >
</g>
<g >
</g>
<g >
</g>
<g >
</g>
<g >
</g>
<g >
</g>
<g >
</g>
<g >
</g>
<g >
</g>
<g >
</g>
<g >
</g>
<g >
</g>
<g >
</g>
<g >
</g>
<g >
</g>
<g >
</g>
<g >
</g>
<g >
</g>
<g >
</g>
<g >
</g>
<g >
</g>
<g >
</g>
<g >
</g>
<g >
</g>
<g >
</g>
<g >
</g>
<g >
</g>
<g >
</g>
<g >
</g>
<g >
</g>
<g >
</g>
<g >
</g>
<g >
</g>
<g >
</g>
<g >
</g>
<g >
</g>
<g >
</g>
<g >
</g>
<g >
</g>
<g >
</g>
<g >
</g>
<g >
</g>
<g >
</g>
<g >
</g>
<g >
</g>
<g >
</g>
<g >
</g>
<g >
</g>
<g >
</g>
<g >
</g>
<g >
</g>
<g >
</g>
<g >
</g>
<g >
</g>
<g >
</g>
<g >
</g>
<g >
</g>
<g >
</g>
<g >
</g>
<g >
</g>
<g >
</g>
<g >
</g>
<g >
</g>
<g >
</g>
<g >
</g>
<g >
</g>
<g >
</g>
<g >
</g>
<g >
</g>
<g >
</g>
<g >
</g>
<g >
</g>
<g >
</g>
<g >
</g>
<g >
</g>
<g >
</g>
<g >
</g>
<g >
</g>
<g >
</g>
<g >
</g>
<g >
</g>
<g >
</g>
<g >
</g>
<g >
</g>
</g>
<g style="fill:#000000; fill-opacity:0.0; 
stroke:#000000; stroke-width:200000.000000; stroke-opacity:1; 
stroke-linecap:round; stroke-linejoin:round;">
</g>
<g style="fill:#C2C200; fill-opacity:0.0; 
stroke:#C2C200; stroke-width:200000.000000; stroke-opacity:1; 
stroke-linecap:round; stroke-linejoin:round;">
</g>
<g style="fill:#C2C200; fill-opacity:0.0; 
stroke:#C2C200; stroke-width:300000.000000; stroke-opacity:1; 
stroke-linecap:round; stroke-linejoin:round;">
<path d="M303800000 80450000
L307200000 80450000
" />
<path d="M307600000 77250000
L307600000 24550000
" />
<path d="M23000000 80450000
L26400000 80450000
" />
<path d="M35300000 22050000
L46300000 22050000
" />
<path d="M303800000 77650000
L307200000 77650000
" />
<path d="M305600000 117150000
L24600000 117150000
" />
<path d="M26400000 77650000
L23000000 77650000
" />
<path d="M22600000 77250000
L22600000 24550000
" />
<path d="M307600000 80850000
L307600000 115150000
" />
<path d="M305600000 22550000
L46800000 22550000
" />
<path d="M24600000 22550000
L34800000 22550000
" />
<path d="M22600000 115150000
L22600000 80850000
" />
<path d="M303800000.000000 77650000.000001 A1400002.000000 1400002.000000 0.0 0 0 302400000.000001 79050000.000000" />
<path d="M26400000.000000 80449999.999999 A1400002.000000 1400002.000000 0.0 0 0 27799999.999999 79050000.000000" />
<path d="M307600000.000000 24550000.000000 A1999999.000000 1999999.000000 0.0 0 0 305600000.000000 22550000.000000" />
<path d="M302400000.000001 79050000.000000 A1400002.000000 1400002.000000 0.0 0 0 303800000.000000 80449999.999999" />
<path d="M46300000.000001 22050000.000000 A500001.000000 500001.000000 0.0 0 0 46800000.000000 22549999.999999" />
<path d="M22600000.000000 115150000.000000 A1999999.000000 1999999.000000 0.0 0 0 24600000.000000 117150000.000000" />
<path d="M307200000.000000 77649999.999999 A399999.000000 399999.000000 0.0 0 0 307599999.999999 77250000.000000" />
<path d="M22600000.000001 77250000.000000 A399999.000000 399999.000000 0.0 0 0 23000000.000000 77649999.999999" />
<path d="M27799999.999999 79050000.000000 A1400002.000000 1400002.000000 0.0 0 0 26400000.000000 77650000.000001" />
<path d="M34800000.000000 22549999.999999 A500001.000000 500001.000000 0.0 0 0 35299999.999999 22050000.000000" />
<path d="M305600000.000000 117150000.000000 A1999999.000000 1999999.000000 0.0 0 0 307600000.000000 115150000.000000" />
<path d="M307599999.999999 80850000.000000 A399999.000000 399999.000000 0.0 0 0 307200000.000000 80450000.000001" />
<path d="M24600000.000000 22550000.000000 A1999999.000000 1999999.000000 0.0 0 0 22600000.000000 24550000.000000" />
<path d="M23000000.000000 80450000.000001 A399999.000000 399999.000000 0.0 0 0 22600000.000001 80850000.000000" />
</g>
<g style="fill:#C2C200; fill-opacity:0.0; 
stroke:#C2C200; stroke-width:120000.000000; stroke-opacity:1; 
stroke-linecap:round; stroke-linejoin:round;">
<path d="M33129672 29575520
L33129672 32775520
" />
<path d="M29229672 32775520
L29229672 29575520
" />
<path d="M29229672 29575520
L33129672 29575520
" />
<path d="M33129672 32775520
L29229672 32775520
" />
<path d="M47084333 29575520
L50984333 29575520
" />
<path d="M50984333 32775520
L47084333 32775520
" />
<path d="M50984333 29575520
L50984333 32775520
" />
<path d="M47084333 32775520
L47084333 29575520
" />
<path d="M68843666 29575520
L68843666 32775520
" />
<path d="M64943666 29575520
L68843666 29575520
" />
<path d="M64943666 32775520
L64943666 29575520
" />
<path d="M68843666 32775520
L64943666 32775520
" />
<path d="M86702999 32775520
L82802999 32775520
" />
<path d="M82802999 32775520
L82802999 29575520
" />
<path d="M82802999 29575520
L86702999 29575520
" />
<path d="M86702999 29575520
L86702999 32775520
" />
<path d="M100662332 32775520
L100662332 29575520
" />
<path d="M104562332 32775520
L100662332 32775520
" />
<path d="M100662332 29575520
L104562332 29575520
" />
<path d="M104562332 29575520
L104562332 32775520
" />
<path d="M118521665 29575520
L122421665 29575520
" />
<path d="M118521665 32775520
L118521665 29575520
" />
<path d="M122421665 29575520
L122421665 32775520
" />
<path d="M122421665 32775520
L118521665 32775520
" />
<path d="M140280998 32775520
L136380998 32775520
" />
<path d="M140280998 29575520
L140280998 32775520
" />
<path d="M136380998 29575520
L140280998 29575520
" />
<path d="M136380998 32775520
L136380998 29575520
" />
<path d="M172099930 32775520
L172099930 29575520
" />
<path d="M175999930 32775520
L172099930 32775520
" />
<path d="M172099930 29575520
L175999930 29575520
" />
<path d="M175999930 29575520
L175999930 32775520
" />
<path d="M193859306 32775520
L189959306 32775520
" />
<path d="M193859306 29575520
L193859306 32775520
" />
<path d="M189959306 32775520
L189959306 29575520
" />
<path d="M189959306 29575520
L193859306 29575520
" />
<path d="M207818682 32775520
L207818682 29575520
" />
<path d="M211718682 29575520
L211718682 32775520
" />
<path d="M207818682 29575520
L211718682 29575520
" />
<path d="M211718682 32775520
L207818682 32775520
" />
<path d="M229578058 32775520
L225678058 32775520
" />
<path d="M225678058 29575520
L229578058 29575520
" />
<path d="M225678058 32775520
L225678058 29575520
" />
<path d="M229578058 29575520
L229578058 32775520
" />
<path d="M247442185 32775520
L243542185 32775520
" />
<path d="M243542185 32775520
L243542185 29575520
" />
<path d="M243542185 29575520
L247442185 29575520
" />
<path d="M247442185 29575520
L247442185 32775520
" />
<path d="M265296810 29575520
L265296810 32775520
" />
<path d="M265296810 32775520
L261396810 32775520
" />
<path d="M261396810 29575520
L265296810 29575520
" />
<path d="M261396810 32775520
L261396810 29575520
" />
<path d="M154240554 29575520
L158140554 29575520
" />
<path d="M158140554 32775520
L154240554 32775520
" />
<path d="M154240554 32775520
L154240554 29575520
" />
<path d="M158140554 29575520
L158140554 32775520
" />
<path d="M274226306 46575520
L274226306 49775520
" />
<path d="M270326306 49775520
L270326306 46575520
" />
<path d="M274226306 49775520
L270326306 49775520
" />
<path d="M270326306 46575520
L274226306 46575520
" />
<path d="M252466946 49775520
L252466946 46575520
" />
<path d="M256366946 49775520
L252466946 49775520
" />
<path d="M256366946 46575520
L256366946 49775520
" />
<path d="M252466946 46575520
L256366946 46575520
" />
<path d="M234607586 46575520
L238507586 46575520
" />
<path d="M238507586 46575520
L238507586 49775520
" />
<path d="M234607586 49775520
L234607586 46575520
" />
<path d="M238507586 49775520
L234607586 49775520
" />
<path d="M216748226 46575520
L220648226 46575520
" />
<path d="M220648226 49775520
L216748226 49775520
" />
<path d="M216748226 49775520
L216748226 46575520
" />
<path d="M220648226 46575520
L220648226 49775520
" />
<path d="M184929506 46575520
L184929506 49775520
" />
<path d="M181029506 49775520
L181029506 46575520
" />
<path d="M181029506 46575520
L184929506 46575520
" />
<path d="M184929506 49775520
L181029506 49775520
" />
<path d="M163170242 46575520
L167070242 46575520
" />
<path d="M167070242 46575520
L167070242 49775520
" />
<path d="M167070242 49775520
L163170242 49775520
" />
<path d="M163170242 49775520
L163170242 46575520
" />
<path d="M127451490 46575520
L131351490 46575520
" />
<path d="M131351490 46575520
L131351490 49775520
" />
<path d="M127451490 49775520
L127451490 46575520
" />
<path d="M131351490 49775520
L127451490 49775520
" />
<path d="M109592114 49775520
L109592114 46575520
" />
<path d="M113492114 46575520
L113492114 49775520
" />
<path d="M113492114 49775520
L109592114 49775520
" />
<path d="M109592114 46575520
L113492114 46575520
" />
<path d="M95632738 49775520
L91732738 49775520
" />
<path d="M91732738 46575520
L95632738 46575520
" />
<path d="M95632738 46575520
L95632738 49775520
" />
<path d="M91732738 49775520
L91732738 46575520
" />
<path d="M73873362 46575520
L77773362 46575520
" />
<path d="M73873362 49775520
L73873362 46575520
" />
<path d="M77773362 49775520
L73873362 49775520
" />
<path d="M77773362 46575520
L77773362 49775520
" />
<path d="M56013986 49775520
L56013986 46575520
" />
<path d="M59913986 49775520
L56013986 49775520
" />
<path d="M56013986 46575520
L59913986 46575520
" />
<path d="M59913986 46575520
L59913986 49775520
" />
<path d="M37589786 66775520
L33689786 66775520
" />
<path d="M33689786 66775520
L33689786 63575520
" />
<path d="M37589786 63575520
L37589786 66775520
" />
<path d="M33689786 63575520
L37589786 63575520
" />
<path d="M56013986 66775520
L56013986 63575520
" />
<path d="M56013986 63575520
L59913986 63575520
" />
<path d="M59913986 63575520
L59913986 66775520
" />
<path d="M59913986 66775520
L56013986 66775520
" />
<path d="M73873346 66775520
L73873346 63575520
" />
<path d="M73873346 63575520
L77773346 63575520
" />
<path d="M77773346 66775520
L73873346 66775520
" />
<path d="M77773346 63575520
L77773346 66775520
" />
<path d="M91732706 63575520
L95632706 63575520
" />
<path d="M91732706 66775520
L91732706 63575520
" />
<path d="M95632706 63575520
L95632706 66775520
" />
<path d="M95632706 66775520
L91732706 66775520
" />
<path d="M109592066 63575520
L113492066 63575520
" />
<path d="M113492066 63575520
L113492066 66775520
" />
<path d="M109592066 66775520
L109592066 63575520
" />
<path d="M113492066 66775520
L109592066 66775520
" />
<path d="M145310866 66775520
L145310866 63575520
" />
<path d="M149210866 66775520
L145310866 66775520
" />
<path d="M145310866 63575520
L149210866 63575520
" />
<path d="M149210866 63575520
L149210866 66775520
" />
<path d="M167070242 63575520
L167070242 66775520
" />
<path d="M163170242 63575520
L167070242 63575520
" />
<path d="M167070242 66775520
L163170242 66775520
" />
<path d="M163170242 66775520
L163170242 63575520
" />
<path d="M184929506 66775520
L181029506 66775520
" />
<path d="M181029506 66775520
L181029506 63575520
" />
<path d="M184929506 63575520
L184929506 66775520
" />
<path d="M181029506 63575520
L184929506 63575520
" />
<path d="M202788866 66775520
L198888866 66775520
" />
<path d="M202788866 63575520
L202788866 66775520
" />
<path d="M198888866 63575520
L202788866 63575520
" />
<path d="M198888866 66775520
L198888866 63575520
" />
<path d="M234612497 66775520
L234612497 63575520
" />
<path d="M238512497 66775520
L234612497 66775520
" />
<path d="M234612497 63575520
L238512497 63575520
" />
<path d="M238512497 63575520
L238512497 66775520
" />
<path d="M256371873 66775520
L252471873 66775520
" />
<path d="M256371873 63575520
L256371873 66775520
" />
<path d="M252471873 63575520
L256371873 63575520
" />
<path d="M252471873 66775520
L252471873 63575520
" />
<path d="M274231249 66775520
L270331249 66775520
" />
<path d="M270331249 66775520
L270331249 63575520
" />
<path d="M274231249 63575520
L274231249 66775520
" />
<path d="M270331249 63575520
L274231249 63575520
" />
<path d="M297115346 80575520
L301015346 80575520
" />
<path d="M297115346 83775520
L297115346 80575520
" />
<path d="M301015346 80575520
L301015346 83775520
" />
<path d="M301015346 83775520
L297115346 83775520
" />
<path d="M283155986 80575520
L283155986 83775520
" />
<path d="M283155986 83775520
L279255986 83775520
" />
<path d="M279255986 83775520
L279255986 80575520
" />
<path d="M279255986 80575520
L283155986 80575520
" />
<path d="M265296626 83775520
L261396626 83775520
" />
<path d="M261396626 83775520
L261396626 80575520
" />
<path d="M265296626 80575520
L265296626 83775520
" />
<path d="M261396626 80575520
L265296626 80575520
" />
<path d="M243537266 80575520
L247437266 80575520
" />
<path d="M247437266 83775520
L243537266 83775520
" />
<path d="M247437266 80575520
L247437266 83775520
" />
<path d="M243537266 83775520
L243537266 80575520
" />
<path d="M229577906 83775520
L225677906 83775520
" />
<path d="M225677906 80575520
L229577906 80575520
" />
<path d="M225677906 83775520
L225677906 80575520
" />
<path d="M229577906 80575520
L229577906 83775520
" />
<path d="M189959186 80575520
L193859186 80575520
" />
<path d="M189959186 83775520
L189959186 80575520
" />
<path d="M193859186 80575520
L193859186 83775520
" />
<path d="M193859186 83775520
L189959186 83775520
" />
<path d="M176004680 83775520
L172104680 83775520
" />
<path d="M176004680 80575520
L176004680 83775520
" />
<path d="M172104680 80575520
L176004680 80575520
" />
<path d="M172104680 83775520
L172104680 80575520
" />
<path d="M158140554 80575520
L158140554 83775520
" />
<path d="M154240554 83775520
L154240554 80575520
" />
<path d="M158140554 83775520
L154240554 83775520
" />
<path d="M154240554 80575520
L158140554 80575520
" />
<path d="M136381178 83775520
L136381178 80575520
" />
<path d="M136381178 80575520
L140281178 80575520
" />
<path d="M140281178 80575520
L140281178 83775520
" />
<path d="M140281178 83775520
L136381178 83775520
" />
<path d="M122421802 80575520
L122421802 83775520
" />
<path d="M118521802 83775520
L118521802 80575520
" />
<path d="M122421802 83775520
L118521802 83775520
" />
<path d="M118521802 80575520
L122421802 80575520
" />
<path d="M104562426 80575520
L104562426 83775520
" />
<path d="M104562426 83775520
L100662426 83775520
" />
<path d="M100662426 80575520
L104562426 80575520
" />
<path d="M100662426 83775520
L100662426 80575520
" />
<path d="M86703050 80575520
L86703050 83775520
" />
<path d="M86703050 83775520
L82803050 83775520
" />
<path d="M82803050 83775520
L82803050 80575520
" />
<path d="M82803050 80575520
L86703050 80575520
" />
<path d="M68843674 83775520
L64943674 83775520
" />
<path d="M64943674 80575520
L68843674 80575520
" />
<path d="M64943674 83775520
L64943674 80575520
" />
<path d="M68843674 80575520
L68843674 83775520
" />
<path d="M100102332 97575520
L100102332 100775520
" />
<path d="M96202332 97575520
L100102332 97575520
" />
<path d="M100102332 100775520
L96202332 100775520
" />
<path d="M96202332 100775520
L96202332 97575520
" />
<path d="M122426552 110175520
L118526552 110175520
" />
<path d="M122426552 106975520
L122426552 110175520
" />
<path d="M118526552 106975520
L122426552 106975520
" />
<path d="M118526552 110175520
L118526552 106975520
" />
<path d="M144750772 97575520
L144750772 100775520
" />
<path d="M140850772 97575520
L144750772 97575520
" />
<path d="M140850772 100775520
L140850772 97575520
" />
<path d="M144750772 100775520
L140850772 100775520
" />
<path d="M167070242 100775520
L163170242 100775520
" />
<path d="M163170242 100775520
L163170242 97575520
" />
<path d="M163170242 97575520
L167070242 97575520
" />
<path d="M167070242 97575520
L167070242 100775520
" />
<path d="M210952539 109040846
L208501197 111097767
" />
<path d="M208445667 106053273
L210952539 109040846
" />
<path d="M205994325 108110194
L208445667 106053273
" />
<path d="M208501197 111097767
L205994325 108110194
" />
<path d="M230142902 100775520
L230142902 97575520
" />
<path d="M234042902 97575520
L234042902 100775520
" />
<path d="M234042902 100775520
L230142902 100775520
" />
<path d="M230142902 97575520
L234042902 97575520
" />
<path d="M185494462 97575520
L189394462 97575520
" />
<path d="M185494462 100775520
L185494462 97575520
" />
<path d="M189394462 97575520
L189394462 100775520
" />
<path d="M189394462 100775520
L185494462 100775520
" />
<path d="M296550506 46575520
L296550506 49775520
" />
<path d="M296550506 49775520
L292650506 49775520
" />
<path d="M292650506 49775520
L292650506 46575520
" />
<path d="M292650506 46575520
L296550506 46575520
" />
<path d="M145310866 46575520
L149210866 46575520
" />
<path d="M149210866 49775520
L145310866 49775520
" />
<path d="M149210866 46575520
L149210866 49775520
" />
<path d="M145310866 49775520
L145310866 46575520
" />
<path d="M77778112 97575520
L77778112 100775520
" />
<path d="M73878112 100775520
L73878112 97575520
" />
<path d="M77778112 100775520
L73878112 100775520
" />
<path d="M73878112 97575520
L77778112 97575520
" />
<path d="M211718546 83775520
L207818546 83775520
" />
<path d="M211718546 80575520
L211718546 83775520
" />
<path d="M207818546 80575520
L211718546 80575520
" />
<path d="M207818546 83775520
L207818546 80575520
" />
<path d="M202788866 46575520
L202788866 49775520
" />
<path d="M202788866 49775520
L198888866 49775520
" />
<path d="M198888866 46575520
L202788866 46575520
" />
<path d="M198888866 49775520
L198888866 46575520
" />
<path d="M127451426 63575520
L131351426 63575520
" />
<path d="M127451426 66775520
L127451426 63575520
" />
<path d="M131351426 63575520
L131351426 66775520
" />
<path d="M131351426 66775520
L127451426 66775520
" />
<path d="M220653121 66775520
L216753121 66775520
" />
<path d="M220653121 63575520
L220653121 66775520
" />
<path d="M216753121 66775520
L216753121 63575520
" />
<path d="M216753121 63575520
L220653121 63575520
" />
<path d="M283160937 29575520
L283160937 32775520
" />
<path d="M283160937 32775520
L279260937 32775520
" />
<path d="M279260937 32775520
L279260937 29575520
" />
<path d="M279260937 29575520
L283160937 29575520
" />
<path d="M256367122 100775520
L252467122 100775520
" />
<path d="M252467122 97575520
L256367122 97575520
" />
<path d="M256367122 97575520
L256367122 100775520
" />
<path d="M252467122 100775520
L252467122 97575520
" />
<path d="M33124922 83775520
L29224922 83775520
" />
<path d="M33124922 80575520
L33124922 83775520
" />
<path d="M29224922 83775520
L29224922 80575520
" />
<path d="M29224922 80575520
L33124922 80575520
" />
<path d="M50984298 83775520
L47084298 83775520
" />
<path d="M47084298 83775520
L47084298 80575520
" />
<path d="M47084298 80575520
L50984298 80575520
" />
<path d="M50984298 80575520
L50984298 83775520
" />
<path d="M296555469 66775520
L292655469 66775520
" />
<path d="M292655469 63575520
L296555469 63575520
" />
<path d="M296555469 63575520
L296555469 66775520
" />
<path d="M292655469 66775520
L292655469 63575520
" />
<path d="M33689766 46575520
L37589766 46575520
" />
<path d="M37589766 49775520
L33689766 49775520
" />
<path d="M37589766 46575520
L37589766 49775520
" />
<path d="M33689766 49775520
L33689766 46575520
" />
<path d="M297115562 32775520
L297115562 29575520
" />
<path d="M301015562 32775520
L297115562 32775520
" />
<path d="M301015562 29575520
L301015562 32775520
" />
<path d="M297115562 29575520
L301015562 29575520
" />
<g >
</g>
<g >
</g>
<g >
</g>
<g >
</g>
<g >
</g>
<g >
</g>
<g >
</g>
<g >
</g>
<g >
</g>
<g >
</g>
<g >
</g>
<g >
</g>
<g >
</g>
<g >
</g>
<g >
</g>
<g >
</g>
<g >
</g>
<g >
</g>
<g >
</g>
<g >
</g>
<g >
</g>
<g >
</g>
<g >
</g>
<g >
</g>
<g >
</g>
<g >
</g>
<g >
</g>
<g >
</g>
<g >
</g>
<g >
</g>
<g >
</g>
<g >
</g>
<g >
</g>
<g >
</g>
<g >
</g>
<g >
</g>
<g >
</g>
<g >
</g>
<g >
</g>
<g >
</g>
<g >
</g>
<g >
</g>
<g >
</g>
<g >
</g>
<g >
</g>
<g >
</g>
<g >
</g>
<g >
</g>
<g >
</g>
<g >
</g>
<g >
</g>
<g >
</g>
<g >
</g>
<g >
</g>
<g >
</g>
<g >
</g>
<g >
</g>
<g >
</g>
<g >
</g>
<g >
</g>
<g >
</g>
<g >
</g>
<g >
</g>
<g >
</g>
<g >
</g>
<g >
</g>
<g >
</g>
<g >
</g>
<g >
</g>
<g >
</g>
<g >
</g>
<g >
</g>
<g >
</g>
<g >
</g>
<g >
</g>
<g >
</g>
<g >
</g>
<g >
</g>
<g >
</g>
<g >
</g>
<g >
</g>
<g >
</g>
<g >
</g>
<g >
</g>
<g >
</g>
<g >
</g>
<g >
</g>
<g >
</g>
<g >
</g>
<g >
</g>
<g >
</g>
<g >
</g>
<g >
</g>
<g >
</g>
<g >
</g>
<g >
</g>
<g >
</g>
<g >
</g>
<g >
</g>
<g >
</g>
<g >
</g>
<g >
</g>
<g >
</g>
<g >
</g>
<g >
</g>
<g >
</g>
<g >
</g>
<g >
</g>
<g >
</g>
<g >
</g>
<g >
</g>
<g >
</g>
<g >
</g>
<g >
</g>
<g >
</g>
<g >
</g>
<g >
</g>
<g >
</g>
<g >
</g>
<g >
</g>
<g >
</g>
<g >
</g>
<g >
</g>
<g >
</g>
<g >
</g>
<g >
</g>
<g >
</g>
<g >
</g>
<g >
</g>
<g >
</g>
<g >
</g>
<g >
</g>
<g >
</g>
<g >
</g>
<g >
</g>
<g >
</g>
<g >
</g>
<g >
</g>
<g >
</g>
<g >
</g>
<g >
</g>
<g >
</g>
<g >
</g>
<g >
</g>
<g >
</g>
<g >
</g>
<g >
</g>
<g >
</g>
<g >
</g>
<g >
</g>
<g >
</g>
<g >
</g>
<g >
</g>
<g >
</g>
<g >
</g>
<g >
</g>
<g >
</g>
<g >
</g>
<g >
</g>
<g >
</g>
<g >
</g>
<g >
</g>
<g >
</g>
<g >
</g>
<g >
</g>
<g >
</g>
<g >
</g>
<g >
</g>
<g >
</g>
<g >
</g>
<g >
</g>
<g >
</g>
<g >
</g>
<g >
</g>
<g >
</g>
<g >
</g>
<g >
</g>
<g >
</g>
<g >
</g>
<g >
</g>
<g >
</g>
<g >
</g>
<g >
</g>
<g >
</g>
<g >
</g>
<g >
</g>
<g >
</g>
<g >
</g>
<g >
</g>
<g >
</g>
<g >
</g>
<g >
</g>
<g >
</g>
<g >
</g>
<g >
</g>
<g >
</g>
<g >
</g>
<g >
</g>
<g >
</g>
<g >
</g>
<g >
</g>
<g >
</g>
<g >
</g>
<g >
</g>
<g >
</g>
<g >
</g>
<g >
</g>
<g >
</g>
<g >
</g>
<g >
</g>
<g >
</g>
<g >
</g>
<g >
</g>
<g >
</g>
<g >
</g>
<g >
</g>
<g >
</g>
<g >
</g>
<g >
</g>
<g >
</g>
<g >
</g>
<g >
</g>
<g >
</g>
<g >
</g>
<g >
</g>
<g >
</g>
<g >
</g>
<g >
</g>
<g >
</g>
<g >
</g>
<g >
</g>
<g >
</g>
<g >
</g>
<g >
</g>
<g >
</g>
<g >
</g>
<g >
</g>
<g >
</g>
<g >
</g>
<g >
</g>
<g >
</g>
<g >
</g>
<g >
</g>
<g >
</g>
<g >
</g>
<g >
</g>
<g >
</g>
<g >
</g>
<g >
</g>
<g >
</g>
<g >
</g>
<g >
</g>
<g >
</g>
<g >
</g>
<g >
</g>
<g >
</g>
<g >
</g>
<g >
</g>
<g >
</g>
<g >
</g>
<g >
</g>
<g >
</g>
<g >
</g>
<g >
</g>
<g >
</g>
<g >
</g>
<g >
</g>
<g >
</g>
<g >
</g>
<g >
</g>
<g >
</g>
<g >
</g>
<g >
</g>
<g >
</g>
<g >
</g>
<g >
</g>
<g >
</g>
<g >
</g>
<g >
</g>
<g >
</g>
<g >
</g>
<g >
</g>
<g >
</g>
<g >
</g>
<g >
</g>
<g >
</g>
<g >
</g>
<g >
</g>
<g >
</g>
</g> 
</svg>
