%TF.GenerationSoftware,KiCad,Pcbnew,(5.1.10-1-10_14)*%
%TF.CreationDate,2021-11-20T07:42:05+09:00*%
%TF.ProjectId,keyplate,6b657970-6c61-4746-952e-6b696361645f,rev?*%
%TF.SameCoordinates,Original*%
%TF.FileFunction,Profile,NP*%
%FSLAX46Y46*%
G04 Gerber Fmt 4.6, Leading zero omitted, Abs format (unit mm)*
G04 Created by KiCad (PCBNEW (5.1.10-1-10_14)) date 2021-11-20 07:42:05*
%MOMM*%
%LPD*%
G01*
G04 APERTURE LIST*
%TA.AperFunction,Profile*%
%ADD10C,0.200000*%
%TD*%
G04 APERTURE END LIST*
D10*
X49086057Y-91732274D02*
X17346366Y-91732274D01*
X17976426Y-74284637D02*
X16082366Y-74288518D01*
X207856826Y-107852411D02*
X205353884Y-107853477D01*
X207855771Y-102936116D02*
X205353884Y-102936821D01*
X299193938Y-60932029D02*
X285320638Y-60932029D01*
X295267895Y-74730899D02*
X285320638Y-74731954D01*
X295268240Y-77932348D02*
X285320638Y-77932348D01*
X198591846Y-110793869D02*
X198591846Y-108732243D01*
X203596696Y-110791748D02*
X203594220Y-108732243D01*
X300957822Y-113233669D02*
X300957822Y-93496158D01*
X300957822Y-59168144D02*
X300957822Y-22307192D01*
X208418805Y-26931745D02*
X208418805Y-24321901D01*
X113153164Y-26931745D02*
X113153164Y-24321901D01*
X281254186Y-108732243D02*
X281254186Y-94932668D01*
X191554309Y-94932668D02*
X205353884Y-94932668D01*
X191554309Y-108732243D02*
X191554309Y-94932668D01*
X102102079Y-110357840D02*
X102089134Y-110613801D01*
X102089134Y-110613801D02*
X102051145Y-110862399D01*
X102051145Y-110862399D02*
X101989374Y-111102370D01*
X101989374Y-111102370D02*
X101905085Y-111332452D01*
X101905085Y-111332452D02*
X101799543Y-111551383D01*
X101799543Y-111551383D02*
X101674011Y-111757899D01*
X101674011Y-111757899D02*
X101529754Y-111950739D01*
X101529754Y-111950739D02*
X101368036Y-112128640D01*
X101368036Y-112128640D02*
X101190120Y-112290339D01*
X101190120Y-112290339D02*
X100997270Y-112434574D01*
X100997270Y-112434574D02*
X100790751Y-112560083D01*
X100790751Y-112560083D02*
X100571827Y-112665603D01*
X100571827Y-112665603D02*
X100341761Y-112749872D01*
X100341761Y-112749872D02*
X100101818Y-112811627D01*
X100101818Y-112811627D02*
X99853261Y-112849606D01*
X99853261Y-112849606D02*
X99597355Y-112862547D01*
X99597355Y-107853477D02*
X99853261Y-107866417D01*
X99853261Y-107866417D02*
X100101818Y-107904395D01*
X100101818Y-107904395D02*
X100341761Y-107966148D01*
X100341761Y-107966148D02*
X100571827Y-108050414D01*
X100571827Y-108050414D02*
X100790751Y-108155929D01*
X100790751Y-108155929D02*
X100997270Y-108281431D01*
X100997270Y-108281431D02*
X101190120Y-108425655D01*
X101190120Y-108425655D02*
X101368036Y-108587341D01*
X101368036Y-108587341D02*
X101529754Y-108765223D01*
X101529754Y-108765223D02*
X101674011Y-108958040D01*
X101674011Y-108958040D02*
X101799543Y-109164529D01*
X101799543Y-109164529D02*
X101905085Y-109383426D01*
X101905085Y-109383426D02*
X101989374Y-109613468D01*
X101989374Y-109613468D02*
X102051145Y-109853393D01*
X102051145Y-109853393D02*
X102089134Y-110101938D01*
X102089134Y-110101938D02*
X102102079Y-110357840D01*
X203080923Y-112040582D02*
X202917558Y-112185058D01*
X202917558Y-112185058D02*
X202739178Y-112307316D01*
X202739178Y-112307316D02*
X202548027Y-112406426D01*
X202548027Y-112406426D02*
X202346351Y-112481460D01*
X202346351Y-112481460D02*
X202136392Y-112531489D01*
X202136392Y-112531489D02*
X201920397Y-112555585D01*
X201920397Y-112555585D02*
X201832811Y-112557754D01*
X203596696Y-110791748D02*
X203583541Y-111009437D01*
X203583541Y-111009437D02*
X203544038Y-111222111D01*
X203544038Y-111222111D02*
X203479121Y-111427493D01*
X203479121Y-111427493D02*
X203389728Y-111623305D01*
X203389728Y-111623305D02*
X203276795Y-111807270D01*
X203276795Y-111807270D02*
X203141257Y-111977110D01*
X203141257Y-111977110D02*
X203080923Y-112040582D01*
X205353884Y-108732243D02*
X203594220Y-108732243D01*
X205353884Y-107853477D02*
X205353884Y-108732243D01*
X169230221Y-108732243D02*
X183030152Y-108732243D01*
X169230221Y-94932668D02*
X169230221Y-108732243D01*
X183030152Y-94932668D02*
X169230221Y-94932668D01*
X183030152Y-108732243D02*
X183030152Y-94932668D01*
X285312865Y-108732243D02*
X299112806Y-108732243D01*
X285312865Y-94932668D02*
X285312865Y-108732243D01*
X299112806Y-94932668D02*
X285312865Y-94932668D01*
X299112806Y-108732243D02*
X299112806Y-94932668D01*
X267454245Y-108732243D02*
X281254186Y-108732243D01*
X267454245Y-94932668D02*
X267454245Y-108732243D01*
X281254186Y-94932668D02*
X267454245Y-94932668D01*
X106723448Y-94932668D02*
X106723448Y-108732243D01*
X120523378Y-94932668D02*
X106723448Y-94932668D01*
X120523378Y-108732243D02*
X120523378Y-94932668D01*
X198591846Y-108732243D02*
X191554309Y-108732243D01*
X199108674Y-112041292D02*
X198964331Y-111877946D01*
X198964331Y-111877946D02*
X198842167Y-111699630D01*
X198842167Y-111699630D02*
X198743117Y-111508580D01*
X198743117Y-111508580D02*
X198668118Y-111307032D01*
X198668118Y-111307032D02*
X198618105Y-111097223D01*
X198618105Y-111097223D02*
X198594014Y-110881388D01*
X198594014Y-110881388D02*
X198591846Y-110793869D01*
X200355730Y-112557754D02*
X200138231Y-112544316D01*
X200138231Y-112544316D02*
X199925791Y-112504617D01*
X199925791Y-112504617D02*
X199720678Y-112439578D01*
X199720678Y-112439578D02*
X199525164Y-112350119D01*
X199525164Y-112350119D02*
X199341518Y-112237160D01*
X199341518Y-112237160D02*
X199172010Y-112101622D01*
X199172010Y-112101622D02*
X199108674Y-112041292D01*
X201832811Y-112557754D02*
X200355730Y-112557754D01*
X231734529Y-99181865D02*
X231734529Y-112981790D01*
X209620000Y-106225404D02*
X209599689Y-106490609D01*
X209599689Y-106490609D02*
X209540751Y-106737244D01*
X209540751Y-106737244D02*
X209446172Y-106963666D01*
X209446172Y-106963666D02*
X209318940Y-107168236D01*
X209318940Y-107168236D02*
X209162042Y-107349312D01*
X209162042Y-107349312D02*
X208978467Y-107505252D01*
X208978467Y-107505252D02*
X208771201Y-107634416D01*
X208771201Y-107634416D02*
X208543233Y-107735163D01*
X208543233Y-107735163D02*
X208297550Y-107805851D01*
X208297550Y-107805851D02*
X208037139Y-107844839D01*
X208037139Y-107844839D02*
X207856826Y-107852411D01*
X207855771Y-102936116D02*
X208073292Y-102949575D01*
X208073292Y-102949575D02*
X208285790Y-102989322D01*
X208285790Y-102989322D02*
X208490980Y-103054414D01*
X208490980Y-103054414D02*
X208686577Y-103143905D01*
X208686577Y-103143905D02*
X208870295Y-103256852D01*
X208870295Y-103256852D02*
X209039849Y-103392308D01*
X209039849Y-103392308D02*
X209103194Y-103452583D01*
X205353884Y-94932668D02*
X205353884Y-102936821D01*
X227675485Y-112981790D02*
X227675485Y-99181865D01*
X263392724Y-99181865D02*
X249593149Y-99181865D01*
X134191018Y-104881680D02*
X134191018Y-98031459D01*
X140490197Y-104881680D02*
X134191018Y-104881680D01*
X140490197Y-98031459D02*
X140490197Y-104881680D01*
X139141532Y-98031459D02*
X140490197Y-98031459D01*
X139141532Y-93383272D02*
X139141532Y-98031459D01*
X135542148Y-93383272D02*
X139141532Y-93383272D01*
X159540150Y-98031459D02*
X159540150Y-93383272D01*
X158191484Y-98031459D02*
X159540150Y-98031459D01*
X158191484Y-104881680D02*
X158191484Y-98031459D01*
X164490664Y-104881680D02*
X158191484Y-104881680D01*
X245534104Y-99181865D02*
X231734529Y-99181865D01*
X62072834Y-43932062D02*
X62072834Y-57731637D01*
X75872759Y-43932062D02*
X62072834Y-43932062D01*
X75872759Y-57731637D02*
X75872759Y-43932062D01*
X79931809Y-57731637D02*
X93731384Y-57731637D01*
X79931809Y-43932062D02*
X79931809Y-57731637D01*
X93731384Y-43932062D02*
X79931809Y-43932062D01*
X93731384Y-57731637D02*
X93731384Y-43932062D01*
X97790434Y-57731637D02*
X111590010Y-57731637D01*
X97790434Y-43932062D02*
X97790434Y-57731637D01*
X111590010Y-43932062D02*
X97790434Y-43932062D01*
X111590010Y-57731637D02*
X111590010Y-43932062D01*
X169227756Y-57731637D02*
X183030152Y-57731637D01*
X169227756Y-43932062D02*
X169227756Y-57731637D01*
X183030152Y-43932062D02*
X169227756Y-43932062D01*
X183030152Y-57731637D02*
X183030152Y-43932062D01*
X133510150Y-57731637D02*
X147310081Y-57731637D01*
X133510150Y-43932062D02*
X133510150Y-57731637D01*
X147310081Y-43932062D02*
X133510150Y-43932062D01*
X147310081Y-57731637D02*
X147310081Y-43932062D01*
X151369136Y-57731637D02*
X165168700Y-57731637D01*
X151369136Y-43932062D02*
X151369136Y-57731637D01*
X165168700Y-43932062D02*
X151369136Y-43932062D01*
X165168700Y-57731637D02*
X165168700Y-43932062D01*
X187088852Y-57731637D02*
X200888771Y-57731637D01*
X187088852Y-43932062D02*
X187088852Y-57731637D01*
X200888771Y-43932062D02*
X187088852Y-43932062D01*
X200888771Y-57731637D02*
X200888771Y-43932062D01*
X267462018Y-57731637D02*
X281261593Y-57731637D01*
X267462018Y-43932062D02*
X267462018Y-57731637D01*
X281261593Y-43932062D02*
X267462018Y-43932062D01*
X281261593Y-57731637D02*
X281261593Y-43932062D01*
X213875543Y-112981790D02*
X227675485Y-112981790D01*
X93733855Y-108732243D02*
X93733855Y-94932668D01*
X142441053Y-108732243D02*
X156240629Y-108732243D01*
X142441053Y-94932668D02*
X142441053Y-108732243D01*
X156240629Y-94932668D02*
X142441053Y-94932668D01*
X156240629Y-108732243D02*
X156240629Y-94932668D01*
X106723448Y-108732243D02*
X120523378Y-108732243D01*
X245539401Y-82181901D02*
X231737005Y-82181901D01*
X245539401Y-95981471D02*
X245539401Y-82181901D01*
X135542148Y-98031459D02*
X135542148Y-93383272D01*
X134191018Y-98031459D02*
X135542148Y-98031459D01*
X79931809Y-60932029D02*
X79931809Y-74731954D01*
X93731384Y-60932029D02*
X79931809Y-60932029D01*
X93731384Y-74731954D02*
X93731384Y-60932029D01*
X97790434Y-74731954D02*
X111590010Y-74731954D01*
X97790434Y-60932029D02*
X97790434Y-74731954D01*
X111590010Y-60932029D02*
X97790434Y-60932029D01*
X111590010Y-74731954D02*
X111590010Y-60932029D01*
X245534104Y-112981790D02*
X245534104Y-99181865D01*
X88859886Y-77932348D02*
X88859886Y-91732274D01*
X102659462Y-77932348D02*
X88859886Y-77932348D01*
X102659462Y-91732274D02*
X102659462Y-77932348D01*
X53142286Y-91732274D02*
X66942211Y-91732274D01*
X53142286Y-77932348D02*
X53142286Y-91732274D01*
X66942211Y-77932348D02*
X53142286Y-77932348D01*
X66942211Y-91732274D02*
X66942211Y-77932348D01*
X71000911Y-91732274D02*
X84800836Y-91732274D01*
X71000911Y-77932348D02*
X71000911Y-91732274D01*
X84800836Y-77932348D02*
X71000911Y-77932348D01*
X84800836Y-91732274D02*
X84800836Y-77932348D01*
X122471413Y-104881680D02*
X122471413Y-98031459D01*
X128773069Y-104881680D02*
X122471413Y-104881680D01*
X128773069Y-98031459D02*
X128773069Y-104881680D01*
X127421928Y-98031459D02*
X128773069Y-98031459D01*
X127421928Y-93383272D02*
X127421928Y-98031459D01*
X123822899Y-93383272D02*
X127421928Y-93383272D01*
X99822427Y-98031459D02*
X99822427Y-93383272D01*
X98473762Y-98031459D02*
X99822427Y-98031459D01*
X169227756Y-74731954D02*
X183030152Y-74731954D01*
X169227756Y-60932029D02*
X169227756Y-74731954D01*
X183030152Y-60932029D02*
X169227756Y-60932029D01*
X183030152Y-74731954D02*
X183030152Y-60932029D01*
X267462018Y-91732274D02*
X281261593Y-91732274D01*
X267462018Y-77932348D02*
X267462018Y-91732274D01*
X281261593Y-77932348D02*
X267462018Y-77932348D01*
X281261593Y-91732274D02*
X281261593Y-77932348D01*
X249603376Y-91732274D02*
X263402952Y-91732274D01*
X249603376Y-77932348D02*
X249603376Y-91732274D01*
X263402952Y-77932348D02*
X249603376Y-77932348D01*
X263402952Y-91732274D02*
X263402952Y-77932348D01*
X88859886Y-91732274D02*
X102659462Y-91732274D01*
X97092643Y-110357840D02*
X97105587Y-110101938D01*
X97105587Y-110101938D02*
X97143576Y-109853393D01*
X97143576Y-109853393D02*
X97205347Y-109613468D01*
X97205347Y-109613468D02*
X97289635Y-109383426D01*
X97289635Y-109383426D02*
X97395176Y-109164529D01*
X97395176Y-109164529D02*
X97520707Y-108958040D01*
X97520707Y-108958040D02*
X97664964Y-108765223D01*
X97664964Y-108765223D02*
X97826681Y-108587341D01*
X97826681Y-108587341D02*
X98004597Y-108425655D01*
X98004597Y-108425655D02*
X98197445Y-108281431D01*
X98197445Y-108281431D02*
X98403963Y-108155929D01*
X98403963Y-108155929D02*
X98622886Y-108050414D01*
X98622886Y-108050414D02*
X98852951Y-107966148D01*
X98852951Y-107966148D02*
X99092894Y-107904395D01*
X99092894Y-107904395D02*
X99341449Y-107866417D01*
X99341449Y-107866417D02*
X99597355Y-107853477D01*
X99597355Y-112862547D02*
X99341449Y-112849606D01*
X99341449Y-112849606D02*
X99092894Y-112811627D01*
X99092894Y-112811627D02*
X98852951Y-112749872D01*
X98852951Y-112749872D02*
X98622886Y-112665603D01*
X98622886Y-112665603D02*
X98403963Y-112560083D01*
X98403963Y-112560083D02*
X98197445Y-112434574D01*
X98197445Y-112434574D02*
X98004597Y-112290339D01*
X98004597Y-112290339D02*
X97826681Y-112128640D01*
X97826681Y-112128640D02*
X97664964Y-111950739D01*
X97664964Y-111950739D02*
X97520707Y-111757899D01*
X97520707Y-111757899D02*
X97395176Y-111551383D01*
X97395176Y-111551383D02*
X97289635Y-111332452D01*
X97289635Y-111332452D02*
X97205347Y-111102370D01*
X97205347Y-111102370D02*
X97143576Y-110862399D01*
X97143576Y-110862399D02*
X97105587Y-110613801D01*
X97105587Y-110613801D02*
X97092643Y-110357840D01*
X191958223Y-91732274D02*
X191958223Y-77932348D01*
X196016923Y-91732274D02*
X209816865Y-91732274D01*
X196016923Y-77932348D02*
X196016923Y-91732274D01*
X209816865Y-77932348D02*
X196016923Y-77932348D01*
X209816865Y-91732274D02*
X209816865Y-77932348D01*
X160297208Y-91732274D02*
X174096783Y-91732274D01*
X160297208Y-77932348D02*
X160297208Y-91732274D01*
X174096783Y-77932348D02*
X160297208Y-77932348D01*
X174096783Y-91732274D02*
X174096783Y-77932348D01*
X124579602Y-91732274D02*
X138379533Y-91732274D01*
X124579602Y-77932348D02*
X124579602Y-91732274D01*
X138379533Y-77932348D02*
X124579602Y-77932348D01*
X138379533Y-91732274D02*
X138379533Y-77932348D01*
X142438233Y-91732274D02*
X156238152Y-91732274D01*
X142438233Y-77932348D02*
X142438233Y-91732274D01*
X156238152Y-77932348D02*
X142438233Y-77932348D01*
X156238152Y-91732274D02*
X156238152Y-77932348D01*
X106718517Y-91732274D02*
X120518081Y-91732274D01*
X106718517Y-77932348D02*
X106718517Y-91732274D01*
X120518081Y-77932348D02*
X106718517Y-77932348D01*
X120518081Y-91732274D02*
X120518081Y-77932348D01*
X213875543Y-91732274D02*
X227675485Y-91732274D01*
X213875543Y-77932348D02*
X213875543Y-91732274D01*
X227675485Y-77932348D02*
X213875543Y-77932348D01*
X227675485Y-91732274D02*
X227675485Y-77932348D01*
X231737005Y-95981471D02*
X245539401Y-95981471D01*
X231737005Y-82181901D02*
X231737005Y-95981471D01*
X103421461Y-98031459D02*
X104772947Y-98031459D01*
X103421461Y-93383272D02*
X103421461Y-98031459D01*
X99822427Y-93383272D02*
X103421461Y-93383272D01*
X57610203Y-108732243D02*
X71410128Y-108732243D01*
X57610203Y-94932668D02*
X57610203Y-108732243D01*
X98473762Y-104881680D02*
X98473762Y-98031459D01*
X104772947Y-104881680D02*
X98473762Y-104881680D01*
X104772947Y-98031459D02*
X104772947Y-104881680D01*
X285320638Y-57731637D02*
X299120557Y-57731637D01*
X285320638Y-43932062D02*
X285320638Y-57731637D01*
X299120557Y-43932062D02*
X285320638Y-43932062D01*
X299120557Y-57731637D02*
X299120557Y-43932062D01*
X204947471Y-57731637D02*
X218747391Y-57731637D01*
X204947471Y-43932062D02*
X204947471Y-57731637D01*
X218747391Y-43932062D02*
X204947471Y-43932062D01*
X249603376Y-74731954D02*
X263402952Y-74731954D01*
X249603376Y-60932029D02*
X249603376Y-74731954D01*
X263402952Y-60932029D02*
X249603376Y-60932029D01*
X263402952Y-74731954D02*
X263402952Y-60932029D01*
X62072834Y-74731954D02*
X75872759Y-74731954D01*
X62072834Y-60932029D02*
X62072834Y-74731954D01*
X75872759Y-60932029D02*
X62072834Y-60932029D01*
X75872759Y-74731954D02*
X75872759Y-60932029D01*
X44214206Y-74731954D02*
X58014134Y-74731954D01*
X44214206Y-60932029D02*
X44214206Y-74731954D01*
X58014134Y-60932029D02*
X44214206Y-60932029D01*
X58014134Y-74731954D02*
X58014134Y-60932029D01*
X79931809Y-74731954D02*
X93731384Y-74731954D01*
X218747391Y-57731637D02*
X218747391Y-43932062D01*
X115651530Y-57731637D02*
X129451450Y-57731637D01*
X115651530Y-43932062D02*
X115651530Y-57731637D01*
X129451450Y-43932062D02*
X115651530Y-43932062D01*
X129451450Y-57731637D02*
X129451450Y-43932062D01*
X249603376Y-57731637D02*
X263402952Y-57731637D01*
X249603376Y-43932062D02*
X249603376Y-57731637D01*
X263402952Y-43932062D02*
X249603376Y-43932062D01*
X263402952Y-57731637D02*
X263402952Y-43932062D01*
X21892955Y-74731954D02*
X35692528Y-74731954D01*
X21892955Y-60932029D02*
X21892955Y-74731954D01*
X35692528Y-60932029D02*
X21892955Y-60932029D01*
X35692528Y-74731954D02*
X35692528Y-60932029D01*
X227276845Y-74731954D02*
X241076420Y-74731954D01*
X227276845Y-60932029D02*
X227276845Y-74731954D01*
X241076420Y-60932029D02*
X227276845Y-60932029D01*
X241076420Y-74731954D02*
X241076420Y-60932029D01*
X267462018Y-74731954D02*
X281261593Y-74731954D01*
X267462018Y-60932029D02*
X267462018Y-74731954D01*
X281261593Y-60932029D02*
X267462018Y-60932029D01*
X281261593Y-74731954D02*
X281261593Y-60932029D01*
X200888771Y-74731954D02*
X200888771Y-60932029D01*
X204947471Y-74731954D02*
X218747391Y-74731954D01*
X204947471Y-60932029D02*
X204947471Y-74731954D01*
X218747391Y-60932029D02*
X204947471Y-60932029D01*
X218747391Y-74731954D02*
X218747391Y-60932029D01*
X71410128Y-94932668D02*
X57610203Y-94932668D01*
X71410128Y-108732243D02*
X71410128Y-94932668D01*
X17425036Y-108732243D02*
X31224610Y-108732243D01*
X17425036Y-94932668D02*
X17425036Y-108732243D01*
X31224610Y-94932668D02*
X17425036Y-94932668D01*
X31224610Y-108732243D02*
X31224610Y-94932668D01*
X35286129Y-108732243D02*
X49086057Y-108732243D01*
X35286129Y-94932668D02*
X35286129Y-108732243D01*
X49086057Y-94932668D02*
X35286129Y-94932668D01*
X49086057Y-108732243D02*
X49086057Y-94932668D01*
X79934280Y-108732243D02*
X93733855Y-108732243D01*
X79934280Y-94932668D02*
X79934280Y-108732243D01*
X93733855Y-94932668D02*
X79934280Y-94932668D01*
X178155838Y-91732274D02*
X191958223Y-91732274D01*
X178155838Y-77932348D02*
X178155838Y-91732274D01*
X191958223Y-77932348D02*
X178155838Y-77932348D01*
X164490664Y-98031459D02*
X164490664Y-104881680D01*
X163141999Y-98031459D02*
X164490664Y-98031459D01*
X163141999Y-93383272D02*
X163141999Y-98031459D01*
X159540150Y-93383272D02*
X163141999Y-93383272D01*
X123822899Y-98031459D02*
X123822899Y-93383272D01*
X122471413Y-98031459D02*
X123822899Y-98031459D01*
X115651530Y-74731954D02*
X129451450Y-74731954D01*
X115651530Y-60932029D02*
X115651530Y-74731954D01*
X129451450Y-60932029D02*
X115651530Y-60932029D01*
X129451450Y-74731954D02*
X129451450Y-60932029D01*
X133510150Y-74731954D02*
X147310081Y-74731954D01*
X133510150Y-60932029D02*
X133510150Y-74731954D01*
X147310081Y-60932029D02*
X133510150Y-60932029D01*
X147310081Y-74731954D02*
X147310081Y-60932029D01*
X151369136Y-74731954D02*
X165168700Y-74731954D01*
X151369136Y-60932029D02*
X151369136Y-74731954D01*
X165168700Y-60932029D02*
X151369136Y-60932029D01*
X165168700Y-74731954D02*
X165168700Y-60932029D01*
X187088852Y-74731954D02*
X200888771Y-74731954D01*
X187088852Y-60932029D02*
X187088852Y-74731954D01*
X200888771Y-60932029D02*
X187088852Y-60932029D01*
X109880805Y-22558017D02*
X111389279Y-22558017D01*
X108116921Y-24321901D02*
X108137248Y-24053313D01*
X108137248Y-24053313D02*
X108196234Y-23797431D01*
X108196234Y-23797431D02*
X108290883Y-23557249D01*
X108290883Y-23557249D02*
X108418202Y-23335762D01*
X108418202Y-23335762D02*
X108575196Y-23135964D01*
X108575196Y-23135964D02*
X108758870Y-22960850D01*
X108758870Y-22960850D02*
X108966230Y-22813415D01*
X108966230Y-22813415D02*
X109194282Y-22696652D01*
X109194282Y-22696652D02*
X109440030Y-22613557D01*
X109440030Y-22613557D02*
X109700481Y-22567125D01*
X109700481Y-22567125D02*
X109880805Y-22558017D01*
X108116921Y-26931745D02*
X108116921Y-24321901D01*
X106723448Y-26931745D02*
X108116921Y-26931745D01*
X106723448Y-40731670D02*
X106723448Y-26931745D01*
X120523378Y-40731670D02*
X106723448Y-40731670D01*
X120523378Y-26931745D02*
X120523378Y-40731670D01*
X142441053Y-40731670D02*
X156240629Y-40731670D01*
X142441053Y-26931745D02*
X142441053Y-40731670D01*
X156240629Y-26931745D02*
X142441053Y-26931745D01*
X156240629Y-40731670D02*
X156240629Y-26931745D01*
X160299673Y-40731670D02*
X174102069Y-40731670D01*
X160299673Y-26931745D02*
X160299673Y-40731670D01*
X174102069Y-26931745D02*
X160299673Y-26931745D01*
X174102069Y-40731670D02*
X174102069Y-26931745D01*
X227276845Y-57731637D02*
X241076420Y-57731637D01*
X227276845Y-43932062D02*
X227276845Y-57731637D01*
X241076420Y-43932062D02*
X227276845Y-43932062D01*
X241076420Y-57731637D02*
X241076420Y-43932062D01*
X21892955Y-57731637D02*
X35692528Y-57731637D01*
X21892955Y-43932062D02*
X21892955Y-57731637D01*
X35692528Y-43932062D02*
X21892955Y-43932062D01*
X35692528Y-57731637D02*
X35692528Y-43932062D01*
X62072834Y-57731637D02*
X75872759Y-57731637D01*
X49086057Y-26931745D02*
X35286129Y-26931745D01*
X49086057Y-40731670D02*
X49086057Y-26931745D01*
X17425036Y-40731670D02*
X31224610Y-40731670D01*
X17425036Y-26931745D02*
X17425036Y-40731670D01*
X31224610Y-26931745D02*
X17425036Y-26931745D01*
X31224610Y-40731670D02*
X31224610Y-26931745D01*
X71003732Y-40731670D02*
X84803307Y-40731670D01*
X71003732Y-26931745D02*
X71003732Y-40731670D01*
X84803307Y-26931745D02*
X71003732Y-26931745D01*
X84803307Y-40731670D02*
X84803307Y-26931745D01*
X178160769Y-40731670D02*
X191960700Y-40731670D01*
X178160769Y-26931745D02*
X178160769Y-40731670D01*
X191960700Y-26931745D02*
X178160769Y-26931745D01*
X300901732Y-21840116D02*
X300932781Y-21993926D01*
X300859745Y-21688069D02*
X300901732Y-21840116D01*
X300804710Y-21540961D02*
X300859745Y-21688069D01*
X300739813Y-21399145D02*
X300804710Y-21540961D01*
X300662901Y-21261914D02*
X300739813Y-21399145D01*
X300576817Y-21131034D02*
X300662901Y-21261914D01*
X300477685Y-21007915D02*
X300576817Y-21131034D01*
X300371856Y-20892204D02*
X300477685Y-21007915D01*
X300255800Y-20786018D02*
X300371856Y-20892204D01*
X300132681Y-20687946D02*
X300255800Y-20786018D01*
X300001789Y-20601163D02*
X300132681Y-20687946D01*
X227677939Y-40731670D02*
X227677939Y-26931745D01*
X53144754Y-40731670D02*
X66944682Y-40731670D01*
X53144754Y-26931745D02*
X53144754Y-40731670D01*
X66944682Y-26931745D02*
X53144754Y-26931745D01*
X66944682Y-40731670D02*
X66944682Y-26931745D01*
X231737005Y-40731670D02*
X245539401Y-40731670D01*
X231737005Y-26931745D02*
X231737005Y-40731670D01*
X102661927Y-40731670D02*
X102661927Y-26931745D01*
X124582078Y-40731670D02*
X138381998Y-40731670D01*
X124582078Y-26931745D02*
X124582078Y-40731670D01*
X138381998Y-26931745D02*
X124582078Y-26931745D01*
X138381998Y-40731670D02*
X138381998Y-26931745D01*
X113153164Y-26931745D02*
X120523378Y-26931745D01*
X111389279Y-22558017D02*
X111657947Y-22578344D01*
X111657947Y-22578344D02*
X111913879Y-22637330D01*
X111913879Y-22637330D02*
X112154083Y-22731980D01*
X112154083Y-22731980D02*
X112375572Y-22859300D01*
X112375572Y-22859300D02*
X112575355Y-23016294D01*
X112575355Y-23016294D02*
X112750443Y-23199968D01*
X112750443Y-23199968D02*
X112897847Y-23407329D01*
X112897847Y-23407329D02*
X113014577Y-23635380D01*
X113014577Y-23635380D02*
X113097644Y-23881128D01*
X113097644Y-23881128D02*
X113144059Y-24141578D01*
X113144059Y-24141578D02*
X113153164Y-24321901D01*
X249593149Y-112981790D02*
X263392724Y-112981790D01*
X20543583Y-76847205D02*
X20543583Y-76846500D01*
X21628725Y-77932348D02*
X21410013Y-77910304D01*
X21410013Y-77910304D02*
X21206313Y-77847080D01*
X21206313Y-77847080D02*
X21021985Y-77747038D01*
X21021985Y-77747038D02*
X20861391Y-77614540D01*
X20861391Y-77614540D02*
X20728892Y-77453946D01*
X20728892Y-77453946D02*
X20628850Y-77269617D01*
X20628850Y-77269617D02*
X20565626Y-77065916D01*
X20565626Y-77065916D02*
X20543583Y-76847205D01*
X208418805Y-26931745D02*
X209819319Y-26931745D01*
X207902344Y-23074835D02*
X208046654Y-23238058D01*
X208046654Y-23238058D02*
X208168755Y-23416325D01*
X208168755Y-23416325D02*
X208267724Y-23607365D01*
X208267724Y-23607365D02*
X208342642Y-23808910D01*
X208342642Y-23808910D02*
X208392587Y-24018691D01*
X208392587Y-24018691D02*
X208416640Y-24234439D01*
X208416640Y-24234439D02*
X208418805Y-24321901D01*
X206654921Y-22558017D02*
X206872534Y-22571477D01*
X206872534Y-22571477D02*
X207085019Y-22611234D01*
X207085019Y-22611234D02*
X207290139Y-22676352D01*
X207290139Y-22676352D02*
X207485657Y-22765893D01*
X207485657Y-22765893D02*
X207669337Y-22878921D01*
X207669337Y-22878921D02*
X207838943Y-23014499D01*
X207838943Y-23014499D02*
X207902344Y-23074835D01*
X205111156Y-22558017D02*
X206654921Y-22558017D01*
X203864099Y-23074835D02*
X204027323Y-22930498D01*
X204027323Y-22930498D02*
X204205589Y-22808338D01*
X204205589Y-22808338D02*
X204396628Y-22709290D01*
X204396628Y-22709290D02*
X204598171Y-22634291D01*
X204598171Y-22634291D02*
X204807949Y-22584277D01*
X204807949Y-22584277D02*
X205023695Y-22560185D01*
X205023695Y-22560185D02*
X205111156Y-22558017D01*
X203347272Y-24321901D02*
X203360733Y-24104401D01*
X203360733Y-24104401D02*
X203400492Y-23891961D01*
X203400492Y-23891961D02*
X203465613Y-23686850D01*
X203465613Y-23686850D02*
X203555156Y-23491335D01*
X203555156Y-23491335D02*
X203668186Y-23307687D01*
X203668186Y-23307687D02*
X203803764Y-23138174D01*
X203803764Y-23138174D02*
X203864099Y-23074835D01*
X203347272Y-26931745D02*
X203347272Y-24321901D01*
X196019400Y-26931745D02*
X203347272Y-26931745D01*
X15583540Y-22307192D02*
X15589537Y-22150207D01*
X15582482Y-73788630D02*
X15583540Y-22307192D01*
X15728884Y-74142112D02*
X15582482Y-73788630D01*
X16082366Y-74288518D02*
X15728884Y-74142112D01*
X19791110Y-75033227D02*
X19602777Y-74862950D01*
X19602777Y-74862950D02*
X19400062Y-74713208D01*
X19400062Y-74713208D02*
X19184655Y-74584691D01*
X19184655Y-74584691D02*
X18958247Y-74478089D01*
X18958247Y-74478089D02*
X18722529Y-74394092D01*
X18722529Y-74394092D02*
X18479193Y-74333391D01*
X18479193Y-74333391D02*
X18229928Y-74296676D01*
X18229928Y-74296676D02*
X17976426Y-74284637D01*
X20543583Y-76846500D02*
X20531015Y-76592913D01*
X20531015Y-76592913D02*
X20493775Y-76343654D01*
X20493775Y-76343654D02*
X20432557Y-76100407D01*
X20432557Y-76100407D02*
X20348056Y-75864854D01*
X20348056Y-75864854D02*
X20240966Y-75638676D01*
X20240966Y-75638676D02*
X20111982Y-75423557D01*
X20111982Y-75423557D02*
X19961798Y-75221180D01*
X19961798Y-75221180D02*
X19791110Y-75033227D01*
X16168444Y-20892204D02*
X16284507Y-20786018D01*
X16062611Y-21007915D02*
X16168444Y-20892204D01*
X15964539Y-21131034D02*
X16062611Y-21007915D01*
X15877403Y-21261914D02*
X15964539Y-21131034D01*
X15800498Y-21399145D02*
X15877403Y-21261914D01*
X15735587Y-21540961D02*
X15800498Y-21399145D01*
X15680554Y-21688069D02*
X15735587Y-21540961D01*
X15638573Y-21840116D02*
X15680554Y-21688069D01*
X15607529Y-21993926D02*
X15638573Y-21840116D01*
X15589537Y-22150207D02*
X15607529Y-21993926D01*
X17116356Y-20361981D02*
X17270519Y-20330936D01*
X16964662Y-20403961D02*
X17116356Y-20361981D01*
X16817554Y-20458994D02*
X16964662Y-20403961D01*
X16675385Y-20523905D02*
X16817554Y-20458994D01*
X299864912Y-20523905D02*
X300001789Y-20601163D01*
X299722759Y-20458994D02*
X299864912Y-20523905D01*
X299576708Y-20403961D02*
X299722759Y-20458994D01*
X299423940Y-20361981D02*
X299576708Y-20403961D01*
X299269794Y-20330936D02*
X299423940Y-20361981D01*
X299113861Y-20312945D02*
X299269794Y-20330936D01*
X298957928Y-20306947D02*
X299113861Y-20312945D01*
X17583432Y-20305889D02*
X298957928Y-20306947D01*
X17426447Y-20312945D02*
X17583432Y-20305889D01*
X17270519Y-20330936D02*
X17426447Y-20312945D01*
X16538507Y-20601163D02*
X16675385Y-20523905D01*
X16407627Y-20687946D02*
X16538507Y-20601163D01*
X16284507Y-20786018D02*
X16407627Y-20687946D01*
X196019400Y-40731670D02*
X196019400Y-26931745D01*
X209819319Y-40731670D02*
X196019400Y-40731670D01*
X209819319Y-26931745D02*
X209819319Y-40731670D01*
X249598101Y-40731670D02*
X263398021Y-40731670D01*
X249598101Y-26931745D02*
X249598101Y-40731670D01*
X263398021Y-26931745D02*
X249598101Y-26931745D01*
X263398021Y-40731670D02*
X263398021Y-26931745D01*
X213878385Y-40731670D02*
X227677939Y-40731670D01*
X213878385Y-26931745D02*
X213878385Y-40731670D01*
X227677939Y-26931745D02*
X213878385Y-26931745D01*
X249593149Y-99181865D02*
X249593149Y-112981790D01*
X299423940Y-115177828D02*
X299269794Y-115207812D01*
X299576708Y-115135841D02*
X299423940Y-115177828D01*
X299722759Y-115079751D02*
X299576708Y-115135841D01*
X299864912Y-115014844D02*
X299722759Y-115079751D01*
X300001789Y-114937943D02*
X299864912Y-115014844D01*
X300132681Y-114850804D02*
X300001789Y-114937943D01*
X300255800Y-114752726D02*
X300132681Y-114850804D01*
X300371856Y-114647953D02*
X300255800Y-114752726D01*
X300477685Y-114531896D02*
X300371856Y-114647953D01*
X300576817Y-114407712D02*
X300477685Y-114531896D01*
X300662901Y-114276831D02*
X300576817Y-114407712D01*
X300739813Y-114139953D02*
X300662901Y-114276831D01*
X300804710Y-113998844D02*
X300739813Y-114139953D01*
X300859745Y-113850684D02*
X300804710Y-113998844D01*
X300901732Y-113698982D02*
X300859745Y-113850684D01*
X300932781Y-113544825D02*
X300901732Y-113698982D01*
X300951836Y-113388892D02*
X300932781Y-113544825D01*
X300957822Y-113233669D02*
X300951836Y-113388892D01*
X300441361Y-92248741D02*
X300585557Y-92412105D01*
X300585557Y-92412105D02*
X300707620Y-92590469D01*
X300707620Y-92590469D02*
X300806605Y-92781570D01*
X300806605Y-92781570D02*
X300881568Y-92983149D01*
X300881568Y-92983149D02*
X300931566Y-93192944D01*
X300931566Y-93192944D02*
X300955653Y-93408696D01*
X300955653Y-93408696D02*
X300957822Y-93496158D01*
X299193938Y-91732274D02*
X299411437Y-91745711D01*
X299411437Y-91745711D02*
X299623888Y-91785410D01*
X299623888Y-91785410D02*
X299829026Y-91850449D01*
X299829026Y-91850449D02*
X300024592Y-91939909D01*
X300024592Y-91939909D02*
X300208324Y-92052869D01*
X300208324Y-92052869D02*
X300377960Y-92188409D01*
X300377960Y-92188409D02*
X300441361Y-92248741D01*
X285320638Y-91732274D02*
X299193938Y-91732274D01*
X285320638Y-77932348D02*
X285320638Y-91732274D01*
X296084919Y-77594035D02*
X295908990Y-77738276D01*
X295908990Y-77738276D02*
X295710176Y-77844418D01*
X295710176Y-77844418D02*
X295494564Y-77909946D01*
X295494564Y-77909946D02*
X295268240Y-77932348D01*
X296422882Y-76777356D02*
X296400536Y-77003833D01*
X296400536Y-77003833D02*
X296335129Y-77219430D01*
X296335129Y-77219430D02*
X296229108Y-77418159D01*
X296229108Y-77418159D02*
X296084919Y-77594035D01*
X296422882Y-75885891D02*
X296422882Y-76106738D01*
X296422882Y-76106738D02*
X296422882Y-76331621D01*
X296422882Y-76331621D02*
X296422882Y-76556505D01*
X296422882Y-76556505D02*
X296422882Y-76777356D01*
X296084553Y-75069212D02*
X296228953Y-75245087D01*
X296228953Y-75245087D02*
X296335083Y-75443816D01*
X296335083Y-75443816D02*
X296400530Y-75659413D01*
X296400530Y-75659413D02*
X296422882Y-75885891D01*
X295267895Y-74730899D02*
X295494365Y-74753300D01*
X295494365Y-74753300D02*
X295709959Y-74818829D01*
X295709959Y-74818829D02*
X295908685Y-74924970D01*
X295908685Y-74924970D02*
X296084553Y-75069212D01*
X285320638Y-60932029D02*
X285320638Y-74731954D01*
X300957822Y-59168144D02*
X300937494Y-59436813D01*
X300937494Y-59436813D02*
X300878508Y-59692745D01*
X300878508Y-59692745D02*
X300783857Y-59932950D01*
X300783857Y-59932950D02*
X300656537Y-60154438D01*
X300656537Y-60154438D02*
X300499542Y-60354221D01*
X300499542Y-60354221D02*
X300315867Y-60529309D01*
X300315867Y-60529309D02*
X300108507Y-60676712D01*
X300108507Y-60676712D02*
X299880456Y-60793442D01*
X299880456Y-60793442D02*
X299634708Y-60876509D01*
X299634708Y-60876509D02*
X299374259Y-60922924D01*
X299374259Y-60922924D02*
X299193938Y-60932029D01*
X300951836Y-22150207D02*
X300957822Y-22307192D01*
X300932781Y-21993926D02*
X300951836Y-22150207D01*
X49086057Y-91732274D02*
X49086057Y-77932348D01*
X16099300Y-92248741D02*
X16262523Y-92104427D01*
X16262523Y-92104427D02*
X16440790Y-91982325D01*
X16440790Y-91982325D02*
X16631830Y-91883355D01*
X16631830Y-91883355D02*
X16833375Y-91808436D01*
X16833375Y-91808436D02*
X17043156Y-91758491D01*
X17043156Y-91758491D02*
X17258904Y-91734438D01*
X17258904Y-91734438D02*
X17346366Y-91732274D01*
X15582482Y-93496158D02*
X15595942Y-93278657D01*
X15595942Y-93278657D02*
X15635699Y-93066208D01*
X15635699Y-93066208D02*
X15700817Y-92861071D01*
X15700817Y-92861071D02*
X15790358Y-92665507D01*
X15790358Y-92665507D02*
X15903386Y-92481778D01*
X15903386Y-92481778D02*
X16038964Y-92312142D01*
X16038964Y-92312142D02*
X16099300Y-92248741D01*
X15582482Y-113233669D02*
X15582482Y-93496158D01*
X15589537Y-113388892D02*
X15582482Y-113233669D01*
X15607529Y-113544825D02*
X15589537Y-113388892D01*
X15638573Y-113698982D02*
X15607529Y-113544825D01*
X15680554Y-113850684D02*
X15638573Y-113698982D01*
X15735587Y-113998844D02*
X15680554Y-113850684D01*
X15800498Y-114139953D02*
X15735587Y-113998844D01*
X15877403Y-114276831D02*
X15800498Y-114139953D01*
X15964539Y-114407712D02*
X15877403Y-114276831D01*
X16062611Y-114531896D02*
X15964539Y-114407712D01*
X16168444Y-114647953D02*
X16062611Y-114531896D01*
X16284507Y-114752726D02*
X16168444Y-114647953D01*
X16407627Y-114850804D02*
X16284507Y-114752726D01*
X16538507Y-114937943D02*
X16407627Y-114850804D01*
X16675385Y-115014844D02*
X16538507Y-114937943D01*
X16817554Y-115079751D02*
X16675385Y-115014844D01*
X16964662Y-115135841D02*
X16817554Y-115079751D01*
X17116356Y-115177828D02*
X16964662Y-115135841D01*
X17270519Y-115207812D02*
X17116356Y-115177828D01*
X17426447Y-115225801D02*
X17270519Y-115207812D01*
X17583432Y-115233919D02*
X17426447Y-115225801D01*
X298957928Y-115231798D02*
X17583432Y-115233919D01*
X299113861Y-115225801D02*
X298957928Y-115231798D01*
X299269794Y-115207812D02*
X299113861Y-115225801D01*
X44214206Y-50770643D02*
X40971130Y-50770643D01*
X44214206Y-57731637D02*
X44214206Y-50770643D01*
X58014134Y-57731637D02*
X44214206Y-57731637D01*
X58014134Y-43932062D02*
X58014134Y-57731637D01*
X44214206Y-43932062D02*
X58014134Y-43932062D01*
X44214206Y-45970410D02*
X44214206Y-43932062D01*
X40971130Y-45970410D02*
X44214206Y-45970410D01*
X38570836Y-48370349D02*
X38583239Y-48125154D01*
X38583239Y-48125154D02*
X38619641Y-47887000D01*
X38619641Y-47887000D02*
X38678831Y-47657098D01*
X38678831Y-47657098D02*
X38759598Y-47436659D01*
X38759598Y-47436659D02*
X38860733Y-47226894D01*
X38860733Y-47226894D02*
X38981023Y-47029014D01*
X38981023Y-47029014D02*
X39119258Y-46844232D01*
X39119258Y-46844232D02*
X39274228Y-46673758D01*
X39274228Y-46673758D02*
X39444721Y-46518802D01*
X39444721Y-46518802D02*
X39629527Y-46380578D01*
X39629527Y-46380578D02*
X39827435Y-46260296D01*
X39827435Y-46260296D02*
X40037235Y-46159167D01*
X40037235Y-46159167D02*
X40257714Y-46078402D01*
X40257714Y-46078402D02*
X40487664Y-46019214D01*
X40487664Y-46019214D02*
X40725873Y-45982812D01*
X40725873Y-45982812D02*
X40971130Y-45970410D01*
X245539401Y-26931745D02*
X231737005Y-26931745D01*
X245539401Y-40731670D02*
X245539401Y-26931745D01*
X35286129Y-40731670D02*
X49086057Y-40731670D01*
X35286129Y-26931745D02*
X35286129Y-40731670D01*
X299115261Y-26931745D02*
X285315707Y-26931745D01*
X299115261Y-40731670D02*
X299115261Y-26931745D01*
X88862357Y-40731670D02*
X102661927Y-40731670D01*
X88862357Y-26931745D02*
X88862357Y-40731670D01*
X102661927Y-26931745D02*
X88862357Y-26931745D01*
X191960700Y-40731670D02*
X191960700Y-26931745D01*
X267456721Y-40731670D02*
X281256641Y-40731670D01*
X267456721Y-26931745D02*
X267456721Y-40731670D01*
X281256641Y-26931745D02*
X267456721Y-26931745D01*
X281256641Y-40731670D02*
X281256641Y-26931745D01*
X285315707Y-40731670D02*
X299115261Y-40731670D01*
X285315707Y-26931745D02*
X285315707Y-40731670D01*
X40971130Y-50770643D02*
X40725873Y-50758239D01*
X40725873Y-50758239D02*
X40487664Y-50721837D01*
X40487664Y-50721837D02*
X40257714Y-50662647D01*
X40257714Y-50662647D02*
X40037235Y-50581880D01*
X40037235Y-50581880D02*
X39827435Y-50480745D01*
X39827435Y-50480745D02*
X39629527Y-50360455D01*
X39629527Y-50360455D02*
X39444721Y-50222220D01*
X39444721Y-50222220D02*
X39274228Y-50067250D01*
X39274228Y-50067250D02*
X39119258Y-49896757D01*
X39119258Y-49896757D02*
X38981023Y-49711951D01*
X38981023Y-49711951D02*
X38860733Y-49514043D01*
X38860733Y-49514043D02*
X38759598Y-49304243D01*
X38759598Y-49304243D02*
X38678831Y-49083764D01*
X38678831Y-49083764D02*
X38619641Y-48853814D01*
X38619641Y-48853814D02*
X38583239Y-48615605D01*
X38583239Y-48615605D02*
X38570836Y-48370349D01*
X49086057Y-77932348D02*
X21628725Y-77932348D01*
X209103194Y-103452583D02*
X209247527Y-103615946D01*
X209247527Y-103615946D02*
X209369685Y-103794309D01*
X209369685Y-103794309D02*
X209468731Y-103985410D01*
X209468731Y-103985410D02*
X209543728Y-104186990D01*
X209543728Y-104186990D02*
X209593740Y-104396786D01*
X209593740Y-104396786D02*
X209617831Y-104612538D01*
X209617831Y-104612538D02*
X209620000Y-104700000D01*
X263392724Y-112981790D02*
X263392724Y-99181865D01*
X227675485Y-99181865D02*
X213875543Y-99181865D01*
X231734529Y-112981790D02*
X245534104Y-112981790D01*
X213875543Y-99181865D02*
X213875543Y-112981790D01*
X209620000Y-104700000D02*
X209620000Y-106225404D01*
M02*
