%TF.GenerationSoftware,KiCad,Pcbnew,(5.1.10-1-10_14)*%
%TF.CreationDate,2021-11-20T07:42:05+09:00*%
%TF.ProjectId,keyplate,6b657970-6c61-4746-952e-6b696361645f,rev?*%
%TF.SameCoordinates,Original*%
%TF.FileFunction,Legend,Bot*%
%TF.FilePolarity,Positive*%
%FSLAX46Y46*%
G04 Gerber Fmt 4.6, Leading zero omitted, Abs format (unit mm)*
G04 Created by KiCad (PCBNEW (5.1.10-1-10_14)) date 2021-11-20 07:42:05*
%MOMM*%
%LPD*%
G01*
G04 APERTURE LIST*
%ADD10C,0.150000*%
%ADD11C,0.160000*%
G04 APERTURE END LIST*
D10*
X26919047Y-112652380D02*
X26919047Y-113366666D01*
X26966666Y-113509523D01*
X27061904Y-113604761D01*
X27204761Y-113652380D01*
X27300000Y-113652380D01*
X25966666Y-113652380D02*
X26442857Y-113652380D01*
X26442857Y-112652380D01*
X25061904Y-113557142D02*
X25109523Y-113604761D01*
X25252380Y-113652380D01*
X25347619Y-113652380D01*
X25490476Y-113604761D01*
X25585714Y-113509523D01*
X25633333Y-113414285D01*
X25680952Y-113223809D01*
X25680952Y-113080952D01*
X25633333Y-112890476D01*
X25585714Y-112795238D01*
X25490476Y-112700000D01*
X25347619Y-112652380D01*
X25252380Y-112652380D01*
X25109523Y-112700000D01*
X25061904Y-112747619D01*
X24347619Y-112652380D02*
X24347619Y-113366666D01*
X24395238Y-113509523D01*
X24490476Y-113604761D01*
X24633333Y-113652380D01*
X24728571Y-113652380D01*
X23395238Y-113652380D02*
X23871428Y-113652380D01*
X23871428Y-112652380D01*
X22490476Y-113557142D02*
X22538095Y-113604761D01*
X22680952Y-113652380D01*
X22776190Y-113652380D01*
X22919047Y-113604761D01*
X23014285Y-113509523D01*
X23061904Y-113414285D01*
X23109523Y-113223809D01*
X23109523Y-113080952D01*
X23061904Y-112890476D01*
X23014285Y-112795238D01*
X22919047Y-112700000D01*
X22776190Y-112652380D01*
X22680952Y-112652380D01*
X22538095Y-112700000D01*
X22490476Y-112747619D01*
X21776190Y-112652380D02*
X21776190Y-113366666D01*
X21823809Y-113509523D01*
X21919047Y-113604761D01*
X22061904Y-113652380D01*
X22157142Y-113652380D01*
X20823809Y-113652380D02*
X21300000Y-113652380D01*
X21300000Y-112652380D01*
X19919047Y-113557142D02*
X19966666Y-113604761D01*
X20109523Y-113652380D01*
X20204761Y-113652380D01*
X20347619Y-113604761D01*
X20442857Y-113509523D01*
X20490476Y-113414285D01*
X20538095Y-113223809D01*
X20538095Y-113080952D01*
X20490476Y-112890476D01*
X20442857Y-112795238D01*
X20347619Y-112700000D01*
X20204761Y-112652380D01*
X20109523Y-112652380D01*
X19966666Y-112700000D01*
X19919047Y-112747619D01*
X19204761Y-112652380D02*
X19204761Y-113366666D01*
X19252380Y-113509523D01*
X19347619Y-113604761D01*
X19490476Y-113652380D01*
X19585714Y-113652380D01*
X18252380Y-113652380D02*
X18728571Y-113652380D01*
X18728571Y-112652380D01*
X17347619Y-113557142D02*
X17395238Y-113604761D01*
X17538095Y-113652380D01*
X17633333Y-113652380D01*
X17776190Y-113604761D01*
X17871428Y-113509523D01*
X17919047Y-113414285D01*
X17966666Y-113223809D01*
X17966666Y-113080952D01*
X17919047Y-112890476D01*
X17871428Y-112795238D01*
X17776190Y-112700000D01*
X17633333Y-112652380D01*
X17538095Y-112652380D01*
X17395238Y-112700000D01*
X17347619Y-112747619D01*
D11*
X297429333Y-110570000D02*
X296429333Y-110570000D01*
X297029333Y-109970000D02*
X297429333Y-111770000D01*
X296562666Y-111170000D02*
X297562666Y-111170000D01*
X296962666Y-111770000D02*
X296562666Y-109970000D01*
X295962666Y-111503333D02*
X295962666Y-110103333D01*
X295162666Y-111503333D01*
X295162666Y-110103333D01*
X294296000Y-111503333D02*
X294429333Y-111436666D01*
X294496000Y-111370000D01*
X294562666Y-111236666D01*
X294562666Y-110836666D01*
X294496000Y-110703333D01*
X294429333Y-110636666D01*
X294296000Y-110570000D01*
X294096000Y-110570000D01*
X293962666Y-110636666D01*
X293896000Y-110703333D01*
X293829333Y-110836666D01*
X293829333Y-111236666D01*
X293896000Y-111370000D01*
X293962666Y-111436666D01*
X294096000Y-111503333D01*
X294296000Y-111503333D01*
X293229333Y-111503333D02*
X293229333Y-110570000D01*
X293229333Y-110836666D02*
X293162666Y-110703333D01*
X293096000Y-110636666D01*
X292962666Y-110570000D01*
X292829333Y-110570000D01*
X291762666Y-111503333D02*
X291762666Y-110770000D01*
X291829333Y-110636666D01*
X291962666Y-110570000D01*
X292229333Y-110570000D01*
X292362666Y-110636666D01*
X291762666Y-111436666D02*
X291896000Y-111503333D01*
X292229333Y-111503333D01*
X292362666Y-111436666D01*
X292429333Y-111303333D01*
X292429333Y-111170000D01*
X292362666Y-111036666D01*
X292229333Y-110970000D01*
X291896000Y-110970000D01*
X291762666Y-110903333D01*
X291429333Y-111636666D02*
X290362666Y-111636666D01*
X290029333Y-111503333D02*
X290029333Y-110103333D01*
X289896000Y-110970000D02*
X289496000Y-111503333D01*
X289496000Y-110570000D02*
X290029333Y-111103333D01*
X288896000Y-111503333D02*
X288896000Y-110103333D01*
X288896000Y-110636666D02*
X288762666Y-110570000D01*
X288496000Y-110570000D01*
X288362666Y-110636666D01*
X288296000Y-110703333D01*
X288229333Y-110836666D01*
X288229333Y-111236666D01*
X288296000Y-111370000D01*
X288362666Y-111436666D01*
X288496000Y-111503333D01*
X288762666Y-111503333D01*
X288896000Y-111436666D01*
X287029333Y-111503333D02*
X287029333Y-110103333D01*
X287029333Y-111436666D02*
X287162666Y-111503333D01*
X287429333Y-111503333D01*
X287562666Y-111436666D01*
X287629333Y-111370000D01*
X287696000Y-111236666D01*
X287696000Y-110836666D01*
X287629333Y-110703333D01*
X287562666Y-110636666D01*
X287429333Y-110570000D01*
X287162666Y-110570000D01*
X287029333Y-110636666D01*
X285362666Y-111436666D02*
X285162666Y-111503333D01*
X284829333Y-111503333D01*
X284696000Y-111436666D01*
X284629333Y-111370000D01*
X284562666Y-111236666D01*
X284562666Y-111103333D01*
X284629333Y-110970000D01*
X284696000Y-110903333D01*
X284829333Y-110836666D01*
X285096000Y-110770000D01*
X285229333Y-110703333D01*
X285296000Y-110636666D01*
X285362666Y-110503333D01*
X285362666Y-110370000D01*
X285296000Y-110236666D01*
X285229333Y-110170000D01*
X285096000Y-110103333D01*
X284762666Y-110103333D01*
X284562666Y-110170000D01*
X284096000Y-110570000D02*
X283829333Y-111503333D01*
X283562666Y-110836666D01*
X283296000Y-111503333D01*
X283029333Y-110570000D01*
X282496000Y-111503333D02*
X282496000Y-110570000D01*
X282496000Y-110103333D02*
X282562666Y-110170000D01*
X282496000Y-110236666D01*
X282429333Y-110170000D01*
X282496000Y-110103333D01*
X282496000Y-110236666D01*
X282029333Y-110570000D02*
X281496000Y-110570000D01*
X281829333Y-110103333D02*
X281829333Y-111303333D01*
X281762666Y-111436666D01*
X281629333Y-111503333D01*
X281496000Y-111503333D01*
X280429333Y-111436666D02*
X280562666Y-111503333D01*
X280829333Y-111503333D01*
X280962666Y-111436666D01*
X281029333Y-111370000D01*
X281096000Y-111236666D01*
X281096000Y-110836666D01*
X281029333Y-110703333D01*
X280962666Y-110636666D01*
X280829333Y-110570000D01*
X280562666Y-110570000D01*
X280429333Y-110636666D01*
X279829333Y-111503333D02*
X279829333Y-110103333D01*
X279229333Y-111503333D02*
X279229333Y-110770000D01*
X279296000Y-110636666D01*
X279429333Y-110570000D01*
X279629333Y-110570000D01*
X279762666Y-110636666D01*
X279829333Y-110703333D01*
X277496000Y-110570000D02*
X277496000Y-111970000D01*
X277496000Y-110636666D02*
X277362666Y-110570000D01*
X277096000Y-110570000D01*
X276962666Y-110636666D01*
X276896000Y-110703333D01*
X276829333Y-110836666D01*
X276829333Y-111236666D01*
X276896000Y-111370000D01*
X276962666Y-111436666D01*
X277096000Y-111503333D01*
X277362666Y-111503333D01*
X277496000Y-111436666D01*
X276029333Y-111503333D02*
X276162666Y-111436666D01*
X276229333Y-111303333D01*
X276229333Y-110103333D01*
X274896000Y-111503333D02*
X274896000Y-110770000D01*
X274962666Y-110636666D01*
X275096000Y-110570000D01*
X275362666Y-110570000D01*
X275496000Y-110636666D01*
X274896000Y-111436666D02*
X275029333Y-111503333D01*
X275362666Y-111503333D01*
X275496000Y-111436666D01*
X275562666Y-111303333D01*
X275562666Y-111170000D01*
X275496000Y-111036666D01*
X275362666Y-110970000D01*
X275029333Y-110970000D01*
X274896000Y-110903333D01*
X274429333Y-110570000D02*
X273896000Y-110570000D01*
X274229333Y-110103333D02*
X274229333Y-111303333D01*
X274162666Y-111436666D01*
X274029333Y-111503333D01*
X273896000Y-111503333D01*
X272896000Y-111436666D02*
X273029333Y-111503333D01*
X273296000Y-111503333D01*
X273429333Y-111436666D01*
X273496000Y-111303333D01*
X273496000Y-110770000D01*
X273429333Y-110636666D01*
X273296000Y-110570000D01*
X273029333Y-110570000D01*
X272896000Y-110636666D01*
X272829333Y-110770000D01*
X272829333Y-110903333D01*
X273496000Y-111036666D01*
X271296000Y-110570000D02*
X270962666Y-111503333D01*
X270629333Y-110570000D01*
X270096000Y-111370000D02*
X270029333Y-111436666D01*
X270096000Y-111503333D01*
X270162666Y-111436666D01*
X270096000Y-111370000D01*
X270096000Y-111503333D01*
X269162666Y-110103333D02*
X269029333Y-110103333D01*
X268896000Y-110170000D01*
X268829333Y-110236666D01*
X268762666Y-110370000D01*
X268696000Y-110636666D01*
X268696000Y-110970000D01*
X268762666Y-111236666D01*
X268829333Y-111370000D01*
X268896000Y-111436666D01*
X269029333Y-111503333D01*
X269162666Y-111503333D01*
X269296000Y-111436666D01*
X269362666Y-111370000D01*
X269429333Y-111236666D01*
X269496000Y-110970000D01*
X269496000Y-110636666D01*
X269429333Y-110370000D01*
X269362666Y-110236666D01*
X269296000Y-110170000D01*
X269162666Y-110103333D01*
X268095999Y-111370000D02*
X268029333Y-111436666D01*
X268095999Y-111503333D01*
X268162666Y-111436666D01*
X268095999Y-111370000D01*
X268095999Y-111503333D01*
X266695999Y-111503333D02*
X267495999Y-111503333D01*
X267095999Y-111503333D02*
X267095999Y-110103333D01*
X267229333Y-110303333D01*
X267362666Y-110436666D01*
X267495999Y-110503333D01*
X297362666Y-113763333D02*
X297362666Y-112363333D01*
X297362666Y-112896666D02*
X297229333Y-112830000D01*
X296962666Y-112830000D01*
X296829333Y-112896666D01*
X296762666Y-112963333D01*
X296696000Y-113096666D01*
X296696000Y-113496666D01*
X296762666Y-113630000D01*
X296829333Y-113696666D01*
X296962666Y-113763333D01*
X297229333Y-113763333D01*
X297362666Y-113696666D01*
X296229333Y-112830000D02*
X295896000Y-113763333D01*
X295562666Y-112830000D02*
X295896000Y-113763333D01*
X296029333Y-114096666D01*
X296096000Y-114163333D01*
X296229333Y-114230000D01*
X293096000Y-113096666D02*
X293162666Y-113030000D01*
X293296000Y-112963333D01*
X293429333Y-112963333D01*
X293562666Y-113030000D01*
X293629333Y-113096666D01*
X293696000Y-113230000D01*
X293696000Y-113363333D01*
X293629333Y-113496666D01*
X293562666Y-113563333D01*
X293429333Y-113630000D01*
X293296000Y-113630000D01*
X293162666Y-113563333D01*
X293096000Y-113496666D01*
X293096000Y-112963333D02*
X293096000Y-113496666D01*
X293029333Y-113563333D01*
X292962666Y-113563333D01*
X292829333Y-113496666D01*
X292762666Y-113363333D01*
X292762666Y-113030000D01*
X292896000Y-112830000D01*
X293096000Y-112696666D01*
X293362666Y-112630000D01*
X293629333Y-112696666D01*
X293829333Y-112830000D01*
X293962666Y-113030000D01*
X294029333Y-113296666D01*
X293962666Y-113563333D01*
X293829333Y-113763333D01*
X293629333Y-113896666D01*
X293362666Y-113963333D01*
X293096000Y-113896666D01*
X292896000Y-113763333D01*
X292162666Y-112830000D02*
X292162666Y-114030000D01*
X292229333Y-114163333D01*
X292362666Y-114230000D01*
X292429333Y-114230000D01*
X292162666Y-112363333D02*
X292229333Y-112430000D01*
X292162666Y-112496666D01*
X292096000Y-112430000D01*
X292162666Y-112363333D01*
X292162666Y-112496666D01*
X291496000Y-112830000D02*
X291496000Y-114230000D01*
X291496000Y-112896666D02*
X291362666Y-112830000D01*
X291096000Y-112830000D01*
X290962666Y-112896666D01*
X290896000Y-112963333D01*
X290829333Y-113096666D01*
X290829333Y-113496666D01*
X290896000Y-113630000D01*
X290962666Y-113696666D01*
X291096000Y-113763333D01*
X291362666Y-113763333D01*
X291496000Y-113696666D01*
X290296000Y-113696666D02*
X290162666Y-113763333D01*
X289896000Y-113763333D01*
X289762666Y-113696666D01*
X289696000Y-113563333D01*
X289696000Y-113496666D01*
X289762666Y-113363333D01*
X289896000Y-113296666D01*
X290096000Y-113296666D01*
X290229333Y-113230000D01*
X290296000Y-113096666D01*
X290296000Y-113030000D01*
X290229333Y-112896666D01*
X290096000Y-112830000D01*
X289896000Y-112830000D01*
X289762666Y-112896666D01*
X289096000Y-113763333D02*
X289096000Y-112363333D01*
X288962666Y-113230000D02*
X288562666Y-113763333D01*
X288562666Y-112830000D02*
X289096000Y-113363333D01*
X287429333Y-113696666D02*
X287562666Y-113763333D01*
X287829333Y-113763333D01*
X287962666Y-113696666D01*
X288029333Y-113563333D01*
X288029333Y-113030000D01*
X287962666Y-112896666D01*
X287829333Y-112830000D01*
X287562666Y-112830000D01*
X287429333Y-112896666D01*
X287362666Y-113030000D01*
X287362666Y-113163333D01*
X288029333Y-113296666D01*
X286762666Y-112830000D02*
X286762666Y-113763333D01*
X286762666Y-112963333D02*
X286696000Y-112896666D01*
X286562666Y-112830000D01*
X286362666Y-112830000D01*
X286229333Y-112896666D01*
X286162666Y-113030000D01*
X286162666Y-113763333D01*
X285496000Y-112830000D02*
X285496000Y-113763333D01*
X285496000Y-112963333D02*
X285429333Y-112896666D01*
X285296000Y-112830000D01*
X285096000Y-112830000D01*
X284962666Y-112896666D01*
X284896000Y-113030000D01*
X284896000Y-113763333D01*
M02*
