%TF.GenerationSoftware,KiCad,Pcbnew,(5.1.10-1-10_14)*%
%TF.CreationDate,2021-12-18T17:37:46+09:00*%
%TF.ProjectId,keyplate,6b657970-6c61-4746-952e-6b696361645f,rev?*%
%TF.SameCoordinates,Original*%
%TF.FileFunction,Profile,NP*%
%FSLAX46Y46*%
G04 Gerber Fmt 4.6, Leading zero omitted, Abs format (unit mm)*
G04 Created by KiCad (PCBNEW (5.1.10-1-10_14)) date 2021-12-18 17:37:46*
%MOMM*%
%LPD*%
G01*
G04 APERTURE LIST*
%TA.AperFunction,Profile*%
%ADD10C,0.200000*%
%TD*%
G04 APERTURE END LIST*
D10*
%TO.C,REF\u002A\u002A*%
X26075000Y-73100000D02*
X26062432Y-72846413D01*
X26062432Y-72846413D02*
X26025192Y-72597154D01*
X26025192Y-72597154D02*
X25963974Y-72353907D01*
X25963974Y-72353907D02*
X25879473Y-72118354D01*
X25879473Y-72118354D02*
X25772383Y-71892176D01*
X25772383Y-71892176D02*
X25643399Y-71677057D01*
X25643399Y-71677057D02*
X25493215Y-71474680D01*
X25493215Y-71474680D02*
X25322527Y-71286727D01*
X25322527Y-71286727D02*
X25134194Y-71116450D01*
X25134194Y-71116450D02*
X24931479Y-70966708D01*
X24931479Y-70966708D02*
X24716072Y-70838191D01*
X24716072Y-70838191D02*
X24489664Y-70731589D01*
X24489664Y-70731589D02*
X24253946Y-70647592D01*
X24253946Y-70647592D02*
X24010610Y-70586891D01*
X24010610Y-70586891D02*
X23761345Y-70550176D01*
X23761345Y-70550176D02*
X23507843Y-70538137D01*
X21613783Y-70542018D02*
X21260301Y-70395612D01*
X26075000Y-73100705D02*
X26075000Y-73100000D01*
X21260301Y-70395612D02*
X21113899Y-70042130D01*
X21113899Y-70042130D02*
X21114957Y-18560692D01*
X27160142Y-74185848D02*
X26941430Y-74163804D01*
X26941430Y-74163804D02*
X26737730Y-74100580D01*
X26737730Y-74100580D02*
X26553402Y-74000538D01*
X26553402Y-74000538D02*
X26392808Y-73868040D01*
X26392808Y-73868040D02*
X26260309Y-73707446D01*
X26260309Y-73707446D02*
X26160267Y-73523117D01*
X26160267Y-73523117D02*
X26097043Y-73319416D01*
X26097043Y-73319416D02*
X26075000Y-73100705D01*
X21114957Y-18560692D02*
X21120954Y-18403707D01*
X21120954Y-18403707D02*
X21138946Y-18247426D01*
X21138946Y-18247426D02*
X21169990Y-18093616D01*
X21169990Y-18093616D02*
X21211971Y-17941569D01*
X21211971Y-17941569D02*
X21267004Y-17794461D01*
X21267004Y-17794461D02*
X21331915Y-17652645D01*
X21331915Y-17652645D02*
X21408820Y-17515414D01*
X21408820Y-17515414D02*
X21495956Y-17384534D01*
X21495956Y-17384534D02*
X21594028Y-17261415D01*
X21594028Y-17261415D02*
X21699861Y-17145704D01*
X21699861Y-17145704D02*
X21815924Y-17039518D01*
X21815924Y-17039518D02*
X21939044Y-16941446D01*
X21939044Y-16941446D02*
X22069924Y-16854663D01*
X22069924Y-16854663D02*
X22206802Y-16777405D01*
X22206802Y-16777405D02*
X22348971Y-16712494D01*
X22348971Y-16712494D02*
X22496079Y-16657461D01*
X22496079Y-16657461D02*
X22647773Y-16615481D01*
X22647773Y-16615481D02*
X22801936Y-16584436D01*
X22801936Y-16584436D02*
X22957864Y-16566445D01*
X22957864Y-16566445D02*
X23114849Y-16559389D01*
X23114849Y-16559389D02*
X304489345Y-16560447D01*
X304489345Y-16560447D02*
X304645278Y-16566445D01*
X304645278Y-16566445D02*
X304801211Y-16584436D01*
X304801211Y-16584436D02*
X304955357Y-16615481D01*
X304955357Y-16615481D02*
X305108125Y-16657461D01*
X305108125Y-16657461D02*
X305254176Y-16712494D01*
X305254176Y-16712494D02*
X305396329Y-16777405D01*
X305396329Y-16777405D02*
X305533206Y-16854663D01*
X305533206Y-16854663D02*
X305664098Y-16941446D01*
X305664098Y-16941446D02*
X305787217Y-17039518D01*
X305787217Y-17039518D02*
X305903273Y-17145704D01*
X305903273Y-17145704D02*
X306009102Y-17261415D01*
X306009102Y-17261415D02*
X306108234Y-17384534D01*
X306108234Y-17384534D02*
X306194318Y-17515414D01*
X306194318Y-17515414D02*
X306271230Y-17652645D01*
X306271230Y-17652645D02*
X306336127Y-17794461D01*
X306336127Y-17794461D02*
X306391162Y-17941569D01*
X306391162Y-17941569D02*
X306433149Y-18093616D01*
X306433149Y-18093616D02*
X306464198Y-18247426D01*
X306464198Y-18247426D02*
X306483253Y-18403707D01*
X306483253Y-18403707D02*
X306489239Y-18560692D01*
X306489239Y-18560692D02*
X306489239Y-64786106D01*
X306489239Y-64786106D02*
X306468911Y-65054693D01*
X306468911Y-65054693D02*
X306409925Y-65310576D01*
X306409925Y-65310576D02*
X306315274Y-65550758D01*
X306315274Y-65550758D02*
X306187954Y-65772245D01*
X306187954Y-65772245D02*
X306030959Y-65972043D01*
X306030959Y-65972043D02*
X305847284Y-66147157D01*
X305847284Y-66147157D02*
X305639924Y-66294592D01*
X305639924Y-66294592D02*
X305411873Y-66411355D01*
X305411873Y-66411355D02*
X305166125Y-66494450D01*
X305166125Y-66494450D02*
X304905676Y-66540882D01*
X304905676Y-66540882D02*
X304725355Y-66549991D01*
X304725355Y-66549991D02*
X304482019Y-66549991D01*
X304482019Y-66549991D02*
X304209099Y-66549991D01*
X304209099Y-66549991D02*
X303967076Y-66549991D01*
X303967076Y-66549991D02*
X303698990Y-66549991D01*
X303698990Y-66549991D02*
X303410184Y-66549991D01*
X303410184Y-66549991D02*
X303208774Y-66549991D01*
X303208774Y-66549991D02*
X303002114Y-66549991D01*
X303002114Y-66549991D02*
X302791787Y-66549991D01*
X302791787Y-66549991D02*
X302579375Y-66549991D01*
X302579375Y-66549991D02*
X302366463Y-66549991D01*
X302366463Y-66549991D02*
X302154634Y-66549991D01*
X302154634Y-66549991D02*
X301945471Y-66549991D01*
X301945471Y-66549991D02*
X301727972Y-66536530D01*
X301727972Y-66536530D02*
X301515525Y-66496773D01*
X301515525Y-66496773D02*
X301310389Y-66431656D01*
X301310389Y-66431656D02*
X301114825Y-66342115D01*
X301114825Y-66342115D02*
X300931092Y-66229088D01*
X300931092Y-66229088D02*
X300761452Y-66093509D01*
X300761452Y-66093509D02*
X300698048Y-66033174D01*
X300698048Y-66033174D02*
X300553737Y-65869950D01*
X300553737Y-65869950D02*
X300431636Y-65691684D01*
X300431636Y-65691684D02*
X300332667Y-65500643D01*
X300332667Y-65500643D02*
X300257749Y-65299098D01*
X300257749Y-65299098D02*
X300207804Y-65089316D01*
X300207804Y-65089316D02*
X300183751Y-64873568D01*
X300183751Y-64873568D02*
X300181587Y-64786106D01*
X300181587Y-57185884D02*
X286381667Y-57186234D01*
X286381667Y-57186234D02*
X286381667Y-70986159D01*
X299770243Y-70984399D02*
X299996580Y-71006800D01*
X299996580Y-71006800D02*
X300212196Y-71072329D01*
X300212196Y-71072329D02*
X300411006Y-71178470D01*
X300411006Y-71178470D02*
X300586923Y-71322712D01*
X300586923Y-71322712D02*
X300731168Y-71498587D01*
X300731168Y-71498587D02*
X300837315Y-71697316D01*
X300837315Y-71697316D02*
X300902848Y-71912913D01*
X300902848Y-71912913D02*
X300925252Y-72139391D01*
X300925252Y-72139391D02*
X300925252Y-72360238D01*
X300925252Y-72360238D02*
X300925252Y-72585121D01*
X300925252Y-72585121D02*
X300925252Y-72810005D01*
X300925252Y-72810005D02*
X300925252Y-73030856D01*
X300925252Y-73030856D02*
X300901783Y-73263608D01*
X300901783Y-73263608D02*
X300834477Y-73480403D01*
X300834477Y-73480403D02*
X300727979Y-73676594D01*
X300727979Y-73676594D02*
X300586936Y-73847534D01*
X300586936Y-73847534D02*
X300415994Y-73988576D01*
X300415994Y-73988576D02*
X300219800Y-74095073D01*
X300219800Y-74095073D02*
X300003001Y-74162380D01*
X300003001Y-74162380D02*
X299770243Y-74185848D01*
X290852055Y-74185848D02*
X290852055Y-87985774D01*
X290852055Y-87985774D02*
X304725355Y-87985774D01*
X304725355Y-87985774D02*
X304942854Y-87999211D01*
X304942854Y-87999211D02*
X305155305Y-88038910D01*
X305155305Y-88038910D02*
X305360443Y-88103949D01*
X305360443Y-88103949D02*
X305556009Y-88193409D01*
X305556009Y-88193409D02*
X305739741Y-88306369D01*
X305739741Y-88306369D02*
X305909377Y-88441909D01*
X305909377Y-88441909D02*
X305972778Y-88502241D01*
X305972778Y-88502241D02*
X306116974Y-88665605D01*
X306116974Y-88665605D02*
X306239037Y-88843969D01*
X306239037Y-88843969D02*
X306338022Y-89035070D01*
X306338022Y-89035070D02*
X306412985Y-89236649D01*
X306412985Y-89236649D02*
X306462983Y-89446444D01*
X306462983Y-89446444D02*
X306487070Y-89662196D01*
X306487070Y-89662196D02*
X306489239Y-89749658D01*
X306489239Y-109487169D02*
X306483253Y-109642392D01*
X306483253Y-109642392D02*
X306464198Y-109798325D01*
X306464198Y-109798325D02*
X306433149Y-109952482D01*
X306433149Y-109952482D02*
X306391162Y-110104184D01*
X306391162Y-110104184D02*
X306336127Y-110252344D01*
X306336127Y-110252344D02*
X306271230Y-110393453D01*
X306271230Y-110393453D02*
X306194318Y-110530331D01*
X306194318Y-110530331D02*
X306108234Y-110661212D01*
X306108234Y-110661212D02*
X306009102Y-110785396D01*
X306009102Y-110785396D02*
X305903273Y-110901453D01*
X305903273Y-110901453D02*
X305787217Y-111006226D01*
X305787217Y-111006226D02*
X305664098Y-111104304D01*
X305664098Y-111104304D02*
X305533206Y-111191443D01*
X305533206Y-111191443D02*
X305396329Y-111268344D01*
X305396329Y-111268344D02*
X305254176Y-111333251D01*
X305254176Y-111333251D02*
X305108125Y-111389341D01*
X305108125Y-111389341D02*
X304955357Y-111431328D01*
X304955357Y-111431328D02*
X304801211Y-111461312D01*
X304801211Y-111461312D02*
X304645278Y-111479301D01*
X304645278Y-111479301D02*
X304489345Y-111485298D01*
X304489345Y-111485298D02*
X23114849Y-111487419D01*
X23114849Y-111487419D02*
X22957864Y-111479301D01*
X22957864Y-111479301D02*
X22801936Y-111461312D01*
X22801936Y-111461312D02*
X22647773Y-111431328D01*
X22647773Y-111431328D02*
X22496079Y-111389341D01*
X22496079Y-111389341D02*
X22348971Y-111333251D01*
X22348971Y-111333251D02*
X22206802Y-111268344D01*
X22206802Y-111268344D02*
X22069924Y-111191443D01*
X22069924Y-111191443D02*
X21939044Y-111104304D01*
X21939044Y-111104304D02*
X21815924Y-111006226D01*
X21815924Y-111006226D02*
X21699861Y-110901453D01*
X21699861Y-110901453D02*
X21594028Y-110785396D01*
X21594028Y-110785396D02*
X21495956Y-110661212D01*
X21495956Y-110661212D02*
X21408820Y-110530331D01*
X21408820Y-110530331D02*
X21331915Y-110393453D01*
X21331915Y-110393453D02*
X21267004Y-110252344D01*
X21267004Y-110252344D02*
X21211971Y-110104184D01*
X21211971Y-110104184D02*
X21169990Y-109952482D01*
X21169990Y-109952482D02*
X21138946Y-109798325D01*
X21138946Y-109798325D02*
X21120954Y-109642392D01*
X21120954Y-109642392D02*
X21113899Y-109487169D01*
X21113899Y-109487169D02*
X21113899Y-89749658D01*
X21113899Y-89749658D02*
X21127359Y-89532157D01*
X21127359Y-89532157D02*
X21167116Y-89319708D01*
X21167116Y-89319708D02*
X21232234Y-89114571D01*
X21232234Y-89114571D02*
X21321775Y-88919007D01*
X21321775Y-88919007D02*
X21434803Y-88735278D01*
X21434803Y-88735278D02*
X21570381Y-88565642D01*
X21570381Y-88565642D02*
X21630717Y-88502241D01*
X21630717Y-88502241D02*
X21793940Y-88357927D01*
X21793940Y-88357927D02*
X21972207Y-88235825D01*
X21972207Y-88235825D02*
X22163247Y-88136855D01*
X22163247Y-88136855D02*
X22364792Y-88061936D01*
X22364792Y-88061936D02*
X22574573Y-88011991D01*
X22574573Y-88011991D02*
X22790321Y-87987938D01*
X22790321Y-87987938D02*
X22877783Y-87985774D01*
X36743326Y-87985774D02*
X36743326Y-74185848D01*
X36743326Y-74185848D02*
X27160142Y-74185848D01*
X108198641Y-104985743D02*
X94398710Y-104985743D01*
X94398710Y-104985743D02*
X94398710Y-91186168D01*
X94398710Y-91186168D02*
X108198641Y-91186168D01*
X108198641Y-91186168D02*
X108198641Y-104985743D01*
X152849260Y-104987509D02*
X152849260Y-91187928D01*
X152849260Y-91187928D02*
X139049329Y-91187928D01*
X139049329Y-91187928D02*
X139049329Y-104987509D01*
X139049329Y-104987509D02*
X152849260Y-104987509D01*
X170710356Y-104987509D02*
X170710356Y-91187928D01*
X170710356Y-91187928D02*
X156910425Y-91187928D01*
X156910425Y-91187928D02*
X156910425Y-104987509D01*
X156910425Y-104987509D02*
X170710356Y-104987509D01*
X233214653Y-104987509D02*
X233214653Y-91187928D01*
X233214653Y-91187928D02*
X219414733Y-91187928D01*
X219414733Y-91187928D02*
X219414733Y-104987509D01*
X219414733Y-104987509D02*
X233214653Y-104987509D01*
X130514955Y-104985743D02*
X130514955Y-91186168D01*
X130514955Y-91186168D02*
X116715025Y-91186168D01*
X116715025Y-91186168D02*
X116715025Y-104985743D01*
X116715025Y-104985743D02*
X130514955Y-104985743D01*
X85872093Y-104985743D02*
X85872093Y-91186168D01*
X85872093Y-91186168D02*
X72072168Y-91186168D01*
X72072168Y-91186168D02*
X72072168Y-104985743D01*
X72072168Y-104985743D02*
X85872093Y-104985743D01*
X210885301Y-91186168D02*
X210885301Y-99190321D01*
X213387188Y-99189616D02*
X213604709Y-99203075D01*
X213604709Y-99203075D02*
X213817207Y-99242822D01*
X213817207Y-99242822D02*
X214022397Y-99307914D01*
X214022397Y-99307914D02*
X214217994Y-99397405D01*
X214217994Y-99397405D02*
X214401712Y-99510352D01*
X214401712Y-99510352D02*
X214571266Y-99645808D01*
X214571266Y-99645808D02*
X214634611Y-99706083D01*
X214634611Y-99706083D02*
X214778944Y-99869446D01*
X214778944Y-99869446D02*
X214901102Y-100047809D01*
X214901102Y-100047809D02*
X215000148Y-100238910D01*
X215000148Y-100238910D02*
X215075145Y-100440490D01*
X215075145Y-100440490D02*
X215125157Y-100650286D01*
X215125157Y-100650286D02*
X215149248Y-100866038D01*
X215149248Y-100866038D02*
X215151417Y-100953500D01*
X215151417Y-100953500D02*
X215151417Y-102478904D01*
X215151417Y-102478904D02*
X215131106Y-102744109D01*
X215131106Y-102744109D02*
X215072168Y-102990744D01*
X215072168Y-102990744D02*
X214977589Y-103217166D01*
X214977589Y-103217166D02*
X214850357Y-103421736D01*
X214850357Y-103421736D02*
X214693459Y-103602812D01*
X214693459Y-103602812D02*
X214509884Y-103758752D01*
X214509884Y-103758752D02*
X214302618Y-103887916D01*
X214302618Y-103887916D02*
X214074650Y-103988663D01*
X214074650Y-103988663D02*
X213828967Y-104059351D01*
X213828967Y-104059351D02*
X213568556Y-104098339D01*
X213568556Y-104098339D02*
X213388243Y-104105911D01*
X210885301Y-104106977D02*
X210885301Y-104985743D01*
X210885301Y-104985743D02*
X197085726Y-104985743D01*
X197085726Y-104985743D02*
X197085726Y-91186168D01*
X197085726Y-91186168D02*
X210885301Y-91186168D01*
X188561569Y-104985743D02*
X188561569Y-91186168D01*
X188561569Y-91186168D02*
X174761638Y-91186168D01*
X174761638Y-91186168D02*
X174761638Y-104985743D01*
X174761638Y-104985743D02*
X188561569Y-104985743D01*
X255530978Y-104985743D02*
X255530978Y-91186168D01*
X255530978Y-91186168D02*
X241731037Y-91186168D01*
X241731037Y-91186168D02*
X241731037Y-104985743D01*
X241731037Y-104985743D02*
X255530978Y-104985743D01*
X251065521Y-87985774D02*
X251065521Y-74185848D01*
X251065521Y-74185848D02*
X237263125Y-74185848D01*
X237263125Y-74185848D02*
X237263125Y-87985774D01*
X237263125Y-87985774D02*
X251065521Y-87985774D01*
X54609712Y-87985774D02*
X54609712Y-74185848D01*
X54609712Y-74185848D02*
X40810139Y-74185848D01*
X40810139Y-74185848D02*
X40810139Y-87985774D01*
X40810139Y-87985774D02*
X54609712Y-87985774D01*
X197489640Y-87985774D02*
X197489640Y-74185848D01*
X197489640Y-74185848D02*
X183687255Y-74185848D01*
X183687255Y-74185848D02*
X183687255Y-87985774D01*
X183687255Y-87985774D02*
X197489640Y-87985774D01*
X72473628Y-87985774D02*
X72473628Y-74185848D01*
X72473628Y-74185848D02*
X58673703Y-74185848D01*
X58673703Y-74185848D02*
X58673703Y-87985774D01*
X58673703Y-87985774D02*
X72473628Y-87985774D01*
X108190879Y-87985774D02*
X108190879Y-74185848D01*
X108190879Y-74185848D02*
X94391303Y-74185848D01*
X94391303Y-74185848D02*
X94391303Y-87985774D01*
X94391303Y-87985774D02*
X108190879Y-87985774D01*
X90332253Y-87985774D02*
X90332253Y-74185848D01*
X90332253Y-74185848D02*
X76532328Y-74185848D01*
X76532328Y-74185848D02*
X76532328Y-87985774D01*
X76532328Y-87985774D02*
X90332253Y-87985774D01*
X268934369Y-87985774D02*
X268934369Y-74185848D01*
X268934369Y-74185848D02*
X255134793Y-74185848D01*
X255134793Y-74185848D02*
X255134793Y-87985774D01*
X255134793Y-87985774D02*
X268934369Y-87985774D01*
X215348282Y-87985774D02*
X215348282Y-74185848D01*
X215348282Y-74185848D02*
X201548340Y-74185848D01*
X201548340Y-74185848D02*
X201548340Y-87985774D01*
X201548340Y-87985774D02*
X215348282Y-87985774D01*
X179628200Y-87985774D02*
X179628200Y-74185848D01*
X179628200Y-74185848D02*
X165828625Y-74185848D01*
X165828625Y-74185848D02*
X165828625Y-87985774D01*
X165828625Y-87985774D02*
X179628200Y-87985774D01*
X143910950Y-87985774D02*
X143910950Y-74185848D01*
X143910950Y-74185848D02*
X130111019Y-74185848D01*
X130111019Y-74185848D02*
X130111019Y-87985774D01*
X130111019Y-87985774D02*
X143910950Y-87985774D01*
X161769569Y-87985774D02*
X161769569Y-74185848D01*
X161769569Y-74185848D02*
X147969650Y-74185848D01*
X147969650Y-74185848D02*
X147969650Y-87985774D01*
X147969650Y-87985774D02*
X161769569Y-87985774D01*
X126049498Y-87985774D02*
X126049498Y-74185848D01*
X126049498Y-74185848D02*
X112249934Y-74185848D01*
X112249934Y-74185848D02*
X112249934Y-87985774D01*
X112249934Y-87985774D02*
X126049498Y-87985774D01*
X286793010Y-87985774D02*
X286793010Y-74185848D01*
X286793010Y-74185848D02*
X272993435Y-74185848D01*
X272993435Y-74185848D02*
X272993435Y-87985774D01*
X272993435Y-87985774D02*
X286793010Y-87985774D01*
X233206902Y-87985774D02*
X233206902Y-74185848D01*
X233206902Y-74185848D02*
X219406960Y-74185848D01*
X219406960Y-74185848D02*
X219406960Y-87985774D01*
X219406960Y-87985774D02*
X233206902Y-87985774D01*
X277863862Y-70985454D02*
X277863862Y-57185529D01*
X277863862Y-57185529D02*
X264063942Y-57185529D01*
X264063942Y-57185529D02*
X264063942Y-70985454D01*
X264063942Y-70985454D02*
X277863862Y-70985454D01*
X260005242Y-70985454D02*
X260005242Y-57185529D01*
X260005242Y-57185529D02*
X246205322Y-57185529D01*
X246205322Y-57185529D02*
X246205322Y-70985454D01*
X246205322Y-70985454D02*
X260005242Y-70985454D01*
X242139904Y-70985454D02*
X242139904Y-57185529D01*
X242139904Y-57185529D02*
X228340329Y-57185529D01*
X228340329Y-57185529D02*
X228340329Y-70985454D01*
X228340329Y-70985454D02*
X242139904Y-70985454D01*
X152841498Y-70985454D02*
X152841498Y-57185529D01*
X152841498Y-57185529D02*
X139041567Y-57185529D01*
X139041567Y-57185529D02*
X139041567Y-70985454D01*
X139041567Y-70985454D02*
X152841498Y-70985454D01*
X99262801Y-70985454D02*
X99262801Y-57185529D01*
X99262801Y-57185529D02*
X85463226Y-57185529D01*
X85463226Y-57185529D02*
X85463226Y-70985454D01*
X85463226Y-70985454D02*
X99262801Y-70985454D01*
X63545551Y-70985454D02*
X63545551Y-57185529D01*
X63545551Y-57185529D02*
X49745623Y-57185529D01*
X49745623Y-57185529D02*
X49745623Y-70985454D01*
X49745623Y-70985454D02*
X63545551Y-70985454D01*
X188561569Y-70985454D02*
X188561569Y-57185529D01*
X188561569Y-57185529D02*
X174759173Y-57185529D01*
X174759173Y-57185529D02*
X174759173Y-70985454D01*
X174759173Y-70985454D02*
X188561569Y-70985454D01*
X81404176Y-70985454D02*
X81404176Y-57185529D01*
X81404176Y-57185529D02*
X67604251Y-57185529D01*
X67604251Y-57185529D02*
X67604251Y-70985454D01*
X67604251Y-70985454D02*
X81404176Y-70985454D01*
X206420188Y-70985454D02*
X206420188Y-57185529D01*
X206420188Y-57185529D02*
X192620269Y-57185529D01*
X192620269Y-57185529D02*
X192620269Y-70985454D01*
X192620269Y-70985454D02*
X206420188Y-70985454D01*
X170700117Y-70985454D02*
X170700117Y-57185529D01*
X170700117Y-57185529D02*
X156900553Y-57185529D01*
X156900553Y-57185529D02*
X156900553Y-70985454D01*
X156900553Y-70985454D02*
X170700117Y-70985454D01*
X117121427Y-70985454D02*
X117121427Y-57185529D01*
X117121427Y-57185529D02*
X103321851Y-57185529D01*
X103321851Y-57185529D02*
X103321851Y-70985454D01*
X103321851Y-70985454D02*
X117121427Y-70985454D01*
X134982867Y-70985454D02*
X134982867Y-57185529D01*
X134982867Y-57185529D02*
X121182947Y-57185529D01*
X121182947Y-57185529D02*
X121182947Y-70985454D01*
X121182947Y-70985454D02*
X134982867Y-70985454D01*
X224278808Y-70985454D02*
X224278808Y-57185529D01*
X224278808Y-57185529D02*
X210478888Y-57185529D01*
X210478888Y-57185529D02*
X210478888Y-70985454D01*
X210478888Y-70985454D02*
X224278808Y-70985454D01*
X41223945Y-70985454D02*
X41223945Y-57185529D01*
X41223945Y-57185529D02*
X27424372Y-57185529D01*
X27424372Y-57185529D02*
X27424372Y-70985454D01*
X27424372Y-70985454D02*
X41223945Y-70985454D01*
X260005242Y-53985137D02*
X260005242Y-40185562D01*
X260005242Y-40185562D02*
X246205322Y-40185562D01*
X246205322Y-40185562D02*
X246205322Y-53985137D01*
X246205322Y-53985137D02*
X260005242Y-53985137D01*
X242139904Y-53985137D02*
X242139904Y-40185562D01*
X242139904Y-40185562D02*
X228340329Y-40185562D01*
X228340329Y-40185562D02*
X228340329Y-53985137D01*
X228340329Y-53985137D02*
X242139904Y-53985137D01*
X46502547Y-47024143D02*
X46257290Y-47011739D01*
X46257290Y-47011739D02*
X46019081Y-46975337D01*
X46019081Y-46975337D02*
X45789131Y-46916147D01*
X45789131Y-46916147D02*
X45568652Y-46835380D01*
X45568652Y-46835380D02*
X45358852Y-46734245D01*
X45358852Y-46734245D02*
X45160944Y-46613955D01*
X45160944Y-46613955D02*
X44976138Y-46475720D01*
X44976138Y-46475720D02*
X44805645Y-46320750D01*
X44805645Y-46320750D02*
X44650675Y-46150257D01*
X44650675Y-46150257D02*
X44512440Y-45965451D01*
X44512440Y-45965451D02*
X44392150Y-45767543D01*
X44392150Y-45767543D02*
X44291015Y-45557743D01*
X44291015Y-45557743D02*
X44210248Y-45337264D01*
X44210248Y-45337264D02*
X44151058Y-45107314D01*
X44151058Y-45107314D02*
X44114656Y-44869105D01*
X44114656Y-44869105D02*
X44102253Y-44623849D01*
X44102253Y-44623849D02*
X44114656Y-44378654D01*
X44114656Y-44378654D02*
X44151058Y-44140500D01*
X44151058Y-44140500D02*
X44210248Y-43910598D01*
X44210248Y-43910598D02*
X44291015Y-43690159D01*
X44291015Y-43690159D02*
X44392150Y-43480394D01*
X44392150Y-43480394D02*
X44512440Y-43282514D01*
X44512440Y-43282514D02*
X44650675Y-43097732D01*
X44650675Y-43097732D02*
X44805645Y-42927258D01*
X44805645Y-42927258D02*
X44976138Y-42772302D01*
X44976138Y-42772302D02*
X45160944Y-42634078D01*
X45160944Y-42634078D02*
X45358852Y-42513796D01*
X45358852Y-42513796D02*
X45568652Y-42412667D01*
X45568652Y-42412667D02*
X45789131Y-42331902D01*
X45789131Y-42331902D02*
X46019081Y-42272714D01*
X46019081Y-42272714D02*
X46257290Y-42236312D01*
X46257290Y-42236312D02*
X46502547Y-42223910D01*
X46502547Y-42223910D02*
X49745623Y-42223910D01*
X49745623Y-42223910D02*
X49745623Y-40185562D01*
X49745623Y-40185562D02*
X63545551Y-40185562D01*
X63545551Y-40185562D02*
X63545551Y-53985137D01*
X63545551Y-53985137D02*
X49745623Y-53985137D01*
X49745623Y-53985137D02*
X49745623Y-47024143D01*
X49745623Y-47024143D02*
X46502547Y-47024143D01*
X224278808Y-53985137D02*
X224278808Y-40185562D01*
X224278808Y-40185562D02*
X210478888Y-40185562D01*
X210478888Y-40185562D02*
X210478888Y-53985137D01*
X210478888Y-53985137D02*
X224278808Y-53985137D01*
X134982867Y-53985137D02*
X134982867Y-40185562D01*
X134982867Y-40185562D02*
X121182947Y-40185562D01*
X121182947Y-40185562D02*
X121182947Y-53985137D01*
X121182947Y-53985137D02*
X134982867Y-53985137D01*
X152841498Y-53985137D02*
X152841498Y-40185562D01*
X152841498Y-40185562D02*
X139041567Y-40185562D01*
X139041567Y-40185562D02*
X139041567Y-53985137D01*
X139041567Y-53985137D02*
X152841498Y-53985137D01*
X170700117Y-53985137D02*
X170700117Y-40185562D01*
X170700117Y-40185562D02*
X156900553Y-40185562D01*
X156900553Y-40185562D02*
X156900553Y-53985137D01*
X156900553Y-53985137D02*
X170700117Y-53985137D01*
X206420188Y-53985137D02*
X206420188Y-40185562D01*
X206420188Y-40185562D02*
X192620269Y-40185562D01*
X192620269Y-40185562D02*
X192620269Y-53985137D01*
X192620269Y-53985137D02*
X206420188Y-53985137D01*
X81404176Y-53985137D02*
X81404176Y-40185562D01*
X81404176Y-40185562D02*
X67604251Y-40185562D01*
X67604251Y-40185562D02*
X67604251Y-53985137D01*
X67604251Y-53985137D02*
X81404176Y-53985137D01*
X117121427Y-53985137D02*
X117121427Y-40185562D01*
X117121427Y-40185562D02*
X103321851Y-40185562D01*
X103321851Y-40185562D02*
X103321851Y-53985137D01*
X103321851Y-53985137D02*
X117121427Y-53985137D01*
X99262801Y-53985137D02*
X99262801Y-40185562D01*
X99262801Y-40185562D02*
X85463226Y-40185562D01*
X85463226Y-40185562D02*
X85463226Y-53985137D01*
X85463226Y-53985137D02*
X99262801Y-53985137D01*
X188561569Y-53985137D02*
X188561569Y-40185562D01*
X188561569Y-40185562D02*
X174759173Y-40185562D01*
X174759173Y-40185562D02*
X174759173Y-53985137D01*
X174759173Y-53985137D02*
X188561569Y-53985137D01*
X41223945Y-53985137D02*
X41223945Y-40185562D01*
X41223945Y-40185562D02*
X27424372Y-40185562D01*
X27424372Y-40185562D02*
X27424372Y-53985137D01*
X27424372Y-53985137D02*
X41223945Y-53985137D01*
X277863862Y-41906410D02*
X277931000Y-42101485D01*
X277931000Y-42101485D02*
X277957008Y-42130774D01*
X277957008Y-42130774D02*
X278142172Y-42221483D01*
X278142172Y-42221483D02*
X278181370Y-42223910D01*
X278181370Y-42223910D02*
X278476356Y-42223910D01*
X278476356Y-42223910D02*
X278850418Y-42223910D01*
X278850418Y-42223910D02*
X279063572Y-42223910D01*
X279063572Y-42223910D02*
X279292258Y-42223910D01*
X279292258Y-42223910D02*
X279535065Y-42223910D01*
X279535065Y-42223910D02*
X279790581Y-42223910D01*
X279790581Y-42223910D02*
X280057393Y-42223910D01*
X280057393Y-42223910D02*
X280334089Y-42223910D01*
X280334089Y-42223910D02*
X280619258Y-42223910D01*
X280619258Y-42223910D02*
X280911486Y-42223910D01*
X280911486Y-42223910D02*
X281209364Y-42223910D01*
X281209364Y-42223910D02*
X281511477Y-42223910D01*
X281511477Y-42223910D02*
X281816414Y-42223910D01*
X281816414Y-42223910D02*
X282122764Y-42223910D01*
X282122764Y-42223910D02*
X282429113Y-42223910D01*
X282429113Y-42223910D02*
X282734050Y-42223910D01*
X282734050Y-42223910D02*
X283036164Y-42223910D01*
X283036164Y-42223910D02*
X283334041Y-42223910D01*
X283334041Y-42223910D02*
X283626270Y-42223910D01*
X283626270Y-42223910D02*
X283911438Y-42223910D01*
X283911438Y-42223910D02*
X284188135Y-42223910D01*
X284188135Y-42223910D02*
X284454947Y-42223910D01*
X284454947Y-42223910D02*
X284710462Y-42223910D01*
X284710462Y-42223910D02*
X284953269Y-42223910D01*
X284953269Y-42223910D02*
X285181956Y-42223910D01*
X285181956Y-42223910D02*
X285395110Y-42223910D01*
X285395110Y-42223910D02*
X285769172Y-42223910D01*
X285769172Y-42223910D02*
X286064159Y-42223910D01*
X286064159Y-42223910D02*
X286259099Y-42156781D01*
X286259099Y-42156781D02*
X286288520Y-42130774D01*
X286288520Y-42130774D02*
X286379239Y-41945604D01*
X286379239Y-41945604D02*
X286381667Y-41906410D01*
X286381667Y-40185562D02*
X300181587Y-40185562D01*
X300181587Y-40185562D02*
X300181587Y-53985137D01*
X300181587Y-53985137D02*
X286381667Y-53985137D01*
X286381667Y-53985137D02*
X286381667Y-47355754D01*
X286381667Y-47355754D02*
X286321413Y-47164941D01*
X286321413Y-47164941D02*
X286284644Y-47121157D01*
X286284644Y-47121157D02*
X286106997Y-47029075D01*
X286106997Y-47029075D02*
X286050056Y-47024143D01*
X286050056Y-47024143D02*
X285752722Y-47024143D01*
X285752722Y-47024143D02*
X285377950Y-47024143D01*
X285377950Y-47024143D02*
X285164981Y-47024143D01*
X285164981Y-47024143D02*
X284936801Y-47024143D01*
X284936801Y-47024143D02*
X284694793Y-47024143D01*
X284694793Y-47024143D02*
X284440340Y-47024143D01*
X284440340Y-47024143D02*
X284174824Y-47024143D01*
X284174824Y-47024143D02*
X283899629Y-47024143D01*
X283899629Y-47024143D02*
X283616138Y-47024143D01*
X283616138Y-47024143D02*
X283325732Y-47024143D01*
X283325732Y-47024143D02*
X283029797Y-47024143D01*
X283029797Y-47024143D02*
X282729713Y-47024143D01*
X282729713Y-47024143D02*
X282426865Y-47024143D01*
X282426865Y-47024143D02*
X282122635Y-47024143D01*
X282122635Y-47024143D02*
X281818405Y-47024143D01*
X281818405Y-47024143D02*
X281515560Y-47024143D01*
X281515560Y-47024143D02*
X281215482Y-47024143D01*
X281215482Y-47024143D02*
X280919553Y-47024143D01*
X280919553Y-47024143D02*
X280629157Y-47024143D01*
X280629157Y-47024143D02*
X280345677Y-47024143D01*
X280345677Y-47024143D02*
X280070495Y-47024143D01*
X280070495Y-47024143D02*
X279804994Y-47024143D01*
X279804994Y-47024143D02*
X279550558Y-47024143D01*
X279550558Y-47024143D02*
X279308569Y-47024143D01*
X279308569Y-47024143D02*
X279080411Y-47024143D01*
X279080411Y-47024143D02*
X278867465Y-47024143D01*
X278867465Y-47024143D02*
X278492745Y-47024143D01*
X278492745Y-47024143D02*
X278195473Y-47024143D01*
X278195473Y-47024143D02*
X277998192Y-47089147D01*
X277998192Y-47089147D02*
X277960884Y-47121157D01*
X277960884Y-47121157D02*
X277868794Y-47298766D01*
X277868794Y-47298766D02*
X277863862Y-47355754D01*
X277863862Y-53985137D02*
X264063942Y-53985137D01*
X264063942Y-53985137D02*
X264063942Y-40185562D01*
X264063942Y-40185562D02*
X277863862Y-40185562D01*
X277863862Y-40185562D02*
X277863862Y-41906410D01*
X197492117Y-36985170D02*
X197492117Y-23185245D01*
X197492117Y-23185245D02*
X183692186Y-23185245D01*
X183692186Y-23185245D02*
X183692186Y-36985170D01*
X183692186Y-36985170D02*
X197492117Y-36985170D01*
X143913415Y-36985170D02*
X143913415Y-23185245D01*
X143913415Y-23185245D02*
X130113495Y-23185245D01*
X130113495Y-23185245D02*
X130113495Y-36985170D01*
X130113495Y-36985170D02*
X143913415Y-36985170D01*
X286788058Y-36985170D02*
X286788058Y-23185245D01*
X286788058Y-23185245D02*
X272988138Y-23185245D01*
X272988138Y-23185245D02*
X272988138Y-36985170D01*
X272988138Y-36985170D02*
X286788058Y-36985170D01*
X251070818Y-36985170D02*
X251070818Y-23185245D01*
X251070818Y-23185245D02*
X237268422Y-23185245D01*
X237268422Y-23185245D02*
X237268422Y-36985170D01*
X237268422Y-36985170D02*
X251070818Y-36985170D01*
X179633486Y-36985170D02*
X179633486Y-23185245D01*
X179633486Y-23185245D02*
X165831090Y-23185245D01*
X165831090Y-23185245D02*
X165831090Y-36985170D01*
X165831090Y-36985170D02*
X179633486Y-36985170D01*
X233209356Y-36985170D02*
X233209356Y-23185245D01*
X233209356Y-23185245D02*
X219409802Y-23185245D01*
X219409802Y-23185245D02*
X219409802Y-36985170D01*
X219409802Y-36985170D02*
X233209356Y-36985170D01*
X54617474Y-36985170D02*
X54617474Y-23185245D01*
X54617474Y-23185245D02*
X40817546Y-23185245D01*
X40817546Y-23185245D02*
X40817546Y-36985170D01*
X40817546Y-36985170D02*
X54617474Y-36985170D01*
X36756027Y-36985170D02*
X36756027Y-23185245D01*
X36756027Y-23185245D02*
X22956453Y-23185245D01*
X22956453Y-23185245D02*
X22956453Y-36985170D01*
X22956453Y-36985170D02*
X36756027Y-36985170D01*
X304646678Y-36985170D02*
X304646678Y-23185245D01*
X304646678Y-23185245D02*
X290847124Y-23185245D01*
X290847124Y-23185245D02*
X290847124Y-36985170D01*
X290847124Y-36985170D02*
X304646678Y-36985170D01*
X72476099Y-36985170D02*
X72476099Y-23185245D01*
X72476099Y-23185245D02*
X58676171Y-23185245D01*
X58676171Y-23185245D02*
X58676171Y-36985170D01*
X58676171Y-36985170D02*
X72476099Y-36985170D01*
X268929438Y-36985170D02*
X268929438Y-23185245D01*
X268929438Y-23185245D02*
X255129518Y-23185245D01*
X255129518Y-23185245D02*
X255129518Y-36985170D01*
X255129518Y-36985170D02*
X268929438Y-36985170D01*
X215350736Y-23185245D02*
X215350736Y-36985170D01*
X215350736Y-36985170D02*
X201550817Y-36985170D01*
X201550817Y-36985170D02*
X201550817Y-23185245D01*
X201550817Y-23185245D02*
X208878689Y-23185245D01*
X208878689Y-23185245D02*
X208878689Y-20575401D01*
X208878689Y-20575401D02*
X208892150Y-20357901D01*
X208892150Y-20357901D02*
X208931909Y-20145461D01*
X208931909Y-20145461D02*
X208997030Y-19940350D01*
X208997030Y-19940350D02*
X209086573Y-19744835D01*
X209086573Y-19744835D02*
X209199603Y-19561187D01*
X209199603Y-19561187D02*
X209335181Y-19391674D01*
X209335181Y-19391674D02*
X209395516Y-19328335D01*
X209395516Y-19328335D02*
X209558740Y-19183998D01*
X209558740Y-19183998D02*
X209737006Y-19061838D01*
X209737006Y-19061838D02*
X209928045Y-18962790D01*
X209928045Y-18962790D02*
X210129588Y-18887791D01*
X210129588Y-18887791D02*
X210339366Y-18837777D01*
X210339366Y-18837777D02*
X210555112Y-18813685D01*
X210555112Y-18813685D02*
X210642573Y-18811517D01*
X210642573Y-18811517D02*
X212186338Y-18811517D01*
X212186338Y-18811517D02*
X212403951Y-18824977D01*
X212403951Y-18824977D02*
X212616436Y-18864734D01*
X212616436Y-18864734D02*
X212821556Y-18929852D01*
X212821556Y-18929852D02*
X213017074Y-19019393D01*
X213017074Y-19019393D02*
X213200754Y-19132421D01*
X213200754Y-19132421D02*
X213370360Y-19267999D01*
X213370360Y-19267999D02*
X213433761Y-19328335D01*
X213433761Y-19328335D02*
X213578071Y-19491558D01*
X213578071Y-19491558D02*
X213700172Y-19669825D01*
X213700172Y-19669825D02*
X213799141Y-19860865D01*
X213799141Y-19860865D02*
X213874059Y-20062410D01*
X213874059Y-20062410D02*
X213924004Y-20272191D01*
X213924004Y-20272191D02*
X213948057Y-20487939D01*
X213948057Y-20487939D02*
X213950222Y-20575401D01*
X213950222Y-23185245D02*
X215350736Y-23185245D01*
X126054795Y-23185245D02*
X126054795Y-36985170D01*
X126054795Y-36985170D02*
X112254865Y-36985170D01*
X112254865Y-36985170D02*
X112254865Y-23185245D01*
X112254865Y-23185245D02*
X113648338Y-23185245D01*
X113648338Y-23185245D02*
X113648338Y-20575401D01*
X113648338Y-20575401D02*
X113668665Y-20306813D01*
X113668665Y-20306813D02*
X113727651Y-20050931D01*
X113727651Y-20050931D02*
X113822300Y-19810749D01*
X113822300Y-19810749D02*
X113949619Y-19589262D01*
X113949619Y-19589262D02*
X114106613Y-19389464D01*
X114106613Y-19389464D02*
X114290287Y-19214350D01*
X114290287Y-19214350D02*
X114497647Y-19066915D01*
X114497647Y-19066915D02*
X114725699Y-18950152D01*
X114725699Y-18950152D02*
X114971447Y-18867057D01*
X114971447Y-18867057D02*
X115231898Y-18820625D01*
X115231898Y-18820625D02*
X115412222Y-18811517D01*
X115412222Y-18811517D02*
X116920696Y-18811517D01*
X116920696Y-18811517D02*
X117189364Y-18831844D01*
X117189364Y-18831844D02*
X117445296Y-18890830D01*
X117445296Y-18890830D02*
X117685500Y-18985480D01*
X117685500Y-18985480D02*
X117906989Y-19112800D01*
X117906989Y-19112800D02*
X118106772Y-19269794D01*
X118106772Y-19269794D02*
X118281860Y-19453468D01*
X118281860Y-19453468D02*
X118429264Y-19660829D01*
X118429264Y-19660829D02*
X118545994Y-19888880D01*
X118545994Y-19888880D02*
X118629061Y-20134628D01*
X118629061Y-20134628D02*
X118675476Y-20395078D01*
X118675476Y-20395078D02*
X118684581Y-20575401D01*
X118684581Y-23185245D02*
X126054795Y-23185245D01*
X161772046Y-36985170D02*
X161772046Y-23185245D01*
X161772046Y-23185245D02*
X147972470Y-23185245D01*
X147972470Y-23185245D02*
X147972470Y-36985170D01*
X147972470Y-36985170D02*
X161772046Y-36985170D01*
X108193344Y-36985170D02*
X108193344Y-23185245D01*
X108193344Y-23185245D02*
X94393774Y-23185245D01*
X94393774Y-23185245D02*
X94393774Y-36985170D01*
X94393774Y-36985170D02*
X108193344Y-36985170D01*
X90334724Y-36985170D02*
X90334724Y-23185245D01*
X90334724Y-23185245D02*
X76535149Y-23185245D01*
X76535149Y-23185245D02*
X76535149Y-36985170D01*
X76535149Y-36985170D02*
X90334724Y-36985170D01*
X21613783Y-70542018D02*
X23507843Y-70538137D01*
X22877783Y-87985774D02*
X36743326Y-87985774D01*
X118684581Y-20575401D02*
X118684581Y-23185245D01*
X213950222Y-20575401D02*
X213950222Y-23185245D01*
X286381667Y-41906410D02*
X286381667Y-40185562D01*
X277863862Y-47355754D02*
X277863862Y-53985137D01*
X300181587Y-57185884D02*
X300181587Y-64786106D01*
X286381667Y-70986159D02*
X299770243Y-70984399D01*
X290852055Y-74185848D02*
X299770243Y-74185848D01*
X306489239Y-89749658D02*
X306489239Y-109487169D01*
X210885301Y-99190321D02*
X213387188Y-99189616D01*
X210885301Y-104106977D02*
X213388243Y-104105911D01*
%TD*%
M02*
