%TF.GenerationSoftware,KiCad,Pcbnew,(6.0.1-0)*%
%TF.CreationDate,2022-02-13T08:08:59+09:00*%
%TF.ProjectId,Nora_plate_bottom,4e6f7261-5f70-46c6-9174-655f626f7474,v.1 (042)*%
%TF.SameCoordinates,Original*%
%TF.FileFunction,Copper,L2,Bot*%
%TF.FilePolarity,Positive*%
%FSLAX46Y46*%
G04 Gerber Fmt 4.6, Leading zero omitted, Abs format (unit mm)*
G04 Created by KiCad (PCBNEW (6.0.1-0)) date 2022-02-13 08:08:59*
%MOMM*%
%LPD*%
G01*
G04 APERTURE LIST*
G04 APERTURE END LIST*
%TA.AperFunction,NonConductor*%
G36*
X25995022Y-17584101D02*
G01*
X26009655Y-17586380D01*
X26073886Y-17616627D01*
X26111568Y-17676798D01*
X26115199Y-17694527D01*
X26115894Y-17699837D01*
X26116960Y-17716189D01*
X26116960Y-24625272D01*
X26115460Y-24644656D01*
X26111774Y-24668330D01*
X26112939Y-24677237D01*
X26112934Y-24677629D01*
X26113232Y-24680363D01*
X26113686Y-24685550D01*
X26129625Y-24867737D01*
X26179804Y-25055006D01*
X26182126Y-25059987D01*
X26182127Y-25059988D01*
X26259413Y-25225729D01*
X26259416Y-25225734D01*
X26261739Y-25230716D01*
X26372941Y-25389529D01*
X26510031Y-25526619D01*
X26514539Y-25529776D01*
X26514542Y-25529778D01*
X26664335Y-25634664D01*
X26668844Y-25637821D01*
X26673826Y-25640144D01*
X26673831Y-25640147D01*
X26839572Y-25717433D01*
X26844554Y-25719756D01*
X26849862Y-25721178D01*
X26849864Y-25721179D01*
X27026508Y-25768511D01*
X27026510Y-25768511D01*
X27031823Y-25769935D01*
X27037309Y-25770415D01*
X27037315Y-25770416D01*
X27183470Y-25783204D01*
X27193380Y-25784468D01*
X27212421Y-25787671D01*
X27218802Y-25787749D01*
X27220101Y-25787765D01*
X27220105Y-25787765D01*
X27224960Y-25787824D01*
X27252548Y-25783873D01*
X27270411Y-25782600D01*
X39971753Y-25782600D01*
X39992657Y-25784346D01*
X40012421Y-25787671D01*
X40018563Y-25787746D01*
X40020094Y-25787765D01*
X40020099Y-25787765D01*
X40024960Y-25787824D01*
X40029777Y-25787134D01*
X40029781Y-25787134D01*
X40039328Y-25785767D01*
X40046204Y-25784974D01*
X40086016Y-25781491D01*
X40218097Y-25769935D01*
X40223410Y-25768511D01*
X40223412Y-25768511D01*
X40400056Y-25721179D01*
X40400058Y-25721178D01*
X40405366Y-25719756D01*
X40410348Y-25717433D01*
X40576089Y-25640147D01*
X40576094Y-25640144D01*
X40581076Y-25637821D01*
X40585585Y-25634664D01*
X40735378Y-25529778D01*
X40735381Y-25529776D01*
X40739889Y-25526619D01*
X40876979Y-25389529D01*
X40988181Y-25230716D01*
X40990504Y-25225734D01*
X40990507Y-25225729D01*
X41067793Y-25059988D01*
X41067794Y-25059987D01*
X41070116Y-25055006D01*
X41120295Y-24867737D01*
X41120775Y-24862251D01*
X41120776Y-24862245D01*
X41133564Y-24716090D01*
X41134829Y-24706172D01*
X41138031Y-24687139D01*
X41138184Y-24674600D01*
X41134233Y-24647012D01*
X41132960Y-24629149D01*
X41132960Y-21325000D01*
X108711526Y-21325000D01*
X108731391Y-21577403D01*
X108790495Y-21823591D01*
X108792388Y-21828162D01*
X108792389Y-21828164D01*
X108848730Y-21964182D01*
X108887384Y-22057502D01*
X109019672Y-22273376D01*
X109184102Y-22465898D01*
X109187858Y-22469106D01*
X109202326Y-22481463D01*
X109376624Y-22630328D01*
X109592498Y-22762616D01*
X109597068Y-22764509D01*
X109597072Y-22764511D01*
X109821836Y-22857611D01*
X109826409Y-22859505D01*
X109911032Y-22879821D01*
X110067784Y-22917454D01*
X110067790Y-22917455D01*
X110072597Y-22918609D01*
X110172416Y-22926465D01*
X110259345Y-22933307D01*
X110259352Y-22933307D01*
X110261801Y-22933500D01*
X110388199Y-22933500D01*
X110390648Y-22933307D01*
X110390655Y-22933307D01*
X110477584Y-22926465D01*
X110577403Y-22918609D01*
X110582210Y-22917455D01*
X110582216Y-22917454D01*
X110738968Y-22879821D01*
X110823591Y-22859505D01*
X110828164Y-22857611D01*
X111052928Y-22764511D01*
X111052932Y-22764509D01*
X111057502Y-22762616D01*
X111273376Y-22630328D01*
X111447674Y-22481463D01*
X111462142Y-22469106D01*
X111465898Y-22465898D01*
X111630328Y-22273376D01*
X111762616Y-22057502D01*
X111801271Y-21964182D01*
X111857611Y-21828164D01*
X111857612Y-21828162D01*
X111859505Y-21823591D01*
X111918609Y-21577403D01*
X111938474Y-21325000D01*
X111918609Y-21072597D01*
X111859505Y-20826409D01*
X111762616Y-20592498D01*
X111630328Y-20376624D01*
X111486040Y-20207685D01*
X111469106Y-20187858D01*
X111465898Y-20184102D01*
X111273376Y-20019672D01*
X111057502Y-19887384D01*
X111052932Y-19885491D01*
X111052928Y-19885489D01*
X110828164Y-19792389D01*
X110828162Y-19792388D01*
X110823591Y-19790495D01*
X110738968Y-19770179D01*
X110582216Y-19732546D01*
X110582210Y-19732545D01*
X110577403Y-19731391D01*
X110477584Y-19723535D01*
X110390655Y-19716693D01*
X110390648Y-19716693D01*
X110388199Y-19716500D01*
X110261801Y-19716500D01*
X110259352Y-19716693D01*
X110259345Y-19716693D01*
X110172416Y-19723535D01*
X110072597Y-19731391D01*
X110067790Y-19732545D01*
X110067784Y-19732546D01*
X109911032Y-19770179D01*
X109826409Y-19790495D01*
X109821838Y-19792388D01*
X109821836Y-19792389D01*
X109597072Y-19885489D01*
X109597068Y-19885491D01*
X109592498Y-19887384D01*
X109376624Y-20019672D01*
X109184102Y-20184102D01*
X109180894Y-20187858D01*
X109163960Y-20207685D01*
X109019672Y-20376624D01*
X108887384Y-20592498D01*
X108790495Y-20826409D01*
X108731391Y-21072597D01*
X108711526Y-21325000D01*
X41132960Y-21325000D01*
X41132960Y-17727807D01*
X41134706Y-17706905D01*
X41137839Y-17688281D01*
X41168865Y-17624422D01*
X41229490Y-17587474D01*
X41245747Y-17584248D01*
X41248617Y-17583873D01*
X41250205Y-17583665D01*
X41266549Y-17582600D01*
X115750632Y-17582600D01*
X115770016Y-17584100D01*
X115770967Y-17584248D01*
X115784819Y-17586405D01*
X115784821Y-17586405D01*
X115793690Y-17587786D01*
X115802592Y-17586622D01*
X115802594Y-17586622D01*
X115808919Y-17585795D01*
X115834242Y-17585052D01*
X115998086Y-17596770D01*
X116003303Y-17597143D01*
X116021097Y-17599701D01*
X116211500Y-17641121D01*
X116228748Y-17646186D01*
X116411318Y-17714282D01*
X116427670Y-17721749D01*
X116438765Y-17727807D01*
X116598694Y-17815134D01*
X116613808Y-17824848D01*
X116723476Y-17906944D01*
X116769802Y-17941623D01*
X116783388Y-17953396D01*
X116921164Y-18091172D01*
X116932937Y-18104758D01*
X117049712Y-18260752D01*
X117059429Y-18275871D01*
X117152811Y-18446890D01*
X117160278Y-18463242D01*
X117228374Y-18645812D01*
X117233440Y-18663062D01*
X117274859Y-18853463D01*
X117277417Y-18871258D01*
X117289001Y-19033229D01*
X117288257Y-19051133D01*
X117288156Y-19059456D01*
X117286774Y-19068330D01*
X117290378Y-19095884D01*
X117291431Y-19113791D01*
X117287567Y-19422884D01*
X117286077Y-19440694D01*
X117281774Y-19468330D01*
X117282939Y-19477237D01*
X117282934Y-19477629D01*
X117283232Y-19480363D01*
X117283825Y-19487139D01*
X117299625Y-19667737D01*
X117349804Y-19855006D01*
X117352126Y-19859987D01*
X117352127Y-19859988D01*
X117429413Y-20025729D01*
X117429416Y-20025734D01*
X117431739Y-20030716D01*
X117434895Y-20035223D01*
X117434896Y-20035225D01*
X117536895Y-20180894D01*
X117542941Y-20189529D01*
X117680031Y-20326619D01*
X117684539Y-20329776D01*
X117684542Y-20329778D01*
X117746271Y-20373001D01*
X117790599Y-20428458D01*
X117800000Y-20476214D01*
X117800000Y-21672986D01*
X117779998Y-21741107D01*
X117746271Y-21776199D01*
X117684542Y-21819422D01*
X117684541Y-21819423D01*
X117680031Y-21822581D01*
X117542941Y-21959671D01*
X117539784Y-21964179D01*
X117539782Y-21964182D01*
X117474439Y-22057502D01*
X117431739Y-22118484D01*
X117429416Y-22123466D01*
X117429413Y-22123471D01*
X117357759Y-22277135D01*
X117349804Y-22294194D01*
X117299625Y-22481463D01*
X117299146Y-22486942D01*
X117285573Y-22642083D01*
X117284552Y-22650488D01*
X117283155Y-22659457D01*
X117283155Y-22659462D01*
X117281774Y-22668330D01*
X117282938Y-22677232D01*
X117282938Y-22677235D01*
X117285896Y-22699851D01*
X117286960Y-22716189D01*
X117286960Y-34225272D01*
X117285460Y-34244656D01*
X117281774Y-34268330D01*
X117282939Y-34277237D01*
X117282934Y-34277629D01*
X117283232Y-34280363D01*
X117283825Y-34287139D01*
X117299625Y-34467737D01*
X117349804Y-34655006D01*
X117352126Y-34659987D01*
X117352127Y-34659988D01*
X117429413Y-34825729D01*
X117429416Y-34825734D01*
X117431739Y-34830716D01*
X117542941Y-34989529D01*
X117680031Y-35126619D01*
X117684539Y-35129776D01*
X117684542Y-35129778D01*
X117746271Y-35173001D01*
X117790599Y-35228458D01*
X117800000Y-35276214D01*
X117800000Y-36672986D01*
X117779998Y-36741107D01*
X117746271Y-36776199D01*
X117684542Y-36819422D01*
X117684541Y-36819423D01*
X117680031Y-36822581D01*
X117542941Y-36959671D01*
X117431739Y-37118484D01*
X117429416Y-37123466D01*
X117429413Y-37123471D01*
X117352127Y-37289212D01*
X117349804Y-37294194D01*
X117299625Y-37481463D01*
X117299146Y-37486942D01*
X117285573Y-37642083D01*
X117284552Y-37650488D01*
X117283155Y-37659457D01*
X117283155Y-37659462D01*
X117281774Y-37668330D01*
X117285950Y-37700262D01*
X117287013Y-37716436D01*
X117291891Y-41521639D01*
X117290145Y-41542703D01*
X117287696Y-41557260D01*
X117287695Y-41557269D01*
X117286889Y-41562061D01*
X117286736Y-41574600D01*
X117287426Y-41579415D01*
X117287587Y-41581890D01*
X117288155Y-41587485D01*
X117289238Y-41605390D01*
X117305695Y-41877458D01*
X117360387Y-42175901D01*
X117450653Y-42465575D01*
X117575177Y-42742256D01*
X117732144Y-43001911D01*
X117919264Y-43240752D01*
X118133808Y-43455296D01*
X118372649Y-43642416D01*
X118425924Y-43674622D01*
X118629043Y-43797412D01*
X118629047Y-43797414D01*
X118632304Y-43799383D01*
X118751194Y-43852891D01*
X118905509Y-43922343D01*
X118905515Y-43922345D01*
X118908985Y-43923907D01*
X118927341Y-43929627D01*
X119179071Y-44008069D01*
X119198659Y-44014173D01*
X119497102Y-44068865D01*
X119500893Y-44069094D01*
X119500899Y-44069095D01*
X119676963Y-44079744D01*
X119769173Y-44085321D01*
X119782477Y-44086839D01*
X119787421Y-44087671D01*
X119793898Y-44087750D01*
X119795101Y-44087765D01*
X119795105Y-44087765D01*
X119799960Y-44087824D01*
X119827548Y-44083873D01*
X119845411Y-44082600D01*
X124471753Y-44082600D01*
X124492657Y-44084346D01*
X124512421Y-44087671D01*
X124518563Y-44087746D01*
X124520094Y-44087765D01*
X124520099Y-44087765D01*
X124524960Y-44087824D01*
X124529777Y-44087134D01*
X124529781Y-44087134D01*
X124539328Y-44085767D01*
X124546204Y-44084974D01*
X124586016Y-44081491D01*
X124718097Y-44069935D01*
X124723410Y-44068511D01*
X124723412Y-44068511D01*
X124900056Y-44021179D01*
X124900058Y-44021178D01*
X124905366Y-44019756D01*
X124911633Y-44016834D01*
X124945518Y-44001033D01*
X125081076Y-43937821D01*
X125084835Y-43935189D01*
X125153558Y-43918518D01*
X125220650Y-43941739D01*
X125249500Y-43970319D01*
X125254801Y-43977615D01*
X125259711Y-43982036D01*
X125259712Y-43982037D01*
X125377201Y-44087824D01*
X125395739Y-44104516D01*
X125559981Y-44199341D01*
X125566267Y-44201383D01*
X125566266Y-44201383D01*
X125734070Y-44255906D01*
X125734071Y-44255906D01*
X125740349Y-44257946D01*
X125746912Y-44258636D01*
X125746913Y-44258636D01*
X125770347Y-44261099D01*
X125881674Y-44272800D01*
X125976246Y-44272800D01*
X126087573Y-44261099D01*
X126111007Y-44258636D01*
X126111008Y-44258636D01*
X126117571Y-44257946D01*
X126123849Y-44255906D01*
X126123850Y-44255906D01*
X126291654Y-44201383D01*
X126291653Y-44201383D01*
X126297939Y-44199341D01*
X126462181Y-44104516D01*
X126479652Y-44088785D01*
X126543658Y-44058069D01*
X126614111Y-44066834D01*
X126648267Y-44088784D01*
X126665739Y-44104516D01*
X126829981Y-44199341D01*
X126836267Y-44201383D01*
X126836266Y-44201383D01*
X127004070Y-44255906D01*
X127004071Y-44255906D01*
X127010349Y-44257946D01*
X127016912Y-44258636D01*
X127016913Y-44258636D01*
X127040347Y-44261099D01*
X127151674Y-44272800D01*
X127246246Y-44272800D01*
X127357573Y-44261099D01*
X127381007Y-44258636D01*
X127381008Y-44258636D01*
X127387571Y-44257946D01*
X127393849Y-44255906D01*
X127393850Y-44255906D01*
X127561654Y-44201383D01*
X127561653Y-44201383D01*
X127567939Y-44199341D01*
X127732181Y-44104516D01*
X127749652Y-44088785D01*
X127813658Y-44058069D01*
X127884111Y-44066834D01*
X127918267Y-44088784D01*
X127935739Y-44104516D01*
X128099981Y-44199341D01*
X128106267Y-44201383D01*
X128106266Y-44201383D01*
X128274070Y-44255906D01*
X128274071Y-44255906D01*
X128280349Y-44257946D01*
X128286912Y-44258636D01*
X128286913Y-44258636D01*
X128310347Y-44261099D01*
X128421674Y-44272800D01*
X128516246Y-44272800D01*
X128627573Y-44261099D01*
X128651007Y-44258636D01*
X128651008Y-44258636D01*
X128657571Y-44257946D01*
X128663849Y-44255906D01*
X128663850Y-44255906D01*
X128831654Y-44201383D01*
X128831653Y-44201383D01*
X128837939Y-44199341D01*
X129002181Y-44104516D01*
X129019652Y-44088785D01*
X129083658Y-44058069D01*
X129154111Y-44066834D01*
X129188267Y-44088784D01*
X129205739Y-44104516D01*
X129369981Y-44199341D01*
X129376267Y-44201383D01*
X129376266Y-44201383D01*
X129544070Y-44255906D01*
X129544071Y-44255906D01*
X129550349Y-44257946D01*
X129556912Y-44258636D01*
X129556913Y-44258636D01*
X129580347Y-44261099D01*
X129691674Y-44272800D01*
X129786246Y-44272800D01*
X129897573Y-44261099D01*
X129921007Y-44258636D01*
X129921008Y-44258636D01*
X129927571Y-44257946D01*
X129933849Y-44255906D01*
X129933850Y-44255906D01*
X130101654Y-44201383D01*
X130101653Y-44201383D01*
X130107939Y-44199341D01*
X130272181Y-44104516D01*
X130289652Y-44088785D01*
X130353658Y-44058069D01*
X130424111Y-44066834D01*
X130458267Y-44088784D01*
X130475739Y-44104516D01*
X130639981Y-44199341D01*
X130646267Y-44201383D01*
X130646266Y-44201383D01*
X130814070Y-44255906D01*
X130814071Y-44255906D01*
X130820349Y-44257946D01*
X130826912Y-44258636D01*
X130826913Y-44258636D01*
X130850347Y-44261099D01*
X130961674Y-44272800D01*
X131056246Y-44272800D01*
X131167573Y-44261099D01*
X131191007Y-44258636D01*
X131191008Y-44258636D01*
X131197571Y-44257946D01*
X131203849Y-44255906D01*
X131203850Y-44255906D01*
X131371654Y-44201383D01*
X131371653Y-44201383D01*
X131377939Y-44199341D01*
X131542181Y-44104516D01*
X131560720Y-44087824D01*
X131678208Y-43982037D01*
X131678209Y-43982036D01*
X131683119Y-43977615D01*
X131709185Y-43941739D01*
X131725847Y-43918805D01*
X131782069Y-43875451D01*
X131852805Y-43869376D01*
X131900051Y-43889652D01*
X131968844Y-43937821D01*
X131973826Y-43940144D01*
X131973831Y-43940147D01*
X132139572Y-44017433D01*
X132144554Y-44019756D01*
X132149862Y-44021178D01*
X132149864Y-44021179D01*
X132326508Y-44068511D01*
X132326510Y-44068511D01*
X132331823Y-44069935D01*
X132337309Y-44070415D01*
X132337315Y-44070416D01*
X132483470Y-44083204D01*
X132493380Y-44084468D01*
X132512421Y-44087671D01*
X132518802Y-44087749D01*
X132520101Y-44087765D01*
X132520105Y-44087765D01*
X132524960Y-44087824D01*
X132552548Y-44083873D01*
X132570411Y-44082600D01*
X183271753Y-44082600D01*
X183292657Y-44084346D01*
X183312421Y-44087671D01*
X183318563Y-44087746D01*
X183320094Y-44087765D01*
X183320099Y-44087765D01*
X183324960Y-44087824D01*
X183329777Y-44087134D01*
X183329781Y-44087134D01*
X183339328Y-44085767D01*
X183346204Y-44084974D01*
X183386016Y-44081491D01*
X183518097Y-44069935D01*
X183523410Y-44068511D01*
X183523412Y-44068511D01*
X183700056Y-44021179D01*
X183700058Y-44021178D01*
X183705366Y-44019756D01*
X183710348Y-44017433D01*
X183876089Y-43940147D01*
X183876094Y-43940144D01*
X183881076Y-43937821D01*
X183889337Y-43932037D01*
X183969967Y-43875579D01*
X184037241Y-43852891D01*
X184106102Y-43870176D01*
X184144173Y-43904730D01*
X184156915Y-43922267D01*
X184160801Y-43927615D01*
X184165711Y-43932036D01*
X184165712Y-43932037D01*
X184256934Y-44014173D01*
X184301739Y-44054516D01*
X184380688Y-44100097D01*
X184459493Y-44145595D01*
X184465981Y-44149341D01*
X184472267Y-44151383D01*
X184472266Y-44151383D01*
X184640070Y-44205906D01*
X184640071Y-44205906D01*
X184646349Y-44207946D01*
X184652912Y-44208636D01*
X184652913Y-44208636D01*
X184676347Y-44211099D01*
X184787674Y-44222800D01*
X184882246Y-44222800D01*
X184993573Y-44211099D01*
X185017007Y-44208636D01*
X185017008Y-44208636D01*
X185023571Y-44207946D01*
X185029849Y-44205906D01*
X185029850Y-44205906D01*
X185197654Y-44151383D01*
X185197653Y-44151383D01*
X185203939Y-44149341D01*
X185210428Y-44145595D01*
X185289232Y-44100097D01*
X185368181Y-44054516D01*
X185385652Y-44038785D01*
X185449658Y-44008069D01*
X185520111Y-44016834D01*
X185554267Y-44038784D01*
X185571739Y-44054516D01*
X185650688Y-44100097D01*
X185729493Y-44145595D01*
X185735981Y-44149341D01*
X185742267Y-44151383D01*
X185742266Y-44151383D01*
X185910070Y-44205906D01*
X185910071Y-44205906D01*
X185916349Y-44207946D01*
X185922912Y-44208636D01*
X185922913Y-44208636D01*
X185946347Y-44211099D01*
X186057674Y-44222800D01*
X186152246Y-44222800D01*
X186263573Y-44211099D01*
X186287007Y-44208636D01*
X186287008Y-44208636D01*
X186293571Y-44207946D01*
X186299849Y-44205906D01*
X186299850Y-44205906D01*
X186467654Y-44151383D01*
X186467653Y-44151383D01*
X186473939Y-44149341D01*
X186480428Y-44145595D01*
X186559232Y-44100097D01*
X186638181Y-44054516D01*
X186655652Y-44038785D01*
X186719658Y-44008069D01*
X186790111Y-44016834D01*
X186824267Y-44038784D01*
X186841739Y-44054516D01*
X186920688Y-44100097D01*
X186999493Y-44145595D01*
X187005981Y-44149341D01*
X187012267Y-44151383D01*
X187012266Y-44151383D01*
X187180070Y-44205906D01*
X187180071Y-44205906D01*
X187186349Y-44207946D01*
X187192912Y-44208636D01*
X187192913Y-44208636D01*
X187216347Y-44211099D01*
X187327674Y-44222800D01*
X187422246Y-44222800D01*
X187533573Y-44211099D01*
X187557007Y-44208636D01*
X187557008Y-44208636D01*
X187563571Y-44207946D01*
X187569849Y-44205906D01*
X187569850Y-44205906D01*
X187737654Y-44151383D01*
X187737653Y-44151383D01*
X187743939Y-44149341D01*
X187750428Y-44145595D01*
X187829232Y-44100097D01*
X187908181Y-44054516D01*
X187925652Y-44038785D01*
X187989658Y-44008069D01*
X188060111Y-44016834D01*
X188094267Y-44038784D01*
X188111739Y-44054516D01*
X188190688Y-44100097D01*
X188269493Y-44145595D01*
X188275981Y-44149341D01*
X188282267Y-44151383D01*
X188282266Y-44151383D01*
X188450070Y-44205906D01*
X188450071Y-44205906D01*
X188456349Y-44207946D01*
X188462912Y-44208636D01*
X188462913Y-44208636D01*
X188486347Y-44211099D01*
X188597674Y-44222800D01*
X188692246Y-44222800D01*
X188803573Y-44211099D01*
X188827007Y-44208636D01*
X188827008Y-44208636D01*
X188833571Y-44207946D01*
X188839849Y-44205906D01*
X188839850Y-44205906D01*
X189007654Y-44151383D01*
X189007653Y-44151383D01*
X189013939Y-44149341D01*
X189020428Y-44145595D01*
X189099232Y-44100097D01*
X189178181Y-44054516D01*
X189195652Y-44038785D01*
X189259658Y-44008069D01*
X189330111Y-44016834D01*
X189364267Y-44038784D01*
X189381739Y-44054516D01*
X189460688Y-44100097D01*
X189539493Y-44145595D01*
X189545981Y-44149341D01*
X189552267Y-44151383D01*
X189552266Y-44151383D01*
X189720070Y-44205906D01*
X189720071Y-44205906D01*
X189726349Y-44207946D01*
X189732912Y-44208636D01*
X189732913Y-44208636D01*
X189756347Y-44211099D01*
X189867674Y-44222800D01*
X189962246Y-44222800D01*
X190073573Y-44211099D01*
X190097007Y-44208636D01*
X190097008Y-44208636D01*
X190103571Y-44207946D01*
X190109849Y-44205906D01*
X190109850Y-44205906D01*
X190277654Y-44151383D01*
X190277653Y-44151383D01*
X190283939Y-44149341D01*
X190290428Y-44145595D01*
X190369232Y-44100097D01*
X190448181Y-44054516D01*
X190586886Y-43929626D01*
X190650891Y-43898910D01*
X190721345Y-43907674D01*
X190743458Y-43920046D01*
X190768844Y-43937821D01*
X190773822Y-43940142D01*
X190773825Y-43940144D01*
X190939572Y-44017433D01*
X190944554Y-44019756D01*
X190949862Y-44021178D01*
X190949864Y-44021179D01*
X191126508Y-44068511D01*
X191126510Y-44068511D01*
X191131823Y-44069935D01*
X191137309Y-44070415D01*
X191137315Y-44070416D01*
X191283470Y-44083204D01*
X191293380Y-44084468D01*
X191312421Y-44087671D01*
X191318802Y-44087749D01*
X191320101Y-44087765D01*
X191320105Y-44087765D01*
X191324960Y-44087824D01*
X191352548Y-44083873D01*
X191370411Y-44082600D01*
X195996753Y-44082600D01*
X196017657Y-44084346D01*
X196037421Y-44087671D01*
X196043749Y-44087748D01*
X196045101Y-44087765D01*
X196045105Y-44087765D01*
X196049960Y-44087824D01*
X196054775Y-44087134D01*
X196057250Y-44086973D01*
X196062845Y-44086405D01*
X196349022Y-44069095D01*
X196349028Y-44069094D01*
X196352818Y-44068865D01*
X196651261Y-44014173D01*
X196670850Y-44008069D01*
X196922579Y-43929627D01*
X196940935Y-43923907D01*
X196944405Y-43922345D01*
X196944411Y-43922343D01*
X197098726Y-43852891D01*
X197217616Y-43799383D01*
X197220873Y-43797414D01*
X197220877Y-43797412D01*
X197423996Y-43674622D01*
X197477271Y-43642416D01*
X197716112Y-43455296D01*
X197930656Y-43240752D01*
X198117776Y-43001911D01*
X198274743Y-42742256D01*
X198399267Y-42465575D01*
X198489533Y-42175901D01*
X198544225Y-41877458D01*
X198560681Y-41605387D01*
X198562199Y-41592083D01*
X198562223Y-41591940D01*
X198563031Y-41587139D01*
X198563184Y-41574600D01*
X198559174Y-41546597D01*
X198557902Y-41528903D01*
X198553029Y-37727561D01*
X198554775Y-37706497D01*
X198557224Y-37691940D01*
X198557225Y-37691931D01*
X198558031Y-37687139D01*
X198558184Y-37674600D01*
X198557287Y-37668330D01*
X198556127Y-37660232D01*
X198555334Y-37653356D01*
X198540774Y-37486943D01*
X198540774Y-37486942D01*
X198540295Y-37481463D01*
X198490116Y-37294194D01*
X198487793Y-37289212D01*
X198410507Y-37123471D01*
X198410504Y-37123466D01*
X198408181Y-37118484D01*
X198296979Y-36959671D01*
X198159889Y-36822581D01*
X198153732Y-36818270D01*
X198153176Y-36817575D01*
X198151165Y-36815887D01*
X198151504Y-36815483D01*
X198109402Y-36762815D01*
X198100000Y-36715055D01*
X198100000Y-35234145D01*
X198120002Y-35166024D01*
X198151294Y-35133467D01*
X198151165Y-35133313D01*
X198152595Y-35132113D01*
X198153732Y-35130930D01*
X198155379Y-35129777D01*
X198159889Y-35126619D01*
X198296979Y-34989529D01*
X198408181Y-34830716D01*
X198410504Y-34825734D01*
X198410507Y-34825729D01*
X198487793Y-34659988D01*
X198487794Y-34659987D01*
X198490116Y-34655006D01*
X198540295Y-34467737D01*
X198540775Y-34462251D01*
X198540776Y-34462245D01*
X198553564Y-34316090D01*
X198554829Y-34306172D01*
X198558031Y-34287139D01*
X198558184Y-34274600D01*
X198554233Y-34247012D01*
X198552960Y-34229149D01*
X198552960Y-22727807D01*
X198554706Y-22706903D01*
X198557224Y-22691935D01*
X198558031Y-22687139D01*
X198558184Y-22674600D01*
X198557287Y-22668330D01*
X198556127Y-22660232D01*
X198555334Y-22653356D01*
X198540774Y-22486943D01*
X198540774Y-22486942D01*
X198540295Y-22481463D01*
X198490116Y-22294194D01*
X198482161Y-22277135D01*
X198410507Y-22123471D01*
X198410504Y-22123466D01*
X198408181Y-22118484D01*
X198365481Y-22057502D01*
X198300138Y-21964182D01*
X198300136Y-21964179D01*
X198296979Y-21959671D01*
X198159889Y-21822581D01*
X198153732Y-21818270D01*
X198153176Y-21817575D01*
X198151165Y-21815887D01*
X198151504Y-21815483D01*
X198109402Y-21762815D01*
X198100000Y-21715055D01*
X198100000Y-21325000D01*
X203961526Y-21325000D01*
X203981391Y-21577403D01*
X204040495Y-21823591D01*
X204042388Y-21828162D01*
X204042389Y-21828164D01*
X204098730Y-21964182D01*
X204137384Y-22057502D01*
X204269672Y-22273376D01*
X204434102Y-22465898D01*
X204437858Y-22469106D01*
X204452326Y-22481463D01*
X204626624Y-22630328D01*
X204842498Y-22762616D01*
X204847068Y-22764509D01*
X204847072Y-22764511D01*
X205071836Y-22857611D01*
X205076409Y-22859505D01*
X205161032Y-22879821D01*
X205317784Y-22917454D01*
X205317790Y-22917455D01*
X205322597Y-22918609D01*
X205422416Y-22926465D01*
X205509345Y-22933307D01*
X205509352Y-22933307D01*
X205511801Y-22933500D01*
X205638199Y-22933500D01*
X205640648Y-22933307D01*
X205640655Y-22933307D01*
X205727584Y-22926465D01*
X205827403Y-22918609D01*
X205832210Y-22917455D01*
X205832216Y-22917454D01*
X205988968Y-22879821D01*
X206073591Y-22859505D01*
X206078164Y-22857611D01*
X206302928Y-22764511D01*
X206302932Y-22764509D01*
X206307502Y-22762616D01*
X206523376Y-22630328D01*
X206697674Y-22481463D01*
X206712142Y-22469106D01*
X206715898Y-22465898D01*
X206880328Y-22273376D01*
X207012616Y-22057502D01*
X207051271Y-21964182D01*
X207107611Y-21828164D01*
X207107612Y-21828162D01*
X207109505Y-21823591D01*
X207168609Y-21577403D01*
X207188474Y-21325000D01*
X207168609Y-21072597D01*
X207109505Y-20826409D01*
X207012616Y-20592498D01*
X206880328Y-20376624D01*
X206736040Y-20207685D01*
X206719106Y-20187858D01*
X206715898Y-20184102D01*
X206523376Y-20019672D01*
X206307502Y-19887384D01*
X206302932Y-19885491D01*
X206302928Y-19885489D01*
X206078164Y-19792389D01*
X206078162Y-19792388D01*
X206073591Y-19790495D01*
X205988968Y-19770179D01*
X205832216Y-19732546D01*
X205832210Y-19732545D01*
X205827403Y-19731391D01*
X205727584Y-19723535D01*
X205640655Y-19716693D01*
X205640648Y-19716693D01*
X205638199Y-19716500D01*
X205511801Y-19716500D01*
X205509352Y-19716693D01*
X205509345Y-19716693D01*
X205422416Y-19723535D01*
X205322597Y-19731391D01*
X205317790Y-19732545D01*
X205317784Y-19732546D01*
X205161032Y-19770179D01*
X205076409Y-19790495D01*
X205071838Y-19792388D01*
X205071836Y-19792389D01*
X204847072Y-19885489D01*
X204847068Y-19885491D01*
X204842498Y-19887384D01*
X204626624Y-20019672D01*
X204434102Y-20184102D01*
X204430894Y-20187858D01*
X204413960Y-20207685D01*
X204269672Y-20376624D01*
X204137384Y-20592498D01*
X204040495Y-20826409D01*
X203981391Y-21072597D01*
X203961526Y-21325000D01*
X198100000Y-21325000D01*
X198100000Y-20434145D01*
X198120002Y-20366024D01*
X198151294Y-20333467D01*
X198151165Y-20333313D01*
X198152595Y-20332113D01*
X198153732Y-20330930D01*
X198155379Y-20329777D01*
X198159889Y-20326619D01*
X198296979Y-20189529D01*
X198303026Y-20180894D01*
X198405024Y-20035225D01*
X198405025Y-20035223D01*
X198408181Y-20030716D01*
X198410504Y-20025734D01*
X198410507Y-20025729D01*
X198487793Y-19859988D01*
X198487794Y-19859987D01*
X198490116Y-19855006D01*
X198522930Y-19732546D01*
X198538871Y-19673052D01*
X198538871Y-19673050D01*
X198540295Y-19667737D01*
X198540775Y-19662251D01*
X198540776Y-19662245D01*
X198553564Y-19516090D01*
X198554829Y-19506172D01*
X198558031Y-19487139D01*
X198558184Y-19474600D01*
X198554801Y-19450978D01*
X198553538Y-19431540D01*
X198557353Y-19126316D01*
X198558843Y-19108506D01*
X198561765Y-19089741D01*
X198561765Y-19089739D01*
X198563146Y-19080870D01*
X198561982Y-19071966D01*
X198561155Y-19065641D01*
X198560412Y-19040313D01*
X198572503Y-18871257D01*
X198575061Y-18853463D01*
X198616480Y-18663062D01*
X198621546Y-18645812D01*
X198689642Y-18463242D01*
X198697109Y-18446890D01*
X198790491Y-18275871D01*
X198800208Y-18260752D01*
X198916983Y-18104758D01*
X198928756Y-18091172D01*
X199066532Y-17953396D01*
X199080118Y-17941623D01*
X199126444Y-17906944D01*
X199236112Y-17824848D01*
X199251226Y-17815134D01*
X199411155Y-17727807D01*
X199422250Y-17721749D01*
X199438602Y-17714282D01*
X199621172Y-17646186D01*
X199638420Y-17641121D01*
X199828823Y-17599701D01*
X199846618Y-17597143D01*
X199895517Y-17593646D01*
X200008591Y-17585559D01*
X200026493Y-17586303D01*
X200034818Y-17586405D01*
X200043690Y-17587786D01*
X200052592Y-17586622D01*
X200052595Y-17586622D01*
X200072751Y-17583986D01*
X200075212Y-17583664D01*
X200091549Y-17582600D01*
X298375632Y-17582600D01*
X298395016Y-17584100D01*
X298395967Y-17584248D01*
X298409819Y-17586405D01*
X298409821Y-17586405D01*
X298418690Y-17587786D01*
X298427592Y-17586622D01*
X298427594Y-17586622D01*
X298433919Y-17585795D01*
X298459242Y-17585052D01*
X298623086Y-17596770D01*
X298628303Y-17597143D01*
X298646097Y-17599701D01*
X298836500Y-17641121D01*
X298853748Y-17646186D01*
X299036318Y-17714282D01*
X299052670Y-17721749D01*
X299063765Y-17727807D01*
X299223694Y-17815134D01*
X299238808Y-17824848D01*
X299348476Y-17906944D01*
X299394802Y-17941623D01*
X299408388Y-17953396D01*
X299546164Y-18091172D01*
X299557937Y-18104758D01*
X299674712Y-18260752D01*
X299684429Y-18275871D01*
X299777811Y-18446890D01*
X299785278Y-18463242D01*
X299853374Y-18645812D01*
X299858440Y-18663062D01*
X299899859Y-18853463D01*
X299902417Y-18871258D01*
X299914001Y-19033229D01*
X299913257Y-19051133D01*
X299913155Y-19059458D01*
X299911774Y-19068330D01*
X299912938Y-19077232D01*
X299912938Y-19077235D01*
X299915896Y-19099851D01*
X299916960Y-19116189D01*
X299916960Y-109625272D01*
X299915460Y-109644656D01*
X299911774Y-109668330D01*
X299912938Y-109677232D01*
X299912938Y-109677234D01*
X299913765Y-109683559D01*
X299914508Y-109708887D01*
X299902417Y-109877943D01*
X299899859Y-109895737D01*
X299858440Y-110086138D01*
X299853374Y-110103388D01*
X299785278Y-110285958D01*
X299777811Y-110302310D01*
X299684429Y-110473329D01*
X299674712Y-110488448D01*
X299616976Y-110565575D01*
X299557937Y-110644442D01*
X299546164Y-110658028D01*
X299408388Y-110795804D01*
X299394801Y-110807577D01*
X299238808Y-110924352D01*
X299223694Y-110934066D01*
X299117980Y-110991790D01*
X299052670Y-111027451D01*
X299036318Y-111034918D01*
X298853748Y-111103014D01*
X298836500Y-111108079D01*
X298672982Y-111143651D01*
X298646097Y-111149499D01*
X298628302Y-111152057D01*
X298579403Y-111155554D01*
X298466329Y-111163641D01*
X298448427Y-111162897D01*
X298440102Y-111162795D01*
X298431230Y-111161414D01*
X298422328Y-111162578D01*
X298422325Y-111162578D01*
X298399709Y-111165536D01*
X298383371Y-111166600D01*
X17474288Y-111166600D01*
X17454903Y-111165100D01*
X17454621Y-111165056D01*
X17452077Y-111164660D01*
X17440101Y-111162795D01*
X17440099Y-111162795D01*
X17431230Y-111161414D01*
X17422328Y-111162578D01*
X17422326Y-111162578D01*
X17416001Y-111163405D01*
X17390678Y-111164148D01*
X17221617Y-111152057D01*
X17203823Y-111149499D01*
X17176938Y-111143651D01*
X17013420Y-111108079D01*
X16996172Y-111103014D01*
X16813602Y-111034918D01*
X16797250Y-111027451D01*
X16731940Y-110991790D01*
X16626226Y-110934066D01*
X16611112Y-110924352D01*
X16455119Y-110807577D01*
X16441532Y-110795804D01*
X16303756Y-110658028D01*
X16291983Y-110644442D01*
X16232944Y-110565575D01*
X16175208Y-110488448D01*
X16165491Y-110473329D01*
X16072109Y-110302310D01*
X16064642Y-110285958D01*
X15996546Y-110103388D01*
X15991480Y-110086138D01*
X15950061Y-109895737D01*
X15947503Y-109877942D01*
X15935919Y-109715971D01*
X15936663Y-109698067D01*
X15936765Y-109689742D01*
X15938146Y-109680870D01*
X15936507Y-109668330D01*
X15934024Y-109649349D01*
X15932960Y-109633011D01*
X15932960Y-106925000D01*
X97661526Y-106925000D01*
X97681391Y-107177403D01*
X97740495Y-107423591D01*
X97837384Y-107657502D01*
X97969672Y-107873376D01*
X98134102Y-108065898D01*
X98326624Y-108230328D01*
X98542498Y-108362616D01*
X98547068Y-108364509D01*
X98547072Y-108364511D01*
X98771836Y-108457611D01*
X98776409Y-108459505D01*
X98861032Y-108479821D01*
X99017784Y-108517454D01*
X99017790Y-108517455D01*
X99022597Y-108518609D01*
X99122416Y-108526465D01*
X99209345Y-108533307D01*
X99209352Y-108533307D01*
X99211801Y-108533500D01*
X99338199Y-108533500D01*
X99340648Y-108533307D01*
X99340655Y-108533307D01*
X99427584Y-108526465D01*
X99527403Y-108518609D01*
X99532210Y-108517455D01*
X99532216Y-108517454D01*
X99688968Y-108479821D01*
X99773591Y-108459505D01*
X99778164Y-108457611D01*
X100002928Y-108364511D01*
X100002932Y-108364509D01*
X100007502Y-108362616D01*
X100223376Y-108230328D01*
X100415898Y-108065898D01*
X100580328Y-107873376D01*
X100712616Y-107657502D01*
X100809505Y-107423591D01*
X100868609Y-107177403D01*
X100888474Y-106925000D01*
X199211526Y-106925000D01*
X199231391Y-107177403D01*
X199290495Y-107423591D01*
X199387384Y-107657502D01*
X199519672Y-107873376D01*
X199684102Y-108065898D01*
X199876624Y-108230328D01*
X200092498Y-108362616D01*
X200097068Y-108364509D01*
X200097072Y-108364511D01*
X200321836Y-108457611D01*
X200326409Y-108459505D01*
X200411032Y-108479821D01*
X200567784Y-108517454D01*
X200567790Y-108517455D01*
X200572597Y-108518609D01*
X200672416Y-108526465D01*
X200759345Y-108533307D01*
X200759352Y-108533307D01*
X200761801Y-108533500D01*
X200888199Y-108533500D01*
X200890648Y-108533307D01*
X200890655Y-108533307D01*
X200977584Y-108526465D01*
X201077403Y-108518609D01*
X201082210Y-108517455D01*
X201082216Y-108517454D01*
X201238968Y-108479821D01*
X201323591Y-108459505D01*
X201328164Y-108457611D01*
X201552928Y-108364511D01*
X201552932Y-108364509D01*
X201557502Y-108362616D01*
X201773376Y-108230328D01*
X201965898Y-108065898D01*
X202130328Y-107873376D01*
X202262616Y-107657502D01*
X202359505Y-107423591D01*
X202418609Y-107177403D01*
X202438474Y-106925000D01*
X237561526Y-106925000D01*
X237581391Y-107177403D01*
X237640495Y-107423591D01*
X237737384Y-107657502D01*
X237869672Y-107873376D01*
X238034102Y-108065898D01*
X238226624Y-108230328D01*
X238442498Y-108362616D01*
X238447068Y-108364509D01*
X238447072Y-108364511D01*
X238671836Y-108457611D01*
X238676409Y-108459505D01*
X238761032Y-108479821D01*
X238917784Y-108517454D01*
X238917790Y-108517455D01*
X238922597Y-108518609D01*
X239022416Y-108526465D01*
X239109345Y-108533307D01*
X239109352Y-108533307D01*
X239111801Y-108533500D01*
X239238199Y-108533500D01*
X239240648Y-108533307D01*
X239240655Y-108533307D01*
X239327584Y-108526465D01*
X239427403Y-108518609D01*
X239432210Y-108517455D01*
X239432216Y-108517454D01*
X239588968Y-108479821D01*
X239673591Y-108459505D01*
X239678164Y-108457611D01*
X239902928Y-108364511D01*
X239902932Y-108364509D01*
X239907502Y-108362616D01*
X240123376Y-108230328D01*
X240315898Y-108065898D01*
X240480328Y-107873376D01*
X240612616Y-107657502D01*
X240709505Y-107423591D01*
X240768609Y-107177403D01*
X240788474Y-106925000D01*
X240768609Y-106672597D01*
X240709505Y-106426409D01*
X240612616Y-106192498D01*
X240480328Y-105976624D01*
X240315898Y-105784102D01*
X240123376Y-105619672D01*
X239907502Y-105487384D01*
X239902932Y-105485491D01*
X239902928Y-105485489D01*
X239678164Y-105392389D01*
X239678162Y-105392388D01*
X239673591Y-105390495D01*
X239588968Y-105370179D01*
X239432216Y-105332546D01*
X239432210Y-105332545D01*
X239427403Y-105331391D01*
X239327584Y-105323535D01*
X239240655Y-105316693D01*
X239240648Y-105316693D01*
X239238199Y-105316500D01*
X239111801Y-105316500D01*
X239109352Y-105316693D01*
X239109345Y-105316693D01*
X239022416Y-105323535D01*
X238922597Y-105331391D01*
X238917790Y-105332545D01*
X238917784Y-105332546D01*
X238761032Y-105370179D01*
X238676409Y-105390495D01*
X238671838Y-105392388D01*
X238671836Y-105392389D01*
X238447072Y-105485489D01*
X238447068Y-105485491D01*
X238442498Y-105487384D01*
X238226624Y-105619672D01*
X238034102Y-105784102D01*
X237869672Y-105976624D01*
X237737384Y-106192498D01*
X237640495Y-106426409D01*
X237581391Y-106672597D01*
X237561526Y-106925000D01*
X202438474Y-106925000D01*
X202418609Y-106672597D01*
X202359505Y-106426409D01*
X202262616Y-106192498D01*
X202130328Y-105976624D01*
X201965898Y-105784102D01*
X201773376Y-105619672D01*
X201557502Y-105487384D01*
X201552932Y-105485491D01*
X201552928Y-105485489D01*
X201328164Y-105392389D01*
X201328162Y-105392388D01*
X201323591Y-105390495D01*
X201238968Y-105370179D01*
X201082216Y-105332546D01*
X201082210Y-105332545D01*
X201077403Y-105331391D01*
X200977584Y-105323535D01*
X200890655Y-105316693D01*
X200890648Y-105316693D01*
X200888199Y-105316500D01*
X200761801Y-105316500D01*
X200759352Y-105316693D01*
X200759345Y-105316693D01*
X200672416Y-105323535D01*
X200572597Y-105331391D01*
X200567790Y-105332545D01*
X200567784Y-105332546D01*
X200411032Y-105370179D01*
X200326409Y-105390495D01*
X200321838Y-105392388D01*
X200321836Y-105392389D01*
X200097072Y-105485489D01*
X200097068Y-105485491D01*
X200092498Y-105487384D01*
X199876624Y-105619672D01*
X199684102Y-105784102D01*
X199519672Y-105976624D01*
X199387384Y-106192498D01*
X199290495Y-106426409D01*
X199231391Y-106672597D01*
X199211526Y-106925000D01*
X100888474Y-106925000D01*
X100868609Y-106672597D01*
X100809505Y-106426409D01*
X100712616Y-106192498D01*
X100580328Y-105976624D01*
X100415898Y-105784102D01*
X100223376Y-105619672D01*
X100007502Y-105487384D01*
X100002932Y-105485491D01*
X100002928Y-105485489D01*
X99778164Y-105392389D01*
X99778162Y-105392388D01*
X99773591Y-105390495D01*
X99688968Y-105370179D01*
X99532216Y-105332546D01*
X99532210Y-105332545D01*
X99527403Y-105331391D01*
X99427584Y-105323535D01*
X99340655Y-105316693D01*
X99340648Y-105316693D01*
X99338199Y-105316500D01*
X99211801Y-105316500D01*
X99209352Y-105316693D01*
X99209345Y-105316693D01*
X99122416Y-105323535D01*
X99022597Y-105331391D01*
X99017790Y-105332545D01*
X99017784Y-105332546D01*
X98861032Y-105370179D01*
X98776409Y-105390495D01*
X98771838Y-105392388D01*
X98771836Y-105392389D01*
X98547072Y-105485489D01*
X98547068Y-105485491D01*
X98542498Y-105487384D01*
X98326624Y-105619672D01*
X98134102Y-105784102D01*
X97969672Y-105976624D01*
X97837384Y-106192498D01*
X97740495Y-106426409D01*
X97681391Y-106672597D01*
X97661526Y-106925000D01*
X15932960Y-106925000D01*
X15932960Y-102184921D01*
X202813780Y-102184921D01*
X202819904Y-102444787D01*
X202865266Y-102700737D01*
X202948820Y-102946881D01*
X203068645Y-103177554D01*
X203071460Y-103181408D01*
X203071463Y-103181412D01*
X203176240Y-103324833D01*
X203221983Y-103387447D01*
X203313644Y-103479590D01*
X203401931Y-103568341D01*
X203401936Y-103568345D01*
X203405305Y-103571732D01*
X203614394Y-103726167D01*
X203844436Y-103847198D01*
X203848955Y-103848759D01*
X203848961Y-103848761D01*
X204025494Y-103909718D01*
X204090139Y-103932040D01*
X204345848Y-103978741D01*
X204429021Y-103983100D01*
X207391059Y-103983100D01*
X207393438Y-103982919D01*
X207393439Y-103982919D01*
X207579383Y-103968775D01*
X207579388Y-103968774D01*
X207584150Y-103968412D01*
X207588804Y-103967333D01*
X207588806Y-103967333D01*
X207832720Y-103910797D01*
X207837375Y-103909718D01*
X208078808Y-103813395D01*
X208302894Y-103681662D01*
X208504475Y-103517549D01*
X208678913Y-103324833D01*
X208822193Y-103107949D01*
X208894492Y-102951122D01*
X208929013Y-102876240D01*
X208929014Y-102876237D01*
X208931019Y-102871888D01*
X209002886Y-102622082D01*
X209036140Y-102364279D01*
X209030016Y-102104413D01*
X208984654Y-101848463D01*
X208901100Y-101602319D01*
X208781275Y-101371646D01*
X208676602Y-101228366D01*
X208630760Y-101165617D01*
X208630759Y-101165616D01*
X208627937Y-101161753D01*
X208536276Y-101069611D01*
X208447989Y-100980859D01*
X208447984Y-100980855D01*
X208444615Y-100977468D01*
X208235526Y-100823033D01*
X208005484Y-100702002D01*
X208000965Y-100700441D01*
X208000959Y-100700439D01*
X207764299Y-100618720D01*
X207764298Y-100618720D01*
X207759781Y-100617160D01*
X207504072Y-100570459D01*
X207420899Y-100566100D01*
X204458861Y-100566100D01*
X204456482Y-100566281D01*
X204456481Y-100566281D01*
X204270537Y-100580425D01*
X204270532Y-100580426D01*
X204265770Y-100580788D01*
X204261116Y-100581867D01*
X204261114Y-100581867D01*
X204112555Y-100616301D01*
X204012545Y-100639482D01*
X203771112Y-100735805D01*
X203547026Y-100867538D01*
X203345445Y-101031651D01*
X203171007Y-101224367D01*
X203027727Y-101441251D01*
X203025726Y-101445591D01*
X203025724Y-101445595D01*
X202953473Y-101602319D01*
X202918901Y-101677312D01*
X202847034Y-101927118D01*
X202813780Y-102184921D01*
X15932960Y-102184921D01*
X15932960Y-73484921D01*
X17013780Y-73484921D01*
X17019904Y-73744787D01*
X17065266Y-74000737D01*
X17148820Y-74246881D01*
X17268645Y-74477554D01*
X17271460Y-74481408D01*
X17271463Y-74481412D01*
X17376240Y-74624833D01*
X17421983Y-74687447D01*
X17513644Y-74779590D01*
X17601931Y-74868341D01*
X17601936Y-74868345D01*
X17605305Y-74871732D01*
X17814394Y-75026167D01*
X18044436Y-75147198D01*
X18048955Y-75148759D01*
X18048961Y-75148761D01*
X18225494Y-75209718D01*
X18290139Y-75232040D01*
X18545848Y-75278741D01*
X18629021Y-75283100D01*
X19291059Y-75283100D01*
X19293438Y-75282919D01*
X19293439Y-75282919D01*
X19479383Y-75268775D01*
X19479388Y-75268774D01*
X19484150Y-75268412D01*
X19488804Y-75267333D01*
X19488806Y-75267333D01*
X19732720Y-75210797D01*
X19737375Y-75209718D01*
X19978808Y-75113395D01*
X20202894Y-74981662D01*
X20404475Y-74817549D01*
X20578913Y-74624833D01*
X20722193Y-74407949D01*
X20794492Y-74251122D01*
X20829013Y-74176240D01*
X20829014Y-74176237D01*
X20831019Y-74171888D01*
X20902886Y-73922082D01*
X20936140Y-73664279D01*
X20931913Y-73484921D01*
X294913780Y-73484921D01*
X294919904Y-73744787D01*
X294965266Y-74000737D01*
X295048820Y-74246881D01*
X295168645Y-74477554D01*
X295171460Y-74481408D01*
X295171463Y-74481412D01*
X295276240Y-74624833D01*
X295321983Y-74687447D01*
X295413644Y-74779590D01*
X295501931Y-74868341D01*
X295501936Y-74868345D01*
X295505305Y-74871732D01*
X295714394Y-75026167D01*
X295944436Y-75147198D01*
X295948955Y-75148759D01*
X295948961Y-75148761D01*
X296125494Y-75209718D01*
X296190139Y-75232040D01*
X296445848Y-75278741D01*
X296529021Y-75283100D01*
X297191059Y-75283100D01*
X297193438Y-75282919D01*
X297193439Y-75282919D01*
X297379383Y-75268775D01*
X297379388Y-75268774D01*
X297384150Y-75268412D01*
X297388804Y-75267333D01*
X297388806Y-75267333D01*
X297632720Y-75210797D01*
X297637375Y-75209718D01*
X297878808Y-75113395D01*
X298102894Y-74981662D01*
X298304475Y-74817549D01*
X298478913Y-74624833D01*
X298622193Y-74407949D01*
X298694492Y-74251122D01*
X298729013Y-74176240D01*
X298729014Y-74176237D01*
X298731019Y-74171888D01*
X298802886Y-73922082D01*
X298836140Y-73664279D01*
X298830016Y-73404413D01*
X298784654Y-73148463D01*
X298701100Y-72902319D01*
X298581275Y-72671646D01*
X298476602Y-72528366D01*
X298430760Y-72465617D01*
X298430759Y-72465616D01*
X298427937Y-72461753D01*
X298336276Y-72369611D01*
X298247989Y-72280859D01*
X298247984Y-72280855D01*
X298244615Y-72277468D01*
X298035526Y-72123033D01*
X297805484Y-72002002D01*
X297800965Y-72000441D01*
X297800959Y-72000439D01*
X297564299Y-71918720D01*
X297564298Y-71918720D01*
X297559781Y-71917160D01*
X297304072Y-71870459D01*
X297220899Y-71866100D01*
X296558861Y-71866100D01*
X296556482Y-71866281D01*
X296556481Y-71866281D01*
X296370537Y-71880425D01*
X296370532Y-71880426D01*
X296365770Y-71880788D01*
X296361116Y-71881867D01*
X296361114Y-71881867D01*
X296212555Y-71916301D01*
X296112545Y-71939482D01*
X295871112Y-72035805D01*
X295647026Y-72167538D01*
X295445445Y-72331651D01*
X295271007Y-72524367D01*
X295127727Y-72741251D01*
X295125726Y-72745591D01*
X295125724Y-72745595D01*
X295053473Y-72902319D01*
X295018901Y-72977312D01*
X294947034Y-73227118D01*
X294913780Y-73484921D01*
X20931913Y-73484921D01*
X20930016Y-73404413D01*
X20884654Y-73148463D01*
X20801100Y-72902319D01*
X20681275Y-72671646D01*
X20576602Y-72528366D01*
X20530760Y-72465617D01*
X20530759Y-72465616D01*
X20527937Y-72461753D01*
X20436276Y-72369611D01*
X20347989Y-72280859D01*
X20347984Y-72280855D01*
X20344615Y-72277468D01*
X20135526Y-72123033D01*
X19905484Y-72002002D01*
X19900965Y-72000441D01*
X19900959Y-72000439D01*
X19664299Y-71918720D01*
X19664298Y-71918720D01*
X19659781Y-71917160D01*
X19404072Y-71870459D01*
X19320899Y-71866100D01*
X18658861Y-71866100D01*
X18656482Y-71866281D01*
X18656481Y-71866281D01*
X18470537Y-71880425D01*
X18470532Y-71880426D01*
X18465770Y-71880788D01*
X18461116Y-71881867D01*
X18461114Y-71881867D01*
X18312555Y-71916301D01*
X18212545Y-71939482D01*
X17971112Y-72035805D01*
X17747026Y-72167538D01*
X17545445Y-72331651D01*
X17371007Y-72524367D01*
X17227727Y-72741251D01*
X17225726Y-72745591D01*
X17225724Y-72745595D01*
X17153473Y-72902319D01*
X17118901Y-72977312D01*
X17047034Y-73227118D01*
X17013780Y-73484921D01*
X15932960Y-73484921D01*
X15932960Y-69748330D01*
X34711774Y-69748330D01*
X34712939Y-69757237D01*
X34712934Y-69757629D01*
X34713232Y-69760363D01*
X34713686Y-69765550D01*
X34729625Y-69947737D01*
X34779804Y-70135006D01*
X34782126Y-70139987D01*
X34782127Y-70139988D01*
X34859413Y-70305729D01*
X34859416Y-70305734D01*
X34861739Y-70310716D01*
X34972941Y-70469529D01*
X35110031Y-70606619D01*
X35114539Y-70609776D01*
X35114542Y-70609778D01*
X35264335Y-70714664D01*
X35268844Y-70717821D01*
X35273826Y-70720144D01*
X35273831Y-70720147D01*
X35439572Y-70797433D01*
X35444554Y-70799756D01*
X35449862Y-70801178D01*
X35449864Y-70801179D01*
X35626508Y-70848511D01*
X35626510Y-70848511D01*
X35631823Y-70849935D01*
X35637309Y-70850415D01*
X35637315Y-70850416D01*
X35783470Y-70863204D01*
X35793380Y-70864468D01*
X35812421Y-70867671D01*
X35818802Y-70867749D01*
X35820101Y-70867765D01*
X35820105Y-70867765D01*
X35824960Y-70867824D01*
X35852548Y-70863873D01*
X35870411Y-70862600D01*
X44121753Y-70862600D01*
X44142657Y-70864346D01*
X44162421Y-70867671D01*
X44168563Y-70867746D01*
X44170094Y-70867765D01*
X44170099Y-70867765D01*
X44174960Y-70867824D01*
X44179777Y-70867134D01*
X44179781Y-70867134D01*
X44189328Y-70865767D01*
X44196204Y-70864974D01*
X44236016Y-70861491D01*
X44368097Y-70849935D01*
X44373410Y-70848511D01*
X44373412Y-70848511D01*
X44550056Y-70801179D01*
X44550058Y-70801178D01*
X44555366Y-70799756D01*
X44560348Y-70797433D01*
X44726089Y-70720147D01*
X44726094Y-70720144D01*
X44731076Y-70717821D01*
X44735585Y-70714664D01*
X44885378Y-70609778D01*
X44885381Y-70609776D01*
X44889889Y-70606619D01*
X45026979Y-70469529D01*
X45138181Y-70310716D01*
X45140504Y-70305734D01*
X45140507Y-70305729D01*
X45217793Y-70139988D01*
X45217794Y-70139987D01*
X45220116Y-70135006D01*
X45270295Y-69947737D01*
X45270775Y-69942251D01*
X45270776Y-69942245D01*
X45283564Y-69796090D01*
X45284829Y-69786172D01*
X45288031Y-69767139D01*
X45288184Y-69754600D01*
X45284233Y-69727012D01*
X45282960Y-69709149D01*
X45282960Y-63984921D01*
X140513780Y-63984921D01*
X140519904Y-64244787D01*
X140565266Y-64500737D01*
X140648820Y-64746881D01*
X140768645Y-64977554D01*
X140771460Y-64981408D01*
X140771463Y-64981412D01*
X140876240Y-65124833D01*
X140921983Y-65187447D01*
X141013644Y-65279590D01*
X141101931Y-65368341D01*
X141101936Y-65368345D01*
X141105305Y-65371732D01*
X141314394Y-65526167D01*
X141544436Y-65647198D01*
X141548955Y-65648759D01*
X141548961Y-65648761D01*
X141725494Y-65709718D01*
X141790139Y-65732040D01*
X142045848Y-65778741D01*
X142129021Y-65783100D01*
X145091059Y-65783100D01*
X145093438Y-65782919D01*
X145093439Y-65782919D01*
X145279383Y-65768775D01*
X145279388Y-65768774D01*
X145284150Y-65768412D01*
X145288804Y-65767333D01*
X145288806Y-65767333D01*
X145532720Y-65710797D01*
X145537375Y-65709718D01*
X145778808Y-65613395D01*
X146002894Y-65481662D01*
X146204475Y-65317549D01*
X146378913Y-65124833D01*
X146522193Y-64907949D01*
X146594492Y-64751122D01*
X146629013Y-64676240D01*
X146629014Y-64676237D01*
X146631019Y-64671888D01*
X146702886Y-64422082D01*
X146736140Y-64164279D01*
X146730016Y-63904413D01*
X146684654Y-63648463D01*
X146601100Y-63402319D01*
X146481275Y-63171646D01*
X146376602Y-63028366D01*
X146330760Y-62965617D01*
X146330759Y-62965616D01*
X146327937Y-62961753D01*
X146236276Y-62869611D01*
X146147989Y-62780859D01*
X146147984Y-62780855D01*
X146144615Y-62777468D01*
X145935526Y-62623033D01*
X145705484Y-62502002D01*
X145700965Y-62500441D01*
X145700959Y-62500439D01*
X145464299Y-62418720D01*
X145464298Y-62418720D01*
X145459781Y-62417160D01*
X145204072Y-62370459D01*
X145120899Y-62366100D01*
X142158861Y-62366100D01*
X142156482Y-62366281D01*
X142156481Y-62366281D01*
X141970537Y-62380425D01*
X141970532Y-62380426D01*
X141965770Y-62380788D01*
X141961116Y-62381867D01*
X141961114Y-62381867D01*
X141812555Y-62416301D01*
X141712545Y-62439482D01*
X141471112Y-62535805D01*
X141247026Y-62667538D01*
X141045445Y-62831651D01*
X140871007Y-63024367D01*
X140727727Y-63241251D01*
X140725726Y-63245591D01*
X140725724Y-63245595D01*
X140653473Y-63402319D01*
X140618901Y-63477312D01*
X140547034Y-63727118D01*
X140513780Y-63984921D01*
X45282960Y-63984921D01*
X45282960Y-61507807D01*
X45284706Y-61486903D01*
X45287224Y-61471935D01*
X45288031Y-61467139D01*
X45288184Y-61454600D01*
X45287287Y-61448330D01*
X45286127Y-61440232D01*
X45285334Y-61433356D01*
X45270774Y-61266943D01*
X45270774Y-61266942D01*
X45270295Y-61261463D01*
X45220116Y-61074194D01*
X45217793Y-61069212D01*
X45140507Y-60903471D01*
X45140504Y-60903466D01*
X45138181Y-60898484D01*
X45026979Y-60739671D01*
X44889889Y-60602581D01*
X44885381Y-60599424D01*
X44885378Y-60599422D01*
X44735585Y-60494536D01*
X44735583Y-60494535D01*
X44731076Y-60491379D01*
X44726094Y-60489056D01*
X44726089Y-60489053D01*
X44560348Y-60411767D01*
X44560347Y-60411766D01*
X44555366Y-60409444D01*
X44550058Y-60408022D01*
X44550056Y-60408021D01*
X44373412Y-60360689D01*
X44373410Y-60360689D01*
X44368097Y-60359265D01*
X44362611Y-60358785D01*
X44362605Y-60358784D01*
X44216450Y-60345996D01*
X44206540Y-60344732D01*
X44187499Y-60341529D01*
X44181118Y-60341451D01*
X44179819Y-60341435D01*
X44179815Y-60341435D01*
X44174960Y-60341376D01*
X44150675Y-60344854D01*
X44147372Y-60345327D01*
X44129509Y-60346600D01*
X35878167Y-60346600D01*
X35857263Y-60344854D01*
X35848816Y-60343433D01*
X35837499Y-60341529D01*
X35831357Y-60341454D01*
X35829826Y-60341435D01*
X35829821Y-60341435D01*
X35824960Y-60341376D01*
X35820143Y-60342066D01*
X35820139Y-60342066D01*
X35810592Y-60343433D01*
X35803716Y-60344226D01*
X35763904Y-60347709D01*
X35631823Y-60359265D01*
X35626510Y-60360689D01*
X35626508Y-60360689D01*
X35449864Y-60408021D01*
X35449862Y-60408022D01*
X35444554Y-60409444D01*
X35439573Y-60411766D01*
X35439572Y-60411767D01*
X35273831Y-60489053D01*
X35273826Y-60489056D01*
X35268844Y-60491379D01*
X35264337Y-60494535D01*
X35264335Y-60494536D01*
X35114542Y-60599422D01*
X35114539Y-60599424D01*
X35110031Y-60602581D01*
X34972941Y-60739671D01*
X34861739Y-60898484D01*
X34859416Y-60903466D01*
X34859413Y-60903471D01*
X34782127Y-61069212D01*
X34779804Y-61074194D01*
X34729625Y-61261463D01*
X34729146Y-61266942D01*
X34715573Y-61422083D01*
X34714552Y-61430488D01*
X34713155Y-61439457D01*
X34713155Y-61439462D01*
X34711774Y-61448330D01*
X34712938Y-61457232D01*
X34712938Y-61457235D01*
X34715896Y-61479851D01*
X34716960Y-61496189D01*
X34716960Y-69705272D01*
X34715460Y-69724656D01*
X34711774Y-69748330D01*
X15932960Y-69748330D01*
X15932960Y-45082237D01*
X38865119Y-45082237D01*
X38900359Y-45341175D01*
X38901667Y-45345661D01*
X38901667Y-45345663D01*
X38917720Y-45400737D01*
X38973485Y-45592061D01*
X39082892Y-45829382D01*
X39085452Y-45833287D01*
X39085455Y-45833292D01*
X39223609Y-46044013D01*
X39223613Y-46044018D01*
X39226175Y-46047926D01*
X39313181Y-46145408D01*
X39380267Y-46220571D01*
X39400187Y-46242890D01*
X39601105Y-46409991D01*
X39824516Y-46545560D01*
X39828830Y-46547369D01*
X39828832Y-46547370D01*
X40061196Y-46644809D01*
X40061201Y-46644811D01*
X40065511Y-46646618D01*
X40070043Y-46647769D01*
X40070046Y-46647770D01*
X40189141Y-46678016D01*
X40318796Y-46710944D01*
X40535846Y-46732800D01*
X40691303Y-46732800D01*
X40693626Y-46732627D01*
X40693636Y-46732627D01*
X40880902Y-46718711D01*
X40880906Y-46718710D01*
X40885567Y-46718364D01*
X40890131Y-46717331D01*
X40890133Y-46717331D01*
X41104718Y-46668775D01*
X41140449Y-46660690D01*
X41218134Y-46630480D01*
X41379653Y-46567668D01*
X41384007Y-46565975D01*
X41414126Y-46548761D01*
X41480244Y-46510971D01*
X41610890Y-46436301D01*
X41816113Y-46274516D01*
X41995169Y-46084174D01*
X42023030Y-46044013D01*
X42141466Y-45873288D01*
X42141468Y-45873285D01*
X42144124Y-45869456D01*
X42146184Y-45865279D01*
X42146188Y-45865272D01*
X42257642Y-45639266D01*
X42257643Y-45639262D01*
X42259706Y-45635080D01*
X42339375Y-45386195D01*
X42362322Y-45245297D01*
X42380630Y-45132879D01*
X42380630Y-45132878D01*
X42381381Y-45128267D01*
X42383091Y-44997615D01*
X42384566Y-44884921D01*
X272363780Y-44884921D01*
X272363893Y-44889698D01*
X272369515Y-45128267D01*
X272369904Y-45144787D01*
X272370738Y-45149491D01*
X272413477Y-45390640D01*
X272415266Y-45400737D01*
X272498820Y-45646881D01*
X272618645Y-45877554D01*
X272621460Y-45881408D01*
X272621463Y-45881412D01*
X272726240Y-46024833D01*
X272771983Y-46087447D01*
X272863644Y-46179589D01*
X272951931Y-46268341D01*
X272951936Y-46268345D01*
X272955305Y-46271732D01*
X273164394Y-46426167D01*
X273168632Y-46428397D01*
X273168634Y-46428398D01*
X273188063Y-46438620D01*
X273394436Y-46547198D01*
X273398955Y-46548759D01*
X273398961Y-46548761D01*
X273575494Y-46609718D01*
X273640139Y-46632040D01*
X273895848Y-46678741D01*
X273979021Y-46683100D01*
X276941059Y-46683100D01*
X276943438Y-46682919D01*
X276943439Y-46682919D01*
X277129383Y-46668775D01*
X277129388Y-46668774D01*
X277134150Y-46668412D01*
X277138804Y-46667333D01*
X277138806Y-46667333D01*
X277382720Y-46610797D01*
X277387375Y-46609718D01*
X277628808Y-46513395D01*
X277852894Y-46381662D01*
X278054475Y-46217549D01*
X278228913Y-46024833D01*
X278372193Y-45807949D01*
X278444492Y-45651122D01*
X278479013Y-45576240D01*
X278479014Y-45576237D01*
X278481019Y-45571888D01*
X278531611Y-45396033D01*
X278551565Y-45326675D01*
X278551566Y-45326670D01*
X278552886Y-45322082D01*
X278586140Y-45064279D01*
X278580516Y-44825610D01*
X278580129Y-44809192D01*
X278580129Y-44809187D01*
X278580016Y-44804413D01*
X278538048Y-44567611D01*
X278535488Y-44553167D01*
X278535487Y-44553163D01*
X278534654Y-44548463D01*
X278451100Y-44302319D01*
X278331275Y-44071646D01*
X278321357Y-44058069D01*
X278180760Y-43865617D01*
X278180759Y-43865616D01*
X278177937Y-43861753D01*
X278086276Y-43769611D01*
X277997989Y-43680859D01*
X277997984Y-43680855D01*
X277994615Y-43677468D01*
X277785526Y-43523033D01*
X277771762Y-43515791D01*
X277559726Y-43404234D01*
X277555484Y-43402002D01*
X277550965Y-43400441D01*
X277550959Y-43400439D01*
X277314299Y-43318720D01*
X277314298Y-43318720D01*
X277309781Y-43317160D01*
X277054072Y-43270459D01*
X276970899Y-43266100D01*
X274008861Y-43266100D01*
X274006482Y-43266281D01*
X274006481Y-43266281D01*
X273820537Y-43280425D01*
X273820532Y-43280426D01*
X273815770Y-43280788D01*
X273811116Y-43281867D01*
X273811114Y-43281867D01*
X273662555Y-43316301D01*
X273562545Y-43339482D01*
X273321112Y-43435805D01*
X273097026Y-43567538D01*
X272895445Y-43731651D01*
X272721007Y-43924367D01*
X272718366Y-43928365D01*
X272718365Y-43928366D01*
X272689360Y-43972271D01*
X272577727Y-44141251D01*
X272575726Y-44145591D01*
X272575724Y-44145595D01*
X272498033Y-44314120D01*
X272468901Y-44377312D01*
X272467577Y-44381913D01*
X272467577Y-44381914D01*
X272401195Y-44612656D01*
X272397034Y-44627118D01*
X272363780Y-44884921D01*
X42384566Y-44884921D01*
X42384740Y-44871640D01*
X42384740Y-44871637D01*
X42384801Y-44866963D01*
X42349561Y-44608025D01*
X42337782Y-44567611D01*
X42277746Y-44361638D01*
X42276435Y-44357139D01*
X42167028Y-44119818D01*
X42156996Y-44104516D01*
X42026311Y-43905187D01*
X42026307Y-43905182D01*
X42023745Y-43901274D01*
X41872351Y-43731651D01*
X41852850Y-43709802D01*
X41852848Y-43709800D01*
X41849733Y-43706310D01*
X41648815Y-43539209D01*
X41425404Y-43403640D01*
X41372683Y-43381532D01*
X41188724Y-43304391D01*
X41188719Y-43304389D01*
X41184409Y-43302582D01*
X41179877Y-43301431D01*
X41179874Y-43301430D01*
X41040760Y-43266100D01*
X40931124Y-43238256D01*
X40714074Y-43216400D01*
X40558617Y-43216400D01*
X40556294Y-43216573D01*
X40556284Y-43216573D01*
X40369018Y-43230489D01*
X40369014Y-43230490D01*
X40364353Y-43230836D01*
X40359789Y-43231869D01*
X40359787Y-43231869D01*
X40223211Y-43262773D01*
X40109471Y-43288510D01*
X40105119Y-43290202D01*
X40105117Y-43290203D01*
X39987692Y-43335868D01*
X39865913Y-43383225D01*
X39861859Y-43385542D01*
X39861857Y-43385543D01*
X39833361Y-43401830D01*
X39639030Y-43512899D01*
X39433807Y-43674684D01*
X39430607Y-43678086D01*
X39267975Y-43850969D01*
X39254751Y-43865026D01*
X39252092Y-43868859D01*
X39111414Y-44071646D01*
X39105796Y-44079744D01*
X39103736Y-44083921D01*
X39103732Y-44083928D01*
X38992278Y-44309934D01*
X38990214Y-44314120D01*
X38910545Y-44563005D01*
X38887598Y-44703903D01*
X38871996Y-44799709D01*
X38868539Y-44820933D01*
X38868478Y-44825610D01*
X38865417Y-45059502D01*
X38865119Y-45082237D01*
X15932960Y-45082237D01*
X15932960Y-19123928D01*
X15934460Y-19104543D01*
X15936765Y-19089741D01*
X15936765Y-19089739D01*
X15938146Y-19080870D01*
X15936982Y-19071966D01*
X15936155Y-19065641D01*
X15935412Y-19040313D01*
X15947503Y-18871257D01*
X15950061Y-18853463D01*
X15991480Y-18663062D01*
X15996546Y-18645812D01*
X16064642Y-18463242D01*
X16072109Y-18446890D01*
X16165491Y-18275871D01*
X16175208Y-18260752D01*
X16291983Y-18104758D01*
X16303756Y-18091172D01*
X16441532Y-17953396D01*
X16455118Y-17941623D01*
X16501444Y-17906944D01*
X16611112Y-17824848D01*
X16626226Y-17815134D01*
X16786155Y-17727807D01*
X16797250Y-17721749D01*
X16813602Y-17714282D01*
X16996172Y-17646186D01*
X17013420Y-17641121D01*
X17203823Y-17599701D01*
X17221618Y-17597143D01*
X17270517Y-17593646D01*
X17383591Y-17585559D01*
X17401493Y-17586303D01*
X17409818Y-17586405D01*
X17418690Y-17587786D01*
X17427592Y-17586622D01*
X17427595Y-17586622D01*
X17447751Y-17583986D01*
X17450212Y-17583664D01*
X17466549Y-17582600D01*
X25975632Y-17582600D01*
X25995022Y-17584101D01*
G37*
%TD.AperFunction*%
M02*
