%TF.GenerationSoftware,KiCad,Pcbnew,(5.1.10-1-10_14)*%
%TF.CreationDate,2021-12-19T10:46:22+09:00*%
%TF.ProjectId,Nora_plate_bottom,4e6f7261-5f70-46c6-9174-655f626f7474,v.1 (042)*%
%TF.SameCoordinates,Original*%
%TF.FileFunction,Legend,Bot*%
%TF.FilePolarity,Positive*%
%FSLAX46Y46*%
G04 Gerber Fmt 4.6, Leading zero omitted, Abs format (unit mm)*
G04 Created by KiCad (PCBNEW (5.1.10-1-10_14)) date 2021-12-19 10:46:22*
%MOMM*%
%LPD*%
G01*
G04 APERTURE LIST*
%ADD10C,0.120000*%
G04 APERTURE END LIST*
D10*
X116500000Y-21870000D02*
G75*
G03*
X116500000Y-21870000I-4000000J0D01*
G01*
X207500000Y-21860000D02*
G75*
G03*
X207500000Y-21860000I-4000000J0D01*
G01*
X299625000Y-35225000D02*
G75*
G03*
X299625000Y-35225000I-9500000J0D01*
G01*
X35200000Y-35200000D02*
G75*
G03*
X35200000Y-35200000I-9500000J0D01*
G01*
X288008088Y-18075914D02*
G75*
G02*
X292124999Y-18050001I2116912J-9274086D01*
G01*
X295355430Y-19403770D02*
G75*
G02*
X298024999Y-22050001I-5230430J-7946230D01*
G01*
X282086579Y-22262392D02*
G75*
G02*
X284825001Y-19450001I8038421J-5087608D01*
G01*
X292194560Y-36613741D02*
G75*
G02*
X288225001Y-36649999I-2069560J9263741D01*
G01*
X298146744Y-32463862D02*
G75*
G02*
X295424999Y-35249999I-8021744J5113862D01*
G01*
X280870921Y-29462345D02*
G75*
G02*
X280825001Y-25450001I9254079J2112345D01*
G01*
X299424999Y-25449999D02*
G75*
G02*
X299424999Y-29249999I-9299999J-1900001D01*
G01*
X284937069Y-35324042D02*
G75*
G02*
X282225001Y-32649999I5187931J7974042D01*
G01*
X23583088Y-18075914D02*
G75*
G02*
X27699999Y-18050001I2116912J-9274086D01*
G01*
X30930430Y-19403770D02*
G75*
G02*
X33599999Y-22050001I-5230430J-7946230D01*
G01*
X17661579Y-22262392D02*
G75*
G02*
X20400001Y-19450001I8038421J-5087608D01*
G01*
X27769560Y-36613741D02*
G75*
G02*
X23800001Y-36649999I-2069560J9263741D01*
G01*
X33721744Y-32463862D02*
G75*
G02*
X30999999Y-35249999I-8021744J5113862D01*
G01*
X16445921Y-29462345D02*
G75*
G02*
X16400001Y-25450001I9254079J2112345D01*
G01*
X34999999Y-25449999D02*
G75*
G02*
X34999999Y-29249999I-9299999J-1900001D01*
G01*
X20512069Y-35324042D02*
G75*
G02*
X17800001Y-32649999I5187931J7974042D01*
G01*
X59525000Y-27350000D02*
G75*
G03*
X59525000Y-27350000I-9500000J0D01*
G01*
X299650000Y-21875000D02*
G75*
G03*
X299650000Y-21875000I-4000000J0D01*
G01*
X24200000Y-21875000D02*
G75*
G03*
X24200000Y-21875000I-4000000J0D01*
G01*
X161925000Y-21875000D02*
G75*
G03*
X161925000Y-21875000I-4000000J0D01*
G01*
X299650000Y-106900000D02*
G75*
G03*
X299650000Y-106900000I-4000000J0D01*
G01*
X161925000Y-106900000D02*
G75*
G03*
X161925000Y-106900000I-4000000J0D01*
G01*
X24200000Y-106900000D02*
G75*
G03*
X24200000Y-106900000I-4000000J0D01*
G01*
X275300000Y-27350000D02*
G75*
G03*
X275300000Y-27350000I-9500000J0D01*
G01*
M02*
