M48
; DRILL file {KiCad (6.0.1-0)} date 
; FORMAT={-:-/ absolute / inch / decimal}
; #@! TF.CreationDate,2022-02-13T08:08:57+09:00
; #@! TF.GenerationSoftware,Kicad,Pcbnew,(6.0.1-0)
; #@! TF.FileFunction,MixedPlating,1,2
FMAT,2
INCH
; #@! TA.AperFunction,NonPlated,NPTH,ComponentDrill
T1C0.0310
; #@! TA.AperFunction,NonPlated,NPTH,ComponentDrill
T2C0.0866
; #@! TA.AperFunction,NonPlated,NPTH,ComponentDrill
T3C0.0945
; #@! TA.AperFunction,NonPlated,NPTH,ComponentDrill
T4C0.0984
%
G90
G05
T1
X4.9578Y-1.7075
X5.0078Y-1.7075
X5.0578Y-1.7075
X5.1078Y-1.7075
X5.1578Y-1.7075
X7.277Y-1.7055
X7.327Y-1.7055
X7.377Y-1.7055
X7.427Y-1.7055
X7.477Y-1.7055
T2
X3.9085Y-4.2096
X4.3435Y-0.8396
X7.9065Y-4.2096
X8.0935Y-0.8396
X9.4163Y-4.2096
T4
X1.5994Y-1.7707
T3
G00X0.7372Y-2.8966
M15
G01X0.7569Y-2.8966
M16
G05
G00X5.5994Y-2.5226
M15
G01X5.7096Y-2.5226
M16
G05
G00X8.0522Y-4.0266
M15
G01X8.1624Y-4.0266
M16
G05
G00X10.7904Y-1.7707
M15
G01X10.9006Y-1.7707
M16
G05
G00X11.6978Y-2.8966
M15
G01X11.6781Y-2.8966
M16
G05
T0
M30
