%TF.GenerationSoftware,KiCad,Pcbnew,(5.1.10-1-10_14)*%
%TF.CreationDate,2021-12-19T10:46:22+09:00*%
%TF.ProjectId,Nora_plate_bottom,4e6f7261-5f70-46c6-9174-655f626f7474,v.1 (042)*%
%TF.SameCoordinates,Original*%
%TF.FileFunction,Profile,NP*%
%FSLAX46Y46*%
G04 Gerber Fmt 4.6, Leading zero omitted, Abs format (unit mm)*
G04 Created by KiCad (PCBNEW (5.1.10-1-10_14)) date 2021-12-19 10:46:22*
%MOMM*%
%LPD*%
G01*
G04 APERTURE LIST*
%TA.AperFunction,Profile*%
%ADD10C,0.300000*%
%TD*%
G04 APERTURE END LIST*
D10*
%TO.C,REF\u002A\u002A*%
X44174960Y-60854600D02*
X38374960Y-60854600D01*
X191324960Y-43574600D02*
X196049960Y-43574600D01*
X191324960Y-40374600D02*
X192924960Y-40374600D01*
X122924960Y-40374600D02*
X124524960Y-40374600D01*
X183924960Y-42974600D02*
X183924960Y-40974600D01*
X190724960Y-42974600D02*
X190724960Y-40974600D01*
X131924960Y-42974600D02*
X131924960Y-40974600D01*
X132524960Y-40374600D02*
X183324960Y-40374600D01*
X183324960Y-43574600D02*
X132524960Y-43574600D01*
X194924960Y-38374600D02*
X194924960Y-37674600D01*
X27224960Y-25274600D02*
X40024960Y-25274600D01*
X298424960Y-111674600D02*
X17424960Y-111674600D01*
X300424960Y-75374600D02*
X300424960Y-19074600D01*
X300424960Y-75374600D02*
X300424960Y-109674600D01*
X15424960Y-75374600D02*
X15424960Y-19074600D01*
X15424960Y-109674600D02*
X15424960Y-75374600D01*
X115799960Y-17074600D02*
X41224960Y-17074600D01*
X26624960Y-24674600D02*
X26624960Y-17674600D01*
X40624960Y-24674600D02*
X40624960Y-17674600D01*
X26024960Y-17074600D02*
X17424960Y-17074600D01*
X192924960Y-17074600D02*
X122924960Y-17074600D01*
X198044960Y-19474600D02*
X198049960Y-19074600D01*
X298424960Y-17074600D02*
X200049960Y-17074600D01*
X197444960Y-20074600D02*
X195524960Y-20074600D01*
X197444960Y-22074600D02*
X195524960Y-22074600D01*
X197444960Y-37074600D02*
X195524960Y-37074600D01*
X197444960Y-34874600D02*
X195524960Y-34874600D01*
X194924960Y-34274600D02*
X194924960Y-22674600D01*
X194924960Y-19474600D02*
X194924960Y-19074600D01*
X198044960Y-34274600D02*
X198044960Y-22674600D01*
X198049960Y-41574600D02*
X198044960Y-37674600D01*
X120324960Y-22074600D02*
X118394960Y-22074600D01*
X117799960Y-41574600D02*
X117794960Y-37674600D01*
X120924960Y-34274600D02*
X120924960Y-22674600D01*
X120924960Y-19474600D02*
X120924960Y-19074600D01*
X120324960Y-34874600D02*
X118394960Y-34874600D01*
X120324960Y-20074600D02*
X118394960Y-20074600D01*
X117794960Y-19474600D02*
X117799960Y-19074600D01*
X117794960Y-34274600D02*
X117794960Y-22674600D01*
X120919960Y-38374600D02*
X120924960Y-37674600D01*
X120324960Y-37074600D02*
X118394960Y-37074600D01*
X125124960Y-42974600D02*
X125124960Y-40974600D01*
X124524960Y-43574600D02*
X119799960Y-43574600D01*
X38374960Y-70354600D02*
X44174960Y-70354600D01*
X37774960Y-69754600D02*
X37774960Y-61454600D01*
X44774960Y-69754600D02*
X44774960Y-61454600D01*
X194924960Y-19474600D02*
G75*
G03*
X195524960Y-20074600I600000J0D01*
G01*
X197444960Y-20074600D02*
G75*
G03*
X198044960Y-19474600I0J600000D01*
G01*
X117794960Y-19474600D02*
G75*
G03*
X118394960Y-20074600I600000J0D01*
G01*
X120324960Y-20074600D02*
G75*
G03*
X120924960Y-19474600I0J600000D01*
G01*
X183924960Y-40974600D02*
G75*
G03*
X183324960Y-40374600I-600000J0D01*
G01*
X125124960Y-40974600D02*
G75*
G03*
X124524960Y-40374600I-600000J0D01*
G01*
X120924960Y-37674600D02*
G75*
G03*
X120324960Y-37074600I-600000J0D01*
G01*
X118394960Y-37074600D02*
G75*
G03*
X117794960Y-37674600I0J-600000D01*
G01*
X132524960Y-40374600D02*
G75*
G03*
X131924960Y-40974600I0J-600000D01*
G01*
X191324960Y-40374600D02*
G75*
G03*
X190724960Y-40974600I0J-600000D01*
G01*
X195524960Y-37074600D02*
G75*
G03*
X194924960Y-37674600I0J-600000D01*
G01*
X198044960Y-37674600D02*
G75*
G03*
X197444960Y-37074600I-600000J0D01*
G01*
X194924960Y-34274600D02*
G75*
G03*
X195524960Y-34874600I600000J0D01*
G01*
X198044960Y-22674600D02*
G75*
G03*
X197444960Y-22074600I-600000J0D01*
G01*
X120924960Y-22674600D02*
G75*
G03*
X120324960Y-22074600I-600000J0D01*
G01*
X117794960Y-34274600D02*
G75*
G03*
X118394960Y-34874600I600000J0D01*
G01*
X118394960Y-22074600D02*
G75*
G03*
X117794960Y-22674600I0J-600000D01*
G01*
X195524960Y-22074600D02*
G75*
G03*
X194924960Y-22674600I0J-600000D01*
G01*
X197444960Y-34874600D02*
G75*
G03*
X198044960Y-34274600I0J600000D01*
G01*
X120324960Y-34874600D02*
G75*
G03*
X120924960Y-34274600I0J600000D01*
G01*
X190724960Y-42974600D02*
G75*
G03*
X191324960Y-43574600I600000J0D01*
G01*
X131924960Y-42974600D02*
G75*
G03*
X132524960Y-43574600I600000J0D01*
G01*
X183324960Y-43574600D02*
G75*
G03*
X183924960Y-42974600I0J600000D01*
G01*
X124524960Y-43574600D02*
G75*
G03*
X125124960Y-42974600I0J600000D01*
G01*
X40024960Y-25274600D02*
G75*
G03*
X40624960Y-24674600I0J600000D01*
G01*
X26624960Y-17674600D02*
G75*
G03*
X26024960Y-17074600I-600000J0D01*
G01*
X26624960Y-24674600D02*
G75*
G03*
X27224960Y-25274600I600000J0D01*
G01*
X41224960Y-17074600D02*
G75*
G03*
X40624960Y-17674600I0J-600000D01*
G01*
X300424960Y-19074600D02*
G75*
G03*
X298424960Y-17074600I-2000000J0D01*
G01*
X298424960Y-111674600D02*
G75*
G03*
X300424960Y-109674600I0J2000000D01*
G01*
X15424960Y-109674600D02*
G75*
G03*
X17424960Y-111674600I2000000J0D01*
G01*
X17424960Y-17074600D02*
G75*
G03*
X15424960Y-19074600I0J-2000000D01*
G01*
X117799960Y-19074600D02*
G75*
G03*
X115799960Y-17074600I-2000000J0D01*
G01*
X117799960Y-41574600D02*
G75*
G03*
X119799960Y-43574600I2000000J0D01*
G01*
X200049960Y-17074600D02*
G75*
G03*
X198049960Y-19074600I0J-2000000D01*
G01*
X196049960Y-43574600D02*
G75*
G03*
X198049960Y-41574600I0J2000000D01*
G01*
X194924960Y-19074600D02*
G75*
G03*
X192924960Y-17074600I-2000000J0D01*
G01*
X122924960Y-17074600D02*
G75*
G03*
X120924960Y-19074600I0J-2000000D01*
G01*
X120924960Y-38374600D02*
G75*
G03*
X122924960Y-40374600I2000000J0D01*
G01*
X192924960Y-40374600D02*
G75*
G03*
X194924960Y-38374600I0J2000000D01*
G01*
X38374960Y-60854600D02*
G75*
G03*
X37774960Y-61454600I0J-600000D01*
G01*
X37774960Y-69754600D02*
G75*
G03*
X38374960Y-70354600I600000J0D01*
G01*
X44774960Y-61454600D02*
G75*
G03*
X44174960Y-60854600I-600000J0D01*
G01*
X44174960Y-70354600D02*
G75*
G03*
X44774960Y-69754600I0J600000D01*
G01*
%TD*%
M02*
