%TF.GenerationSoftware,KiCad,Pcbnew,(6.0.1-0)*%
%TF.CreationDate,2022-02-13T08:08:59+09:00*%
%TF.ProjectId,Nora_plate_bottom,4e6f7261-5f70-46c6-9174-655f626f7474,v.1 (042)*%
%TF.SameCoordinates,Original*%
%TF.FileFunction,Copper,L1,Top*%
%TF.FilePolarity,Positive*%
%FSLAX46Y46*%
G04 Gerber Fmt 4.6, Leading zero omitted, Abs format (unit mm)*
G04 Created by KiCad (PCBNEW (6.0.1-0)) date 2022-02-13 08:08:59*
%MOMM*%
%LPD*%
G01*
G04 APERTURE LIST*
G04 APERTURE END LIST*
%TA.AperFunction,NonConductor*%
G36*
X25995022Y-17584101D02*
G01*
X26009655Y-17586380D01*
X26073886Y-17616627D01*
X26111568Y-17676798D01*
X26115199Y-17694527D01*
X26115894Y-17699837D01*
X26116960Y-17716189D01*
X26116960Y-24625272D01*
X26115460Y-24644656D01*
X26111774Y-24668330D01*
X26112939Y-24677237D01*
X26112934Y-24677629D01*
X26113232Y-24680363D01*
X26113686Y-24685550D01*
X26129625Y-24867737D01*
X26179804Y-25055006D01*
X26182126Y-25059987D01*
X26182127Y-25059988D01*
X26259413Y-25225729D01*
X26259416Y-25225734D01*
X26261739Y-25230716D01*
X26372941Y-25389529D01*
X26510031Y-25526619D01*
X26514539Y-25529776D01*
X26514542Y-25529778D01*
X26664335Y-25634664D01*
X26668844Y-25637821D01*
X26673826Y-25640144D01*
X26673831Y-25640147D01*
X26839572Y-25717433D01*
X26844554Y-25719756D01*
X26849862Y-25721178D01*
X26849864Y-25721179D01*
X27026508Y-25768511D01*
X27026510Y-25768511D01*
X27031823Y-25769935D01*
X27037309Y-25770415D01*
X27037315Y-25770416D01*
X27183470Y-25783204D01*
X27193380Y-25784468D01*
X27212421Y-25787671D01*
X27218802Y-25787749D01*
X27220101Y-25787765D01*
X27220105Y-25787765D01*
X27224960Y-25787824D01*
X27252548Y-25783873D01*
X27270411Y-25782600D01*
X39971753Y-25782600D01*
X39992657Y-25784346D01*
X40012421Y-25787671D01*
X40018563Y-25787746D01*
X40020094Y-25787765D01*
X40020099Y-25787765D01*
X40024960Y-25787824D01*
X40029777Y-25787134D01*
X40029781Y-25787134D01*
X40039328Y-25785767D01*
X40046204Y-25784974D01*
X40086016Y-25781491D01*
X40218097Y-25769935D01*
X40223410Y-25768511D01*
X40223412Y-25768511D01*
X40400056Y-25721179D01*
X40400058Y-25721178D01*
X40405366Y-25719756D01*
X40410348Y-25717433D01*
X40576089Y-25640147D01*
X40576094Y-25640144D01*
X40581076Y-25637821D01*
X40585585Y-25634664D01*
X40735378Y-25529778D01*
X40735381Y-25529776D01*
X40739889Y-25526619D01*
X40876979Y-25389529D01*
X40988181Y-25230716D01*
X40990504Y-25225734D01*
X40990507Y-25225729D01*
X41067793Y-25059988D01*
X41067794Y-25059987D01*
X41070116Y-25055006D01*
X41120295Y-24867737D01*
X41120775Y-24862251D01*
X41120776Y-24862245D01*
X41133564Y-24716090D01*
X41134829Y-24706172D01*
X41138031Y-24687139D01*
X41138184Y-24674600D01*
X41134233Y-24647012D01*
X41132960Y-24629149D01*
X41132960Y-20411718D01*
X107800000Y-20411718D01*
X107800001Y-20468115D01*
X107800022Y-22450000D01*
X107807229Y-22456427D01*
X108071331Y-22691935D01*
X109360004Y-23841086D01*
X111260004Y-23841086D01*
X112860866Y-22450000D01*
X112850000Y-20450000D01*
X111704419Y-19099851D01*
X111461722Y-18813815D01*
X111450000Y-18800000D01*
X109250000Y-18800000D01*
X107800000Y-20400000D01*
X107800000Y-20411718D01*
X41132960Y-20411718D01*
X41132960Y-17727807D01*
X41134706Y-17706905D01*
X41137839Y-17688281D01*
X41168865Y-17624422D01*
X41229490Y-17587474D01*
X41245747Y-17584248D01*
X41248617Y-17583873D01*
X41250205Y-17583665D01*
X41266549Y-17582600D01*
X115750632Y-17582600D01*
X115770016Y-17584100D01*
X115770967Y-17584248D01*
X115784819Y-17586405D01*
X115784821Y-17586405D01*
X115793690Y-17587786D01*
X115802592Y-17586622D01*
X115802594Y-17586622D01*
X115808919Y-17585795D01*
X115834242Y-17585052D01*
X115998086Y-17596770D01*
X116003303Y-17597143D01*
X116021097Y-17599701D01*
X116211500Y-17641121D01*
X116228748Y-17646186D01*
X116411318Y-17714282D01*
X116427670Y-17721749D01*
X116438765Y-17727807D01*
X116598694Y-17815134D01*
X116613808Y-17824848D01*
X116723476Y-17906944D01*
X116769802Y-17941623D01*
X116783388Y-17953396D01*
X116921164Y-18091172D01*
X116932937Y-18104758D01*
X117049712Y-18260752D01*
X117059429Y-18275871D01*
X117152811Y-18446890D01*
X117160278Y-18463242D01*
X117228374Y-18645812D01*
X117233440Y-18663062D01*
X117274859Y-18853463D01*
X117277417Y-18871258D01*
X117289001Y-19033229D01*
X117288257Y-19051133D01*
X117288156Y-19059456D01*
X117286774Y-19068330D01*
X117290378Y-19095884D01*
X117291431Y-19113791D01*
X117287567Y-19422884D01*
X117286077Y-19440694D01*
X117281774Y-19468330D01*
X117282939Y-19477237D01*
X117282934Y-19477629D01*
X117283232Y-19480363D01*
X117283825Y-19487139D01*
X117299625Y-19667737D01*
X117349804Y-19855006D01*
X117352126Y-19859987D01*
X117352127Y-19859988D01*
X117429413Y-20025729D01*
X117429416Y-20025734D01*
X117431739Y-20030716D01*
X117542941Y-20189529D01*
X117680031Y-20326619D01*
X117684539Y-20329776D01*
X117684542Y-20329778D01*
X117746271Y-20373001D01*
X117790599Y-20428458D01*
X117800000Y-20476214D01*
X117800000Y-21672986D01*
X117779998Y-21741107D01*
X117746271Y-21776199D01*
X117684542Y-21819422D01*
X117684541Y-21819423D01*
X117680031Y-21822581D01*
X117542941Y-21959671D01*
X117431739Y-22118484D01*
X117429416Y-22123466D01*
X117429413Y-22123471D01*
X117352127Y-22289212D01*
X117349804Y-22294194D01*
X117299625Y-22481463D01*
X117299146Y-22486942D01*
X117285573Y-22642083D01*
X117284552Y-22650488D01*
X117283155Y-22659457D01*
X117283155Y-22659462D01*
X117281774Y-22668330D01*
X117282938Y-22677232D01*
X117282938Y-22677235D01*
X117285896Y-22699851D01*
X117286960Y-22716189D01*
X117286960Y-34225272D01*
X117285460Y-34244656D01*
X117281774Y-34268330D01*
X117282939Y-34277237D01*
X117282934Y-34277629D01*
X117283232Y-34280363D01*
X117283825Y-34287139D01*
X117299625Y-34467737D01*
X117349804Y-34655006D01*
X117352126Y-34659987D01*
X117352127Y-34659988D01*
X117429413Y-34825729D01*
X117429416Y-34825734D01*
X117431739Y-34830716D01*
X117542941Y-34989529D01*
X117680031Y-35126619D01*
X117684539Y-35129776D01*
X117684542Y-35129778D01*
X117746271Y-35173001D01*
X117790599Y-35228458D01*
X117800000Y-35276214D01*
X117800000Y-36672986D01*
X117779998Y-36741107D01*
X117746271Y-36776199D01*
X117684542Y-36819422D01*
X117684541Y-36819423D01*
X117680031Y-36822581D01*
X117542941Y-36959671D01*
X117431739Y-37118484D01*
X117429416Y-37123466D01*
X117429413Y-37123471D01*
X117352127Y-37289212D01*
X117349804Y-37294194D01*
X117299625Y-37481463D01*
X117299146Y-37486942D01*
X117285573Y-37642083D01*
X117284552Y-37650488D01*
X117283155Y-37659457D01*
X117283155Y-37659462D01*
X117281774Y-37668330D01*
X117285950Y-37700262D01*
X117287013Y-37716436D01*
X117291891Y-41521639D01*
X117290145Y-41542703D01*
X117287696Y-41557260D01*
X117287695Y-41557269D01*
X117286889Y-41562061D01*
X117286736Y-41574600D01*
X117287426Y-41579415D01*
X117287587Y-41581890D01*
X117288155Y-41587485D01*
X117289238Y-41605390D01*
X117305695Y-41877458D01*
X117360387Y-42175901D01*
X117450653Y-42465575D01*
X117575177Y-42742256D01*
X117732144Y-43001911D01*
X117919264Y-43240752D01*
X118133808Y-43455296D01*
X118372649Y-43642416D01*
X118375903Y-43644383D01*
X118629043Y-43797412D01*
X118629047Y-43797414D01*
X118632304Y-43799383D01*
X118751194Y-43852891D01*
X118905509Y-43922343D01*
X118905515Y-43922345D01*
X118908985Y-43923907D01*
X118912621Y-43925040D01*
X119179071Y-44008069D01*
X119198659Y-44014173D01*
X119497102Y-44068865D01*
X119500893Y-44069094D01*
X119500899Y-44069095D01*
X119678955Y-44079864D01*
X119769173Y-44085321D01*
X119782477Y-44086839D01*
X119787421Y-44087671D01*
X119793898Y-44087750D01*
X119795101Y-44087765D01*
X119795105Y-44087765D01*
X119799960Y-44087824D01*
X119827548Y-44083873D01*
X119845411Y-44082600D01*
X124471753Y-44082600D01*
X124492657Y-44084346D01*
X124512421Y-44087671D01*
X124518563Y-44087746D01*
X124520094Y-44087765D01*
X124520099Y-44087765D01*
X124524960Y-44087824D01*
X124529777Y-44087134D01*
X124529781Y-44087134D01*
X124539328Y-44085767D01*
X124546204Y-44084974D01*
X124586016Y-44081491D01*
X124718097Y-44069935D01*
X124723410Y-44068511D01*
X124723412Y-44068511D01*
X124900056Y-44021179D01*
X124900058Y-44021178D01*
X124905366Y-44019756D01*
X124911633Y-44016834D01*
X124983662Y-43983246D01*
X125081076Y-43937821D01*
X125084835Y-43935189D01*
X125153558Y-43918518D01*
X125220650Y-43941739D01*
X125249500Y-43970319D01*
X125254801Y-43977615D01*
X125259711Y-43982036D01*
X125259712Y-43982037D01*
X125377201Y-44087824D01*
X125395739Y-44104516D01*
X125559981Y-44199341D01*
X125566267Y-44201383D01*
X125566266Y-44201383D01*
X125734070Y-44255906D01*
X125734071Y-44255906D01*
X125740349Y-44257946D01*
X125746912Y-44258636D01*
X125746913Y-44258636D01*
X125770347Y-44261099D01*
X125881674Y-44272800D01*
X125976246Y-44272800D01*
X126087573Y-44261099D01*
X126111007Y-44258636D01*
X126111008Y-44258636D01*
X126117571Y-44257946D01*
X126123849Y-44255906D01*
X126123850Y-44255906D01*
X126291654Y-44201383D01*
X126291653Y-44201383D01*
X126297939Y-44199341D01*
X126462181Y-44104516D01*
X126479652Y-44088785D01*
X126543658Y-44058069D01*
X126614111Y-44066834D01*
X126648267Y-44088784D01*
X126665739Y-44104516D01*
X126829981Y-44199341D01*
X126836267Y-44201383D01*
X126836266Y-44201383D01*
X127004070Y-44255906D01*
X127004071Y-44255906D01*
X127010349Y-44257946D01*
X127016912Y-44258636D01*
X127016913Y-44258636D01*
X127040347Y-44261099D01*
X127151674Y-44272800D01*
X127246246Y-44272800D01*
X127357573Y-44261099D01*
X127381007Y-44258636D01*
X127381008Y-44258636D01*
X127387571Y-44257946D01*
X127393849Y-44255906D01*
X127393850Y-44255906D01*
X127561654Y-44201383D01*
X127561653Y-44201383D01*
X127567939Y-44199341D01*
X127732181Y-44104516D01*
X127749652Y-44088785D01*
X127813658Y-44058069D01*
X127884111Y-44066834D01*
X127918267Y-44088784D01*
X127935739Y-44104516D01*
X128099981Y-44199341D01*
X128106267Y-44201383D01*
X128106266Y-44201383D01*
X128274070Y-44255906D01*
X128274071Y-44255906D01*
X128280349Y-44257946D01*
X128286912Y-44258636D01*
X128286913Y-44258636D01*
X128310347Y-44261099D01*
X128421674Y-44272800D01*
X128516246Y-44272800D01*
X128627573Y-44261099D01*
X128651007Y-44258636D01*
X128651008Y-44258636D01*
X128657571Y-44257946D01*
X128663849Y-44255906D01*
X128663850Y-44255906D01*
X128831654Y-44201383D01*
X128831653Y-44201383D01*
X128837939Y-44199341D01*
X129002181Y-44104516D01*
X129019652Y-44088785D01*
X129083658Y-44058069D01*
X129154111Y-44066834D01*
X129188267Y-44088784D01*
X129205739Y-44104516D01*
X129369981Y-44199341D01*
X129376267Y-44201383D01*
X129376266Y-44201383D01*
X129544070Y-44255906D01*
X129544071Y-44255906D01*
X129550349Y-44257946D01*
X129556912Y-44258636D01*
X129556913Y-44258636D01*
X129580347Y-44261099D01*
X129691674Y-44272800D01*
X129786246Y-44272800D01*
X129897573Y-44261099D01*
X129921007Y-44258636D01*
X129921008Y-44258636D01*
X129927571Y-44257946D01*
X129933849Y-44255906D01*
X129933850Y-44255906D01*
X130101654Y-44201383D01*
X130101653Y-44201383D01*
X130107939Y-44199341D01*
X130272181Y-44104516D01*
X130289652Y-44088785D01*
X130353658Y-44058069D01*
X130424111Y-44066834D01*
X130458267Y-44088784D01*
X130475739Y-44104516D01*
X130639981Y-44199341D01*
X130646267Y-44201383D01*
X130646266Y-44201383D01*
X130814070Y-44255906D01*
X130814071Y-44255906D01*
X130820349Y-44257946D01*
X130826912Y-44258636D01*
X130826913Y-44258636D01*
X130850347Y-44261099D01*
X130961674Y-44272800D01*
X131056246Y-44272800D01*
X131167573Y-44261099D01*
X131191007Y-44258636D01*
X131191008Y-44258636D01*
X131197571Y-44257946D01*
X131203849Y-44255906D01*
X131203850Y-44255906D01*
X131371654Y-44201383D01*
X131371653Y-44201383D01*
X131377939Y-44199341D01*
X131542181Y-44104516D01*
X131560720Y-44087824D01*
X131678208Y-43982037D01*
X131678209Y-43982036D01*
X131683119Y-43977615D01*
X131709185Y-43941739D01*
X131725847Y-43918805D01*
X131782069Y-43875451D01*
X131852805Y-43869376D01*
X131900051Y-43889652D01*
X131968844Y-43937821D01*
X131973826Y-43940144D01*
X131973831Y-43940147D01*
X132139572Y-44017433D01*
X132144554Y-44019756D01*
X132149862Y-44021178D01*
X132149864Y-44021179D01*
X132326508Y-44068511D01*
X132326510Y-44068511D01*
X132331823Y-44069935D01*
X132337309Y-44070415D01*
X132337315Y-44070416D01*
X132483470Y-44083204D01*
X132493380Y-44084468D01*
X132512421Y-44087671D01*
X132518802Y-44087749D01*
X132520101Y-44087765D01*
X132520105Y-44087765D01*
X132524960Y-44087824D01*
X132552548Y-44083873D01*
X132570411Y-44082600D01*
X183271753Y-44082600D01*
X183292657Y-44084346D01*
X183312421Y-44087671D01*
X183318563Y-44087746D01*
X183320094Y-44087765D01*
X183320099Y-44087765D01*
X183324960Y-44087824D01*
X183329777Y-44087134D01*
X183329781Y-44087134D01*
X183339328Y-44085767D01*
X183346204Y-44084974D01*
X183386016Y-44081491D01*
X183518097Y-44069935D01*
X183523410Y-44068511D01*
X183523412Y-44068511D01*
X183700056Y-44021179D01*
X183700058Y-44021178D01*
X183705366Y-44019756D01*
X183710348Y-44017433D01*
X183876089Y-43940147D01*
X183876094Y-43940144D01*
X183881076Y-43937821D01*
X183889337Y-43932037D01*
X183969967Y-43875579D01*
X184037241Y-43852891D01*
X184106102Y-43870176D01*
X184144173Y-43904730D01*
X184156915Y-43922267D01*
X184160801Y-43927615D01*
X184165711Y-43932036D01*
X184165712Y-43932037D01*
X184281815Y-44036576D01*
X184301739Y-44054516D01*
X184465981Y-44149341D01*
X184472267Y-44151383D01*
X184472266Y-44151383D01*
X184640070Y-44205906D01*
X184640071Y-44205906D01*
X184646349Y-44207946D01*
X184652912Y-44208636D01*
X184652913Y-44208636D01*
X184676347Y-44211099D01*
X184787674Y-44222800D01*
X184882246Y-44222800D01*
X184993573Y-44211099D01*
X185017007Y-44208636D01*
X185017008Y-44208636D01*
X185023571Y-44207946D01*
X185029849Y-44205906D01*
X185029850Y-44205906D01*
X185197654Y-44151383D01*
X185197653Y-44151383D01*
X185203939Y-44149341D01*
X185368181Y-44054516D01*
X185385652Y-44038785D01*
X185449658Y-44008069D01*
X185520111Y-44016834D01*
X185554267Y-44038784D01*
X185571739Y-44054516D01*
X185735981Y-44149341D01*
X185742267Y-44151383D01*
X185742266Y-44151383D01*
X185910070Y-44205906D01*
X185910071Y-44205906D01*
X185916349Y-44207946D01*
X185922912Y-44208636D01*
X185922913Y-44208636D01*
X185946347Y-44211099D01*
X186057674Y-44222800D01*
X186152246Y-44222800D01*
X186263573Y-44211099D01*
X186287007Y-44208636D01*
X186287008Y-44208636D01*
X186293571Y-44207946D01*
X186299849Y-44205906D01*
X186299850Y-44205906D01*
X186467654Y-44151383D01*
X186467653Y-44151383D01*
X186473939Y-44149341D01*
X186638181Y-44054516D01*
X186655652Y-44038785D01*
X186719658Y-44008069D01*
X186790111Y-44016834D01*
X186824267Y-44038784D01*
X186841739Y-44054516D01*
X187005981Y-44149341D01*
X187012267Y-44151383D01*
X187012266Y-44151383D01*
X187180070Y-44205906D01*
X187180071Y-44205906D01*
X187186349Y-44207946D01*
X187192912Y-44208636D01*
X187192913Y-44208636D01*
X187216347Y-44211099D01*
X187327674Y-44222800D01*
X187422246Y-44222800D01*
X187533573Y-44211099D01*
X187557007Y-44208636D01*
X187557008Y-44208636D01*
X187563571Y-44207946D01*
X187569849Y-44205906D01*
X187569850Y-44205906D01*
X187737654Y-44151383D01*
X187737653Y-44151383D01*
X187743939Y-44149341D01*
X187908181Y-44054516D01*
X187925652Y-44038785D01*
X187989658Y-44008069D01*
X188060111Y-44016834D01*
X188094267Y-44038784D01*
X188111739Y-44054516D01*
X188275981Y-44149341D01*
X188282267Y-44151383D01*
X188282266Y-44151383D01*
X188450070Y-44205906D01*
X188450071Y-44205906D01*
X188456349Y-44207946D01*
X188462912Y-44208636D01*
X188462913Y-44208636D01*
X188486347Y-44211099D01*
X188597674Y-44222800D01*
X188692246Y-44222800D01*
X188803573Y-44211099D01*
X188827007Y-44208636D01*
X188827008Y-44208636D01*
X188833571Y-44207946D01*
X188839849Y-44205906D01*
X188839850Y-44205906D01*
X189007654Y-44151383D01*
X189007653Y-44151383D01*
X189013939Y-44149341D01*
X189178181Y-44054516D01*
X189195652Y-44038785D01*
X189259658Y-44008069D01*
X189330111Y-44016834D01*
X189364267Y-44038784D01*
X189381739Y-44054516D01*
X189545981Y-44149341D01*
X189552267Y-44151383D01*
X189552266Y-44151383D01*
X189720070Y-44205906D01*
X189720071Y-44205906D01*
X189726349Y-44207946D01*
X189732912Y-44208636D01*
X189732913Y-44208636D01*
X189756347Y-44211099D01*
X189867674Y-44222800D01*
X189962246Y-44222800D01*
X190073573Y-44211099D01*
X190097007Y-44208636D01*
X190097008Y-44208636D01*
X190103571Y-44207946D01*
X190109849Y-44205906D01*
X190109850Y-44205906D01*
X190277654Y-44151383D01*
X190277653Y-44151383D01*
X190283939Y-44149341D01*
X190448181Y-44054516D01*
X190586886Y-43929626D01*
X190650891Y-43898910D01*
X190721345Y-43907674D01*
X190743458Y-43920046D01*
X190768844Y-43937821D01*
X190773822Y-43940142D01*
X190773825Y-43940144D01*
X190939572Y-44017433D01*
X190944554Y-44019756D01*
X190949862Y-44021178D01*
X190949864Y-44021179D01*
X191126508Y-44068511D01*
X191126510Y-44068511D01*
X191131823Y-44069935D01*
X191137309Y-44070415D01*
X191137315Y-44070416D01*
X191283470Y-44083204D01*
X191293380Y-44084468D01*
X191312421Y-44087671D01*
X191318802Y-44087749D01*
X191320101Y-44087765D01*
X191320105Y-44087765D01*
X191324960Y-44087824D01*
X191352548Y-44083873D01*
X191370411Y-44082600D01*
X195996753Y-44082600D01*
X196017657Y-44084346D01*
X196037421Y-44087671D01*
X196043749Y-44087748D01*
X196045101Y-44087765D01*
X196045105Y-44087765D01*
X196049960Y-44087824D01*
X196054775Y-44087134D01*
X196057250Y-44086973D01*
X196062845Y-44086405D01*
X196349022Y-44069095D01*
X196349028Y-44069094D01*
X196352818Y-44068865D01*
X196651261Y-44014173D01*
X196670850Y-44008069D01*
X196675237Y-44006702D01*
X271811731Y-44006702D01*
X271811732Y-44054516D01*
X271811753Y-46046054D01*
X273521735Y-47437137D01*
X277461731Y-47437137D01*
X279141093Y-46036815D01*
X279160734Y-44036815D01*
X279144543Y-44021179D01*
X277474764Y-42408637D01*
X277474763Y-42408637D01*
X277461731Y-42396051D01*
X273411731Y-42396051D01*
X271811731Y-43996054D01*
X271811731Y-44006702D01*
X196675237Y-44006702D01*
X196937299Y-43925040D01*
X196940935Y-43923907D01*
X196944405Y-43922345D01*
X196944411Y-43922343D01*
X197098726Y-43852891D01*
X197217616Y-43799383D01*
X197220873Y-43797414D01*
X197220877Y-43797412D01*
X197474017Y-43644383D01*
X197477271Y-43642416D01*
X197716112Y-43455296D01*
X197930656Y-43240752D01*
X198117776Y-43001911D01*
X198274743Y-42742256D01*
X198399267Y-42465575D01*
X198489533Y-42175901D01*
X198544225Y-41877458D01*
X198560681Y-41605387D01*
X198562199Y-41592083D01*
X198562223Y-41591940D01*
X198563031Y-41587139D01*
X198563184Y-41574600D01*
X198559174Y-41546597D01*
X198557902Y-41528903D01*
X198553029Y-37727561D01*
X198554775Y-37706497D01*
X198557224Y-37691940D01*
X198557225Y-37691931D01*
X198558031Y-37687139D01*
X198558184Y-37674600D01*
X198557287Y-37668330D01*
X198556127Y-37660232D01*
X198555334Y-37653356D01*
X198540774Y-37486943D01*
X198540774Y-37486942D01*
X198540295Y-37481463D01*
X198490116Y-37294194D01*
X198487793Y-37289212D01*
X198410507Y-37123471D01*
X198410504Y-37123466D01*
X198408181Y-37118484D01*
X198296979Y-36959671D01*
X198159889Y-36822581D01*
X198153732Y-36818270D01*
X198153176Y-36817575D01*
X198151165Y-36815887D01*
X198151504Y-36815483D01*
X198109402Y-36762815D01*
X198100000Y-36715055D01*
X198100000Y-35234145D01*
X198120002Y-35166024D01*
X198151294Y-35133467D01*
X198151165Y-35133313D01*
X198152595Y-35132113D01*
X198153732Y-35130930D01*
X198155379Y-35129777D01*
X198159889Y-35126619D01*
X198296979Y-34989529D01*
X198408181Y-34830716D01*
X198410504Y-34825734D01*
X198410507Y-34825729D01*
X198487793Y-34659988D01*
X198487794Y-34659987D01*
X198490116Y-34655006D01*
X198540295Y-34467737D01*
X198540775Y-34462251D01*
X198540776Y-34462245D01*
X198553564Y-34316090D01*
X198554829Y-34306172D01*
X198558031Y-34287139D01*
X198558184Y-34274600D01*
X198554233Y-34247012D01*
X198552960Y-34229149D01*
X198552960Y-22727807D01*
X198554706Y-22706903D01*
X198557224Y-22691935D01*
X198558031Y-22687139D01*
X198558184Y-22674600D01*
X198557287Y-22668330D01*
X198556127Y-22660232D01*
X198555334Y-22653356D01*
X198540774Y-22486943D01*
X198540774Y-22486942D01*
X198540295Y-22481463D01*
X198533587Y-22456427D01*
X198491539Y-22299504D01*
X198491538Y-22299502D01*
X198490116Y-22294194D01*
X198487793Y-22289212D01*
X198410507Y-22123471D01*
X198410504Y-22123466D01*
X198408181Y-22118484D01*
X198296979Y-21959671D01*
X198159889Y-21822581D01*
X198153732Y-21818270D01*
X198153176Y-21817575D01*
X198151165Y-21815887D01*
X198151504Y-21815483D01*
X198109402Y-21762815D01*
X198100000Y-21715055D01*
X198100000Y-20434145D01*
X198106585Y-20411718D01*
X203050000Y-20411718D01*
X203050001Y-20468115D01*
X203050022Y-22450000D01*
X203057229Y-22456427D01*
X203321331Y-22691935D01*
X204610004Y-23841086D01*
X206510004Y-23841086D01*
X208110866Y-22450000D01*
X208100000Y-20450000D01*
X206954419Y-19099851D01*
X206711722Y-18813815D01*
X206700000Y-18800000D01*
X204500000Y-18800000D01*
X203050000Y-20400000D01*
X203050000Y-20411718D01*
X198106585Y-20411718D01*
X198120002Y-20366024D01*
X198151294Y-20333467D01*
X198151165Y-20333313D01*
X198152595Y-20332113D01*
X198153732Y-20330930D01*
X198155379Y-20329777D01*
X198159889Y-20326619D01*
X198296979Y-20189529D01*
X198408181Y-20030716D01*
X198410504Y-20025734D01*
X198410507Y-20025729D01*
X198487793Y-19859988D01*
X198487794Y-19859987D01*
X198490116Y-19855006D01*
X198540295Y-19667737D01*
X198540775Y-19662251D01*
X198540776Y-19662245D01*
X198553564Y-19516090D01*
X198554829Y-19506172D01*
X198558031Y-19487139D01*
X198558184Y-19474600D01*
X198554801Y-19450978D01*
X198553538Y-19431540D01*
X198557353Y-19126316D01*
X198558843Y-19108506D01*
X198561765Y-19089741D01*
X198561765Y-19089739D01*
X198563146Y-19080870D01*
X198561982Y-19071966D01*
X198561155Y-19065641D01*
X198560412Y-19040313D01*
X198572503Y-18871257D01*
X198575061Y-18853463D01*
X198616480Y-18663062D01*
X198621546Y-18645812D01*
X198689642Y-18463242D01*
X198697109Y-18446890D01*
X198790491Y-18275871D01*
X198800208Y-18260752D01*
X198916983Y-18104758D01*
X198928756Y-18091172D01*
X199066532Y-17953396D01*
X199080118Y-17941623D01*
X199126444Y-17906944D01*
X199236112Y-17824848D01*
X199251226Y-17815134D01*
X199411155Y-17727807D01*
X199422250Y-17721749D01*
X199438602Y-17714282D01*
X199621172Y-17646186D01*
X199638420Y-17641121D01*
X199828823Y-17599701D01*
X199846618Y-17597143D01*
X199895517Y-17593646D01*
X200008591Y-17585559D01*
X200026493Y-17586303D01*
X200034818Y-17586405D01*
X200043690Y-17587786D01*
X200052592Y-17586622D01*
X200052595Y-17586622D01*
X200072751Y-17583986D01*
X200075212Y-17583664D01*
X200091549Y-17582600D01*
X298375632Y-17582600D01*
X298395016Y-17584100D01*
X298395967Y-17584248D01*
X298409819Y-17586405D01*
X298409821Y-17586405D01*
X298418690Y-17587786D01*
X298427592Y-17586622D01*
X298427594Y-17586622D01*
X298433919Y-17585795D01*
X298459242Y-17585052D01*
X298623086Y-17596770D01*
X298628303Y-17597143D01*
X298646097Y-17599701D01*
X298836500Y-17641121D01*
X298853748Y-17646186D01*
X299036318Y-17714282D01*
X299052670Y-17721749D01*
X299063765Y-17727807D01*
X299223694Y-17815134D01*
X299238808Y-17824848D01*
X299348476Y-17906944D01*
X299394802Y-17941623D01*
X299408388Y-17953396D01*
X299546164Y-18091172D01*
X299557937Y-18104758D01*
X299674712Y-18260752D01*
X299684429Y-18275871D01*
X299777811Y-18446890D01*
X299785278Y-18463242D01*
X299853374Y-18645812D01*
X299858440Y-18663062D01*
X299899859Y-18853463D01*
X299902417Y-18871258D01*
X299914001Y-19033229D01*
X299913257Y-19051133D01*
X299913155Y-19059458D01*
X299911774Y-19068330D01*
X299912938Y-19077232D01*
X299912938Y-19077235D01*
X299915896Y-19099851D01*
X299916960Y-19116189D01*
X299916960Y-70938765D01*
X299896958Y-71006886D01*
X299843302Y-71053379D01*
X299792112Y-71064760D01*
X299709956Y-71065511D01*
X299709139Y-71065518D01*
X299707988Y-71065523D01*
X295658592Y-71065523D01*
X294058592Y-72665526D01*
X294058614Y-74715526D01*
X295768596Y-76106609D01*
X299708592Y-76106609D01*
X299790469Y-76106289D01*
X299858666Y-76126025D01*
X299905368Y-76179498D01*
X299916960Y-76232288D01*
X299916960Y-109625272D01*
X299915460Y-109644656D01*
X299911774Y-109668330D01*
X299912938Y-109677232D01*
X299912938Y-109677234D01*
X299913765Y-109683559D01*
X299914508Y-109708887D01*
X299902417Y-109877943D01*
X299899859Y-109895737D01*
X299858440Y-110086138D01*
X299853374Y-110103388D01*
X299785278Y-110285958D01*
X299777811Y-110302310D01*
X299684429Y-110473329D01*
X299674712Y-110488448D01*
X299616976Y-110565575D01*
X299557937Y-110644442D01*
X299546164Y-110658028D01*
X299408388Y-110795804D01*
X299394801Y-110807577D01*
X299238808Y-110924352D01*
X299223694Y-110934066D01*
X299117980Y-110991790D01*
X299052670Y-111027451D01*
X299036318Y-111034918D01*
X298853748Y-111103014D01*
X298836500Y-111108079D01*
X298672982Y-111143651D01*
X298646097Y-111149499D01*
X298628302Y-111152057D01*
X298579403Y-111155554D01*
X298466329Y-111163641D01*
X298448427Y-111162897D01*
X298440102Y-111162795D01*
X298431230Y-111161414D01*
X298422328Y-111162578D01*
X298422325Y-111162578D01*
X298399709Y-111165536D01*
X298383371Y-111166600D01*
X17474288Y-111166600D01*
X17454903Y-111165100D01*
X17454621Y-111165056D01*
X17452077Y-111164660D01*
X17440101Y-111162795D01*
X17440099Y-111162795D01*
X17431230Y-111161414D01*
X17422328Y-111162578D01*
X17422326Y-111162578D01*
X17416001Y-111163405D01*
X17390678Y-111164148D01*
X17221617Y-111152057D01*
X17203823Y-111149499D01*
X17176938Y-111143651D01*
X17013420Y-111108079D01*
X16996172Y-111103014D01*
X16813602Y-111034918D01*
X16797250Y-111027451D01*
X16731940Y-110991790D01*
X16626226Y-110934066D01*
X16611112Y-110924352D01*
X16455119Y-110807577D01*
X16441532Y-110795804D01*
X16303756Y-110658028D01*
X16291983Y-110644442D01*
X16232944Y-110565575D01*
X16175208Y-110488448D01*
X16165491Y-110473329D01*
X16072109Y-110302310D01*
X16064642Y-110285958D01*
X15996546Y-110103388D01*
X15991480Y-110086138D01*
X15950061Y-109895737D01*
X15947503Y-109877942D01*
X15935919Y-109715971D01*
X15936663Y-109698067D01*
X15936765Y-109689742D01*
X15938146Y-109680870D01*
X15936507Y-109668330D01*
X15934024Y-109649349D01*
X15932960Y-109633011D01*
X15932960Y-106011718D01*
X96750000Y-106011718D01*
X96750001Y-106068115D01*
X96750022Y-108050000D01*
X96757229Y-108056427D01*
X98296484Y-109429030D01*
X98310004Y-109441086D01*
X100210004Y-109441086D01*
X101810866Y-108050000D01*
X101800000Y-106050000D01*
X101767518Y-106011718D01*
X198300000Y-106011718D01*
X198300001Y-106068115D01*
X198300022Y-108050000D01*
X198307229Y-108056427D01*
X199846484Y-109429030D01*
X199860004Y-109441086D01*
X201760004Y-109441086D01*
X203360866Y-108050000D01*
X203350000Y-106050000D01*
X203317518Y-106011718D01*
X236650000Y-106011718D01*
X236650001Y-106068115D01*
X236650022Y-108050000D01*
X236657229Y-108056427D01*
X238196484Y-109429030D01*
X238210004Y-109441086D01*
X240110004Y-109441086D01*
X241710866Y-108050000D01*
X241700000Y-106050000D01*
X240300000Y-104400000D01*
X238100000Y-104400000D01*
X236650000Y-106000000D01*
X236650000Y-106011718D01*
X203317518Y-106011718D01*
X201950000Y-104400000D01*
X199750000Y-104400000D01*
X198300000Y-106000000D01*
X198300000Y-106011718D01*
X101767518Y-106011718D01*
X100400000Y-104400000D01*
X98200000Y-104400000D01*
X96750000Y-106000000D01*
X96750000Y-106011718D01*
X15932960Y-106011718D01*
X15932960Y-101365526D01*
X202258592Y-101365526D01*
X202258614Y-103415526D01*
X203968596Y-104806609D01*
X207908592Y-104806609D01*
X209587954Y-103406287D01*
X209607595Y-101406287D01*
X207908592Y-99765523D01*
X203858592Y-99765523D01*
X202258592Y-101365526D01*
X15932960Y-101365526D01*
X15932960Y-76182572D01*
X15952962Y-76114451D01*
X16006618Y-76067958D01*
X16059456Y-76056573D01*
X16067259Y-76056604D01*
X16068596Y-76056609D01*
X20008592Y-76056609D01*
X21687954Y-74656287D01*
X21707595Y-72656287D01*
X20008592Y-71015523D01*
X16058960Y-71015523D01*
X15990839Y-70995521D01*
X15944346Y-70941865D01*
X15932960Y-70889523D01*
X15932960Y-69748330D01*
X34711774Y-69748330D01*
X34712939Y-69757237D01*
X34712934Y-69757629D01*
X34713232Y-69760363D01*
X34713686Y-69765550D01*
X34729625Y-69947737D01*
X34779804Y-70135006D01*
X34782126Y-70139987D01*
X34782127Y-70139988D01*
X34859413Y-70305729D01*
X34859416Y-70305734D01*
X34861739Y-70310716D01*
X34972941Y-70469529D01*
X35110031Y-70606619D01*
X35114539Y-70609776D01*
X35114542Y-70609778D01*
X35264335Y-70714664D01*
X35268844Y-70717821D01*
X35273826Y-70720144D01*
X35273831Y-70720147D01*
X35439572Y-70797433D01*
X35444554Y-70799756D01*
X35449862Y-70801178D01*
X35449864Y-70801179D01*
X35626508Y-70848511D01*
X35626510Y-70848511D01*
X35631823Y-70849935D01*
X35637309Y-70850415D01*
X35637315Y-70850416D01*
X35783470Y-70863204D01*
X35793380Y-70864468D01*
X35812421Y-70867671D01*
X35818802Y-70867749D01*
X35820101Y-70867765D01*
X35820105Y-70867765D01*
X35824960Y-70867824D01*
X35852548Y-70863873D01*
X35870411Y-70862600D01*
X44121753Y-70862600D01*
X44142657Y-70864346D01*
X44162421Y-70867671D01*
X44168563Y-70867746D01*
X44170094Y-70867765D01*
X44170099Y-70867765D01*
X44174960Y-70867824D01*
X44179777Y-70867134D01*
X44179781Y-70867134D01*
X44189328Y-70865767D01*
X44196204Y-70864974D01*
X44236016Y-70861491D01*
X44368097Y-70849935D01*
X44373410Y-70848511D01*
X44373412Y-70848511D01*
X44550056Y-70801179D01*
X44550058Y-70801178D01*
X44555366Y-70799756D01*
X44560348Y-70797433D01*
X44726089Y-70720147D01*
X44726094Y-70720144D01*
X44731076Y-70717821D01*
X44735585Y-70714664D01*
X44885378Y-70609778D01*
X44885381Y-70609776D01*
X44889889Y-70606619D01*
X45026979Y-70469529D01*
X45138181Y-70310716D01*
X45140504Y-70305734D01*
X45140507Y-70305729D01*
X45217793Y-70139988D01*
X45217794Y-70139987D01*
X45220116Y-70135006D01*
X45270295Y-69947737D01*
X45270775Y-69942251D01*
X45270776Y-69942245D01*
X45283564Y-69796090D01*
X45284829Y-69786172D01*
X45288031Y-69767139D01*
X45288184Y-69754600D01*
X45284233Y-69727012D01*
X45282960Y-69709149D01*
X45282960Y-63150003D01*
X139950000Y-63150003D01*
X139950022Y-65200003D01*
X141660004Y-66591086D01*
X145600000Y-66591086D01*
X147279362Y-65190764D01*
X147299003Y-63190764D01*
X145600000Y-61550000D01*
X141550000Y-61550000D01*
X139950000Y-63150003D01*
X45282960Y-63150003D01*
X45282960Y-61507807D01*
X45284706Y-61486903D01*
X45287224Y-61471935D01*
X45288031Y-61467139D01*
X45288184Y-61454600D01*
X45287287Y-61448330D01*
X45286127Y-61440232D01*
X45285334Y-61433356D01*
X45270774Y-61266943D01*
X45270774Y-61266942D01*
X45270295Y-61261463D01*
X45220116Y-61074194D01*
X45217793Y-61069212D01*
X45140507Y-60903471D01*
X45140504Y-60903466D01*
X45138181Y-60898484D01*
X45026979Y-60739671D01*
X44889889Y-60602581D01*
X44885381Y-60599424D01*
X44885378Y-60599422D01*
X44735585Y-60494536D01*
X44735583Y-60494535D01*
X44731076Y-60491379D01*
X44726094Y-60489056D01*
X44726089Y-60489053D01*
X44560348Y-60411767D01*
X44560347Y-60411766D01*
X44555366Y-60409444D01*
X44550058Y-60408022D01*
X44550056Y-60408021D01*
X44373412Y-60360689D01*
X44373410Y-60360689D01*
X44368097Y-60359265D01*
X44362611Y-60358785D01*
X44362605Y-60358784D01*
X44216450Y-60345996D01*
X44206540Y-60344732D01*
X44187499Y-60341529D01*
X44181118Y-60341451D01*
X44179819Y-60341435D01*
X44179815Y-60341435D01*
X44174960Y-60341376D01*
X44150675Y-60344854D01*
X44147372Y-60345327D01*
X44129509Y-60346600D01*
X35878167Y-60346600D01*
X35857263Y-60344854D01*
X35848816Y-60343433D01*
X35837499Y-60341529D01*
X35831357Y-60341454D01*
X35829826Y-60341435D01*
X35829821Y-60341435D01*
X35824960Y-60341376D01*
X35820143Y-60342066D01*
X35820139Y-60342066D01*
X35810592Y-60343433D01*
X35803716Y-60344226D01*
X35763904Y-60347709D01*
X35631823Y-60359265D01*
X35626510Y-60360689D01*
X35626508Y-60360689D01*
X35449864Y-60408021D01*
X35449862Y-60408022D01*
X35444554Y-60409444D01*
X35439573Y-60411766D01*
X35439572Y-60411767D01*
X35273831Y-60489053D01*
X35273826Y-60489056D01*
X35268844Y-60491379D01*
X35264337Y-60494535D01*
X35264335Y-60494536D01*
X35114542Y-60599422D01*
X35114539Y-60599424D01*
X35110031Y-60602581D01*
X34972941Y-60739671D01*
X34861739Y-60898484D01*
X34859416Y-60903466D01*
X34859413Y-60903471D01*
X34782127Y-61069212D01*
X34779804Y-61074194D01*
X34729625Y-61261463D01*
X34729146Y-61266942D01*
X34715573Y-61422083D01*
X34714552Y-61430488D01*
X34713155Y-61439457D01*
X34713155Y-61439462D01*
X34711774Y-61448330D01*
X34712938Y-61457232D01*
X34712938Y-61457235D01*
X34715896Y-61479851D01*
X34716960Y-61496189D01*
X34716960Y-69705272D01*
X34715460Y-69724656D01*
X34711774Y-69748330D01*
X15932960Y-69748330D01*
X15932960Y-44061718D01*
X38109437Y-44061718D01*
X38109439Y-44201383D01*
X38109459Y-46100000D01*
X38116666Y-46106427D01*
X39599735Y-47428927D01*
X39669441Y-47491086D01*
X41569441Y-47491086D01*
X43170303Y-46100000D01*
X43159437Y-44100000D01*
X42007412Y-42742256D01*
X41771159Y-42463815D01*
X41759437Y-42450000D01*
X39559437Y-42450000D01*
X38109437Y-44050000D01*
X38109437Y-44061718D01*
X15932960Y-44061718D01*
X15932960Y-19123928D01*
X15934460Y-19104543D01*
X15936765Y-19089741D01*
X15936765Y-19089739D01*
X15938146Y-19080870D01*
X15936982Y-19071966D01*
X15936155Y-19065641D01*
X15935412Y-19040313D01*
X15947503Y-18871257D01*
X15950061Y-18853463D01*
X15991480Y-18663062D01*
X15996546Y-18645812D01*
X16064642Y-18463242D01*
X16072109Y-18446890D01*
X16165491Y-18275871D01*
X16175208Y-18260752D01*
X16291983Y-18104758D01*
X16303756Y-18091172D01*
X16441532Y-17953396D01*
X16455118Y-17941623D01*
X16501444Y-17906944D01*
X16611112Y-17824848D01*
X16626226Y-17815134D01*
X16786155Y-17727807D01*
X16797250Y-17721749D01*
X16813602Y-17714282D01*
X16996172Y-17646186D01*
X17013420Y-17641121D01*
X17203823Y-17599701D01*
X17221618Y-17597143D01*
X17270517Y-17593646D01*
X17383591Y-17585559D01*
X17401493Y-17586303D01*
X17409818Y-17586405D01*
X17418690Y-17587786D01*
X17427592Y-17586622D01*
X17427595Y-17586622D01*
X17447751Y-17583986D01*
X17450212Y-17583664D01*
X17466549Y-17582600D01*
X25975632Y-17582600D01*
X25995022Y-17584101D01*
G37*
%TD.AperFunction*%
M02*
