%TF.GenerationSoftware,KiCad,Pcbnew,(6.0.1-0)*%
%TF.CreationDate,2022-02-13T08:08:59+09:00*%
%TF.ProjectId,Nora_plate_bottom,4e6f7261-5f70-46c6-9174-655f626f7474,v.1 (042)*%
%TF.SameCoordinates,Original*%
%TF.FileFunction,Legend,Top*%
%TF.FilePolarity,Positive*%
%FSLAX46Y46*%
G04 Gerber Fmt 4.6, Leading zero omitted, Abs format (unit mm)*
G04 Created by KiCad (PCBNEW (6.0.1-0)) date 2022-02-13 08:08:59*
%MOMM*%
%LPD*%
G01*
G04 APERTURE LIST*
%ADD10C,0.240000*%
%ADD11C,0.200000*%
%ADD12C,0.300000*%
%ADD13C,0.010000*%
G04 APERTURE END LIST*
D10*
X92184571Y-62973428D02*
X92441714Y-63059142D01*
X92527428Y-63144857D01*
X92613142Y-63316285D01*
X92613142Y-63573428D01*
X92527428Y-63744857D01*
X92441714Y-63830571D01*
X92270285Y-63916285D01*
X91584571Y-63916285D01*
X91584571Y-62116285D01*
X92184571Y-62116285D01*
X92356000Y-62202000D01*
X92441714Y-62287714D01*
X92527428Y-62459142D01*
X92527428Y-62630571D01*
X92441714Y-62802000D01*
X92356000Y-62887714D01*
X92184571Y-62973428D01*
X91584571Y-62973428D01*
X93641714Y-63916285D02*
X93470285Y-63830571D01*
X93384571Y-63744857D01*
X93298857Y-63573428D01*
X93298857Y-63059142D01*
X93384571Y-62887714D01*
X93470285Y-62802000D01*
X93641714Y-62716285D01*
X93898857Y-62716285D01*
X94070285Y-62802000D01*
X94156000Y-62887714D01*
X94241714Y-63059142D01*
X94241714Y-63573428D01*
X94156000Y-63744857D01*
X94070285Y-63830571D01*
X93898857Y-63916285D01*
X93641714Y-63916285D01*
X94756000Y-62716285D02*
X95441714Y-62716285D01*
X95013142Y-62116285D02*
X95013142Y-63659142D01*
X95098857Y-63830571D01*
X95270285Y-63916285D01*
X95441714Y-63916285D01*
X95784571Y-62716285D02*
X96470285Y-62716285D01*
X96041714Y-62116285D02*
X96041714Y-63659142D01*
X96127428Y-63830571D01*
X96298857Y-63916285D01*
X96470285Y-63916285D01*
X97327428Y-63916285D02*
X97156000Y-63830571D01*
X97070285Y-63744857D01*
X96984571Y-63573428D01*
X96984571Y-63059142D01*
X97070285Y-62887714D01*
X97156000Y-62802000D01*
X97327428Y-62716285D01*
X97584571Y-62716285D01*
X97756000Y-62802000D01*
X97841714Y-62887714D01*
X97927428Y-63059142D01*
X97927428Y-63573428D01*
X97841714Y-63744857D01*
X97756000Y-63830571D01*
X97584571Y-63916285D01*
X97327428Y-63916285D01*
X98698857Y-63916285D02*
X98698857Y-62716285D01*
X98698857Y-62887714D02*
X98784571Y-62802000D01*
X98956000Y-62716285D01*
X99213142Y-62716285D01*
X99384571Y-62802000D01*
X99470285Y-62973428D01*
X99470285Y-63916285D01*
X99470285Y-62973428D02*
X99556000Y-62802000D01*
X99727428Y-62716285D01*
X99984571Y-62716285D01*
X100156000Y-62802000D01*
X100241714Y-62973428D01*
X100241714Y-63916285D01*
X102470285Y-63916285D02*
X102470285Y-62116285D01*
X103156000Y-62116285D01*
X103327428Y-62202000D01*
X103413142Y-62287714D01*
X103498857Y-62459142D01*
X103498857Y-62716285D01*
X103413142Y-62887714D01*
X103327428Y-62973428D01*
X103156000Y-63059142D01*
X102470285Y-63059142D01*
X104527428Y-63916285D02*
X104356000Y-63830571D01*
X104270285Y-63659142D01*
X104270285Y-62116285D01*
X105984571Y-63916285D02*
X105984571Y-62973428D01*
X105898857Y-62802000D01*
X105727428Y-62716285D01*
X105384571Y-62716285D01*
X105213142Y-62802000D01*
X105984571Y-63830571D02*
X105813142Y-63916285D01*
X105384571Y-63916285D01*
X105213142Y-63830571D01*
X105127428Y-63659142D01*
X105127428Y-63487714D01*
X105213142Y-63316285D01*
X105384571Y-63230571D01*
X105813142Y-63230571D01*
X105984571Y-63144857D01*
X106584571Y-62716285D02*
X107270285Y-62716285D01*
X106841714Y-62116285D02*
X106841714Y-63659142D01*
X106927428Y-63830571D01*
X107098857Y-63916285D01*
X107270285Y-63916285D01*
X108556000Y-63830571D02*
X108384571Y-63916285D01*
X108041714Y-63916285D01*
X107870285Y-63830571D01*
X107784571Y-63659142D01*
X107784571Y-62973428D01*
X107870285Y-62802000D01*
X108041714Y-62716285D01*
X108384571Y-62716285D01*
X108556000Y-62802000D01*
X108641714Y-62973428D01*
X108641714Y-63144857D01*
X107784571Y-63316285D01*
X110613142Y-62716285D02*
X111041714Y-63916285D01*
X111470285Y-62716285D01*
X112156000Y-63744857D02*
X112241714Y-63830571D01*
X112156000Y-63916285D01*
X112070285Y-63830571D01*
X112156000Y-63744857D01*
X112156000Y-63916285D01*
X113956000Y-63916285D02*
X112927428Y-63916285D01*
X113441714Y-63916285D02*
X113441714Y-62116285D01*
X113270285Y-62373428D01*
X113098857Y-62544857D01*
X112927428Y-62630571D01*
X114727428Y-63744857D02*
X114813142Y-63830571D01*
X114727428Y-63916285D01*
X114641714Y-63830571D01*
X114727428Y-63744857D01*
X114727428Y-63916285D01*
X115498857Y-62287714D02*
X115584571Y-62202000D01*
X115756000Y-62116285D01*
X116184571Y-62116285D01*
X116356000Y-62202000D01*
X116441714Y-62287714D01*
X116527428Y-62459142D01*
X116527428Y-62630571D01*
X116441714Y-62887714D01*
X115413142Y-63916285D01*
X116527428Y-63916285D01*
X117298857Y-63744857D02*
X117384571Y-63830571D01*
X117298857Y-63916285D01*
X117213142Y-63830571D01*
X117298857Y-63744857D01*
X117298857Y-63916285D01*
X118070285Y-62287714D02*
X118156000Y-62202000D01*
X118327428Y-62116285D01*
X118756000Y-62116285D01*
X118927428Y-62202000D01*
X119013142Y-62287714D01*
X119098857Y-62459142D01*
X119098857Y-62630571D01*
X119013142Y-62887714D01*
X117984571Y-63916285D01*
X119098857Y-63916285D01*
X91327428Y-65614285D02*
X92013142Y-65614285D01*
X91584571Y-66814285D02*
X91584571Y-65271428D01*
X91670285Y-65100000D01*
X91841714Y-65014285D01*
X92013142Y-65014285D01*
X92870285Y-66814285D02*
X92698857Y-66728571D01*
X92613142Y-66642857D01*
X92527428Y-66471428D01*
X92527428Y-65957142D01*
X92613142Y-65785714D01*
X92698857Y-65700000D01*
X92870285Y-65614285D01*
X93127428Y-65614285D01*
X93298857Y-65700000D01*
X93384571Y-65785714D01*
X93470285Y-65957142D01*
X93470285Y-66471428D01*
X93384571Y-66642857D01*
X93298857Y-66728571D01*
X93127428Y-66814285D01*
X92870285Y-66814285D01*
X94241714Y-66814285D02*
X94241714Y-65614285D01*
X94241714Y-65957142D02*
X94327428Y-65785714D01*
X94413142Y-65700000D01*
X94584571Y-65614285D01*
X94756000Y-65614285D01*
X96641714Y-65614285D02*
X97927428Y-65614285D01*
X97156000Y-64842857D02*
X96641714Y-67157142D01*
X97756000Y-66385714D02*
X96470285Y-66385714D01*
X97241714Y-67157142D02*
X97756000Y-64842857D01*
X99041714Y-65014285D02*
X99041714Y-66300000D01*
X98956000Y-66557142D01*
X98784571Y-66728571D01*
X98527428Y-66814285D01*
X98356000Y-66814285D01*
X100156000Y-66814285D02*
X99984571Y-66728571D01*
X99898857Y-66642857D01*
X99813142Y-66471428D01*
X99813142Y-65957142D01*
X99898857Y-65785714D01*
X99984571Y-65700000D01*
X100156000Y-65614285D01*
X100413142Y-65614285D01*
X100584571Y-65700000D01*
X100670285Y-65785714D01*
X100756000Y-65957142D01*
X100756000Y-66471428D01*
X100670285Y-66642857D01*
X100584571Y-66728571D01*
X100413142Y-66814285D01*
X100156000Y-66814285D01*
X101527428Y-65614285D02*
X101527428Y-66814285D01*
X101527428Y-65785714D02*
X101613142Y-65700000D01*
X101784571Y-65614285D01*
X102041714Y-65614285D01*
X102213142Y-65700000D01*
X102298857Y-65871428D01*
X102298857Y-66814285D01*
X103841714Y-66728571D02*
X103670285Y-66814285D01*
X103327428Y-66814285D01*
X103156000Y-66728571D01*
X103070285Y-66557142D01*
X103070285Y-65871428D01*
X103156000Y-65700000D01*
X103327428Y-65614285D01*
X103670285Y-65614285D01*
X103841714Y-65700000D01*
X103927428Y-65871428D01*
X103927428Y-66042857D01*
X103070285Y-66214285D01*
X104613142Y-66728571D02*
X104784571Y-66814285D01*
X105127428Y-66814285D01*
X105298857Y-66728571D01*
X105384571Y-66557142D01*
X105384571Y-66471428D01*
X105298857Y-66300000D01*
X105127428Y-66214285D01*
X104870285Y-66214285D01*
X104698857Y-66128571D01*
X104613142Y-65957142D01*
X104613142Y-65871428D01*
X104698857Y-65700000D01*
X104870285Y-65614285D01*
X105127428Y-65614285D01*
X105298857Y-65700000D01*
X105727428Y-66985714D02*
X107098857Y-66985714D01*
X107527428Y-66814285D02*
X107527428Y-65014285D01*
X107698857Y-66128571D02*
X108213142Y-66814285D01*
X108213142Y-65614285D02*
X107527428Y-66300000D01*
X108984571Y-66814285D02*
X108984571Y-65014285D01*
X108984571Y-65700000D02*
X109156000Y-65614285D01*
X109498857Y-65614285D01*
X109670285Y-65700000D01*
X109756000Y-65785714D01*
X109841714Y-65957142D01*
X109841714Y-66471428D01*
X109756000Y-66642857D01*
X109670285Y-66728571D01*
X109498857Y-66814285D01*
X109156000Y-66814285D01*
X108984571Y-66728571D01*
X111384571Y-66814285D02*
X111384571Y-65014285D01*
X111384571Y-66728571D02*
X111213142Y-66814285D01*
X110870285Y-66814285D01*
X110698857Y-66728571D01*
X110613142Y-66642857D01*
X110527428Y-66471428D01*
X110527428Y-65957142D01*
X110613142Y-65785714D01*
X110698857Y-65700000D01*
X110870285Y-65614285D01*
X111213142Y-65614285D01*
X111384571Y-65700000D01*
X115070285Y-66814285D02*
X114984571Y-66814285D01*
X114813142Y-66728571D01*
X114556000Y-66471428D01*
X114127428Y-65957142D01*
X113956000Y-65700000D01*
X113870285Y-65442857D01*
X113870285Y-65271428D01*
X113956000Y-65100000D01*
X114127428Y-65014285D01*
X114213142Y-65014285D01*
X114384571Y-65100000D01*
X114470285Y-65271428D01*
X114470285Y-65357142D01*
X114384571Y-65528571D01*
X114298857Y-65614285D01*
X113784571Y-65957142D01*
X113698857Y-66042857D01*
X113613142Y-66214285D01*
X113613142Y-66471428D01*
X113698857Y-66642857D01*
X113784571Y-66728571D01*
X113956000Y-66814285D01*
X114213142Y-66814285D01*
X114384571Y-66728571D01*
X114470285Y-66642857D01*
X114727428Y-66300000D01*
X114813142Y-66042857D01*
X114813142Y-65871428D01*
X117127428Y-65614285D02*
X118413142Y-65614285D01*
X117641714Y-64842857D02*
X117127428Y-67157142D01*
X118241714Y-66385714D02*
X116956000Y-66385714D01*
X117727428Y-67157142D02*
X118241714Y-64842857D01*
X119013142Y-66814285D02*
X119013142Y-65014285D01*
X120041714Y-66814285D01*
X120041714Y-65014285D01*
X121156000Y-66814285D02*
X120984571Y-66728571D01*
X120898857Y-66642857D01*
X120813142Y-66471428D01*
X120813142Y-65957142D01*
X120898857Y-65785714D01*
X120984571Y-65700000D01*
X121156000Y-65614285D01*
X121413142Y-65614285D01*
X121584571Y-65700000D01*
X121670285Y-65785714D01*
X121756000Y-65957142D01*
X121756000Y-66471428D01*
X121670285Y-66642857D01*
X121584571Y-66728571D01*
X121413142Y-66814285D01*
X121156000Y-66814285D01*
X122527428Y-66814285D02*
X122527428Y-65614285D01*
X122527428Y-65957142D02*
X122613142Y-65785714D01*
X122698857Y-65700000D01*
X122870285Y-65614285D01*
X123041714Y-65614285D01*
X124413142Y-66814285D02*
X124413142Y-65871428D01*
X124327428Y-65700000D01*
X124156000Y-65614285D01*
X123813142Y-65614285D01*
X123641714Y-65700000D01*
X124413142Y-66728571D02*
X124241714Y-66814285D01*
X123813142Y-66814285D01*
X123641714Y-66728571D01*
X123556000Y-66557142D01*
X123556000Y-66385714D01*
X123641714Y-66214285D01*
X123813142Y-66128571D01*
X124241714Y-66128571D01*
X124413142Y-66042857D01*
X124841714Y-66985714D02*
X126213142Y-66985714D01*
X126641714Y-66814285D02*
X126641714Y-65014285D01*
X126813142Y-66128571D02*
X127327428Y-66814285D01*
X127327428Y-65614285D02*
X126641714Y-66300000D01*
X128098857Y-66814285D02*
X128098857Y-65014285D01*
X128098857Y-65700000D02*
X128270285Y-65614285D01*
X128613142Y-65614285D01*
X128784571Y-65700000D01*
X128870285Y-65785714D01*
X128956000Y-65957142D01*
X128956000Y-66471428D01*
X128870285Y-66642857D01*
X128784571Y-66728571D01*
X128613142Y-66814285D01*
X128270285Y-66814285D01*
X128098857Y-66728571D01*
X130498857Y-66814285D02*
X130498857Y-65014285D01*
X130498857Y-66728571D02*
X130327428Y-66814285D01*
X129984571Y-66814285D01*
X129813142Y-66728571D01*
X129727428Y-66642857D01*
X129641714Y-66471428D01*
X129641714Y-65957142D01*
X129727428Y-65785714D01*
X129813142Y-65700000D01*
X129984571Y-65614285D01*
X130327428Y-65614285D01*
X130498857Y-65700000D01*
X92698857Y-68855142D02*
X92613142Y-68769428D01*
X92441714Y-68683714D01*
X92270285Y-68683714D01*
X92098857Y-68769428D01*
X92013142Y-68855142D01*
X91927428Y-69026571D01*
X91927428Y-69198000D01*
X92013142Y-69369428D01*
X92098857Y-69455142D01*
X92270285Y-69540857D01*
X92441714Y-69540857D01*
X92613142Y-69455142D01*
X92698857Y-69369428D01*
X92698857Y-68683714D02*
X92698857Y-69369428D01*
X92784571Y-69455142D01*
X92870285Y-69455142D01*
X93041714Y-69369428D01*
X93127428Y-69198000D01*
X93127428Y-68769428D01*
X92956000Y-68512285D01*
X92698857Y-68340857D01*
X92356000Y-68255142D01*
X92013142Y-68340857D01*
X91756000Y-68512285D01*
X91584571Y-68769428D01*
X91498857Y-69112285D01*
X91584571Y-69455142D01*
X91756000Y-69712285D01*
X92013142Y-69883714D01*
X92356000Y-69969428D01*
X92698857Y-69883714D01*
X92956000Y-69712285D01*
X93898857Y-68512285D02*
X93898857Y-70055142D01*
X93813142Y-70226571D01*
X93641714Y-70312285D01*
X93556000Y-70312285D01*
X93898857Y-67912285D02*
X93813142Y-67998000D01*
X93898857Y-68083714D01*
X93984571Y-67998000D01*
X93898857Y-67912285D01*
X93898857Y-68083714D01*
X94756000Y-68512285D02*
X94756000Y-70312285D01*
X94756000Y-68598000D02*
X94927428Y-68512285D01*
X95270285Y-68512285D01*
X95441714Y-68598000D01*
X95527428Y-68683714D01*
X95613142Y-68855142D01*
X95613142Y-69369428D01*
X95527428Y-69540857D01*
X95441714Y-69626571D01*
X95270285Y-69712285D01*
X94927428Y-69712285D01*
X94756000Y-69626571D01*
X96298857Y-69626571D02*
X96470285Y-69712285D01*
X96813142Y-69712285D01*
X96984571Y-69626571D01*
X97070285Y-69455142D01*
X97070285Y-69369428D01*
X96984571Y-69198000D01*
X96813142Y-69112285D01*
X96556000Y-69112285D01*
X96384571Y-69026571D01*
X96298857Y-68855142D01*
X96298857Y-68769428D01*
X96384571Y-68598000D01*
X96556000Y-68512285D01*
X96813142Y-68512285D01*
X96984571Y-68598000D01*
X97841714Y-69712285D02*
X97841714Y-67912285D01*
X98013142Y-69026571D02*
X98527428Y-69712285D01*
X98527428Y-68512285D02*
X97841714Y-69198000D01*
X99984571Y-69626571D02*
X99813142Y-69712285D01*
X99470285Y-69712285D01*
X99298857Y-69626571D01*
X99213142Y-69455142D01*
X99213142Y-68769428D01*
X99298857Y-68598000D01*
X99470285Y-68512285D01*
X99813142Y-68512285D01*
X99984571Y-68598000D01*
X100070285Y-68769428D01*
X100070285Y-68940857D01*
X99213142Y-69112285D01*
X100841714Y-68512285D02*
X100841714Y-69712285D01*
X100841714Y-68683714D02*
X100927428Y-68598000D01*
X101098857Y-68512285D01*
X101356000Y-68512285D01*
X101527428Y-68598000D01*
X101613142Y-68769428D01*
X101613142Y-69712285D01*
X102470285Y-68512285D02*
X102470285Y-69712285D01*
X102470285Y-68683714D02*
X102556000Y-68598000D01*
X102727428Y-68512285D01*
X102984571Y-68512285D01*
X103156000Y-68598000D01*
X103241714Y-68769428D01*
X103241714Y-69712285D01*
D11*
X91915714Y-73178571D02*
X91915714Y-74250000D01*
X91844285Y-74464285D01*
X91701428Y-74607142D01*
X91487142Y-74678571D01*
X91344285Y-74678571D01*
X93344285Y-74678571D02*
X92630000Y-74678571D01*
X92630000Y-73178571D01*
X94701428Y-74535714D02*
X94630000Y-74607142D01*
X94415714Y-74678571D01*
X94272857Y-74678571D01*
X94058571Y-74607142D01*
X93915714Y-74464285D01*
X93844285Y-74321428D01*
X93772857Y-74035714D01*
X93772857Y-73821428D01*
X93844285Y-73535714D01*
X93915714Y-73392857D01*
X94058571Y-73250000D01*
X94272857Y-73178571D01*
X94415714Y-73178571D01*
X94630000Y-73250000D01*
X94701428Y-73321428D01*
X95772857Y-73178571D02*
X95772857Y-74250000D01*
X95701428Y-74464285D01*
X95558571Y-74607142D01*
X95344285Y-74678571D01*
X95201428Y-74678571D01*
X97201428Y-74678571D02*
X96487142Y-74678571D01*
X96487142Y-73178571D01*
X98558571Y-74535714D02*
X98487142Y-74607142D01*
X98272857Y-74678571D01*
X98130000Y-74678571D01*
X97915714Y-74607142D01*
X97772857Y-74464285D01*
X97701428Y-74321428D01*
X97630000Y-74035714D01*
X97630000Y-73821428D01*
X97701428Y-73535714D01*
X97772857Y-73392857D01*
X97915714Y-73250000D01*
X98130000Y-73178571D01*
X98272857Y-73178571D01*
X98487142Y-73250000D01*
X98558571Y-73321428D01*
X99630000Y-73178571D02*
X99630000Y-74250000D01*
X99558571Y-74464285D01*
X99415714Y-74607142D01*
X99201428Y-74678571D01*
X99058571Y-74678571D01*
X101058571Y-74678571D02*
X100344285Y-74678571D01*
X100344285Y-73178571D01*
X102415714Y-74535714D02*
X102344285Y-74607142D01*
X102130000Y-74678571D01*
X101987142Y-74678571D01*
X101772857Y-74607142D01*
X101630000Y-74464285D01*
X101558571Y-74321428D01*
X101487142Y-74035714D01*
X101487142Y-73821428D01*
X101558571Y-73535714D01*
X101630000Y-73392857D01*
X101772857Y-73250000D01*
X101987142Y-73178571D01*
X102130000Y-73178571D01*
X102344285Y-73250000D01*
X102415714Y-73321428D01*
X103487142Y-73178571D02*
X103487142Y-74250000D01*
X103415714Y-74464285D01*
X103272857Y-74607142D01*
X103058571Y-74678571D01*
X102915714Y-74678571D01*
X104915714Y-74678571D02*
X104201428Y-74678571D01*
X104201428Y-73178571D01*
X106272857Y-74535714D02*
X106201428Y-74607142D01*
X105987142Y-74678571D01*
X105844285Y-74678571D01*
X105630000Y-74607142D01*
X105487142Y-74464285D01*
X105415714Y-74321428D01*
X105344285Y-74035714D01*
X105344285Y-73821428D01*
X105415714Y-73535714D01*
X105487142Y-73392857D01*
X105630000Y-73250000D01*
X105844285Y-73178571D01*
X105987142Y-73178571D01*
X106201428Y-73250000D01*
X106272857Y-73321428D01*
D12*
%TO.C,G\u002A\u002A\u002A*%
X211271428Y-80114285D02*
X212557142Y-80114285D01*
X211785714Y-79342857D02*
X211271428Y-81657142D01*
X212385714Y-80885714D02*
X211100000Y-80885714D01*
X211871428Y-81657142D02*
X212385714Y-79342857D01*
X213157142Y-81314285D02*
X213157142Y-79514285D01*
X214185714Y-81314285D01*
X214185714Y-79514285D01*
X215300000Y-81314285D02*
X215128571Y-81228571D01*
X215042857Y-81142857D01*
X214957142Y-80971428D01*
X214957142Y-80457142D01*
X215042857Y-80285714D01*
X215128571Y-80200000D01*
X215300000Y-80114285D01*
X215557142Y-80114285D01*
X215728571Y-80200000D01*
X215814285Y-80285714D01*
X215900000Y-80457142D01*
X215900000Y-80971428D01*
X215814285Y-81142857D01*
X215728571Y-81228571D01*
X215557142Y-81314285D01*
X215300000Y-81314285D01*
X216671428Y-81314285D02*
X216671428Y-80114285D01*
X216671428Y-80457142D02*
X216757142Y-80285714D01*
X216842857Y-80200000D01*
X217014285Y-80114285D01*
X217185714Y-80114285D01*
X218557142Y-81314285D02*
X218557142Y-80371428D01*
X218471428Y-80200000D01*
X218300000Y-80114285D01*
X217957142Y-80114285D01*
X217785714Y-80200000D01*
X218557142Y-81228571D02*
X218385714Y-81314285D01*
X217957142Y-81314285D01*
X217785714Y-81228571D01*
X217700000Y-81057142D01*
X217700000Y-80885714D01*
X217785714Y-80714285D01*
X217957142Y-80628571D01*
X218385714Y-80628571D01*
X218557142Y-80542857D01*
X218985714Y-81485714D02*
X220357142Y-81485714D01*
X220785714Y-81314285D02*
X220785714Y-79514285D01*
X220957142Y-80628571D02*
X221471428Y-81314285D01*
X221471428Y-80114285D02*
X220785714Y-80800000D01*
X222242857Y-81314285D02*
X222242857Y-79514285D01*
X222242857Y-80200000D02*
X222414285Y-80114285D01*
X222757142Y-80114285D01*
X222928571Y-80200000D01*
X223014285Y-80285714D01*
X223100000Y-80457142D01*
X223100000Y-80971428D01*
X223014285Y-81142857D01*
X222928571Y-81228571D01*
X222757142Y-81314285D01*
X222414285Y-81314285D01*
X222242857Y-81228571D01*
X224642857Y-81314285D02*
X224642857Y-79514285D01*
X224642857Y-81228571D02*
X224471428Y-81314285D01*
X224128571Y-81314285D01*
X223957142Y-81228571D01*
X223871428Y-81142857D01*
X223785714Y-80971428D01*
X223785714Y-80457142D01*
X223871428Y-80285714D01*
X223957142Y-80200000D01*
X224128571Y-80114285D01*
X224471428Y-80114285D01*
X224642857Y-80200000D01*
X177585714Y-80114285D02*
X178871428Y-80114285D01*
X178100000Y-79342857D02*
X177585714Y-81657142D01*
X178700000Y-80885714D02*
X177414285Y-80885714D01*
X178185714Y-81657142D02*
X178700000Y-79342857D01*
X179985714Y-79514285D02*
X179985714Y-80800000D01*
X179900000Y-81057142D01*
X179728571Y-81228571D01*
X179471428Y-81314285D01*
X179300000Y-81314285D01*
X181100000Y-81314285D02*
X180928571Y-81228571D01*
X180842857Y-81142857D01*
X180757142Y-80971428D01*
X180757142Y-80457142D01*
X180842857Y-80285714D01*
X180928571Y-80200000D01*
X181100000Y-80114285D01*
X181357142Y-80114285D01*
X181528571Y-80200000D01*
X181614285Y-80285714D01*
X181700000Y-80457142D01*
X181700000Y-80971428D01*
X181614285Y-81142857D01*
X181528571Y-81228571D01*
X181357142Y-81314285D01*
X181100000Y-81314285D01*
X182471428Y-80114285D02*
X182471428Y-81314285D01*
X182471428Y-80285714D02*
X182557142Y-80200000D01*
X182728571Y-80114285D01*
X182985714Y-80114285D01*
X183157142Y-80200000D01*
X183242857Y-80371428D01*
X183242857Y-81314285D01*
X184785714Y-81228571D02*
X184614285Y-81314285D01*
X184271428Y-81314285D01*
X184100000Y-81228571D01*
X184014285Y-81057142D01*
X184014285Y-80371428D01*
X184100000Y-80200000D01*
X184271428Y-80114285D01*
X184614285Y-80114285D01*
X184785714Y-80200000D01*
X184871428Y-80371428D01*
X184871428Y-80542857D01*
X184014285Y-80714285D01*
X185557142Y-81228571D02*
X185728571Y-81314285D01*
X186071428Y-81314285D01*
X186242857Y-81228571D01*
X186328571Y-81057142D01*
X186328571Y-80971428D01*
X186242857Y-80800000D01*
X186071428Y-80714285D01*
X185814285Y-80714285D01*
X185642857Y-80628571D01*
X185557142Y-80457142D01*
X185557142Y-80371428D01*
X185642857Y-80200000D01*
X185814285Y-80114285D01*
X186071428Y-80114285D01*
X186242857Y-80200000D01*
X186671428Y-81485714D02*
X188042857Y-81485714D01*
X188471428Y-81314285D02*
X188471428Y-79514285D01*
X188642857Y-80628571D02*
X189157142Y-81314285D01*
X189157142Y-80114285D02*
X188471428Y-80800000D01*
X189928571Y-81314285D02*
X189928571Y-79514285D01*
X189928571Y-80200000D02*
X190100000Y-80114285D01*
X190442857Y-80114285D01*
X190614285Y-80200000D01*
X190700000Y-80285714D01*
X190785714Y-80457142D01*
X190785714Y-80971428D01*
X190700000Y-81142857D01*
X190614285Y-81228571D01*
X190442857Y-81314285D01*
X190100000Y-81314285D01*
X189928571Y-81228571D01*
X192328571Y-81314285D02*
X192328571Y-79514285D01*
X192328571Y-81228571D02*
X192157142Y-81314285D01*
X191814285Y-81314285D01*
X191642857Y-81228571D01*
X191557142Y-81142857D01*
X191471428Y-80971428D01*
X191471428Y-80457142D01*
X191557142Y-80285714D01*
X191642857Y-80200000D01*
X191814285Y-80114285D01*
X192157142Y-80114285D01*
X192328571Y-80200000D01*
G36*
X221846349Y-66579635D02*
G01*
X221973467Y-66581052D01*
X222070452Y-66583891D01*
X222143401Y-66588543D01*
X222198411Y-66595401D01*
X222241580Y-66604854D01*
X222279006Y-66617295D01*
X222279612Y-66617529D01*
X222367872Y-66667105D01*
X222455364Y-66741754D01*
X222526758Y-66827057D01*
X222555202Y-66876720D01*
X222578795Y-66928500D01*
X223285161Y-66928500D01*
X223484227Y-66928788D01*
X223645444Y-66929776D01*
X223773289Y-66931648D01*
X223872243Y-66934590D01*
X223946785Y-66938787D01*
X224001395Y-66944425D01*
X224040552Y-66951688D01*
X224068736Y-66960761D01*
X224069082Y-66960905D01*
X224200526Y-67036329D01*
X224299045Y-67137787D01*
X224362965Y-67262754D01*
X224390611Y-67408709D01*
X224391662Y-67447084D01*
X224374107Y-67592252D01*
X224320443Y-67717616D01*
X224234375Y-67823142D01*
X224199576Y-67855907D01*
X224165903Y-67883224D01*
X224129306Y-67905591D01*
X224085734Y-67923507D01*
X224031134Y-67937471D01*
X223961456Y-67947983D01*
X223872647Y-67955540D01*
X223760657Y-67960643D01*
X223621434Y-67963790D01*
X223450925Y-67965479D01*
X223245081Y-67966211D01*
X223070938Y-67966426D01*
X222180417Y-67967186D01*
X221354917Y-69409908D01*
X221223667Y-69638836D01*
X221097301Y-69858364D01*
X220977556Y-70065527D01*
X220866172Y-70257356D01*
X220764887Y-70430883D01*
X220675438Y-70583143D01*
X220599566Y-70711167D01*
X220539008Y-70811988D01*
X220495503Y-70882640D01*
X220470790Y-70920153D01*
X220467921Y-70923812D01*
X220370598Y-71006259D01*
X220249386Y-71063185D01*
X220116209Y-71091636D01*
X219982993Y-71088661D01*
X219894650Y-71065747D01*
X219799682Y-71012685D01*
X219707670Y-70932528D01*
X219632970Y-70838948D01*
X219606608Y-70791417D01*
X219578106Y-70694396D01*
X219568448Y-70578824D01*
X219578207Y-70464338D01*
X219595223Y-70399834D01*
X219610025Y-70369684D01*
X219644274Y-70305952D01*
X219696237Y-70211712D01*
X219764179Y-70090034D01*
X219846368Y-69943992D01*
X219941068Y-69776657D01*
X220046547Y-69591102D01*
X220161071Y-69390399D01*
X220282906Y-69177620D01*
X220398627Y-68976159D01*
X220524624Y-68757020D01*
X220644274Y-68548693D01*
X220755928Y-68354067D01*
X220857936Y-68176027D01*
X220948646Y-68017463D01*
X221026409Y-67881261D01*
X221089574Y-67770307D01*
X221136492Y-67687490D01*
X221165511Y-67635697D01*
X221175000Y-67617842D01*
X221157072Y-67606339D01*
X221112563Y-67588666D01*
X221098150Y-67583754D01*
X221007696Y-67537086D01*
X220918501Y-67462752D01*
X220844188Y-67373575D01*
X220809659Y-67312246D01*
X220771485Y-67176763D01*
X220771071Y-67036589D01*
X220806442Y-66901069D01*
X220875623Y-66779553D01*
X220936009Y-66714096D01*
X220982709Y-66674270D01*
X221027860Y-66643132D01*
X221077338Y-66619621D01*
X221137016Y-66602676D01*
X221212772Y-66591237D01*
X221310478Y-66584244D01*
X221436012Y-66580636D01*
X221595247Y-66579352D01*
X221683000Y-66579250D01*
X221846349Y-66579635D01*
G37*
G36*
X210484312Y-63795952D02*
G01*
X210735394Y-63796583D01*
X210951309Y-63798384D01*
X211130724Y-63801323D01*
X211272306Y-63805368D01*
X211374720Y-63810486D01*
X211436635Y-63816646D01*
X211448917Y-63819157D01*
X211535239Y-63861365D01*
X211632308Y-63943564D01*
X211641759Y-63953127D01*
X211732509Y-64069902D01*
X211782832Y-64195053D01*
X211794520Y-64333882D01*
X211789413Y-64389770D01*
X211775643Y-64493568D01*
X213413118Y-64499242D01*
X215050593Y-64504917D01*
X215154195Y-64568976D01*
X215259546Y-64657335D01*
X215337504Y-64770513D01*
X215384674Y-64899397D01*
X215397658Y-65034871D01*
X215375072Y-65161874D01*
X215361457Y-65189719D01*
X215327975Y-65252005D01*
X215275897Y-65346492D01*
X215206492Y-65470940D01*
X215121027Y-65623109D01*
X215020773Y-65800761D01*
X214906999Y-66001654D01*
X214780972Y-66223550D01*
X214643963Y-66464208D01*
X214497240Y-66721389D01*
X214342071Y-66992854D01*
X214179727Y-67276362D01*
X214011476Y-67569674D01*
X213967698Y-67645908D01*
X212586515Y-70050584D01*
X213014307Y-70061167D01*
X213442098Y-70071750D01*
X213545830Y-70135943D01*
X213658247Y-70224632D01*
X213733437Y-70330748D01*
X213774606Y-70459602D01*
X213783095Y-70529281D01*
X213779707Y-70676331D01*
X213744925Y-70799748D01*
X213676435Y-70906664D01*
X213651863Y-70933626D01*
X213617223Y-70969118D01*
X213585648Y-70998692D01*
X213553073Y-71022914D01*
X213515432Y-71042351D01*
X213468661Y-71057570D01*
X213408695Y-71069137D01*
X213331468Y-71077621D01*
X213232916Y-71083586D01*
X213108975Y-71087601D01*
X212955578Y-71090233D01*
X212768661Y-71092047D01*
X212544160Y-71093610D01*
X212502558Y-71093888D01*
X212281735Y-71095320D01*
X212099081Y-71096267D01*
X211950430Y-71096569D01*
X211831621Y-71096060D01*
X211738488Y-71094580D01*
X211666868Y-71091964D01*
X211612598Y-71088049D01*
X211571512Y-71082674D01*
X211539448Y-71075675D01*
X211512241Y-71066888D01*
X211485728Y-71056152D01*
X211480469Y-71053897D01*
X211358203Y-70980089D01*
X211262893Y-70879377D01*
X211197781Y-70759034D01*
X211166108Y-70626335D01*
X211171115Y-70488555D01*
X211192599Y-70407786D01*
X211206629Y-70379581D01*
X211240517Y-70316946D01*
X211292989Y-70222130D01*
X211362767Y-70097382D01*
X211448576Y-69944953D01*
X211549138Y-69767092D01*
X211663178Y-69566047D01*
X211789420Y-69344070D01*
X211926586Y-69103408D01*
X212073401Y-68846311D01*
X212228587Y-68575029D01*
X212390870Y-68291812D01*
X212558972Y-67998908D01*
X212596308Y-67933917D01*
X213970583Y-65542084D01*
X212583659Y-65536638D01*
X212295185Y-65535665D01*
X212046461Y-65535201D01*
X211834907Y-65535283D01*
X211657942Y-65535950D01*
X211512986Y-65537242D01*
X211397458Y-65539197D01*
X211308778Y-65541853D01*
X211244364Y-65545250D01*
X211201638Y-65549426D01*
X211178018Y-65554419D01*
X211171961Y-65557805D01*
X211158705Y-65578978D01*
X211125608Y-65634809D01*
X211073867Y-65723222D01*
X211004680Y-65842140D01*
X210919246Y-65989487D01*
X210818763Y-66163186D01*
X210704430Y-66361161D01*
X210577445Y-66581337D01*
X210439006Y-66821635D01*
X210290311Y-67079980D01*
X210132560Y-67354296D01*
X209966950Y-67642507D01*
X209794679Y-67942535D01*
X209629596Y-68230250D01*
X209451702Y-68540133D01*
X209278955Y-68840535D01*
X209112584Y-69129343D01*
X208953818Y-69404443D01*
X208803886Y-69663724D01*
X208664018Y-69905071D01*
X208535442Y-70126373D01*
X208419387Y-70325517D01*
X208317083Y-70500389D01*
X208229759Y-70648878D01*
X208158644Y-70768870D01*
X208104967Y-70858252D01*
X208069957Y-70914911D01*
X208055378Y-70936230D01*
X207998061Y-70985972D01*
X207928939Y-71031908D01*
X207915615Y-71039120D01*
X207835219Y-71067976D01*
X207736325Y-71086244D01*
X207636953Y-71091954D01*
X207555118Y-71083135D01*
X207543529Y-71079816D01*
X207409109Y-71016123D01*
X207300629Y-70925118D01*
X207221318Y-70812974D01*
X207174404Y-70685864D01*
X207163118Y-70549961D01*
X207190687Y-70411435D01*
X207191975Y-70407786D01*
X207205752Y-70380238D01*
X207239465Y-70318090D01*
X207291929Y-70223431D01*
X207361957Y-70098347D01*
X207448365Y-69944928D01*
X207549966Y-69765260D01*
X207665575Y-69561432D01*
X207794004Y-69335531D01*
X207934070Y-69089646D01*
X208084584Y-68825863D01*
X208244363Y-68546271D01*
X208412220Y-68252958D01*
X208586969Y-67948010D01*
X208767424Y-67633517D01*
X208798514Y-67579375D01*
X210375744Y-64833000D01*
X209970414Y-64832793D01*
X209828264Y-64832431D01*
X209721263Y-64831037D01*
X209642228Y-64827906D01*
X209583977Y-64822333D01*
X209539326Y-64813610D01*
X209501093Y-64801033D01*
X209462094Y-64783895D01*
X209459250Y-64782554D01*
X209333138Y-64703270D01*
X209242563Y-64601155D01*
X209187120Y-64475562D01*
X209166406Y-64325845D01*
X209166240Y-64313423D01*
X209184860Y-64166855D01*
X209240181Y-64038239D01*
X209328950Y-63932177D01*
X209447912Y-63853269D01*
X209509460Y-63828174D01*
X209539553Y-63819966D01*
X209579769Y-63813226D01*
X209634133Y-63807819D01*
X209706665Y-63803614D01*
X209801389Y-63800477D01*
X209922327Y-63798275D01*
X210073502Y-63796875D01*
X210258936Y-63796145D01*
X210482651Y-63795951D01*
X210484312Y-63795952D01*
G37*
G36*
X214661075Y-69908823D02*
G01*
X214755005Y-69744323D01*
X214859498Y-69561955D01*
X214972748Y-69364840D01*
X215092944Y-69156098D01*
X215218279Y-68938848D01*
X215346945Y-68716211D01*
X215477133Y-68491307D01*
X215607036Y-68267256D01*
X215734844Y-68047177D01*
X215858751Y-67834192D01*
X215976947Y-67631420D01*
X216087624Y-67441980D01*
X216188974Y-67268994D01*
X216279189Y-67115580D01*
X216356460Y-66984860D01*
X216418980Y-66879953D01*
X216464940Y-66803979D01*
X216492532Y-66760059D01*
X216498835Y-66751141D01*
X216562819Y-66690276D01*
X216639936Y-66637009D01*
X216664699Y-66624141D01*
X216683968Y-66615556D01*
X216704054Y-66608142D01*
X216728033Y-66601812D01*
X216758986Y-66596482D01*
X216799990Y-66592065D01*
X216854123Y-66588476D01*
X216924465Y-66585628D01*
X217014094Y-66583436D01*
X217126088Y-66581815D01*
X217263526Y-66580677D01*
X217429486Y-66579938D01*
X217627047Y-66579512D01*
X217859287Y-66579312D01*
X218129284Y-66579253D01*
X218275167Y-66579250D01*
X218574971Y-66579220D01*
X218835468Y-66579296D01*
X219059680Y-66579730D01*
X219250633Y-66580774D01*
X219411351Y-66582680D01*
X219544859Y-66585698D01*
X219654181Y-66590082D01*
X219742342Y-66596081D01*
X219812367Y-66603949D01*
X219867279Y-66613936D01*
X219910104Y-66626294D01*
X219943867Y-66641275D01*
X219971591Y-66659131D01*
X219996301Y-66680112D01*
X220021022Y-66704471D01*
X220042559Y-66726278D01*
X220127738Y-66838450D01*
X220180942Y-66967627D01*
X220199803Y-67103944D01*
X220181954Y-67237530D01*
X220172284Y-67267167D01*
X220158321Y-67294990D01*
X220124976Y-67356348D01*
X220074038Y-67448115D01*
X220007296Y-67567168D01*
X219926540Y-67710383D01*
X219833558Y-67874633D01*
X219730141Y-68056796D01*
X219618077Y-68253746D01*
X219499155Y-68462359D01*
X219375165Y-68679510D01*
X219247896Y-68902076D01*
X219119137Y-69126931D01*
X218990678Y-69350951D01*
X218864308Y-69571011D01*
X218741815Y-69783987D01*
X218624990Y-69986755D01*
X218515621Y-70176189D01*
X218415498Y-70349166D01*
X218326409Y-70502561D01*
X218250145Y-70633250D01*
X218188494Y-70738107D01*
X218143246Y-70814009D01*
X218116190Y-70857830D01*
X218115456Y-70858955D01*
X218031920Y-70959248D01*
X217942407Y-71028289D01*
X217841250Y-71087750D01*
X216306667Y-71092865D01*
X216014937Y-71093813D01*
X215762487Y-71094526D01*
X215546267Y-71094932D01*
X215363222Y-71094961D01*
X215210302Y-71094540D01*
X215084453Y-71093597D01*
X214982623Y-71092061D01*
X214901761Y-71089860D01*
X214838814Y-71086922D01*
X214790729Y-71083176D01*
X214754454Y-71078550D01*
X214726938Y-71072972D01*
X214705127Y-71066371D01*
X214685970Y-71058674D01*
X214676833Y-71054576D01*
X214546787Y-70976475D01*
X214453051Y-70876731D01*
X214394931Y-70754270D01*
X214371736Y-70608015D01*
X214371216Y-70579750D01*
X214375245Y-70484197D01*
X214390199Y-70410484D01*
X214420482Y-70338622D01*
X214427155Y-70325750D01*
X214460748Y-70263920D01*
X214512138Y-70171742D01*
X214574533Y-70061167D01*
X215781215Y-70061167D01*
X217375602Y-70061167D01*
X218010593Y-68956262D01*
X218126712Y-68754196D01*
X218238316Y-68559955D01*
X218343308Y-68377195D01*
X218439590Y-68209568D01*
X218525062Y-68060728D01*
X218597628Y-67934329D01*
X218655188Y-67834024D01*
X218695645Y-67763467D01*
X218715745Y-67728340D01*
X218785906Y-67605322D01*
X217985806Y-67610869D01*
X217185706Y-67616417D01*
X216845276Y-68209084D01*
X216743033Y-68387076D01*
X216626349Y-68590195D01*
X216501876Y-68806865D01*
X216376266Y-69025507D01*
X216256169Y-69234544D01*
X216148236Y-69422398D01*
X216143030Y-69431459D01*
X215781215Y-70061167D01*
X214574533Y-70061167D01*
X214579516Y-70052336D01*
X214661075Y-69908823D01*
G37*
G36*
X223708205Y-69841429D02*
G01*
X223804014Y-69669657D01*
X223905296Y-69489605D01*
X224009760Y-69305299D01*
X224115114Y-69120764D01*
X224219069Y-68940027D01*
X224319331Y-68767113D01*
X224413611Y-68606048D01*
X224499616Y-68460858D01*
X224575056Y-68335568D01*
X224637640Y-68234204D01*
X224685076Y-68160793D01*
X224715073Y-68119359D01*
X224717640Y-68116458D01*
X224779917Y-68062004D01*
X224855424Y-68012332D01*
X224879167Y-68000041D01*
X224901348Y-67990107D01*
X224924731Y-67981728D01*
X224952989Y-67974748D01*
X224989791Y-67969011D01*
X225038809Y-67964362D01*
X225103713Y-67960646D01*
X225188176Y-67957707D01*
X225295868Y-67955389D01*
X225430460Y-67953537D01*
X225595622Y-67951996D01*
X225795027Y-67950610D01*
X226032345Y-67949223D01*
X226085726Y-67948926D01*
X227197036Y-67942768D01*
X227281643Y-67790303D01*
X227321624Y-67717879D01*
X227353321Y-67659760D01*
X227371365Y-67625813D01*
X227373305Y-67621836D01*
X227354510Y-67618271D01*
X227297905Y-67614973D01*
X227208015Y-67612030D01*
X227089365Y-67609536D01*
X226946478Y-67607581D01*
X226783878Y-67606256D01*
X226606089Y-67605653D01*
X226568972Y-67605627D01*
X226362383Y-67605531D01*
X226193651Y-67605196D01*
X226058301Y-67604375D01*
X225951857Y-67602822D01*
X225869843Y-67600290D01*
X225807782Y-67596532D01*
X225761200Y-67591303D01*
X225725620Y-67584356D01*
X225696567Y-67575444D01*
X225669564Y-67564320D01*
X225649273Y-67554988D01*
X225533623Y-67480518D01*
X225448455Y-67383383D01*
X225393535Y-67270049D01*
X225368628Y-67146982D01*
X225373499Y-67020645D01*
X225407912Y-66897506D01*
X225471634Y-66784029D01*
X225564429Y-66686679D01*
X225683500Y-66613084D01*
X225702645Y-66606079D01*
X225729192Y-66600096D01*
X225766355Y-66595057D01*
X225817347Y-66590884D01*
X225885383Y-66587498D01*
X225973677Y-66584821D01*
X226085443Y-66582774D01*
X226223895Y-66581280D01*
X226392247Y-66580258D01*
X226593713Y-66579632D01*
X226831508Y-66579323D01*
X227069917Y-66579250D01*
X227339859Y-66579319D01*
X227570803Y-66579586D01*
X227766086Y-66580142D01*
X227929043Y-66581078D01*
X228063010Y-66582483D01*
X228171321Y-66584448D01*
X228257314Y-66587063D01*
X228324323Y-66590420D01*
X228375685Y-66594608D01*
X228414735Y-66599718D01*
X228444808Y-66605841D01*
X228469241Y-66613066D01*
X228481446Y-66617529D01*
X228577082Y-66671900D01*
X228668025Y-66753781D01*
X228740330Y-66849372D01*
X228765307Y-66898408D01*
X228787443Y-66986735D01*
X228793790Y-67095226D01*
X228784343Y-67204769D01*
X228765387Y-67280381D01*
X228750134Y-67311879D01*
X228715428Y-67376919D01*
X228663015Y-67472398D01*
X228594643Y-67595215D01*
X228512057Y-67742268D01*
X228417007Y-67910457D01*
X228311237Y-68096679D01*
X228196496Y-68297834D01*
X228074530Y-68510819D01*
X227962075Y-68706500D01*
X227188377Y-70050584D01*
X227309063Y-70063791D01*
X227417108Y-70080539D01*
X227499755Y-70108083D01*
X227573806Y-70153852D01*
X227639692Y-70210004D01*
X227728509Y-70317919D01*
X227781587Y-70439691D01*
X227800115Y-70568473D01*
X227785279Y-70697418D01*
X227738266Y-70819679D01*
X227660263Y-70928407D01*
X227552456Y-71016755D01*
X227494427Y-71048090D01*
X227387417Y-71097920D01*
X225588250Y-71097198D01*
X225258115Y-71096951D01*
X224967850Y-71096467D01*
X224714994Y-71095707D01*
X224497085Y-71094633D01*
X224311660Y-71093208D01*
X224156257Y-71091393D01*
X224028415Y-71089151D01*
X223925670Y-71086442D01*
X223845561Y-71083229D01*
X223785626Y-71079475D01*
X223743403Y-71075140D01*
X223716429Y-71070186D01*
X223709665Y-71068134D01*
X223582087Y-71001815D01*
X223480381Y-70906786D01*
X223408361Y-70789862D01*
X223369839Y-70657861D01*
X223368629Y-70517597D01*
X223376597Y-70472739D01*
X223391451Y-70435188D01*
X223425526Y-70365202D01*
X223476530Y-70266808D01*
X223542172Y-70144030D01*
X223598255Y-70041099D01*
X224798028Y-70041099D01*
X224816421Y-70047140D01*
X224874198Y-70052233D01*
X224968418Y-70056277D01*
X225096140Y-70059171D01*
X225254423Y-70060815D01*
X225383667Y-70061167D01*
X225976363Y-70061167D01*
X226235102Y-69611375D01*
X226310170Y-69480889D01*
X226381094Y-69357630D01*
X226444205Y-69247972D01*
X226495834Y-69158289D01*
X226532313Y-69094955D01*
X226545765Y-69071625D01*
X226597689Y-68981667D01*
X225997719Y-68982484D01*
X225397750Y-68983300D01*
X225101417Y-69502165D01*
X225024458Y-69637179D01*
X224954439Y-69760525D01*
X224894097Y-69867336D01*
X224846174Y-69952745D01*
X224813409Y-70011885D01*
X224798543Y-70039889D01*
X224798028Y-70041099D01*
X223598255Y-70041099D01*
X223620161Y-70000895D01*
X223708205Y-69841429D01*
G37*
D13*
X183221661Y-60000346D02*
X183221464Y-60277783D01*
X183221464Y-60277783D02*
X183220986Y-60518873D01*
X183220986Y-60518873D02*
X183220175Y-60726345D01*
X183220175Y-60726345D02*
X183218980Y-60902926D01*
X183218980Y-60902926D02*
X183217350Y-61051347D01*
X183217350Y-61051347D02*
X183215233Y-61174336D01*
X183215233Y-61174336D02*
X183212579Y-61274622D01*
X183212579Y-61274622D02*
X183209336Y-61354934D01*
X183209336Y-61354934D02*
X183205453Y-61418000D01*
X183205453Y-61418000D02*
X183200878Y-61466550D01*
X183200878Y-61466550D02*
X183195562Y-61503313D01*
X183195562Y-61503313D02*
X183193250Y-61515171D01*
X183193250Y-61515171D02*
X183141413Y-61681550D01*
X183141413Y-61681550D02*
X183061572Y-61822294D01*
X183061572Y-61822294D02*
X182953249Y-61937695D01*
X182953249Y-61937695D02*
X182815969Y-62028048D01*
X182815969Y-62028048D02*
X182649254Y-62093643D01*
X182649254Y-62093643D02*
X182452628Y-62134776D01*
X182452628Y-62134776D02*
X182225616Y-62151738D01*
X182225616Y-62151738D02*
X182157154Y-62152200D01*
X182157154Y-62152200D02*
X182046828Y-62149299D01*
X182046828Y-62149299D02*
X181937438Y-62142658D01*
X181937438Y-62142658D02*
X181841944Y-62133275D01*
X181841944Y-62133275D02*
X181776317Y-62122824D01*
X181776317Y-62122824D02*
X181592667Y-62067518D01*
X181592667Y-62067518D02*
X181436919Y-61988507D01*
X181436919Y-61988507D02*
X181310832Y-61887013D01*
X181310832Y-61887013D02*
X181216170Y-61764259D01*
X181216170Y-61764259D02*
X181191000Y-61716940D01*
X181191000Y-61716940D02*
X181157161Y-61636527D01*
X181157161Y-61636527D02*
X181131551Y-61551173D01*
X181131551Y-61551173D02*
X181113223Y-61454145D01*
X181113223Y-61454145D02*
X181101230Y-61338713D01*
X181101230Y-61338713D02*
X181094626Y-61198148D01*
X181094626Y-61198148D02*
X181092464Y-61025718D01*
X181092464Y-61025718D02*
X181092456Y-61016346D01*
X181092456Y-61016346D02*
X181092308Y-60689077D01*
X181092308Y-60689077D02*
X181932462Y-60689077D01*
X181932462Y-60689077D02*
X181932855Y-60938192D01*
X181932855Y-60938192D02*
X181935688Y-61112260D01*
X181935688Y-61112260D02*
X181944448Y-61251016D01*
X181944448Y-61251016D02*
X181960439Y-61357952D01*
X181960439Y-61357952D02*
X181984964Y-61436560D01*
X181984964Y-61436560D02*
X182019326Y-61490329D01*
X182019326Y-61490329D02*
X182064828Y-61522753D01*
X182064828Y-61522753D02*
X182122775Y-61537321D01*
X182122775Y-61537321D02*
X182157154Y-61539000D01*
X182157154Y-61539000D02*
X182238909Y-61526326D01*
X182238909Y-61526326D02*
X182298682Y-61486158D01*
X182298682Y-61486158D02*
X182339539Y-61415277D01*
X182339539Y-61415277D02*
X182362555Y-61323273D01*
X182362555Y-61323273D02*
X182366112Y-61281819D01*
X182366112Y-61281819D02*
X182369411Y-61204369D01*
X182369411Y-61204369D02*
X182372409Y-61094006D01*
X182372409Y-61094006D02*
X182375064Y-60953809D01*
X182375064Y-60953809D02*
X182377334Y-60786860D01*
X182377334Y-60786860D02*
X182379178Y-60596240D01*
X182379178Y-60596240D02*
X182380554Y-60385029D01*
X182380554Y-60385029D02*
X182381420Y-60156310D01*
X182381420Y-60156310D02*
X182381733Y-59913162D01*
X182381733Y-59913162D02*
X182381733Y-59912423D01*
X182381733Y-59912423D02*
X182381846Y-58618000D01*
X182381846Y-58618000D02*
X183222000Y-58618000D01*
X183222000Y-58618000D02*
X183221661Y-60000346D01*
X183221661Y-60000346D02*
X183221661Y-60000346D01*
G36*
X183221661Y-60000346D02*
G01*
X183221464Y-60277783D01*
X183220986Y-60518873D01*
X183220175Y-60726345D01*
X183218980Y-60902926D01*
X183217350Y-61051347D01*
X183215233Y-61174336D01*
X183212579Y-61274622D01*
X183209336Y-61354934D01*
X183205453Y-61418000D01*
X183200878Y-61466550D01*
X183195562Y-61503313D01*
X183193250Y-61515171D01*
X183141413Y-61681550D01*
X183061572Y-61822294D01*
X182953249Y-61937695D01*
X182815969Y-62028048D01*
X182649254Y-62093643D01*
X182452628Y-62134776D01*
X182225616Y-62151738D01*
X182157154Y-62152200D01*
X182046828Y-62149299D01*
X181937438Y-62142658D01*
X181841944Y-62133275D01*
X181776317Y-62122824D01*
X181592667Y-62067518D01*
X181436919Y-61988507D01*
X181310832Y-61887013D01*
X181216170Y-61764259D01*
X181191000Y-61716940D01*
X181157161Y-61636527D01*
X181131551Y-61551173D01*
X181113223Y-61454145D01*
X181101230Y-61338713D01*
X181094626Y-61198148D01*
X181092464Y-61025718D01*
X181092456Y-61016346D01*
X181092308Y-60689077D01*
X181932462Y-60689077D01*
X181932855Y-60938192D01*
X181935688Y-61112260D01*
X181944448Y-61251016D01*
X181960439Y-61357952D01*
X181984964Y-61436560D01*
X182019326Y-61490329D01*
X182064828Y-61522753D01*
X182122775Y-61537321D01*
X182157154Y-61539000D01*
X182238909Y-61526326D01*
X182298682Y-61486158D01*
X182339539Y-61415277D01*
X182362555Y-61323273D01*
X182366112Y-61281819D01*
X182369411Y-61204369D01*
X182372409Y-61094006D01*
X182375064Y-60953809D01*
X182377334Y-60786860D01*
X182379178Y-60596240D01*
X182380554Y-60385029D01*
X182381420Y-60156310D01*
X182381733Y-59913162D01*
X182381733Y-59912423D01*
X182381846Y-58618000D01*
X183222000Y-58618000D01*
X183221661Y-60000346D01*
G37*
X183221661Y-60000346D02*
X183221464Y-60277783D01*
X183220986Y-60518873D01*
X183220175Y-60726345D01*
X183218980Y-60902926D01*
X183217350Y-61051347D01*
X183215233Y-61174336D01*
X183212579Y-61274622D01*
X183209336Y-61354934D01*
X183205453Y-61418000D01*
X183200878Y-61466550D01*
X183195562Y-61503313D01*
X183193250Y-61515171D01*
X183141413Y-61681550D01*
X183061572Y-61822294D01*
X182953249Y-61937695D01*
X182815969Y-62028048D01*
X182649254Y-62093643D01*
X182452628Y-62134776D01*
X182225616Y-62151738D01*
X182157154Y-62152200D01*
X182046828Y-62149299D01*
X181937438Y-62142658D01*
X181841944Y-62133275D01*
X181776317Y-62122824D01*
X181592667Y-62067518D01*
X181436919Y-61988507D01*
X181310832Y-61887013D01*
X181216170Y-61764259D01*
X181191000Y-61716940D01*
X181157161Y-61636527D01*
X181131551Y-61551173D01*
X181113223Y-61454145D01*
X181101230Y-61338713D01*
X181094626Y-61198148D01*
X181092464Y-61025718D01*
X181092456Y-61016346D01*
X181092308Y-60689077D01*
X181932462Y-60689077D01*
X181932855Y-60938192D01*
X181935688Y-61112260D01*
X181944448Y-61251016D01*
X181960439Y-61357952D01*
X181984964Y-61436560D01*
X182019326Y-61490329D01*
X182064828Y-61522753D01*
X182122775Y-61537321D01*
X182157154Y-61539000D01*
X182238909Y-61526326D01*
X182298682Y-61486158D01*
X182339539Y-61415277D01*
X182362555Y-61323273D01*
X182366112Y-61281819D01*
X182369411Y-61204369D01*
X182372409Y-61094006D01*
X182375064Y-60953809D01*
X182377334Y-60786860D01*
X182379178Y-60596240D01*
X182380554Y-60385029D01*
X182381420Y-60156310D01*
X182381733Y-59913162D01*
X182381733Y-59912423D01*
X182381846Y-58618000D01*
X183222000Y-58618000D01*
X183221661Y-60000346D01*
X183421893Y-57507850D02*
X183710251Y-57508475D01*
X183710251Y-57508475D02*
X183959730Y-57509569D01*
X183959730Y-57509569D02*
X184170379Y-57511133D01*
X184170379Y-57511133D02*
X184342245Y-57513167D01*
X184342245Y-57513167D02*
X184475379Y-57515671D01*
X184475379Y-57515671D02*
X184569828Y-57518645D01*
X184569828Y-57518645D02*
X184625641Y-57522089D01*
X184625641Y-57522089D02*
X184638363Y-57523834D01*
X184638363Y-57523834D02*
X184805796Y-57577860D01*
X184805796Y-57577860D02*
X184954390Y-57664979D01*
X184954390Y-57664979D02*
X185080415Y-57782241D01*
X185080415Y-57782241D02*
X185180137Y-57926698D01*
X185180137Y-57926698D02*
X185201381Y-57968527D01*
X185201381Y-57968527D02*
X185263770Y-58100231D01*
X185263770Y-58100231D02*
X185269318Y-59121115D01*
X185269318Y-59121115D02*
X185274866Y-60142000D01*
X185274866Y-60142000D02*
X186219151Y-60142000D01*
X186219151Y-60142000D02*
X186431166Y-60142416D01*
X186431166Y-60142416D02*
X186627337Y-60143618D01*
X186627337Y-60143618D02*
X186804133Y-60145541D01*
X186804133Y-60145541D02*
X186958022Y-60148118D01*
X186958022Y-60148118D02*
X187085472Y-60151283D01*
X187085472Y-60151283D02*
X187182953Y-60154970D01*
X187182953Y-60154970D02*
X187246931Y-60159112D01*
X187246931Y-60159112D02*
X187267250Y-60161688D01*
X187267250Y-60161688D02*
X187434972Y-60212601D01*
X187434972Y-60212601D02*
X187584052Y-60296810D01*
X187584052Y-60296810D02*
X187710970Y-60411578D01*
X187710970Y-60411578D02*
X187812205Y-60554166D01*
X187812205Y-60554166D02*
X187839073Y-60606219D01*
X187839073Y-60606219D02*
X187901462Y-60737923D01*
X187901462Y-60737923D02*
X187906590Y-63741962D01*
X187906590Y-63741962D02*
X187911719Y-66746000D01*
X187911719Y-66746000D02*
X188894621Y-66746000D01*
X188894621Y-66746000D02*
X189121439Y-66746139D01*
X189121439Y-66746139D02*
X189312637Y-66746624D01*
X189312637Y-66746624D02*
X189471671Y-66747554D01*
X189471671Y-66747554D02*
X189601999Y-66749029D01*
X189601999Y-66749029D02*
X189707076Y-66751149D01*
X189707076Y-66751149D02*
X189790359Y-66754014D01*
X189790359Y-66754014D02*
X189855305Y-66757722D01*
X189855305Y-66757722D02*
X189905369Y-66762375D01*
X189905369Y-66762375D02*
X189944008Y-66768072D01*
X189944008Y-66768072D02*
X189974678Y-66774912D01*
X189974678Y-66774912D02*
X189983646Y-66777440D01*
X189983646Y-66777440D02*
X190145847Y-66844831D01*
X190145847Y-66844831D02*
X190285377Y-66942662D01*
X190285377Y-66942662D02*
X190399009Y-67067696D01*
X190399009Y-67067696D02*
X190483518Y-67216700D01*
X190483518Y-67216700D02*
X190518063Y-67313335D01*
X190518063Y-67313335D02*
X190521614Y-67328216D01*
X190521614Y-67328216D02*
X190524880Y-67348269D01*
X190524880Y-67348269D02*
X190527870Y-67375039D01*
X190527870Y-67375039D02*
X190530595Y-67410076D01*
X190530595Y-67410076D02*
X190533062Y-67454925D01*
X190533062Y-67454925D02*
X190535282Y-67511134D01*
X190535282Y-67511134D02*
X190537264Y-67580250D01*
X190537264Y-67580250D02*
X190539016Y-67663821D01*
X190539016Y-67663821D02*
X190540550Y-67763393D01*
X190540550Y-67763393D02*
X190541872Y-67880514D01*
X190541872Y-67880514D02*
X190542994Y-68016731D01*
X190542994Y-68016731D02*
X190543924Y-68173592D01*
X190543924Y-68173592D02*
X190544672Y-68352643D01*
X190544672Y-68352643D02*
X190545246Y-68555432D01*
X190545246Y-68555432D02*
X190545657Y-68783507D01*
X190545657Y-68783507D02*
X190545913Y-69038413D01*
X190545913Y-69038413D02*
X190546024Y-69321699D01*
X190546024Y-69321699D02*
X190545999Y-69634911D01*
X190545999Y-69634911D02*
X190545848Y-69979598D01*
X190545848Y-69979598D02*
X190545579Y-70357306D01*
X190545579Y-70357306D02*
X190545202Y-70769582D01*
X190545202Y-70769582D02*
X190544727Y-71217974D01*
X190544727Y-71217974D02*
X190544214Y-71660642D01*
X190544214Y-71660642D02*
X190539154Y-75899769D01*
X190539154Y-75899769D02*
X190476450Y-76032148D01*
X190476450Y-76032148D02*
X190386163Y-76179419D01*
X190386163Y-76179419D02*
X190268551Y-76302287D01*
X190268551Y-76302287D02*
X190128703Y-76396872D01*
X190128703Y-76396872D02*
X189971708Y-76459296D01*
X189971708Y-76459296D02*
X189893385Y-76476433D01*
X189893385Y-76476433D02*
X189857536Y-76479078D01*
X189857536Y-76479078D02*
X189785775Y-76481494D01*
X189785775Y-76481494D02*
X189681235Y-76483683D01*
X189681235Y-76483683D02*
X189547045Y-76485644D01*
X189547045Y-76485644D02*
X189386337Y-76487379D01*
X189386337Y-76487379D02*
X189202242Y-76488888D01*
X189202242Y-76488888D02*
X188997890Y-76490171D01*
X188997890Y-76490171D02*
X188776412Y-76491230D01*
X188776412Y-76491230D02*
X188540940Y-76492064D01*
X188540940Y-76492064D02*
X188294603Y-76492675D01*
X188294603Y-76492675D02*
X188040532Y-76493063D01*
X188040532Y-76493063D02*
X187781860Y-76493228D01*
X187781860Y-76493228D02*
X187521715Y-76493172D01*
X187521715Y-76493172D02*
X187263229Y-76492895D01*
X187263229Y-76492895D02*
X187009534Y-76492397D01*
X187009534Y-76492397D02*
X186763759Y-76491680D01*
X186763759Y-76491680D02*
X186529036Y-76490743D01*
X186529036Y-76490743D02*
X186308495Y-76489587D01*
X186308495Y-76489587D02*
X186105267Y-76488213D01*
X186105267Y-76488213D02*
X185922483Y-76486622D01*
X185922483Y-76486622D02*
X185763274Y-76484814D01*
X185763274Y-76484814D02*
X185630771Y-76482790D01*
X185630771Y-76482790D02*
X185528104Y-76480550D01*
X185528104Y-76480550D02*
X185458405Y-76478095D01*
X185458405Y-76478095D02*
X185425557Y-76475561D01*
X185425557Y-76475561D02*
X185266136Y-76429453D01*
X185266136Y-76429453D02*
X185119435Y-76349232D01*
X185119435Y-76349232D02*
X184990959Y-76239191D01*
X184990959Y-76239191D02*
X184886213Y-76103623D01*
X184886213Y-76103623D02*
X184840549Y-76019387D01*
X184840549Y-76019387D02*
X184775308Y-75880231D01*
X184775308Y-75880231D02*
X184770060Y-72886786D01*
X184770060Y-72886786D02*
X184764813Y-69893340D01*
X184764813Y-69893340D02*
X183754060Y-69887632D01*
X183754060Y-69887632D02*
X183529476Y-69886332D01*
X183529476Y-69886332D02*
X183340483Y-69885081D01*
X183340483Y-69885081D02*
X183183598Y-69883720D01*
X183183598Y-69883720D02*
X183055335Y-69882094D01*
X183055335Y-69882094D02*
X182952210Y-69880046D01*
X182952210Y-69880046D02*
X182870738Y-69877419D01*
X182870738Y-69877419D02*
X182807435Y-69874057D01*
X182807435Y-69874057D02*
X182758815Y-69869804D01*
X182758815Y-69869804D02*
X182721396Y-69864502D01*
X182721396Y-69864502D02*
X182691691Y-69857995D01*
X182691691Y-69857995D02*
X182666216Y-69850127D01*
X182666216Y-69850127D02*
X182641486Y-69840741D01*
X182641486Y-69840741D02*
X182632812Y-69837250D01*
X182632812Y-69837250D02*
X182478819Y-69754446D01*
X182478819Y-69754446D02*
X182346394Y-69641279D01*
X182346394Y-69641279D02*
X182240587Y-69502797D01*
X182240587Y-69502797D02*
X182182289Y-69386726D01*
X182182289Y-69386726D02*
X182137616Y-69276231D01*
X182137616Y-69276231D02*
X182132427Y-66281962D01*
X182132427Y-66281962D02*
X182127238Y-63287692D01*
X182127238Y-63287692D02*
X181144396Y-63287692D01*
X181144396Y-63287692D02*
X180909725Y-63287616D01*
X180909725Y-63287616D02*
X180710571Y-63287156D01*
X180710571Y-63287156D02*
X180543373Y-63285966D01*
X180543373Y-63285966D02*
X180404573Y-63283701D01*
X180404573Y-63283701D02*
X180290609Y-63280013D01*
X180290609Y-63280013D02*
X180197922Y-63274558D01*
X180197922Y-63274558D02*
X180122952Y-63266988D01*
X180122952Y-63266988D02*
X180062139Y-63256957D01*
X180062139Y-63256957D02*
X180011922Y-63244121D01*
X180011922Y-63244121D02*
X179968743Y-63228131D01*
X179968743Y-63228131D02*
X179929040Y-63208643D01*
X179929040Y-63208643D02*
X179889253Y-63185309D01*
X179889253Y-63185309D02*
X179852540Y-63162085D01*
X179852540Y-63162085D02*
X179731884Y-63067584D01*
X179731884Y-63067584D02*
X179634428Y-62950910D01*
X179634428Y-62950910D02*
X179560544Y-62819695D01*
X179560544Y-62819695D02*
X179499923Y-62691769D01*
X179499923Y-62691769D02*
X179499923Y-62535937D01*
X179499923Y-62535937D02*
X179997654Y-62535937D01*
X179997654Y-62535937D02*
X180041866Y-62622177D01*
X180041866Y-62622177D02*
X180058148Y-62654482D01*
X180058148Y-62654482D02*
X180073346Y-62682045D01*
X180073346Y-62682045D02*
X180090516Y-62705242D01*
X180090516Y-62705242D02*
X180112711Y-62724449D01*
X180112711Y-62724449D02*
X180142985Y-62740041D01*
X180142985Y-62740041D02*
X180184392Y-62752394D01*
X180184392Y-62752394D02*
X180239986Y-62761883D01*
X180239986Y-62761883D02*
X180312820Y-62768885D01*
X180312820Y-62768885D02*
X180405949Y-62773774D01*
X180405949Y-62773774D02*
X180522427Y-62776928D01*
X180522427Y-62776928D02*
X180665308Y-62778721D01*
X180665308Y-62778721D02*
X180837645Y-62779529D01*
X180837645Y-62779529D02*
X181042493Y-62779729D01*
X181042493Y-62779729D02*
X181282906Y-62779694D01*
X181282906Y-62779694D02*
X181322208Y-62779692D01*
X181322208Y-62779692D02*
X181567959Y-62779734D01*
X181567959Y-62779734D02*
X181777689Y-62780035D01*
X181777689Y-62780035D02*
X181954456Y-62780861D01*
X181954456Y-62780861D02*
X182101315Y-62782476D01*
X182101315Y-62782476D02*
X182221324Y-62785145D01*
X182221324Y-62785145D02*
X182317538Y-62789133D01*
X182317538Y-62789133D02*
X182393015Y-62794704D01*
X182393015Y-62794704D02*
X182450810Y-62802123D01*
X182450810Y-62802123D02*
X182493981Y-62811656D01*
X182493981Y-62811656D02*
X182525584Y-62823566D01*
X182525584Y-62823566D02*
X182548675Y-62838119D01*
X182548675Y-62838119D02*
X182566311Y-62855579D01*
X182566311Y-62855579D02*
X182581548Y-62876212D01*
X182581548Y-62876212D02*
X182590365Y-62889543D01*
X182590365Y-62889543D02*
X182595051Y-62897949D01*
X182595051Y-62897949D02*
X182599320Y-62909413D01*
X182599320Y-62909413D02*
X182603201Y-62925748D01*
X182603201Y-62925748D02*
X182606717Y-62948767D01*
X182606717Y-62948767D02*
X182609896Y-62980280D01*
X182609896Y-62980280D02*
X182612763Y-63022101D01*
X182612763Y-63022101D02*
X182615345Y-63076042D01*
X182615345Y-63076042D02*
X182617666Y-63143915D01*
X182617666Y-63143915D02*
X182619754Y-63227532D01*
X182619754Y-63227532D02*
X182621634Y-63328706D01*
X182621634Y-63328706D02*
X182623332Y-63449249D01*
X182623332Y-63449249D02*
X182624874Y-63590972D01*
X182624874Y-63590972D02*
X182626286Y-63755689D01*
X182626286Y-63755689D02*
X182627593Y-63945212D01*
X182627593Y-63945212D02*
X182628823Y-64161352D01*
X182628823Y-64161352D02*
X182630001Y-64405923D01*
X182630001Y-64405923D02*
X182631152Y-64680735D01*
X182631152Y-64680735D02*
X182632303Y-64987603D01*
X182632303Y-64987603D02*
X182633480Y-65328337D01*
X182633480Y-65328337D02*
X182634709Y-65704750D01*
X182634709Y-65704750D02*
X182635846Y-66064746D01*
X182635846Y-66064746D02*
X182637129Y-66473211D01*
X182637129Y-66473211D02*
X182638320Y-66844416D01*
X182638320Y-66844416D02*
X182639446Y-67180176D01*
X182639446Y-67180176D02*
X182640538Y-67482308D01*
X182640538Y-67482308D02*
X182641622Y-67752627D01*
X182641622Y-67752627D02*
X182642729Y-67992951D01*
X182642729Y-67992951D02*
X182643886Y-68205094D01*
X182643886Y-68205094D02*
X182645122Y-68390873D01*
X182645122Y-68390873D02*
X182646466Y-68552105D01*
X182646466Y-68552105D02*
X182647947Y-68690604D01*
X182647947Y-68690604D02*
X182649592Y-68808188D01*
X182649592Y-68808188D02*
X182651432Y-68906672D01*
X182651432Y-68906672D02*
X182653494Y-68987873D01*
X182653494Y-68987873D02*
X182655807Y-69053607D01*
X182655807Y-69053607D02*
X182658399Y-69105689D01*
X182658399Y-69105689D02*
X182661300Y-69145936D01*
X182661300Y-69145936D02*
X182664538Y-69176165D01*
X182664538Y-69176165D02*
X182668141Y-69198190D01*
X182668141Y-69198190D02*
X182672138Y-69213828D01*
X182672138Y-69213828D02*
X182676559Y-69224896D01*
X182676559Y-69224896D02*
X182681430Y-69233209D01*
X182681430Y-69233209D02*
X182685900Y-69239402D01*
X182685900Y-69239402D02*
X182732430Y-69291566D01*
X182732430Y-69291566D02*
X182780117Y-69333639D01*
X182780117Y-69333639D02*
X182792372Y-69342078D01*
X182792372Y-69342078D02*
X182806829Y-69349284D01*
X182806829Y-69349284D02*
X182826567Y-69355385D01*
X182826567Y-69355385D02*
X182854666Y-69360509D01*
X182854666Y-69360509D02*
X182894205Y-69364783D01*
X182894205Y-69364783D02*
X182948265Y-69368336D01*
X182948265Y-69368336D02*
X183019924Y-69371295D01*
X183019924Y-69371295D02*
X183112262Y-69373789D01*
X183112262Y-69373789D02*
X183228360Y-69375945D01*
X183228360Y-69375945D02*
X183371295Y-69377891D01*
X183371295Y-69377891D02*
X183544150Y-69379755D01*
X183544150Y-69379755D02*
X183750002Y-69381666D01*
X183750002Y-69381666D02*
X183985051Y-69383692D01*
X183985051Y-69383692D02*
X185136051Y-69393462D01*
X185136051Y-69393462D02*
X185199910Y-69457334D01*
X185199910Y-69457334D02*
X185263770Y-69521206D01*
X185263770Y-69521206D02*
X185273539Y-72651872D01*
X185273539Y-72651872D02*
X185283308Y-75782539D01*
X185283308Y-75782539D02*
X185328628Y-75846078D01*
X185328628Y-75846078D02*
X185385929Y-75909531D01*
X185385929Y-75909531D02*
X185457605Y-75951796D01*
X185457605Y-75951796D02*
X185506859Y-75969380D01*
X185506859Y-75969380D02*
X185532764Y-75971406D01*
X185532764Y-75971406D02*
X185595170Y-75973293D01*
X185595170Y-75973293D02*
X185691500Y-75975026D01*
X185691500Y-75975026D02*
X185819179Y-75976592D01*
X185819179Y-75976592D02*
X185975631Y-75977977D01*
X185975631Y-75977977D02*
X186158279Y-75979165D01*
X186158279Y-75979165D02*
X186364548Y-75980144D01*
X186364548Y-75980144D02*
X186591862Y-75980900D01*
X186591862Y-75980900D02*
X186837644Y-75981418D01*
X186837644Y-75981418D02*
X187099319Y-75981683D01*
X187099319Y-75981683D02*
X187374310Y-75981683D01*
X187374310Y-75981683D02*
X187660042Y-75981403D01*
X187660042Y-75981403D02*
X187699766Y-75981343D01*
X187699766Y-75981343D02*
X188035012Y-75980801D01*
X188035012Y-75980801D02*
X188333391Y-75980276D01*
X188333391Y-75980276D02*
X188597113Y-75979723D01*
X188597113Y-75979723D02*
X188828387Y-75979099D01*
X188828387Y-75979099D02*
X189029424Y-75978359D01*
X189029424Y-75978359D02*
X189202432Y-75977457D01*
X189202432Y-75977457D02*
X189349623Y-75976350D01*
X189349623Y-75976350D02*
X189473205Y-75974993D01*
X189473205Y-75974993D02*
X189575388Y-75973342D01*
X189575388Y-75973342D02*
X189658383Y-75971351D01*
X189658383Y-75971351D02*
X189724399Y-75968977D01*
X189724399Y-75968977D02*
X189775646Y-75966175D01*
X189775646Y-75966175D02*
X189814334Y-75962900D01*
X189814334Y-75962900D02*
X189842672Y-75959109D01*
X189842672Y-75959109D02*
X189862870Y-75954755D01*
X189862870Y-75954755D02*
X189877138Y-75949795D01*
X189877138Y-75949795D02*
X189887686Y-75944184D01*
X189887686Y-75944184D02*
X189896724Y-75937879D01*
X189896724Y-75937879D02*
X189897843Y-75937050D01*
X189897843Y-75937050D02*
X189947100Y-75891970D01*
X189947100Y-75891970D02*
X189993314Y-75836818D01*
X189993314Y-75836818D02*
X189996962Y-75831583D01*
X189996962Y-75831583D02*
X190040923Y-75766990D01*
X190040923Y-75766990D02*
X190040923Y-71627098D01*
X190040923Y-71627098D02*
X190040952Y-71147512D01*
X190040952Y-71147512D02*
X190041009Y-70705451D01*
X190041009Y-70705451D02*
X190041052Y-70299366D01*
X190041052Y-70299366D02*
X190041037Y-69927705D01*
X190041037Y-69927705D02*
X190040922Y-69588918D01*
X190040922Y-69588918D02*
X190040662Y-69281454D01*
X190040662Y-69281454D02*
X190040216Y-69003762D01*
X190040216Y-69003762D02*
X190039540Y-68754291D01*
X190039540Y-68754291D02*
X190038591Y-68531491D01*
X190038591Y-68531491D02*
X190037326Y-68333810D01*
X190037326Y-68333810D02*
X190035702Y-68159699D01*
X190035702Y-68159699D02*
X190033676Y-68007606D01*
X190033676Y-68007606D02*
X190031204Y-67875980D01*
X190031204Y-67875980D02*
X190028244Y-67763271D01*
X190028244Y-67763271D02*
X190024752Y-67667927D01*
X190024752Y-67667927D02*
X190020686Y-67588399D01*
X190020686Y-67588399D02*
X190016003Y-67523135D01*
X190016003Y-67523135D02*
X190010658Y-67470584D01*
X190010658Y-67470584D02*
X190004610Y-67429196D01*
X190004610Y-67429196D02*
X189997815Y-67397420D01*
X189997815Y-67397420D02*
X189990231Y-67373705D01*
X189990231Y-67373705D02*
X189981813Y-67356501D01*
X189981813Y-67356501D02*
X189972519Y-67344256D01*
X189972519Y-67344256D02*
X189962306Y-67335420D01*
X189962306Y-67335420D02*
X189951131Y-67328441D01*
X189951131Y-67328441D02*
X189938950Y-67321770D01*
X189938950Y-67321770D02*
X189925721Y-67313855D01*
X189925721Y-67313855D02*
X189921019Y-67310635D01*
X189921019Y-67310635D02*
X189855308Y-67263769D01*
X189855308Y-67263769D02*
X188712308Y-67254000D01*
X188712308Y-67254000D02*
X188471226Y-67251874D01*
X188471226Y-67251874D02*
X188266149Y-67249867D01*
X188266149Y-67249867D02*
X188094007Y-67247861D01*
X188094007Y-67247861D02*
X187951730Y-67245741D01*
X187951730Y-67245741D02*
X187836245Y-67243391D01*
X187836245Y-67243391D02*
X187744483Y-67240696D01*
X187744483Y-67240696D02*
X187673373Y-67237539D01*
X187673373Y-67237539D02*
X187619844Y-67233804D01*
X187619844Y-67233804D02*
X187580825Y-67229376D01*
X187580825Y-67229376D02*
X187553246Y-67224138D01*
X187553246Y-67224138D02*
X187534035Y-67217975D01*
X187534035Y-67217975D02*
X187520123Y-67210771D01*
X187520123Y-67210771D02*
X187517260Y-67208894D01*
X187517260Y-67208894D02*
X187502426Y-67199687D01*
X187502426Y-67199687D02*
X187488933Y-67191944D01*
X187488933Y-67191944D02*
X187476716Y-67183866D01*
X187476716Y-67183866D02*
X187465713Y-67173653D01*
X187465713Y-67173653D02*
X187455862Y-67159502D01*
X187455862Y-67159502D02*
X187447097Y-67139615D01*
X187447097Y-67139615D02*
X187439357Y-67112190D01*
X187439357Y-67112190D02*
X187432578Y-67075426D01*
X187432578Y-67075426D02*
X187426697Y-67027524D01*
X187426697Y-67027524D02*
X187421650Y-66966682D01*
X187421650Y-66966682D02*
X187417374Y-66891100D01*
X187417374Y-66891100D02*
X187413807Y-66798977D01*
X187413807Y-66798977D02*
X187410885Y-66688513D01*
X187410885Y-66688513D02*
X187408544Y-66557907D01*
X187408544Y-66557907D02*
X187406722Y-66405358D01*
X187406722Y-66405358D02*
X187405355Y-66229067D01*
X187405355Y-66229067D02*
X187404380Y-66027231D01*
X187404380Y-66027231D02*
X187403734Y-65798051D01*
X187403734Y-65798051D02*
X187403353Y-65539726D01*
X187403353Y-65539726D02*
X187403175Y-65250456D01*
X187403175Y-65250456D02*
X187403136Y-64928439D01*
X187403136Y-64928439D02*
X187403172Y-64571876D01*
X187403172Y-64571876D02*
X187403221Y-64178965D01*
X187403221Y-64178965D02*
X187403231Y-63961477D01*
X187403231Y-63961477D02*
X187403231Y-60880013D01*
X187403231Y-60880013D02*
X187362313Y-60807208D01*
X187362313Y-60807208D02*
X187345954Y-60777434D01*
X187345954Y-60777434D02*
X187330895Y-60751969D01*
X187330895Y-60751969D02*
X187314120Y-60730452D01*
X187314120Y-60730452D02*
X187292614Y-60712522D01*
X187292614Y-60712522D02*
X187263362Y-60697815D01*
X187263362Y-60697815D02*
X187223350Y-60685971D01*
X187223350Y-60685971D02*
X187169563Y-60676628D01*
X187169563Y-60676628D02*
X187098985Y-60669424D01*
X187098985Y-60669424D02*
X187008603Y-60663997D01*
X187008603Y-60663997D02*
X186895400Y-60659985D01*
X186895400Y-60659985D02*
X186756362Y-60657027D01*
X186756362Y-60657027D02*
X186588474Y-60654761D01*
X186588474Y-60654761D02*
X186388721Y-60652824D01*
X186388721Y-60652824D02*
X186154089Y-60650856D01*
X186154089Y-60650856D02*
X186052225Y-60650000D01*
X186052225Y-60650000D02*
X185811807Y-60647912D01*
X185811807Y-60647912D02*
X185607405Y-60645989D01*
X185607405Y-60645989D02*
X185435960Y-60644105D01*
X185435960Y-60644105D02*
X185294413Y-60642135D01*
X185294413Y-60642135D02*
X185179703Y-60639952D01*
X185179703Y-60639952D02*
X185088771Y-60637432D01*
X185088771Y-60637432D02*
X185018558Y-60634448D01*
X185018558Y-60634448D02*
X184966004Y-60630875D01*
X184966004Y-60630875D02*
X184928050Y-60626588D01*
X184928050Y-60626588D02*
X184901636Y-60621460D01*
X184901636Y-60621460D02*
X184883702Y-60615367D01*
X184883702Y-60615367D02*
X184871190Y-60608181D01*
X184871190Y-60608181D02*
X184862567Y-60601154D01*
X184862567Y-60601154D02*
X184842469Y-60582686D01*
X184842469Y-60582686D02*
X184825358Y-60563863D01*
X184825358Y-60563863D02*
X184810993Y-60541561D01*
X184810993Y-60541561D02*
X184799134Y-60512655D01*
X184799134Y-60512655D02*
X184789542Y-60474022D01*
X184789542Y-60474022D02*
X184781974Y-60422538D01*
X184781974Y-60422538D02*
X184776192Y-60355077D01*
X184776192Y-60355077D02*
X184771956Y-60268517D01*
X184771956Y-60268517D02*
X184769024Y-60159733D01*
X184769024Y-60159733D02*
X184767157Y-60025601D01*
X184767157Y-60025601D02*
X184766114Y-59862997D01*
X184766114Y-59862997D02*
X184765656Y-59668796D01*
X184765656Y-59668796D02*
X184765542Y-59439875D01*
X184765542Y-59439875D02*
X184765539Y-59339326D01*
X184765539Y-59339326D02*
X184765515Y-59104704D01*
X184765515Y-59104704D02*
X184765367Y-58905938D01*
X184765367Y-58905938D02*
X184764978Y-58739807D01*
X184764978Y-58739807D02*
X184764229Y-58603091D01*
X184764229Y-58603091D02*
X184763003Y-58492568D01*
X184763003Y-58492568D02*
X184761185Y-58405017D01*
X184761185Y-58405017D02*
X184758655Y-58337218D01*
X184758655Y-58337218D02*
X184755298Y-58285950D01*
X184755298Y-58285950D02*
X184750996Y-58247993D01*
X184750996Y-58247993D02*
X184745632Y-58220124D01*
X184745632Y-58220124D02*
X184739088Y-58199123D01*
X184739088Y-58199123D02*
X184731248Y-58181770D01*
X184731248Y-58181770D02*
X184722865Y-58166393D01*
X184722865Y-58166393D02*
X184658542Y-58089743D01*
X184658542Y-58089743D02*
X184598941Y-58051133D01*
X184598941Y-58051133D02*
X184585640Y-58045003D01*
X184585640Y-58045003D02*
X184571026Y-58039552D01*
X184571026Y-58039552D02*
X184552872Y-58034747D01*
X184552872Y-58034747D02*
X184528950Y-58030552D01*
X184528950Y-58030552D02*
X184497034Y-58026935D01*
X184497034Y-58026935D02*
X184454897Y-58023861D01*
X184454897Y-58023861D02*
X184400310Y-58021296D01*
X184400310Y-58021296D02*
X184331048Y-58019206D01*
X184331048Y-58019206D02*
X184244882Y-58017558D01*
X184244882Y-58017558D02*
X184139586Y-58016317D01*
X184139586Y-58016317D02*
X184012932Y-58015449D01*
X184012932Y-58015449D02*
X183862693Y-58014921D01*
X183862693Y-58014921D02*
X183686642Y-58014698D01*
X183686642Y-58014698D02*
X183482551Y-58014747D01*
X183482551Y-58014747D02*
X183248195Y-58015033D01*
X183248195Y-58015033D02*
X182981344Y-58015522D01*
X182981344Y-58015522D02*
X182679773Y-58016182D01*
X182679773Y-58016182D02*
X182357044Y-58016939D01*
X182357044Y-58016939D02*
X182020307Y-58017748D01*
X182020307Y-58017748D02*
X181720449Y-58018515D01*
X181720449Y-58018515D02*
X181455268Y-58019282D01*
X181455268Y-58019282D02*
X181222566Y-58020097D01*
X181222566Y-58020097D02*
X181020144Y-58021004D01*
X181020144Y-58021004D02*
X180845801Y-58022047D01*
X180845801Y-58022047D02*
X180697339Y-58023273D01*
X180697339Y-58023273D02*
X180572559Y-58024726D01*
X180572559Y-58024726D02*
X180469260Y-58026451D01*
X180469260Y-58026451D02*
X180385244Y-58028494D01*
X180385244Y-58028494D02*
X180318311Y-58030899D01*
X180318311Y-58030899D02*
X180266262Y-58033712D01*
X180266262Y-58033712D02*
X180226897Y-58036977D01*
X180226897Y-58036977D02*
X180198017Y-58040741D01*
X180198017Y-58040741D02*
X180177424Y-58045047D01*
X180177424Y-58045047D02*
X180162916Y-58049942D01*
X180162916Y-58049942D02*
X180152296Y-58055470D01*
X180152296Y-58055470D02*
X180143363Y-58061676D01*
X180143363Y-58061676D02*
X180142444Y-58062361D01*
X180142444Y-58062361D02*
X180090279Y-58108899D01*
X180090279Y-58108899D02*
X180048208Y-58156597D01*
X180048208Y-58156597D02*
X180041931Y-58165477D01*
X180041931Y-58165477D02*
X180036337Y-58175815D01*
X180036337Y-58175815D02*
X180031381Y-58189809D01*
X180031381Y-58189809D02*
X180027016Y-58209659D01*
X180027016Y-58209659D02*
X180023199Y-58237562D01*
X180023199Y-58237562D02*
X180019884Y-58275716D01*
X180019884Y-58275716D02*
X180017027Y-58326321D01*
X180017027Y-58326321D02*
X180014581Y-58391573D01*
X180014581Y-58391573D02*
X180012503Y-58473672D01*
X180012503Y-58473672D02*
X180010746Y-58574815D01*
X180010746Y-58574815D02*
X180009267Y-58697202D01*
X180009267Y-58697202D02*
X180008019Y-58843029D01*
X180008019Y-58843029D02*
X180006959Y-59014496D01*
X180006959Y-59014496D02*
X180006040Y-59213801D01*
X180006040Y-59213801D02*
X180005218Y-59443142D01*
X180005218Y-59443142D02*
X180004448Y-59704717D01*
X180004448Y-59704717D02*
X180003685Y-60000725D01*
X180003685Y-60000725D02*
X180002884Y-60333363D01*
X180002884Y-60333363D02*
X180002789Y-60373243D01*
X180002789Y-60373243D02*
X179997654Y-62535937D01*
X179997654Y-62535937D02*
X179499923Y-62535937D01*
X179499923Y-62535937D02*
X179499923Y-58119769D01*
X179499923Y-58119769D02*
X179544596Y-58009274D01*
X179544596Y-58009274D02*
X179627400Y-57855280D01*
X179627400Y-57855280D02*
X179740568Y-57722855D01*
X179740568Y-57722855D02*
X179879049Y-57617048D01*
X179879049Y-57617048D02*
X179995120Y-57558750D01*
X179995120Y-57558750D02*
X180105616Y-57514077D01*
X180105616Y-57514077D02*
X182323055Y-57508785D01*
X182323055Y-57508785D02*
X182728344Y-57508005D01*
X182728344Y-57508005D02*
X183094607Y-57507693D01*
X183094607Y-57507693D02*
X183421893Y-57507850D01*
X183421893Y-57507850D02*
X183421893Y-57507850D01*
G36*
X179544596Y-58009274D02*
G01*
X179627400Y-57855280D01*
X179740568Y-57722855D01*
X179879049Y-57617048D01*
X179995120Y-57558750D01*
X180105616Y-57514077D01*
X182323055Y-57508785D01*
X182728344Y-57508005D01*
X183094607Y-57507693D01*
X183421893Y-57507850D01*
X183710251Y-57508475D01*
X183959730Y-57509569D01*
X184170379Y-57511133D01*
X184342245Y-57513167D01*
X184475379Y-57515671D01*
X184569828Y-57518645D01*
X184625641Y-57522089D01*
X184638363Y-57523834D01*
X184805796Y-57577860D01*
X184954390Y-57664979D01*
X185080415Y-57782241D01*
X185180137Y-57926698D01*
X185201381Y-57968527D01*
X185263770Y-58100231D01*
X185269318Y-59121115D01*
X185274866Y-60142000D01*
X186219151Y-60142000D01*
X186431166Y-60142416D01*
X186627337Y-60143618D01*
X186804133Y-60145541D01*
X186958022Y-60148118D01*
X187085472Y-60151283D01*
X187182953Y-60154970D01*
X187246931Y-60159112D01*
X187267250Y-60161688D01*
X187434972Y-60212601D01*
X187584052Y-60296810D01*
X187710970Y-60411578D01*
X187812205Y-60554166D01*
X187839073Y-60606219D01*
X187901462Y-60737923D01*
X187906590Y-63741962D01*
X187911719Y-66746000D01*
X188894621Y-66746000D01*
X189121439Y-66746139D01*
X189312637Y-66746624D01*
X189471671Y-66747554D01*
X189601999Y-66749029D01*
X189707076Y-66751149D01*
X189790359Y-66754014D01*
X189855305Y-66757722D01*
X189905369Y-66762375D01*
X189944008Y-66768072D01*
X189974678Y-66774912D01*
X189983646Y-66777440D01*
X190145847Y-66844831D01*
X190285377Y-66942662D01*
X190399009Y-67067696D01*
X190483518Y-67216700D01*
X190518063Y-67313335D01*
X190521614Y-67328216D01*
X190524880Y-67348269D01*
X190527870Y-67375039D01*
X190530595Y-67410076D01*
X190533062Y-67454925D01*
X190535282Y-67511134D01*
X190537264Y-67580250D01*
X190539016Y-67663821D01*
X190540550Y-67763393D01*
X190541872Y-67880514D01*
X190542994Y-68016731D01*
X190543924Y-68173592D01*
X190544672Y-68352643D01*
X190545246Y-68555432D01*
X190545657Y-68783507D01*
X190545913Y-69038413D01*
X190546024Y-69321699D01*
X190545999Y-69634911D01*
X190545848Y-69979598D01*
X190545579Y-70357306D01*
X190545202Y-70769582D01*
X190544727Y-71217974D01*
X190544214Y-71660642D01*
X190539154Y-75899769D01*
X190476450Y-76032148D01*
X190386163Y-76179419D01*
X190268551Y-76302287D01*
X190128703Y-76396872D01*
X189971708Y-76459296D01*
X189893385Y-76476433D01*
X189857536Y-76479078D01*
X189785775Y-76481494D01*
X189681235Y-76483683D01*
X189547045Y-76485644D01*
X189386337Y-76487379D01*
X189202242Y-76488888D01*
X188997890Y-76490171D01*
X188776412Y-76491230D01*
X188540940Y-76492064D01*
X188294603Y-76492675D01*
X188040532Y-76493063D01*
X187781860Y-76493228D01*
X187521715Y-76493172D01*
X187263229Y-76492895D01*
X187009534Y-76492397D01*
X186763759Y-76491680D01*
X186529036Y-76490743D01*
X186308495Y-76489587D01*
X186105267Y-76488213D01*
X185922483Y-76486622D01*
X185763274Y-76484814D01*
X185630771Y-76482790D01*
X185528104Y-76480550D01*
X185458405Y-76478095D01*
X185425557Y-76475561D01*
X185266136Y-76429453D01*
X185119435Y-76349232D01*
X184990959Y-76239191D01*
X184886213Y-76103623D01*
X184840549Y-76019387D01*
X184775308Y-75880231D01*
X184770060Y-72886786D01*
X184764813Y-69893340D01*
X183754060Y-69887632D01*
X183529476Y-69886332D01*
X183340483Y-69885081D01*
X183183598Y-69883720D01*
X183055335Y-69882094D01*
X182952210Y-69880046D01*
X182870738Y-69877419D01*
X182807435Y-69874057D01*
X182758815Y-69869804D01*
X182721396Y-69864502D01*
X182691691Y-69857995D01*
X182666216Y-69850127D01*
X182641486Y-69840741D01*
X182632812Y-69837250D01*
X182478819Y-69754446D01*
X182346394Y-69641279D01*
X182240587Y-69502797D01*
X182182289Y-69386726D01*
X182137616Y-69276231D01*
X182132427Y-66281962D01*
X182127238Y-63287692D01*
X181144396Y-63287692D01*
X180909725Y-63287616D01*
X180710571Y-63287156D01*
X180543373Y-63285966D01*
X180404573Y-63283701D01*
X180290609Y-63280013D01*
X180197922Y-63274558D01*
X180122952Y-63266988D01*
X180062139Y-63256957D01*
X180011922Y-63244121D01*
X179968743Y-63228131D01*
X179929040Y-63208643D01*
X179889253Y-63185309D01*
X179852540Y-63162085D01*
X179731884Y-63067584D01*
X179634428Y-62950910D01*
X179560544Y-62819695D01*
X179499923Y-62691769D01*
X179499923Y-62535937D01*
X179997654Y-62535937D01*
X180041866Y-62622177D01*
X180058148Y-62654482D01*
X180073346Y-62682045D01*
X180090516Y-62705242D01*
X180112711Y-62724449D01*
X180142985Y-62740041D01*
X180184392Y-62752394D01*
X180239986Y-62761883D01*
X180312820Y-62768885D01*
X180405949Y-62773774D01*
X180522427Y-62776928D01*
X180665308Y-62778721D01*
X180837645Y-62779529D01*
X181042493Y-62779729D01*
X181282906Y-62779694D01*
X181322208Y-62779692D01*
X181567959Y-62779734D01*
X181777689Y-62780035D01*
X181954456Y-62780861D01*
X182101315Y-62782476D01*
X182221324Y-62785145D01*
X182317538Y-62789133D01*
X182393015Y-62794704D01*
X182450810Y-62802123D01*
X182493981Y-62811656D01*
X182525584Y-62823566D01*
X182548675Y-62838119D01*
X182566311Y-62855579D01*
X182581548Y-62876212D01*
X182590365Y-62889543D01*
X182595051Y-62897949D01*
X182599320Y-62909413D01*
X182603201Y-62925748D01*
X182606717Y-62948767D01*
X182609896Y-62980280D01*
X182612763Y-63022101D01*
X182615345Y-63076042D01*
X182617666Y-63143915D01*
X182619754Y-63227532D01*
X182621634Y-63328706D01*
X182623332Y-63449249D01*
X182624874Y-63590972D01*
X182626286Y-63755689D01*
X182627593Y-63945212D01*
X182628823Y-64161352D01*
X182630001Y-64405923D01*
X182631152Y-64680735D01*
X182632303Y-64987603D01*
X182633480Y-65328337D01*
X182634709Y-65704750D01*
X182635846Y-66064746D01*
X182637129Y-66473211D01*
X182638320Y-66844416D01*
X182639446Y-67180176D01*
X182640538Y-67482308D01*
X182641622Y-67752627D01*
X182642729Y-67992951D01*
X182643886Y-68205094D01*
X182645122Y-68390873D01*
X182646466Y-68552105D01*
X182647947Y-68690604D01*
X182649592Y-68808188D01*
X182651432Y-68906672D01*
X182653494Y-68987873D01*
X182655807Y-69053607D01*
X182658399Y-69105689D01*
X182661300Y-69145936D01*
X182664538Y-69176165D01*
X182668141Y-69198190D01*
X182672138Y-69213828D01*
X182676559Y-69224896D01*
X182681430Y-69233209D01*
X182685900Y-69239402D01*
X182732430Y-69291566D01*
X182780117Y-69333639D01*
X182792372Y-69342078D01*
X182806829Y-69349284D01*
X182826567Y-69355385D01*
X182854666Y-69360509D01*
X182894205Y-69364783D01*
X182948265Y-69368336D01*
X183019924Y-69371295D01*
X183112262Y-69373789D01*
X183228360Y-69375945D01*
X183371295Y-69377891D01*
X183544150Y-69379755D01*
X183750002Y-69381666D01*
X183985051Y-69383692D01*
X185136051Y-69393462D01*
X185199910Y-69457334D01*
X185263770Y-69521206D01*
X185273539Y-72651872D01*
X185283308Y-75782539D01*
X185328628Y-75846078D01*
X185385929Y-75909531D01*
X185457605Y-75951796D01*
X185506859Y-75969380D01*
X185532764Y-75971406D01*
X185595170Y-75973293D01*
X185691500Y-75975026D01*
X185819179Y-75976592D01*
X185975631Y-75977977D01*
X186158279Y-75979165D01*
X186364548Y-75980144D01*
X186591862Y-75980900D01*
X186837644Y-75981418D01*
X187099319Y-75981683D01*
X187374310Y-75981683D01*
X187660042Y-75981403D01*
X187699766Y-75981343D01*
X188035012Y-75980801D01*
X188333391Y-75980276D01*
X188597113Y-75979723D01*
X188828387Y-75979099D01*
X189029424Y-75978359D01*
X189202432Y-75977457D01*
X189349623Y-75976350D01*
X189473205Y-75974993D01*
X189575388Y-75973342D01*
X189658383Y-75971351D01*
X189724399Y-75968977D01*
X189775646Y-75966175D01*
X189814334Y-75962900D01*
X189842672Y-75959109D01*
X189862870Y-75954755D01*
X189877138Y-75949795D01*
X189887686Y-75944184D01*
X189896724Y-75937879D01*
X189897843Y-75937050D01*
X189947100Y-75891970D01*
X189993314Y-75836818D01*
X189996962Y-75831583D01*
X190040923Y-75766990D01*
X190040923Y-71627098D01*
X190040952Y-71147512D01*
X190041009Y-70705451D01*
X190041052Y-70299366D01*
X190041037Y-69927705D01*
X190040922Y-69588918D01*
X190040662Y-69281454D01*
X190040216Y-69003762D01*
X190039540Y-68754291D01*
X190038591Y-68531491D01*
X190037326Y-68333810D01*
X190035702Y-68159699D01*
X190033676Y-68007606D01*
X190031204Y-67875980D01*
X190028244Y-67763271D01*
X190024752Y-67667927D01*
X190020686Y-67588399D01*
X190016003Y-67523135D01*
X190010658Y-67470584D01*
X190004610Y-67429196D01*
X189997815Y-67397420D01*
X189990231Y-67373705D01*
X189981813Y-67356501D01*
X189972519Y-67344256D01*
X189962306Y-67335420D01*
X189951131Y-67328441D01*
X189938950Y-67321770D01*
X189925721Y-67313855D01*
X189921019Y-67310635D01*
X189855308Y-67263769D01*
X188712308Y-67254000D01*
X188471226Y-67251874D01*
X188266149Y-67249867D01*
X188094007Y-67247861D01*
X187951730Y-67245741D01*
X187836245Y-67243391D01*
X187744483Y-67240696D01*
X187673373Y-67237539D01*
X187619844Y-67233804D01*
X187580825Y-67229376D01*
X187553246Y-67224138D01*
X187534035Y-67217975D01*
X187520123Y-67210771D01*
X187517260Y-67208894D01*
X187502426Y-67199687D01*
X187488933Y-67191944D01*
X187476716Y-67183866D01*
X187465713Y-67173653D01*
X187455862Y-67159502D01*
X187447097Y-67139615D01*
X187439357Y-67112190D01*
X187432578Y-67075426D01*
X187426697Y-67027524D01*
X187421650Y-66966682D01*
X187417374Y-66891100D01*
X187413807Y-66798977D01*
X187410885Y-66688513D01*
X187408544Y-66557907D01*
X187406722Y-66405358D01*
X187405355Y-66229067D01*
X187404380Y-66027231D01*
X187403734Y-65798051D01*
X187403353Y-65539726D01*
X187403175Y-65250456D01*
X187403136Y-64928439D01*
X187403172Y-64571876D01*
X187403221Y-64178965D01*
X187403231Y-63961477D01*
X187403231Y-60880013D01*
X187362313Y-60807208D01*
X187345954Y-60777434D01*
X187330895Y-60751969D01*
X187314120Y-60730452D01*
X187292614Y-60712522D01*
X187263362Y-60697815D01*
X187223350Y-60685971D01*
X187169563Y-60676628D01*
X187098985Y-60669424D01*
X187008603Y-60663997D01*
X186895400Y-60659985D01*
X186756362Y-60657027D01*
X186588474Y-60654761D01*
X186388721Y-60652824D01*
X186154089Y-60650856D01*
X186052225Y-60650000D01*
X185811807Y-60647912D01*
X185607405Y-60645989D01*
X185435960Y-60644105D01*
X185294413Y-60642135D01*
X185179703Y-60639952D01*
X185088771Y-60637432D01*
X185018558Y-60634448D01*
X184966004Y-60630875D01*
X184928050Y-60626588D01*
X184901636Y-60621460D01*
X184883702Y-60615367D01*
X184871190Y-60608181D01*
X184862567Y-60601154D01*
X184842469Y-60582686D01*
X184825358Y-60563863D01*
X184810993Y-60541561D01*
X184799134Y-60512655D01*
X184789542Y-60474022D01*
X184781974Y-60422538D01*
X184776192Y-60355077D01*
X184771956Y-60268517D01*
X184769024Y-60159733D01*
X184767157Y-60025601D01*
X184766114Y-59862997D01*
X184765656Y-59668796D01*
X184765542Y-59439875D01*
X184765539Y-59339326D01*
X184765515Y-59104704D01*
X184765367Y-58905938D01*
X184764978Y-58739807D01*
X184764229Y-58603091D01*
X184763003Y-58492568D01*
X184761185Y-58405017D01*
X184758655Y-58337218D01*
X184755298Y-58285950D01*
X184750996Y-58247993D01*
X184745632Y-58220124D01*
X184739088Y-58199123D01*
X184731248Y-58181770D01*
X184722865Y-58166393D01*
X184658542Y-58089743D01*
X184598941Y-58051133D01*
X184585640Y-58045003D01*
X184571026Y-58039552D01*
X184552872Y-58034747D01*
X184528950Y-58030552D01*
X184497034Y-58026935D01*
X184454897Y-58023861D01*
X184400310Y-58021296D01*
X184331048Y-58019206D01*
X184244882Y-58017558D01*
X184139586Y-58016317D01*
X184012932Y-58015449D01*
X183862693Y-58014921D01*
X183686642Y-58014698D01*
X183482551Y-58014747D01*
X183248195Y-58015033D01*
X182981344Y-58015522D01*
X182679773Y-58016182D01*
X182357044Y-58016939D01*
X182020307Y-58017748D01*
X181720449Y-58018515D01*
X181455268Y-58019282D01*
X181222566Y-58020097D01*
X181020144Y-58021004D01*
X180845801Y-58022047D01*
X180697339Y-58023273D01*
X180572559Y-58024726D01*
X180469260Y-58026451D01*
X180385244Y-58028494D01*
X180318311Y-58030899D01*
X180266262Y-58033712D01*
X180226897Y-58036977D01*
X180198017Y-58040741D01*
X180177424Y-58045047D01*
X180162916Y-58049942D01*
X180152296Y-58055470D01*
X180143363Y-58061676D01*
X180142444Y-58062361D01*
X180090279Y-58108899D01*
X180048208Y-58156597D01*
X180041931Y-58165477D01*
X180036337Y-58175815D01*
X180031381Y-58189809D01*
X180027016Y-58209659D01*
X180023199Y-58237562D01*
X180019884Y-58275716D01*
X180017027Y-58326321D01*
X180014581Y-58391573D01*
X180012503Y-58473672D01*
X180010746Y-58574815D01*
X180009267Y-58697202D01*
X180008019Y-58843029D01*
X180006959Y-59014496D01*
X180006040Y-59213801D01*
X180005218Y-59443142D01*
X180004448Y-59704717D01*
X180003685Y-60000725D01*
X180002884Y-60333363D01*
X180002789Y-60373243D01*
X179997654Y-62535937D01*
X179499923Y-62535937D01*
X179499923Y-58119769D01*
X179544596Y-58009274D01*
G37*
X179544596Y-58009274D02*
X179627400Y-57855280D01*
X179740568Y-57722855D01*
X179879049Y-57617048D01*
X179995120Y-57558750D01*
X180105616Y-57514077D01*
X182323055Y-57508785D01*
X182728344Y-57508005D01*
X183094607Y-57507693D01*
X183421893Y-57507850D01*
X183710251Y-57508475D01*
X183959730Y-57509569D01*
X184170379Y-57511133D01*
X184342245Y-57513167D01*
X184475379Y-57515671D01*
X184569828Y-57518645D01*
X184625641Y-57522089D01*
X184638363Y-57523834D01*
X184805796Y-57577860D01*
X184954390Y-57664979D01*
X185080415Y-57782241D01*
X185180137Y-57926698D01*
X185201381Y-57968527D01*
X185263770Y-58100231D01*
X185269318Y-59121115D01*
X185274866Y-60142000D01*
X186219151Y-60142000D01*
X186431166Y-60142416D01*
X186627337Y-60143618D01*
X186804133Y-60145541D01*
X186958022Y-60148118D01*
X187085472Y-60151283D01*
X187182953Y-60154970D01*
X187246931Y-60159112D01*
X187267250Y-60161688D01*
X187434972Y-60212601D01*
X187584052Y-60296810D01*
X187710970Y-60411578D01*
X187812205Y-60554166D01*
X187839073Y-60606219D01*
X187901462Y-60737923D01*
X187906590Y-63741962D01*
X187911719Y-66746000D01*
X188894621Y-66746000D01*
X189121439Y-66746139D01*
X189312637Y-66746624D01*
X189471671Y-66747554D01*
X189601999Y-66749029D01*
X189707076Y-66751149D01*
X189790359Y-66754014D01*
X189855305Y-66757722D01*
X189905369Y-66762375D01*
X189944008Y-66768072D01*
X189974678Y-66774912D01*
X189983646Y-66777440D01*
X190145847Y-66844831D01*
X190285377Y-66942662D01*
X190399009Y-67067696D01*
X190483518Y-67216700D01*
X190518063Y-67313335D01*
X190521614Y-67328216D01*
X190524880Y-67348269D01*
X190527870Y-67375039D01*
X190530595Y-67410076D01*
X190533062Y-67454925D01*
X190535282Y-67511134D01*
X190537264Y-67580250D01*
X190539016Y-67663821D01*
X190540550Y-67763393D01*
X190541872Y-67880514D01*
X190542994Y-68016731D01*
X190543924Y-68173592D01*
X190544672Y-68352643D01*
X190545246Y-68555432D01*
X190545657Y-68783507D01*
X190545913Y-69038413D01*
X190546024Y-69321699D01*
X190545999Y-69634911D01*
X190545848Y-69979598D01*
X190545579Y-70357306D01*
X190545202Y-70769582D01*
X190544727Y-71217974D01*
X190544214Y-71660642D01*
X190539154Y-75899769D01*
X190476450Y-76032148D01*
X190386163Y-76179419D01*
X190268551Y-76302287D01*
X190128703Y-76396872D01*
X189971708Y-76459296D01*
X189893385Y-76476433D01*
X189857536Y-76479078D01*
X189785775Y-76481494D01*
X189681235Y-76483683D01*
X189547045Y-76485644D01*
X189386337Y-76487379D01*
X189202242Y-76488888D01*
X188997890Y-76490171D01*
X188776412Y-76491230D01*
X188540940Y-76492064D01*
X188294603Y-76492675D01*
X188040532Y-76493063D01*
X187781860Y-76493228D01*
X187521715Y-76493172D01*
X187263229Y-76492895D01*
X187009534Y-76492397D01*
X186763759Y-76491680D01*
X186529036Y-76490743D01*
X186308495Y-76489587D01*
X186105267Y-76488213D01*
X185922483Y-76486622D01*
X185763274Y-76484814D01*
X185630771Y-76482790D01*
X185528104Y-76480550D01*
X185458405Y-76478095D01*
X185425557Y-76475561D01*
X185266136Y-76429453D01*
X185119435Y-76349232D01*
X184990959Y-76239191D01*
X184886213Y-76103623D01*
X184840549Y-76019387D01*
X184775308Y-75880231D01*
X184770060Y-72886786D01*
X184764813Y-69893340D01*
X183754060Y-69887632D01*
X183529476Y-69886332D01*
X183340483Y-69885081D01*
X183183598Y-69883720D01*
X183055335Y-69882094D01*
X182952210Y-69880046D01*
X182870738Y-69877419D01*
X182807435Y-69874057D01*
X182758815Y-69869804D01*
X182721396Y-69864502D01*
X182691691Y-69857995D01*
X182666216Y-69850127D01*
X182641486Y-69840741D01*
X182632812Y-69837250D01*
X182478819Y-69754446D01*
X182346394Y-69641279D01*
X182240587Y-69502797D01*
X182182289Y-69386726D01*
X182137616Y-69276231D01*
X182132427Y-66281962D01*
X182127238Y-63287692D01*
X181144396Y-63287692D01*
X180909725Y-63287616D01*
X180710571Y-63287156D01*
X180543373Y-63285966D01*
X180404573Y-63283701D01*
X180290609Y-63280013D01*
X180197922Y-63274558D01*
X180122952Y-63266988D01*
X180062139Y-63256957D01*
X180011922Y-63244121D01*
X179968743Y-63228131D01*
X179929040Y-63208643D01*
X179889253Y-63185309D01*
X179852540Y-63162085D01*
X179731884Y-63067584D01*
X179634428Y-62950910D01*
X179560544Y-62819695D01*
X179499923Y-62691769D01*
X179499923Y-62535937D01*
X179997654Y-62535937D01*
X180041866Y-62622177D01*
X180058148Y-62654482D01*
X180073346Y-62682045D01*
X180090516Y-62705242D01*
X180112711Y-62724449D01*
X180142985Y-62740041D01*
X180184392Y-62752394D01*
X180239986Y-62761883D01*
X180312820Y-62768885D01*
X180405949Y-62773774D01*
X180522427Y-62776928D01*
X180665308Y-62778721D01*
X180837645Y-62779529D01*
X181042493Y-62779729D01*
X181282906Y-62779694D01*
X181322208Y-62779692D01*
X181567959Y-62779734D01*
X181777689Y-62780035D01*
X181954456Y-62780861D01*
X182101315Y-62782476D01*
X182221324Y-62785145D01*
X182317538Y-62789133D01*
X182393015Y-62794704D01*
X182450810Y-62802123D01*
X182493981Y-62811656D01*
X182525584Y-62823566D01*
X182548675Y-62838119D01*
X182566311Y-62855579D01*
X182581548Y-62876212D01*
X182590365Y-62889543D01*
X182595051Y-62897949D01*
X182599320Y-62909413D01*
X182603201Y-62925748D01*
X182606717Y-62948767D01*
X182609896Y-62980280D01*
X182612763Y-63022101D01*
X182615345Y-63076042D01*
X182617666Y-63143915D01*
X182619754Y-63227532D01*
X182621634Y-63328706D01*
X182623332Y-63449249D01*
X182624874Y-63590972D01*
X182626286Y-63755689D01*
X182627593Y-63945212D01*
X182628823Y-64161352D01*
X182630001Y-64405923D01*
X182631152Y-64680735D01*
X182632303Y-64987603D01*
X182633480Y-65328337D01*
X182634709Y-65704750D01*
X182635846Y-66064746D01*
X182637129Y-66473211D01*
X182638320Y-66844416D01*
X182639446Y-67180176D01*
X182640538Y-67482308D01*
X182641622Y-67752627D01*
X182642729Y-67992951D01*
X182643886Y-68205094D01*
X182645122Y-68390873D01*
X182646466Y-68552105D01*
X182647947Y-68690604D01*
X182649592Y-68808188D01*
X182651432Y-68906672D01*
X182653494Y-68987873D01*
X182655807Y-69053607D01*
X182658399Y-69105689D01*
X182661300Y-69145936D01*
X182664538Y-69176165D01*
X182668141Y-69198190D01*
X182672138Y-69213828D01*
X182676559Y-69224896D01*
X182681430Y-69233209D01*
X182685900Y-69239402D01*
X182732430Y-69291566D01*
X182780117Y-69333639D01*
X182792372Y-69342078D01*
X182806829Y-69349284D01*
X182826567Y-69355385D01*
X182854666Y-69360509D01*
X182894205Y-69364783D01*
X182948265Y-69368336D01*
X183019924Y-69371295D01*
X183112262Y-69373789D01*
X183228360Y-69375945D01*
X183371295Y-69377891D01*
X183544150Y-69379755D01*
X183750002Y-69381666D01*
X183985051Y-69383692D01*
X185136051Y-69393462D01*
X185199910Y-69457334D01*
X185263770Y-69521206D01*
X185273539Y-72651872D01*
X185283308Y-75782539D01*
X185328628Y-75846078D01*
X185385929Y-75909531D01*
X185457605Y-75951796D01*
X185506859Y-75969380D01*
X185532764Y-75971406D01*
X185595170Y-75973293D01*
X185691500Y-75975026D01*
X185819179Y-75976592D01*
X185975631Y-75977977D01*
X186158279Y-75979165D01*
X186364548Y-75980144D01*
X186591862Y-75980900D01*
X186837644Y-75981418D01*
X187099319Y-75981683D01*
X187374310Y-75981683D01*
X187660042Y-75981403D01*
X187699766Y-75981343D01*
X188035012Y-75980801D01*
X188333391Y-75980276D01*
X188597113Y-75979723D01*
X188828387Y-75979099D01*
X189029424Y-75978359D01*
X189202432Y-75977457D01*
X189349623Y-75976350D01*
X189473205Y-75974993D01*
X189575388Y-75973342D01*
X189658383Y-75971351D01*
X189724399Y-75968977D01*
X189775646Y-75966175D01*
X189814334Y-75962900D01*
X189842672Y-75959109D01*
X189862870Y-75954755D01*
X189877138Y-75949795D01*
X189887686Y-75944184D01*
X189896724Y-75937879D01*
X189897843Y-75937050D01*
X189947100Y-75891970D01*
X189993314Y-75836818D01*
X189996962Y-75831583D01*
X190040923Y-75766990D01*
X190040923Y-71627098D01*
X190040952Y-71147512D01*
X190041009Y-70705451D01*
X190041052Y-70299366D01*
X190041037Y-69927705D01*
X190040922Y-69588918D01*
X190040662Y-69281454D01*
X190040216Y-69003762D01*
X190039540Y-68754291D01*
X190038591Y-68531491D01*
X190037326Y-68333810D01*
X190035702Y-68159699D01*
X190033676Y-68007606D01*
X190031204Y-67875980D01*
X190028244Y-67763271D01*
X190024752Y-67667927D01*
X190020686Y-67588399D01*
X190016003Y-67523135D01*
X190010658Y-67470584D01*
X190004610Y-67429196D01*
X189997815Y-67397420D01*
X189990231Y-67373705D01*
X189981813Y-67356501D01*
X189972519Y-67344256D01*
X189962306Y-67335420D01*
X189951131Y-67328441D01*
X189938950Y-67321770D01*
X189925721Y-67313855D01*
X189921019Y-67310635D01*
X189855308Y-67263769D01*
X188712308Y-67254000D01*
X188471226Y-67251874D01*
X188266149Y-67249867D01*
X188094007Y-67247861D01*
X187951730Y-67245741D01*
X187836245Y-67243391D01*
X187744483Y-67240696D01*
X187673373Y-67237539D01*
X187619844Y-67233804D01*
X187580825Y-67229376D01*
X187553246Y-67224138D01*
X187534035Y-67217975D01*
X187520123Y-67210771D01*
X187517260Y-67208894D01*
X187502426Y-67199687D01*
X187488933Y-67191944D01*
X187476716Y-67183866D01*
X187465713Y-67173653D01*
X187455862Y-67159502D01*
X187447097Y-67139615D01*
X187439357Y-67112190D01*
X187432578Y-67075426D01*
X187426697Y-67027524D01*
X187421650Y-66966682D01*
X187417374Y-66891100D01*
X187413807Y-66798977D01*
X187410885Y-66688513D01*
X187408544Y-66557907D01*
X187406722Y-66405358D01*
X187405355Y-66229067D01*
X187404380Y-66027231D01*
X187403734Y-65798051D01*
X187403353Y-65539726D01*
X187403175Y-65250456D01*
X187403136Y-64928439D01*
X187403172Y-64571876D01*
X187403221Y-64178965D01*
X187403231Y-63961477D01*
X187403231Y-60880013D01*
X187362313Y-60807208D01*
X187345954Y-60777434D01*
X187330895Y-60751969D01*
X187314120Y-60730452D01*
X187292614Y-60712522D01*
X187263362Y-60697815D01*
X187223350Y-60685971D01*
X187169563Y-60676628D01*
X187098985Y-60669424D01*
X187008603Y-60663997D01*
X186895400Y-60659985D01*
X186756362Y-60657027D01*
X186588474Y-60654761D01*
X186388721Y-60652824D01*
X186154089Y-60650856D01*
X186052225Y-60650000D01*
X185811807Y-60647912D01*
X185607405Y-60645989D01*
X185435960Y-60644105D01*
X185294413Y-60642135D01*
X185179703Y-60639952D01*
X185088771Y-60637432D01*
X185018558Y-60634448D01*
X184966004Y-60630875D01*
X184928050Y-60626588D01*
X184901636Y-60621460D01*
X184883702Y-60615367D01*
X184871190Y-60608181D01*
X184862567Y-60601154D01*
X184842469Y-60582686D01*
X184825358Y-60563863D01*
X184810993Y-60541561D01*
X184799134Y-60512655D01*
X184789542Y-60474022D01*
X184781974Y-60422538D01*
X184776192Y-60355077D01*
X184771956Y-60268517D01*
X184769024Y-60159733D01*
X184767157Y-60025601D01*
X184766114Y-59862997D01*
X184765656Y-59668796D01*
X184765542Y-59439875D01*
X184765539Y-59339326D01*
X184765515Y-59104704D01*
X184765367Y-58905938D01*
X184764978Y-58739807D01*
X184764229Y-58603091D01*
X184763003Y-58492568D01*
X184761185Y-58405017D01*
X184758655Y-58337218D01*
X184755298Y-58285950D01*
X184750996Y-58247993D01*
X184745632Y-58220124D01*
X184739088Y-58199123D01*
X184731248Y-58181770D01*
X184722865Y-58166393D01*
X184658542Y-58089743D01*
X184598941Y-58051133D01*
X184585640Y-58045003D01*
X184571026Y-58039552D01*
X184552872Y-58034747D01*
X184528950Y-58030552D01*
X184497034Y-58026935D01*
X184454897Y-58023861D01*
X184400310Y-58021296D01*
X184331048Y-58019206D01*
X184244882Y-58017558D01*
X184139586Y-58016317D01*
X184012932Y-58015449D01*
X183862693Y-58014921D01*
X183686642Y-58014698D01*
X183482551Y-58014747D01*
X183248195Y-58015033D01*
X182981344Y-58015522D01*
X182679773Y-58016182D01*
X182357044Y-58016939D01*
X182020307Y-58017748D01*
X181720449Y-58018515D01*
X181455268Y-58019282D01*
X181222566Y-58020097D01*
X181020144Y-58021004D01*
X180845801Y-58022047D01*
X180697339Y-58023273D01*
X180572559Y-58024726D01*
X180469260Y-58026451D01*
X180385244Y-58028494D01*
X180318311Y-58030899D01*
X180266262Y-58033712D01*
X180226897Y-58036977D01*
X180198017Y-58040741D01*
X180177424Y-58045047D01*
X180162916Y-58049942D01*
X180152296Y-58055470D01*
X180143363Y-58061676D01*
X180142444Y-58062361D01*
X180090279Y-58108899D01*
X180048208Y-58156597D01*
X180041931Y-58165477D01*
X180036337Y-58175815D01*
X180031381Y-58189809D01*
X180027016Y-58209659D01*
X180023199Y-58237562D01*
X180019884Y-58275716D01*
X180017027Y-58326321D01*
X180014581Y-58391573D01*
X180012503Y-58473672D01*
X180010746Y-58574815D01*
X180009267Y-58697202D01*
X180008019Y-58843029D01*
X180006959Y-59014496D01*
X180006040Y-59213801D01*
X180005218Y-59443142D01*
X180004448Y-59704717D01*
X180003685Y-60000725D01*
X180002884Y-60333363D01*
X180002789Y-60373243D01*
X179997654Y-62535937D01*
X179499923Y-62535937D01*
X179499923Y-58119769D01*
X179544596Y-58009274D01*
X184768723Y-65251308D02*
X185125015Y-66345462D01*
X185125015Y-66345462D02*
X185189794Y-66544331D01*
X185189794Y-66544331D02*
X185251139Y-66732537D01*
X185251139Y-66732537D02*
X185307953Y-66906720D01*
X185307953Y-66906720D02*
X185359138Y-67063523D01*
X185359138Y-67063523D02*
X185403598Y-67199588D01*
X185403598Y-67199588D02*
X185440235Y-67311555D01*
X185440235Y-67311555D02*
X185467951Y-67396068D01*
X185467951Y-67396068D02*
X185485651Y-67449768D01*
X185485651Y-67449768D02*
X185492088Y-67468923D01*
X185492088Y-67468923D02*
X185493880Y-67455401D01*
X185493880Y-67455401D02*
X185495237Y-67406127D01*
X185495237Y-67406127D02*
X185496157Y-67324427D01*
X185496157Y-67324427D02*
X185496639Y-67213622D01*
X185496639Y-67213622D02*
X185496680Y-67077038D01*
X185496680Y-67077038D02*
X185496278Y-66917998D01*
X185496278Y-66917998D02*
X185495433Y-66739825D01*
X185495433Y-66739825D02*
X185494142Y-66545843D01*
X185494142Y-66545843D02*
X185492682Y-66369885D01*
X185492682Y-66369885D02*
X185482495Y-65241539D01*
X185482495Y-65241539D02*
X186211385Y-65241539D01*
X186211385Y-65241539D02*
X186211385Y-68738923D01*
X186211385Y-68738923D02*
X185300853Y-68738923D01*
X185300853Y-68738923D02*
X184560385Y-66594167D01*
X184560385Y-66594167D02*
X184550285Y-68738923D01*
X184550285Y-68738923D02*
X183827693Y-68738923D01*
X183827693Y-68738923D02*
X183827693Y-65240844D01*
X183827693Y-65240844D02*
X184768723Y-65251308D01*
X184768723Y-65251308D02*
X184768723Y-65251308D01*
G36*
X184768723Y-65251308D02*
G01*
X185125015Y-66345462D01*
X185189794Y-66544331D01*
X185251139Y-66732537D01*
X185307953Y-66906720D01*
X185359138Y-67063523D01*
X185403598Y-67199588D01*
X185440235Y-67311555D01*
X185467951Y-67396068D01*
X185485651Y-67449768D01*
X185492088Y-67468923D01*
X185493880Y-67455401D01*
X185495237Y-67406127D01*
X185496157Y-67324427D01*
X185496639Y-67213622D01*
X185496680Y-67077038D01*
X185496278Y-66917998D01*
X185495433Y-66739825D01*
X185494142Y-66545843D01*
X185492682Y-66369885D01*
X185482495Y-65241539D01*
X186211385Y-65241539D01*
X186211385Y-68738923D01*
X185300853Y-68738923D01*
X184560385Y-66594167D01*
X184550285Y-68738923D01*
X183827693Y-68738923D01*
X183827693Y-65240844D01*
X184768723Y-65251308D01*
G37*
X184768723Y-65251308D02*
X185125015Y-66345462D01*
X185189794Y-66544331D01*
X185251139Y-66732537D01*
X185307953Y-66906720D01*
X185359138Y-67063523D01*
X185403598Y-67199588D01*
X185440235Y-67311555D01*
X185467951Y-67396068D01*
X185485651Y-67449768D01*
X185492088Y-67468923D01*
X185493880Y-67455401D01*
X185495237Y-67406127D01*
X185496157Y-67324427D01*
X185496639Y-67213622D01*
X185496680Y-67077038D01*
X185496278Y-66917998D01*
X185495433Y-66739825D01*
X185494142Y-66545843D01*
X185492682Y-66369885D01*
X185482495Y-65241539D01*
X186211385Y-65241539D01*
X186211385Y-68738923D01*
X185300853Y-68738923D01*
X184560385Y-66594167D01*
X184550285Y-68738923D01*
X183827693Y-68738923D01*
X183827693Y-65240844D01*
X184768723Y-65251308D01*
X187852791Y-71813315D02*
X188054989Y-71844217D01*
X188054989Y-71844217D02*
X188226067Y-71897167D01*
X188226067Y-71897167D02*
X188367343Y-71973347D01*
X188367343Y-71973347D02*
X188480137Y-72073941D01*
X188480137Y-72073941D02*
X188565769Y-72200132D01*
X188565769Y-72200132D02*
X188625556Y-72353102D01*
X188625556Y-72353102D02*
X188660819Y-72534035D01*
X188660819Y-72534035D02*
X188672877Y-72744114D01*
X188672877Y-72744114D02*
X188672892Y-72749192D01*
X188672892Y-72749192D02*
X188673231Y-72939692D01*
X188673231Y-72939692D02*
X187813539Y-72939692D01*
X187813539Y-72939692D02*
X187813539Y-72745807D01*
X187813539Y-72745807D02*
X187812771Y-72655345D01*
X187812771Y-72655345D02*
X187809200Y-72594314D01*
X187809200Y-72594314D02*
X187800923Y-72553075D01*
X187800923Y-72553075D02*
X187786037Y-72521994D01*
X187786037Y-72521994D02*
X187763515Y-72492471D01*
X187763515Y-72492471D02*
X187693877Y-72438083D01*
X187693877Y-72438083D02*
X187608114Y-72417023D01*
X187608114Y-72417023D02*
X187512976Y-72430940D01*
X187512976Y-72430940D02*
X187512295Y-72431164D01*
X187512295Y-72431164D02*
X187434488Y-72475111D01*
X187434488Y-72475111D02*
X187385074Y-72545296D01*
X187385074Y-72545296D02*
X187365199Y-72639944D01*
X187365199Y-72639944D02*
X187364846Y-72659401D01*
X187364846Y-72659401D02*
X187368197Y-72713643D01*
X187368197Y-72713643D02*
X187379446Y-72763650D01*
X187379446Y-72763650D02*
X187401648Y-72812667D01*
X187401648Y-72812667D02*
X187437857Y-72863941D01*
X187437857Y-72863941D02*
X187491127Y-72920716D01*
X187491127Y-72920716D02*
X187564513Y-72986239D01*
X187564513Y-72986239D02*
X187661071Y-73063755D01*
X187661071Y-73063755D02*
X187783853Y-73156508D01*
X187783853Y-73156508D02*
X187935916Y-73267746D01*
X187935916Y-73267746D02*
X187940539Y-73271097D01*
X187940539Y-73271097D02*
X188107019Y-73393184D01*
X188107019Y-73393184D02*
X188244113Y-73497339D01*
X188244113Y-73497339D02*
X188355324Y-73586730D01*
X188355324Y-73586730D02*
X188444157Y-73664525D01*
X188444157Y-73664525D02*
X188514116Y-73733892D01*
X188514116Y-73733892D02*
X188568704Y-73797999D01*
X188568704Y-73797999D02*
X188611426Y-73860014D01*
X188611426Y-73860014D02*
X188632239Y-73896441D01*
X188632239Y-73896441D02*
X188677751Y-73994143D01*
X188677751Y-73994143D02*
X188708330Y-74092975D01*
X188708330Y-74092975D02*
X188726140Y-74203778D01*
X188726140Y-74203778D02*
X188733342Y-74337393D01*
X188733342Y-74337393D02*
X188733714Y-74405077D01*
X188733714Y-74405077D02*
X188722186Y-74602252D01*
X188722186Y-74602252D02*
X188688628Y-74770759D01*
X188688628Y-74770759D02*
X188631327Y-74915308D01*
X188631327Y-74915308D02*
X188548574Y-75040609D01*
X188548574Y-75040609D02*
X188473964Y-75119972D01*
X188473964Y-75119972D02*
X188344177Y-75216403D01*
X188344177Y-75216403D02*
X188184705Y-75292713D01*
X188184705Y-75292713D02*
X187999985Y-75347829D01*
X187999985Y-75347829D02*
X187794449Y-75380681D01*
X187794449Y-75380681D02*
X187572535Y-75390198D01*
X187572535Y-75390198D02*
X187393462Y-75380966D01*
X187393462Y-75380966D02*
X187178688Y-75349447D01*
X187178688Y-75349447D02*
X186994254Y-75296327D01*
X186994254Y-75296327D02*
X186837219Y-75220485D01*
X186837219Y-75220485D02*
X186704643Y-75120802D01*
X186704643Y-75120802D02*
X186700594Y-75117039D01*
X186700594Y-75117039D02*
X186615312Y-75023356D01*
X186615312Y-75023356D02*
X186549362Y-74917481D01*
X186549362Y-74917481D02*
X186501124Y-74794221D01*
X186501124Y-74794221D02*
X186468977Y-74648384D01*
X186468977Y-74648384D02*
X186451302Y-74474777D01*
X186451302Y-74474777D02*
X186446450Y-74302500D01*
X186446450Y-74302500D02*
X186445846Y-74112000D01*
X186445846Y-74112000D02*
X187305539Y-74112000D01*
X187305539Y-74112000D02*
X187305569Y-74331808D01*
X187305569Y-74331808D02*
X187311220Y-74474751D01*
X187311220Y-74474751D02*
X187329801Y-74584177D01*
X187329801Y-74584177D02*
X187363819Y-74664229D01*
X187363819Y-74664229D02*
X187415780Y-74719050D01*
X187415780Y-74719050D02*
X187488191Y-74752784D01*
X187488191Y-74752784D02*
X187569585Y-74768184D01*
X187569585Y-74768184D02*
X187674491Y-74764344D01*
X187674491Y-74764344D02*
X187759895Y-74726859D01*
X187759895Y-74726859D02*
X187827792Y-74654662D01*
X187827792Y-74654662D02*
X187849076Y-74618554D01*
X187849076Y-74618554D02*
X187879276Y-74546340D01*
X187879276Y-74546340D02*
X187887013Y-74477747D01*
X187887013Y-74477747D02*
X187884313Y-74440320D01*
X187884313Y-74440320D02*
X187875165Y-74379553D01*
X187875165Y-74379553D02*
X187859789Y-74325109D01*
X187859789Y-74325109D02*
X187834856Y-74273472D01*
X187834856Y-74273472D02*
X187797038Y-74221127D01*
X187797038Y-74221127D02*
X187743004Y-74164559D01*
X187743004Y-74164559D02*
X187669427Y-74100254D01*
X187669427Y-74100254D02*
X187572976Y-74024695D01*
X187572976Y-74024695D02*
X187450324Y-73934368D01*
X187450324Y-73934368D02*
X187310728Y-73834668D01*
X187310728Y-73834668D02*
X187113975Y-73690979D01*
X187113975Y-73690979D02*
X186950851Y-73562219D01*
X186950851Y-73562219D02*
X186819583Y-73446772D01*
X186819583Y-73446772D02*
X186718398Y-73343020D01*
X186718398Y-73343020D02*
X186645526Y-73249347D01*
X186645526Y-73249347D02*
X186617117Y-73201999D01*
X186617117Y-73201999D02*
X186551792Y-73043530D01*
X186551792Y-73043530D02*
X186515008Y-72873027D01*
X186515008Y-72873027D02*
X186505978Y-72697547D01*
X186505978Y-72697547D02*
X186523916Y-72524153D01*
X186523916Y-72524153D02*
X186568035Y-72359903D01*
X186568035Y-72359903D02*
X186637551Y-72211858D01*
X186637551Y-72211858D02*
X186731676Y-72087078D01*
X186731676Y-72087078D02*
X186742485Y-72076078D01*
X186742485Y-72076078D02*
X186858432Y-71979669D01*
X186858432Y-71979669D02*
X186991323Y-71905610D01*
X186991323Y-71905610D02*
X187145380Y-71852587D01*
X187145380Y-71852587D02*
X187324826Y-71819285D01*
X187324826Y-71819285D02*
X187533883Y-71804388D01*
X187533883Y-71804388D02*
X187618154Y-71803277D01*
X187618154Y-71803277D02*
X187852791Y-71813315D01*
X187852791Y-71813315D02*
X187852791Y-71813315D01*
G36*
X187852791Y-71813315D02*
G01*
X188054989Y-71844217D01*
X188226067Y-71897167D01*
X188367343Y-71973347D01*
X188480137Y-72073941D01*
X188565769Y-72200132D01*
X188625556Y-72353102D01*
X188660819Y-72534035D01*
X188672877Y-72744114D01*
X188672892Y-72749192D01*
X188673231Y-72939692D01*
X187813539Y-72939692D01*
X187813539Y-72745807D01*
X187812771Y-72655345D01*
X187809200Y-72594314D01*
X187800923Y-72553075D01*
X187786037Y-72521994D01*
X187763515Y-72492471D01*
X187693877Y-72438083D01*
X187608114Y-72417023D01*
X187512976Y-72430940D01*
X187512295Y-72431164D01*
X187434488Y-72475111D01*
X187385074Y-72545296D01*
X187365199Y-72639944D01*
X187364846Y-72659401D01*
X187368197Y-72713643D01*
X187379446Y-72763650D01*
X187401648Y-72812667D01*
X187437857Y-72863941D01*
X187491127Y-72920716D01*
X187564513Y-72986239D01*
X187661071Y-73063755D01*
X187783853Y-73156508D01*
X187935916Y-73267746D01*
X187940539Y-73271097D01*
X188107019Y-73393184D01*
X188244113Y-73497339D01*
X188355324Y-73586730D01*
X188444157Y-73664525D01*
X188514116Y-73733892D01*
X188568704Y-73797999D01*
X188611426Y-73860014D01*
X188632239Y-73896441D01*
X188677751Y-73994143D01*
X188708330Y-74092975D01*
X188726140Y-74203778D01*
X188733342Y-74337393D01*
X188733714Y-74405077D01*
X188722186Y-74602252D01*
X188688628Y-74770759D01*
X188631327Y-74915308D01*
X188548574Y-75040609D01*
X188473964Y-75119972D01*
X188344177Y-75216403D01*
X188184705Y-75292713D01*
X187999985Y-75347829D01*
X187794449Y-75380681D01*
X187572535Y-75390198D01*
X187393462Y-75380966D01*
X187178688Y-75349447D01*
X186994254Y-75296327D01*
X186837219Y-75220485D01*
X186704643Y-75120802D01*
X186700594Y-75117039D01*
X186615312Y-75023356D01*
X186549362Y-74917481D01*
X186501124Y-74794221D01*
X186468977Y-74648384D01*
X186451302Y-74474777D01*
X186446450Y-74302500D01*
X186445846Y-74112000D01*
X187305539Y-74112000D01*
X187305569Y-74331808D01*
X187311220Y-74474751D01*
X187329801Y-74584177D01*
X187363819Y-74664229D01*
X187415780Y-74719050D01*
X187488191Y-74752784D01*
X187569585Y-74768184D01*
X187674491Y-74764344D01*
X187759895Y-74726859D01*
X187827792Y-74654662D01*
X187849076Y-74618554D01*
X187879276Y-74546340D01*
X187887013Y-74477747D01*
X187884313Y-74440320D01*
X187875165Y-74379553D01*
X187859789Y-74325109D01*
X187834856Y-74273472D01*
X187797038Y-74221127D01*
X187743004Y-74164559D01*
X187669427Y-74100254D01*
X187572976Y-74024695D01*
X187450324Y-73934368D01*
X187310728Y-73834668D01*
X187113975Y-73690979D01*
X186950851Y-73562219D01*
X186819583Y-73446772D01*
X186718398Y-73343020D01*
X186645526Y-73249347D01*
X186617117Y-73201999D01*
X186551792Y-73043530D01*
X186515008Y-72873027D01*
X186505978Y-72697547D01*
X186523916Y-72524153D01*
X186568035Y-72359903D01*
X186637551Y-72211858D01*
X186731676Y-72087078D01*
X186742485Y-72076078D01*
X186858432Y-71979669D01*
X186991323Y-71905610D01*
X187145380Y-71852587D01*
X187324826Y-71819285D01*
X187533883Y-71804388D01*
X187618154Y-71803277D01*
X187852791Y-71813315D01*
G37*
X187852791Y-71813315D02*
X188054989Y-71844217D01*
X188226067Y-71897167D01*
X188367343Y-71973347D01*
X188480137Y-72073941D01*
X188565769Y-72200132D01*
X188625556Y-72353102D01*
X188660819Y-72534035D01*
X188672877Y-72744114D01*
X188672892Y-72749192D01*
X188673231Y-72939692D01*
X187813539Y-72939692D01*
X187813539Y-72745807D01*
X187812771Y-72655345D01*
X187809200Y-72594314D01*
X187800923Y-72553075D01*
X187786037Y-72521994D01*
X187763515Y-72492471D01*
X187693877Y-72438083D01*
X187608114Y-72417023D01*
X187512976Y-72430940D01*
X187512295Y-72431164D01*
X187434488Y-72475111D01*
X187385074Y-72545296D01*
X187365199Y-72639944D01*
X187364846Y-72659401D01*
X187368197Y-72713643D01*
X187379446Y-72763650D01*
X187401648Y-72812667D01*
X187437857Y-72863941D01*
X187491127Y-72920716D01*
X187564513Y-72986239D01*
X187661071Y-73063755D01*
X187783853Y-73156508D01*
X187935916Y-73267746D01*
X187940539Y-73271097D01*
X188107019Y-73393184D01*
X188244113Y-73497339D01*
X188355324Y-73586730D01*
X188444157Y-73664525D01*
X188514116Y-73733892D01*
X188568704Y-73797999D01*
X188611426Y-73860014D01*
X188632239Y-73896441D01*
X188677751Y-73994143D01*
X188708330Y-74092975D01*
X188726140Y-74203778D01*
X188733342Y-74337393D01*
X188733714Y-74405077D01*
X188722186Y-74602252D01*
X188688628Y-74770759D01*
X188631327Y-74915308D01*
X188548574Y-75040609D01*
X188473964Y-75119972D01*
X188344177Y-75216403D01*
X188184705Y-75292713D01*
X187999985Y-75347829D01*
X187794449Y-75380681D01*
X187572535Y-75390198D01*
X187393462Y-75380966D01*
X187178688Y-75349447D01*
X186994254Y-75296327D01*
X186837219Y-75220485D01*
X186704643Y-75120802D01*
X186700594Y-75117039D01*
X186615312Y-75023356D01*
X186549362Y-74917481D01*
X186501124Y-74794221D01*
X186468977Y-74648384D01*
X186451302Y-74474777D01*
X186446450Y-74302500D01*
X186445846Y-74112000D01*
X187305539Y-74112000D01*
X187305569Y-74331808D01*
X187311220Y-74474751D01*
X187329801Y-74584177D01*
X187363819Y-74664229D01*
X187415780Y-74719050D01*
X187488191Y-74752784D01*
X187569585Y-74768184D01*
X187674491Y-74764344D01*
X187759895Y-74726859D01*
X187827792Y-74654662D01*
X187849076Y-74618554D01*
X187879276Y-74546340D01*
X187887013Y-74477747D01*
X187884313Y-74440320D01*
X187875165Y-74379553D01*
X187859789Y-74325109D01*
X187834856Y-74273472D01*
X187797038Y-74221127D01*
X187743004Y-74164559D01*
X187669427Y-74100254D01*
X187572976Y-74024695D01*
X187450324Y-73934368D01*
X187310728Y-73834668D01*
X187113975Y-73690979D01*
X186950851Y-73562219D01*
X186819583Y-73446772D01*
X186718398Y-73343020D01*
X186645526Y-73249347D01*
X186617117Y-73201999D01*
X186551792Y-73043530D01*
X186515008Y-72873027D01*
X186505978Y-72697547D01*
X186523916Y-72524153D01*
X186568035Y-72359903D01*
X186637551Y-72211858D01*
X186731676Y-72087078D01*
X186742485Y-72076078D01*
X186858432Y-71979669D01*
X186991323Y-71905610D01*
X187145380Y-71852587D01*
X187324826Y-71819285D01*
X187533883Y-71804388D01*
X187618154Y-71803277D01*
X187852791Y-71813315D01*
X185255903Y-61252662D02*
X185382604Y-61267511D01*
X185382604Y-61267511D02*
X185449385Y-61281439D01*
X185449385Y-61281439D02*
X185621601Y-61340227D01*
X185621601Y-61340227D02*
X185773759Y-61418914D01*
X185773759Y-61418914D02*
X185900669Y-61513936D01*
X185900669Y-61513936D02*
X185997140Y-61621730D01*
X185997140Y-61621730D02*
X186034192Y-61682899D01*
X186034192Y-61682899D02*
X186055110Y-61726375D01*
X186055110Y-61726375D02*
X186072878Y-61770605D01*
X186072878Y-61770605D02*
X186087752Y-61819051D01*
X186087752Y-61819051D02*
X186099984Y-61875177D01*
X186099984Y-61875177D02*
X186109829Y-61942445D01*
X186109829Y-61942445D02*
X186117541Y-62024317D01*
X186117541Y-62024317D02*
X186123373Y-62124257D01*
X186123373Y-62124257D02*
X186127580Y-62245728D01*
X186127580Y-62245728D02*
X186130416Y-62392192D01*
X186130416Y-62392192D02*
X186132133Y-62567111D01*
X186132133Y-62567111D02*
X186132987Y-62773949D01*
X186132987Y-62773949D02*
X186133230Y-63016169D01*
X186133230Y-63016169D02*
X186133231Y-63033692D01*
X186133231Y-63033692D02*
X186133031Y-63278870D01*
X186133031Y-63278870D02*
X186132241Y-63488446D01*
X186132241Y-63488446D02*
X186130580Y-63665893D01*
X186130580Y-63665893D02*
X186127765Y-63814684D01*
X186127765Y-63814684D02*
X186123514Y-63938294D01*
X186123514Y-63938294D02*
X186117545Y-64040196D01*
X186117545Y-64040196D02*
X186109576Y-64123864D01*
X186109576Y-64123864D02*
X186099323Y-64192770D01*
X186099323Y-64192770D02*
X186086505Y-64250388D01*
X186086505Y-64250388D02*
X186070840Y-64300193D01*
X186070840Y-64300193D02*
X186052045Y-64345657D01*
X186052045Y-64345657D02*
X186029839Y-64390253D01*
X186029839Y-64390253D02*
X186021765Y-64405278D01*
X186021765Y-64405278D02*
X185935248Y-64524500D01*
X185935248Y-64524500D02*
X185815439Y-64628063D01*
X185815439Y-64628063D02*
X185665804Y-64713566D01*
X185665804Y-64713566D02*
X185489809Y-64778611D01*
X185489809Y-64778611D02*
X185477463Y-64782095D01*
X185477463Y-64782095D02*
X185415741Y-64793954D01*
X185415741Y-64793954D02*
X185325451Y-64804754D01*
X185325451Y-64804754D02*
X185216746Y-64813953D01*
X185216746Y-64813953D02*
X185099776Y-64821010D01*
X185099776Y-64821010D02*
X184984693Y-64825385D01*
X184984693Y-64825385D02*
X184881647Y-64826535D01*
X184881647Y-64826535D02*
X184800790Y-64823921D01*
X184800790Y-64823921D02*
X184765539Y-64820050D01*
X184765539Y-64820050D02*
X184562574Y-64776045D01*
X184562574Y-64776045D02*
X184393335Y-64718832D01*
X184393335Y-64718832D02*
X184254141Y-64646509D01*
X184254141Y-64646509D02*
X184141313Y-64557173D01*
X184141313Y-64557173D02*
X184053222Y-64451943D01*
X184053222Y-64451943D02*
X184024530Y-64408930D01*
X184024530Y-64408930D02*
X184000227Y-64368284D01*
X184000227Y-64368284D02*
X183979920Y-64326431D01*
X183979920Y-64326431D02*
X183963212Y-64279798D01*
X183963212Y-64279798D02*
X183949710Y-64224812D01*
X183949710Y-64224812D02*
X183939018Y-64157899D01*
X183939018Y-64157899D02*
X183930742Y-64075486D01*
X183930742Y-64075486D02*
X183924487Y-63974001D01*
X183924487Y-63974001D02*
X183919858Y-63849869D01*
X183919858Y-63849869D02*
X183916461Y-63699519D01*
X183916461Y-63699519D02*
X183913900Y-63519376D01*
X183913900Y-63519376D02*
X183911781Y-63305868D01*
X183911781Y-63305868D02*
X183910561Y-63160692D01*
X183910561Y-63160692D02*
X183909687Y-63032669D01*
X183909687Y-63032669D02*
X184765511Y-63032669D01*
X184765511Y-63032669D02*
X184765823Y-63206483D01*
X184765823Y-63206483D02*
X184766767Y-63375445D01*
X184766767Y-63375445D02*
X184768343Y-63534675D01*
X184768343Y-63534675D02*
X184770550Y-63679292D01*
X184770550Y-63679292D02*
X184773390Y-63804417D01*
X184773390Y-63804417D02*
X184776861Y-63905168D01*
X184776861Y-63905168D02*
X184780964Y-63976665D01*
X184780964Y-63976665D02*
X184785699Y-64014028D01*
X184785699Y-64014028D02*
X184785758Y-64014244D01*
X184785758Y-64014244D02*
X184827751Y-64098572D01*
X184827751Y-64098572D02*
X184896176Y-64157190D01*
X184896176Y-64157190D02*
X184984237Y-64184930D01*
X184984237Y-64184930D02*
X185012239Y-64186462D01*
X185012239Y-64186462D02*
X185080431Y-64179930D01*
X185080431Y-64179930D02*
X185141927Y-64163683D01*
X185141927Y-64163683D02*
X185154644Y-64158015D01*
X185154644Y-64158015D02*
X185199076Y-64121850D01*
X185199076Y-64121850D02*
X185239504Y-64068310D01*
X185239504Y-64068310D02*
X185246481Y-64055438D01*
X185246481Y-64055438D02*
X185255025Y-64036285D01*
X185255025Y-64036285D02*
X185262140Y-64013917D01*
X185262140Y-64013917D02*
X185267956Y-63984794D01*
X185267956Y-63984794D02*
X185272602Y-63945378D01*
X185272602Y-63945378D02*
X185276209Y-63892129D01*
X185276209Y-63892129D02*
X185278906Y-63821508D01*
X185278906Y-63821508D02*
X185280824Y-63729975D01*
X185280824Y-63729975D02*
X185282094Y-63613991D01*
X185282094Y-63613991D02*
X185282844Y-63470017D01*
X185282844Y-63470017D02*
X185283205Y-63294514D01*
X185283205Y-63294514D02*
X185283307Y-63083942D01*
X185283307Y-63083942D02*
X185283308Y-63053231D01*
X185283308Y-63053231D02*
X185283063Y-62824287D01*
X185283063Y-62824287D02*
X185282279Y-62631480D01*
X185282279Y-62631480D02*
X185280880Y-62471875D01*
X185280880Y-62471875D02*
X185278791Y-62342535D01*
X185278791Y-62342535D02*
X185275935Y-62240524D01*
X185275935Y-62240524D02*
X185272238Y-62162905D01*
X185272238Y-62162905D02*
X185267624Y-62106741D01*
X185267624Y-62106741D02*
X185262018Y-62069097D01*
X185262018Y-62069097D02*
X185257581Y-62052524D01*
X185257581Y-62052524D02*
X185211579Y-61970482D01*
X185211579Y-61970482D02*
X185146056Y-61914455D01*
X185146056Y-61914455D02*
X185068725Y-61884432D01*
X185068725Y-61884432D02*
X184987301Y-61880404D01*
X184987301Y-61880404D02*
X184909497Y-61902359D01*
X184909497Y-61902359D02*
X184843026Y-61950289D01*
X184843026Y-61950289D02*
X184795603Y-62024183D01*
X184795603Y-62024183D02*
X184785758Y-62053141D01*
X184785758Y-62053141D02*
X184781016Y-62090074D01*
X184781016Y-62090074D02*
X184776905Y-62161200D01*
X184776905Y-62161200D02*
X184773427Y-62261636D01*
X184773427Y-62261636D02*
X184770580Y-62386503D01*
X184770580Y-62386503D02*
X184768365Y-62530920D01*
X184768365Y-62530920D02*
X184766782Y-62690007D01*
X184766782Y-62690007D02*
X184765830Y-62858883D01*
X184765830Y-62858883D02*
X184765511Y-63032669D01*
X184765511Y-63032669D02*
X183909687Y-63032669D01*
X183909687Y-63032669D02*
X183908802Y-62903284D01*
X183908802Y-62903284D02*
X183908172Y-62681599D01*
X183908172Y-62681599D02*
X183908885Y-62492296D01*
X183908885Y-62492296D02*
X183911154Y-62332032D01*
X183911154Y-62332032D02*
X183915193Y-62197466D01*
X183915193Y-62197466D02*
X183921214Y-62085254D01*
X183921214Y-62085254D02*
X183929430Y-61992056D01*
X183929430Y-61992056D02*
X183940054Y-61914528D01*
X183940054Y-61914528D02*
X183953300Y-61849328D01*
X183953300Y-61849328D02*
X183969381Y-61793114D01*
X183969381Y-61793114D02*
X183988509Y-61742544D01*
X183988509Y-61742544D02*
X184003029Y-61710379D01*
X184003029Y-61710379D02*
X184083939Y-61578785D01*
X184083939Y-61578785D02*
X184191459Y-61469798D01*
X184191459Y-61469798D02*
X184328338Y-61381359D01*
X184328338Y-61381359D02*
X184497323Y-61311407D01*
X184497323Y-61311407D02*
X184560973Y-61291923D01*
X184560973Y-61291923D02*
X184670012Y-61269387D01*
X184670012Y-61269387D02*
X184805465Y-61254057D01*
X184805465Y-61254057D02*
X184955892Y-61246070D01*
X184955892Y-61246070D02*
X185109852Y-61245560D01*
X185109852Y-61245560D02*
X185255903Y-61252662D01*
X185255903Y-61252662D02*
X185255903Y-61252662D01*
G36*
X183908172Y-62681599D02*
G01*
X183908885Y-62492296D01*
X183911154Y-62332032D01*
X183915193Y-62197466D01*
X183921214Y-62085254D01*
X183929430Y-61992056D01*
X183940054Y-61914528D01*
X183953300Y-61849328D01*
X183969381Y-61793114D01*
X183988509Y-61742544D01*
X184003029Y-61710379D01*
X184083939Y-61578785D01*
X184191459Y-61469798D01*
X184328338Y-61381359D01*
X184497323Y-61311407D01*
X184560973Y-61291923D01*
X184670012Y-61269387D01*
X184805465Y-61254057D01*
X184955892Y-61246070D01*
X185109852Y-61245560D01*
X185255903Y-61252662D01*
X185382604Y-61267511D01*
X185449385Y-61281439D01*
X185621601Y-61340227D01*
X185773759Y-61418914D01*
X185900669Y-61513936D01*
X185997140Y-61621730D01*
X186034192Y-61682899D01*
X186055110Y-61726375D01*
X186072878Y-61770605D01*
X186087752Y-61819051D01*
X186099984Y-61875177D01*
X186109829Y-61942445D01*
X186117541Y-62024317D01*
X186123373Y-62124257D01*
X186127580Y-62245728D01*
X186130416Y-62392192D01*
X186132133Y-62567111D01*
X186132987Y-62773949D01*
X186133230Y-63016169D01*
X186133231Y-63033692D01*
X186133031Y-63278870D01*
X186132241Y-63488446D01*
X186130580Y-63665893D01*
X186127765Y-63814684D01*
X186123514Y-63938294D01*
X186117545Y-64040196D01*
X186109576Y-64123864D01*
X186099323Y-64192770D01*
X186086505Y-64250388D01*
X186070840Y-64300193D01*
X186052045Y-64345657D01*
X186029839Y-64390253D01*
X186021765Y-64405278D01*
X185935248Y-64524500D01*
X185815439Y-64628063D01*
X185665804Y-64713566D01*
X185489809Y-64778611D01*
X185477463Y-64782095D01*
X185415741Y-64793954D01*
X185325451Y-64804754D01*
X185216746Y-64813953D01*
X185099776Y-64821010D01*
X184984693Y-64825385D01*
X184881647Y-64826535D01*
X184800790Y-64823921D01*
X184765539Y-64820050D01*
X184562574Y-64776045D01*
X184393335Y-64718832D01*
X184254141Y-64646509D01*
X184141313Y-64557173D01*
X184053222Y-64451943D01*
X184024530Y-64408930D01*
X184000227Y-64368284D01*
X183979920Y-64326431D01*
X183963212Y-64279798D01*
X183949710Y-64224812D01*
X183939018Y-64157899D01*
X183930742Y-64075486D01*
X183924487Y-63974001D01*
X183919858Y-63849869D01*
X183916461Y-63699519D01*
X183913900Y-63519376D01*
X183911781Y-63305868D01*
X183910561Y-63160692D01*
X183909687Y-63032669D01*
X184765511Y-63032669D01*
X184765823Y-63206483D01*
X184766767Y-63375445D01*
X184768343Y-63534675D01*
X184770550Y-63679292D01*
X184773390Y-63804417D01*
X184776861Y-63905168D01*
X184780964Y-63976665D01*
X184785699Y-64014028D01*
X184785758Y-64014244D01*
X184827751Y-64098572D01*
X184896176Y-64157190D01*
X184984237Y-64184930D01*
X185012239Y-64186462D01*
X185080431Y-64179930D01*
X185141927Y-64163683D01*
X185154644Y-64158015D01*
X185199076Y-64121850D01*
X185239504Y-64068310D01*
X185246481Y-64055438D01*
X185255025Y-64036285D01*
X185262140Y-64013917D01*
X185267956Y-63984794D01*
X185272602Y-63945378D01*
X185276209Y-63892129D01*
X185278906Y-63821508D01*
X185280824Y-63729975D01*
X185282094Y-63613991D01*
X185282844Y-63470017D01*
X185283205Y-63294514D01*
X185283307Y-63083942D01*
X185283308Y-63053231D01*
X185283063Y-62824287D01*
X185282279Y-62631480D01*
X185280880Y-62471875D01*
X185278791Y-62342535D01*
X185275935Y-62240524D01*
X185272238Y-62162905D01*
X185267624Y-62106741D01*
X185262018Y-62069097D01*
X185257581Y-62052524D01*
X185211579Y-61970482D01*
X185146056Y-61914455D01*
X185068725Y-61884432D01*
X184987301Y-61880404D01*
X184909497Y-61902359D01*
X184843026Y-61950289D01*
X184795603Y-62024183D01*
X184785758Y-62053141D01*
X184781016Y-62090074D01*
X184776905Y-62161200D01*
X184773427Y-62261636D01*
X184770580Y-62386503D01*
X184768365Y-62530920D01*
X184766782Y-62690007D01*
X184765830Y-62858883D01*
X184765511Y-63032669D01*
X183909687Y-63032669D01*
X183908802Y-62903284D01*
X183908172Y-62681599D01*
G37*
X183908172Y-62681599D02*
X183908885Y-62492296D01*
X183911154Y-62332032D01*
X183915193Y-62197466D01*
X183921214Y-62085254D01*
X183929430Y-61992056D01*
X183940054Y-61914528D01*
X183953300Y-61849328D01*
X183969381Y-61793114D01*
X183988509Y-61742544D01*
X184003029Y-61710379D01*
X184083939Y-61578785D01*
X184191459Y-61469798D01*
X184328338Y-61381359D01*
X184497323Y-61311407D01*
X184560973Y-61291923D01*
X184670012Y-61269387D01*
X184805465Y-61254057D01*
X184955892Y-61246070D01*
X185109852Y-61245560D01*
X185255903Y-61252662D01*
X185382604Y-61267511D01*
X185449385Y-61281439D01*
X185621601Y-61340227D01*
X185773759Y-61418914D01*
X185900669Y-61513936D01*
X185997140Y-61621730D01*
X186034192Y-61682899D01*
X186055110Y-61726375D01*
X186072878Y-61770605D01*
X186087752Y-61819051D01*
X186099984Y-61875177D01*
X186109829Y-61942445D01*
X186117541Y-62024317D01*
X186123373Y-62124257D01*
X186127580Y-62245728D01*
X186130416Y-62392192D01*
X186132133Y-62567111D01*
X186132987Y-62773949D01*
X186133230Y-63016169D01*
X186133231Y-63033692D01*
X186133031Y-63278870D01*
X186132241Y-63488446D01*
X186130580Y-63665893D01*
X186127765Y-63814684D01*
X186123514Y-63938294D01*
X186117545Y-64040196D01*
X186109576Y-64123864D01*
X186099323Y-64192770D01*
X186086505Y-64250388D01*
X186070840Y-64300193D01*
X186052045Y-64345657D01*
X186029839Y-64390253D01*
X186021765Y-64405278D01*
X185935248Y-64524500D01*
X185815439Y-64628063D01*
X185665804Y-64713566D01*
X185489809Y-64778611D01*
X185477463Y-64782095D01*
X185415741Y-64793954D01*
X185325451Y-64804754D01*
X185216746Y-64813953D01*
X185099776Y-64821010D01*
X184984693Y-64825385D01*
X184881647Y-64826535D01*
X184800790Y-64823921D01*
X184765539Y-64820050D01*
X184562574Y-64776045D01*
X184393335Y-64718832D01*
X184254141Y-64646509D01*
X184141313Y-64557173D01*
X184053222Y-64451943D01*
X184024530Y-64408930D01*
X184000227Y-64368284D01*
X183979920Y-64326431D01*
X183963212Y-64279798D01*
X183949710Y-64224812D01*
X183939018Y-64157899D01*
X183930742Y-64075486D01*
X183924487Y-63974001D01*
X183919858Y-63849869D01*
X183916461Y-63699519D01*
X183913900Y-63519376D01*
X183911781Y-63305868D01*
X183910561Y-63160692D01*
X183909687Y-63032669D01*
X184765511Y-63032669D01*
X184765823Y-63206483D01*
X184766767Y-63375445D01*
X184768343Y-63534675D01*
X184770550Y-63679292D01*
X184773390Y-63804417D01*
X184776861Y-63905168D01*
X184780964Y-63976665D01*
X184785699Y-64014028D01*
X184785758Y-64014244D01*
X184827751Y-64098572D01*
X184896176Y-64157190D01*
X184984237Y-64184930D01*
X185012239Y-64186462D01*
X185080431Y-64179930D01*
X185141927Y-64163683D01*
X185154644Y-64158015D01*
X185199076Y-64121850D01*
X185239504Y-64068310D01*
X185246481Y-64055438D01*
X185255025Y-64036285D01*
X185262140Y-64013917D01*
X185267956Y-63984794D01*
X185272602Y-63945378D01*
X185276209Y-63892129D01*
X185278906Y-63821508D01*
X185280824Y-63729975D01*
X185282094Y-63613991D01*
X185282844Y-63470017D01*
X185283205Y-63294514D01*
X185283307Y-63083942D01*
X185283308Y-63053231D01*
X185283063Y-62824287D01*
X185282279Y-62631480D01*
X185280880Y-62471875D01*
X185278791Y-62342535D01*
X185275935Y-62240524D01*
X185272238Y-62162905D01*
X185267624Y-62106741D01*
X185262018Y-62069097D01*
X185257581Y-62052524D01*
X185211579Y-61970482D01*
X185146056Y-61914455D01*
X185068725Y-61884432D01*
X184987301Y-61880404D01*
X184909497Y-61902359D01*
X184843026Y-61950289D01*
X184795603Y-62024183D01*
X184785758Y-62053141D01*
X184781016Y-62090074D01*
X184776905Y-62161200D01*
X184773427Y-62261636D01*
X184770580Y-62386503D01*
X184768365Y-62530920D01*
X184766782Y-62690007D01*
X184765830Y-62858883D01*
X184765511Y-63032669D01*
X183909687Y-63032669D01*
X183908802Y-62903284D01*
X183908172Y-62681599D01*
X188438770Y-68524000D02*
X187540000Y-68524000D01*
X187540000Y-68524000D02*
X187540000Y-69266462D01*
X187540000Y-69266462D02*
X188380154Y-69266462D01*
X188380154Y-69266462D02*
X188380154Y-69930769D01*
X188380154Y-69930769D02*
X187540000Y-69930769D01*
X187540000Y-69930769D02*
X187540000Y-70712308D01*
X187540000Y-70712308D02*
X188516923Y-70712308D01*
X188516923Y-70712308D02*
X188516923Y-71376615D01*
X188516923Y-71376615D02*
X186680308Y-71376615D01*
X186680308Y-71376615D02*
X186680308Y-67879231D01*
X186680308Y-67879231D02*
X188438770Y-67879231D01*
X188438770Y-67879231D02*
X188438770Y-68524000D01*
X188438770Y-68524000D02*
X188438770Y-68524000D01*
G36*
X188438770Y-68524000D02*
G01*
X187540000Y-68524000D01*
X187540000Y-69266462D01*
X188380154Y-69266462D01*
X188380154Y-69930769D01*
X187540000Y-69930769D01*
X187540000Y-70712308D01*
X188516923Y-70712308D01*
X188516923Y-71376615D01*
X186680308Y-71376615D01*
X186680308Y-67879231D01*
X188438770Y-67879231D01*
X188438770Y-68524000D01*
G37*
X188438770Y-68524000D02*
X187540000Y-68524000D01*
X187540000Y-69266462D01*
X188380154Y-69266462D01*
X188380154Y-69930769D01*
X187540000Y-69930769D01*
X187540000Y-70712308D01*
X188516923Y-70712308D01*
X188516923Y-71376615D01*
X186680308Y-71376615D01*
X186680308Y-67879231D01*
X188438770Y-67879231D01*
X188438770Y-68524000D01*
%TD*%
M02*
