%TF.GenerationSoftware,KiCad,Pcbnew,(5.1.10-1-10_14)*%
%TF.CreationDate,2021-12-19T10:46:22+09:00*%
%TF.ProjectId,Nora_plate_bottom,4e6f7261-5f70-46c6-9174-655f626f7474,v.1 (042)*%
%TF.SameCoordinates,Original*%
%TF.FileFunction,Legend,Top*%
%TF.FilePolarity,Positive*%
%FSLAX46Y46*%
G04 Gerber Fmt 4.6, Leading zero omitted, Abs format (unit mm)*
G04 Created by KiCad (PCBNEW (5.1.10-1-10_14)) date 2021-12-19 10:46:22*
%MOMM*%
%LPD*%
G01*
G04 APERTURE LIST*
%ADD10C,0.200000*%
%ADD11C,0.300000*%
%ADD12C,0.010000*%
G04 APERTURE END LIST*
D10*
X91915714Y-73178571D02*
X91915714Y-74250000D01*
X91844285Y-74464285D01*
X91701428Y-74607142D01*
X91487142Y-74678571D01*
X91344285Y-74678571D01*
X93344285Y-74678571D02*
X92630000Y-74678571D01*
X92630000Y-73178571D01*
X94701428Y-74535714D02*
X94630000Y-74607142D01*
X94415714Y-74678571D01*
X94272857Y-74678571D01*
X94058571Y-74607142D01*
X93915714Y-74464285D01*
X93844285Y-74321428D01*
X93772857Y-74035714D01*
X93772857Y-73821428D01*
X93844285Y-73535714D01*
X93915714Y-73392857D01*
X94058571Y-73250000D01*
X94272857Y-73178571D01*
X94415714Y-73178571D01*
X94630000Y-73250000D01*
X94701428Y-73321428D01*
X95772857Y-73178571D02*
X95772857Y-74250000D01*
X95701428Y-74464285D01*
X95558571Y-74607142D01*
X95344285Y-74678571D01*
X95201428Y-74678571D01*
X97201428Y-74678571D02*
X96487142Y-74678571D01*
X96487142Y-73178571D01*
X98558571Y-74535714D02*
X98487142Y-74607142D01*
X98272857Y-74678571D01*
X98130000Y-74678571D01*
X97915714Y-74607142D01*
X97772857Y-74464285D01*
X97701428Y-74321428D01*
X97630000Y-74035714D01*
X97630000Y-73821428D01*
X97701428Y-73535714D01*
X97772857Y-73392857D01*
X97915714Y-73250000D01*
X98130000Y-73178571D01*
X98272857Y-73178571D01*
X98487142Y-73250000D01*
X98558571Y-73321428D01*
X99630000Y-73178571D02*
X99630000Y-74250000D01*
X99558571Y-74464285D01*
X99415714Y-74607142D01*
X99201428Y-74678571D01*
X99058571Y-74678571D01*
X101058571Y-74678571D02*
X100344285Y-74678571D01*
X100344285Y-73178571D01*
X102415714Y-74535714D02*
X102344285Y-74607142D01*
X102130000Y-74678571D01*
X101987142Y-74678571D01*
X101772857Y-74607142D01*
X101630000Y-74464285D01*
X101558571Y-74321428D01*
X101487142Y-74035714D01*
X101487142Y-73821428D01*
X101558571Y-73535714D01*
X101630000Y-73392857D01*
X101772857Y-73250000D01*
X101987142Y-73178571D01*
X102130000Y-73178571D01*
X102344285Y-73250000D01*
X102415714Y-73321428D01*
X103487142Y-73178571D02*
X103487142Y-74250000D01*
X103415714Y-74464285D01*
X103272857Y-74607142D01*
X103058571Y-74678571D01*
X102915714Y-74678571D01*
X104915714Y-74678571D02*
X104201428Y-74678571D01*
X104201428Y-73178571D01*
X106272857Y-74535714D02*
X106201428Y-74607142D01*
X105987142Y-74678571D01*
X105844285Y-74678571D01*
X105630000Y-74607142D01*
X105487142Y-74464285D01*
X105415714Y-74321428D01*
X105344285Y-74035714D01*
X105344285Y-73821428D01*
X105415714Y-73535714D01*
X105487142Y-73392857D01*
X105630000Y-73250000D01*
X105844285Y-73178571D01*
X105987142Y-73178571D01*
X106201428Y-73250000D01*
X106272857Y-73321428D01*
D11*
X92223571Y-64371428D02*
X92480714Y-64457142D01*
X92566428Y-64542857D01*
X92652142Y-64714285D01*
X92652142Y-64971428D01*
X92566428Y-65142857D01*
X92480714Y-65228571D01*
X92309285Y-65314285D01*
X91623571Y-65314285D01*
X91623571Y-63514285D01*
X92223571Y-63514285D01*
X92395000Y-63600000D01*
X92480714Y-63685714D01*
X92566428Y-63857142D01*
X92566428Y-64028571D01*
X92480714Y-64200000D01*
X92395000Y-64285714D01*
X92223571Y-64371428D01*
X91623571Y-64371428D01*
X93680714Y-65314285D02*
X93509285Y-65228571D01*
X93423571Y-65142857D01*
X93337857Y-64971428D01*
X93337857Y-64457142D01*
X93423571Y-64285714D01*
X93509285Y-64200000D01*
X93680714Y-64114285D01*
X93937857Y-64114285D01*
X94109285Y-64200000D01*
X94195000Y-64285714D01*
X94280714Y-64457142D01*
X94280714Y-64971428D01*
X94195000Y-65142857D01*
X94109285Y-65228571D01*
X93937857Y-65314285D01*
X93680714Y-65314285D01*
X94795000Y-64114285D02*
X95480714Y-64114285D01*
X95052142Y-63514285D02*
X95052142Y-65057142D01*
X95137857Y-65228571D01*
X95309285Y-65314285D01*
X95480714Y-65314285D01*
X95823571Y-64114285D02*
X96509285Y-64114285D01*
X96080714Y-63514285D02*
X96080714Y-65057142D01*
X96166428Y-65228571D01*
X96337857Y-65314285D01*
X96509285Y-65314285D01*
X97366428Y-65314285D02*
X97195000Y-65228571D01*
X97109285Y-65142857D01*
X97023571Y-64971428D01*
X97023571Y-64457142D01*
X97109285Y-64285714D01*
X97195000Y-64200000D01*
X97366428Y-64114285D01*
X97623571Y-64114285D01*
X97795000Y-64200000D01*
X97880714Y-64285714D01*
X97966428Y-64457142D01*
X97966428Y-64971428D01*
X97880714Y-65142857D01*
X97795000Y-65228571D01*
X97623571Y-65314285D01*
X97366428Y-65314285D01*
X98737857Y-65314285D02*
X98737857Y-64114285D01*
X98737857Y-64285714D02*
X98823571Y-64200000D01*
X98995000Y-64114285D01*
X99252142Y-64114285D01*
X99423571Y-64200000D01*
X99509285Y-64371428D01*
X99509285Y-65314285D01*
X99509285Y-64371428D02*
X99595000Y-64200000D01*
X99766428Y-64114285D01*
X100023571Y-64114285D01*
X100195000Y-64200000D01*
X100280714Y-64371428D01*
X100280714Y-65314285D01*
X102509285Y-65314285D02*
X102509285Y-63514285D01*
X103195000Y-63514285D01*
X103366428Y-63600000D01*
X103452142Y-63685714D01*
X103537857Y-63857142D01*
X103537857Y-64114285D01*
X103452142Y-64285714D01*
X103366428Y-64371428D01*
X103195000Y-64457142D01*
X102509285Y-64457142D01*
X104566428Y-65314285D02*
X104395000Y-65228571D01*
X104309285Y-65057142D01*
X104309285Y-63514285D01*
X106023571Y-65314285D02*
X106023571Y-64371428D01*
X105937857Y-64200000D01*
X105766428Y-64114285D01*
X105423571Y-64114285D01*
X105252142Y-64200000D01*
X106023571Y-65228571D02*
X105852142Y-65314285D01*
X105423571Y-65314285D01*
X105252142Y-65228571D01*
X105166428Y-65057142D01*
X105166428Y-64885714D01*
X105252142Y-64714285D01*
X105423571Y-64628571D01*
X105852142Y-64628571D01*
X106023571Y-64542857D01*
X106623571Y-64114285D02*
X107309285Y-64114285D01*
X106880714Y-63514285D02*
X106880714Y-65057142D01*
X106966428Y-65228571D01*
X107137857Y-65314285D01*
X107309285Y-65314285D01*
X108595000Y-65228571D02*
X108423571Y-65314285D01*
X108080714Y-65314285D01*
X107909285Y-65228571D01*
X107823571Y-65057142D01*
X107823571Y-64371428D01*
X107909285Y-64200000D01*
X108080714Y-64114285D01*
X108423571Y-64114285D01*
X108595000Y-64200000D01*
X108680714Y-64371428D01*
X108680714Y-64542857D01*
X107823571Y-64714285D01*
X110652142Y-64114285D02*
X111080714Y-65314285D01*
X111509285Y-64114285D01*
X112195000Y-65142857D02*
X112280714Y-65228571D01*
X112195000Y-65314285D01*
X112109285Y-65228571D01*
X112195000Y-65142857D01*
X112195000Y-65314285D01*
X113995000Y-65314285D02*
X112966428Y-65314285D01*
X113480714Y-65314285D02*
X113480714Y-63514285D01*
X113309285Y-63771428D01*
X113137857Y-63942857D01*
X112966428Y-64028571D01*
X114766428Y-65142857D02*
X114852142Y-65228571D01*
X114766428Y-65314285D01*
X114680714Y-65228571D01*
X114766428Y-65142857D01*
X114766428Y-65314285D01*
X116566428Y-65314285D02*
X115537857Y-65314285D01*
X116052142Y-65314285D02*
X116052142Y-63514285D01*
X115880714Y-63771428D01*
X115709285Y-63942857D01*
X115537857Y-64028571D01*
X92737857Y-67457142D02*
X92652142Y-67371428D01*
X92480714Y-67285714D01*
X92309285Y-67285714D01*
X92137857Y-67371428D01*
X92052142Y-67457142D01*
X91966428Y-67628571D01*
X91966428Y-67800000D01*
X92052142Y-67971428D01*
X92137857Y-68057142D01*
X92309285Y-68142857D01*
X92480714Y-68142857D01*
X92652142Y-68057142D01*
X92737857Y-67971428D01*
X92737857Y-67285714D02*
X92737857Y-67971428D01*
X92823571Y-68057142D01*
X92909285Y-68057142D01*
X93080714Y-67971428D01*
X93166428Y-67800000D01*
X93166428Y-67371428D01*
X92995000Y-67114285D01*
X92737857Y-66942857D01*
X92395000Y-66857142D01*
X92052142Y-66942857D01*
X91795000Y-67114285D01*
X91623571Y-67371428D01*
X91537857Y-67714285D01*
X91623571Y-68057142D01*
X91795000Y-68314285D01*
X92052142Y-68485714D01*
X92395000Y-68571428D01*
X92737857Y-68485714D01*
X92995000Y-68314285D01*
X93937857Y-67114285D02*
X93937857Y-68657142D01*
X93852142Y-68828571D01*
X93680714Y-68914285D01*
X93595000Y-68914285D01*
X93937857Y-66514285D02*
X93852142Y-66600000D01*
X93937857Y-66685714D01*
X94023571Y-66600000D01*
X93937857Y-66514285D01*
X93937857Y-66685714D01*
X94795000Y-67114285D02*
X94795000Y-68914285D01*
X94795000Y-67200000D02*
X94966428Y-67114285D01*
X95309285Y-67114285D01*
X95480714Y-67200000D01*
X95566428Y-67285714D01*
X95652142Y-67457142D01*
X95652142Y-67971428D01*
X95566428Y-68142857D01*
X95480714Y-68228571D01*
X95309285Y-68314285D01*
X94966428Y-68314285D01*
X94795000Y-68228571D01*
X96337857Y-68228571D02*
X96509285Y-68314285D01*
X96852142Y-68314285D01*
X97023571Y-68228571D01*
X97109285Y-68057142D01*
X97109285Y-67971428D01*
X97023571Y-67800000D01*
X96852142Y-67714285D01*
X96595000Y-67714285D01*
X96423571Y-67628571D01*
X96337857Y-67457142D01*
X96337857Y-67371428D01*
X96423571Y-67200000D01*
X96595000Y-67114285D01*
X96852142Y-67114285D01*
X97023571Y-67200000D01*
X97880714Y-68314285D02*
X97880714Y-66514285D01*
X98052142Y-67628571D02*
X98566428Y-68314285D01*
X98566428Y-67114285D02*
X97880714Y-67800000D01*
X100023571Y-68228571D02*
X99852142Y-68314285D01*
X99509285Y-68314285D01*
X99337857Y-68228571D01*
X99252142Y-68057142D01*
X99252142Y-67371428D01*
X99337857Y-67200000D01*
X99509285Y-67114285D01*
X99852142Y-67114285D01*
X100023571Y-67200000D01*
X100109285Y-67371428D01*
X100109285Y-67542857D01*
X99252142Y-67714285D01*
X100880714Y-67114285D02*
X100880714Y-68314285D01*
X100880714Y-67285714D02*
X100966428Y-67200000D01*
X101137857Y-67114285D01*
X101395000Y-67114285D01*
X101566428Y-67200000D01*
X101652142Y-67371428D01*
X101652142Y-68314285D01*
X102509285Y-67114285D02*
X102509285Y-68314285D01*
X102509285Y-67285714D02*
X102595000Y-67200000D01*
X102766428Y-67114285D01*
X103023571Y-67114285D01*
X103195000Y-67200000D01*
X103280714Y-67371428D01*
X103280714Y-68314285D01*
D12*
%TO.C,G\u002A\u002A\u002A*%
G36*
X183221661Y-60000346D02*
G01*
X183221464Y-60277783D01*
X183220986Y-60518873D01*
X183220175Y-60726345D01*
X183218980Y-60902926D01*
X183217350Y-61051347D01*
X183215233Y-61174336D01*
X183212579Y-61274622D01*
X183209336Y-61354934D01*
X183205453Y-61418000D01*
X183200878Y-61466550D01*
X183195562Y-61503313D01*
X183193250Y-61515171D01*
X183141413Y-61681550D01*
X183061572Y-61822294D01*
X182953249Y-61937695D01*
X182815969Y-62028048D01*
X182649254Y-62093643D01*
X182452628Y-62134776D01*
X182225616Y-62151738D01*
X182157154Y-62152200D01*
X182046828Y-62149299D01*
X181937438Y-62142658D01*
X181841944Y-62133275D01*
X181776317Y-62122824D01*
X181592667Y-62067518D01*
X181436919Y-61988507D01*
X181310832Y-61887013D01*
X181216170Y-61764259D01*
X181191000Y-61716940D01*
X181157161Y-61636527D01*
X181131551Y-61551173D01*
X181113223Y-61454145D01*
X181101230Y-61338713D01*
X181094626Y-61198148D01*
X181092464Y-61025718D01*
X181092456Y-61016346D01*
X181092308Y-60689077D01*
X181932462Y-60689077D01*
X181932855Y-60938192D01*
X181935688Y-61112260D01*
X181944448Y-61251016D01*
X181960439Y-61357952D01*
X181984964Y-61436560D01*
X182019326Y-61490329D01*
X182064828Y-61522753D01*
X182122775Y-61537321D01*
X182157154Y-61539000D01*
X182238909Y-61526326D01*
X182298682Y-61486158D01*
X182339539Y-61415277D01*
X182362555Y-61323273D01*
X182366112Y-61281819D01*
X182369411Y-61204369D01*
X182372409Y-61094006D01*
X182375064Y-60953809D01*
X182377334Y-60786860D01*
X182379178Y-60596240D01*
X182380554Y-60385029D01*
X182381420Y-60156310D01*
X182381733Y-59913162D01*
X182381733Y-59912423D01*
X182381846Y-58618000D01*
X183222000Y-58618000D01*
X183221661Y-60000346D01*
G37*
X183221661Y-60000346D02*
X183221464Y-60277783D01*
X183220986Y-60518873D01*
X183220175Y-60726345D01*
X183218980Y-60902926D01*
X183217350Y-61051347D01*
X183215233Y-61174336D01*
X183212579Y-61274622D01*
X183209336Y-61354934D01*
X183205453Y-61418000D01*
X183200878Y-61466550D01*
X183195562Y-61503313D01*
X183193250Y-61515171D01*
X183141413Y-61681550D01*
X183061572Y-61822294D01*
X182953249Y-61937695D01*
X182815969Y-62028048D01*
X182649254Y-62093643D01*
X182452628Y-62134776D01*
X182225616Y-62151738D01*
X182157154Y-62152200D01*
X182046828Y-62149299D01*
X181937438Y-62142658D01*
X181841944Y-62133275D01*
X181776317Y-62122824D01*
X181592667Y-62067518D01*
X181436919Y-61988507D01*
X181310832Y-61887013D01*
X181216170Y-61764259D01*
X181191000Y-61716940D01*
X181157161Y-61636527D01*
X181131551Y-61551173D01*
X181113223Y-61454145D01*
X181101230Y-61338713D01*
X181094626Y-61198148D01*
X181092464Y-61025718D01*
X181092456Y-61016346D01*
X181092308Y-60689077D01*
X181932462Y-60689077D01*
X181932855Y-60938192D01*
X181935688Y-61112260D01*
X181944448Y-61251016D01*
X181960439Y-61357952D01*
X181984964Y-61436560D01*
X182019326Y-61490329D01*
X182064828Y-61522753D01*
X182122775Y-61537321D01*
X182157154Y-61539000D01*
X182238909Y-61526326D01*
X182298682Y-61486158D01*
X182339539Y-61415277D01*
X182362555Y-61323273D01*
X182366112Y-61281819D01*
X182369411Y-61204369D01*
X182372409Y-61094006D01*
X182375064Y-60953809D01*
X182377334Y-60786860D01*
X182379178Y-60596240D01*
X182380554Y-60385029D01*
X182381420Y-60156310D01*
X182381733Y-59913162D01*
X182381733Y-59912423D01*
X182381846Y-58618000D01*
X183222000Y-58618000D01*
X183221661Y-60000346D01*
G36*
X185255903Y-61252662D02*
G01*
X185382604Y-61267511D01*
X185449385Y-61281439D01*
X185621601Y-61340227D01*
X185773759Y-61418914D01*
X185900669Y-61513936D01*
X185997140Y-61621730D01*
X186034192Y-61682899D01*
X186055110Y-61726375D01*
X186072878Y-61770605D01*
X186087752Y-61819051D01*
X186099984Y-61875177D01*
X186109829Y-61942445D01*
X186117541Y-62024317D01*
X186123373Y-62124257D01*
X186127580Y-62245728D01*
X186130416Y-62392192D01*
X186132133Y-62567111D01*
X186132987Y-62773949D01*
X186133230Y-63016169D01*
X186133231Y-63033692D01*
X186133031Y-63278870D01*
X186132241Y-63488446D01*
X186130580Y-63665893D01*
X186127765Y-63814684D01*
X186123514Y-63938294D01*
X186117545Y-64040196D01*
X186109576Y-64123864D01*
X186099323Y-64192770D01*
X186086505Y-64250388D01*
X186070840Y-64300193D01*
X186052045Y-64345657D01*
X186029839Y-64390253D01*
X186021765Y-64405278D01*
X185935248Y-64524500D01*
X185815439Y-64628063D01*
X185665804Y-64713566D01*
X185489809Y-64778611D01*
X185477463Y-64782095D01*
X185415741Y-64793954D01*
X185325451Y-64804754D01*
X185216746Y-64813953D01*
X185099776Y-64821010D01*
X184984693Y-64825385D01*
X184881647Y-64826535D01*
X184800790Y-64823921D01*
X184765539Y-64820050D01*
X184562574Y-64776045D01*
X184393335Y-64718832D01*
X184254141Y-64646509D01*
X184141313Y-64557173D01*
X184053222Y-64451943D01*
X184024530Y-64408930D01*
X184000227Y-64368284D01*
X183979920Y-64326431D01*
X183963212Y-64279798D01*
X183949710Y-64224812D01*
X183939018Y-64157899D01*
X183930742Y-64075486D01*
X183924487Y-63974001D01*
X183919858Y-63849869D01*
X183916461Y-63699519D01*
X183913900Y-63519376D01*
X183911781Y-63305868D01*
X183910561Y-63160692D01*
X183909687Y-63032669D01*
X184765511Y-63032669D01*
X184765823Y-63206483D01*
X184766767Y-63375445D01*
X184768343Y-63534675D01*
X184770550Y-63679292D01*
X184773390Y-63804417D01*
X184776861Y-63905168D01*
X184780964Y-63976665D01*
X184785699Y-64014028D01*
X184785758Y-64014244D01*
X184827751Y-64098572D01*
X184896176Y-64157190D01*
X184984237Y-64184930D01*
X185012239Y-64186462D01*
X185080431Y-64179930D01*
X185141927Y-64163683D01*
X185154644Y-64158015D01*
X185199076Y-64121850D01*
X185239504Y-64068310D01*
X185246481Y-64055438D01*
X185255025Y-64036285D01*
X185262140Y-64013917D01*
X185267956Y-63984794D01*
X185272602Y-63945378D01*
X185276209Y-63892129D01*
X185278906Y-63821508D01*
X185280824Y-63729975D01*
X185282094Y-63613991D01*
X185282844Y-63470017D01*
X185283205Y-63294514D01*
X185283307Y-63083942D01*
X185283308Y-63053231D01*
X185283063Y-62824287D01*
X185282279Y-62631480D01*
X185280880Y-62471875D01*
X185278791Y-62342535D01*
X185275935Y-62240524D01*
X185272238Y-62162905D01*
X185267624Y-62106741D01*
X185262018Y-62069097D01*
X185257581Y-62052524D01*
X185211579Y-61970482D01*
X185146056Y-61914455D01*
X185068725Y-61884432D01*
X184987301Y-61880404D01*
X184909497Y-61902359D01*
X184843026Y-61950289D01*
X184795603Y-62024183D01*
X184785758Y-62053141D01*
X184781016Y-62090074D01*
X184776905Y-62161200D01*
X184773427Y-62261636D01*
X184770580Y-62386503D01*
X184768365Y-62530920D01*
X184766782Y-62690007D01*
X184765830Y-62858883D01*
X184765511Y-63032669D01*
X183909687Y-63032669D01*
X183908802Y-62903284D01*
X183908172Y-62681599D01*
X183908885Y-62492296D01*
X183911154Y-62332032D01*
X183915193Y-62197466D01*
X183921214Y-62085254D01*
X183929430Y-61992056D01*
X183940054Y-61914528D01*
X183953300Y-61849328D01*
X183969381Y-61793114D01*
X183988509Y-61742544D01*
X184003029Y-61710379D01*
X184083939Y-61578785D01*
X184191459Y-61469798D01*
X184328338Y-61381359D01*
X184497323Y-61311407D01*
X184560973Y-61291923D01*
X184670012Y-61269387D01*
X184805465Y-61254057D01*
X184955892Y-61246070D01*
X185109852Y-61245560D01*
X185255903Y-61252662D01*
G37*
X185255903Y-61252662D02*
X185382604Y-61267511D01*
X185449385Y-61281439D01*
X185621601Y-61340227D01*
X185773759Y-61418914D01*
X185900669Y-61513936D01*
X185997140Y-61621730D01*
X186034192Y-61682899D01*
X186055110Y-61726375D01*
X186072878Y-61770605D01*
X186087752Y-61819051D01*
X186099984Y-61875177D01*
X186109829Y-61942445D01*
X186117541Y-62024317D01*
X186123373Y-62124257D01*
X186127580Y-62245728D01*
X186130416Y-62392192D01*
X186132133Y-62567111D01*
X186132987Y-62773949D01*
X186133230Y-63016169D01*
X186133231Y-63033692D01*
X186133031Y-63278870D01*
X186132241Y-63488446D01*
X186130580Y-63665893D01*
X186127765Y-63814684D01*
X186123514Y-63938294D01*
X186117545Y-64040196D01*
X186109576Y-64123864D01*
X186099323Y-64192770D01*
X186086505Y-64250388D01*
X186070840Y-64300193D01*
X186052045Y-64345657D01*
X186029839Y-64390253D01*
X186021765Y-64405278D01*
X185935248Y-64524500D01*
X185815439Y-64628063D01*
X185665804Y-64713566D01*
X185489809Y-64778611D01*
X185477463Y-64782095D01*
X185415741Y-64793954D01*
X185325451Y-64804754D01*
X185216746Y-64813953D01*
X185099776Y-64821010D01*
X184984693Y-64825385D01*
X184881647Y-64826535D01*
X184800790Y-64823921D01*
X184765539Y-64820050D01*
X184562574Y-64776045D01*
X184393335Y-64718832D01*
X184254141Y-64646509D01*
X184141313Y-64557173D01*
X184053222Y-64451943D01*
X184024530Y-64408930D01*
X184000227Y-64368284D01*
X183979920Y-64326431D01*
X183963212Y-64279798D01*
X183949710Y-64224812D01*
X183939018Y-64157899D01*
X183930742Y-64075486D01*
X183924487Y-63974001D01*
X183919858Y-63849869D01*
X183916461Y-63699519D01*
X183913900Y-63519376D01*
X183911781Y-63305868D01*
X183910561Y-63160692D01*
X183909687Y-63032669D01*
X184765511Y-63032669D01*
X184765823Y-63206483D01*
X184766767Y-63375445D01*
X184768343Y-63534675D01*
X184770550Y-63679292D01*
X184773390Y-63804417D01*
X184776861Y-63905168D01*
X184780964Y-63976665D01*
X184785699Y-64014028D01*
X184785758Y-64014244D01*
X184827751Y-64098572D01*
X184896176Y-64157190D01*
X184984237Y-64184930D01*
X185012239Y-64186462D01*
X185080431Y-64179930D01*
X185141927Y-64163683D01*
X185154644Y-64158015D01*
X185199076Y-64121850D01*
X185239504Y-64068310D01*
X185246481Y-64055438D01*
X185255025Y-64036285D01*
X185262140Y-64013917D01*
X185267956Y-63984794D01*
X185272602Y-63945378D01*
X185276209Y-63892129D01*
X185278906Y-63821508D01*
X185280824Y-63729975D01*
X185282094Y-63613991D01*
X185282844Y-63470017D01*
X185283205Y-63294514D01*
X185283307Y-63083942D01*
X185283308Y-63053231D01*
X185283063Y-62824287D01*
X185282279Y-62631480D01*
X185280880Y-62471875D01*
X185278791Y-62342535D01*
X185275935Y-62240524D01*
X185272238Y-62162905D01*
X185267624Y-62106741D01*
X185262018Y-62069097D01*
X185257581Y-62052524D01*
X185211579Y-61970482D01*
X185146056Y-61914455D01*
X185068725Y-61884432D01*
X184987301Y-61880404D01*
X184909497Y-61902359D01*
X184843026Y-61950289D01*
X184795603Y-62024183D01*
X184785758Y-62053141D01*
X184781016Y-62090074D01*
X184776905Y-62161200D01*
X184773427Y-62261636D01*
X184770580Y-62386503D01*
X184768365Y-62530920D01*
X184766782Y-62690007D01*
X184765830Y-62858883D01*
X184765511Y-63032669D01*
X183909687Y-63032669D01*
X183908802Y-62903284D01*
X183908172Y-62681599D01*
X183908885Y-62492296D01*
X183911154Y-62332032D01*
X183915193Y-62197466D01*
X183921214Y-62085254D01*
X183929430Y-61992056D01*
X183940054Y-61914528D01*
X183953300Y-61849328D01*
X183969381Y-61793114D01*
X183988509Y-61742544D01*
X184003029Y-61710379D01*
X184083939Y-61578785D01*
X184191459Y-61469798D01*
X184328338Y-61381359D01*
X184497323Y-61311407D01*
X184560973Y-61291923D01*
X184670012Y-61269387D01*
X184805465Y-61254057D01*
X184955892Y-61246070D01*
X185109852Y-61245560D01*
X185255903Y-61252662D01*
G36*
X184768723Y-65251308D02*
G01*
X185125015Y-66345462D01*
X185189794Y-66544331D01*
X185251139Y-66732537D01*
X185307953Y-66906720D01*
X185359138Y-67063523D01*
X185403598Y-67199588D01*
X185440235Y-67311555D01*
X185467951Y-67396068D01*
X185485651Y-67449768D01*
X185492088Y-67468923D01*
X185493880Y-67455401D01*
X185495237Y-67406127D01*
X185496157Y-67324427D01*
X185496639Y-67213622D01*
X185496680Y-67077038D01*
X185496278Y-66917998D01*
X185495433Y-66739825D01*
X185494142Y-66545843D01*
X185492682Y-66369885D01*
X185482495Y-65241539D01*
X186211385Y-65241539D01*
X186211385Y-68738923D01*
X185300853Y-68738923D01*
X184560385Y-66594167D01*
X184550285Y-68738923D01*
X183827693Y-68738923D01*
X183827693Y-65240844D01*
X184768723Y-65251308D01*
G37*
X184768723Y-65251308D02*
X185125015Y-66345462D01*
X185189794Y-66544331D01*
X185251139Y-66732537D01*
X185307953Y-66906720D01*
X185359138Y-67063523D01*
X185403598Y-67199588D01*
X185440235Y-67311555D01*
X185467951Y-67396068D01*
X185485651Y-67449768D01*
X185492088Y-67468923D01*
X185493880Y-67455401D01*
X185495237Y-67406127D01*
X185496157Y-67324427D01*
X185496639Y-67213622D01*
X185496680Y-67077038D01*
X185496278Y-66917998D01*
X185495433Y-66739825D01*
X185494142Y-66545843D01*
X185492682Y-66369885D01*
X185482495Y-65241539D01*
X186211385Y-65241539D01*
X186211385Y-68738923D01*
X185300853Y-68738923D01*
X184560385Y-66594167D01*
X184550285Y-68738923D01*
X183827693Y-68738923D01*
X183827693Y-65240844D01*
X184768723Y-65251308D01*
G36*
X188438770Y-68524000D02*
G01*
X187540000Y-68524000D01*
X187540000Y-69266462D01*
X188380154Y-69266462D01*
X188380154Y-69930769D01*
X187540000Y-69930769D01*
X187540000Y-70712308D01*
X188516923Y-70712308D01*
X188516923Y-71376615D01*
X186680308Y-71376615D01*
X186680308Y-67879231D01*
X188438770Y-67879231D01*
X188438770Y-68524000D01*
G37*
X188438770Y-68524000D02*
X187540000Y-68524000D01*
X187540000Y-69266462D01*
X188380154Y-69266462D01*
X188380154Y-69930769D01*
X187540000Y-69930769D01*
X187540000Y-70712308D01*
X188516923Y-70712308D01*
X188516923Y-71376615D01*
X186680308Y-71376615D01*
X186680308Y-67879231D01*
X188438770Y-67879231D01*
X188438770Y-68524000D01*
G36*
X187852791Y-71813315D02*
G01*
X188054989Y-71844217D01*
X188226067Y-71897167D01*
X188367343Y-71973347D01*
X188480137Y-72073941D01*
X188565769Y-72200132D01*
X188625556Y-72353102D01*
X188660819Y-72534035D01*
X188672877Y-72744114D01*
X188672892Y-72749192D01*
X188673231Y-72939692D01*
X187813539Y-72939692D01*
X187813539Y-72745807D01*
X187812771Y-72655345D01*
X187809200Y-72594314D01*
X187800923Y-72553075D01*
X187786037Y-72521994D01*
X187763515Y-72492471D01*
X187693877Y-72438083D01*
X187608114Y-72417023D01*
X187512976Y-72430940D01*
X187512295Y-72431164D01*
X187434488Y-72475111D01*
X187385074Y-72545296D01*
X187365199Y-72639944D01*
X187364846Y-72659401D01*
X187368197Y-72713643D01*
X187379446Y-72763650D01*
X187401648Y-72812667D01*
X187437857Y-72863941D01*
X187491127Y-72920716D01*
X187564513Y-72986239D01*
X187661071Y-73063755D01*
X187783853Y-73156508D01*
X187935916Y-73267746D01*
X187940539Y-73271097D01*
X188107019Y-73393184D01*
X188244113Y-73497339D01*
X188355324Y-73586730D01*
X188444157Y-73664525D01*
X188514116Y-73733892D01*
X188568704Y-73797999D01*
X188611426Y-73860014D01*
X188632239Y-73896441D01*
X188677751Y-73994143D01*
X188708330Y-74092975D01*
X188726140Y-74203778D01*
X188733342Y-74337393D01*
X188733714Y-74405077D01*
X188722186Y-74602252D01*
X188688628Y-74770759D01*
X188631327Y-74915308D01*
X188548574Y-75040609D01*
X188473964Y-75119972D01*
X188344177Y-75216403D01*
X188184705Y-75292713D01*
X187999985Y-75347829D01*
X187794449Y-75380681D01*
X187572535Y-75390198D01*
X187393462Y-75380966D01*
X187178688Y-75349447D01*
X186994254Y-75296327D01*
X186837219Y-75220485D01*
X186704643Y-75120802D01*
X186700594Y-75117039D01*
X186615312Y-75023356D01*
X186549362Y-74917481D01*
X186501124Y-74794221D01*
X186468977Y-74648384D01*
X186451302Y-74474777D01*
X186446450Y-74302500D01*
X186445846Y-74112000D01*
X187305539Y-74112000D01*
X187305569Y-74331808D01*
X187311220Y-74474751D01*
X187329801Y-74584177D01*
X187363819Y-74664229D01*
X187415780Y-74719050D01*
X187488191Y-74752784D01*
X187569585Y-74768184D01*
X187674491Y-74764344D01*
X187759895Y-74726859D01*
X187827792Y-74654662D01*
X187849076Y-74618554D01*
X187879276Y-74546340D01*
X187887013Y-74477747D01*
X187884313Y-74440320D01*
X187875165Y-74379553D01*
X187859789Y-74325109D01*
X187834856Y-74273472D01*
X187797038Y-74221127D01*
X187743004Y-74164559D01*
X187669427Y-74100254D01*
X187572976Y-74024695D01*
X187450324Y-73934368D01*
X187310728Y-73834668D01*
X187113975Y-73690979D01*
X186950851Y-73562219D01*
X186819583Y-73446772D01*
X186718398Y-73343020D01*
X186645526Y-73249347D01*
X186617117Y-73201999D01*
X186551792Y-73043530D01*
X186515008Y-72873027D01*
X186505978Y-72697547D01*
X186523916Y-72524153D01*
X186568035Y-72359903D01*
X186637551Y-72211858D01*
X186731676Y-72087078D01*
X186742485Y-72076078D01*
X186858432Y-71979669D01*
X186991323Y-71905610D01*
X187145380Y-71852587D01*
X187324826Y-71819285D01*
X187533883Y-71804388D01*
X187618154Y-71803277D01*
X187852791Y-71813315D01*
G37*
X187852791Y-71813315D02*
X188054989Y-71844217D01*
X188226067Y-71897167D01*
X188367343Y-71973347D01*
X188480137Y-72073941D01*
X188565769Y-72200132D01*
X188625556Y-72353102D01*
X188660819Y-72534035D01*
X188672877Y-72744114D01*
X188672892Y-72749192D01*
X188673231Y-72939692D01*
X187813539Y-72939692D01*
X187813539Y-72745807D01*
X187812771Y-72655345D01*
X187809200Y-72594314D01*
X187800923Y-72553075D01*
X187786037Y-72521994D01*
X187763515Y-72492471D01*
X187693877Y-72438083D01*
X187608114Y-72417023D01*
X187512976Y-72430940D01*
X187512295Y-72431164D01*
X187434488Y-72475111D01*
X187385074Y-72545296D01*
X187365199Y-72639944D01*
X187364846Y-72659401D01*
X187368197Y-72713643D01*
X187379446Y-72763650D01*
X187401648Y-72812667D01*
X187437857Y-72863941D01*
X187491127Y-72920716D01*
X187564513Y-72986239D01*
X187661071Y-73063755D01*
X187783853Y-73156508D01*
X187935916Y-73267746D01*
X187940539Y-73271097D01*
X188107019Y-73393184D01*
X188244113Y-73497339D01*
X188355324Y-73586730D01*
X188444157Y-73664525D01*
X188514116Y-73733892D01*
X188568704Y-73797999D01*
X188611426Y-73860014D01*
X188632239Y-73896441D01*
X188677751Y-73994143D01*
X188708330Y-74092975D01*
X188726140Y-74203778D01*
X188733342Y-74337393D01*
X188733714Y-74405077D01*
X188722186Y-74602252D01*
X188688628Y-74770759D01*
X188631327Y-74915308D01*
X188548574Y-75040609D01*
X188473964Y-75119972D01*
X188344177Y-75216403D01*
X188184705Y-75292713D01*
X187999985Y-75347829D01*
X187794449Y-75380681D01*
X187572535Y-75390198D01*
X187393462Y-75380966D01*
X187178688Y-75349447D01*
X186994254Y-75296327D01*
X186837219Y-75220485D01*
X186704643Y-75120802D01*
X186700594Y-75117039D01*
X186615312Y-75023356D01*
X186549362Y-74917481D01*
X186501124Y-74794221D01*
X186468977Y-74648384D01*
X186451302Y-74474777D01*
X186446450Y-74302500D01*
X186445846Y-74112000D01*
X187305539Y-74112000D01*
X187305569Y-74331808D01*
X187311220Y-74474751D01*
X187329801Y-74584177D01*
X187363819Y-74664229D01*
X187415780Y-74719050D01*
X187488191Y-74752784D01*
X187569585Y-74768184D01*
X187674491Y-74764344D01*
X187759895Y-74726859D01*
X187827792Y-74654662D01*
X187849076Y-74618554D01*
X187879276Y-74546340D01*
X187887013Y-74477747D01*
X187884313Y-74440320D01*
X187875165Y-74379553D01*
X187859789Y-74325109D01*
X187834856Y-74273472D01*
X187797038Y-74221127D01*
X187743004Y-74164559D01*
X187669427Y-74100254D01*
X187572976Y-74024695D01*
X187450324Y-73934368D01*
X187310728Y-73834668D01*
X187113975Y-73690979D01*
X186950851Y-73562219D01*
X186819583Y-73446772D01*
X186718398Y-73343020D01*
X186645526Y-73249347D01*
X186617117Y-73201999D01*
X186551792Y-73043530D01*
X186515008Y-72873027D01*
X186505978Y-72697547D01*
X186523916Y-72524153D01*
X186568035Y-72359903D01*
X186637551Y-72211858D01*
X186731676Y-72087078D01*
X186742485Y-72076078D01*
X186858432Y-71979669D01*
X186991323Y-71905610D01*
X187145380Y-71852587D01*
X187324826Y-71819285D01*
X187533883Y-71804388D01*
X187618154Y-71803277D01*
X187852791Y-71813315D01*
G36*
X183421893Y-57507850D02*
G01*
X183710251Y-57508475D01*
X183959730Y-57509569D01*
X184170379Y-57511133D01*
X184342245Y-57513167D01*
X184475379Y-57515671D01*
X184569828Y-57518645D01*
X184625641Y-57522089D01*
X184638363Y-57523834D01*
X184805796Y-57577860D01*
X184954390Y-57664979D01*
X185080415Y-57782241D01*
X185180137Y-57926698D01*
X185201381Y-57968527D01*
X185263770Y-58100231D01*
X185269318Y-59121115D01*
X185274866Y-60142000D01*
X186219151Y-60142000D01*
X186431166Y-60142416D01*
X186627337Y-60143618D01*
X186804133Y-60145541D01*
X186958022Y-60148118D01*
X187085472Y-60151283D01*
X187182953Y-60154970D01*
X187246931Y-60159112D01*
X187267250Y-60161688D01*
X187434972Y-60212601D01*
X187584052Y-60296810D01*
X187710970Y-60411578D01*
X187812205Y-60554166D01*
X187839073Y-60606219D01*
X187901462Y-60737923D01*
X187906590Y-63741962D01*
X187911719Y-66746000D01*
X188894621Y-66746000D01*
X189121439Y-66746139D01*
X189312637Y-66746624D01*
X189471671Y-66747554D01*
X189601999Y-66749029D01*
X189707076Y-66751149D01*
X189790359Y-66754014D01*
X189855305Y-66757722D01*
X189905369Y-66762375D01*
X189944008Y-66768072D01*
X189974678Y-66774912D01*
X189983646Y-66777440D01*
X190145847Y-66844831D01*
X190285377Y-66942662D01*
X190399009Y-67067696D01*
X190483518Y-67216700D01*
X190518063Y-67313335D01*
X190521614Y-67328216D01*
X190524880Y-67348269D01*
X190527870Y-67375039D01*
X190530595Y-67410076D01*
X190533062Y-67454925D01*
X190535282Y-67511134D01*
X190537264Y-67580250D01*
X190539016Y-67663821D01*
X190540550Y-67763393D01*
X190541872Y-67880514D01*
X190542994Y-68016731D01*
X190543924Y-68173592D01*
X190544672Y-68352643D01*
X190545246Y-68555432D01*
X190545657Y-68783507D01*
X190545913Y-69038413D01*
X190546024Y-69321699D01*
X190545999Y-69634911D01*
X190545848Y-69979598D01*
X190545579Y-70357306D01*
X190545202Y-70769582D01*
X190544727Y-71217974D01*
X190544214Y-71660642D01*
X190539154Y-75899769D01*
X190476450Y-76032148D01*
X190386163Y-76179419D01*
X190268551Y-76302287D01*
X190128703Y-76396872D01*
X189971708Y-76459296D01*
X189893385Y-76476433D01*
X189857536Y-76479078D01*
X189785775Y-76481494D01*
X189681235Y-76483683D01*
X189547045Y-76485644D01*
X189386337Y-76487379D01*
X189202242Y-76488888D01*
X188997890Y-76490171D01*
X188776412Y-76491230D01*
X188540940Y-76492064D01*
X188294603Y-76492675D01*
X188040532Y-76493063D01*
X187781860Y-76493228D01*
X187521715Y-76493172D01*
X187263229Y-76492895D01*
X187009534Y-76492397D01*
X186763759Y-76491680D01*
X186529036Y-76490743D01*
X186308495Y-76489587D01*
X186105267Y-76488213D01*
X185922483Y-76486622D01*
X185763274Y-76484814D01*
X185630771Y-76482790D01*
X185528104Y-76480550D01*
X185458405Y-76478095D01*
X185425557Y-76475561D01*
X185266136Y-76429453D01*
X185119435Y-76349232D01*
X184990959Y-76239191D01*
X184886213Y-76103623D01*
X184840549Y-76019387D01*
X184775308Y-75880231D01*
X184770060Y-72886786D01*
X184764813Y-69893340D01*
X183754060Y-69887632D01*
X183529476Y-69886332D01*
X183340483Y-69885081D01*
X183183598Y-69883720D01*
X183055335Y-69882094D01*
X182952210Y-69880046D01*
X182870738Y-69877419D01*
X182807435Y-69874057D01*
X182758815Y-69869804D01*
X182721396Y-69864502D01*
X182691691Y-69857995D01*
X182666216Y-69850127D01*
X182641486Y-69840741D01*
X182632812Y-69837250D01*
X182478819Y-69754446D01*
X182346394Y-69641279D01*
X182240587Y-69502797D01*
X182182289Y-69386726D01*
X182137616Y-69276231D01*
X182132427Y-66281962D01*
X182127238Y-63287692D01*
X181144396Y-63287692D01*
X180909725Y-63287616D01*
X180710571Y-63287156D01*
X180543373Y-63285966D01*
X180404573Y-63283701D01*
X180290609Y-63280013D01*
X180197922Y-63274558D01*
X180122952Y-63266988D01*
X180062139Y-63256957D01*
X180011922Y-63244121D01*
X179968743Y-63228131D01*
X179929040Y-63208643D01*
X179889253Y-63185309D01*
X179852540Y-63162085D01*
X179731884Y-63067584D01*
X179634428Y-62950910D01*
X179560544Y-62819695D01*
X179499923Y-62691769D01*
X179499923Y-62535937D01*
X179997654Y-62535937D01*
X180041866Y-62622177D01*
X180058148Y-62654482D01*
X180073346Y-62682045D01*
X180090516Y-62705242D01*
X180112711Y-62724449D01*
X180142985Y-62740041D01*
X180184392Y-62752394D01*
X180239986Y-62761883D01*
X180312820Y-62768885D01*
X180405949Y-62773774D01*
X180522427Y-62776928D01*
X180665308Y-62778721D01*
X180837645Y-62779529D01*
X181042493Y-62779729D01*
X181282906Y-62779694D01*
X181322208Y-62779692D01*
X181567959Y-62779734D01*
X181777689Y-62780035D01*
X181954456Y-62780861D01*
X182101315Y-62782476D01*
X182221324Y-62785145D01*
X182317538Y-62789133D01*
X182393015Y-62794704D01*
X182450810Y-62802123D01*
X182493981Y-62811656D01*
X182525584Y-62823566D01*
X182548675Y-62838119D01*
X182566311Y-62855579D01*
X182581548Y-62876212D01*
X182590365Y-62889543D01*
X182595051Y-62897949D01*
X182599320Y-62909413D01*
X182603201Y-62925748D01*
X182606717Y-62948767D01*
X182609896Y-62980280D01*
X182612763Y-63022101D01*
X182615345Y-63076042D01*
X182617666Y-63143915D01*
X182619754Y-63227532D01*
X182621634Y-63328706D01*
X182623332Y-63449249D01*
X182624874Y-63590972D01*
X182626286Y-63755689D01*
X182627593Y-63945212D01*
X182628823Y-64161352D01*
X182630001Y-64405923D01*
X182631152Y-64680735D01*
X182632303Y-64987603D01*
X182633480Y-65328337D01*
X182634709Y-65704750D01*
X182635846Y-66064746D01*
X182637129Y-66473211D01*
X182638320Y-66844416D01*
X182639446Y-67180176D01*
X182640538Y-67482308D01*
X182641622Y-67752627D01*
X182642729Y-67992951D01*
X182643886Y-68205094D01*
X182645122Y-68390873D01*
X182646466Y-68552105D01*
X182647947Y-68690604D01*
X182649592Y-68808188D01*
X182651432Y-68906672D01*
X182653494Y-68987873D01*
X182655807Y-69053607D01*
X182658399Y-69105689D01*
X182661300Y-69145936D01*
X182664538Y-69176165D01*
X182668141Y-69198190D01*
X182672138Y-69213828D01*
X182676559Y-69224896D01*
X182681430Y-69233209D01*
X182685900Y-69239402D01*
X182732430Y-69291566D01*
X182780117Y-69333639D01*
X182792372Y-69342078D01*
X182806829Y-69349284D01*
X182826567Y-69355385D01*
X182854666Y-69360509D01*
X182894205Y-69364783D01*
X182948265Y-69368336D01*
X183019924Y-69371295D01*
X183112262Y-69373789D01*
X183228360Y-69375945D01*
X183371295Y-69377891D01*
X183544150Y-69379755D01*
X183750002Y-69381666D01*
X183985051Y-69383692D01*
X185136051Y-69393462D01*
X185199910Y-69457334D01*
X185263770Y-69521206D01*
X185273539Y-72651872D01*
X185283308Y-75782539D01*
X185328628Y-75846078D01*
X185385929Y-75909531D01*
X185457605Y-75951796D01*
X185506859Y-75969380D01*
X185532764Y-75971406D01*
X185595170Y-75973293D01*
X185691500Y-75975026D01*
X185819179Y-75976592D01*
X185975631Y-75977977D01*
X186158279Y-75979165D01*
X186364548Y-75980144D01*
X186591862Y-75980900D01*
X186837644Y-75981418D01*
X187099319Y-75981683D01*
X187374310Y-75981683D01*
X187660042Y-75981403D01*
X187699766Y-75981343D01*
X188035012Y-75980801D01*
X188333391Y-75980276D01*
X188597113Y-75979723D01*
X188828387Y-75979099D01*
X189029424Y-75978359D01*
X189202432Y-75977457D01*
X189349623Y-75976350D01*
X189473205Y-75974993D01*
X189575388Y-75973342D01*
X189658383Y-75971351D01*
X189724399Y-75968977D01*
X189775646Y-75966175D01*
X189814334Y-75962900D01*
X189842672Y-75959109D01*
X189862870Y-75954755D01*
X189877138Y-75949795D01*
X189887686Y-75944184D01*
X189896724Y-75937879D01*
X189897843Y-75937050D01*
X189947100Y-75891970D01*
X189993314Y-75836818D01*
X189996962Y-75831583D01*
X190040923Y-75766990D01*
X190040923Y-71627098D01*
X190040952Y-71147512D01*
X190041009Y-70705451D01*
X190041052Y-70299366D01*
X190041037Y-69927705D01*
X190040922Y-69588918D01*
X190040662Y-69281454D01*
X190040216Y-69003762D01*
X190039540Y-68754291D01*
X190038591Y-68531491D01*
X190037326Y-68333810D01*
X190035702Y-68159699D01*
X190033676Y-68007606D01*
X190031204Y-67875980D01*
X190028244Y-67763271D01*
X190024752Y-67667927D01*
X190020686Y-67588399D01*
X190016003Y-67523135D01*
X190010658Y-67470584D01*
X190004610Y-67429196D01*
X189997815Y-67397420D01*
X189990231Y-67373705D01*
X189981813Y-67356501D01*
X189972519Y-67344256D01*
X189962306Y-67335420D01*
X189951131Y-67328441D01*
X189938950Y-67321770D01*
X189925721Y-67313855D01*
X189921019Y-67310635D01*
X189855308Y-67263769D01*
X188712308Y-67254000D01*
X188471226Y-67251874D01*
X188266149Y-67249867D01*
X188094007Y-67247861D01*
X187951730Y-67245741D01*
X187836245Y-67243391D01*
X187744483Y-67240696D01*
X187673373Y-67237539D01*
X187619844Y-67233804D01*
X187580825Y-67229376D01*
X187553246Y-67224138D01*
X187534035Y-67217975D01*
X187520123Y-67210771D01*
X187517260Y-67208894D01*
X187502426Y-67199687D01*
X187488933Y-67191944D01*
X187476716Y-67183866D01*
X187465713Y-67173653D01*
X187455862Y-67159502D01*
X187447097Y-67139615D01*
X187439357Y-67112190D01*
X187432578Y-67075426D01*
X187426697Y-67027524D01*
X187421650Y-66966682D01*
X187417374Y-66891100D01*
X187413807Y-66798977D01*
X187410885Y-66688513D01*
X187408544Y-66557907D01*
X187406722Y-66405358D01*
X187405355Y-66229067D01*
X187404380Y-66027231D01*
X187403734Y-65798051D01*
X187403353Y-65539726D01*
X187403175Y-65250456D01*
X187403136Y-64928439D01*
X187403172Y-64571876D01*
X187403221Y-64178965D01*
X187403231Y-63961477D01*
X187403231Y-60880013D01*
X187362313Y-60807208D01*
X187345954Y-60777434D01*
X187330895Y-60751969D01*
X187314120Y-60730452D01*
X187292614Y-60712522D01*
X187263362Y-60697815D01*
X187223350Y-60685971D01*
X187169563Y-60676628D01*
X187098985Y-60669424D01*
X187008603Y-60663997D01*
X186895400Y-60659985D01*
X186756362Y-60657027D01*
X186588474Y-60654761D01*
X186388721Y-60652824D01*
X186154089Y-60650856D01*
X186052225Y-60650000D01*
X185811807Y-60647912D01*
X185607405Y-60645989D01*
X185435960Y-60644105D01*
X185294413Y-60642135D01*
X185179703Y-60639952D01*
X185088771Y-60637432D01*
X185018558Y-60634448D01*
X184966004Y-60630875D01*
X184928050Y-60626588D01*
X184901636Y-60621460D01*
X184883702Y-60615367D01*
X184871190Y-60608181D01*
X184862567Y-60601154D01*
X184842469Y-60582686D01*
X184825358Y-60563863D01*
X184810993Y-60541561D01*
X184799134Y-60512655D01*
X184789542Y-60474022D01*
X184781974Y-60422538D01*
X184776192Y-60355077D01*
X184771956Y-60268517D01*
X184769024Y-60159733D01*
X184767157Y-60025601D01*
X184766114Y-59862997D01*
X184765656Y-59668796D01*
X184765542Y-59439875D01*
X184765539Y-59339326D01*
X184765515Y-59104704D01*
X184765367Y-58905938D01*
X184764978Y-58739807D01*
X184764229Y-58603091D01*
X184763003Y-58492568D01*
X184761185Y-58405017D01*
X184758655Y-58337218D01*
X184755298Y-58285950D01*
X184750996Y-58247993D01*
X184745632Y-58220124D01*
X184739088Y-58199123D01*
X184731248Y-58181770D01*
X184722865Y-58166393D01*
X184658542Y-58089743D01*
X184598941Y-58051133D01*
X184585640Y-58045003D01*
X184571026Y-58039552D01*
X184552872Y-58034747D01*
X184528950Y-58030552D01*
X184497034Y-58026935D01*
X184454897Y-58023861D01*
X184400310Y-58021296D01*
X184331048Y-58019206D01*
X184244882Y-58017558D01*
X184139586Y-58016317D01*
X184012932Y-58015449D01*
X183862693Y-58014921D01*
X183686642Y-58014698D01*
X183482551Y-58014747D01*
X183248195Y-58015033D01*
X182981344Y-58015522D01*
X182679773Y-58016182D01*
X182357044Y-58016939D01*
X182020307Y-58017748D01*
X181720449Y-58018515D01*
X181455268Y-58019282D01*
X181222566Y-58020097D01*
X181020144Y-58021004D01*
X180845801Y-58022047D01*
X180697339Y-58023273D01*
X180572559Y-58024726D01*
X180469260Y-58026451D01*
X180385244Y-58028494D01*
X180318311Y-58030899D01*
X180266262Y-58033712D01*
X180226897Y-58036977D01*
X180198017Y-58040741D01*
X180177424Y-58045047D01*
X180162916Y-58049942D01*
X180152296Y-58055470D01*
X180143363Y-58061676D01*
X180142444Y-58062361D01*
X180090279Y-58108899D01*
X180048208Y-58156597D01*
X180041931Y-58165477D01*
X180036337Y-58175815D01*
X180031381Y-58189809D01*
X180027016Y-58209659D01*
X180023199Y-58237562D01*
X180019884Y-58275716D01*
X180017027Y-58326321D01*
X180014581Y-58391573D01*
X180012503Y-58473672D01*
X180010746Y-58574815D01*
X180009267Y-58697202D01*
X180008019Y-58843029D01*
X180006959Y-59014496D01*
X180006040Y-59213801D01*
X180005218Y-59443142D01*
X180004448Y-59704717D01*
X180003685Y-60000725D01*
X180002884Y-60333363D01*
X180002789Y-60373243D01*
X179997654Y-62535937D01*
X179499923Y-62535937D01*
X179499923Y-58119769D01*
X179544596Y-58009274D01*
X179627400Y-57855280D01*
X179740568Y-57722855D01*
X179879049Y-57617048D01*
X179995120Y-57558750D01*
X180105616Y-57514077D01*
X182323055Y-57508785D01*
X182728344Y-57508005D01*
X183094607Y-57507693D01*
X183421893Y-57507850D01*
G37*
X183421893Y-57507850D02*
X183710251Y-57508475D01*
X183959730Y-57509569D01*
X184170379Y-57511133D01*
X184342245Y-57513167D01*
X184475379Y-57515671D01*
X184569828Y-57518645D01*
X184625641Y-57522089D01*
X184638363Y-57523834D01*
X184805796Y-57577860D01*
X184954390Y-57664979D01*
X185080415Y-57782241D01*
X185180137Y-57926698D01*
X185201381Y-57968527D01*
X185263770Y-58100231D01*
X185269318Y-59121115D01*
X185274866Y-60142000D01*
X186219151Y-60142000D01*
X186431166Y-60142416D01*
X186627337Y-60143618D01*
X186804133Y-60145541D01*
X186958022Y-60148118D01*
X187085472Y-60151283D01*
X187182953Y-60154970D01*
X187246931Y-60159112D01*
X187267250Y-60161688D01*
X187434972Y-60212601D01*
X187584052Y-60296810D01*
X187710970Y-60411578D01*
X187812205Y-60554166D01*
X187839073Y-60606219D01*
X187901462Y-60737923D01*
X187906590Y-63741962D01*
X187911719Y-66746000D01*
X188894621Y-66746000D01*
X189121439Y-66746139D01*
X189312637Y-66746624D01*
X189471671Y-66747554D01*
X189601999Y-66749029D01*
X189707076Y-66751149D01*
X189790359Y-66754014D01*
X189855305Y-66757722D01*
X189905369Y-66762375D01*
X189944008Y-66768072D01*
X189974678Y-66774912D01*
X189983646Y-66777440D01*
X190145847Y-66844831D01*
X190285377Y-66942662D01*
X190399009Y-67067696D01*
X190483518Y-67216700D01*
X190518063Y-67313335D01*
X190521614Y-67328216D01*
X190524880Y-67348269D01*
X190527870Y-67375039D01*
X190530595Y-67410076D01*
X190533062Y-67454925D01*
X190535282Y-67511134D01*
X190537264Y-67580250D01*
X190539016Y-67663821D01*
X190540550Y-67763393D01*
X190541872Y-67880514D01*
X190542994Y-68016731D01*
X190543924Y-68173592D01*
X190544672Y-68352643D01*
X190545246Y-68555432D01*
X190545657Y-68783507D01*
X190545913Y-69038413D01*
X190546024Y-69321699D01*
X190545999Y-69634911D01*
X190545848Y-69979598D01*
X190545579Y-70357306D01*
X190545202Y-70769582D01*
X190544727Y-71217974D01*
X190544214Y-71660642D01*
X190539154Y-75899769D01*
X190476450Y-76032148D01*
X190386163Y-76179419D01*
X190268551Y-76302287D01*
X190128703Y-76396872D01*
X189971708Y-76459296D01*
X189893385Y-76476433D01*
X189857536Y-76479078D01*
X189785775Y-76481494D01*
X189681235Y-76483683D01*
X189547045Y-76485644D01*
X189386337Y-76487379D01*
X189202242Y-76488888D01*
X188997890Y-76490171D01*
X188776412Y-76491230D01*
X188540940Y-76492064D01*
X188294603Y-76492675D01*
X188040532Y-76493063D01*
X187781860Y-76493228D01*
X187521715Y-76493172D01*
X187263229Y-76492895D01*
X187009534Y-76492397D01*
X186763759Y-76491680D01*
X186529036Y-76490743D01*
X186308495Y-76489587D01*
X186105267Y-76488213D01*
X185922483Y-76486622D01*
X185763274Y-76484814D01*
X185630771Y-76482790D01*
X185528104Y-76480550D01*
X185458405Y-76478095D01*
X185425557Y-76475561D01*
X185266136Y-76429453D01*
X185119435Y-76349232D01*
X184990959Y-76239191D01*
X184886213Y-76103623D01*
X184840549Y-76019387D01*
X184775308Y-75880231D01*
X184770060Y-72886786D01*
X184764813Y-69893340D01*
X183754060Y-69887632D01*
X183529476Y-69886332D01*
X183340483Y-69885081D01*
X183183598Y-69883720D01*
X183055335Y-69882094D01*
X182952210Y-69880046D01*
X182870738Y-69877419D01*
X182807435Y-69874057D01*
X182758815Y-69869804D01*
X182721396Y-69864502D01*
X182691691Y-69857995D01*
X182666216Y-69850127D01*
X182641486Y-69840741D01*
X182632812Y-69837250D01*
X182478819Y-69754446D01*
X182346394Y-69641279D01*
X182240587Y-69502797D01*
X182182289Y-69386726D01*
X182137616Y-69276231D01*
X182132427Y-66281962D01*
X182127238Y-63287692D01*
X181144396Y-63287692D01*
X180909725Y-63287616D01*
X180710571Y-63287156D01*
X180543373Y-63285966D01*
X180404573Y-63283701D01*
X180290609Y-63280013D01*
X180197922Y-63274558D01*
X180122952Y-63266988D01*
X180062139Y-63256957D01*
X180011922Y-63244121D01*
X179968743Y-63228131D01*
X179929040Y-63208643D01*
X179889253Y-63185309D01*
X179852540Y-63162085D01*
X179731884Y-63067584D01*
X179634428Y-62950910D01*
X179560544Y-62819695D01*
X179499923Y-62691769D01*
X179499923Y-62535937D01*
X179997654Y-62535937D01*
X180041866Y-62622177D01*
X180058148Y-62654482D01*
X180073346Y-62682045D01*
X180090516Y-62705242D01*
X180112711Y-62724449D01*
X180142985Y-62740041D01*
X180184392Y-62752394D01*
X180239986Y-62761883D01*
X180312820Y-62768885D01*
X180405949Y-62773774D01*
X180522427Y-62776928D01*
X180665308Y-62778721D01*
X180837645Y-62779529D01*
X181042493Y-62779729D01*
X181282906Y-62779694D01*
X181322208Y-62779692D01*
X181567959Y-62779734D01*
X181777689Y-62780035D01*
X181954456Y-62780861D01*
X182101315Y-62782476D01*
X182221324Y-62785145D01*
X182317538Y-62789133D01*
X182393015Y-62794704D01*
X182450810Y-62802123D01*
X182493981Y-62811656D01*
X182525584Y-62823566D01*
X182548675Y-62838119D01*
X182566311Y-62855579D01*
X182581548Y-62876212D01*
X182590365Y-62889543D01*
X182595051Y-62897949D01*
X182599320Y-62909413D01*
X182603201Y-62925748D01*
X182606717Y-62948767D01*
X182609896Y-62980280D01*
X182612763Y-63022101D01*
X182615345Y-63076042D01*
X182617666Y-63143915D01*
X182619754Y-63227532D01*
X182621634Y-63328706D01*
X182623332Y-63449249D01*
X182624874Y-63590972D01*
X182626286Y-63755689D01*
X182627593Y-63945212D01*
X182628823Y-64161352D01*
X182630001Y-64405923D01*
X182631152Y-64680735D01*
X182632303Y-64987603D01*
X182633480Y-65328337D01*
X182634709Y-65704750D01*
X182635846Y-66064746D01*
X182637129Y-66473211D01*
X182638320Y-66844416D01*
X182639446Y-67180176D01*
X182640538Y-67482308D01*
X182641622Y-67752627D01*
X182642729Y-67992951D01*
X182643886Y-68205094D01*
X182645122Y-68390873D01*
X182646466Y-68552105D01*
X182647947Y-68690604D01*
X182649592Y-68808188D01*
X182651432Y-68906672D01*
X182653494Y-68987873D01*
X182655807Y-69053607D01*
X182658399Y-69105689D01*
X182661300Y-69145936D01*
X182664538Y-69176165D01*
X182668141Y-69198190D01*
X182672138Y-69213828D01*
X182676559Y-69224896D01*
X182681430Y-69233209D01*
X182685900Y-69239402D01*
X182732430Y-69291566D01*
X182780117Y-69333639D01*
X182792372Y-69342078D01*
X182806829Y-69349284D01*
X182826567Y-69355385D01*
X182854666Y-69360509D01*
X182894205Y-69364783D01*
X182948265Y-69368336D01*
X183019924Y-69371295D01*
X183112262Y-69373789D01*
X183228360Y-69375945D01*
X183371295Y-69377891D01*
X183544150Y-69379755D01*
X183750002Y-69381666D01*
X183985051Y-69383692D01*
X185136051Y-69393462D01*
X185199910Y-69457334D01*
X185263770Y-69521206D01*
X185273539Y-72651872D01*
X185283308Y-75782539D01*
X185328628Y-75846078D01*
X185385929Y-75909531D01*
X185457605Y-75951796D01*
X185506859Y-75969380D01*
X185532764Y-75971406D01*
X185595170Y-75973293D01*
X185691500Y-75975026D01*
X185819179Y-75976592D01*
X185975631Y-75977977D01*
X186158279Y-75979165D01*
X186364548Y-75980144D01*
X186591862Y-75980900D01*
X186837644Y-75981418D01*
X187099319Y-75981683D01*
X187374310Y-75981683D01*
X187660042Y-75981403D01*
X187699766Y-75981343D01*
X188035012Y-75980801D01*
X188333391Y-75980276D01*
X188597113Y-75979723D01*
X188828387Y-75979099D01*
X189029424Y-75978359D01*
X189202432Y-75977457D01*
X189349623Y-75976350D01*
X189473205Y-75974993D01*
X189575388Y-75973342D01*
X189658383Y-75971351D01*
X189724399Y-75968977D01*
X189775646Y-75966175D01*
X189814334Y-75962900D01*
X189842672Y-75959109D01*
X189862870Y-75954755D01*
X189877138Y-75949795D01*
X189887686Y-75944184D01*
X189896724Y-75937879D01*
X189897843Y-75937050D01*
X189947100Y-75891970D01*
X189993314Y-75836818D01*
X189996962Y-75831583D01*
X190040923Y-75766990D01*
X190040923Y-71627098D01*
X190040952Y-71147512D01*
X190041009Y-70705451D01*
X190041052Y-70299366D01*
X190041037Y-69927705D01*
X190040922Y-69588918D01*
X190040662Y-69281454D01*
X190040216Y-69003762D01*
X190039540Y-68754291D01*
X190038591Y-68531491D01*
X190037326Y-68333810D01*
X190035702Y-68159699D01*
X190033676Y-68007606D01*
X190031204Y-67875980D01*
X190028244Y-67763271D01*
X190024752Y-67667927D01*
X190020686Y-67588399D01*
X190016003Y-67523135D01*
X190010658Y-67470584D01*
X190004610Y-67429196D01*
X189997815Y-67397420D01*
X189990231Y-67373705D01*
X189981813Y-67356501D01*
X189972519Y-67344256D01*
X189962306Y-67335420D01*
X189951131Y-67328441D01*
X189938950Y-67321770D01*
X189925721Y-67313855D01*
X189921019Y-67310635D01*
X189855308Y-67263769D01*
X188712308Y-67254000D01*
X188471226Y-67251874D01*
X188266149Y-67249867D01*
X188094007Y-67247861D01*
X187951730Y-67245741D01*
X187836245Y-67243391D01*
X187744483Y-67240696D01*
X187673373Y-67237539D01*
X187619844Y-67233804D01*
X187580825Y-67229376D01*
X187553246Y-67224138D01*
X187534035Y-67217975D01*
X187520123Y-67210771D01*
X187517260Y-67208894D01*
X187502426Y-67199687D01*
X187488933Y-67191944D01*
X187476716Y-67183866D01*
X187465713Y-67173653D01*
X187455862Y-67159502D01*
X187447097Y-67139615D01*
X187439357Y-67112190D01*
X187432578Y-67075426D01*
X187426697Y-67027524D01*
X187421650Y-66966682D01*
X187417374Y-66891100D01*
X187413807Y-66798977D01*
X187410885Y-66688513D01*
X187408544Y-66557907D01*
X187406722Y-66405358D01*
X187405355Y-66229067D01*
X187404380Y-66027231D01*
X187403734Y-65798051D01*
X187403353Y-65539726D01*
X187403175Y-65250456D01*
X187403136Y-64928439D01*
X187403172Y-64571876D01*
X187403221Y-64178965D01*
X187403231Y-63961477D01*
X187403231Y-60880013D01*
X187362313Y-60807208D01*
X187345954Y-60777434D01*
X187330895Y-60751969D01*
X187314120Y-60730452D01*
X187292614Y-60712522D01*
X187263362Y-60697815D01*
X187223350Y-60685971D01*
X187169563Y-60676628D01*
X187098985Y-60669424D01*
X187008603Y-60663997D01*
X186895400Y-60659985D01*
X186756362Y-60657027D01*
X186588474Y-60654761D01*
X186388721Y-60652824D01*
X186154089Y-60650856D01*
X186052225Y-60650000D01*
X185811807Y-60647912D01*
X185607405Y-60645989D01*
X185435960Y-60644105D01*
X185294413Y-60642135D01*
X185179703Y-60639952D01*
X185088771Y-60637432D01*
X185018558Y-60634448D01*
X184966004Y-60630875D01*
X184928050Y-60626588D01*
X184901636Y-60621460D01*
X184883702Y-60615367D01*
X184871190Y-60608181D01*
X184862567Y-60601154D01*
X184842469Y-60582686D01*
X184825358Y-60563863D01*
X184810993Y-60541561D01*
X184799134Y-60512655D01*
X184789542Y-60474022D01*
X184781974Y-60422538D01*
X184776192Y-60355077D01*
X184771956Y-60268517D01*
X184769024Y-60159733D01*
X184767157Y-60025601D01*
X184766114Y-59862997D01*
X184765656Y-59668796D01*
X184765542Y-59439875D01*
X184765539Y-59339326D01*
X184765515Y-59104704D01*
X184765367Y-58905938D01*
X184764978Y-58739807D01*
X184764229Y-58603091D01*
X184763003Y-58492568D01*
X184761185Y-58405017D01*
X184758655Y-58337218D01*
X184755298Y-58285950D01*
X184750996Y-58247993D01*
X184745632Y-58220124D01*
X184739088Y-58199123D01*
X184731248Y-58181770D01*
X184722865Y-58166393D01*
X184658542Y-58089743D01*
X184598941Y-58051133D01*
X184585640Y-58045003D01*
X184571026Y-58039552D01*
X184552872Y-58034747D01*
X184528950Y-58030552D01*
X184497034Y-58026935D01*
X184454897Y-58023861D01*
X184400310Y-58021296D01*
X184331048Y-58019206D01*
X184244882Y-58017558D01*
X184139586Y-58016317D01*
X184012932Y-58015449D01*
X183862693Y-58014921D01*
X183686642Y-58014698D01*
X183482551Y-58014747D01*
X183248195Y-58015033D01*
X182981344Y-58015522D01*
X182679773Y-58016182D01*
X182357044Y-58016939D01*
X182020307Y-58017748D01*
X181720449Y-58018515D01*
X181455268Y-58019282D01*
X181222566Y-58020097D01*
X181020144Y-58021004D01*
X180845801Y-58022047D01*
X180697339Y-58023273D01*
X180572559Y-58024726D01*
X180469260Y-58026451D01*
X180385244Y-58028494D01*
X180318311Y-58030899D01*
X180266262Y-58033712D01*
X180226897Y-58036977D01*
X180198017Y-58040741D01*
X180177424Y-58045047D01*
X180162916Y-58049942D01*
X180152296Y-58055470D01*
X180143363Y-58061676D01*
X180142444Y-58062361D01*
X180090279Y-58108899D01*
X180048208Y-58156597D01*
X180041931Y-58165477D01*
X180036337Y-58175815D01*
X180031381Y-58189809D01*
X180027016Y-58209659D01*
X180023199Y-58237562D01*
X180019884Y-58275716D01*
X180017027Y-58326321D01*
X180014581Y-58391573D01*
X180012503Y-58473672D01*
X180010746Y-58574815D01*
X180009267Y-58697202D01*
X180008019Y-58843029D01*
X180006959Y-59014496D01*
X180006040Y-59213801D01*
X180005218Y-59443142D01*
X180004448Y-59704717D01*
X180003685Y-60000725D01*
X180002884Y-60333363D01*
X180002789Y-60373243D01*
X179997654Y-62535937D01*
X179499923Y-62535937D01*
X179499923Y-58119769D01*
X179544596Y-58009274D01*
X179627400Y-57855280D01*
X179740568Y-57722855D01*
X179879049Y-57617048D01*
X179995120Y-57558750D01*
X180105616Y-57514077D01*
X182323055Y-57508785D01*
X182728344Y-57508005D01*
X183094607Y-57507693D01*
X183421893Y-57507850D01*
G36*
X210825706Y-64087252D02*
G01*
X211040718Y-64088945D01*
X211199321Y-64093061D01*
X211312999Y-64100648D01*
X211393234Y-64112753D01*
X211451510Y-64130423D01*
X211499308Y-64154706D01*
X211534412Y-64177363D01*
X211679300Y-64308883D01*
X211751110Y-64463348D01*
X211759285Y-64612734D01*
X211747121Y-64761562D01*
X213263633Y-64761562D01*
X213640945Y-64762574D01*
X213982196Y-64765491D01*
X214279904Y-64770134D01*
X214526589Y-64776324D01*
X214714771Y-64783882D01*
X214836971Y-64792629D01*
X214881929Y-64800260D01*
X214971136Y-64859756D01*
X215055879Y-64954627D01*
X215065316Y-64968932D01*
X215097585Y-65022157D01*
X215122475Y-65073290D01*
X215137608Y-65127557D01*
X215140604Y-65190180D01*
X215129086Y-65266384D01*
X215100674Y-65361394D01*
X215052990Y-65480434D01*
X214983656Y-65628727D01*
X214890294Y-65811497D01*
X214770524Y-66033970D01*
X214621968Y-66301369D01*
X214442248Y-66618918D01*
X214228984Y-66991841D01*
X213979800Y-67425363D01*
X213822594Y-67698437D01*
X212531487Y-69940781D01*
X212914259Y-69961692D01*
X213090162Y-69975707D01*
X213243689Y-69995906D01*
X213352212Y-70018950D01*
X213383250Y-70030895D01*
X213526261Y-70152816D01*
X213611503Y-70315460D01*
X213633742Y-70500050D01*
X213587745Y-70687809D01*
X213574171Y-70715986D01*
X213532243Y-70787891D01*
X213483206Y-70843867D01*
X213417337Y-70885726D01*
X213324915Y-70915281D01*
X213196219Y-70934342D01*
X213021526Y-70944722D01*
X212791115Y-70948232D01*
X212495265Y-70946683D01*
X212345700Y-70944916D01*
X212051140Y-70940924D01*
X211825411Y-70936777D01*
X211657974Y-70931366D01*
X211538290Y-70923585D01*
X211455823Y-70912326D01*
X211400032Y-70896483D01*
X211360379Y-70874946D01*
X211326327Y-70846611D01*
X211315711Y-70836697D01*
X211203186Y-70680134D01*
X211161246Y-70497058D01*
X211189485Y-70316828D01*
X211218060Y-70256599D01*
X211282867Y-70133984D01*
X211380371Y-69955290D01*
X211507037Y-69726827D01*
X211659329Y-69454902D01*
X211833712Y-69145822D01*
X212026648Y-68805897D01*
X212234604Y-68441434D01*
X212454044Y-68058741D01*
X212497310Y-67983504D01*
X212716460Y-67602245D01*
X212923462Y-67241426D01*
X213114983Y-66906906D01*
X213287686Y-66604543D01*
X213438238Y-66340195D01*
X213563302Y-66119721D01*
X213659545Y-65948979D01*
X213723631Y-65833827D01*
X213752225Y-65780123D01*
X213753437Y-65776992D01*
X213715306Y-65771381D01*
X213607135Y-65766257D01*
X213438261Y-65761789D01*
X213218017Y-65758147D01*
X212955740Y-65755499D01*
X212660764Y-65754013D01*
X212467717Y-65753750D01*
X211181998Y-65753750D01*
X209744455Y-68254462D01*
X209466472Y-68736567D01*
X209209839Y-69178693D01*
X208976712Y-69577235D01*
X208769249Y-69928587D01*
X208589606Y-70229145D01*
X208439938Y-70475304D01*
X208322402Y-70663460D01*
X208239155Y-70790008D01*
X208192353Y-70851342D01*
X208189474Y-70853993D01*
X208038642Y-70932660D01*
X207860668Y-70951912D01*
X207682286Y-70910628D01*
X207618556Y-70877982D01*
X207490959Y-70756236D01*
X207420228Y-70590179D01*
X207413344Y-70404152D01*
X207436395Y-70338997D01*
X207496527Y-70212576D01*
X207594223Y-70024017D01*
X207729965Y-69772447D01*
X207904233Y-69456991D01*
X208117508Y-69076778D01*
X208370274Y-68630933D01*
X208663010Y-68118585D01*
X208922716Y-67666464D01*
X210411930Y-65079062D01*
X209998507Y-65079062D01*
X209812933Y-65078251D01*
X209687646Y-65072857D01*
X209603559Y-65058436D01*
X209541583Y-65030544D01*
X209482631Y-64984739D01*
X209444312Y-64950054D01*
X209329788Y-64798309D01*
X209281607Y-64627094D01*
X209297465Y-64454274D01*
X209375062Y-64297713D01*
X209512095Y-64175275D01*
X209546562Y-64156389D01*
X209603168Y-64132936D01*
X209673948Y-64115320D01*
X209770306Y-64102747D01*
X209903649Y-64094422D01*
X210085382Y-64089549D01*
X210326912Y-64087333D01*
X210542802Y-64086936D01*
X210825706Y-64087252D01*
G37*
X210825706Y-64087252D02*
X211040718Y-64088945D01*
X211199321Y-64093061D01*
X211312999Y-64100648D01*
X211393234Y-64112753D01*
X211451510Y-64130423D01*
X211499308Y-64154706D01*
X211534412Y-64177363D01*
X211679300Y-64308883D01*
X211751110Y-64463348D01*
X211759285Y-64612734D01*
X211747121Y-64761562D01*
X213263633Y-64761562D01*
X213640945Y-64762574D01*
X213982196Y-64765491D01*
X214279904Y-64770134D01*
X214526589Y-64776324D01*
X214714771Y-64783882D01*
X214836971Y-64792629D01*
X214881929Y-64800260D01*
X214971136Y-64859756D01*
X215055879Y-64954627D01*
X215065316Y-64968932D01*
X215097585Y-65022157D01*
X215122475Y-65073290D01*
X215137608Y-65127557D01*
X215140604Y-65190180D01*
X215129086Y-65266384D01*
X215100674Y-65361394D01*
X215052990Y-65480434D01*
X214983656Y-65628727D01*
X214890294Y-65811497D01*
X214770524Y-66033970D01*
X214621968Y-66301369D01*
X214442248Y-66618918D01*
X214228984Y-66991841D01*
X213979800Y-67425363D01*
X213822594Y-67698437D01*
X212531487Y-69940781D01*
X212914259Y-69961692D01*
X213090162Y-69975707D01*
X213243689Y-69995906D01*
X213352212Y-70018950D01*
X213383250Y-70030895D01*
X213526261Y-70152816D01*
X213611503Y-70315460D01*
X213633742Y-70500050D01*
X213587745Y-70687809D01*
X213574171Y-70715986D01*
X213532243Y-70787891D01*
X213483206Y-70843867D01*
X213417337Y-70885726D01*
X213324915Y-70915281D01*
X213196219Y-70934342D01*
X213021526Y-70944722D01*
X212791115Y-70948232D01*
X212495265Y-70946683D01*
X212345700Y-70944916D01*
X212051140Y-70940924D01*
X211825411Y-70936777D01*
X211657974Y-70931366D01*
X211538290Y-70923585D01*
X211455823Y-70912326D01*
X211400032Y-70896483D01*
X211360379Y-70874946D01*
X211326327Y-70846611D01*
X211315711Y-70836697D01*
X211203186Y-70680134D01*
X211161246Y-70497058D01*
X211189485Y-70316828D01*
X211218060Y-70256599D01*
X211282867Y-70133984D01*
X211380371Y-69955290D01*
X211507037Y-69726827D01*
X211659329Y-69454902D01*
X211833712Y-69145822D01*
X212026648Y-68805897D01*
X212234604Y-68441434D01*
X212454044Y-68058741D01*
X212497310Y-67983504D01*
X212716460Y-67602245D01*
X212923462Y-67241426D01*
X213114983Y-66906906D01*
X213287686Y-66604543D01*
X213438238Y-66340195D01*
X213563302Y-66119721D01*
X213659545Y-65948979D01*
X213723631Y-65833827D01*
X213752225Y-65780123D01*
X213753437Y-65776992D01*
X213715306Y-65771381D01*
X213607135Y-65766257D01*
X213438261Y-65761789D01*
X213218017Y-65758147D01*
X212955740Y-65755499D01*
X212660764Y-65754013D01*
X212467717Y-65753750D01*
X211181998Y-65753750D01*
X209744455Y-68254462D01*
X209466472Y-68736567D01*
X209209839Y-69178693D01*
X208976712Y-69577235D01*
X208769249Y-69928587D01*
X208589606Y-70229145D01*
X208439938Y-70475304D01*
X208322402Y-70663460D01*
X208239155Y-70790008D01*
X208192353Y-70851342D01*
X208189474Y-70853993D01*
X208038642Y-70932660D01*
X207860668Y-70951912D01*
X207682286Y-70910628D01*
X207618556Y-70877982D01*
X207490959Y-70756236D01*
X207420228Y-70590179D01*
X207413344Y-70404152D01*
X207436395Y-70338997D01*
X207496527Y-70212576D01*
X207594223Y-70024017D01*
X207729965Y-69772447D01*
X207904233Y-69456991D01*
X208117508Y-69076778D01*
X208370274Y-68630933D01*
X208663010Y-68118585D01*
X208922716Y-67666464D01*
X210411930Y-65079062D01*
X209998507Y-65079062D01*
X209812933Y-65078251D01*
X209687646Y-65072857D01*
X209603559Y-65058436D01*
X209541583Y-65030544D01*
X209482631Y-64984739D01*
X209444312Y-64950054D01*
X209329788Y-64798309D01*
X209281607Y-64627094D01*
X209297465Y-64454274D01*
X209375062Y-64297713D01*
X209512095Y-64175275D01*
X209546562Y-64156389D01*
X209603168Y-64132936D01*
X209673948Y-64115320D01*
X209770306Y-64102747D01*
X209903649Y-64094422D01*
X210085382Y-64089549D01*
X210326912Y-64087333D01*
X210542802Y-64086936D01*
X210825706Y-64087252D01*
G36*
X218820388Y-66051582D02*
G01*
X219152405Y-66052335D01*
X219420491Y-66054000D01*
X219632369Y-66056912D01*
X219795762Y-66061408D01*
X219918390Y-66067822D01*
X220007976Y-66076490D01*
X220072242Y-66087748D01*
X220118911Y-66101931D01*
X220155704Y-66119375D01*
X220169780Y-66127579D01*
X220310065Y-66249412D01*
X220383340Y-66408695D01*
X220397038Y-66563459D01*
X220391095Y-66607474D01*
X220373243Y-66667081D01*
X220340608Y-66747664D01*
X220290314Y-66854604D01*
X220219485Y-66993285D01*
X220125245Y-67169088D01*
X220004719Y-67387395D01*
X219855032Y-67653590D01*
X219673308Y-67973055D01*
X219456670Y-68351171D01*
X219249980Y-68710468D01*
X219039841Y-69075205D01*
X218840819Y-69420477D01*
X218656569Y-69739955D01*
X218490746Y-70027310D01*
X218347006Y-70276213D01*
X218229002Y-70480334D01*
X218140390Y-70633343D01*
X218084824Y-70728911D01*
X218066672Y-70759673D01*
X218004065Y-70826236D01*
X217917763Y-70888658D01*
X217883229Y-70904560D01*
X217833622Y-70917643D01*
X217761562Y-70928173D01*
X217659670Y-70936416D01*
X217520565Y-70942640D01*
X217336870Y-70947111D01*
X217101203Y-70950095D01*
X216806187Y-70951859D01*
X216444440Y-70952669D01*
X216141530Y-70952812D01*
X214473902Y-70952812D01*
X214356942Y-70854397D01*
X214226900Y-70702885D01*
X214163943Y-70530679D01*
X214166464Y-70387927D01*
X214190503Y-70330551D01*
X214250828Y-70211049D01*
X214343844Y-70035923D01*
X214384047Y-69962094D01*
X215536724Y-69962094D01*
X216459161Y-69951437D01*
X217381598Y-69940781D01*
X218090025Y-68710468D01*
X218259473Y-68416174D01*
X218421236Y-68135193D01*
X218569827Y-67877062D01*
X218699757Y-67651316D01*
X218805538Y-67467491D01*
X218881681Y-67335121D01*
X218918076Y-67271796D01*
X219037700Y-67063437D01*
X218112053Y-67064063D01*
X217186406Y-67064690D01*
X216432343Y-68378490D01*
X216260447Y-68678283D01*
X216098583Y-68961150D01*
X215951596Y-69218582D01*
X215824329Y-69442072D01*
X215721627Y-69623111D01*
X215648336Y-69753190D01*
X215609298Y-69823802D01*
X215607503Y-69827192D01*
X215536724Y-69962094D01*
X214384047Y-69962094D01*
X214465956Y-69811678D01*
X214613572Y-69544815D01*
X214783096Y-69241840D01*
X214970935Y-68909254D01*
X215173496Y-68553561D01*
X215356688Y-68234218D01*
X215608546Y-67797386D01*
X215824505Y-67424661D01*
X216007668Y-67111019D01*
X216161138Y-66851436D01*
X216288018Y-66640888D01*
X216391410Y-66474348D01*
X216474417Y-66346794D01*
X216540142Y-66253200D01*
X216591689Y-66188542D01*
X216632158Y-66147795D01*
X216655605Y-66130781D01*
X216691864Y-66111130D01*
X216733146Y-66095017D01*
X216787217Y-66082091D01*
X216861842Y-66072002D01*
X216964789Y-66064400D01*
X217103822Y-66058935D01*
X217286709Y-66055258D01*
X217521214Y-66053017D01*
X217815105Y-66051864D01*
X218176147Y-66051447D01*
X218416718Y-66051406D01*
X218820388Y-66051582D01*
G37*
X218820388Y-66051582D02*
X219152405Y-66052335D01*
X219420491Y-66054000D01*
X219632369Y-66056912D01*
X219795762Y-66061408D01*
X219918390Y-66067822D01*
X220007976Y-66076490D01*
X220072242Y-66087748D01*
X220118911Y-66101931D01*
X220155704Y-66119375D01*
X220169780Y-66127579D01*
X220310065Y-66249412D01*
X220383340Y-66408695D01*
X220397038Y-66563459D01*
X220391095Y-66607474D01*
X220373243Y-66667081D01*
X220340608Y-66747664D01*
X220290314Y-66854604D01*
X220219485Y-66993285D01*
X220125245Y-67169088D01*
X220004719Y-67387395D01*
X219855032Y-67653590D01*
X219673308Y-67973055D01*
X219456670Y-68351171D01*
X219249980Y-68710468D01*
X219039841Y-69075205D01*
X218840819Y-69420477D01*
X218656569Y-69739955D01*
X218490746Y-70027310D01*
X218347006Y-70276213D01*
X218229002Y-70480334D01*
X218140390Y-70633343D01*
X218084824Y-70728911D01*
X218066672Y-70759673D01*
X218004065Y-70826236D01*
X217917763Y-70888658D01*
X217883229Y-70904560D01*
X217833622Y-70917643D01*
X217761562Y-70928173D01*
X217659670Y-70936416D01*
X217520565Y-70942640D01*
X217336870Y-70947111D01*
X217101203Y-70950095D01*
X216806187Y-70951859D01*
X216444440Y-70952669D01*
X216141530Y-70952812D01*
X214473902Y-70952812D01*
X214356942Y-70854397D01*
X214226900Y-70702885D01*
X214163943Y-70530679D01*
X214166464Y-70387927D01*
X214190503Y-70330551D01*
X214250828Y-70211049D01*
X214343844Y-70035923D01*
X214384047Y-69962094D01*
X215536724Y-69962094D01*
X216459161Y-69951437D01*
X217381598Y-69940781D01*
X218090025Y-68710468D01*
X218259473Y-68416174D01*
X218421236Y-68135193D01*
X218569827Y-67877062D01*
X218699757Y-67651316D01*
X218805538Y-67467491D01*
X218881681Y-67335121D01*
X218918076Y-67271796D01*
X219037700Y-67063437D01*
X218112053Y-67064063D01*
X217186406Y-67064690D01*
X216432343Y-68378490D01*
X216260447Y-68678283D01*
X216098583Y-68961150D01*
X215951596Y-69218582D01*
X215824329Y-69442072D01*
X215721627Y-69623111D01*
X215648336Y-69753190D01*
X215609298Y-69823802D01*
X215607503Y-69827192D01*
X215536724Y-69962094D01*
X214384047Y-69962094D01*
X214465956Y-69811678D01*
X214613572Y-69544815D01*
X214783096Y-69241840D01*
X214970935Y-68909254D01*
X215173496Y-68553561D01*
X215356688Y-68234218D01*
X215608546Y-67797386D01*
X215824505Y-67424661D01*
X216007668Y-67111019D01*
X216161138Y-66851436D01*
X216288018Y-66640888D01*
X216391410Y-66474348D01*
X216474417Y-66346794D01*
X216540142Y-66253200D01*
X216591689Y-66188542D01*
X216632158Y-66147795D01*
X216655605Y-66130781D01*
X216691864Y-66111130D01*
X216733146Y-66095017D01*
X216787217Y-66082091D01*
X216861842Y-66072002D01*
X216964789Y-66064400D01*
X217103822Y-66058935D01*
X217286709Y-66055258D01*
X217521214Y-66053017D01*
X217815105Y-66051864D01*
X218176147Y-66051447D01*
X218416718Y-66051406D01*
X218820388Y-66051582D01*
G36*
X221891527Y-66036228D02*
G01*
X221944319Y-66038384D01*
X222170099Y-66055696D01*
X222334124Y-66089135D01*
X222453450Y-66145373D01*
X222545133Y-66231084D01*
X222588029Y-66290254D01*
X222630473Y-66396131D01*
X222650380Y-66527432D01*
X222650601Y-66547670D01*
X222648412Y-66706250D01*
X223413962Y-66706250D01*
X223679893Y-66706690D01*
X223878840Y-66708843D01*
X224023193Y-66713954D01*
X224125340Y-66723270D01*
X224197672Y-66738038D01*
X224252577Y-66759504D01*
X224302445Y-66788915D01*
X224314365Y-66796840D01*
X224449796Y-66930200D01*
X224523556Y-67096875D01*
X224529052Y-67277409D01*
X224505925Y-67362184D01*
X224438832Y-67483853D01*
X224349327Y-67585332D01*
X224337239Y-67594955D01*
X224299828Y-67620003D01*
X224255937Y-67639782D01*
X224195808Y-67655143D01*
X224109685Y-67666935D01*
X223987810Y-67676009D01*
X223820424Y-67683215D01*
X223597772Y-67689403D01*
X223310096Y-67695424D01*
X223149663Y-67698437D01*
X222074011Y-67718281D01*
X221206847Y-69226406D01*
X221022322Y-69545753D01*
X220846891Y-69846368D01*
X220685104Y-70120669D01*
X220541511Y-70361075D01*
X220420662Y-70560003D01*
X220327106Y-70709872D01*
X220265393Y-70803100D01*
X220244937Y-70829314D01*
X220122817Y-70903550D01*
X219961385Y-70940626D01*
X219793230Y-70937012D01*
X219657452Y-70892963D01*
X219559377Y-70811683D01*
X219488780Y-70715652D01*
X219458119Y-70652977D01*
X219436507Y-70593216D01*
X219426690Y-70529960D01*
X219431417Y-70456802D01*
X219453435Y-70367333D01*
X219495493Y-70255147D01*
X219560339Y-70113836D01*
X219650721Y-69936991D01*
X219769387Y-69718206D01*
X219919084Y-69451072D01*
X220102562Y-69129182D01*
X220322567Y-68746127D01*
X220365262Y-68671922D01*
X220610545Y-68243615D01*
X220815142Y-67881893D01*
X220979690Y-67585570D01*
X221104826Y-67353461D01*
X221191188Y-67184380D01*
X221239410Y-67077142D01*
X221250131Y-67030561D01*
X221247876Y-67028434D01*
X221188961Y-66991227D01*
X221102901Y-66918017D01*
X221065859Y-66882434D01*
X220986653Y-66792146D01*
X220948465Y-66704977D01*
X220937159Y-66584222D01*
X220936875Y-66547500D01*
X220943924Y-66413878D01*
X220974679Y-66322045D01*
X221043545Y-66234963D01*
X221068251Y-66209748D01*
X221165431Y-66131038D01*
X221282326Y-66077074D01*
X221432959Y-66045113D01*
X221631351Y-66032412D01*
X221891527Y-66036228D01*
G37*
X221891527Y-66036228D02*
X221944319Y-66038384D01*
X222170099Y-66055696D01*
X222334124Y-66089135D01*
X222453450Y-66145373D01*
X222545133Y-66231084D01*
X222588029Y-66290254D01*
X222630473Y-66396131D01*
X222650380Y-66527432D01*
X222650601Y-66547670D01*
X222648412Y-66706250D01*
X223413962Y-66706250D01*
X223679893Y-66706690D01*
X223878840Y-66708843D01*
X224023193Y-66713954D01*
X224125340Y-66723270D01*
X224197672Y-66738038D01*
X224252577Y-66759504D01*
X224302445Y-66788915D01*
X224314365Y-66796840D01*
X224449796Y-66930200D01*
X224523556Y-67096875D01*
X224529052Y-67277409D01*
X224505925Y-67362184D01*
X224438832Y-67483853D01*
X224349327Y-67585332D01*
X224337239Y-67594955D01*
X224299828Y-67620003D01*
X224255937Y-67639782D01*
X224195808Y-67655143D01*
X224109685Y-67666935D01*
X223987810Y-67676009D01*
X223820424Y-67683215D01*
X223597772Y-67689403D01*
X223310096Y-67695424D01*
X223149663Y-67698437D01*
X222074011Y-67718281D01*
X221206847Y-69226406D01*
X221022322Y-69545753D01*
X220846891Y-69846368D01*
X220685104Y-70120669D01*
X220541511Y-70361075D01*
X220420662Y-70560003D01*
X220327106Y-70709872D01*
X220265393Y-70803100D01*
X220244937Y-70829314D01*
X220122817Y-70903550D01*
X219961385Y-70940626D01*
X219793230Y-70937012D01*
X219657452Y-70892963D01*
X219559377Y-70811683D01*
X219488780Y-70715652D01*
X219458119Y-70652977D01*
X219436507Y-70593216D01*
X219426690Y-70529960D01*
X219431417Y-70456802D01*
X219453435Y-70367333D01*
X219495493Y-70255147D01*
X219560339Y-70113836D01*
X219650721Y-69936991D01*
X219769387Y-69718206D01*
X219919084Y-69451072D01*
X220102562Y-69129182D01*
X220322567Y-68746127D01*
X220365262Y-68671922D01*
X220610545Y-68243615D01*
X220815142Y-67881893D01*
X220979690Y-67585570D01*
X221104826Y-67353461D01*
X221191188Y-67184380D01*
X221239410Y-67077142D01*
X221250131Y-67030561D01*
X221247876Y-67028434D01*
X221188961Y-66991227D01*
X221102901Y-66918017D01*
X221065859Y-66882434D01*
X220986653Y-66792146D01*
X220948465Y-66704977D01*
X220937159Y-66584222D01*
X220936875Y-66547500D01*
X220943924Y-66413878D01*
X220974679Y-66322045D01*
X221043545Y-66234963D01*
X221068251Y-66209748D01*
X221165431Y-66131038D01*
X221282326Y-66077074D01*
X221432959Y-66045113D01*
X221631351Y-66032412D01*
X221891527Y-66036228D01*
G36*
X227424729Y-66051912D02*
G01*
X227729690Y-66054343D01*
X227971988Y-66060066D01*
X228159978Y-66070452D01*
X228302015Y-66086867D01*
X228406454Y-66110682D01*
X228481651Y-66143264D01*
X228535959Y-66185981D01*
X228577734Y-66240203D01*
X228615332Y-66307298D01*
X228615734Y-66308075D01*
X228644326Y-66366812D01*
X228664170Y-66423333D01*
X228672491Y-66483987D01*
X228666512Y-66555123D01*
X228643458Y-66643089D01*
X228600553Y-66754234D01*
X228535022Y-66894907D01*
X228444090Y-67071456D01*
X228324980Y-67290229D01*
X228174917Y-67557577D01*
X227991125Y-67879847D01*
X227770830Y-68263388D01*
X227729404Y-68335393D01*
X226782871Y-69980468D01*
X226886044Y-70024655D01*
X227029754Y-70125971D01*
X227125203Y-70274332D01*
X227165552Y-70449071D01*
X227143961Y-70629520D01*
X227112029Y-70707438D01*
X227081263Y-70764764D01*
X227048782Y-70812385D01*
X227007382Y-70851200D01*
X226949862Y-70882109D01*
X226869019Y-70906013D01*
X226757651Y-70923812D01*
X226608555Y-70936407D01*
X226414527Y-70944697D01*
X226168367Y-70949582D01*
X225862871Y-70951963D01*
X225490837Y-70952740D01*
X225148765Y-70952812D01*
X223482965Y-70952812D01*
X223361607Y-70850696D01*
X223249968Y-70712338D01*
X223188466Y-70541891D01*
X223186804Y-70369366D01*
X223195029Y-70335467D01*
X223220409Y-70281384D01*
X223280408Y-70167990D01*
X223369727Y-70004580D01*
X223394132Y-69960625D01*
X224540597Y-69960625D01*
X225090220Y-69960412D01*
X225639843Y-69960200D01*
X226006838Y-69315490D01*
X226130823Y-69098209D01*
X226248582Y-68892801D01*
X226351610Y-68714026D01*
X226431406Y-68576645D01*
X226475416Y-68502109D01*
X226576998Y-68333437D01*
X225477995Y-68333437D01*
X225084258Y-69018046D01*
X224958112Y-69237316D01*
X224840819Y-69441071D01*
X224739918Y-69616225D01*
X224662948Y-69749693D01*
X224617447Y-69828390D01*
X224615559Y-69831640D01*
X224540597Y-69960625D01*
X223394132Y-69960625D01*
X223483067Y-69800451D01*
X223615132Y-69564898D01*
X223760622Y-69307220D01*
X223914239Y-69036710D01*
X224070685Y-68762666D01*
X224224662Y-68494385D01*
X224370870Y-68241161D01*
X224504013Y-68012292D01*
X224618792Y-67817073D01*
X224709908Y-67664801D01*
X224772063Y-67564772D01*
X224786562Y-67543004D01*
X224834788Y-67486402D01*
X224898333Y-67441444D01*
X224986157Y-67406825D01*
X225107219Y-67381239D01*
X225270480Y-67363380D01*
X225484899Y-67351944D01*
X225759436Y-67345625D01*
X226103051Y-67343117D01*
X226159332Y-67342991D01*
X227155071Y-67341250D01*
X227209777Y-67232109D01*
X227252710Y-67146521D01*
X227277946Y-67096325D01*
X227244652Y-67087348D01*
X227143946Y-67078265D01*
X226987785Y-67069723D01*
X226788128Y-67062368D01*
X226556932Y-67056849D01*
X226545000Y-67056637D01*
X226245105Y-67049520D01*
X226013769Y-67038035D01*
X225840190Y-67019270D01*
X225713568Y-66990318D01*
X225623100Y-66948266D01*
X225557984Y-66890205D01*
X225507418Y-66813225D01*
X225486445Y-66771453D01*
X225430518Y-66609378D01*
X225435187Y-66462542D01*
X225486445Y-66323546D01*
X225522577Y-66252300D01*
X225561973Y-66194711D01*
X225612966Y-66149326D01*
X225683893Y-66114694D01*
X225783085Y-66089362D01*
X225918879Y-66071880D01*
X226099608Y-66060796D01*
X226333606Y-66054657D01*
X226629208Y-66052012D01*
X226994748Y-66051410D01*
X227048750Y-66051406D01*
X227424729Y-66051912D01*
G37*
X227424729Y-66051912D02*
X227729690Y-66054343D01*
X227971988Y-66060066D01*
X228159978Y-66070452D01*
X228302015Y-66086867D01*
X228406454Y-66110682D01*
X228481651Y-66143264D01*
X228535959Y-66185981D01*
X228577734Y-66240203D01*
X228615332Y-66307298D01*
X228615734Y-66308075D01*
X228644326Y-66366812D01*
X228664170Y-66423333D01*
X228672491Y-66483987D01*
X228666512Y-66555123D01*
X228643458Y-66643089D01*
X228600553Y-66754234D01*
X228535022Y-66894907D01*
X228444090Y-67071456D01*
X228324980Y-67290229D01*
X228174917Y-67557577D01*
X227991125Y-67879847D01*
X227770830Y-68263388D01*
X227729404Y-68335393D01*
X226782871Y-69980468D01*
X226886044Y-70024655D01*
X227029754Y-70125971D01*
X227125203Y-70274332D01*
X227165552Y-70449071D01*
X227143961Y-70629520D01*
X227112029Y-70707438D01*
X227081263Y-70764764D01*
X227048782Y-70812385D01*
X227007382Y-70851200D01*
X226949862Y-70882109D01*
X226869019Y-70906013D01*
X226757651Y-70923812D01*
X226608555Y-70936407D01*
X226414527Y-70944697D01*
X226168367Y-70949582D01*
X225862871Y-70951963D01*
X225490837Y-70952740D01*
X225148765Y-70952812D01*
X223482965Y-70952812D01*
X223361607Y-70850696D01*
X223249968Y-70712338D01*
X223188466Y-70541891D01*
X223186804Y-70369366D01*
X223195029Y-70335467D01*
X223220409Y-70281384D01*
X223280408Y-70167990D01*
X223369727Y-70004580D01*
X223394132Y-69960625D01*
X224540597Y-69960625D01*
X225090220Y-69960412D01*
X225639843Y-69960200D01*
X226006838Y-69315490D01*
X226130823Y-69098209D01*
X226248582Y-68892801D01*
X226351610Y-68714026D01*
X226431406Y-68576645D01*
X226475416Y-68502109D01*
X226576998Y-68333437D01*
X225477995Y-68333437D01*
X225084258Y-69018046D01*
X224958112Y-69237316D01*
X224840819Y-69441071D01*
X224739918Y-69616225D01*
X224662948Y-69749693D01*
X224617447Y-69828390D01*
X224615559Y-69831640D01*
X224540597Y-69960625D01*
X223394132Y-69960625D01*
X223483067Y-69800451D01*
X223615132Y-69564898D01*
X223760622Y-69307220D01*
X223914239Y-69036710D01*
X224070685Y-68762666D01*
X224224662Y-68494385D01*
X224370870Y-68241161D01*
X224504013Y-68012292D01*
X224618792Y-67817073D01*
X224709908Y-67664801D01*
X224772063Y-67564772D01*
X224786562Y-67543004D01*
X224834788Y-67486402D01*
X224898333Y-67441444D01*
X224986157Y-67406825D01*
X225107219Y-67381239D01*
X225270480Y-67363380D01*
X225484899Y-67351944D01*
X225759436Y-67345625D01*
X226103051Y-67343117D01*
X226159332Y-67342991D01*
X227155071Y-67341250D01*
X227209777Y-67232109D01*
X227252710Y-67146521D01*
X227277946Y-67096325D01*
X227244652Y-67087348D01*
X227143946Y-67078265D01*
X226987785Y-67069723D01*
X226788128Y-67062368D01*
X226556932Y-67056849D01*
X226545000Y-67056637D01*
X226245105Y-67049520D01*
X226013769Y-67038035D01*
X225840190Y-67019270D01*
X225713568Y-66990318D01*
X225623100Y-66948266D01*
X225557984Y-66890205D01*
X225507418Y-66813225D01*
X225486445Y-66771453D01*
X225430518Y-66609378D01*
X225435187Y-66462542D01*
X225486445Y-66323546D01*
X225522577Y-66252300D01*
X225561973Y-66194711D01*
X225612966Y-66149326D01*
X225683893Y-66114694D01*
X225783085Y-66089362D01*
X225918879Y-66071880D01*
X226099608Y-66060796D01*
X226333606Y-66054657D01*
X226629208Y-66052012D01*
X226994748Y-66051410D01*
X227048750Y-66051406D01*
X227424729Y-66051912D01*
D11*
X177585714Y-80114285D02*
X178871428Y-80114285D01*
X178100000Y-79342857D02*
X177585714Y-81657142D01*
X178700000Y-80885714D02*
X177414285Y-80885714D01*
X178185714Y-81657142D02*
X178700000Y-79342857D01*
X179985714Y-79514285D02*
X179985714Y-80800000D01*
X179900000Y-81057142D01*
X179728571Y-81228571D01*
X179471428Y-81314285D01*
X179300000Y-81314285D01*
X181100000Y-81314285D02*
X180928571Y-81228571D01*
X180842857Y-81142857D01*
X180757142Y-80971428D01*
X180757142Y-80457142D01*
X180842857Y-80285714D01*
X180928571Y-80200000D01*
X181100000Y-80114285D01*
X181357142Y-80114285D01*
X181528571Y-80200000D01*
X181614285Y-80285714D01*
X181700000Y-80457142D01*
X181700000Y-80971428D01*
X181614285Y-81142857D01*
X181528571Y-81228571D01*
X181357142Y-81314285D01*
X181100000Y-81314285D01*
X182471428Y-80114285D02*
X182471428Y-81314285D01*
X182471428Y-80285714D02*
X182557142Y-80200000D01*
X182728571Y-80114285D01*
X182985714Y-80114285D01*
X183157142Y-80200000D01*
X183242857Y-80371428D01*
X183242857Y-81314285D01*
X184785714Y-81228571D02*
X184614285Y-81314285D01*
X184271428Y-81314285D01*
X184100000Y-81228571D01*
X184014285Y-81057142D01*
X184014285Y-80371428D01*
X184100000Y-80200000D01*
X184271428Y-80114285D01*
X184614285Y-80114285D01*
X184785714Y-80200000D01*
X184871428Y-80371428D01*
X184871428Y-80542857D01*
X184014285Y-80714285D01*
X185557142Y-81228571D02*
X185728571Y-81314285D01*
X186071428Y-81314285D01*
X186242857Y-81228571D01*
X186328571Y-81057142D01*
X186328571Y-80971428D01*
X186242857Y-80800000D01*
X186071428Y-80714285D01*
X185814285Y-80714285D01*
X185642857Y-80628571D01*
X185557142Y-80457142D01*
X185557142Y-80371428D01*
X185642857Y-80200000D01*
X185814285Y-80114285D01*
X186071428Y-80114285D01*
X186242857Y-80200000D01*
X186671428Y-81485714D02*
X188042857Y-81485714D01*
X188471428Y-81314285D02*
X188471428Y-79514285D01*
X188642857Y-80628571D02*
X189157142Y-81314285D01*
X189157142Y-80114285D02*
X188471428Y-80800000D01*
X189928571Y-81314285D02*
X189928571Y-79514285D01*
X189928571Y-80200000D02*
X190100000Y-80114285D01*
X190442857Y-80114285D01*
X190614285Y-80200000D01*
X190700000Y-80285714D01*
X190785714Y-80457142D01*
X190785714Y-80971428D01*
X190700000Y-81142857D01*
X190614285Y-81228571D01*
X190442857Y-81314285D01*
X190100000Y-81314285D01*
X189928571Y-81228571D01*
X192328571Y-81314285D02*
X192328571Y-79514285D01*
X192328571Y-81228571D02*
X192157142Y-81314285D01*
X191814285Y-81314285D01*
X191642857Y-81228571D01*
X191557142Y-81142857D01*
X191471428Y-80971428D01*
X191471428Y-80457142D01*
X191557142Y-80285714D01*
X191642857Y-80200000D01*
X191814285Y-80114285D01*
X192157142Y-80114285D01*
X192328571Y-80200000D01*
X211271428Y-80114285D02*
X212557142Y-80114285D01*
X211785714Y-79342857D02*
X211271428Y-81657142D01*
X212385714Y-80885714D02*
X211100000Y-80885714D01*
X211871428Y-81657142D02*
X212385714Y-79342857D01*
X213157142Y-81314285D02*
X213157142Y-79514285D01*
X214185714Y-81314285D01*
X214185714Y-79514285D01*
X215300000Y-81314285D02*
X215128571Y-81228571D01*
X215042857Y-81142857D01*
X214957142Y-80971428D01*
X214957142Y-80457142D01*
X215042857Y-80285714D01*
X215128571Y-80200000D01*
X215300000Y-80114285D01*
X215557142Y-80114285D01*
X215728571Y-80200000D01*
X215814285Y-80285714D01*
X215900000Y-80457142D01*
X215900000Y-80971428D01*
X215814285Y-81142857D01*
X215728571Y-81228571D01*
X215557142Y-81314285D01*
X215300000Y-81314285D01*
X216671428Y-81314285D02*
X216671428Y-80114285D01*
X216671428Y-80457142D02*
X216757142Y-80285714D01*
X216842857Y-80200000D01*
X217014285Y-80114285D01*
X217185714Y-80114285D01*
X218557142Y-81314285D02*
X218557142Y-80371428D01*
X218471428Y-80200000D01*
X218300000Y-80114285D01*
X217957142Y-80114285D01*
X217785714Y-80200000D01*
X218557142Y-81228571D02*
X218385714Y-81314285D01*
X217957142Y-81314285D01*
X217785714Y-81228571D01*
X217700000Y-81057142D01*
X217700000Y-80885714D01*
X217785714Y-80714285D01*
X217957142Y-80628571D01*
X218385714Y-80628571D01*
X218557142Y-80542857D01*
X218985714Y-81485714D02*
X220357142Y-81485714D01*
X220785714Y-81314285D02*
X220785714Y-79514285D01*
X220957142Y-80628571D02*
X221471428Y-81314285D01*
X221471428Y-80114285D02*
X220785714Y-80800000D01*
X222242857Y-81314285D02*
X222242857Y-79514285D01*
X222242857Y-80200000D02*
X222414285Y-80114285D01*
X222757142Y-80114285D01*
X222928571Y-80200000D01*
X223014285Y-80285714D01*
X223100000Y-80457142D01*
X223100000Y-80971428D01*
X223014285Y-81142857D01*
X222928571Y-81228571D01*
X222757142Y-81314285D01*
X222414285Y-81314285D01*
X222242857Y-81228571D01*
X224642857Y-81314285D02*
X224642857Y-79514285D01*
X224642857Y-81228571D02*
X224471428Y-81314285D01*
X224128571Y-81314285D01*
X223957142Y-81228571D01*
X223871428Y-81142857D01*
X223785714Y-80971428D01*
X223785714Y-80457142D01*
X223871428Y-80285714D01*
X223957142Y-80200000D01*
X224128571Y-80114285D01*
X224471428Y-80114285D01*
X224642857Y-80200000D01*
%TD*%
M02*
