M48
; DRILL file {KiCad (5.1.10-1-10_14)} date Sunday, December 19, 2021 at 10:40:59 AM
; FORMAT={-:-/ absolute / inch / decimal}
; #@! TF.CreationDate,2021-12-19T10:40:59+09:00
; #@! TF.GenerationSoftware,Kicad,Pcbnew,(5.1.10-1-10_14)
FMAT,2
INCH
T1C0.0157
T2C0.0197
T3C0.0236
T4C0.0276
T5C0.0394
T6C0.0402
T7C0.0984
T8C0.1181
T9C0.0472
T10C0.0669
T11C0.0866
T12C0.0945
T13C0.1181
T14C0.1339
T15C0.1350
%
G90
G05
T1
X0.9142Y-1.4911
X0.9142Y-1.6289
X0.9142Y-3.499
X0.9142Y-3.6368
X0.9252Y-3.8976
X0.9449Y-0.937
X0.9449Y-1.9213
X0.9449Y-2.5118
X0.9449Y-2.9843
X0.9449Y-3.2185
X0.9449Y-4.5669
X0.9559Y-1.4912
X0.9559Y-1.629
X0.9559Y-3.499
X0.9559Y-3.6368
X1.1249Y-1.7864
X1.1291Y-1.2571
X1.1693Y-3.878
X1.2093Y-1.063
X1.2244Y-4.0984
X1.2283Y-3.1142
X1.2362Y-1.8386
X1.2992Y-1.4882
X1.3189Y-2.2362
X1.3189Y-2.9016
X1.3565Y-1.6467
X1.3565Y-3.6545
X1.378Y-3.4961
X1.3799Y-3.2648
X1.4596Y-4.2333
X1.4724Y-1.3228
X1.4882Y-1.0567
X1.4882Y-1.1098
X1.4892Y-4.2606
X1.4961Y-2.1575
X1.4961Y-2.8268
X1.5217Y-1.0567
X1.5217Y-1.1098
X1.5372Y-1.373
X1.5459Y-4.3439
X1.5511Y-4.2887
X1.5551Y-1.0567
X1.5551Y-1.1098
X1.5551Y-3.6772
X1.5886Y-1.0567
X1.5886Y-1.1098
X1.5894Y-4.2324
X1.6142Y-3.2598
X1.6161Y-4.2819
X1.622Y-1.0567
X1.622Y-1.1098
X1.6412Y-4.4227
X1.6513Y-1.2746
X1.6555Y-1.0567
X1.6555Y-1.1098
X1.6617Y-4.3954
X1.689Y-1.0567
X1.689Y-1.1098
X1.7215Y-1.7215
X1.7224Y-1.0567
X1.7224Y-1.1098
X1.7319Y-4.4504
X1.739Y-4.4016
X1.7608Y-1.753
X1.7766Y-2.3907
X1.7992Y-1.4134
X1.8008Y-3.9861
X1.8009Y-3.9545
X1.8184Y-4.4128
X1.8506Y-3.9425
X1.9016Y-3.002
X1.9213Y-2.1142
X1.937Y-3.7913
X1.9482Y-3.96
X1.9606Y-3.8898
X2.0098Y-3.9606
X2.0201Y-2.4213
X2.0278Y-3.9866
X2.0394Y-3.0571
X2.0394Y-3.0906
X2.0394Y-4.4528
X2.061Y-1.126
X2.0642Y-3.9928
X2.065Y-3.124
X2.0906Y-3.0039
X2.0951Y-4.2261
X2.1146Y-3.3602
X2.1146Y-3.1575
X2.1146Y-3.2929
X2.126Y-0.937
X2.1532Y-4.2319
X2.1654Y-4.4016
X2.1824Y-2.4591
X2.1949Y-2.4882
X2.1957Y-3.7854
X2.1957Y-3.885
X2.1969Y-3.935
X2.2134Y-4.4431
X2.2244Y-4.5669
X2.2795Y-1.3425
X2.2894Y-3.935
X2.2913Y-4.1063
X2.3031Y-3.2598
X2.315Y-3.9843
X2.4112Y-2.316
X2.4112Y-2.9853
X2.5512Y-2.5236
X2.7165Y-1.4882
X2.7165Y-3.4961
X2.7303Y-3.2657
X2.7621Y-3.9826
X2.7627Y-1.6467
X2.7627Y-3.6545
X2.8469Y-3.8272
X2.8898Y-3.8189
X2.9094Y-3.9724
X2.9134Y-2.8268
X2.9724Y-3.2598
X2.9843Y-3.4055
X2.9854Y-3.4449
X3.0217Y-3.315
X3.0625Y-3.9341
X3.0709Y-2.1575
X3.0846Y-2.6713
X3.2283Y-4.1654
X3.2323Y-2.5236
X3.4252Y-3.8701
X3.435Y-3.2657
X3.6024Y-0.937
X3.6811Y-3.2598
X3.7008Y-4.5669
X3.8174Y-2.316
X3.8174Y-2.9853
X3.8389Y-3.3383
X3.937Y-2.5236
X4.0945Y-1.4882
X4.1339Y-3.4961
X4.1378Y-3.2657
X4.169Y-1.6467
X4.169Y-3.6545
X4.1969Y-4.2992
X4.311Y-3.8701
X4.3898Y-3.2598
X4.4882Y-2.1575
X4.4882Y-2.8268
X4.4882Y-4.1654
X4.6378Y-2.5236
X4.8201Y-2.6407
X4.8229Y-3.9815
X4.8279Y-3.1583
X4.8622Y-1.4134
X4.8622Y-3.2638
X4.9134Y-1.8425
X5.0531Y-1.1791
X5.0533Y-1.3049
X5.1018Y-1.7694
X5.1024Y-1.1791
X5.1772Y-3.8701
X5.1772Y-4.5669
X5.2237Y-2.316
X5.2237Y-2.9853
X5.2237Y-3.3168
X5.2508Y-2.4591
X5.2732Y-2.4881
X5.3346Y-1.4094
X5.3386Y-2.4882
X5.374Y-0.937
X5.5118Y-1.4882
X5.5512Y-3.4961
X5.5748Y-1.6535
X5.5752Y-3.6545
X5.7079Y-1.8671
X5.7079Y-1.9823
X5.8957Y-1.9272
X5.9055Y-2.1575
X5.9055Y-2.8268
X5.9268Y-4.3238
X5.935Y-1.815
X5.9449Y-4.1654
X6.063Y-3.8701
X6.2784Y-1.6467
X6.2933Y-1.3031
X6.3504Y-1.3406
X6.3839Y-1.3583
X6.3976Y-1.9843
X6.3984Y-1.8713
X6.5551Y-4.5669
X6.5837Y-2.3907
X6.5984Y-1.9252
X6.6033Y-2.4222
X6.6299Y-4.3238
X6.6299Y-2.9853
X6.6432Y-2.3027
X6.7717Y-1.4882
X6.7717Y-3.8701
X6.8504Y-0.937
X6.9685Y-3.4961
X6.9815Y-1.6467
X6.9815Y-3.6545
X6.9815Y-3.7862
X7.0629Y-1.6919
X7.0866Y-3.124
X7.1117Y-1.8661
X7.1117Y-1.9843
X7.1122Y-3.0906
X7.1801Y-1.7097
X7.2835Y-2.1575
X7.2835Y-2.8268
X7.3228Y-1.9252
X7.3622Y-4.1654
X7.4354Y-3.7283
X7.449Y-1.6467
X7.4685Y-3.7598
X7.4803Y-3.8701
X7.7244Y-4.3976
X7.8091Y-1.9843
X7.8091Y-1.8661
X7.9331Y-4.5669
X8.0079Y-4.4291
X8.0276Y-1.9252
X8.0362Y-2.316
X8.0362Y-2.9853
X8.212Y-4.3238
X8.2283Y-0.937
X8.3465Y-3.4961
X8.3465Y-3.8701
X8.3739Y-1.6467
X8.3858Y-1.4882
X8.3877Y-3.6545
X8.3877Y-3.8011
X8.5039Y-4.1654
X8.5117Y-1.8671
X8.5118Y-1.9823
X8.7008Y-2.1575
X8.7008Y-2.8268
X9.2087Y-1.0709
X9.2323Y-3.8701
X9.3504Y-4.5669
X9.7638Y-1.4882
X9.7638Y-3.4961
X9.7638Y-4.1654
X9.7844Y-1.6467
X9.9016Y-0.937
X10.1181Y-2.1575
X10.1181Y-2.8268
X10.1455Y-2.316
X10.1455Y-2.9853
X10.2008Y-3.8287
X10.2554Y-3.6606
X10.2795Y-4.0059
X10.6378Y-1.0984
X10.8465Y-3.7913
X10.8465Y-4.5669
X10.8487Y-2.316
X10.8487Y-2.9853
X10.8661Y-0.937
X11.134Y-2.668
X11.1417Y-2.1575
X11.1417Y-2.8268
X11.1417Y-3.4961
X11.1811Y-1.4882
X11.19Y-1.6467
X11.2002Y-3.6545
X11.6969Y-2.5364
X11.8327Y-1.9705
X11.8727Y-3.2057
X11.9331Y-1.1978
X11.9341Y-1.9183
X12.0669Y-0.937
X12.0669Y-1.9213
X12.0669Y-2.5118
X12.0669Y-3.0039
X12.0669Y-3.2992
X12.0669Y-4.1654
X12.0669Y-4.5669
T2
X1.8071Y-1.9862
X1.8287Y-1.9331
X1.8287Y-2.0374
X1.8819Y-1.9114
X1.8819Y-2.061
X1.9311Y-1.9331
X1.9311Y-2.0394
X1.9567Y-1.9862
X2.0984Y-4.0945
T4
X1.063Y-3.9724
X2.7096Y-4.3238
X5.2047Y-4.3238
X6.1496Y-4.3465
X7.5Y-4.3238
X7.9488Y-4.3504
X10.2008Y-4.3238
X10.3681Y-4.378
X10.3691Y-4.2549
X12.0315Y-3.752
X12.0315Y-3.8661
X12.0315Y-3.9803
X12.0335Y-1.748
X12.0335Y-2.1811
X12.0335Y-2.4213
X12.0335Y-2.872
X12.0335Y-2.6614
X12.0354Y-1.8701
T5
X2.3268Y-4.3661
X2.3268Y-4.4661
X2.4268Y-4.3661
X2.4268Y-4.4661
X2.5268Y-4.3661
X2.5268Y-4.4661
X4.9528Y-0.9725
X5.0528Y-0.9725
X5.9213Y-1.0299
X5.9213Y-1.1299
X7.0925Y-0.9715
X7.1925Y-0.9715
X7.2925Y-0.9715
X7.3925Y-0.9715
T6
X6.0402Y-1.086
X6.0402Y-1.786
X6.1402Y-1.086
X6.1402Y-1.786
X6.2402Y-1.086
X6.2402Y-1.786
X6.3402Y-1.086
X6.3402Y-1.786
X6.4402Y-1.086
X6.4402Y-1.786
X6.5402Y-1.086
X6.5402Y-1.786
X6.6402Y-1.086
X6.6402Y-1.786
X6.7402Y-1.086
X6.7402Y-1.786
X6.8402Y-1.086
X6.8402Y-1.786
X6.9402Y-1.086
X6.9402Y-1.786
X7.0402Y-1.086
X7.0402Y-1.786
X7.1402Y-1.086
X7.1402Y-1.786
X7.2402Y-1.086
X7.2402Y-1.786
X7.3402Y-1.086
X7.3402Y-1.786
X7.4402Y-1.086
X7.4402Y-1.786
X7.5402Y-1.086
X7.5402Y-1.786
X7.6402Y-1.086
X7.6402Y-1.786
X7.7402Y-1.086
X7.7402Y-1.786
X7.8402Y-1.086
X7.8402Y-1.786
X7.9402Y-1.086
X7.9402Y-1.786
T7
X1.8819Y-1.9862
T8
X1.0307Y-1.5601
X1.0307Y-3.5679
T9
X1.4331Y-1.2471
X1.4331Y-3.2549
X1.6088Y-1.9164
X1.6088Y-2.5857
X2.1362Y-1.2471
X2.1362Y-3.2549
X2.4877Y-1.9164
X2.4877Y-2.5857
X2.8393Y-1.2471
X2.8393Y-3.2549
X3.1909Y-1.9164
X3.1909Y-2.5857
X3.3667Y-3.9242
X3.5424Y-1.2471
X3.5424Y-3.2549
X3.894Y-1.9164
X3.894Y-2.5857
X4.2456Y-3.9242
X4.2456Y-1.2471
X4.2456Y-3.2549
X4.5971Y-1.9164
X4.5971Y-2.5857
X4.9487Y-1.2471
X4.9487Y-3.2549
X5.1245Y-3.9242
X5.3002Y-1.9164
X5.3002Y-2.5857
X5.6518Y-1.2471
X5.6518Y-3.2549
X6.0034Y-3.9242
X6.0034Y-1.9164
X6.0034Y-2.5857
X6.3549Y-1.2471
X6.3549Y-3.2549
X6.7065Y-3.9242
X6.7065Y-1.9164
X6.7065Y-2.5857
X7.0581Y-1.2471
X7.0581Y-3.2549
X7.4096Y-3.9242
X7.4096Y-1.9164
X7.4096Y-2.5857
X7.7612Y-1.2471
X7.7612Y-3.2549
X8.1127Y-1.9164
X8.1127Y-2.5857
X8.2885Y-3.9242
X8.4643Y-1.2471
X8.4643Y-3.2549
X8.8159Y-1.9164
X8.8159Y-2.5857
X9.1674Y-1.2471
X9.1674Y-3.2549
X9.1674Y-3.9242
X9.519Y-1.9164
X9.519Y-2.5857
X9.8706Y-3.2549
X9.8706Y-1.2471
X10.0463Y-3.9242
X10.2221Y-1.9164
X10.2221Y-2.5857
X10.5737Y-1.2471
X10.5737Y-3.2549
X10.9252Y-1.9164
X10.9252Y-2.5857
X11.2768Y-3.2549
X11.2768Y-1.2471
X11.8041Y-1.9164
X11.8041Y-2.5857
X11.9799Y-1.2471
X11.9799Y-3.2549
T10
X1.011Y-1.4124
X1.011Y-3.4203
X1.1868Y-2.0817
X1.1868Y-2.751
X1.4441Y-1.4124
X1.4441Y-3.4203
X1.6199Y-2.0817
X1.6199Y-2.751
X1.7141Y-1.4124
X1.7141Y-3.4203
X2.0657Y-2.0817
X2.0657Y-2.751
X2.1472Y-1.4124
X2.1472Y-3.4203
X2.4173Y-1.4124
X2.4173Y-3.4203
X2.4988Y-2.0817
X2.4988Y-2.751
X2.7688Y-2.0817
X2.7688Y-2.751
X2.8503Y-1.4124
X2.8503Y-3.4203
X2.9446Y-4.0896
X3.1204Y-1.4124
X3.1204Y-3.4203
X3.2019Y-2.0817
X3.2019Y-2.751
X3.3777Y-4.0896
X3.4719Y-2.0817
X3.4719Y-2.751
X3.5535Y-1.4124
X3.5535Y-3.4203
X3.8235Y-4.0896
X3.8235Y-1.4124
X3.8235Y-3.4203
X3.905Y-2.0817
X3.905Y-2.751
X4.1751Y-2.0817
X4.1751Y-2.751
X4.2566Y-4.0896
X4.2566Y-1.4124
X4.2566Y-3.4203
X4.5266Y-1.4124
X4.5266Y-3.4203
X4.6081Y-2.0817
X4.6081Y-2.751
X4.7024Y-4.0896
X4.8782Y-2.0817
X4.8782Y-2.751
X4.9597Y-1.4124
X4.9597Y-3.4203
X5.1355Y-4.0896
X5.2298Y-1.4124
X5.2298Y-3.4203
X5.3113Y-2.0817
X5.3113Y-2.751
X5.5813Y-4.0896
X5.5813Y-2.0817
X5.5813Y-2.751
X5.6628Y-1.4124
X5.6628Y-3.4203
X5.9329Y-1.4124
X5.9329Y-3.4203
X6.0144Y-4.0896
X6.0144Y-2.0817
X6.0144Y-2.751
X6.2844Y-4.0896
X6.2844Y-2.0817
X6.2844Y-2.751
X6.366Y-1.4124
X6.366Y-3.4203
X6.636Y-1.4124
X6.636Y-3.4203
X6.7175Y-4.0896
X6.7175Y-2.0817
X6.7175Y-2.751
X6.9876Y-4.0896
X6.9876Y-2.0817
X6.9876Y-2.751
X7.0691Y-1.4124
X7.0691Y-3.4203
X7.3391Y-1.4124
X7.3391Y-3.4203
X7.4206Y-4.0896
X7.4206Y-2.0817
X7.4206Y-2.751
X7.6907Y-2.0817
X7.6907Y-2.751
X7.7722Y-1.4124
X7.7722Y-3.4203
X7.8665Y-4.0896
X8.0423Y-1.4124
X8.0423Y-3.4203
X8.1238Y-2.0817
X8.1238Y-2.751
X8.2996Y-4.0896
X8.3938Y-2.0817
X8.3938Y-2.751
X8.4753Y-1.4124
X8.4753Y-3.4203
X8.7454Y-1.4124
X8.7454Y-3.4203
X8.7454Y-4.0896
X8.8269Y-2.0817
X8.8269Y-2.751
X9.0969Y-2.0817
X9.0969Y-2.751
X9.1785Y-1.4124
X9.1785Y-3.4203
X9.1785Y-4.0896
X9.4485Y-3.4203
X9.4485Y-1.4124
X9.53Y-2.0817
X9.53Y-2.751
X9.6243Y-4.0896
X9.8001Y-2.0817
X9.8001Y-2.751
X9.8816Y-3.4203
X9.8816Y-1.4124
X10.0574Y-4.0896
X10.1516Y-1.4124
X10.1516Y-3.4203
X10.2331Y-2.0817
X10.2331Y-2.751
X10.5032Y-2.0817
X10.5032Y-2.751
X10.5847Y-1.4124
X10.5847Y-3.4203
X10.8548Y-3.4203
X10.8548Y-1.4124
X10.9363Y-2.0817
X10.9363Y-2.751
X11.2878Y-3.4203
X11.2878Y-1.4124
X11.3821Y-2.0817
X11.3821Y-2.751
X11.5579Y-1.4124
X11.5579Y-3.4203
X11.8152Y-2.0817
X11.8152Y-2.751
X11.991Y-1.4124
X11.991Y-3.4203
T11
X4.1909Y-4.4252
X4.626Y-1.0551
X8.376Y-1.0551
T13
X1.2065Y-2.2294
X1.2065Y-2.8986
X1.2275Y-1.6467
X1.2275Y-3.6545
X1.4033Y-2.316
X1.4033Y-2.9853
X1.7338Y-1.5601
X1.7338Y-3.5679
X1.9307Y-1.6467
X1.9307Y-3.6545
X2.0854Y-2.2294
X2.0854Y-2.8986
X2.2822Y-2.316
X2.2822Y-2.9853
X2.4369Y-1.5601
X2.4369Y-3.5679
X2.6338Y-1.6467
X2.6338Y-3.6545
X2.7885Y-2.2294
X2.7885Y-2.8986
X2.9643Y-4.2372
X2.9854Y-2.316
X2.9854Y-2.9853
X3.1401Y-1.5601
X3.1401Y-3.5679
X3.1611Y-4.3238
X3.3369Y-1.6467
X3.3369Y-3.6545
X3.4916Y-2.2294
X3.4916Y-2.8986
X3.6885Y-2.316
X3.6885Y-2.9853
X3.8432Y-4.2372
X3.8432Y-1.5601
X3.8432Y-3.5679
X4.04Y-4.3238
X4.04Y-1.6467
X4.04Y-3.6545
X4.1948Y-2.2294
X4.1948Y-2.8986
X4.3916Y-2.316
X4.3916Y-2.9853
X4.5463Y-1.5601
X4.5463Y-3.5679
X4.7221Y-4.2372
X4.7432Y-1.6467
X4.7432Y-3.6545
X4.8979Y-2.2294
X4.8979Y-2.8986
X4.9189Y-4.3238
X5.0947Y-2.316
X5.0947Y-2.9853
X5.2494Y-1.5601
X5.2494Y-3.5679
X5.4463Y-1.6467
X5.4463Y-3.6545
X5.601Y-4.2372
X5.601Y-2.2294
X5.601Y-2.8986
X5.7979Y-4.3238
X5.7979Y-2.316
X5.7979Y-2.9853
X5.9526Y-1.5601
X5.9526Y-3.5679
X6.1494Y-1.6467
X6.1494Y-3.6545
X6.3041Y-4.2372
X6.3041Y-2.2294
X6.3041Y-2.8986
X6.501Y-4.3238
X6.501Y-2.316
X6.501Y-2.9853
X6.6557Y-1.5601
X6.6557Y-3.5679
X6.8525Y-1.6467
X6.8525Y-3.6545
X7.0073Y-4.2372
X7.0073Y-2.2294
X7.0073Y-2.8986
X7.2041Y-4.3238
X7.2041Y-2.316
X7.2041Y-2.9853
X7.3588Y-1.5601
X7.3588Y-3.5679
X7.5557Y-1.6467
X7.5557Y-3.6545
X7.7104Y-2.2294
X7.7104Y-2.8986
X7.8862Y-4.2372
X7.9072Y-2.316
X7.9072Y-2.9853
X8.0619Y-1.5601
X8.0619Y-3.5679
X8.083Y-4.3238
X8.2588Y-1.6467
X8.2588Y-3.6545
X8.4135Y-2.2294
X8.4135Y-2.8986
X8.6104Y-2.316
X8.6104Y-2.9853
X8.7651Y-1.5601
X8.7651Y-3.5679
X8.7651Y-4.2372
X8.9619Y-1.6467
X8.9619Y-3.6545
X8.9619Y-4.3238
X9.1166Y-2.2294
X9.1166Y-2.8986
X9.3135Y-2.316
X9.3135Y-2.9853
X9.4682Y-3.5679
X9.4682Y-1.5601
X9.644Y-4.2372
X9.665Y-3.6545
X9.665Y-1.6467
X9.8198Y-2.2294
X9.8198Y-2.8986
X9.8408Y-4.3238
X10.0166Y-2.316
X10.0166Y-2.9853
X10.1713Y-1.5601
X10.1713Y-3.5679
X10.3682Y-1.6467
X10.3682Y-3.6545
X10.5229Y-2.2294
X10.5229Y-2.8986
X10.7197Y-2.316
X10.7197Y-2.9853
X10.8744Y-3.5679
X10.8744Y-1.5601
X11.0713Y-3.6545
X11.0713Y-1.6467
X11.4018Y-2.2294
X11.4018Y-2.8986
X11.5776Y-1.5601
X11.5776Y-3.5679
X11.5986Y-2.316
X11.5986Y-2.9853
X11.7744Y-1.6467
X11.7744Y-3.6545
T14
X1.2275Y-1.4124
X1.2275Y-3.4203
X1.4033Y-2.0817
X1.4033Y-2.751
X1.9307Y-1.4124
X1.9307Y-3.4203
X2.2822Y-2.0817
X2.2822Y-2.751
X2.6338Y-1.4124
X2.6338Y-3.4203
X2.9854Y-2.0817
X2.9854Y-2.751
X3.1611Y-4.0896
X3.3369Y-1.4124
X3.3369Y-3.4203
X3.6885Y-2.0817
X3.6885Y-2.751
X4.04Y-4.0896
X4.04Y-1.4124
X4.04Y-3.4203
X4.3916Y-2.0817
X4.3916Y-2.751
X4.7432Y-1.4124
X4.7432Y-3.4203
X4.9189Y-4.0896
X5.0947Y-2.0817
X5.0947Y-2.751
X5.4463Y-1.4124
X5.4463Y-3.4203
X5.7979Y-4.0896
X5.7979Y-2.0817
X5.7979Y-2.751
X6.1494Y-1.4124
X6.1494Y-3.4203
X6.501Y-4.0896
X6.501Y-2.0817
X6.501Y-2.751
X6.8525Y-1.4124
X6.8525Y-3.4203
X7.2041Y-4.0896
X7.2041Y-2.0817
X7.2041Y-2.751
X7.5557Y-1.4124
X7.5557Y-3.4203
X7.9072Y-2.0817
X7.9072Y-2.751
X8.083Y-4.0896
X8.2588Y-1.4124
X8.2588Y-3.4203
X8.6104Y-2.0817
X8.6104Y-2.751
X8.9619Y-1.4124
X8.9619Y-3.4203
X8.9619Y-4.0896
X9.3135Y-2.0817
X9.3135Y-2.751
X9.665Y-3.4203
X9.665Y-1.4124
X9.8408Y-4.0896
X10.0166Y-2.0817
X10.0166Y-2.751
X10.3682Y-1.4124
X10.3682Y-3.4203
X10.7197Y-2.0817
X10.7197Y-2.751
X11.0713Y-3.4203
X11.0713Y-1.4124
X11.5986Y-2.0817
X11.5986Y-2.751
X11.7744Y-1.4124
X11.7744Y-3.4203
T15
X1.2275Y-1.4124
X1.2275Y-3.4203
X1.9307Y-1.4124
X1.9307Y-3.4203
X2.2822Y-2.0817
X2.2822Y-2.751
X2.6338Y-1.4124
X2.6338Y-3.4203
X2.9854Y-2.0817
X2.9854Y-2.751
X3.3369Y-1.4124
X3.3369Y-3.4203
X3.6885Y-2.0817
X3.6885Y-2.751
X4.04Y-4.0896
X4.04Y-1.4124
X4.04Y-3.4203
X4.3916Y-2.0817
X4.3916Y-2.751
X4.7432Y-1.4124
X4.7432Y-3.4203
X5.0947Y-2.0817
X5.0947Y-2.751
X5.4463Y-1.4124
X5.4463Y-3.4203
X5.7979Y-4.0896
X5.7979Y-2.0817
X5.7979Y-2.751
X6.1494Y-1.4124
X6.1494Y-3.4203
X6.501Y-4.0896
X6.501Y-2.0817
X6.501Y-2.751
X6.8525Y-1.4124
X6.8525Y-3.4203
X7.2041Y-4.0896
X7.2041Y-2.0817
X7.2041Y-2.751
X7.5557Y-1.4124
X7.5557Y-3.4203
X7.9072Y-2.0817
X7.9072Y-2.751
X8.2588Y-1.4124
X8.2588Y-3.4203
X8.6104Y-2.0817
X8.6104Y-2.751
X8.9619Y-1.4124
X8.9619Y-3.4203
X8.9619Y-4.0896
X9.3135Y-2.0817
X9.3135Y-2.751
X9.665Y-3.4203
X9.665Y-1.4124
X10.0166Y-2.0817
X10.0166Y-2.751
X10.3682Y-1.4124
X10.3682Y-3.4203
X10.7197Y-2.0817
X10.7197Y-2.751
X11.0713Y-3.4203
X11.0713Y-1.4124
X11.7744Y-1.4124
X11.7744Y-3.4203
T3
G00X1.435Y-0.9224
M15
G01X1.435Y-0.9539
M16
G05
G00X1.435Y-1.0417
M15
G01X1.435Y-1.1008
M16
G05
G00X1.7756Y-0.9224
M15
G01X1.7756Y-0.9539
M16
G05
G00X1.7756Y-1.0417
M15
G01X1.7756Y-1.1008
M16
G05
T12
G00X5.8819Y-2.7382
M15
G01X5.9921Y-2.7382
M16
G05
G00X8.3346Y-4.2421
M15
G01X8.4449Y-4.2421
M16
G05
G00X11.0728Y-1.9862
M15
G01X11.1831Y-1.9862
M16
G05
T0
M30
