G04 #@! TF.GenerationSoftware,KiCad,Pcbnew,(5.1.10-1-10_14)*
G04 #@! TF.CreationDate,2021-12-19T10:41:02+09:00*
G04 #@! TF.ProjectId,nora,6e6f7261-2e6b-4696-9361-645f70636258,DN:0030*
G04 #@! TF.SameCoordinates,Original*
G04 #@! TF.FileFunction,Soldermask,Top*
G04 #@! TF.FilePolarity,Negative*
%FSLAX46Y46*%
G04 Gerber Fmt 4.6, Leading zero omitted, Abs format (unit mm)*
G04 Created by KiCad (PCBNEW (5.1.10-1-10_14)) date 2021-12-19 10:41:02*
%MOMM*%
%LPD*%
G01*
G04 APERTURE LIST*
%ADD10O,2.100000X2.100000*%
%ADD11C,3.400000*%
%ADD12C,2.100000*%
%ADD13C,3.800000*%
%ADD14C,1.600000*%
%ADD15C,3.829000*%
%ADD16O,1.300000X2.100000*%
%ADD17O,1.300000X2.800000*%
%ADD18C,1.100000*%
%ADD19C,1.400000*%
%ADD20O,5.600000X2.800000*%
%ADD21C,5.200000*%
%ADD22C,1.900000*%
%ADD23C,2.600000*%
G04 APERTURE END LIST*
D10*
X64180000Y-113440000D03*
X64180000Y-110900000D03*
X61640000Y-113440000D03*
X61640000Y-110900000D03*
X59100000Y-113440000D03*
G36*
G01*
X58250000Y-109850000D02*
X59950000Y-109850000D01*
G75*
G02*
X60150000Y-110050000I0J-200000D01*
G01*
X60150000Y-111750000D01*
G75*
G02*
X59950000Y-111950000I-200000J0D01*
G01*
X58250000Y-111950000D01*
G75*
G02*
X58050000Y-111750000I0J200000D01*
G01*
X58050000Y-110050000D01*
G75*
G02*
X58250000Y-109850000I200000J0D01*
G01*
G37*
D11*
X30644516Y-56625520D03*
X35644516Y-58825520D03*
D12*
X41144516Y-52875520D03*
X30144516Y-52875520D03*
D13*
X35644516Y-52875520D03*
D14*
X40864516Y-48675520D03*
D11*
X30644516Y-73625520D03*
X35644516Y-75825520D03*
D12*
X41144516Y-69875520D03*
X30144516Y-69875520D03*
D13*
X35644516Y-69875520D03*
D14*
X40864516Y-65675520D03*
D11*
X200308588Y-107625520D03*
X205308588Y-109825520D03*
D12*
X210808588Y-103875520D03*
X199808588Y-103875520D03*
D13*
X205308588Y-103875520D03*
D14*
X210528588Y-99675520D03*
D11*
X75292912Y-107625520D03*
X80292912Y-109825520D03*
D12*
X85792912Y-103875520D03*
X74792912Y-103875520D03*
D13*
X80292912Y-103875520D03*
D14*
X85512912Y-99675520D03*
D11*
X119941312Y-107625520D03*
X124941312Y-109825520D03*
D12*
X130441312Y-103875520D03*
X119441312Y-103875520D03*
D13*
X124941312Y-103875520D03*
D14*
X130161312Y-99675520D03*
D11*
X244956832Y-107625520D03*
X249956832Y-109825520D03*
D12*
X255456832Y-103875520D03*
X244456832Y-103875520D03*
D13*
X249956832Y-103875520D03*
D14*
X255176832Y-99675520D03*
D11*
X289605232Y-56625520D03*
X294605232Y-58825520D03*
D12*
X300105232Y-52875520D03*
X289105232Y-52875520D03*
D13*
X294605232Y-52875520D03*
D14*
X299825232Y-48675520D03*
D11*
X289605232Y-73625520D03*
X294605232Y-75825520D03*
D12*
X300105232Y-69875520D03*
X289105232Y-69875520D03*
D13*
X294605232Y-69875520D03*
D14*
X299825232Y-65675520D03*
X36399672Y-31675520D03*
D13*
X31179672Y-35875520D03*
D12*
X25679672Y-35875520D03*
X36679672Y-35875520D03*
D15*
X31179672Y-35875520D03*
D11*
X31179672Y-41825520D03*
D14*
X36399680Y-82675520D03*
D13*
X31179680Y-86875520D03*
D12*
X25679680Y-86875520D03*
X36679680Y-86875520D03*
D15*
X31179680Y-86875520D03*
D11*
X31179680Y-92825520D03*
X66898424Y-41825520D03*
D15*
X66898424Y-35875520D03*
D11*
X61898424Y-39625520D03*
D12*
X72398424Y-35875520D03*
X61398424Y-35875520D03*
D13*
X66898424Y-35875520D03*
D14*
X72118424Y-31675520D03*
D11*
X49039048Y-41825520D03*
D15*
X49039048Y-35875520D03*
D11*
X44039048Y-39625520D03*
D12*
X54539048Y-35875520D03*
X43539048Y-35875520D03*
D13*
X49039048Y-35875520D03*
D14*
X54259048Y-31675520D03*
D11*
X49039048Y-92825520D03*
D15*
X49039048Y-86875520D03*
D11*
X44039048Y-90625520D03*
D12*
X54539048Y-86875520D03*
X43539048Y-86875520D03*
D13*
X49039048Y-86875520D03*
D14*
X54259048Y-82675520D03*
D11*
X57968736Y-58825520D03*
D15*
X57968736Y-52875520D03*
D11*
X52968736Y-56625520D03*
D12*
X63468736Y-52875520D03*
X52468736Y-52875520D03*
D13*
X57968736Y-52875520D03*
D14*
X63188736Y-48675520D03*
D11*
X57968736Y-75825520D03*
D15*
X57968736Y-69875520D03*
D11*
X52968736Y-73625520D03*
D12*
X63468736Y-69875520D03*
X52468736Y-69875520D03*
D13*
X57968736Y-69875520D03*
D14*
X63188736Y-65675520D03*
D11*
X66898424Y-92825520D03*
D15*
X66898424Y-86875520D03*
D11*
X61898424Y-90625520D03*
D12*
X72398424Y-86875520D03*
X61398424Y-86875520D03*
D13*
X66898424Y-86875520D03*
D14*
X72118424Y-82675520D03*
D11*
X84757800Y-41825520D03*
D15*
X84757800Y-35875520D03*
D11*
X79757800Y-39625520D03*
D12*
X90257800Y-35875520D03*
X79257800Y-35875520D03*
D13*
X84757800Y-35875520D03*
D14*
X89977800Y-31675520D03*
D11*
X75828112Y-58825520D03*
D15*
X75828112Y-52875520D03*
D11*
X70828112Y-56625520D03*
D12*
X81328112Y-52875520D03*
X70328112Y-52875520D03*
D13*
X75828112Y-52875520D03*
D14*
X81048112Y-48675520D03*
D11*
X75828112Y-75825520D03*
D15*
X75828112Y-69875520D03*
D11*
X70828112Y-73625520D03*
D12*
X81328112Y-69875520D03*
X70328112Y-69875520D03*
D13*
X75828112Y-69875520D03*
D14*
X81048112Y-65675520D03*
D11*
X84757800Y-92825520D03*
D15*
X84757800Y-86875520D03*
D11*
X79757800Y-90625520D03*
D12*
X90257800Y-86875520D03*
X79257800Y-86875520D03*
D13*
X84757800Y-86875520D03*
D14*
X89977800Y-82675520D03*
D11*
X102617176Y-41825520D03*
D15*
X102617176Y-35875520D03*
D11*
X97617176Y-39625520D03*
D12*
X108117176Y-35875520D03*
X97117176Y-35875520D03*
D13*
X102617176Y-35875520D03*
D14*
X107837176Y-31675520D03*
D11*
X93687488Y-58825520D03*
D15*
X93687488Y-52875520D03*
D11*
X88687488Y-56625520D03*
D12*
X99187488Y-52875520D03*
X88187488Y-52875520D03*
D13*
X93687488Y-52875520D03*
D14*
X98907488Y-48675520D03*
D11*
X93687488Y-75825520D03*
D15*
X93687488Y-69875520D03*
D11*
X88687488Y-73625520D03*
D12*
X99187488Y-69875520D03*
X88187488Y-69875520D03*
D13*
X93687488Y-69875520D03*
D14*
X98907488Y-65675520D03*
D11*
X102617176Y-92825520D03*
D15*
X102617176Y-86875520D03*
D11*
X97617176Y-90625520D03*
D12*
X108117176Y-86875520D03*
X97117176Y-86875520D03*
D13*
X102617176Y-86875520D03*
D14*
X107837176Y-82675520D03*
D11*
X120476552Y-41825520D03*
D15*
X120476552Y-35875520D03*
D11*
X115476552Y-39625520D03*
D12*
X125976552Y-35875520D03*
X114976552Y-35875520D03*
D13*
X120476552Y-35875520D03*
D14*
X125696552Y-31675520D03*
D11*
X111546864Y-58825520D03*
D15*
X111546864Y-52875520D03*
D11*
X106546864Y-56625520D03*
D12*
X117046864Y-52875520D03*
X106046864Y-52875520D03*
D13*
X111546864Y-52875520D03*
D14*
X116766864Y-48675520D03*
D11*
X111546864Y-75825520D03*
D15*
X111546864Y-69875520D03*
D11*
X106546864Y-73625520D03*
D12*
X117046864Y-69875520D03*
X106046864Y-69875520D03*
D13*
X111546864Y-69875520D03*
D14*
X116766864Y-65675520D03*
D11*
X120476552Y-92825520D03*
D15*
X120476552Y-86875520D03*
D11*
X115476552Y-90625520D03*
D12*
X125976552Y-86875520D03*
X114976552Y-86875520D03*
D13*
X120476552Y-86875520D03*
D14*
X125696552Y-82675520D03*
D11*
X138335928Y-41825520D03*
D15*
X138335928Y-35875520D03*
D11*
X133335928Y-39625520D03*
D12*
X143835928Y-35875520D03*
X132835928Y-35875520D03*
D13*
X138335928Y-35875520D03*
D14*
X143555928Y-31675520D03*
D11*
X129406240Y-58825520D03*
D15*
X129406240Y-52875520D03*
D11*
X124406240Y-56625520D03*
D12*
X134906240Y-52875520D03*
X123906240Y-52875520D03*
D13*
X129406240Y-52875520D03*
D14*
X134626240Y-48675520D03*
D11*
X129406240Y-75825520D03*
D15*
X129406240Y-69875520D03*
D11*
X124406240Y-73625520D03*
D12*
X134906240Y-69875520D03*
X123906240Y-69875520D03*
D13*
X129406240Y-69875520D03*
D14*
X134626240Y-65675520D03*
D11*
X138335928Y-92825520D03*
D15*
X138335928Y-86875520D03*
D11*
X133335928Y-90625520D03*
D12*
X143835928Y-86875520D03*
X132835928Y-86875520D03*
D13*
X138335928Y-86875520D03*
D14*
X143555928Y-82675520D03*
D11*
X156195304Y-41825520D03*
D15*
X156195304Y-35875520D03*
D11*
X151195304Y-39625520D03*
D12*
X161695304Y-35875520D03*
X150695304Y-35875520D03*
D13*
X156195304Y-35875520D03*
D14*
X161415304Y-31675520D03*
D11*
X147265616Y-58825520D03*
D15*
X147265616Y-52875520D03*
D11*
X142265616Y-56625520D03*
D12*
X152765616Y-52875520D03*
X141765616Y-52875520D03*
D13*
X147265616Y-52875520D03*
D14*
X152485616Y-48675520D03*
D11*
X147265616Y-75825520D03*
D15*
X147265616Y-69875520D03*
D11*
X142265616Y-73625520D03*
D12*
X152765616Y-69875520D03*
X141765616Y-69875520D03*
D13*
X147265616Y-69875520D03*
D14*
X152485616Y-65675520D03*
D11*
X156195320Y-92825520D03*
D15*
X156195320Y-86875520D03*
D11*
X151195320Y-90625520D03*
D12*
X161695320Y-86875520D03*
X150695320Y-86875520D03*
D13*
X156195320Y-86875520D03*
D14*
X161415320Y-82675520D03*
D11*
X174054680Y-41825520D03*
D15*
X174054680Y-35875520D03*
D11*
X169054680Y-39625520D03*
D12*
X179554680Y-35875520D03*
X168554680Y-35875520D03*
D13*
X174054680Y-35875520D03*
D14*
X179274680Y-31675520D03*
D11*
X165124992Y-58825520D03*
D15*
X165124992Y-52875520D03*
D11*
X160124992Y-56625520D03*
D12*
X170624992Y-52875520D03*
X159624992Y-52875520D03*
D13*
X165124992Y-52875520D03*
D14*
X170344992Y-48675520D03*
D11*
X165124992Y-75825520D03*
D15*
X165124992Y-69875520D03*
D11*
X160124992Y-73625520D03*
D12*
X170624992Y-69875520D03*
X159624992Y-69875520D03*
D13*
X165124992Y-69875520D03*
D14*
X170344992Y-65675520D03*
D11*
X174054680Y-92825520D03*
D15*
X174054680Y-86875520D03*
D11*
X169054680Y-90625520D03*
D12*
X179554680Y-86875520D03*
X168554680Y-86875520D03*
D13*
X174054680Y-86875520D03*
D14*
X179274680Y-82675520D03*
D11*
X191914056Y-41825520D03*
D15*
X191914056Y-35875520D03*
D11*
X186914056Y-39625520D03*
D12*
X197414056Y-35875520D03*
X186414056Y-35875520D03*
D13*
X191914056Y-35875520D03*
D14*
X197134056Y-31675520D03*
D11*
X182984368Y-58825520D03*
D15*
X182984368Y-52875520D03*
D11*
X177984368Y-56625520D03*
D12*
X188484368Y-52875520D03*
X177484368Y-52875520D03*
D13*
X182984368Y-52875520D03*
D14*
X188204368Y-48675520D03*
D11*
X182984368Y-75825520D03*
D15*
X182984368Y-69875520D03*
D11*
X177984368Y-73625520D03*
D12*
X188484368Y-69875520D03*
X177484368Y-69875520D03*
D13*
X182984368Y-69875520D03*
D14*
X188204368Y-65675520D03*
D11*
X191914056Y-92825520D03*
D15*
X191914056Y-86875520D03*
D11*
X186914056Y-90625520D03*
D12*
X197414056Y-86875520D03*
X186414056Y-86875520D03*
D13*
X191914056Y-86875520D03*
D14*
X197134056Y-82675520D03*
D11*
X182984232Y-109825520D03*
D15*
X182984232Y-103875520D03*
D11*
X177984232Y-107625520D03*
D12*
X188484232Y-103875520D03*
X177484232Y-103875520D03*
D13*
X182984232Y-103875520D03*
D14*
X188204232Y-99675520D03*
D11*
X209773432Y-41825520D03*
D15*
X209773432Y-35875520D03*
D11*
X204773432Y-39625520D03*
D12*
X215273432Y-35875520D03*
X204273432Y-35875520D03*
D13*
X209773432Y-35875520D03*
D14*
X214993432Y-31675520D03*
D11*
X200843744Y-58825520D03*
D15*
X200843744Y-52875520D03*
D11*
X195843744Y-56625520D03*
D12*
X206343744Y-52875520D03*
X195343744Y-52875520D03*
D13*
X200843744Y-52875520D03*
D14*
X206063744Y-48675520D03*
D11*
X200843744Y-75825520D03*
D15*
X200843744Y-69875520D03*
D11*
X195843744Y-73625520D03*
D12*
X206343744Y-69875520D03*
X195343744Y-69875520D03*
D13*
X200843744Y-69875520D03*
D14*
X206063744Y-65675520D03*
D11*
X209773432Y-92825520D03*
D15*
X209773432Y-86875520D03*
D11*
X204773432Y-90625520D03*
D12*
X215273432Y-86875520D03*
X204273432Y-86875520D03*
D13*
X209773432Y-86875520D03*
D14*
X214993432Y-82675520D03*
D11*
X227632808Y-41825520D03*
D15*
X227632808Y-35875520D03*
D11*
X222632808Y-39625520D03*
D12*
X233132808Y-35875520D03*
X222132808Y-35875520D03*
D13*
X227632808Y-35875520D03*
D14*
X232852808Y-31675520D03*
D11*
X218703120Y-58825520D03*
D15*
X218703120Y-52875520D03*
D11*
X213703120Y-56625520D03*
D12*
X224203120Y-52875520D03*
X213203120Y-52875520D03*
D13*
X218703120Y-52875520D03*
D14*
X223923120Y-48675520D03*
D11*
X218703120Y-75825520D03*
D15*
X218703120Y-69875520D03*
D11*
X213703120Y-73625520D03*
D12*
X224203120Y-69875520D03*
X213203120Y-69875520D03*
D13*
X218703120Y-69875520D03*
D14*
X223923120Y-65675520D03*
D11*
X227632808Y-92825520D03*
D15*
X227632808Y-86875520D03*
D11*
X222632808Y-90625520D03*
D12*
X233132808Y-86875520D03*
X222132808Y-86875520D03*
D13*
X227632808Y-86875520D03*
D14*
X232852808Y-82675520D03*
D11*
X227632808Y-109825520D03*
D15*
X227632808Y-103875520D03*
D11*
X222632808Y-107625520D03*
D12*
X233132808Y-103875520D03*
X222132808Y-103875520D03*
D13*
X227632808Y-103875520D03*
D14*
X232852808Y-99675520D03*
D11*
X245492187Y-41825520D03*
D15*
X245492187Y-35875520D03*
D11*
X240492187Y-39625520D03*
D12*
X250992187Y-35875520D03*
X239992187Y-35875520D03*
D13*
X245492187Y-35875520D03*
D14*
X250712187Y-31675520D03*
D11*
X245491992Y-92825520D03*
D15*
X245491992Y-86875520D03*
D11*
X240491992Y-90625520D03*
D12*
X250991992Y-86875520D03*
X239991992Y-86875520D03*
D13*
X245491992Y-86875520D03*
D14*
X250711992Y-82675520D03*
D11*
X263351560Y-41825520D03*
D15*
X263351560Y-35875520D03*
D11*
X258351560Y-39625520D03*
D12*
X268851560Y-35875520D03*
X257851560Y-35875520D03*
D13*
X263351560Y-35875520D03*
D14*
X268571560Y-31675520D03*
D11*
X254421672Y-58825520D03*
D15*
X254421672Y-52875520D03*
D11*
X249421672Y-56625520D03*
D12*
X259921672Y-52875520D03*
X248921672Y-52875520D03*
D13*
X254421672Y-52875520D03*
D14*
X259641672Y-48675520D03*
D11*
X254421672Y-75825520D03*
D15*
X254421672Y-69875520D03*
D11*
X249421672Y-73625520D03*
D12*
X259921672Y-69875520D03*
X248921672Y-69875520D03*
D13*
X254421672Y-69875520D03*
D14*
X259641672Y-65675520D03*
D11*
X263351560Y-92825520D03*
D15*
X263351560Y-86875520D03*
D11*
X258351560Y-90625520D03*
D12*
X268851560Y-86875520D03*
X257851560Y-86875520D03*
D13*
X263351560Y-86875520D03*
D14*
X268571560Y-82675520D03*
D11*
X281210937Y-41825520D03*
D15*
X281210937Y-35875520D03*
D11*
X276210937Y-39625520D03*
D12*
X286710937Y-35875520D03*
X275710937Y-35875520D03*
D13*
X281210937Y-35875520D03*
D14*
X286430937Y-31675520D03*
D11*
X272281032Y-58825520D03*
D15*
X272281032Y-52875520D03*
D11*
X267281032Y-56625520D03*
D12*
X277781032Y-52875520D03*
X266781032Y-52875520D03*
D13*
X272281032Y-52875520D03*
D14*
X277501032Y-48675520D03*
D11*
X272281032Y-75825520D03*
D15*
X272281032Y-69875520D03*
D11*
X267281032Y-73625520D03*
D12*
X277781032Y-69875520D03*
X266781032Y-69875520D03*
D13*
X272281032Y-69875520D03*
D14*
X277501032Y-65675520D03*
D11*
X281210936Y-92825520D03*
D15*
X281210936Y-86875520D03*
D11*
X276210936Y-90625520D03*
D12*
X286710936Y-86875520D03*
X275710936Y-86875520D03*
D13*
X281210936Y-86875520D03*
D14*
X286430936Y-82675520D03*
D11*
X165124872Y-109825520D03*
D15*
X165124872Y-103875520D03*
D11*
X160124872Y-107625520D03*
D12*
X170624872Y-103875520D03*
X159624872Y-103875520D03*
D13*
X165124872Y-103875520D03*
D14*
X170344872Y-99675520D03*
D11*
X299070312Y-41825520D03*
D15*
X299070312Y-35875520D03*
D11*
X294070312Y-39625520D03*
D12*
X304570312Y-35875520D03*
X293570312Y-35875520D03*
D13*
X299070312Y-35875520D03*
D14*
X304290312Y-31675520D03*
D11*
X299070312Y-92825520D03*
D15*
X299070312Y-86875520D03*
D11*
X294070312Y-90625520D03*
D12*
X304570312Y-86875520D03*
X293570312Y-86875520D03*
D13*
X299070312Y-86875520D03*
D14*
X304290312Y-82675520D03*
D11*
X147265512Y-109825520D03*
D15*
X147265512Y-103875520D03*
D11*
X142265512Y-107625520D03*
D12*
X152765512Y-103875520D03*
X141765512Y-103875520D03*
D13*
X147265512Y-103875520D03*
D14*
X152485512Y-99675520D03*
D11*
X236562312Y-75825520D03*
D15*
X236562312Y-69875520D03*
D11*
X231562312Y-73625520D03*
D12*
X242062312Y-69875520D03*
X231062312Y-69875520D03*
D13*
X236562312Y-69875520D03*
D14*
X241782312Y-65675520D03*
D11*
X102617112Y-109825520D03*
D15*
X102617112Y-103875520D03*
D11*
X97617112Y-107625520D03*
D12*
X108117112Y-103875520D03*
X97117112Y-103875520D03*
D13*
X102617112Y-103875520D03*
D14*
X107837112Y-99675520D03*
D11*
X236562312Y-58825520D03*
D15*
X236562312Y-52875520D03*
D11*
X231562312Y-56625520D03*
D12*
X242062312Y-52875520D03*
X231062312Y-52875520D03*
D13*
X236562312Y-52875520D03*
D14*
X241782312Y-48675520D03*
D10*
X153419984Y-45365520D03*
X155959984Y-45365520D03*
G36*
G01*
X157649984Y-44315520D02*
X159349984Y-44315520D01*
G75*
G02*
X159549984Y-44515520I0J-200000D01*
G01*
X159549984Y-46215520D01*
G75*
G02*
X159349984Y-46415520I-200000J0D01*
G01*
X157649984Y-46415520D01*
G75*
G02*
X157449984Y-46215520I0J200000D01*
G01*
X157449984Y-44515520D01*
G75*
G02*
X157649984Y-44315520I200000J0D01*
G01*
G37*
X161039984Y-45365520D03*
X163579984Y-45365520D03*
X166119984Y-45365520D03*
X168659984Y-45365520D03*
G36*
G01*
X170349984Y-44315520D02*
X172049984Y-44315520D01*
G75*
G02*
X172249984Y-44515520I0J-200000D01*
G01*
X172249984Y-46215520D01*
G75*
G02*
X172049984Y-46415520I-200000J0D01*
G01*
X170349984Y-46415520D01*
G75*
G02*
X170149984Y-46215520I0J200000D01*
G01*
X170149984Y-44515520D01*
G75*
G02*
X170349984Y-44315520I200000J0D01*
G01*
G37*
X173739984Y-45365520D03*
X176279984Y-45365520D03*
X178819984Y-45365520D03*
X181359984Y-45365520D03*
G36*
G01*
X183049984Y-44315520D02*
X184749984Y-44315520D01*
G75*
G02*
X184949984Y-44515520I0J-200000D01*
G01*
X184949984Y-46215520D01*
G75*
G02*
X184749984Y-46415520I-200000J0D01*
G01*
X183049984Y-46415520D01*
G75*
G02*
X182849984Y-46215520I0J200000D01*
G01*
X182849984Y-44515520D01*
G75*
G02*
X183049984Y-44315520I200000J0D01*
G01*
G37*
X186439984Y-45365520D03*
X188979984Y-45365520D03*
X191519984Y-45365520D03*
X194059984Y-45365520D03*
G36*
G01*
X195749984Y-44315520D02*
X197449984Y-44315520D01*
G75*
G02*
X197649984Y-44515520I0J-200000D01*
G01*
X197649984Y-46215520D01*
G75*
G02*
X197449984Y-46415520I-200000J0D01*
G01*
X195749984Y-46415520D01*
G75*
G02*
X195549984Y-46215520I0J200000D01*
G01*
X195549984Y-44515520D01*
G75*
G02*
X195749984Y-44315520I200000J0D01*
G01*
G37*
X199139984Y-45365520D03*
X201679984Y-45365520D03*
X201679984Y-27585520D03*
X199139984Y-27585520D03*
G36*
G01*
X195749984Y-26535520D02*
X197449984Y-26535520D01*
G75*
G02*
X197649984Y-26735520I0J-200000D01*
G01*
X197649984Y-28435520D01*
G75*
G02*
X197449984Y-28635520I-200000J0D01*
G01*
X195749984Y-28635520D01*
G75*
G02*
X195549984Y-28435520I0J200000D01*
G01*
X195549984Y-26735520D01*
G75*
G02*
X195749984Y-26535520I200000J0D01*
G01*
G37*
X194059984Y-27585520D03*
X191519984Y-27585520D03*
X188979984Y-27585520D03*
X186439984Y-27585520D03*
G36*
G01*
X183049984Y-26535520D02*
X184749984Y-26535520D01*
G75*
G02*
X184949984Y-26735520I0J-200000D01*
G01*
X184949984Y-28435520D01*
G75*
G02*
X184749984Y-28635520I-200000J0D01*
G01*
X183049984Y-28635520D01*
G75*
G02*
X182849984Y-28435520I0J200000D01*
G01*
X182849984Y-26735520D01*
G75*
G02*
X183049984Y-26535520I200000J0D01*
G01*
G37*
X181359984Y-27585520D03*
X178819984Y-27585520D03*
X176279984Y-27585520D03*
X173739984Y-27585520D03*
G36*
G01*
X170349984Y-26535520D02*
X172049984Y-26535520D01*
G75*
G02*
X172249984Y-26735520I0J-200000D01*
G01*
X172249984Y-28435520D01*
G75*
G02*
X172049984Y-28635520I-200000J0D01*
G01*
X170349984Y-28635520D01*
G75*
G02*
X170149984Y-28435520I0J200000D01*
G01*
X170149984Y-26735520D01*
G75*
G02*
X170349984Y-26535520I200000J0D01*
G01*
G37*
X168659984Y-27585520D03*
X166119984Y-27585520D03*
X163579984Y-27585520D03*
X161039984Y-27585520D03*
G36*
G01*
X157649984Y-26535520D02*
X159349984Y-26535520D01*
G75*
G02*
X159549984Y-26735520I0J-200000D01*
G01*
X159549984Y-28435520D01*
G75*
G02*
X159349984Y-28635520I-200000J0D01*
G01*
X157649984Y-28635520D01*
G75*
G02*
X157449984Y-28435520I0J200000D01*
G01*
X157449984Y-26735520D01*
G75*
G02*
X157649984Y-26535520I200000J0D01*
G01*
G37*
X155959984Y-27585520D03*
X153419984Y-27585520D03*
G36*
G01*
X124950000Y-23650520D02*
X126650000Y-23650520D01*
G75*
G02*
X126850000Y-23850520I0J-200000D01*
G01*
X126850000Y-25550520D01*
G75*
G02*
X126650000Y-25750520I-200000J0D01*
G01*
X124950000Y-25750520D01*
G75*
G02*
X124750000Y-25550520I0J200000D01*
G01*
X124750000Y-23850520D01*
G75*
G02*
X124950000Y-23650520I200000J0D01*
G01*
G37*
X128340000Y-24700520D03*
X150400000Y-26160000D03*
G36*
G01*
X149350000Y-29550000D02*
X149350000Y-27850000D01*
G75*
G02*
X149550000Y-27650000I200000J0D01*
G01*
X151250000Y-27650000D01*
G75*
G02*
X151450000Y-27850000I0J-200000D01*
G01*
X151450000Y-29550000D01*
G75*
G02*
X151250000Y-29750000I-200000J0D01*
G01*
X149550000Y-29750000D01*
G75*
G02*
X149350000Y-29550000I0J200000D01*
G01*
G37*
X187769984Y-24675520D03*
X185229984Y-24675520D03*
X182689984Y-24675520D03*
G36*
G01*
X179299984Y-23625520D02*
X180999984Y-23625520D01*
G75*
G02*
X181199984Y-23825520I0J-200000D01*
G01*
X181199984Y-25525520D01*
G75*
G02*
X180999984Y-25725520I-200000J0D01*
G01*
X179299984Y-25725520D01*
G75*
G02*
X179099984Y-25525520I0J200000D01*
G01*
X179099984Y-23825520D01*
G75*
G02*
X179299984Y-23625520I200000J0D01*
G01*
G37*
D16*
X45100000Y-23830000D03*
X36450000Y-23830000D03*
D17*
X45100000Y-27210000D03*
X36450000Y-27210000D03*
D18*
X41200000Y-26840000D03*
X43750000Y-26840000D03*
X42900000Y-26840000D03*
X42050000Y-26840000D03*
X37800000Y-26840000D03*
X39500000Y-26840000D03*
X40350000Y-26840000D03*
X38650000Y-26840000D03*
X43750000Y-28190000D03*
X42900000Y-28190000D03*
X42050000Y-28190000D03*
X41200000Y-28190000D03*
X40350000Y-28190000D03*
X39500000Y-28190000D03*
X38650000Y-28190000D03*
X37800000Y-28190000D03*
D19*
X53300000Y-104000000D03*
D20*
X150800000Y-69550000D03*
X213100000Y-107750000D03*
X282650000Y-50450000D03*
D19*
X49050000Y-51800000D03*
X46450000Y-51750000D03*
X49050000Y-49100000D03*
X46450000Y-49100000D03*
X47800000Y-52350000D03*
X49700000Y-50450000D03*
X45900000Y-50450000D03*
X47800000Y-48550000D03*
D21*
X47800000Y-50450000D03*
D22*
X132200000Y-109825000D03*
X201900000Y-110500000D03*
X259100000Y-109825000D03*
X68825000Y-109825000D03*
X190499984Y-109825520D03*
X156200000Y-110400000D03*
X305600000Y-95300000D03*
X27000000Y-100900000D03*
D23*
X117500000Y-26800000D03*
X212750000Y-26800000D03*
X106450000Y-112400000D03*
D22*
X305649984Y-44400000D03*
X305649984Y-55400000D03*
X305649984Y-72950000D03*
X305600000Y-98200000D03*
X263375000Y-108075000D03*
X305700000Y-47500000D03*
X305649984Y-61500000D03*
X305650000Y-67600000D03*
X305600000Y-101100000D03*
X263350000Y-111200000D03*
M02*
