%TF.GenerationSoftware,KiCad,Pcbnew,(6.0.1-0)*%
%TF.CreationDate,2022-02-14T06:45:36+09:00*%
%TF.ProjectId,nora,6e6f7261-2e6b-4696-9361-645f70636258,DN:0032*%
%TF.SameCoordinates,Original*%
%TF.FileFunction,Soldermask,Top*%
%TF.FilePolarity,Negative*%
%FSLAX46Y46*%
G04 Gerber Fmt 4.6, Leading zero omitted, Abs format (unit mm)*
G04 Created by KiCad (PCBNEW (6.0.1-0)) date 2022-02-14 06:45:36*
%MOMM*%
%LPD*%
G01*
G04 APERTURE LIST*
G04 Aperture macros list*
%AMRoundRect*
0 Rectangle with rounded corners*
0 $1 Rounding radius*
0 $2 $3 $4 $5 $6 $7 $8 $9 X,Y pos of 4 corners*
0 Add a 4 corners polygon primitive as box body*
4,1,4,$2,$3,$4,$5,$6,$7,$8,$9,$2,$3,0*
0 Add four circle primitives for the rounded corners*
1,1,$1+$1,$2,$3*
1,1,$1+$1,$4,$5*
1,1,$1+$1,$6,$7*
1,1,$1+$1,$8,$9*
0 Add four rect primitives between the rounded corners*
20,1,$1+$1,$2,$3,$4,$5,0*
20,1,$1+$1,$4,$5,$6,$7,0*
20,1,$1+$1,$6,$7,$8,$9,0*
20,1,$1+$1,$8,$9,$2,$3,0*%
%AMHorizOval*
0 Thick line with rounded ends*
0 $1 width*
0 $2 $3 position (X,Y) of the first rounded end (center of the circle)*
0 $4 $5 position (X,Y) of the second rounded end (center of the circle)*
0 Add line between two ends*
20,1,$1,$2,$3,$4,$5,0*
0 Add two circle primitives to create the rounded ends*
1,1,$1,$2,$3*
1,1,$1,$4,$5*%
G04 Aperture macros list end*
%ADD10O,5.600000X2.800000*%
%ADD11C,1.400000*%
%ADD12C,5.200000*%
%ADD13C,2.600000*%
%ADD14C,2.200000*%
%ADD15C,3.400000*%
%ADD16C,3.829000*%
%ADD17C,1.600000*%
%ADD18C,3.800000*%
%ADD19O,2.400000X3.600000*%
%ADD20C,2.400000*%
%ADD21HorizOval,2.400000X0.353553X0.353553X-0.353553X-0.353553X0*%
%ADD22HorizOval,2.400000X-0.353553X0.353553X0.353553X-0.353553X0*%
%ADD23C,1.900000*%
%ADD24C,1.100000*%
%ADD25O,1.300000X2.800000*%
%ADD26O,1.300000X2.100000*%
%ADD27RoundRect,0.200000X-0.850000X0.850000X-0.850000X-0.850000X0.850000X-0.850000X0.850000X0.850000X0*%
%ADD28O,2.100000X2.100000*%
%ADD29RoundRect,0.200000X-0.850000X-0.850000X0.850000X-0.850000X0.850000X0.850000X-0.850000X0.850000X0*%
G04 APERTURE END LIST*
D10*
X150800000Y-69550000D03*
X213100000Y-107750000D03*
X282650000Y-50450000D03*
D11*
X49050000Y-49100000D03*
X47800000Y-48550000D03*
X49050000Y-51800000D03*
X46450000Y-49100000D03*
X46450000Y-51750000D03*
X49700000Y-50450000D03*
X47800000Y-52350000D03*
X45900000Y-50450000D03*
D12*
X47800000Y-50450000D03*
D13*
X117500000Y-26800000D03*
X212750000Y-26800000D03*
X106450000Y-112400000D03*
D14*
X43539048Y-35875520D03*
D15*
X49039048Y-41825520D03*
D16*
X49039048Y-35875520D03*
D15*
X44039048Y-39625520D03*
D14*
X54539048Y-35875520D03*
D17*
X54259048Y-31675520D03*
D14*
X54539048Y-86875520D03*
D15*
X49039048Y-92825520D03*
D16*
X49039048Y-86875520D03*
D15*
X44039048Y-90625520D03*
D14*
X43539048Y-86875520D03*
D17*
X54259048Y-82675520D03*
D14*
X72398424Y-35875520D03*
D17*
X72118424Y-31675520D03*
D14*
X61398424Y-35875520D03*
D16*
X66898424Y-35875520D03*
D15*
X66898424Y-41825520D03*
X61898424Y-39625520D03*
D14*
X52468736Y-52875520D03*
D15*
X52968736Y-56625520D03*
D14*
X63468736Y-52875520D03*
D15*
X57968736Y-58825520D03*
D17*
X63188736Y-48675520D03*
D16*
X57968736Y-52875520D03*
D15*
X61898424Y-90625520D03*
D14*
X61398424Y-86875520D03*
D15*
X66898424Y-92825520D03*
D17*
X72118424Y-82675520D03*
D14*
X72398424Y-86875520D03*
D16*
X66898424Y-86875520D03*
D15*
X84757800Y-41825520D03*
D14*
X90257800Y-35875520D03*
D15*
X79757800Y-39625520D03*
D16*
X84757800Y-35875520D03*
D14*
X79257800Y-35875520D03*
D17*
X89977800Y-31675520D03*
D15*
X75828112Y-58825520D03*
D17*
X81048112Y-48675520D03*
D16*
X75828112Y-52875520D03*
D14*
X81328112Y-52875520D03*
D15*
X70828112Y-56625520D03*
D14*
X70328112Y-52875520D03*
D15*
X75828112Y-75825520D03*
X70828112Y-73625520D03*
D14*
X81328112Y-69875520D03*
D16*
X75828112Y-69875520D03*
D17*
X81048112Y-65675520D03*
D14*
X70328112Y-69875520D03*
X90257800Y-86875520D03*
D15*
X79757800Y-90625520D03*
D17*
X89977800Y-82675520D03*
D14*
X79257800Y-86875520D03*
D16*
X84757800Y-86875520D03*
D15*
X84757800Y-92825520D03*
D16*
X102617176Y-35875520D03*
D15*
X102617176Y-41825520D03*
D14*
X108117176Y-35875520D03*
X97117176Y-35875520D03*
D17*
X107837176Y-31675520D03*
D15*
X97617176Y-39625520D03*
D14*
X99187488Y-52875520D03*
D15*
X93687488Y-58825520D03*
D16*
X93687488Y-52875520D03*
D15*
X88687488Y-56625520D03*
D14*
X88187488Y-52875520D03*
D17*
X98907488Y-48675520D03*
D14*
X88187488Y-69875520D03*
D15*
X93687488Y-75825520D03*
D17*
X98907488Y-65675520D03*
D15*
X88687488Y-73625520D03*
D16*
X93687488Y-69875520D03*
D14*
X99187488Y-69875520D03*
D15*
X97617176Y-90625520D03*
D16*
X102617176Y-86875520D03*
D15*
X102617176Y-92825520D03*
D17*
X107837176Y-82675520D03*
D14*
X108117176Y-86875520D03*
X97117176Y-86875520D03*
D15*
X120476552Y-41825520D03*
X115476552Y-39625520D03*
D16*
X120476552Y-35875520D03*
D17*
X125696552Y-31675520D03*
D14*
X114976552Y-35875520D03*
X125976552Y-35875520D03*
D15*
X106546864Y-56625520D03*
D17*
X116766864Y-48675520D03*
D14*
X106046864Y-52875520D03*
X117046864Y-52875520D03*
D16*
X111546864Y-52875520D03*
D15*
X111546864Y-58825520D03*
D16*
X111546864Y-69875520D03*
D14*
X117046864Y-69875520D03*
D15*
X111546864Y-75825520D03*
D14*
X106046864Y-69875520D03*
D17*
X116766864Y-65675520D03*
D15*
X106546864Y-73625520D03*
X115476552Y-90625520D03*
D14*
X114976552Y-86875520D03*
D17*
X125696552Y-82675520D03*
D14*
X125976552Y-86875520D03*
D16*
X120476552Y-86875520D03*
D15*
X120476552Y-92825520D03*
D14*
X143835928Y-35875520D03*
D15*
X138335928Y-41825520D03*
D14*
X132835928Y-35875520D03*
D17*
X143555928Y-31675520D03*
D15*
X133335928Y-39625520D03*
D16*
X138335928Y-35875520D03*
D17*
X134626240Y-48675520D03*
D14*
X123906240Y-52875520D03*
D15*
X124406240Y-56625520D03*
D14*
X134906240Y-52875520D03*
D16*
X129406240Y-52875520D03*
D15*
X129406240Y-58825520D03*
D17*
X134626240Y-65675520D03*
D15*
X129406240Y-75825520D03*
X124406240Y-73625520D03*
D14*
X123906240Y-69875520D03*
D16*
X129406240Y-69875520D03*
D14*
X134906240Y-69875520D03*
X143835928Y-86875520D03*
X132835928Y-86875520D03*
D15*
X133335928Y-90625520D03*
D16*
X138335928Y-86875520D03*
D15*
X138335928Y-92825520D03*
D17*
X143555928Y-82675520D03*
D15*
X147265616Y-58825520D03*
D17*
X152485616Y-48675520D03*
D16*
X147265616Y-52875520D03*
D14*
X152765616Y-52875520D03*
X141765616Y-52875520D03*
D15*
X142265616Y-56625520D03*
D14*
X141765616Y-69875520D03*
D15*
X147265616Y-75825520D03*
D17*
X152485616Y-65675520D03*
D15*
X142265616Y-73625520D03*
D14*
X152765616Y-69875520D03*
D16*
X147265616Y-69875520D03*
D14*
X197414056Y-35875520D03*
D15*
X186914056Y-39625520D03*
D17*
X197134056Y-31675520D03*
D15*
X191914056Y-41825520D03*
D16*
X191914056Y-35875520D03*
D14*
X186414056Y-35875520D03*
D15*
X182984368Y-58825520D03*
D14*
X188484368Y-52875520D03*
D15*
X177984368Y-56625520D03*
D14*
X177484368Y-52875520D03*
D16*
X182984368Y-52875520D03*
D17*
X188204368Y-48675520D03*
X197134056Y-82675520D03*
D16*
X191914056Y-86875520D03*
D15*
X186914056Y-90625520D03*
D14*
X186414056Y-86875520D03*
X197414056Y-86875520D03*
D15*
X191914056Y-92825520D03*
X182449212Y-107625520D03*
D14*
X192949212Y-103875520D03*
D17*
X192669212Y-99675520D03*
D15*
X187449212Y-109825520D03*
D14*
X181949212Y-103875520D03*
D16*
X187449212Y-103875520D03*
D14*
X204273432Y-35875520D03*
D16*
X209773432Y-35875520D03*
D15*
X209773432Y-41825520D03*
D14*
X215273432Y-35875520D03*
D17*
X214993432Y-31675520D03*
D15*
X204773432Y-39625520D03*
D14*
X206343744Y-52875520D03*
D16*
X200843744Y-52875520D03*
D14*
X195343744Y-52875520D03*
D17*
X206063744Y-48675520D03*
D15*
X195843744Y-56625520D03*
X200843744Y-58825520D03*
X195843744Y-73625520D03*
X200843744Y-75825520D03*
D14*
X195343744Y-69875520D03*
D16*
X200843744Y-69875520D03*
D17*
X206063744Y-65675520D03*
D14*
X206343744Y-69875520D03*
X204273432Y-86875520D03*
D16*
X209773432Y-86875520D03*
D17*
X214993432Y-82675520D03*
D15*
X209773432Y-92825520D03*
D14*
X215273432Y-86875520D03*
D15*
X204773432Y-90625520D03*
D14*
X215273432Y-103875520D03*
D15*
X214773432Y-100125520D03*
D17*
X204553432Y-108075520D03*
D18*
X209773432Y-103875520D03*
D15*
X209773432Y-97925520D03*
D14*
X204273432Y-103875520D03*
D17*
X232852808Y-31675520D03*
D15*
X222632808Y-39625520D03*
D16*
X227632808Y-35875520D03*
D15*
X227632808Y-41825520D03*
D14*
X222132808Y-35875520D03*
X233132808Y-35875520D03*
D16*
X218703120Y-69875520D03*
D17*
X223923120Y-65675520D03*
D14*
X224203120Y-69875520D03*
D15*
X218703120Y-75825520D03*
X213703120Y-73625520D03*
D14*
X213203120Y-69875520D03*
D17*
X232852808Y-82675520D03*
D15*
X222632808Y-90625520D03*
D14*
X222132808Y-86875520D03*
D15*
X227632808Y-92825520D03*
D16*
X227632808Y-86875520D03*
D14*
X233132808Y-86875520D03*
D17*
X237317652Y-99675520D03*
D14*
X226597652Y-103875520D03*
D16*
X232097652Y-103875520D03*
D14*
X237597652Y-103875520D03*
D15*
X232097652Y-109825520D03*
X227097652Y-107625520D03*
D17*
X250712187Y-31675520D03*
D14*
X239992187Y-35875520D03*
D16*
X245492187Y-35875520D03*
D15*
X245492187Y-41825520D03*
D14*
X250992187Y-35875520D03*
D15*
X240492187Y-39625520D03*
X240491992Y-90625520D03*
D17*
X250711992Y-82675520D03*
D16*
X245491992Y-86875520D03*
D15*
X245491992Y-92825520D03*
D14*
X239991992Y-86875520D03*
X250991992Y-86875520D03*
D15*
X263351560Y-41825520D03*
D16*
X263351560Y-35875520D03*
D15*
X258351560Y-39625520D03*
D14*
X268851560Y-35875520D03*
D17*
X268571560Y-31675520D03*
D14*
X257851560Y-35875520D03*
X259921672Y-69875520D03*
D15*
X249421672Y-73625520D03*
D17*
X259641672Y-65675520D03*
D14*
X248921672Y-69875520D03*
D16*
X254421672Y-69875520D03*
D15*
X254421672Y-75825520D03*
D14*
X268851560Y-86875520D03*
D15*
X258351560Y-90625520D03*
D16*
X263351560Y-86875520D03*
D17*
X268571560Y-82675520D03*
D14*
X257851560Y-86875520D03*
D15*
X263351560Y-92825520D03*
D14*
X275710937Y-35875520D03*
X286710937Y-35875520D03*
D16*
X281210937Y-35875520D03*
D15*
X281210937Y-41825520D03*
D17*
X286430937Y-31675520D03*
D15*
X276210937Y-39625520D03*
X272281032Y-58825520D03*
D17*
X277501032Y-48675520D03*
D16*
X272281032Y-52875520D03*
D14*
X266781032Y-52875520D03*
X277781032Y-52875520D03*
D15*
X267281032Y-56625520D03*
D17*
X277501032Y-65675520D03*
D16*
X272281032Y-69875520D03*
D14*
X266781032Y-69875520D03*
X277781032Y-69875520D03*
D15*
X267281032Y-73625520D03*
X272281032Y-75825520D03*
D14*
X286710936Y-86875520D03*
X275710936Y-86875520D03*
D16*
X281210936Y-86875520D03*
D15*
X281210936Y-92825520D03*
D17*
X286430936Y-82675520D03*
D15*
X276210936Y-90625520D03*
D14*
X293570312Y-35875520D03*
D15*
X294070312Y-39625520D03*
D14*
X304570312Y-35875520D03*
D17*
X304290312Y-31675520D03*
D16*
X299070312Y-35875520D03*
D15*
X299070312Y-41825520D03*
D14*
X304570312Y-86875520D03*
D15*
X299070312Y-92825520D03*
D14*
X293570312Y-86875520D03*
D16*
X299070312Y-86875520D03*
D15*
X294070312Y-90625520D03*
D17*
X304290312Y-82675520D03*
X63188736Y-65675520D03*
D15*
X57968736Y-75825520D03*
X52968736Y-73625520D03*
D14*
X52468736Y-69875520D03*
D16*
X57968736Y-69875520D03*
D14*
X63468736Y-69875520D03*
D17*
X223923120Y-48675520D03*
D15*
X218703120Y-58825520D03*
D14*
X224203120Y-52875520D03*
D16*
X218703120Y-52875520D03*
D14*
X213203120Y-52875520D03*
D15*
X213703120Y-56625520D03*
D14*
X188484368Y-69875520D03*
X177484368Y-69875520D03*
D16*
X182984368Y-69875520D03*
D15*
X177984368Y-73625520D03*
D17*
X188204368Y-65675520D03*
D15*
X182984368Y-75825520D03*
X35644516Y-58825520D03*
D17*
X40864516Y-48675520D03*
D18*
X35644516Y-52875520D03*
D14*
X30144516Y-52875520D03*
X41144516Y-52875520D03*
D15*
X30644516Y-56625520D03*
D14*
X36679672Y-35875520D03*
D15*
X31179672Y-41825520D03*
X26179672Y-39625520D03*
D14*
X25679672Y-35875520D03*
D17*
X36399672Y-31675520D03*
D18*
X31179672Y-35875520D03*
D17*
X36399680Y-82675520D03*
D15*
X26179680Y-90625520D03*
D14*
X25679680Y-86875520D03*
D18*
X31179680Y-86875520D03*
D15*
X31179680Y-92825520D03*
D14*
X36679680Y-86875520D03*
D15*
X125476552Y-100125520D03*
D14*
X125976552Y-103875520D03*
D17*
X115256552Y-108075520D03*
D15*
X120476552Y-97925520D03*
D14*
X114976552Y-103875520D03*
D18*
X120476552Y-103875520D03*
D16*
X142800772Y-103875520D03*
D17*
X148020772Y-99675520D03*
D14*
X137300772Y-103875520D03*
D15*
X137800772Y-107625520D03*
X142800772Y-109825520D03*
D14*
X148300772Y-103875520D03*
X242062312Y-69875520D03*
D15*
X236562312Y-75825520D03*
X231562312Y-73625520D03*
D17*
X241782312Y-65675520D03*
D16*
X236562312Y-69875520D03*
D14*
X231062312Y-69875520D03*
X248921872Y-103875520D03*
D15*
X249421872Y-107625520D03*
D18*
X254421872Y-103875520D03*
D15*
X254421872Y-109825520D03*
D17*
X259641872Y-99675520D03*
D14*
X259921872Y-103875520D03*
X81328112Y-103875520D03*
D17*
X81048112Y-99675520D03*
D15*
X70828112Y-107625520D03*
D18*
X75828112Y-103875520D03*
D14*
X70328112Y-103875520D03*
D15*
X75828112Y-109825520D03*
X93152332Y-107625520D03*
X98152332Y-109825520D03*
D14*
X92652332Y-103875520D03*
X103652332Y-103875520D03*
D17*
X103372332Y-99675520D03*
D16*
X98152332Y-103875520D03*
D14*
X242062312Y-52875520D03*
X231062312Y-52875520D03*
D15*
X231562312Y-56625520D03*
D16*
X236562312Y-52875520D03*
D17*
X241782312Y-48675520D03*
D15*
X236562312Y-58825520D03*
X289605232Y-56625520D03*
D17*
X299825232Y-48675520D03*
D14*
X289105232Y-52875520D03*
D15*
X294605232Y-58825520D03*
D14*
X300105232Y-52875520D03*
D18*
X294605232Y-52875520D03*
D14*
X300105232Y-69875520D03*
X289105232Y-69875520D03*
D15*
X289605232Y-73625520D03*
D18*
X294605232Y-69875520D03*
D17*
X299825232Y-65675520D03*
D15*
X294605232Y-75825520D03*
D14*
X259921672Y-52875520D03*
X248921672Y-52875520D03*
D15*
X254421672Y-58825520D03*
X249421672Y-56625520D03*
D17*
X259641672Y-48675520D03*
D16*
X254421672Y-52875520D03*
D14*
X41144516Y-69875520D03*
D17*
X40864516Y-65675520D03*
D15*
X35644516Y-75825520D03*
D18*
X35644516Y-69875520D03*
D15*
X30644516Y-73625520D03*
D14*
X30144516Y-69875520D03*
D15*
X151195304Y-39625520D03*
D17*
X161415304Y-31675520D03*
D14*
X161695304Y-35875520D03*
X150695304Y-35875520D03*
D15*
X156195304Y-41825520D03*
D16*
X156195304Y-35875520D03*
D19*
X159524992Y-78475520D03*
X170724992Y-78475520D03*
D20*
X161694992Y-86875520D03*
D21*
X162284992Y-86325520D03*
D22*
X167974992Y-86325520D03*
D20*
X168564992Y-86875520D03*
X165124992Y-85975520D03*
X167624992Y-71475520D03*
X162624992Y-71475520D03*
D15*
X169054680Y-90625520D03*
D14*
X179554680Y-86875520D03*
D17*
X179274680Y-82675520D03*
D15*
X174054680Y-92825520D03*
D16*
X174054680Y-86875520D03*
D15*
X169054680Y-39625520D03*
D14*
X168554680Y-35875520D03*
D15*
X174054680Y-41825520D03*
D17*
X179274680Y-31675520D03*
D14*
X179554680Y-35875520D03*
D16*
X174054680Y-35875520D03*
D14*
X159624992Y-103875520D03*
D15*
X165124992Y-109825520D03*
D17*
X170344992Y-99675520D03*
D15*
X160124992Y-107625520D03*
D14*
X170624992Y-103875520D03*
D18*
X165124992Y-103875520D03*
D16*
X156195304Y-86875520D03*
D17*
X161415304Y-82675520D03*
D15*
X156195304Y-92825520D03*
D14*
X150695304Y-86875520D03*
D15*
X151195304Y-90625520D03*
X165124992Y-75825520D03*
D14*
X170624992Y-69875520D03*
D16*
X165124992Y-69875520D03*
D17*
X170344992Y-65675520D03*
D14*
X159624992Y-69875520D03*
D15*
X160124992Y-73625520D03*
X160124992Y-56625520D03*
X165124992Y-58825520D03*
D14*
X170624992Y-52875520D03*
D16*
X165124992Y-52875520D03*
D17*
X170344992Y-48675520D03*
D14*
X159624992Y-52875520D03*
D23*
X61973432Y-104075520D03*
X305614056Y-84475520D03*
X146075000Y-106350000D03*
D11*
X59273432Y-102975520D03*
D23*
X105973432Y-108275520D03*
X27000000Y-100900000D03*
X305614056Y-90300000D03*
X305700000Y-47500000D03*
X305649984Y-61500000D03*
X305650000Y-67600000D03*
X266360866Y-96775520D03*
X249300000Y-113100000D03*
X305649984Y-55400000D03*
X305649984Y-72950000D03*
D24*
X37800000Y-28190000D03*
X38650000Y-28190000D03*
X39500000Y-28190000D03*
X40350000Y-28190000D03*
X41200000Y-28190000D03*
X42050000Y-28190000D03*
X42900000Y-28190000D03*
X43750000Y-28190000D03*
X43750000Y-26840000D03*
X42900000Y-26840000D03*
X42050000Y-26840000D03*
X41200000Y-26840000D03*
X40350000Y-26840000D03*
X39500000Y-26840000D03*
X38650000Y-26840000D03*
X37800000Y-26840000D03*
D25*
X45100000Y-27210000D03*
D26*
X36450000Y-23830000D03*
X45100000Y-23830000D03*
D25*
X36450000Y-27210000D03*
D27*
X180149984Y-24675520D03*
D28*
X182689984Y-24675520D03*
X185229984Y-24675520D03*
X187769984Y-24675520D03*
D23*
X305649984Y-44400000D03*
X263660866Y-96775520D03*
D28*
X153419984Y-27585520D03*
X155959984Y-27585520D03*
D27*
X158499984Y-27585520D03*
D28*
X161039984Y-27585520D03*
X163579984Y-27585520D03*
X166119984Y-27585520D03*
X168659984Y-27585520D03*
D27*
X171199984Y-27585520D03*
D28*
X173739984Y-27585520D03*
X176279984Y-27585520D03*
X178819984Y-27585520D03*
X181359984Y-27585520D03*
D27*
X183899984Y-27585520D03*
D28*
X186439984Y-27585520D03*
X188979984Y-27585520D03*
X191519984Y-27585520D03*
X194059984Y-27585520D03*
D27*
X196599984Y-27585520D03*
D28*
X199139984Y-27585520D03*
X201679984Y-27585520D03*
X201679984Y-45365520D03*
X199139984Y-45365520D03*
D27*
X196599984Y-45365520D03*
D28*
X194059984Y-45365520D03*
X191519984Y-45365520D03*
X188979984Y-45365520D03*
X186439984Y-45365520D03*
D27*
X183899984Y-45365520D03*
D28*
X181359984Y-45365520D03*
X178819984Y-45365520D03*
X176279984Y-45365520D03*
X173739984Y-45365520D03*
D27*
X171199984Y-45365520D03*
D28*
X168659984Y-45365520D03*
X166119984Y-45365520D03*
X163579984Y-45365520D03*
X161039984Y-45365520D03*
D27*
X158499984Y-45365520D03*
D28*
X155959984Y-45365520D03*
X153419984Y-45365520D03*
D29*
X150400000Y-27585520D03*
D28*
X150400000Y-25045520D03*
D27*
X125800000Y-24700520D03*
D28*
X128340000Y-24700520D03*
D23*
X195023432Y-109825520D03*
X252100000Y-113100000D03*
X218060866Y-110075520D03*
D27*
X59100000Y-110900000D03*
D28*
X59100000Y-113440000D03*
X61640000Y-110900000D03*
X61640000Y-113440000D03*
X64180000Y-110900000D03*
X64180000Y-113440000D03*
M02*
