G04 #@! TF.GenerationSoftware,KiCad,Pcbnew,(5.1.10-1-10_14)*
G04 #@! TF.CreationDate,2021-12-19T10:41:02+09:00*
G04 #@! TF.ProjectId,nora,6e6f7261-2e6b-4696-9361-645f70636258,DN:0030*
G04 #@! TF.SameCoordinates,Original*
G04 #@! TF.FileFunction,Profile,NP*
%FSLAX46Y46*%
G04 Gerber Fmt 4.6, Leading zero omitted, Abs format (unit mm)*
G04 Created by KiCad (PCBNEW (5.1.10-1-10_14)) date 2021-12-19 10:41:02*
%MOMM*%
%LPD*%
G01*
G04 APERTURE LIST*
G04 #@! TA.AperFunction,Profile*
%ADD10C,0.120000*%
G04 #@! TD*
G04 #@! TA.AperFunction,Profile*
%ADD11C,0.300000*%
G04 #@! TD*
G04 APERTURE END LIST*
D10*
X297365000Y-32675520D02*
X297365000Y-29675520D01*
X297365000Y-29675520D02*
X300765000Y-29675520D01*
X300765000Y-29675520D02*
X300765000Y-32675520D01*
X300765000Y-32675520D02*
X297365000Y-32675520D01*
D11*
X305600000Y-22550000D02*
X46800000Y-22550000D01*
X22600000Y-115150000D02*
X22600000Y-80850000D01*
X23000000Y-80450000D02*
X26400000Y-80450000D01*
X26400000Y-77650000D02*
X23000000Y-77650000D01*
X22600000Y-77250000D02*
X22600000Y-24550000D01*
X307600000Y-80850000D02*
X307600000Y-115150000D01*
X307600000Y-77250000D02*
X307600000Y-24550000D01*
X303800000Y-80450000D02*
X307200000Y-80450000D01*
X303800000Y-77650000D02*
X307200000Y-77650000D01*
X35300000Y-22050000D02*
X46300000Y-22050000D01*
X24600000Y-22550000D02*
X34800000Y-22550000D01*
X305600000Y-117150000D02*
X24600000Y-117150000D01*
X307200000Y-80450000D02*
G75*
G02*
X307600000Y-80850000I0J-400000D01*
G01*
X307600000Y-77250000D02*
G75*
G02*
X307200000Y-77650000I-400000J0D01*
G01*
X22600000Y-80850000D02*
G75*
G02*
X23000000Y-80450000I400000J0D01*
G01*
X23000000Y-77650000D02*
G75*
G02*
X22600000Y-77250000I0J400000D01*
G01*
X24600000Y-22550000D02*
G75*
G03*
X22600000Y-24550000I0J-2000000D01*
G01*
X22600000Y-115150000D02*
G75*
G03*
X24600000Y-117150000I2000000J0D01*
G01*
X305600000Y-117150000D02*
G75*
G03*
X307600000Y-115150000I0J2000000D01*
G01*
X307600000Y-24550000D02*
G75*
G03*
X305600000Y-22550000I-2000000J0D01*
G01*
X27800000Y-79050000D02*
G75*
G03*
X26400000Y-77650000I-1400000J0D01*
G01*
X302400000Y-79050000D02*
G75*
G02*
X303800000Y-77650000I1400000J0D01*
G01*
X303800000Y-80450000D02*
G75*
G02*
X302400000Y-79050000I0J1400000D01*
G01*
X26400000Y-80450000D02*
G75*
G03*
X27800000Y-79050000I0J1400000D01*
G01*
X34800000Y-22550000D02*
G75*
G03*
X35300000Y-22050000I0J500000D01*
G01*
X46300000Y-22050000D02*
G75*
G03*
X46800000Y-22550000I500000J0D01*
G01*
D10*
X29479672Y-32675520D02*
X29479672Y-29675520D01*
X29479672Y-29675520D02*
X32879672Y-29675520D01*
X32879672Y-29675520D02*
X32879672Y-32675520D01*
X32879672Y-32675520D02*
X29479672Y-32675520D01*
X50734333Y-32675520D02*
X47334333Y-32675520D01*
X50734333Y-29675520D02*
X50734333Y-32675520D01*
X47334333Y-29675520D02*
X50734333Y-29675520D01*
X47334333Y-32675520D02*
X47334333Y-29675520D01*
X65193666Y-32675520D02*
X65193666Y-29675520D01*
X65193666Y-29675520D02*
X68593666Y-29675520D01*
X68593666Y-29675520D02*
X68593666Y-32675520D01*
X68593666Y-32675520D02*
X65193666Y-32675520D01*
X86452999Y-32675520D02*
X83052999Y-32675520D01*
X86452999Y-29675520D02*
X86452999Y-32675520D01*
X83052999Y-29675520D02*
X86452999Y-29675520D01*
X83052999Y-32675520D02*
X83052999Y-29675520D01*
X100912332Y-32675520D02*
X100912332Y-29675520D01*
X100912332Y-29675520D02*
X104312332Y-29675520D01*
X104312332Y-29675520D02*
X104312332Y-32675520D01*
X104312332Y-32675520D02*
X100912332Y-32675520D01*
X122171665Y-32675520D02*
X118771665Y-32675520D01*
X122171665Y-29675520D02*
X122171665Y-32675520D01*
X118771665Y-29675520D02*
X122171665Y-29675520D01*
X118771665Y-32675520D02*
X118771665Y-29675520D01*
X136630998Y-32675520D02*
X136630998Y-29675520D01*
X136630998Y-29675520D02*
X140030998Y-29675520D01*
X140030998Y-29675520D02*
X140030998Y-32675520D01*
X140030998Y-32675520D02*
X136630998Y-32675520D01*
X157890331Y-32675520D02*
X154490331Y-32675520D01*
X157890331Y-29675520D02*
X157890331Y-32675520D01*
X154490331Y-29675520D02*
X157890331Y-29675520D01*
X154490331Y-32675520D02*
X154490331Y-29675520D01*
X172349664Y-32675520D02*
X172349664Y-29675520D01*
X172349664Y-29675520D02*
X175749664Y-29675520D01*
X175749664Y-29675520D02*
X175749664Y-32675520D01*
X175749664Y-32675520D02*
X172349664Y-32675520D01*
X193608997Y-32675520D02*
X190208997Y-32675520D01*
X193608997Y-29675520D02*
X193608997Y-32675520D01*
X190208997Y-29675520D02*
X193608997Y-29675520D01*
X190208997Y-32675520D02*
X190208997Y-29675520D01*
X208068330Y-32675520D02*
X208068330Y-29675520D01*
X208068330Y-29675520D02*
X211468330Y-29675520D01*
X211468330Y-29675520D02*
X211468330Y-32675520D01*
X211468330Y-32675520D02*
X208068330Y-32675520D01*
X229327663Y-32675520D02*
X225927663Y-32675520D01*
X229327663Y-29675520D02*
X229327663Y-32675520D01*
X225927663Y-29675520D02*
X229327663Y-29675520D01*
X225927663Y-32675520D02*
X225927663Y-29675520D01*
X243786996Y-32675520D02*
X243786996Y-29675520D01*
X243786996Y-29675520D02*
X247186996Y-29675520D01*
X247186996Y-29675520D02*
X247186996Y-32675520D01*
X247186996Y-32675520D02*
X243786996Y-32675520D01*
X265046329Y-32675520D02*
X261646329Y-32675520D01*
X265046329Y-29675520D02*
X265046329Y-32675520D01*
X261646329Y-29675520D02*
X265046329Y-29675520D01*
X261646329Y-32675520D02*
X261646329Y-29675520D01*
X282905662Y-32675520D02*
X279505662Y-32675520D01*
X282905662Y-29675520D02*
X282905662Y-32675520D01*
X279505662Y-29675520D02*
X282905662Y-29675520D01*
X279505662Y-32675520D02*
X279505662Y-29675520D01*
X292900506Y-46675520D02*
X296300506Y-46675520D01*
X292900506Y-49675520D02*
X292900506Y-46675520D01*
X296300506Y-49675520D02*
X292900506Y-49675520D01*
X296300506Y-46675520D02*
X296300506Y-49675520D01*
X273976306Y-46675520D02*
X273976306Y-49675520D01*
X273976306Y-49675520D02*
X270576306Y-49675520D01*
X270576306Y-49675520D02*
X270576306Y-46675520D01*
X270576306Y-46675520D02*
X273976306Y-46675520D01*
X252716946Y-46675520D02*
X256116946Y-46675520D01*
X252716946Y-49675520D02*
X252716946Y-46675520D01*
X256116946Y-49675520D02*
X252716946Y-49675520D01*
X256116946Y-46675520D02*
X256116946Y-49675520D01*
X238257586Y-46675520D02*
X238257586Y-49675520D01*
X238257586Y-49675520D02*
X234857586Y-49675520D01*
X234857586Y-49675520D02*
X234857586Y-46675520D01*
X234857586Y-46675520D02*
X238257586Y-46675520D01*
X216998226Y-46675520D02*
X220398226Y-46675520D01*
X216998226Y-49675520D02*
X216998226Y-46675520D01*
X220398226Y-49675520D02*
X216998226Y-49675520D01*
X220398226Y-46675520D02*
X220398226Y-49675520D01*
X202538866Y-46675520D02*
X202538866Y-49675520D01*
X202538866Y-49675520D02*
X199138866Y-49675520D01*
X199138866Y-49675520D02*
X199138866Y-46675520D01*
X199138866Y-46675520D02*
X202538866Y-46675520D01*
X181279506Y-46675520D02*
X184679506Y-46675520D01*
X181279506Y-49675520D02*
X181279506Y-46675520D01*
X184679506Y-49675520D02*
X181279506Y-49675520D01*
X184679506Y-46675520D02*
X184679506Y-49675520D01*
X166820146Y-46675520D02*
X166820146Y-49675520D01*
X166820146Y-49675520D02*
X163420146Y-49675520D01*
X163420146Y-49675520D02*
X163420146Y-46675520D01*
X163420146Y-46675520D02*
X166820146Y-46675520D01*
X145560786Y-46675520D02*
X148960786Y-46675520D01*
X145560786Y-49675520D02*
X145560786Y-46675520D01*
X148960786Y-49675520D02*
X145560786Y-49675520D01*
X148960786Y-46675520D02*
X148960786Y-49675520D01*
X131101426Y-46675520D02*
X131101426Y-49675520D01*
X131101426Y-49675520D02*
X127701426Y-49675520D01*
X127701426Y-49675520D02*
X127701426Y-46675520D01*
X127701426Y-46675520D02*
X131101426Y-46675520D01*
X109842066Y-46675520D02*
X113242066Y-46675520D01*
X109842066Y-49675520D02*
X109842066Y-46675520D01*
X113242066Y-49675520D02*
X109842066Y-49675520D01*
X113242066Y-46675520D02*
X113242066Y-49675520D01*
X95382706Y-46675520D02*
X95382706Y-49675520D01*
X95382706Y-49675520D02*
X91982706Y-49675520D01*
X91982706Y-49675520D02*
X91982706Y-46675520D01*
X91982706Y-46675520D02*
X95382706Y-46675520D01*
X74123346Y-46675520D02*
X77523346Y-46675520D01*
X74123346Y-49675520D02*
X74123346Y-46675520D01*
X77523346Y-49675520D02*
X74123346Y-49675520D01*
X77523346Y-46675520D02*
X77523346Y-49675520D01*
X56263986Y-46675520D02*
X59663986Y-46675520D01*
X56263986Y-49675520D02*
X56263986Y-46675520D01*
X59663986Y-49675520D02*
X56263986Y-49675520D01*
X59663986Y-46675520D02*
X59663986Y-49675520D01*
X37339786Y-46675520D02*
X37339786Y-49675520D01*
X37339786Y-49675520D02*
X33939786Y-49675520D01*
X33939786Y-49675520D02*
X33939786Y-46675520D01*
X33939786Y-46675520D02*
X37339786Y-46675520D01*
X33939786Y-66675520D02*
X33939786Y-63675520D01*
X33939786Y-63675520D02*
X37339786Y-63675520D01*
X37339786Y-63675520D02*
X37339786Y-66675520D01*
X37339786Y-66675520D02*
X33939786Y-66675520D01*
X59663986Y-66675520D02*
X56263986Y-66675520D01*
X59663986Y-63675520D02*
X59663986Y-66675520D01*
X56263986Y-63675520D02*
X59663986Y-63675520D01*
X56263986Y-66675520D02*
X56263986Y-63675520D01*
X74123346Y-66675520D02*
X74123346Y-63675520D01*
X74123346Y-63675520D02*
X77523346Y-63675520D01*
X77523346Y-63675520D02*
X77523346Y-66675520D01*
X77523346Y-66675520D02*
X74123346Y-66675520D01*
X95382706Y-66675520D02*
X91982706Y-66675520D01*
X95382706Y-63675520D02*
X95382706Y-66675520D01*
X91982706Y-63675520D02*
X95382706Y-63675520D01*
X91982706Y-66675520D02*
X91982706Y-63675520D01*
X109842066Y-66675520D02*
X109842066Y-63675520D01*
X109842066Y-63675520D02*
X113242066Y-63675520D01*
X113242066Y-63675520D02*
X113242066Y-66675520D01*
X113242066Y-66675520D02*
X109842066Y-66675520D01*
X131101426Y-66675520D02*
X127701426Y-66675520D01*
X131101426Y-63675520D02*
X131101426Y-66675520D01*
X127701426Y-63675520D02*
X131101426Y-63675520D01*
X127701426Y-66675520D02*
X127701426Y-63675520D01*
X145560786Y-66675520D02*
X145560786Y-63675520D01*
X145560786Y-63675520D02*
X148960786Y-63675520D01*
X148960786Y-63675520D02*
X148960786Y-66675520D01*
X148960786Y-66675520D02*
X145560786Y-66675520D01*
X166820146Y-66675520D02*
X163420146Y-66675520D01*
X166820146Y-63675520D02*
X166820146Y-66675520D01*
X163420146Y-63675520D02*
X166820146Y-63675520D01*
X163420146Y-66675520D02*
X163420146Y-63675520D01*
X181279506Y-66675520D02*
X181279506Y-63675520D01*
X181279506Y-63675520D02*
X184679506Y-63675520D01*
X184679506Y-63675520D02*
X184679506Y-66675520D01*
X184679506Y-66675520D02*
X181279506Y-66675520D01*
X202538866Y-66675520D02*
X199138866Y-66675520D01*
X202538866Y-63675520D02*
X202538866Y-66675520D01*
X199138866Y-63675520D02*
X202538866Y-63675520D01*
X199138866Y-66675520D02*
X199138866Y-63675520D01*
X216998226Y-66675520D02*
X216998226Y-63675520D01*
X216998226Y-63675520D02*
X220398226Y-63675520D01*
X220398226Y-63675520D02*
X220398226Y-66675520D01*
X220398226Y-66675520D02*
X216998226Y-66675520D01*
X238257586Y-66675520D02*
X234857586Y-66675520D01*
X238257586Y-63675520D02*
X238257586Y-66675520D01*
X234857586Y-63675520D02*
X238257586Y-63675520D01*
X234857586Y-66675520D02*
X234857586Y-63675520D01*
X252716946Y-66675520D02*
X252716946Y-63675520D01*
X252716946Y-63675520D02*
X256116946Y-63675520D01*
X256116946Y-63675520D02*
X256116946Y-66675520D01*
X256116946Y-66675520D02*
X252716946Y-66675520D01*
X273976306Y-66675520D02*
X270576306Y-66675520D01*
X273976306Y-63675520D02*
X273976306Y-66675520D01*
X270576306Y-63675520D02*
X273976306Y-63675520D01*
X270576306Y-66675520D02*
X270576306Y-63675520D01*
X296300506Y-66675520D02*
X292900506Y-66675520D01*
X296300506Y-63675520D02*
X296300506Y-66675520D01*
X292900506Y-63675520D02*
X296300506Y-63675520D01*
X292900506Y-66675520D02*
X292900506Y-63675520D01*
X297365346Y-80675520D02*
X300765346Y-80675520D01*
X297365346Y-83675520D02*
X297365346Y-80675520D01*
X300765346Y-83675520D02*
X297365346Y-83675520D01*
X300765346Y-80675520D02*
X300765346Y-83675520D01*
X282905986Y-80675520D02*
X282905986Y-83675520D01*
X282905986Y-83675520D02*
X279505986Y-83675520D01*
X279505986Y-83675520D02*
X279505986Y-80675520D01*
X279505986Y-80675520D02*
X282905986Y-80675520D01*
X261646626Y-80675520D02*
X265046626Y-80675520D01*
X261646626Y-83675520D02*
X261646626Y-80675520D01*
X265046626Y-83675520D02*
X261646626Y-83675520D01*
X265046626Y-80675520D02*
X265046626Y-83675520D01*
X247187266Y-80675520D02*
X247187266Y-83675520D01*
X247187266Y-83675520D02*
X243787266Y-83675520D01*
X243787266Y-83675520D02*
X243787266Y-80675520D01*
X243787266Y-80675520D02*
X247187266Y-80675520D01*
X225927906Y-80675520D02*
X229327906Y-80675520D01*
X225927906Y-83675520D02*
X225927906Y-80675520D01*
X229327906Y-83675520D02*
X225927906Y-83675520D01*
X229327906Y-80675520D02*
X229327906Y-83675520D01*
X211468546Y-80675520D02*
X211468546Y-83675520D01*
X211468546Y-83675520D02*
X208068546Y-83675520D01*
X208068546Y-83675520D02*
X208068546Y-80675520D01*
X208068546Y-80675520D02*
X211468546Y-80675520D01*
X190209186Y-80675520D02*
X193609186Y-80675520D01*
X190209186Y-83675520D02*
X190209186Y-80675520D01*
X193609186Y-83675520D02*
X190209186Y-83675520D01*
X193609186Y-80675520D02*
X193609186Y-83675520D01*
X175749826Y-80675520D02*
X175749826Y-83675520D01*
X175749826Y-83675520D02*
X172349826Y-83675520D01*
X172349826Y-83675520D02*
X172349826Y-80675520D01*
X172349826Y-80675520D02*
X175749826Y-80675520D01*
X157890466Y-80675520D02*
X157890466Y-83675520D01*
X157890466Y-83675520D02*
X154490466Y-83675520D01*
X154490466Y-83675520D02*
X154490466Y-80675520D01*
X154490466Y-80675520D02*
X157890466Y-80675520D01*
X140031106Y-80675520D02*
X140031106Y-83675520D01*
X140031106Y-83675520D02*
X136631106Y-83675520D01*
X136631106Y-83675520D02*
X136631106Y-80675520D01*
X136631106Y-80675520D02*
X140031106Y-80675520D01*
X118771746Y-80675520D02*
X122171746Y-80675520D01*
X118771746Y-83675520D02*
X118771746Y-80675520D01*
X122171746Y-83675520D02*
X118771746Y-83675520D01*
X122171746Y-80675520D02*
X122171746Y-83675520D01*
X104312386Y-80675520D02*
X104312386Y-83675520D01*
X104312386Y-83675520D02*
X100912386Y-83675520D01*
X100912386Y-83675520D02*
X100912386Y-80675520D01*
X100912386Y-80675520D02*
X104312386Y-80675520D01*
X83053026Y-80675520D02*
X86453026Y-80675520D01*
X83053026Y-83675520D02*
X83053026Y-80675520D01*
X86453026Y-83675520D02*
X83053026Y-83675520D01*
X86453026Y-80675520D02*
X86453026Y-83675520D01*
X68593666Y-80675520D02*
X68593666Y-83675520D01*
X68593666Y-83675520D02*
X65193666Y-83675520D01*
X65193666Y-83675520D02*
X65193666Y-80675520D01*
X65193666Y-80675520D02*
X68593666Y-80675520D01*
X50734306Y-80675520D02*
X50734306Y-83675520D01*
X50734306Y-83675520D02*
X47334306Y-83675520D01*
X47334306Y-83675520D02*
X47334306Y-80675520D01*
X47334306Y-80675520D02*
X50734306Y-80675520D01*
X32874946Y-80675520D02*
X32874946Y-83675520D01*
X32874946Y-83675520D02*
X29474946Y-83675520D01*
X29474946Y-83675520D02*
X29474946Y-80675520D01*
X29474946Y-80675520D02*
X32874946Y-80675520D01*
X78588186Y-100675520D02*
X78588186Y-97675520D01*
X78588186Y-97675520D02*
X81988186Y-97675520D01*
X81988186Y-97675520D02*
X81988186Y-100675520D01*
X81988186Y-100675520D02*
X78588186Y-100675520D01*
X104312386Y-100675520D02*
X100912386Y-100675520D01*
X104312386Y-97675520D02*
X104312386Y-100675520D01*
X100912386Y-97675520D02*
X104312386Y-97675520D01*
X100912386Y-100675520D02*
X100912386Y-97675520D01*
X123236586Y-100675520D02*
X123236586Y-97675520D01*
X123236586Y-97675520D02*
X126636586Y-97675520D01*
X126636586Y-97675520D02*
X126636586Y-100675520D01*
X126636586Y-100675520D02*
X123236586Y-100675520D01*
X148960786Y-100675520D02*
X145560786Y-100675520D01*
X148960786Y-97675520D02*
X148960786Y-100675520D01*
X145560786Y-97675520D02*
X148960786Y-97675520D01*
X145560786Y-100675520D02*
X145560786Y-97675520D01*
X166820146Y-100675520D02*
X163420146Y-100675520D01*
X166820146Y-97675520D02*
X166820146Y-100675520D01*
X163420146Y-97675520D02*
X166820146Y-97675520D01*
X163420146Y-100675520D02*
X163420146Y-97675520D01*
X184679506Y-100675520D02*
X181279506Y-100675520D01*
X184679506Y-97675520D02*
X184679506Y-100675520D01*
X181279506Y-97675520D02*
X184679506Y-97675520D01*
X181279506Y-100675520D02*
X181279506Y-97675520D01*
X207003706Y-100675520D02*
X203603706Y-100675520D01*
X207003706Y-97675520D02*
X207003706Y-100675520D01*
X203603706Y-97675520D02*
X207003706Y-97675520D01*
X203603706Y-100675520D02*
X203603706Y-97675520D01*
X225927906Y-100675520D02*
X225927906Y-97675520D01*
X225927906Y-97675520D02*
X229327906Y-97675520D01*
X229327906Y-97675520D02*
X229327906Y-100675520D01*
X229327906Y-100675520D02*
X225927906Y-100675520D01*
X248252106Y-100675520D02*
X248252106Y-97675520D01*
X248252106Y-97675520D02*
X251652106Y-97675520D01*
X251652106Y-97675520D02*
X251652106Y-100675520D01*
X251652106Y-100675520D02*
X248252106Y-100675520D01*
M02*
