M48
; DRILL file {KiCad (6.0.0-0)} date 
; FORMAT={-:-/ absolute / inch / decimal}
; #@! TF.CreationDate,2022-01-09T21:23:17+09:00
; #@! TF.GenerationSoftware,Kicad,Pcbnew,(6.0.0-0)
; #@! TF.FileFunction,MixedPlating,1,2
FMAT,2
INCH
; #@! TA.AperFunction,Plated,PTH,ViaDrill
T1C0.0157
; #@! TA.AperFunction,Plated,PTH,ComponentDrill
T2C0.0157
; #@! TA.AperFunction,Plated,PTH,ComponentDrill
T3C0.0197
; #@! TA.AperFunction,Plated,PTH,ComponentDrill
T4C0.0236
; #@! TA.AperFunction,Plated,PTH,ComponentDrill
T5C0.0276
; #@! TA.AperFunction,Plated,PTH,ComponentDrill
T6C0.0394
; #@! TA.AperFunction,Plated,PTH,ComponentDrill
T7C0.0402
; #@! TA.AperFunction,Plated,PTH,ComponentDrill
T8C0.0984
; #@! TA.AperFunction,NonPlated,NPTH,ComponentDrill
T9C0.0472
; #@! TA.AperFunction,NonPlated,NPTH,ComponentDrill
T10C0.0591
; #@! TA.AperFunction,NonPlated,NPTH,ComponentDrill
T11C0.0709
; #@! TA.AperFunction,NonPlated,NPTH,ComponentDrill
T12C0.0866
; #@! TA.AperFunction,NonPlated,NPTH,ComponentDrill
T13C0.0945
; #@! TA.AperFunction,NonPlated,NPTH,ComponentDrill
T14C0.1181
; #@! TA.AperFunction,NonPlated,NPTH,ComponentDrill
T15C0.1339
; #@! TA.AperFunction,NonPlated,NPTH,ComponentDrill
T16C0.1350
%
G90
G05
T1
X0.9252Y-3.8976
X0.9449Y-0.937
X0.9449Y-1.9213
X0.9449Y-2.5118
X0.9449Y-2.9843
X0.9449Y-3.2185
X0.9449Y-4.5669
X1.1246Y-1.2569
X1.1249Y-1.7864
X1.1693Y-3.878
X1.2093Y-1.0581
X1.2244Y-4.0984
X1.2283Y-3.1142
X1.2362Y-1.8386
X1.2992Y-1.4882
X1.3189Y-2.2362
X1.3189Y-2.9016
X1.3565Y-1.6467
X1.3565Y-3.6545
X1.3813Y-3.2646
X1.3813Y-3.4951
X1.463Y-4.2549
X1.4646Y-4.4055
X1.4724Y-1.3228
X1.4961Y-2.1575
X1.4961Y-2.8268
X1.5053Y-4.2631
X1.5372Y-1.373
X1.5408Y-4.3439
X1.5506Y-4.2892
X1.5551Y-3.6772
X1.5894Y-4.2324
X1.6142Y-3.2598
X1.6161Y-4.2846
X1.6412Y-4.4249
X1.6513Y-1.2746
X1.6643Y-4.3966
X1.7319Y-4.4504
X1.7347Y-1.7215
X1.739Y-4.4016
X1.7608Y-1.753
X1.7766Y-2.3907
X1.7992Y-1.4134
X1.8008Y-3.9861
X1.8009Y-3.9545
X1.8506Y-3.9425
X1.8567Y-4.4479
X1.9016Y-3.002
X1.9213Y-2.1142
X1.937Y-3.7913
X1.9482Y-3.96
X1.9606Y-3.8898
X1.9882Y-3.9961
X1.9921Y-4.0315
X2.0201Y-2.4213
X2.0315Y-4.0315
X2.0394Y-3.0571
X2.0394Y-3.0906
X2.061Y-1.126
X2.065Y-3.124
X2.0906Y-3.0039
X2.0951Y-4.2261
X2.0984Y-4.0079
X2.1146Y-3.1575
X2.126Y-0.937
X2.1284Y-3.3022
X2.1284Y-3.3612
X2.1532Y-4.2319
X2.1824Y-2.4591
X2.1949Y-2.4882
X2.1957Y-3.7854
X2.1957Y-3.885
X2.1969Y-3.935
X2.2134Y-4.4431
X2.2244Y-4.5669
X2.2795Y-1.3425
X2.2894Y-3.935
X2.3031Y-3.2598
X2.5512Y-2.5236
X2.5875Y-3.9675
X2.619Y-3.9695
X2.6722Y-4.3297
X2.7068Y-2.3652
X2.7165Y-3.4961
X2.7303Y-3.2657
X2.7583Y-1.4164
X2.7617Y-2.9913
X2.7627Y-1.6467
X2.7627Y-3.6644
X2.7898Y-3.3297
X2.7939Y-3.9479
X2.7978Y-3.499
X2.8095Y-4.3652
X2.8254Y-3.5857
X2.8805Y-3.9341
X2.9134Y-2.8268
X2.9724Y-3.2598
X3.0709Y-2.1575
X3.2111Y-4.3337
X3.2283Y-4.1654
X3.2323Y-2.5236
X3.2509Y-3.877
X3.435Y-3.2657
X3.6024Y-0.937
X3.6643Y-3.877
X3.6811Y-3.2598
X3.7008Y-4.5669
X3.7504Y-4.3337
X3.8174Y-2.316
X3.8174Y-2.9853
X3.8389Y-3.3383
X3.9197Y-1.4164
X3.937Y-2.5236
X3.9675Y-4.2038
X3.9681Y-3.875
X4.1166Y-3.8022
X4.1339Y-3.4961
X4.1378Y-3.2657
X4.169Y-1.6467
X4.169Y-3.6654
X4.1717Y-3.8809
X4.3898Y-3.2598
X4.4712Y-4.1484
X4.4882Y-2.1575
X4.4882Y-2.8268
X4.5305Y-3.8612
X4.6378Y-2.5236
X4.8139Y-2.6368
X4.8454Y-3.9872
X4.847Y-4.3042
X4.8622Y-1.4134
X4.8622Y-3.2638
X4.8966Y-3.1656
X4.9512Y-1.6801
X4.9884Y-1.8691
X4.9911Y-3.8691
X5.0344Y-4.3002
X5.0522Y-1.2982
X5.0531Y-1.1791
X5.0698Y-3.9439
X5.1772Y-4.5669
X5.2237Y-2.316
X5.2237Y-2.9853
X5.2237Y-3.3168
X5.2508Y-2.4591
X5.2732Y-2.4881
X5.3346Y-1.4094
X5.3386Y-2.4882
X5.374Y-0.937
X5.4281Y-3.877
X5.5182Y-3.9341
X5.5186Y-4.0345
X5.5435Y-1.7968
X5.5435Y-1.9479
X5.5457Y-1.4085
X5.5512Y-3.4961
X5.5698Y-1.6535
X5.5752Y-3.6683
X5.6912Y-1.9951
X5.6919Y-1.8671
X5.6992Y-2.8268
X5.7347Y-1.566
X5.799Y-4.4687
X5.8352Y-4.4675
X5.8957Y-1.9272
X5.9136Y-2.1683
X5.9356Y-1.1565
X5.9449Y-4.1654
X5.9748Y-3.8809
X6.0022Y-3.127
X6.0458Y-1.1979
X6.0711Y-3.5443
X6.1009Y-2.8258
X6.1084Y-3.5446
X6.1257Y-3.0507
X6.1482Y-3.8809
X6.1756Y-2.6683
X6.2545Y-3.2668
X6.2565Y-1.3258
X6.2662Y-1.4045
X6.2781Y-1.6447
X6.3252Y-1.4951
X6.3489Y-1.5227
X6.3962Y-2.5384
X6.3976Y-1.9961
X6.3982Y-1.8671
X6.3982Y-3.875
X6.404Y-1.1959
X6.4045Y-1.6742
X6.5024Y-3.2549
X6.5418Y-3.688
X6.5551Y-4.5669
X6.6029Y-1.9262
X6.6046Y-3.875
X6.6144Y-1.9675
X6.638Y-2.1683
X6.7525Y-1.1979
X6.7717Y-1.4882
X6.778Y-3.8809
X6.8504Y-0.937
X6.8647Y-2.3927
X6.8888Y-1.7396
X6.8923Y-2.4242
X6.9187Y-2.3652
X6.9572Y-3.2668
X6.9608Y-1.9321
X6.9685Y-3.4961
X6.9828Y-1.6486
X7.034Y-2.1388
X7.1126Y-1.8661
X7.1126Y-1.9961
X7.1919Y-3.8809
X7.2032Y-3.2549
X7.2975Y-2.8278
X7.3228Y-1.9252
X7.3309Y-2.1683
X7.4Y-3.125
X7.4Y-3.4695
X7.401Y-2.8927
X7.401Y-3.0906
X7.4354Y-3.7283
X7.4356Y-2.5049
X7.4685Y-3.7598
X7.4714Y-4.1644
X7.5836Y-2.316
X7.5836Y-3.0108
X7.6383Y-2.0463
X7.6486Y-3.8534
X7.684Y-3.7904
X7.6846Y-3.6545
X7.6919Y-1.6486
X7.721Y-4.4006
X7.8122Y-1.8661
X7.8122Y-1.9961
X7.9055Y-2.2087
X7.9331Y-4.5669
X7.9744Y-4.4291
X8.0276Y-1.9252
X8.0423Y-3.864
X8.0956Y-3.9815
X8.0959Y-4.3849
X8.121Y-3.9518
X8.1228Y-4.2126
X8.2283Y-0.937
X8.3346Y-2.3652
X8.3346Y-2.9961
X8.3561Y-3.4961
X8.3739Y-1.6467
X8.3808Y-3.6605
X8.3858Y-1.4882
X8.404Y-3.7864
X8.4213Y-1.9252
X8.5117Y-1.8671
X8.5118Y-1.9961
X8.5315Y-4.1616
X8.7008Y-2.1575
X8.7008Y-2.8268
X8.8966Y-3.8691
X9.0333Y-4.3729
X9.0339Y-3.9341
X9.2087Y-1.0709
X9.3504Y-4.5669
X9.4045Y-3.8731
X9.7638Y-1.4882
X9.7638Y-3.4961
X9.7638Y-4.1654
X9.7844Y-1.6467
X9.8454Y-3.8731
X9.9016Y-0.937
X10.1181Y-2.1575
X10.1181Y-2.8268
X10.1409Y-4.3192
X10.1455Y-2.316
X10.1455Y-2.9853
X10.2554Y-3.6606
X10.3725Y-4.0305
X10.589Y-3.8337
X10.5895Y-3.688
X10.6378Y-1.0984
X10.8465Y-3.7913
X10.8661Y-0.937
X10.8764Y-4.5669
X11.1417Y-2.1575
X11.1417Y-2.8268
X11.1417Y-3.4961
X11.1811Y-1.4882
X11.19Y-1.6467
X11.2002Y-3.6545
X11.2622Y-2.3652
X11.2622Y-2.9912
X11.6969Y-2.5364
X11.7049Y-1.8671
X11.8727Y-3.2057
X11.8821Y-1.1979
X12.0669Y-0.937
X12.0669Y-1.9213
X12.0669Y-2.5118
X12.0669Y-2.9794
X12.0669Y-3.2549
X12.0669Y-4.1654
X12.0669Y-4.5669
T2
X0.9142Y-1.4911
X0.9142Y-1.6289
X0.9142Y-3.499
X0.9142Y-3.6368
X0.9677Y-1.4912
X0.9677Y-1.629
X0.9677Y-3.499
X0.9677Y-3.6368
X1.4882Y-1.0567
X1.4882Y-1.1098
X1.5217Y-1.0567
X1.5217Y-1.1098
X1.5551Y-1.0567
X1.5551Y-1.1098
X1.5886Y-1.0567
X1.5886Y-1.1098
X1.622Y-1.0567
X1.622Y-1.1098
X1.6555Y-1.0567
X1.6555Y-1.1098
X1.689Y-1.0567
X1.689Y-1.1098
X1.7224Y-1.0567
X1.7224Y-1.1098
T3
X1.8071Y-1.9862
X1.8287Y-1.9331
X1.8287Y-2.0374
X1.8819Y-1.9114
X1.8819Y-2.061
X1.9311Y-1.9331
X1.9311Y-2.0394
X1.9567Y-1.9862
X2.3336Y-4.0542
T5
X1.063Y-3.9724
X2.4399Y-4.0975
X4.1722Y-4.2628
X5.8607Y-4.188
X7.6781Y-4.3238
X8.5851Y-4.3337
X9.7347Y-4.4557
X9.8823Y-4.4557
X10.2509Y-3.8219
X10.7386Y-3.7864
X12.032Y-3.3258
X12.032Y-3.6486
X12.0335Y-1.748
X12.0335Y-2.1811
X12.0335Y-2.4213
X12.0335Y-2.872
X12.0335Y-2.6614
X12.0354Y-1.8701
T6
X2.3268Y-4.3661
X2.3268Y-4.4661
X2.4268Y-4.3661
X2.4268Y-4.4661
X2.5268Y-4.3661
X2.5268Y-4.4661
X4.9528Y-0.9725
X5.0528Y-0.9725
X5.9213Y-0.986
X5.9213Y-1.086
X6.4026Y-2.814
X6.4026Y-3.3849
X6.501Y-3.3849
X6.5994Y-2.814
X6.5994Y-3.3849
X7.0925Y-0.9715
X7.1925Y-0.9715
X7.2925Y-0.9715
X7.3925Y-0.9715
T7
X6.0402Y-1.086
X6.0402Y-1.786
X6.1402Y-1.086
X6.1402Y-1.786
X6.2402Y-1.086
X6.2402Y-1.786
X6.3402Y-1.086
X6.3402Y-1.786
X6.4402Y-1.086
X6.4402Y-1.786
X6.5402Y-1.086
X6.5402Y-1.786
X6.6402Y-1.086
X6.6402Y-1.786
X6.7402Y-1.086
X6.7402Y-1.786
X6.8402Y-1.086
X6.8402Y-1.786
X6.9402Y-1.086
X6.9402Y-1.786
X7.0402Y-1.086
X7.0402Y-1.786
X7.1402Y-1.086
X7.1402Y-1.786
X7.2402Y-1.086
X7.2402Y-1.786
X7.3402Y-1.086
X7.3402Y-1.786
X7.4402Y-1.086
X7.4402Y-1.786
X7.5402Y-1.086
X7.5402Y-1.786
X7.6402Y-1.086
X7.6402Y-1.786
X7.7402Y-1.086
X7.7402Y-1.786
X7.8402Y-1.086
X7.8402Y-1.786
X7.9402Y-1.086
X7.9402Y-1.786
T8
X1.8819Y-1.9862
T9
X1.4331Y-1.2471
X1.4331Y-3.2549
X1.6088Y-1.9164
X1.6088Y-2.5857
X2.1362Y-1.2471
X2.1362Y-3.2549
X2.4877Y-1.9164
X2.4877Y-2.5857
X2.8393Y-1.2471
X2.8393Y-3.2549
X3.1909Y-1.9164
X3.1909Y-2.5857
X3.1909Y-3.9242
X3.5424Y-1.2471
X3.5424Y-3.2549
X3.894Y-1.9164
X3.894Y-2.5857
X4.0698Y-3.9242
X4.2456Y-1.2471
X4.2456Y-3.2549
X4.5377Y-4.2549
X4.5971Y-1.9164
X4.5971Y-2.5857
X4.9487Y-1.2471
X4.9487Y-3.2549
X5.3002Y-1.9164
X5.3002Y-2.5857
X5.6518Y-1.2471
X5.6518Y-3.2549
X5.8276Y-3.9242
X6.0034Y-1.9164
X6.0034Y-2.5857
X6.3549Y-1.2471
X6.3549Y-3.2549
X6.7065Y-1.9164
X6.7065Y-2.5857
X6.7065Y-3.9242
X7.0581Y-1.2471
X7.0581Y-3.2549
X7.4096Y-1.9164
X7.4096Y-2.5857
X7.5854Y-3.9242
X7.7612Y-1.2471
X7.7612Y-3.2549
X8.0533Y-4.2549
X8.1127Y-1.9164
X8.1127Y-2.5857
X8.4643Y-1.2471
X8.4643Y-3.2549
X8.8159Y-1.9164
X8.8159Y-2.5857
X9.1674Y-1.2471
X9.1674Y-3.2549
X9.3432Y-3.9242
X9.519Y-1.9164
X9.519Y-2.5857
X9.8706Y-3.2549
X9.8706Y-1.2471
X10.2221Y-1.9164
X10.2221Y-2.5857
X10.2221Y-3.9242
X10.5737Y-1.2471
X10.5737Y-3.2549
X10.9252Y-1.9164
X10.9252Y-2.5857
X11.2768Y-3.2549
X11.2768Y-1.2471
X11.8041Y-1.9164
X11.8041Y-2.5857
X11.9799Y-1.2471
X11.9799Y-3.2549
T11
X1.011Y-1.4124
X1.011Y-3.4203
X1.1868Y-2.0817
X1.1868Y-2.751
X1.4441Y-1.4124
X1.4441Y-3.4203
X1.6199Y-2.0817
X1.6199Y-2.751
X1.7141Y-1.4124
X1.7141Y-3.4203
X2.0657Y-2.0817
X2.0657Y-2.751
X2.1472Y-1.4124
X2.1472Y-3.4203
X2.4173Y-1.4124
X2.4173Y-3.4203
X2.4988Y-2.0817
X2.4988Y-2.751
X2.7688Y-2.0817
X2.7688Y-2.751
X2.7688Y-4.0896
X2.8503Y-1.4124
X2.8503Y-3.4203
X3.1204Y-1.4124
X3.1204Y-3.4203
X3.2019Y-2.0817
X3.2019Y-2.751
X3.2019Y-4.0896
X3.4719Y-2.0817
X3.4719Y-2.751
X3.5535Y-1.4124
X3.5535Y-3.4203
X3.6477Y-4.0896
X3.8235Y-1.4124
X3.8235Y-3.4203
X3.905Y-2.0817
X3.905Y-2.751
X4.0808Y-4.0896
X4.1751Y-2.0817
X4.1751Y-2.751
X4.2566Y-1.4124
X4.2566Y-3.4203
X4.5266Y-1.4124
X4.5266Y-3.4203
X4.5266Y-4.0896
X4.6081Y-2.0817
X4.6081Y-2.751
X4.8782Y-2.0817
X4.8782Y-2.751
X4.9597Y-1.4124
X4.9597Y-3.4203
X4.9597Y-4.0896
X5.2298Y-1.4124
X5.2298Y-3.4203
X5.3113Y-2.0817
X5.3113Y-2.751
X5.4055Y-4.0896
X5.5813Y-2.0817
X5.5813Y-2.751
X5.6628Y-1.4124
X5.6628Y-3.4203
X5.8386Y-4.0896
X5.9329Y-1.4124
X5.9329Y-3.4203
X6.0144Y-2.0817
X6.0144Y-2.751
X6.2844Y-2.0817
X6.2844Y-2.751
X6.2844Y-4.0896
X6.366Y-1.4124
X6.636Y-1.4124
X6.7175Y-2.0817
X6.7175Y-2.751
X6.7175Y-4.0896
X6.9876Y-2.0817
X6.9876Y-2.751
X7.0691Y-1.4124
X7.0691Y-3.4203
X7.1634Y-4.0896
X7.3391Y-1.4124
X7.3391Y-3.4203
X7.4206Y-2.0817
X7.4206Y-2.751
X7.5964Y-4.0896
X7.6907Y-2.0817
X7.6907Y-2.751
X7.7722Y-1.4124
X7.7722Y-3.4203
X8.0423Y-1.4124
X8.0423Y-3.4203
X8.0423Y-4.0896
X8.1238Y-2.0817
X8.1238Y-2.751
X8.3938Y-2.0817
X8.3938Y-2.751
X8.4753Y-1.4124
X8.4753Y-3.4203
X8.4753Y-4.0896
X8.7454Y-1.4124
X8.7454Y-3.4203
X8.8269Y-2.0817
X8.8269Y-2.751
X8.9212Y-4.0896
X9.0969Y-2.0817
X9.0969Y-2.751
X9.1785Y-1.4124
X9.1785Y-3.4203
X9.3542Y-4.0896
X9.4485Y-3.4203
X9.4485Y-1.4124
X9.53Y-2.0817
X9.53Y-2.751
X9.8001Y-2.0817
X9.8001Y-2.751
X9.8001Y-4.0896
X9.8816Y-3.4203
X9.8816Y-1.4124
X10.1516Y-1.4124
X10.1516Y-3.4203
X10.2331Y-2.0817
X10.2331Y-2.751
X10.2331Y-4.0896
X10.5032Y-2.0817
X10.5032Y-2.751
X10.5847Y-1.4124
X10.5847Y-3.4203
X10.8548Y-3.4203
X10.8548Y-1.4124
X10.9363Y-2.0817
X10.9363Y-2.751
X11.2878Y-3.4203
X11.2878Y-1.4124
X11.3821Y-2.0817
X11.3821Y-2.751
X11.5579Y-1.4124
X11.5579Y-3.4203
X11.8152Y-2.0817
X11.8152Y-2.751
X11.991Y-1.4124
X11.991Y-3.4203
T12
X4.1909Y-4.4252
X4.626Y-1.0551
X8.376Y-1.0551
T14
X1.0307Y-1.5601
X1.0307Y-3.5679
X1.2065Y-2.2294
X1.2065Y-2.8986
X1.2275Y-1.6467
X1.2275Y-3.6545
X1.4033Y-2.316
X1.4033Y-2.9853
X1.7338Y-1.5601
X1.7338Y-3.5679
X1.9307Y-1.6467
X1.9307Y-3.6545
X2.0854Y-2.2294
X2.0854Y-2.8986
X2.2822Y-2.316
X2.2822Y-2.9853
X2.4369Y-1.5601
X2.4369Y-3.5679
X2.6338Y-1.6467
X2.6338Y-3.6545
X2.7885Y-2.2294
X2.7885Y-2.8986
X2.7885Y-4.2372
X2.9854Y-2.316
X2.9854Y-2.9853
X2.9854Y-4.3238
X3.1401Y-1.5601
X3.1401Y-3.5679
X3.3369Y-1.6467
X3.3369Y-3.6545
X3.4916Y-2.2294
X3.4916Y-2.8986
X3.6674Y-4.2372
X3.6885Y-2.316
X3.6885Y-2.9853
X3.8432Y-1.5601
X3.8432Y-3.5679
X3.8643Y-4.3238
X4.04Y-1.6467
X4.04Y-3.6545
X4.1948Y-2.2294
X4.1948Y-2.8986
X4.3916Y-2.316
X4.3916Y-2.9853
X4.5463Y-1.5601
X4.5463Y-3.5679
X4.7432Y-1.6467
X4.7432Y-3.6545
X4.7432Y-3.8553
X4.8979Y-2.2294
X4.8979Y-2.8986
X4.94Y-3.9419
X5.0947Y-2.316
X5.0947Y-2.9853
X5.2494Y-1.5601
X5.2494Y-3.5679
X5.4252Y-4.2372
X5.4463Y-1.6467
X5.4463Y-3.6545
X5.601Y-2.2294
X5.601Y-2.8986
X5.6221Y-4.3238
X5.7979Y-2.316
X5.7979Y-2.9853
X5.9526Y-1.5601
X5.9526Y-3.5679
X6.1494Y-1.6467
X6.1494Y-3.6545
X6.3041Y-2.2294
X6.3041Y-2.8986
X6.3041Y-4.2372
X6.501Y-2.316
X6.501Y-2.9853
X6.501Y-4.3238
X6.6557Y-1.5601
X6.6557Y-3.5679
X6.8525Y-1.6467
X6.8525Y-3.6545
X7.0073Y-2.2294
X7.0073Y-2.8986
X7.183Y-4.2372
X7.2041Y-2.316
X7.2041Y-2.9853
X7.3588Y-1.5601
X7.3588Y-3.5679
X7.3799Y-4.3238
X7.5557Y-1.6467
X7.5557Y-3.6545
X7.7104Y-2.2294
X7.7104Y-2.8986
X7.9072Y-2.316
X7.9072Y-2.9853
X8.0619Y-1.5601
X8.0619Y-3.5679
X8.2588Y-1.6467
X8.2588Y-3.6545
X8.2588Y-3.8553
X8.4135Y-2.2294
X8.4135Y-2.8986
X8.4556Y-3.9419
X8.6104Y-2.316
X8.6104Y-2.9853
X8.7651Y-1.5601
X8.7651Y-3.5679
X8.9409Y-4.2372
X8.9619Y-1.6467
X8.9619Y-3.6545
X9.1166Y-2.2294
X9.1166Y-2.8986
X9.1377Y-4.3238
X9.3135Y-2.316
X9.3135Y-2.9853
X9.4682Y-3.5679
X9.4682Y-1.5601
X9.665Y-3.6545
X9.665Y-1.6467
X9.8198Y-2.2294
X9.8198Y-2.8986
X9.8198Y-4.2372
X10.0166Y-2.316
X10.0166Y-2.9853
X10.0166Y-4.3238
X10.1713Y-1.5601
X10.1713Y-3.5679
X10.3682Y-1.6467
X10.3682Y-3.6545
X10.5229Y-2.2294
X10.5229Y-2.8986
X10.7197Y-2.316
X10.7197Y-2.9853
X10.8744Y-3.5679
X10.8744Y-1.5601
X11.0713Y-3.6545
X11.0713Y-1.6467
X11.4018Y-2.2294
X11.4018Y-2.8986
X11.5776Y-1.5601
X11.5776Y-3.5679
X11.5986Y-2.316
X11.5986Y-2.9853
X11.7744Y-1.6467
X11.7744Y-3.6545
T15
X1.2275Y-1.4124
X1.2275Y-3.4203
X1.4033Y-2.0817
X1.4033Y-2.751
X2.9854Y-4.0896
X4.7432Y-4.0896
X6.501Y-4.0896
X8.2588Y-4.0896
X10.0166Y-4.0896
X11.5986Y-2.0817
X11.5986Y-2.751
T16
X1.9307Y-1.4124
X1.9307Y-3.4203
X2.2822Y-2.0817
X2.2822Y-2.751
X2.6338Y-1.4124
X2.6338Y-3.4203
X2.9854Y-2.0817
X2.9854Y-2.751
X3.3369Y-1.4124
X3.3369Y-3.4203
X3.6885Y-2.0817
X3.6885Y-2.751
X3.8643Y-4.0896
X4.04Y-1.4124
X4.04Y-3.4203
X4.3916Y-2.0817
X4.3916Y-2.751
X4.7432Y-1.4124
X4.7432Y-3.4203
X5.0947Y-2.0817
X5.0947Y-2.751
X5.4463Y-1.4124
X5.4463Y-3.4203
X5.6221Y-4.0896
X5.7979Y-2.0817
X5.7979Y-2.751
X6.1494Y-1.4124
X6.1494Y-3.4203
X6.501Y-2.0817
X6.501Y-2.751
X6.8525Y-1.4124
X6.8525Y-3.4203
X7.2041Y-2.0817
X7.2041Y-2.751
X7.3799Y-4.0896
X7.5557Y-1.4124
X7.5557Y-3.4203
X7.9072Y-2.0817
X7.9072Y-2.751
X8.2588Y-1.4124
X8.2588Y-3.4203
X8.6104Y-2.0817
X8.6104Y-2.751
X8.9619Y-1.4124
X8.9619Y-3.4203
X9.1377Y-4.0896
X9.3135Y-2.0817
X9.3135Y-2.751
X9.665Y-3.4203
X9.665Y-1.4124
X10.0166Y-2.0817
X10.0166Y-2.751
X10.3682Y-1.4124
X10.3682Y-3.4203
X10.7197Y-2.0817
X10.7197Y-2.751
X11.0713Y-3.4203
X11.0713Y-1.4124
X11.7744Y-1.4124
X11.7744Y-3.4203
T4
G00X1.435Y-0.9224
M15
G01X1.435Y-0.9539
M16
G05
G00X1.435Y-1.0417
M15
G01X1.435Y-1.1008
M16
G05
G00X1.7756Y-0.9224
M15
G01X1.7756Y-0.9539
M16
G05
G00X1.7756Y-1.0417
M15
G01X1.7756Y-1.1008
M16
G05
T10
G00X6.2805Y-3.1152
M15
G01X6.2805Y-3.064
M16
G05
G00X6.7215Y-3.1152
M15
G01X6.7215Y-3.064
M16
G05
T13
G00X5.8819Y-2.7382
M15
G01X5.9921Y-2.7382
M16
G05
G00X8.3346Y-4.2421
M15
G01X8.4449Y-4.2421
M16
G05
G00X11.0728Y-1.9862
M15
G01X11.1831Y-1.9862
M16
G05
T0
M30
