%TF.GenerationSoftware,KiCad,Pcbnew,(6.0.1-0)*%
%TF.CreationDate,2022-02-13T12:24:25+09:00*%
%TF.ProjectId,nora,6e6f7261-2e6b-4696-9361-645f70636258,DN:0032*%
%TF.SameCoordinates,Original*%
%TF.FileFunction,Soldermask,Bot*%
%TF.FilePolarity,Negative*%
%FSLAX46Y46*%
G04 Gerber Fmt 4.6, Leading zero omitted, Abs format (unit mm)*
G04 Created by KiCad (PCBNEW (6.0.1-0)) date 2022-02-13 12:24:25*
%MOMM*%
%LPD*%
G01*
G04 APERTURE LIST*
G04 Aperture macros list*
%AMRoundRect*
0 Rectangle with rounded corners*
0 $1 Rounding radius*
0 $2 $3 $4 $5 $6 $7 $8 $9 X,Y pos of 4 corners*
0 Add a 4 corners polygon primitive as box body*
4,1,4,$2,$3,$4,$5,$6,$7,$8,$9,$2,$3,0*
0 Add four circle primitives for the rounded corners*
1,1,$1+$1,$2,$3*
1,1,$1+$1,$4,$5*
1,1,$1+$1,$6,$7*
1,1,$1+$1,$8,$9*
0 Add four rect primitives between the rounded corners*
20,1,$1+$1,$2,$3,$4,$5,0*
20,1,$1+$1,$4,$5,$6,$7,0*
20,1,$1+$1,$6,$7,$8,$9,0*
20,1,$1+$1,$8,$9,$2,$3,0*%
%AMHorizOval*
0 Thick line with rounded ends*
0 $1 width*
0 $2 $3 position (X,Y) of the first rounded end (center of the circle)*
0 $4 $5 position (X,Y) of the second rounded end (center of the circle)*
0 Add line between two ends*
20,1,$1,$2,$3,$4,$5,0*
0 Add two circle primitives to create the rounded ends*
1,1,$1,$2,$3*
1,1,$1,$4,$5*%
%AMFreePoly0*
4,1,41,0.586777,0.930194,0.656366,0.874698,0.694986,0.794504,0.700000,0.750000,0.700000,-0.750000,0.680194,-0.836777,0.624698,-0.906366,0.544504,-0.944986,0.500000,-0.950000,0.000000,-0.950000,-0.023504,-0.944635,-0.083606,-0.943534,-0.139582,-0.934468,-0.274897,-0.892193,-0.326080,-0.867780,-0.444090,-0.789225,-0.486362,-0.751429,-0.577582,-0.642910,-0.607548,-0.594768,-0.664643,-0.465009,
-0.679893,-0.410393,-0.697476,-0.275933,-0.697084,-0.275882,-0.700000,-0.250000,-0.700000,0.250000,-0.697921,0.259109,-0.697582,0.286880,-0.675771,0.426957,-0.659192,0.481183,-0.598944,0.609508,-0.567811,0.656904,-0.473967,0.763162,-0.430783,0.799915,-0.310888,0.875563,-0.259125,0.898717,-0.122818,0.937674,-0.066635,0.945370,-0.042411,0.945222,0.000000,0.950000,0.500000,0.950000,
0.586777,0.930194,0.586777,0.930194,$1*%
%AMFreePoly1*
4,1,41,0.022678,0.944824,0.075125,0.944504,0.131210,0.936123,0.267031,0.895504,0.318507,0.871718,0.437469,0.794611,0.480202,0.757333,0.572740,0.649936,0.603290,0.602165,0.661967,0.473113,0.677883,0.418686,0.697980,0.278353,0.700000,0.250000,0.700000,-0.250000,0.699985,-0.252439,0.699836,-0.264655,0.697079,-0.295398,0.673559,-0.435199,0.656318,-0.489221,0.594506,-0.616800,
0.562797,-0.663810,0.467662,-0.768914,0.424032,-0.805137,0.303222,-0.879314,0.251181,-0.901834,0.114408,-0.939123,0.058135,-0.946132,0.037663,-0.945757,0.000000,-0.950000,-0.500000,-0.950000,-0.586777,-0.930194,-0.656366,-0.874698,-0.694986,-0.794504,-0.700000,-0.750000,-0.700000,0.750000,-0.680194,0.836777,-0.624698,0.906366,-0.544504,0.944986,-0.500000,0.950000,0.000000,0.950000,
0.022678,0.944824,0.022678,0.944824,$1*%
%AMFreePoly2*
4,1,41,0.636777,0.930194,0.706366,0.874698,0.744986,0.794504,0.750000,0.750000,0.750000,-0.750000,0.730194,-0.836777,0.674698,-0.906366,0.594504,-0.944986,0.550000,-0.950000,0.000000,-0.950000,-0.023504,-0.944635,-0.083606,-0.943534,-0.139582,-0.934468,-0.274897,-0.892193,-0.326080,-0.867780,-0.444090,-0.789225,-0.486362,-0.751429,-0.577582,-0.642910,-0.607548,-0.594768,-0.664643,-0.465009,
-0.679893,-0.410393,-0.697476,-0.275933,-0.697084,-0.275882,-0.700000,-0.250000,-0.700000,0.250000,-0.697921,0.259109,-0.697582,0.286880,-0.675771,0.426957,-0.659192,0.481183,-0.598944,0.609508,-0.567811,0.656904,-0.473967,0.763162,-0.430783,0.799915,-0.310888,0.875563,-0.259125,0.898717,-0.122818,0.937674,-0.066635,0.945370,-0.042411,0.945222,0.000000,0.950000,0.550000,0.950000,
0.636777,0.930194,0.636777,0.930194,$1*%
%AMFreePoly3*
4,1,41,0.022678,0.944824,0.075125,0.944504,0.131210,0.936123,0.267031,0.895504,0.318507,0.871718,0.437469,0.794611,0.480202,0.757333,0.572740,0.649936,0.603290,0.602165,0.661967,0.473113,0.677883,0.418686,0.697980,0.278353,0.700000,0.250000,0.700000,-0.250000,0.699985,-0.252439,0.699836,-0.264655,0.697079,-0.295398,0.673559,-0.435199,0.656318,-0.489221,0.594506,-0.616800,
0.562797,-0.663810,0.467662,-0.768914,0.424032,-0.805137,0.303222,-0.879314,0.251181,-0.901834,0.114408,-0.939123,0.058135,-0.946132,0.037663,-0.945757,0.000000,-0.950000,-0.550000,-0.950000,-0.636777,-0.930194,-0.706366,-0.874698,-0.744986,-0.794504,-0.750000,-0.750000,-0.750000,0.750000,-0.730194,0.836777,-0.674698,0.906366,-0.594504,0.944986,-0.550000,0.950000,0.000000,0.950000,
0.022678,0.944824,0.022678,0.944824,$1*%
G04 Aperture macros list end*
%ADD10O,5.600000X2.800000*%
%ADD11C,1.400000*%
%ADD12C,5.200000*%
%ADD13C,2.600000*%
%ADD14C,2.200000*%
%ADD15C,3.400000*%
%ADD16C,3.829000*%
%ADD17C,1.600000*%
%ADD18RoundRect,0.200000X-1.300000X-1.300000X1.300000X-1.300000X1.300000X1.300000X-1.300000X1.300000X0*%
%ADD19C,3.800000*%
%ADD20RoundRect,0.200000X1.300000X1.300000X-1.300000X1.300000X-1.300000X-1.300000X1.300000X-1.300000X0*%
%ADD21RoundRect,0.200000X-1.050000X-1.300000X1.050000X-1.300000X1.050000X1.300000X-1.050000X1.300000X0*%
%ADD22O,2.400000X3.600000*%
%ADD23C,2.400000*%
%ADD24HorizOval,2.400000X0.353553X0.353553X-0.353553X-0.353553X0*%
%ADD25HorizOval,2.400000X-0.353553X0.353553X0.353553X-0.353553X0*%
%ADD26C,1.900000*%
%ADD27RoundRect,0.450000X-0.350000X-0.450000X0.350000X-0.450000X0.350000X0.450000X-0.350000X0.450000X0*%
%ADD28RoundRect,0.200000X0.500000X-0.850000X0.500000X0.850000X-0.500000X0.850000X-0.500000X-0.850000X0*%
%ADD29RoundRect,0.450000X0.574524X0.097227X0.097227X0.574524X-0.574524X-0.097227X-0.097227X-0.574524X0*%
%ADD30RoundRect,0.450001X0.462499X0.624999X-0.462499X0.624999X-0.462499X-0.624999X0.462499X-0.624999X0*%
%ADD31RoundRect,0.262500X-0.220971X-0.309359X0.309359X0.220971X0.220971X0.309359X-0.309359X-0.220971X0*%
%ADD32RoundRect,0.262500X0.220971X-0.309359X0.309359X-0.220971X-0.220971X0.309359X-0.309359X0.220971X0*%
%ADD33RoundRect,0.200000X0.000000X-3.641600X3.641600X0.000000X0.000000X3.641600X-3.641600X0.000000X0*%
%ADD34RoundRect,0.450000X0.350000X0.450000X-0.350000X0.450000X-0.350000X-0.450000X0.350000X-0.450000X0*%
%ADD35RoundRect,0.200000X0.106066X1.378858X-1.378858X-0.106066X-0.106066X-1.378858X1.378858X0.106066X0*%
%ADD36RoundRect,0.450000X-0.574524X-0.097227X-0.097227X-0.574524X0.574524X0.097227X0.097227X0.574524X0*%
%ADD37RoundRect,0.450000X-0.450000X0.350000X-0.450000X-0.350000X0.450000X-0.350000X0.450000X0.350000X0*%
%ADD38C,1.100000*%
%ADD39O,1.300000X2.800000*%
%ADD40O,1.300000X2.100000*%
%ADD41RoundRect,0.200000X0.450000X0.600000X-0.450000X0.600000X-0.450000X-0.600000X0.450000X-0.600000X0*%
%ADD42RoundRect,0.200000X0.600000X-0.450000X0.600000X0.450000X-0.600000X0.450000X-0.600000X-0.450000X0*%
%ADD43RoundRect,0.200000X-0.600000X0.450000X-0.600000X-0.450000X0.600000X-0.450000X0.600000X0.450000X0*%
%ADD44RoundRect,0.200000X-0.715625X-0.410000X0.715625X-0.410000X0.715625X0.410000X-0.715625X0.410000X0*%
%ADD45RoundRect,0.200000X-0.850000X0.850000X-0.850000X-0.850000X0.850000X-0.850000X0.850000X0.850000X0*%
%ADD46O,2.100000X2.100000*%
%ADD47RoundRect,0.200000X-0.600000X-0.700000X0.600000X-0.700000X0.600000X0.700000X-0.600000X0.700000X0*%
%ADD48RoundRect,0.200000X-0.500000X-0.700000X0.500000X-0.700000X0.500000X0.700000X-0.500000X0.700000X0*%
%ADD49RoundRect,0.200000X-0.850000X-0.850000X0.850000X-0.850000X0.850000X0.850000X-0.850000X0.850000X0*%
%ADD50FreePoly0,0.000000*%
%ADD51FreePoly1,0.000000*%
%ADD52FreePoly2,180.000000*%
%ADD53RoundRect,0.200000X0.500000X0.750000X-0.500000X0.750000X-0.500000X-0.750000X0.500000X-0.750000X0*%
%ADD54FreePoly3,180.000000*%
%ADD55RoundRect,0.450000X-0.070711X0.565685X-0.565685X0.070711X0.070711X-0.565685X0.565685X-0.070711X0*%
%ADD56RoundRect,0.450000X-0.565685X-0.070711X-0.070711X-0.565685X0.565685X0.070711X0.070711X0.565685X0*%
%ADD57RoundRect,0.450000X0.097227X-0.574524X0.574524X-0.097227X-0.097227X0.574524X-0.574524X0.097227X0*%
%ADD58RoundRect,0.200000X0.715625X0.410000X-0.715625X0.410000X-0.715625X-0.410000X0.715625X-0.410000X0*%
%ADD59RoundRect,0.200000X-0.712883X0.414749X0.002742X-0.824749X0.712883X-0.414749X-0.002742X0.824749X0*%
%ADD60RoundRect,0.350000X0.725000X0.150000X-0.725000X0.150000X-0.725000X-0.150000X0.725000X-0.150000X0*%
%ADD61RoundRect,0.200000X1.700000X-0.650000X1.700000X0.650000X-1.700000X0.650000X-1.700000X-0.650000X0*%
%ADD62FreePoly0,90.000000*%
%ADD63FreePoly1,90.000000*%
%ADD64FreePoly0,270.000000*%
%ADD65FreePoly1,270.000000*%
G04 APERTURE END LIST*
D10*
X150800000Y-69550000D03*
X213100000Y-107750000D03*
X282650000Y-50450000D03*
D11*
X49050000Y-49100000D03*
X47800000Y-48550000D03*
X49050000Y-51800000D03*
X46450000Y-49100000D03*
X46450000Y-51750000D03*
X49700000Y-50450000D03*
X47800000Y-52350000D03*
X45900000Y-50450000D03*
D12*
X47800000Y-50450000D03*
D13*
X117500000Y-26800000D03*
X212750000Y-26800000D03*
X106450000Y-112400000D03*
D14*
X43539048Y-35875520D03*
D15*
X49039048Y-41825520D03*
D16*
X49039048Y-35875520D03*
D15*
X44039048Y-39625520D03*
D14*
X54539048Y-35875520D03*
D17*
X54259048Y-31675520D03*
D18*
X52314048Y-41825520D03*
X40764048Y-39625520D03*
D14*
X54539048Y-86875520D03*
D15*
X49039048Y-92825520D03*
D16*
X49039048Y-86875520D03*
D15*
X44039048Y-90625520D03*
D14*
X43539048Y-86875520D03*
D17*
X54259048Y-82675520D03*
D18*
X52314048Y-92825520D03*
X40764048Y-90625520D03*
D14*
X72398424Y-35875520D03*
D17*
X72118424Y-31675520D03*
D14*
X61398424Y-35875520D03*
D16*
X66898424Y-35875520D03*
D15*
X66898424Y-41825520D03*
X61898424Y-39625520D03*
D18*
X70173424Y-41825520D03*
X58623424Y-39625520D03*
D14*
X52468736Y-52875520D03*
D15*
X52968736Y-56625520D03*
D14*
X63468736Y-52875520D03*
D15*
X57968736Y-58825520D03*
D17*
X63188736Y-48675520D03*
D16*
X57968736Y-52875520D03*
D18*
X61243736Y-58825520D03*
X49693736Y-56625520D03*
D15*
X61898424Y-90625520D03*
D14*
X61398424Y-86875520D03*
D15*
X66898424Y-92825520D03*
D17*
X72118424Y-82675520D03*
D14*
X72398424Y-86875520D03*
D16*
X66898424Y-86875520D03*
D18*
X70173424Y-92825520D03*
X58623424Y-90625520D03*
D15*
X84757800Y-41825520D03*
D14*
X90257800Y-35875520D03*
D15*
X79757800Y-39625520D03*
D16*
X84757800Y-35875520D03*
D14*
X79257800Y-35875520D03*
D17*
X89977800Y-31675520D03*
D18*
X88032800Y-41825520D03*
X76482800Y-39625520D03*
D15*
X75828112Y-58825520D03*
D17*
X81048112Y-48675520D03*
D16*
X75828112Y-52875520D03*
D14*
X81328112Y-52875520D03*
D15*
X70828112Y-56625520D03*
D14*
X70328112Y-52875520D03*
D18*
X79103112Y-58825520D03*
X67553112Y-56625520D03*
D15*
X75828112Y-75825520D03*
X70828112Y-73625520D03*
D14*
X81328112Y-69875520D03*
D16*
X75828112Y-69875520D03*
D17*
X81048112Y-65675520D03*
D14*
X70328112Y-69875520D03*
D18*
X79103112Y-75825520D03*
X67553112Y-73625520D03*
D14*
X90257800Y-86875520D03*
D15*
X79757800Y-90625520D03*
D17*
X89977800Y-82675520D03*
D14*
X79257800Y-86875520D03*
D16*
X84757800Y-86875520D03*
D15*
X84757800Y-92825520D03*
D18*
X88032800Y-92825520D03*
X76482800Y-90625520D03*
D16*
X102617176Y-35875520D03*
D15*
X102617176Y-41825520D03*
D14*
X108117176Y-35875520D03*
X97117176Y-35875520D03*
D17*
X107837176Y-31675520D03*
D15*
X97617176Y-39625520D03*
D18*
X105892176Y-41825520D03*
X94342176Y-39625520D03*
D14*
X99187488Y-52875520D03*
D15*
X93687488Y-58825520D03*
D16*
X93687488Y-52875520D03*
D15*
X88687488Y-56625520D03*
D14*
X88187488Y-52875520D03*
D17*
X98907488Y-48675520D03*
D18*
X96962488Y-58825520D03*
X85412488Y-56625520D03*
D14*
X88187488Y-69875520D03*
D15*
X93687488Y-75825520D03*
D17*
X98907488Y-65675520D03*
D15*
X88687488Y-73625520D03*
D16*
X93687488Y-69875520D03*
D14*
X99187488Y-69875520D03*
D18*
X96962488Y-75825520D03*
X85412488Y-73625520D03*
D15*
X97617176Y-90625520D03*
D16*
X102617176Y-86875520D03*
D15*
X102617176Y-92825520D03*
D17*
X107837176Y-82675520D03*
D14*
X108117176Y-86875520D03*
X97117176Y-86875520D03*
D18*
X105892176Y-92825520D03*
X94342176Y-90625520D03*
D15*
X120476552Y-41825520D03*
X115476552Y-39625520D03*
D16*
X120476552Y-35875520D03*
D17*
X125696552Y-31675520D03*
D14*
X114976552Y-35875520D03*
X125976552Y-35875520D03*
D18*
X123751552Y-41825520D03*
X112201552Y-39625520D03*
D15*
X106546864Y-56625520D03*
D17*
X116766864Y-48675520D03*
D14*
X106046864Y-52875520D03*
X117046864Y-52875520D03*
D16*
X111546864Y-52875520D03*
D15*
X111546864Y-58825520D03*
D18*
X114821864Y-58825520D03*
X103271864Y-56625520D03*
D16*
X111546864Y-69875520D03*
D14*
X117046864Y-69875520D03*
D15*
X111546864Y-75825520D03*
D14*
X106046864Y-69875520D03*
D17*
X116766864Y-65675520D03*
D15*
X106546864Y-73625520D03*
D18*
X114821864Y-75825520D03*
X103271864Y-73625520D03*
D15*
X115476552Y-90625520D03*
D14*
X114976552Y-86875520D03*
D17*
X125696552Y-82675520D03*
D14*
X125976552Y-86875520D03*
D16*
X120476552Y-86875520D03*
D15*
X120476552Y-92825520D03*
D18*
X123751552Y-92825520D03*
X112201552Y-90625520D03*
D14*
X143835928Y-35875520D03*
D15*
X138335928Y-41825520D03*
D14*
X132835928Y-35875520D03*
D17*
X143555928Y-31675520D03*
D15*
X133335928Y-39625520D03*
D16*
X138335928Y-35875520D03*
D18*
X141610928Y-41825520D03*
X130060928Y-39625520D03*
D17*
X134626240Y-48675520D03*
D14*
X123906240Y-52875520D03*
D15*
X124406240Y-56625520D03*
D14*
X134906240Y-52875520D03*
D16*
X129406240Y-52875520D03*
D15*
X129406240Y-58825520D03*
D18*
X132681240Y-58825520D03*
X121131240Y-56625520D03*
D17*
X134626240Y-65675520D03*
D15*
X129406240Y-75825520D03*
X124406240Y-73625520D03*
D14*
X123906240Y-69875520D03*
D16*
X129406240Y-69875520D03*
D14*
X134906240Y-69875520D03*
D18*
X132681240Y-75825520D03*
X121131240Y-73625520D03*
D14*
X143835928Y-86875520D03*
X132835928Y-86875520D03*
D15*
X133335928Y-90625520D03*
D16*
X138335928Y-86875520D03*
D15*
X138335928Y-92825520D03*
D17*
X143555928Y-82675520D03*
D18*
X141610928Y-92825520D03*
X130060928Y-90625520D03*
D15*
X147265616Y-58825520D03*
D17*
X152485616Y-48675520D03*
D16*
X147265616Y-52875520D03*
D14*
X152765616Y-52875520D03*
X141765616Y-52875520D03*
D15*
X142265616Y-56625520D03*
D18*
X150540616Y-58825520D03*
X138990616Y-56625520D03*
D14*
X141765616Y-69875520D03*
D15*
X147265616Y-75825520D03*
D17*
X152485616Y-65675520D03*
D15*
X142265616Y-73625520D03*
D14*
X152765616Y-69875520D03*
D16*
X147265616Y-69875520D03*
D18*
X150540616Y-75825520D03*
X138990616Y-73625520D03*
D14*
X197414056Y-35875520D03*
D15*
X186914056Y-39625520D03*
D17*
X197134056Y-31675520D03*
D15*
X191914056Y-41825520D03*
D16*
X191914056Y-35875520D03*
D14*
X186414056Y-35875520D03*
D18*
X195189056Y-41825520D03*
X183639056Y-39625520D03*
D15*
X182984368Y-58825520D03*
D14*
X188484368Y-52875520D03*
D15*
X177984368Y-56625520D03*
D14*
X177484368Y-52875520D03*
D16*
X182984368Y-52875520D03*
D17*
X188204368Y-48675520D03*
D18*
X186259368Y-58825520D03*
X174709368Y-56625520D03*
D17*
X197134056Y-82675520D03*
D16*
X191914056Y-86875520D03*
D15*
X186914056Y-90625520D03*
D14*
X186414056Y-86875520D03*
X197414056Y-86875520D03*
D15*
X191914056Y-92825520D03*
D18*
X195189056Y-92825520D03*
X183639056Y-90625520D03*
D15*
X182449212Y-107625520D03*
D14*
X192949212Y-103875520D03*
D17*
X192669212Y-99675520D03*
D15*
X187449212Y-109825520D03*
D14*
X181949212Y-103875520D03*
D16*
X187449212Y-103875520D03*
D18*
X190724212Y-109825520D03*
X179174212Y-107625520D03*
D14*
X204273432Y-35875520D03*
D16*
X209773432Y-35875520D03*
D15*
X209773432Y-41825520D03*
D14*
X215273432Y-35875520D03*
D17*
X214993432Y-31675520D03*
D15*
X204773432Y-39625520D03*
D18*
X213048432Y-41825520D03*
X201498432Y-39625520D03*
D14*
X206343744Y-52875520D03*
D16*
X200843744Y-52875520D03*
D14*
X195343744Y-52875520D03*
D17*
X206063744Y-48675520D03*
D15*
X195843744Y-56625520D03*
X200843744Y-58825520D03*
D18*
X204118744Y-58825520D03*
X192568744Y-56625520D03*
D15*
X195843744Y-73625520D03*
X200843744Y-75825520D03*
D14*
X195343744Y-69875520D03*
D16*
X200843744Y-69875520D03*
D17*
X206063744Y-65675520D03*
D14*
X206343744Y-69875520D03*
D18*
X204118744Y-75825520D03*
X192568744Y-73625520D03*
D14*
X204273432Y-86875520D03*
D16*
X209773432Y-86875520D03*
D17*
X214993432Y-82675520D03*
D15*
X209773432Y-92825520D03*
D14*
X215273432Y-86875520D03*
D15*
X204773432Y-90625520D03*
D18*
X213048432Y-92825520D03*
X201498432Y-90625520D03*
D14*
X215273432Y-103875520D03*
D15*
X214773432Y-100125520D03*
D17*
X204553432Y-108075520D03*
D19*
X209773432Y-103875520D03*
D15*
X209773432Y-97925520D03*
D14*
X204273432Y-103875520D03*
D20*
X206498432Y-97925520D03*
X218048432Y-100125520D03*
D17*
X232852808Y-31675520D03*
D15*
X222632808Y-39625520D03*
D16*
X227632808Y-35875520D03*
D15*
X227632808Y-41825520D03*
D14*
X222132808Y-35875520D03*
X233132808Y-35875520D03*
D18*
X230907808Y-41825520D03*
X219357808Y-39625520D03*
D16*
X218703120Y-69875520D03*
D17*
X223923120Y-65675520D03*
D14*
X224203120Y-69875520D03*
D15*
X218703120Y-75825520D03*
X213703120Y-73625520D03*
D14*
X213203120Y-69875520D03*
D18*
X221978120Y-75825520D03*
X210428120Y-73625520D03*
D17*
X232852808Y-82675520D03*
D15*
X222632808Y-90625520D03*
D14*
X222132808Y-86875520D03*
D15*
X227632808Y-92825520D03*
D16*
X227632808Y-86875520D03*
D14*
X233132808Y-86875520D03*
D18*
X230907808Y-92825520D03*
X219357808Y-90625520D03*
D17*
X237317652Y-99675520D03*
D14*
X226597652Y-103875520D03*
D16*
X232097652Y-103875520D03*
D14*
X237597652Y-103875520D03*
D15*
X232097652Y-109825520D03*
X227097652Y-107625520D03*
D18*
X235372652Y-109825520D03*
X223822652Y-107625520D03*
D17*
X250712187Y-31675520D03*
D14*
X239992187Y-35875520D03*
D16*
X245492187Y-35875520D03*
D15*
X245492187Y-41825520D03*
D14*
X250992187Y-35875520D03*
D15*
X240492187Y-39625520D03*
D18*
X248767187Y-41825520D03*
X237217187Y-39625520D03*
D15*
X240491992Y-90625520D03*
D17*
X250711992Y-82675520D03*
D16*
X245491992Y-86875520D03*
D15*
X245491992Y-92825520D03*
D14*
X239991992Y-86875520D03*
X250991992Y-86875520D03*
D18*
X248766992Y-92825520D03*
X237216992Y-90625520D03*
D15*
X263351560Y-41825520D03*
D16*
X263351560Y-35875520D03*
D15*
X258351560Y-39625520D03*
D14*
X268851560Y-35875520D03*
D17*
X268571560Y-31675520D03*
D14*
X257851560Y-35875520D03*
D18*
X266626560Y-41825520D03*
X255076560Y-39625520D03*
D14*
X259921672Y-69875520D03*
D15*
X249421672Y-73625520D03*
D17*
X259641672Y-65675520D03*
D14*
X248921672Y-69875520D03*
D16*
X254421672Y-69875520D03*
D15*
X254421672Y-75825520D03*
D18*
X257696672Y-75825520D03*
X246146672Y-73625520D03*
D14*
X268851560Y-86875520D03*
D15*
X258351560Y-90625520D03*
D16*
X263351560Y-86875520D03*
D17*
X268571560Y-82675520D03*
D14*
X257851560Y-86875520D03*
D15*
X263351560Y-92825520D03*
D18*
X266626560Y-92825520D03*
X255076560Y-90625520D03*
D14*
X275710937Y-35875520D03*
X286710937Y-35875520D03*
D16*
X281210937Y-35875520D03*
D15*
X281210937Y-41825520D03*
D17*
X286430937Y-31675520D03*
D15*
X276210937Y-39625520D03*
D18*
X284485937Y-41825520D03*
X272935937Y-39625520D03*
D15*
X272281032Y-58825520D03*
D17*
X277501032Y-48675520D03*
D16*
X272281032Y-52875520D03*
D14*
X266781032Y-52875520D03*
X277781032Y-52875520D03*
D15*
X267281032Y-56625520D03*
D18*
X275556032Y-58825520D03*
X264006032Y-56625520D03*
D17*
X277501032Y-65675520D03*
D16*
X272281032Y-69875520D03*
D14*
X266781032Y-69875520D03*
X277781032Y-69875520D03*
D15*
X267281032Y-73625520D03*
X272281032Y-75825520D03*
D18*
X275556032Y-75825520D03*
X264006032Y-73625520D03*
D14*
X286710936Y-86875520D03*
X275710936Y-86875520D03*
D16*
X281210936Y-86875520D03*
D15*
X281210936Y-92825520D03*
D17*
X286430936Y-82675520D03*
D15*
X276210936Y-90625520D03*
D18*
X284485936Y-92825520D03*
X272935936Y-90625520D03*
D14*
X293570312Y-35875520D03*
D15*
X294070312Y-39625520D03*
D14*
X304570312Y-35875520D03*
D17*
X304290312Y-31675520D03*
D16*
X299070312Y-35875520D03*
D15*
X299070312Y-41825520D03*
D18*
X302345312Y-41825520D03*
X290795312Y-39625520D03*
D14*
X304570312Y-86875520D03*
D15*
X299070312Y-92825520D03*
D14*
X293570312Y-86875520D03*
D16*
X299070312Y-86875520D03*
D15*
X294070312Y-90625520D03*
D17*
X304290312Y-82675520D03*
D18*
X302345312Y-92825520D03*
X290795312Y-90625520D03*
D17*
X63188736Y-65675520D03*
D15*
X57968736Y-75825520D03*
X52968736Y-73625520D03*
D14*
X52468736Y-69875520D03*
D16*
X57968736Y-69875520D03*
D14*
X63468736Y-69875520D03*
D18*
X61243736Y-75825520D03*
X49693736Y-73625520D03*
D17*
X223923120Y-48675520D03*
D15*
X218703120Y-58825520D03*
D14*
X224203120Y-52875520D03*
D16*
X218703120Y-52875520D03*
D14*
X213203120Y-52875520D03*
D15*
X213703120Y-56625520D03*
D18*
X221978120Y-58825520D03*
X210428120Y-56625520D03*
D14*
X188484368Y-69875520D03*
X177484368Y-69875520D03*
D16*
X182984368Y-69875520D03*
D15*
X177984368Y-73625520D03*
D17*
X188204368Y-65675520D03*
D15*
X182984368Y-75825520D03*
D18*
X186259368Y-75825520D03*
X174709368Y-73625520D03*
D15*
X35644516Y-58825520D03*
D17*
X40864516Y-48675520D03*
D19*
X35644516Y-52875520D03*
D14*
X30144516Y-52875520D03*
X41144516Y-52875520D03*
D15*
X30644516Y-56625520D03*
D18*
X38919516Y-58825520D03*
X27369516Y-56625520D03*
D14*
X36679672Y-35875520D03*
D15*
X31179672Y-41825520D03*
X26179672Y-39625520D03*
D14*
X25679672Y-35875520D03*
D17*
X36399672Y-31675520D03*
D19*
X31179672Y-35875520D03*
D18*
X34454672Y-41825520D03*
D21*
X23654672Y-39625520D03*
D17*
X36399680Y-82675520D03*
D15*
X26179680Y-90625520D03*
D14*
X25679680Y-86875520D03*
D19*
X31179680Y-86875520D03*
D15*
X31179680Y-92825520D03*
D14*
X36679680Y-86875520D03*
D18*
X34454680Y-92825520D03*
D21*
X23654680Y-90625520D03*
D15*
X125476552Y-100125520D03*
D14*
X125976552Y-103875520D03*
D17*
X115256552Y-108075520D03*
D15*
X120476552Y-97925520D03*
D14*
X114976552Y-103875520D03*
D19*
X120476552Y-103875520D03*
D20*
X117201552Y-97925520D03*
X128751552Y-100125520D03*
D16*
X142800772Y-103875520D03*
D17*
X148020772Y-99675520D03*
D14*
X137300772Y-103875520D03*
D15*
X137800772Y-107625520D03*
X142800772Y-109825520D03*
D14*
X148300772Y-103875520D03*
D18*
X146075772Y-109825520D03*
X134525772Y-107625520D03*
D14*
X242062312Y-69875520D03*
D15*
X236562312Y-75825520D03*
X231562312Y-73625520D03*
D17*
X241782312Y-65675520D03*
D16*
X236562312Y-69875520D03*
D14*
X231062312Y-69875520D03*
D18*
X239837312Y-75825520D03*
X228287312Y-73625520D03*
D14*
X248921872Y-103875520D03*
D15*
X249421872Y-107625520D03*
D19*
X254421872Y-103875520D03*
D15*
X254421872Y-109825520D03*
D17*
X259641872Y-99675520D03*
D14*
X259921872Y-103875520D03*
D18*
X257696872Y-109825520D03*
X246146872Y-107625520D03*
D14*
X81328112Y-103875520D03*
D17*
X81048112Y-99675520D03*
D15*
X70828112Y-107625520D03*
D19*
X75828112Y-103875520D03*
D14*
X70328112Y-103875520D03*
D15*
X75828112Y-109825520D03*
D18*
X79103112Y-109825520D03*
X67553112Y-107625520D03*
D15*
X93152332Y-107625520D03*
X98152332Y-109825520D03*
D14*
X92652332Y-103875520D03*
X103652332Y-103875520D03*
D17*
X103372332Y-99675520D03*
D16*
X98152332Y-103875520D03*
D18*
X101427332Y-109825520D03*
X89877332Y-107625520D03*
D14*
X242062312Y-52875520D03*
X231062312Y-52875520D03*
D15*
X231562312Y-56625520D03*
D16*
X236562312Y-52875520D03*
D17*
X241782312Y-48675520D03*
D15*
X236562312Y-58825520D03*
D18*
X239837312Y-58825520D03*
X228287312Y-56625520D03*
D15*
X289605232Y-56625520D03*
D17*
X299825232Y-48675520D03*
D14*
X289105232Y-52875520D03*
D15*
X294605232Y-58825520D03*
D14*
X300105232Y-52875520D03*
D19*
X294605232Y-52875520D03*
D18*
X297880232Y-58825520D03*
X286330232Y-56625520D03*
D14*
X300105232Y-69875520D03*
X289105232Y-69875520D03*
D15*
X289605232Y-73625520D03*
D19*
X294605232Y-69875520D03*
D17*
X299825232Y-65675520D03*
D15*
X294605232Y-75825520D03*
D18*
X297880232Y-75825520D03*
X286330232Y-73625520D03*
D14*
X259921672Y-52875520D03*
X248921672Y-52875520D03*
D15*
X254421672Y-58825520D03*
X249421672Y-56625520D03*
D17*
X259641672Y-48675520D03*
D16*
X254421672Y-52875520D03*
D18*
X257696672Y-58825520D03*
X246146672Y-56625520D03*
D14*
X41144516Y-69875520D03*
D17*
X40864516Y-65675520D03*
D15*
X35644516Y-75825520D03*
D19*
X35644516Y-69875520D03*
D15*
X30644516Y-73625520D03*
D14*
X30144516Y-69875520D03*
D18*
X38919516Y-75825520D03*
X27369516Y-73625520D03*
D15*
X151195304Y-39625520D03*
D17*
X161415304Y-31675520D03*
D14*
X161695304Y-35875520D03*
X150695304Y-35875520D03*
D15*
X156195304Y-41825520D03*
D16*
X156195304Y-35875520D03*
D18*
X159470304Y-41825520D03*
X147920304Y-39625520D03*
D22*
X159524992Y-78475520D03*
X170724992Y-78475520D03*
D23*
X161694992Y-86875520D03*
D24*
X162284992Y-86325520D03*
D25*
X167974992Y-86325520D03*
D23*
X168564992Y-86875520D03*
X165124992Y-85975520D03*
X167624992Y-71475520D03*
X162624992Y-71475520D03*
D15*
X169054680Y-90625520D03*
D14*
X179554680Y-86875520D03*
D17*
X179274680Y-82675520D03*
D15*
X174054680Y-92825520D03*
D16*
X174054680Y-86875520D03*
D18*
X177329680Y-92825520D03*
X165779680Y-90625520D03*
D15*
X169054680Y-39625520D03*
D14*
X168554680Y-35875520D03*
D15*
X174054680Y-41825520D03*
D17*
X179274680Y-31675520D03*
D14*
X179554680Y-35875520D03*
D16*
X174054680Y-35875520D03*
D18*
X177329680Y-41825520D03*
X165779680Y-39625520D03*
D14*
X159624992Y-103875520D03*
D15*
X165124992Y-109825520D03*
D17*
X170344992Y-99675520D03*
D15*
X160124992Y-107625520D03*
D14*
X170624992Y-103875520D03*
D19*
X165124992Y-103875520D03*
D18*
X168399992Y-109825520D03*
X156849992Y-107625520D03*
D16*
X156195304Y-86875520D03*
D17*
X161415304Y-82675520D03*
D15*
X156195304Y-92825520D03*
D14*
X150695304Y-86875520D03*
D15*
X151195304Y-90625520D03*
D18*
X159470304Y-92825520D03*
X147920304Y-90625520D03*
D15*
X165124992Y-75825520D03*
D14*
X170624992Y-69875520D03*
D16*
X165124992Y-69875520D03*
D17*
X170344992Y-65675520D03*
D14*
X159624992Y-69875520D03*
D15*
X160124992Y-73625520D03*
D18*
X168399992Y-75825520D03*
X156849992Y-73625520D03*
D15*
X160124992Y-56625520D03*
X165124992Y-58825520D03*
D14*
X170624992Y-52875520D03*
D16*
X165124992Y-52875520D03*
D17*
X170344992Y-48675520D03*
D14*
X159624992Y-52875520D03*
D18*
X168399992Y-58825520D03*
X156849992Y-56625520D03*
D26*
X61973432Y-104075520D03*
X305614056Y-84475520D03*
X146075000Y-106350000D03*
D11*
X59273432Y-102975520D03*
D26*
X105973432Y-108275520D03*
X27000000Y-100900000D03*
D27*
X138650000Y-25100000D03*
X140650000Y-25100000D03*
D28*
X47149984Y-76250520D03*
X47149984Y-69950520D03*
X43349984Y-69950520D03*
X43349984Y-76250520D03*
D26*
X305614056Y-90300000D03*
X305700000Y-47500000D03*
X305649984Y-61500000D03*
X305650000Y-67600000D03*
X266360866Y-96775520D03*
X249300000Y-113100000D03*
D29*
X43203623Y-97993623D03*
X41736377Y-96526377D03*
D30*
X52337500Y-27175520D03*
X49362500Y-27175520D03*
D31*
X44887079Y-111023967D03*
X44533526Y-110670413D03*
X44179973Y-110316860D03*
X43826419Y-109963306D03*
X43472866Y-109609753D03*
X43119312Y-109256200D03*
X42765759Y-108902646D03*
X42412206Y-108549093D03*
X42058652Y-108195539D03*
X41705099Y-107841986D03*
X41351545Y-107488433D03*
D32*
X41351545Y-106162607D03*
X41705099Y-105809054D03*
X42058652Y-105455501D03*
X42412206Y-105101947D03*
X42765759Y-104748394D03*
X43119312Y-104394840D03*
X43472866Y-104041287D03*
X43826419Y-103687734D03*
X44179973Y-103334180D03*
X44533526Y-102980627D03*
X44887079Y-102627073D03*
D31*
X46212905Y-102627073D03*
X46566458Y-102980627D03*
X46920011Y-103334180D03*
X47273565Y-103687734D03*
X47627118Y-104041287D03*
X47980672Y-104394840D03*
X48334225Y-104748394D03*
X48687778Y-105101947D03*
X49041332Y-105455501D03*
X49394885Y-105809054D03*
X49748439Y-106162607D03*
D32*
X49748439Y-107488433D03*
X49394885Y-107841986D03*
X49041332Y-108195539D03*
X48687778Y-108549093D03*
X48334225Y-108902646D03*
X47980672Y-109256200D03*
X47627118Y-109609753D03*
X47273565Y-109963306D03*
X46920011Y-110316860D03*
X46566458Y-110670413D03*
X46212905Y-111023967D03*
D33*
X45549992Y-106825520D03*
D34*
X41950000Y-30975520D03*
X39950000Y-30975520D03*
X51250000Y-24775520D03*
X49250000Y-24775520D03*
D35*
X40938478Y-100317868D03*
X38887868Y-102368478D03*
X37261522Y-100742132D03*
X39312132Y-98691522D03*
D27*
X138650000Y-27400000D03*
X140650000Y-27400000D03*
D26*
X305649984Y-55400000D03*
D36*
X32166377Y-105166377D03*
X33633623Y-106633623D03*
D26*
X305649984Y-72950000D03*
D37*
X27650000Y-24600520D03*
X27650000Y-26600520D03*
D38*
X37800000Y-28190000D03*
X38650000Y-28190000D03*
X39500000Y-28190000D03*
X40350000Y-28190000D03*
X41200000Y-28190000D03*
X42050000Y-28190000D03*
X42900000Y-28190000D03*
X43750000Y-28190000D03*
X43750000Y-26840000D03*
X42900000Y-26840000D03*
X42050000Y-26840000D03*
X41200000Y-26840000D03*
X40350000Y-26840000D03*
X39500000Y-26840000D03*
X38650000Y-26840000D03*
X37800000Y-26840000D03*
D39*
X45100000Y-27210000D03*
D40*
X36450000Y-23830000D03*
X45100000Y-23830000D03*
D39*
X36450000Y-27210000D03*
D41*
X28550000Y-97300000D03*
X25250000Y-97300000D03*
D42*
X37693666Y-44525520D03*
X37693666Y-41225520D03*
D41*
X42850000Y-78600000D03*
X39550000Y-78600000D03*
D42*
X64100000Y-100150000D03*
X64100000Y-96850000D03*
X55593666Y-43725520D03*
X55593666Y-40425520D03*
X46293666Y-60725520D03*
X46293666Y-57425520D03*
X66600000Y-99350000D03*
X66600000Y-96050000D03*
X85773432Y-111700000D03*
X85773432Y-108400000D03*
X73400000Y-44525520D03*
X73400000Y-41225520D03*
X64493666Y-61525520D03*
X64493666Y-58225520D03*
X64400000Y-78500000D03*
X64400000Y-75200000D03*
X73400000Y-95500000D03*
X73400000Y-92200000D03*
X83273432Y-112500000D03*
X83273432Y-109200000D03*
X82400000Y-60725000D03*
X82400000Y-57425000D03*
X82400000Y-79350000D03*
X82400000Y-76050000D03*
X91200000Y-94700000D03*
X91200000Y-91400000D03*
X109093666Y-44525520D03*
X109093666Y-41225520D03*
X100200000Y-61525000D03*
X100200000Y-58225000D03*
X100150000Y-78500000D03*
X100150000Y-75200000D03*
X109050000Y-95500000D03*
X109050000Y-92200000D03*
X127873432Y-112525520D03*
X127873432Y-109225520D03*
X126893666Y-43725520D03*
X126893666Y-40425520D03*
X118025000Y-60725000D03*
X118025000Y-57425000D03*
X118100000Y-79350000D03*
X118100000Y-76050000D03*
X135925000Y-61525000D03*
X135925000Y-58225000D03*
X135950000Y-78500000D03*
X135950000Y-75200000D03*
X130373432Y-111625520D03*
X130373432Y-108325520D03*
X180500000Y-43425520D03*
X180500000Y-40125520D03*
X171600000Y-61525000D03*
X171600000Y-58225000D03*
D43*
X171573432Y-71625520D03*
X171573432Y-74925520D03*
D42*
X180550000Y-95500000D03*
X180550000Y-92200000D03*
X175023432Y-112525520D03*
X175023432Y-109225520D03*
X198349984Y-43325520D03*
X198349984Y-40025520D03*
X189425000Y-60725000D03*
X189425000Y-57425000D03*
X189500000Y-79350000D03*
X189500000Y-76050000D03*
X198400000Y-94700000D03*
X198400000Y-91400000D03*
X220473432Y-112625520D03*
X220473432Y-109325520D03*
X216243666Y-44475520D03*
X216243666Y-41175520D03*
X207275000Y-61525000D03*
X207275000Y-58225000D03*
X207300000Y-78500000D03*
X207300000Y-75200000D03*
X216250000Y-95500000D03*
X216250000Y-92200000D03*
X239573432Y-112500000D03*
X239573432Y-109200000D03*
X234093666Y-43725520D03*
X234093666Y-40425520D03*
X225150000Y-60725000D03*
X225150000Y-57425000D03*
X225200000Y-79350000D03*
X225200000Y-76050000D03*
X234100000Y-94700000D03*
X234100000Y-91400000D03*
X242173432Y-111700000D03*
X242173432Y-108400000D03*
X251993666Y-44495520D03*
X251993666Y-41195520D03*
X243075000Y-61525000D03*
X243075000Y-58225000D03*
X243100000Y-78500000D03*
X243100000Y-75200000D03*
X251900000Y-95500000D03*
X251900000Y-92200000D03*
X269793666Y-43725520D03*
X269793666Y-40425520D03*
X260850000Y-60725000D03*
X260850000Y-57425000D03*
X260900000Y-79350000D03*
X260900000Y-76050000D03*
X269850000Y-94700000D03*
X269850000Y-91400000D03*
X287593666Y-44525520D03*
X287593666Y-41225520D03*
X282925000Y-61525000D03*
X282925000Y-58225000D03*
X282700000Y-78500000D03*
X282700000Y-75200000D03*
X287650000Y-95500000D03*
X287650000Y-92200000D03*
D44*
X33879672Y-31925520D03*
X33879672Y-30425520D03*
X28479672Y-30425520D03*
X28479672Y-31925520D03*
X51734333Y-31925520D03*
X51734333Y-30425520D03*
X46334333Y-30425520D03*
X46334333Y-31925520D03*
X69593666Y-31925520D03*
X69593666Y-30425520D03*
X64193666Y-30425520D03*
X64193666Y-31925520D03*
X87452999Y-31925520D03*
X87452999Y-30425520D03*
X82052999Y-30425520D03*
X82052999Y-31925520D03*
X105312332Y-31925520D03*
X105312332Y-30425520D03*
X99912332Y-30425520D03*
X99912332Y-31925520D03*
X123171665Y-31925520D03*
X123171665Y-30425520D03*
X117771665Y-30425520D03*
X117771665Y-31925520D03*
X141030998Y-31925520D03*
X141030998Y-30425520D03*
X135630998Y-30425520D03*
X135630998Y-31925520D03*
X176749930Y-31925520D03*
X176749930Y-30425520D03*
X171349930Y-30425520D03*
X171349930Y-31925520D03*
X194609306Y-31925520D03*
X194609306Y-30425520D03*
X189209306Y-30425520D03*
X189209306Y-31925520D03*
X212468682Y-31925520D03*
X212468682Y-30425520D03*
X207068682Y-30425520D03*
X207068682Y-31925520D03*
X230328058Y-31925520D03*
X230328058Y-30425520D03*
X224928058Y-30425520D03*
X224928058Y-31925520D03*
X248192185Y-31925520D03*
X248192185Y-30425520D03*
X242792185Y-30425520D03*
X242792185Y-31925520D03*
X266046810Y-31925520D03*
X266046810Y-30425520D03*
X260646810Y-30425520D03*
X260646810Y-31925520D03*
D45*
X180149984Y-24675520D03*
D46*
X182689984Y-24675520D03*
X185229984Y-24675520D03*
X187769984Y-24675520D03*
D26*
X305649984Y-44400000D03*
D44*
X158890554Y-31925520D03*
X158890554Y-30425520D03*
X153490554Y-30425520D03*
X153490554Y-31925520D03*
D26*
X263660866Y-96775520D03*
D46*
X153419984Y-27585520D03*
X155959984Y-27585520D03*
D45*
X158499984Y-27585520D03*
D46*
X161039984Y-27585520D03*
X163579984Y-27585520D03*
X166119984Y-27585520D03*
X168659984Y-27585520D03*
D45*
X171199984Y-27585520D03*
D46*
X173739984Y-27585520D03*
X176279984Y-27585520D03*
X178819984Y-27585520D03*
X181359984Y-27585520D03*
D45*
X183899984Y-27585520D03*
D46*
X186439984Y-27585520D03*
X188979984Y-27585520D03*
X191519984Y-27585520D03*
X194059984Y-27585520D03*
D45*
X196599984Y-27585520D03*
D46*
X199139984Y-27585520D03*
X201679984Y-27585520D03*
X201679984Y-45365520D03*
X199139984Y-45365520D03*
D45*
X196599984Y-45365520D03*
D46*
X194059984Y-45365520D03*
X191519984Y-45365520D03*
X188979984Y-45365520D03*
X186439984Y-45365520D03*
D45*
X183899984Y-45365520D03*
D46*
X181359984Y-45365520D03*
X178819984Y-45365520D03*
X176279984Y-45365520D03*
X173739984Y-45365520D03*
D45*
X171199984Y-45365520D03*
D46*
X168659984Y-45365520D03*
X166119984Y-45365520D03*
X163579984Y-45365520D03*
X161039984Y-45365520D03*
D45*
X158499984Y-45365520D03*
D46*
X155959984Y-45365520D03*
X153419984Y-45365520D03*
D47*
X30895000Y-24675520D03*
D48*
X32615000Y-24675520D03*
X32615000Y-26875520D03*
X30715000Y-26875520D03*
D27*
X39050000Y-33575520D03*
X41050000Y-33575520D03*
D49*
X150400000Y-27585520D03*
D46*
X150400000Y-25045520D03*
D50*
X143950000Y-25250000D03*
D51*
X145250000Y-25250000D03*
D50*
X143950000Y-27900000D03*
D51*
X145250000Y-27900000D03*
D52*
X129650000Y-28300520D03*
D53*
X128350000Y-28300520D03*
D54*
X127050000Y-28300520D03*
D45*
X125800000Y-24700520D03*
D46*
X128340000Y-24700520D03*
D55*
X56007107Y-104592893D03*
X54592893Y-106007107D03*
D56*
X34992893Y-107992893D03*
X36407107Y-109407107D03*
D57*
X51816377Y-108783623D03*
X53283623Y-107316377D03*
D36*
X38766377Y-112266377D03*
X40233623Y-113733623D03*
D58*
X269576306Y-47425520D03*
X269576306Y-48925520D03*
X274976306Y-48925520D03*
X274976306Y-47425520D03*
X251716946Y-47425520D03*
X251716946Y-48925520D03*
X257116946Y-48925520D03*
X257116946Y-47425520D03*
X233857586Y-47425520D03*
X233857586Y-48925520D03*
X239257586Y-48925520D03*
X239257586Y-47425520D03*
X215998226Y-47425520D03*
X215998226Y-48925520D03*
X221398226Y-48925520D03*
X221398226Y-47425520D03*
X180279506Y-47425520D03*
X180279506Y-48925520D03*
X185679506Y-48925520D03*
X185679506Y-47425520D03*
X162420242Y-47425520D03*
X162420242Y-48925520D03*
X167820242Y-48925520D03*
X167820242Y-47425520D03*
X126701490Y-47425520D03*
X126701490Y-48925520D03*
X132101490Y-48925520D03*
X132101490Y-47425520D03*
X108842114Y-47425520D03*
X108842114Y-48925520D03*
X114242114Y-48925520D03*
X114242114Y-47425520D03*
X90982738Y-47425520D03*
X90982738Y-48925520D03*
X96382738Y-48925520D03*
X96382738Y-47425520D03*
X73123362Y-47425520D03*
X73123362Y-48925520D03*
X78523362Y-48925520D03*
X78523362Y-47425520D03*
X55263986Y-47425520D03*
X55263986Y-48925520D03*
X60663986Y-48925520D03*
X60663986Y-47425520D03*
D44*
X38339786Y-65925520D03*
X38339786Y-64425520D03*
X32939786Y-64425520D03*
X32939786Y-65925520D03*
X60663986Y-65925520D03*
X60663986Y-64425520D03*
X55263986Y-64425520D03*
X55263986Y-65925520D03*
X78523346Y-65925520D03*
X78523346Y-64425520D03*
X73123346Y-64425520D03*
X73123346Y-65925520D03*
X96382706Y-65925520D03*
X96382706Y-64425520D03*
X90982706Y-64425520D03*
X90982706Y-65925520D03*
X114242066Y-65925520D03*
X114242066Y-64425520D03*
X108842066Y-64425520D03*
X108842066Y-65925520D03*
X149960866Y-65925520D03*
X149960866Y-64425520D03*
X144560866Y-64425520D03*
X144560866Y-65925520D03*
X167820242Y-65925520D03*
X167820242Y-64425520D03*
X162420242Y-64425520D03*
X162420242Y-65925520D03*
X185679506Y-65925520D03*
X185679506Y-64425520D03*
X180279506Y-64425520D03*
X180279506Y-65925520D03*
X203538866Y-65925520D03*
X203538866Y-64425520D03*
X198138866Y-64425520D03*
X198138866Y-65925520D03*
X239262497Y-65925520D03*
X239262497Y-64425520D03*
X233862497Y-64425520D03*
X233862497Y-65925520D03*
X257121873Y-65925520D03*
X257121873Y-64425520D03*
X251721873Y-64425520D03*
X251721873Y-65925520D03*
X274981249Y-65925520D03*
X274981249Y-64425520D03*
X269581249Y-64425520D03*
X269581249Y-65925520D03*
D58*
X296365346Y-81425520D03*
X296365346Y-82925520D03*
X301765346Y-82925520D03*
X301765346Y-81425520D03*
X278505986Y-81425520D03*
X278505986Y-82925520D03*
X283905986Y-82925520D03*
X283905986Y-81425520D03*
X260646626Y-81425520D03*
X260646626Y-82925520D03*
X266046626Y-82925520D03*
X266046626Y-81425520D03*
X242787266Y-81425520D03*
X242787266Y-82925520D03*
X248187266Y-82925520D03*
X248187266Y-81425520D03*
X224927906Y-81425520D03*
X224927906Y-82925520D03*
X230327906Y-82925520D03*
X230327906Y-81425520D03*
X189209186Y-81425520D03*
X189209186Y-82925520D03*
X194609186Y-82925520D03*
X194609186Y-81425520D03*
X171354680Y-81425520D03*
X171354680Y-82925520D03*
X176754680Y-82925520D03*
X176754680Y-81425520D03*
X153490554Y-81425520D03*
X153490554Y-82925520D03*
X158890554Y-82925520D03*
X158890554Y-81425520D03*
X135631178Y-81425520D03*
X135631178Y-82925520D03*
X141031178Y-82925520D03*
X141031178Y-81425520D03*
X117771802Y-81425520D03*
X117771802Y-82925520D03*
X123171802Y-82925520D03*
X123171802Y-81425520D03*
X99912426Y-81425520D03*
X99912426Y-82925520D03*
X105312426Y-82925520D03*
X105312426Y-81425520D03*
X82053050Y-81425520D03*
X82053050Y-82925520D03*
X87453050Y-82925520D03*
X87453050Y-81425520D03*
X64193674Y-81425520D03*
X64193674Y-82925520D03*
X69593674Y-82925520D03*
X69593674Y-81425520D03*
D44*
X100852332Y-99925520D03*
X100852332Y-98425520D03*
X95452332Y-98425520D03*
X95452332Y-99925520D03*
X123176552Y-109325520D03*
X123176552Y-107825520D03*
X117776552Y-107825520D03*
X117776552Y-109325520D03*
X145500772Y-99925520D03*
X145500772Y-98425520D03*
X140100772Y-98425520D03*
X140100772Y-99925520D03*
X167820242Y-99925520D03*
X167820242Y-98425520D03*
X162420242Y-98425520D03*
X162420242Y-99925520D03*
D59*
X208861347Y-111388789D03*
X210160385Y-110638789D03*
X207460385Y-105962251D03*
X206161347Y-106712251D03*
D44*
X234792902Y-99925520D03*
X234792902Y-98425520D03*
X229392902Y-98425520D03*
X229392902Y-99925520D03*
X190144462Y-99925520D03*
X190144462Y-98425520D03*
X184744462Y-98425520D03*
X184744462Y-99925520D03*
D58*
X291900506Y-47425520D03*
X291900506Y-48925520D03*
X297300506Y-48925520D03*
X297300506Y-47425520D03*
X144560866Y-47425520D03*
X144560866Y-48925520D03*
X149960866Y-48925520D03*
X149960866Y-47425520D03*
D44*
X78528112Y-99925520D03*
X78528112Y-98425520D03*
X73128112Y-98425520D03*
X73128112Y-99925520D03*
D58*
X207068546Y-81425520D03*
X207068546Y-82925520D03*
X212468546Y-82925520D03*
X212468546Y-81425520D03*
D41*
X27693666Y-43725520D03*
X24393666Y-43725520D03*
D42*
X91193666Y-43725520D03*
X91193666Y-40425520D03*
X43493666Y-61525520D03*
X43493666Y-58225520D03*
X49700000Y-79350000D03*
X49700000Y-76050000D03*
D26*
X195023432Y-109825520D03*
D29*
X48617246Y-114450000D03*
X47150000Y-112982754D03*
D42*
X126950000Y-94700000D03*
X126950000Y-91400000D03*
D36*
X48016377Y-99116377D03*
X49483623Y-100583623D03*
D60*
X59325000Y-96145000D03*
X59325000Y-97415000D03*
X59325000Y-98685000D03*
X59325000Y-99955000D03*
X54175000Y-99955000D03*
X54175000Y-98685000D03*
X54175000Y-97415000D03*
X54175000Y-96145000D03*
D58*
X198138866Y-47425520D03*
X198138866Y-48925520D03*
X203538866Y-48925520D03*
X203538866Y-47425520D03*
D44*
X132101426Y-65925520D03*
X132101426Y-64425520D03*
X126701426Y-64425520D03*
X126701426Y-65925520D03*
X221403121Y-65925520D03*
X221403121Y-64425520D03*
X216003121Y-64425520D03*
X216003121Y-65925520D03*
D26*
X252100000Y-113100000D03*
X218060866Y-110075520D03*
D45*
X59100000Y-110900000D03*
D46*
X59100000Y-113440000D03*
X61640000Y-110900000D03*
X61640000Y-113440000D03*
X64180000Y-110900000D03*
X64180000Y-113440000D03*
D36*
X34956377Y-103146377D03*
X36423623Y-104613623D03*
D41*
X265723432Y-99275520D03*
X262423432Y-99275520D03*
D61*
X264510866Y-114775520D03*
X264510866Y-106075520D03*
D27*
X263473432Y-102375520D03*
X265473432Y-102375520D03*
D42*
X153873432Y-79425520D03*
X153873432Y-76125520D03*
X153773432Y-60725520D03*
X153773432Y-57425520D03*
D62*
X156163986Y-99925520D03*
D63*
X156163986Y-98625520D03*
D62*
X156163986Y-65925520D03*
D63*
X156163986Y-64625520D03*
D44*
X283910937Y-31925520D03*
X283910937Y-30425520D03*
X278510937Y-30425520D03*
X278510937Y-31925520D03*
X257117122Y-99925520D03*
X257117122Y-98425520D03*
X251717122Y-98425520D03*
X251717122Y-99925520D03*
D58*
X28474922Y-81425520D03*
X28474922Y-82925520D03*
X33874922Y-82925520D03*
X33874922Y-81425520D03*
D42*
X144773432Y-44525520D03*
X144773432Y-41225520D03*
D58*
X46334298Y-81425520D03*
X46334298Y-82925520D03*
X51734298Y-82925520D03*
X51734298Y-81425520D03*
D42*
X162673432Y-94700520D03*
X162673432Y-91400520D03*
D62*
X147735866Y-82725520D03*
D63*
X147735866Y-81425520D03*
D42*
X152073432Y-111675520D03*
X152073432Y-108375520D03*
D44*
X297305469Y-65925520D03*
X297305469Y-64425520D03*
X291905469Y-64425520D03*
X291905469Y-65925520D03*
D42*
X144873432Y-95525520D03*
X144873432Y-92225520D03*
X162673432Y-42525520D03*
X162673432Y-39225520D03*
D62*
X147660866Y-31925520D03*
D63*
X147660866Y-30625520D03*
D58*
X32939766Y-47425520D03*
X32939766Y-48925520D03*
X38339766Y-48925520D03*
X38339766Y-47425520D03*
D62*
X138360866Y-65925520D03*
D63*
X138360866Y-64625520D03*
D64*
X156660866Y-47625520D03*
D65*
X156660866Y-48925520D03*
D44*
X301765562Y-31925520D03*
X301765562Y-30425520D03*
X296365562Y-30425520D03*
X296365562Y-31925520D03*
M02*
