%TF.GenerationSoftware,KiCad,Pcbnew,(6.0.1-0)*%
%TF.CreationDate,2022-02-14T06:45:37+09:00*%
%TF.ProjectId,nora,6e6f7261-2e6b-4696-9361-645f70636258,DN:0032*%
%TF.SameCoordinates,Original*%
%TF.FileFunction,Profile,NP*%
%FSLAX46Y46*%
G04 Gerber Fmt 4.6, Leading zero omitted, Abs format (unit mm)*
G04 Created by KiCad (PCBNEW (6.0.1-0)) date 2022-02-14 06:45:37*
%MOMM*%
%LPD*%
G01*
G04 APERTURE LIST*
%TA.AperFunction,Profile*%
%ADD10C,0.120000*%
%TD*%
%TA.AperFunction,Profile*%
%ADD11C,0.300000*%
%TD*%
G04 APERTURE END LIST*
D10*
X181029506Y-66675520D02*
X181029506Y-63675520D01*
X181029506Y-63675520D02*
X184929506Y-63675520D01*
X184929506Y-66675520D02*
X181029506Y-66675520D01*
X184929506Y-63675520D02*
X184929506Y-66675520D01*
X145310866Y-66675520D02*
X145310866Y-63675520D01*
X145310866Y-63675520D02*
X149210866Y-63675520D01*
X149210866Y-66675520D02*
X145310866Y-66675520D01*
X149210866Y-63675520D02*
X149210866Y-66675520D01*
D11*
X303800000Y-80450000D02*
X307200000Y-80450000D01*
X307600000Y-77250000D02*
X307600000Y-24550000D01*
X23000000Y-80450000D02*
X26400000Y-80450000D01*
X35300000Y-22050000D02*
X46300000Y-22050000D01*
X303800000Y-77650000D02*
X307200000Y-77650000D01*
X305600000Y-117150000D02*
X24600000Y-117150000D01*
X26400000Y-77650000D02*
X23000000Y-77650000D01*
X22600000Y-77250000D02*
X22600000Y-24550000D01*
X307600000Y-80850000D02*
X307600000Y-115150000D01*
X305600000Y-22550000D02*
X46800000Y-22550000D01*
X24600000Y-22550000D02*
X34800000Y-22550000D01*
X22600000Y-115150000D02*
X22600000Y-80850000D01*
X303800000Y-77650000D02*
G75*
G03*
X302400000Y-79050000I2J-1400002D01*
G01*
X26400000Y-80450000D02*
G75*
G03*
X27800000Y-79050000I-2J1400002D01*
G01*
X307600000Y-24550000D02*
G75*
G03*
X305600000Y-22550000I-1999999J1D01*
G01*
X302400000Y-79050000D02*
G75*
G03*
X303800000Y-80450000I1400002J2D01*
G01*
X46300000Y-22050000D02*
G75*
G03*
X46800000Y-22550000I500001J1D01*
G01*
X22600000Y-115150000D02*
G75*
G03*
X24600000Y-117150000I1999999J-1D01*
G01*
X307200000Y-77650000D02*
G75*
G03*
X307600000Y-77250000I1J399999D01*
G01*
X22600000Y-77250000D02*
G75*
G03*
X23000000Y-77650000I399999J-1D01*
G01*
X27800000Y-79050000D02*
G75*
G03*
X26400000Y-77650000I-1400002J-2D01*
G01*
X34800000Y-22550000D02*
G75*
G03*
X35300000Y-22050000I-1J500001D01*
G01*
X305600000Y-117150000D02*
G75*
G03*
X307600000Y-115150000I1J1999999D01*
G01*
X307600000Y-80850000D02*
G75*
G03*
X307200000Y-80450000I-399999J1D01*
G01*
X24600000Y-22550000D02*
G75*
G03*
X22600000Y-24550000I-1J-1999999D01*
G01*
X23000000Y-80450000D02*
G75*
G03*
X22600000Y-80850000I-1J-399999D01*
G01*
D10*
X29229672Y-29675520D02*
X33129672Y-29675520D01*
X29229672Y-32675520D02*
X29229672Y-29675520D01*
X33129672Y-32675520D02*
X29229672Y-32675520D01*
X33129672Y-29675520D02*
X33129672Y-32675520D01*
X50984333Y-32675520D02*
X47084333Y-32675520D01*
X47084333Y-32675520D02*
X47084333Y-29675520D01*
X50984333Y-29675520D02*
X50984333Y-32675520D01*
X47084333Y-29675520D02*
X50984333Y-29675520D01*
X64943666Y-32675520D02*
X64943666Y-29675520D01*
X64943666Y-29675520D02*
X68843666Y-29675520D01*
X68843666Y-29675520D02*
X68843666Y-32675520D01*
X68843666Y-32675520D02*
X64943666Y-32675520D01*
X82802999Y-32675520D02*
X82802999Y-29675520D01*
X86702999Y-32675520D02*
X82802999Y-32675520D01*
X82802999Y-29675520D02*
X86702999Y-29675520D01*
X86702999Y-29675520D02*
X86702999Y-32675520D01*
X100662332Y-29675520D02*
X104562332Y-29675520D01*
X104562332Y-29675520D02*
X104562332Y-32675520D01*
X100662332Y-32675520D02*
X100662332Y-29675520D01*
X104562332Y-32675520D02*
X100662332Y-32675520D01*
X122421665Y-32675520D02*
X118521665Y-32675520D01*
X122421665Y-29675520D02*
X122421665Y-32675520D01*
X118521665Y-29675520D02*
X122421665Y-29675520D01*
X118521665Y-32675520D02*
X118521665Y-29675520D01*
X136380998Y-29675520D02*
X140280998Y-29675520D01*
X136380998Y-32675520D02*
X136380998Y-29675520D01*
X140280998Y-29675520D02*
X140280998Y-32675520D01*
X140280998Y-32675520D02*
X136380998Y-32675520D01*
X172099930Y-29675520D02*
X175999930Y-29675520D01*
X175999930Y-29675520D02*
X175999930Y-32675520D01*
X175999930Y-32675520D02*
X172099930Y-32675520D01*
X172099930Y-32675520D02*
X172099930Y-29675520D01*
X189959306Y-32675520D02*
X189959306Y-29675520D01*
X193859306Y-29675520D02*
X193859306Y-32675520D01*
X193859306Y-32675520D02*
X189959306Y-32675520D01*
X189959306Y-29675520D02*
X193859306Y-29675520D01*
X211718682Y-29675520D02*
X211718682Y-32675520D01*
X207818682Y-32675520D02*
X207818682Y-29675520D01*
X207818682Y-29675520D02*
X211718682Y-29675520D01*
X211718682Y-32675520D02*
X207818682Y-32675520D01*
X225678058Y-32675520D02*
X225678058Y-29675520D01*
X229578058Y-29675520D02*
X229578058Y-32675520D01*
X225678058Y-29675520D02*
X229578058Y-29675520D01*
X229578058Y-32675520D02*
X225678058Y-32675520D01*
X243542185Y-29675520D02*
X247442185Y-29675520D01*
X247442185Y-32675520D02*
X243542185Y-32675520D01*
X247442185Y-29675520D02*
X247442185Y-32675520D01*
X243542185Y-32675520D02*
X243542185Y-29675520D01*
X265296810Y-32675520D02*
X261396810Y-32675520D01*
X265296810Y-29675520D02*
X265296810Y-32675520D01*
X261396810Y-29675520D02*
X265296810Y-29675520D01*
X261396810Y-32675520D02*
X261396810Y-29675520D01*
X158140554Y-32675520D02*
X154240554Y-32675520D01*
X158140554Y-29675520D02*
X158140554Y-32675520D01*
X154240554Y-29675520D02*
X158140554Y-29675520D01*
X154240554Y-32675520D02*
X154240554Y-29675520D01*
X274226306Y-49675520D02*
X270326306Y-49675520D01*
X270326306Y-46675520D02*
X274226306Y-46675520D01*
X274226306Y-46675520D02*
X274226306Y-49675520D01*
X270326306Y-49675520D02*
X270326306Y-46675520D01*
X256366946Y-49675520D02*
X252466946Y-49675520D01*
X252466946Y-49675520D02*
X252466946Y-46675520D01*
X256366946Y-46675520D02*
X256366946Y-49675520D01*
X252466946Y-46675520D02*
X256366946Y-46675520D01*
X234607586Y-49675520D02*
X234607586Y-46675520D01*
X238507586Y-49675520D02*
X234607586Y-49675520D01*
X238507586Y-46675520D02*
X238507586Y-49675520D01*
X234607586Y-46675520D02*
X238507586Y-46675520D01*
X216748226Y-49675520D02*
X216748226Y-46675520D01*
X220648226Y-46675520D02*
X220648226Y-49675520D01*
X220648226Y-49675520D02*
X216748226Y-49675520D01*
X216748226Y-46675520D02*
X220648226Y-46675520D01*
X181029506Y-49675520D02*
X181029506Y-46675520D01*
X184929506Y-49675520D02*
X181029506Y-49675520D01*
X184929506Y-46675520D02*
X184929506Y-49675520D01*
X181029506Y-46675520D02*
X184929506Y-46675520D01*
X163170242Y-46675520D02*
X167070242Y-46675520D01*
X163170242Y-49675520D02*
X163170242Y-46675520D01*
X167070242Y-49675520D02*
X163170242Y-49675520D01*
X167070242Y-46675520D02*
X167070242Y-49675520D01*
X131351490Y-46675520D02*
X131351490Y-49675520D01*
X127451490Y-49675520D02*
X127451490Y-46675520D01*
X127451490Y-46675520D02*
X131351490Y-46675520D01*
X131351490Y-49675520D02*
X127451490Y-49675520D01*
X113492114Y-46675520D02*
X113492114Y-49675520D01*
X109592114Y-49675520D02*
X109592114Y-46675520D01*
X113492114Y-49675520D02*
X109592114Y-49675520D01*
X109592114Y-46675520D02*
X113492114Y-46675520D01*
X91732738Y-46675520D02*
X95632738Y-46675520D01*
X95632738Y-46675520D02*
X95632738Y-49675520D01*
X91732738Y-49675520D02*
X91732738Y-46675520D01*
X95632738Y-49675520D02*
X91732738Y-49675520D01*
X73873362Y-46675520D02*
X77773362Y-46675520D01*
X77773362Y-49675520D02*
X73873362Y-49675520D01*
X77773362Y-46675520D02*
X77773362Y-49675520D01*
X73873362Y-49675520D02*
X73873362Y-46675520D01*
X56013986Y-46675520D02*
X59913986Y-46675520D01*
X56013986Y-49675520D02*
X56013986Y-46675520D01*
X59913986Y-46675520D02*
X59913986Y-49675520D01*
X59913986Y-49675520D02*
X56013986Y-49675520D01*
X33689786Y-63675520D02*
X37589786Y-63675520D01*
X37589786Y-66675520D02*
X33689786Y-66675520D01*
X37589786Y-63675520D02*
X37589786Y-66675520D01*
X33689786Y-66675520D02*
X33689786Y-63675520D01*
X56013986Y-66675520D02*
X56013986Y-63675520D01*
X56013986Y-63675520D02*
X59913986Y-63675520D01*
X59913986Y-66675520D02*
X56013986Y-66675520D01*
X59913986Y-63675520D02*
X59913986Y-66675520D01*
X77773346Y-66675520D02*
X73873346Y-66675520D01*
X77773346Y-63675520D02*
X77773346Y-66675520D01*
X73873346Y-66675520D02*
X73873346Y-63675520D01*
X73873346Y-63675520D02*
X77773346Y-63675520D01*
X91732706Y-66675520D02*
X91732706Y-63675520D01*
X91732706Y-63675520D02*
X95632706Y-63675520D01*
X95632706Y-66675520D02*
X91732706Y-66675520D01*
X95632706Y-63675520D02*
X95632706Y-66675520D01*
X113492066Y-66675520D02*
X109592066Y-66675520D01*
X113492066Y-63675520D02*
X113492066Y-66675520D01*
X109592066Y-63675520D02*
X113492066Y-63675520D01*
X109592066Y-66675520D02*
X109592066Y-63675520D01*
X163170242Y-63675520D02*
X167070242Y-63675520D01*
X163170242Y-66675520D02*
X163170242Y-63675520D01*
X167070242Y-63675520D02*
X167070242Y-66675520D01*
X167070242Y-66675520D02*
X163170242Y-66675520D01*
X202788866Y-66675520D02*
X198888866Y-66675520D01*
X202788866Y-63675520D02*
X202788866Y-66675520D01*
X198888866Y-63675520D02*
X202788866Y-63675520D01*
X198888866Y-66675520D02*
X198888866Y-63675520D01*
X234612497Y-66675520D02*
X234612497Y-63675520D01*
X238512497Y-66675520D02*
X234612497Y-66675520D01*
X238512497Y-63675520D02*
X238512497Y-66675520D01*
X234612497Y-63675520D02*
X238512497Y-63675520D01*
X252471873Y-63675520D02*
X256371873Y-63675520D01*
X256371873Y-63675520D02*
X256371873Y-66675520D01*
X252471873Y-66675520D02*
X252471873Y-63675520D01*
X256371873Y-66675520D02*
X252471873Y-66675520D01*
X274231249Y-66675520D02*
X270331249Y-66675520D01*
X270331249Y-66675520D02*
X270331249Y-63675520D01*
X270331249Y-63675520D02*
X274231249Y-63675520D01*
X274231249Y-63675520D02*
X274231249Y-66675520D01*
X297115346Y-83675520D02*
X297115346Y-80675520D01*
X297115346Y-80675520D02*
X301015346Y-80675520D01*
X301015346Y-80675520D02*
X301015346Y-83675520D01*
X301015346Y-83675520D02*
X297115346Y-83675520D01*
X283155986Y-80675520D02*
X283155986Y-83675520D01*
X283155986Y-83675520D02*
X279255986Y-83675520D01*
X279255986Y-83675520D02*
X279255986Y-80675520D01*
X279255986Y-80675520D02*
X283155986Y-80675520D01*
X265296626Y-83675520D02*
X261396626Y-83675520D01*
X261396626Y-83675520D02*
X261396626Y-80675520D01*
X261396626Y-80675520D02*
X265296626Y-80675520D01*
X265296626Y-80675520D02*
X265296626Y-83675520D01*
X247437266Y-83675520D02*
X243537266Y-83675520D01*
X247437266Y-80675520D02*
X247437266Y-83675520D01*
X243537266Y-83675520D02*
X243537266Y-80675520D01*
X243537266Y-80675520D02*
X247437266Y-80675520D01*
X225677906Y-83675520D02*
X225677906Y-80675520D01*
X225677906Y-80675520D02*
X229577906Y-80675520D01*
X229577906Y-80675520D02*
X229577906Y-83675520D01*
X229577906Y-83675520D02*
X225677906Y-83675520D01*
X189959186Y-80675520D02*
X193859186Y-80675520D01*
X193859186Y-83675520D02*
X189959186Y-83675520D01*
X193859186Y-80675520D02*
X193859186Y-83675520D01*
X189959186Y-83675520D02*
X189959186Y-80675520D01*
X176004680Y-80675520D02*
X176004680Y-83675520D01*
X172104680Y-83675520D02*
X172104680Y-80675520D01*
X172104680Y-80675520D02*
X176004680Y-80675520D01*
X176004680Y-83675520D02*
X172104680Y-83675520D01*
X154240554Y-83675520D02*
X154240554Y-80675520D01*
X154240554Y-80675520D02*
X158140554Y-80675520D01*
X158140554Y-80675520D02*
X158140554Y-83675520D01*
X158140554Y-83675520D02*
X154240554Y-83675520D01*
X140281178Y-83675520D02*
X136381178Y-83675520D01*
X140281178Y-80675520D02*
X140281178Y-83675520D01*
X136381178Y-80675520D02*
X140281178Y-80675520D01*
X136381178Y-83675520D02*
X136381178Y-80675520D01*
X122421802Y-83675520D02*
X118521802Y-83675520D01*
X118521802Y-83675520D02*
X118521802Y-80675520D01*
X122421802Y-80675520D02*
X122421802Y-83675520D01*
X118521802Y-80675520D02*
X122421802Y-80675520D01*
X104562426Y-83675520D02*
X100662426Y-83675520D01*
X104562426Y-80675520D02*
X104562426Y-83675520D01*
X100662426Y-83675520D02*
X100662426Y-80675520D01*
X100662426Y-80675520D02*
X104562426Y-80675520D01*
X86703050Y-80675520D02*
X86703050Y-83675520D01*
X86703050Y-83675520D02*
X82803050Y-83675520D01*
X82803050Y-80675520D02*
X86703050Y-80675520D01*
X82803050Y-83675520D02*
X82803050Y-80675520D01*
X64943674Y-83675520D02*
X64943674Y-80675520D01*
X68843674Y-83675520D02*
X64943674Y-83675520D01*
X64943674Y-80675520D02*
X68843674Y-80675520D01*
X68843674Y-80675520D02*
X68843674Y-83675520D01*
X96202332Y-97675520D02*
X100102332Y-97675520D01*
X96202332Y-100675520D02*
X96202332Y-97675520D01*
X100102332Y-100675520D02*
X96202332Y-100675520D01*
X100102332Y-97675520D02*
X100102332Y-100675520D01*
X122426552Y-107075520D02*
X122426552Y-110075520D01*
X122426552Y-110075520D02*
X118526552Y-110075520D01*
X118526552Y-110075520D02*
X118526552Y-107075520D01*
X118526552Y-107075520D02*
X122426552Y-107075520D01*
X140850772Y-100675520D02*
X140850772Y-97675520D01*
X144750772Y-97675520D02*
X144750772Y-100675520D01*
X140850772Y-97675520D02*
X144750772Y-97675520D01*
X144750772Y-100675520D02*
X140850772Y-100675520D01*
X167070242Y-100675520D02*
X163170242Y-100675520D01*
X167070242Y-97675520D02*
X167070242Y-100675520D01*
X163170242Y-97675520D02*
X167070242Y-97675520D01*
X163170242Y-100675520D02*
X163170242Y-97675520D01*
X205886828Y-107736770D02*
X208484904Y-106236770D01*
X207836828Y-111114270D02*
X205886828Y-107736770D01*
X208484904Y-106236770D02*
X210434904Y-109614270D01*
X210434904Y-109614270D02*
X207836828Y-111114270D01*
X230142902Y-97675520D02*
X234042902Y-97675520D01*
X230142902Y-100675520D02*
X230142902Y-97675520D01*
X234042902Y-100675520D02*
X230142902Y-100675520D01*
X234042902Y-97675520D02*
X234042902Y-100675520D01*
X185494462Y-100675520D02*
X185494462Y-97675520D01*
X189394462Y-97675520D02*
X189394462Y-100675520D01*
X189394462Y-100675520D02*
X185494462Y-100675520D01*
X185494462Y-97675520D02*
X189394462Y-97675520D01*
X292650506Y-46675520D02*
X296550506Y-46675520D01*
X292650506Y-49675520D02*
X292650506Y-46675520D01*
X296550506Y-46675520D02*
X296550506Y-49675520D01*
X296550506Y-49675520D02*
X292650506Y-49675520D01*
X145310866Y-49675520D02*
X145310866Y-46675520D01*
X149210866Y-49675520D02*
X145310866Y-49675520D01*
X145310866Y-46675520D02*
X149210866Y-46675520D01*
X149210866Y-46675520D02*
X149210866Y-49675520D01*
X73878112Y-100675520D02*
X73878112Y-97675520D01*
X73878112Y-97675520D02*
X77778112Y-97675520D01*
X77778112Y-100675520D02*
X73878112Y-100675520D01*
X77778112Y-97675520D02*
X77778112Y-100675520D01*
X211718546Y-83675520D02*
X207818546Y-83675520D01*
X211718546Y-80675520D02*
X211718546Y-83675520D01*
X207818546Y-83675520D02*
X207818546Y-80675520D01*
X207818546Y-80675520D02*
X211718546Y-80675520D01*
X202788866Y-49675520D02*
X198888866Y-49675520D01*
X198888866Y-49675520D02*
X198888866Y-46675520D01*
X202788866Y-46675520D02*
X202788866Y-49675520D01*
X198888866Y-46675520D02*
X202788866Y-46675520D01*
X127451426Y-66675520D02*
X127451426Y-63675520D01*
X131351426Y-63675520D02*
X131351426Y-66675520D01*
X131351426Y-66675520D02*
X127451426Y-66675520D01*
X127451426Y-63675520D02*
X131351426Y-63675520D01*
X220653121Y-66675520D02*
X216753121Y-66675520D01*
X216753121Y-66675520D02*
X216753121Y-63675520D01*
X216753121Y-63675520D02*
X220653121Y-63675520D01*
X220653121Y-63675520D02*
X220653121Y-66675520D01*
X283160937Y-32675520D02*
X279260937Y-32675520D01*
X279260937Y-32675520D02*
X279260937Y-29675520D01*
X283160937Y-29675520D02*
X283160937Y-32675520D01*
X279260937Y-29675520D02*
X283160937Y-29675520D01*
X252467122Y-97675520D02*
X256367122Y-97675520D01*
X256367122Y-100675520D02*
X252467122Y-100675520D01*
X252467122Y-100675520D02*
X252467122Y-97675520D01*
X256367122Y-97675520D02*
X256367122Y-100675520D01*
X33124922Y-83675520D02*
X29224922Y-83675520D01*
X29224922Y-80675520D02*
X33124922Y-80675520D01*
X29224922Y-83675520D02*
X29224922Y-80675520D01*
X33124922Y-80675520D02*
X33124922Y-83675520D01*
X50984298Y-83675520D02*
X47084298Y-83675520D01*
X47084298Y-80675520D02*
X50984298Y-80675520D01*
X50984298Y-80675520D02*
X50984298Y-83675520D01*
X47084298Y-83675520D02*
X47084298Y-80675520D01*
X296555469Y-66675520D02*
X292655469Y-66675520D01*
X292655469Y-66675520D02*
X292655469Y-63675520D01*
X296555469Y-63675520D02*
X296555469Y-66675520D01*
X292655469Y-63675520D02*
X296555469Y-63675520D01*
X33689766Y-49675520D02*
X33689766Y-46675520D01*
X33689766Y-46675520D02*
X37589766Y-46675520D01*
X37589766Y-49675520D02*
X33689766Y-49675520D01*
X37589766Y-46675520D02*
X37589766Y-49675520D01*
X301015562Y-29675520D02*
X301015562Y-32675520D01*
X297115562Y-29675520D02*
X301015562Y-29675520D01*
X297115562Y-32675520D02*
X297115562Y-29675520D01*
X301015562Y-32675520D02*
X297115562Y-32675520D01*
M02*
