<?xml version="1.0" encoding="UTF-8" standalone="no"?>
<!DOCTYPE svg PUBLIC "-//W3C//DTD SVG 1.1//EN" "http://www.w3.org/Graphics/SVG/1.1/DTD/svg11.dtd">
<svg width="100%" height="100%" viewBox="0 0 310 116" version="1.1" xmlns="http://www.w3.org/2000/svg" xmlns:xlink="http://www.w3.org/1999/xlink" xml:space="preserve" xmlns:serif="http://www.serif.com/" style="fill-rule:evenodd;clip-rule:evenodd;stroke-linecap:round;stroke-linejoin:round;stroke-miterlimit:1.5;">
    <g transform="matrix(1,0,0,1,-57.7411,-1663.66)">
        <g id="アートボード1" transform="matrix(0.376141,0,0,0.503716,57.7411,1115.49)">
            <rect x="0" y="1088.24" width="822.047" height="229.122" style="fill:none;"/>
            <g transform="matrix(1.27736,0,0,1.448,-108.34,-539.827)">
                <g id="Nora" transform="matrix(17.4124,0,0,11.5459,-1356.5,819.99)">
                    <g transform="matrix(0.0551131,0,0,0.0547511,83.0585,-2.10926)">
                        <path d="M514.961,717.707L458.268,717.707L486.853,668.196L543.546,668.196L562.205,635.878L505.512,635.878L562.205,635.878L514.961,717.707L538.583,717.707" style="fill:none;stroke:black;stroke-width:24.58px;"/>
                    </g>
                    <g transform="matrix(0.0551131,0,0,0.0547511,82.5377,19.265)">
                        <path d="M377.953,327.317L420.472,253.67L467.717,253.67L420.472,253.67L425.197,245.488L406.299,245.488" style="fill:none;stroke:black;stroke-width:24.58px;"/>
                    </g>
                    <g transform="matrix(0.0551131,0,0,0.0547511,82.0188,19.265)">
                        <path d="M264.567,327.317L311.811,245.488L377.92,245.488L330.676,327.317L264.567,327.317Z" style="fill:none;stroke:black;stroke-width:24.58px;"/>
                    </g>
                    <g transform="matrix(0.0551131,0,0,0.0547511,72.7772,18.977)">
                        <path d="M262.205,332.521L347.147,185.341L309.384,185.453L347.147,185.341L337.795,201.594L432.251,201.65L356.661,332.577L394.391,332.521" style="fill:none;stroke:black;stroke-width:24.58px;"/>
                    </g>
                </g>
                <g transform="matrix(0.959653,0,0,0.632152,-8.1916,79.45)">
                    <path d="M746.147,1732.23C750.526,1724.64 750.526,1715.3 746.147,1707.71C742.126,1700.75 737.108,1692.06 733.087,1685.09C728.708,1677.51 720.616,1672.84 711.858,1672.84C637.962,1672.84 297.02,1672.84 223.125,1672.84C214.367,1672.84 206.274,1677.51 201.895,1685.09C184.267,1715.62 138.553,1794.8 120.926,1825.34C116.547,1832.92 116.547,1842.27 120.926,1849.85C124.947,1856.81 129.965,1865.51 133.985,1872.47C138.364,1880.05 146.457,1884.73 155.215,1884.73C229.111,1884.73 570.052,1884.73 643.948,1884.73C652.706,1884.73 660.799,1880.05 665.178,1872.47C682.805,1841.94 728.519,1762.76 746.147,1732.23Z" style="fill:none;stroke:black;stroke-width:17.35px;stroke-linejoin:miter;"/>
                </g>
                <g id="_-Nora_kbd" serif:id="#Nora_kbd" transform="matrix(-0.244683,1.97389e-17,-2.99651e-17,-0.16118,1435.53,1273.55)">
                    <g transform="matrix(1,0,0,1,3705.52,401.923)">
                        <path d="M417.097,278.115L369.853,278.115L341.506,327.212L404.749,327.212L388.75,327.212C388.75,327.212 464.341,196.285 464.341,196.285L473.79,196.285" style="fill:none;stroke:black;stroke-width:22.68px;"/>
                    </g>
                    <g transform="matrix(1,0,0,1,3575.12,401.818)">
                        <path d="M407.588,278.219L454.832,278.219L426.485,327.317L379.241,327.317C379.241,327.317 454.832,196.39 454.832,196.39L441.732,196.39" style="fill:none;stroke:black;stroke-width:22.68px;"/>
                    </g>
                    <g transform="matrix(1,0,0,1,2537.04,-244.542)">
                        <path d="M1398.42,924.579L1351.18,924.579L1346.46,932.762L1370.08,973.677L1379.53,973.677" style="fill:none;stroke:black;stroke-width:22.68px;"/>
                        <g transform="matrix(1,0,0,1,947.244,646.36)">
                            <path d="M375.591,327.317C375.591,327.317 451.181,196.39 451.181,196.39L460.63,196.39" style="fill:none;stroke:black;stroke-width:22.68px;"/>
                        </g>
                    </g>
                    <g transform="matrix(1.06197,-0.107341,-0.107341,1.18592,3690.49,395.304)">
                        <path d="M92.65,289.881L152.752,295.321" style="fill:none;stroke:black;stroke-width:22.27px;"/>
                    </g>
                    <g transform="matrix(1,0,0,1,3182.46,11.428)">
                        <path d="M514.961,717.707L458.268,717.707L486.853,668.196L543.546,668.196L562.205,635.878L505.512,635.878L562.205,635.878L514.961,717.707L538.583,717.707" style="fill:none;stroke:black;stroke-width:22.68px;"/>
                    </g>
                    <g transform="matrix(1,0,0,1,3173.01,401.818)">
                        <path d="M377.953,327.317L420.472,253.67L467.717,253.67L420.472,253.67L425.197,245.488L406.299,245.488" style="fill:none;stroke:black;stroke-width:22.68px;"/>
                    </g>
                    <g transform="matrix(1,0,0,1,3163.59,401.818)">
                        <path d="M264.567,327.317L311.811,245.488L377.92,245.488L330.676,327.317L264.567,327.317Z" style="fill:none;stroke:black;stroke-width:22.68px;"/>
                    </g>
                    <g transform="matrix(1,0,0,1,2995.91,396.558)">
                        <path d="M262.205,332.521L347.147,185.341L309.384,185.453L347.147,185.341L337.795,201.594L432.251,201.65L356.661,332.577L394.391,332.521" style="fill:none;stroke:black;stroke-width:22.68px;"/>
                    </g>
                    <g transform="matrix(1,0,0,1,9.44882,-2.33922e-09)">
                        <g transform="matrix(1.06197,-0.107341,-0.107341,1.18592,2745.61,395.304)">
                            <path d="M415.915,319.141L472.703,220.78" style="fill:none;stroke:black;stroke-width:22.27px;"/>
                        </g>
                        <g transform="matrix(1.06197,-0.107341,-0.107341,1.18592,2717.5,443.988)">
                            <path d="M483.036,251.981L383.24,242.949" style="fill:none;stroke:black;stroke-width:22.27px;"/>
                        </g>
                        <g transform="matrix(1.06197,-0.107341,-0.107341,1.18592,2745.61,395.304)">
                            <path d="M483.036,251.981L383.24,242.949" style="fill:none;stroke:black;stroke-width:22.27px;"/>
                        </g>
                        <g transform="matrix(1.06197,-0.107341,-0.107341,1.18592,2698.36,395.304)">
                            <path d="M415.915,319.141L472.703,220.78" style="fill:none;stroke:black;stroke-width:22.27px;"/>
                        </g>
                    </g>
                </g>
            </g>
        </g>
    </g>
</svg>
