<?xml version="1.0" encoding="UTF-8" standalone="no"?>
<!DOCTYPE svg PUBLIC "-//W3C//DTD SVG 1.1//EN" "http://www.w3.org/Graphics/SVG/1.1/DTD/svg11.dtd">
<svg width="100%" height="100%" viewBox="0 0 1118 474" version="1.1" xmlns="http://www.w3.org/2000/svg" xmlns:xlink="http://www.w3.org/1999/xlink" xml:space="preserve" xmlns:serif="http://www.serif.com/" style="fill-rule:evenodd;clip-rule:evenodd;">
    <g transform="matrix(1.33333,0,0,1.33333,0,0)">
        <g id="位置合わせ指標">
        </g>
        <g id="Nora-DN0032-Split-W14.2mm" serif:id="Nora DN0032 Split W14.2mm">
            <path d="M31.845,177.983C30.146,177.983 28.769,176.606 28.769,174.907C28.769,174.906 28.769,174.906 28.769,174.905C28.769,172.976 28.002,171.127 26.636,169.765C25.271,168.402 23.42,167.639 21.492,167.643C18.679,167.649 16.123,167.654 16.123,167.654L15.121,167.239L14.706,166.237L14.709,20.305L14.726,19.86L14.777,19.417L14.865,18.981L14.984,18.55L15.14,18.133L15.324,17.731L15.542,17.342L15.789,16.971L16.067,16.622L16.367,16.294L16.696,15.993L17.045,15.715L17.416,15.469L17.804,15.25L18.207,15.066L18.624,14.91L19.054,14.791L19.491,14.703L19.933,14.652L20.378,14.632L817.977,14.635L818.419,14.652L818.861,14.703L819.298,14.791L819.731,14.91L820.145,15.066L820.548,15.25L820.936,15.469L821.307,15.715L821.656,15.993L821.985,16.294L822.285,16.622L822.566,16.971L822.81,17.342L823.028,17.731L823.212,18.133L823.368,18.55L823.487,18.981L823.575,19.417L823.629,19.86L823.646,20.305C823.646,20.305 823.646,150.964 823.646,166.199C823.646,166.582 823.494,166.949 823.223,167.22C822.952,167.491 822.585,167.643 822.202,167.643C821.243,167.643 818.267,167.643 816.854,167.643C814.926,167.643 813.077,168.409 811.713,169.772C810.35,171.136 809.584,172.985 809.584,174.913C809.584,174.917 809.584,174.922 809.584,174.926C809.584,175.737 809.262,176.514 808.688,177.088C808.115,177.661 807.338,177.983 806.527,177.983C798.441,177.983 778.743,177.983 778.743,177.983L778.743,217.101L818.646,217.101C819.972,217.101 821.244,217.627 822.182,218.565C823.119,219.503 823.646,220.775 823.646,222.101C823.646,236.668 823.646,278.05 823.646,278.05L823.629,278.49L823.575,278.932L823.487,279.369L823.368,279.799L823.212,280.219L823.028,280.619L822.81,281.007L822.566,281.378L822.285,281.73L821.985,282.059L821.656,282.356L821.307,282.634L820.936,282.881L820.548,283.099L820.145,283.283L819.731,283.442L819.298,283.561L818.861,283.646L818.419,283.697L817.977,283.714L20.378,283.72L19.933,283.697L19.491,283.646L19.054,283.561L18.624,283.442L18.207,283.283L17.804,283.099L17.416,282.881L17.045,282.634L16.696,282.356L16.367,282.059L16.067,281.73L15.789,281.378L15.542,281.007L15.324,280.619L15.14,280.219L14.984,279.799L14.865,279.369L14.777,278.932L14.726,278.49L14.706,278.05L14.706,222.101C14.706,220.775 15.233,219.503 16.171,218.565C17.108,217.627 18.38,217.101 19.706,217.101C39.286,217.101 59.528,217.101 59.528,217.101L59.528,177.983L31.845,177.983ZM629.162,226.188L629.162,265.305L588.91,265.305L588.91,226.188L629.162,226.188ZM502.586,226.183L502.586,265.3L462.334,265.3L462.334,226.183L502.586,226.183ZM565.867,226.183L565.867,265.3L525.615,265.3L525.615,226.183L565.867,226.183ZM692.422,226.183L692.422,265.3L652.17,265.3L652.17,226.183L692.422,226.183ZM376.032,226.183L376.032,265.3L335.78,265.3L335.78,226.183L376.032,226.183ZM249.449,226.178L249.449,265.295L209.197,265.295L209.197,226.178L249.449,226.178ZM312.722,226.178L312.722,265.295L272.47,265.295L272.47,226.178L312.722,226.178ZM186.175,226.178L186.175,265.295L145.923,265.295L145.923,226.178L186.175,226.178ZM667.107,177.983L667.107,217.101L626.847,217.101L626.847,177.983L667.107,177.983ZM110.222,177.983L110.222,217.101L69.97,217.101L69.97,177.983L110.222,177.983ZM616.483,177.983L616.483,217.101L576.231,217.101L576.231,177.983L616.483,177.983ZM515.237,177.983L515.237,217.101L474.978,217.101L474.978,177.983L515.237,177.983ZM565.86,177.983L565.86,217.101L525.608,217.101L525.608,177.983L565.86,177.983ZM262.106,177.983L262.106,217.101L221.854,217.101L221.854,177.983L262.106,177.983ZM211.483,177.983L211.483,217.101L171.231,217.101L171.231,177.983L211.483,177.983ZM768.382,177.983L768.382,217.101L728.13,217.101L728.13,177.983L768.382,177.983ZM312.73,177.983L312.73,217.101L272.478,217.101L272.478,177.983L312.73,177.983ZM363.36,177.983L363.36,217.101L323.108,217.101L323.108,177.983L363.36,177.983ZM717.758,177.983L717.758,217.101L677.506,217.101L677.506,177.983L717.758,177.983ZM160.86,177.983L160.86,217.101L120.608,217.101L120.608,177.983L160.86,177.983ZM806.306,129.793L806.306,168.911L766.054,168.911L766.054,129.793L806.306,129.793ZM743.07,129.793L743.07,168.911L702.818,168.911L702.818,129.793L743.07,129.793ZM692.447,129.793L692.447,168.911L652.195,168.911L652.195,129.793L692.447,129.793ZM641.806,129.793L641.806,168.911L601.554,168.911L601.554,129.793L641.806,129.793ZM338.052,129.793L338.052,168.911L297.8,168.911L297.8,129.793L338.052,129.793ZM540.552,129.793L540.552,168.911L500.3,168.911L500.3,129.793L540.552,129.793ZM135.552,129.793L135.552,168.911L95.3,168.911L95.3,129.793L135.552,129.793ZM186.175,129.793L186.175,168.911L145.923,168.911L145.923,129.793L186.175,129.793ZM591.175,129.793L591.175,168.911L550.923,168.911L550.923,129.793L591.175,129.793ZM236.798,129.793L236.798,168.911L196.546,168.911L196.546,129.793L236.798,129.793ZM489.929,129.793L489.929,168.911L449.67,168.911L449.67,129.793L489.929,129.793ZM287.422,129.793L287.422,168.911L247.17,168.911L247.17,129.793L287.422,129.793ZM388.675,129.793L388.675,168.911L348.423,168.911L348.423,129.793L388.675,129.793ZM72.278,129.793L72.278,168.911L32.026,168.911L32.026,129.793L72.278,129.793ZM743.043,86.482C743.043,86.721 743.138,86.95 743.307,87.118C743.476,87.287 743.705,87.382 743.944,87.382C747.748,87.382 761.349,87.382 765.154,87.382C765.392,87.382 765.621,87.287 765.79,87.118C765.959,86.95 766.054,86.721 766.054,86.482C766.054,84.857 766.054,81.604 766.054,81.604L806.306,81.604L806.306,120.721L766.054,120.721L766.054,101.929C766.054,101.68 765.955,101.44 765.779,101.264C765.602,101.088 765.363,100.989 765.114,100.989C761.261,100.989 747.837,100.989 743.984,100.989C743.734,100.989 743.495,101.088 743.319,101.264C743.142,101.44 743.043,101.68 743.043,101.929C743.043,105.853 743.043,120.721 743.043,120.721L702.791,120.721L702.791,81.604L743.043,81.604L743.043,86.482ZM692.447,81.604L692.447,120.721L652.195,120.721L652.195,81.604L692.447,81.604ZM641.806,81.604L641.806,120.721L601.554,120.721L601.554,81.604L641.806,81.604ZM287.422,81.604L287.422,120.721L247.17,120.721L247.17,81.604L287.422,81.604ZM540.552,81.604L540.552,120.721L500.3,120.721L500.3,81.604L540.552,81.604ZM388.675,81.604L388.675,120.721L348.423,120.721L348.423,81.604L388.675,81.604ZM338.052,81.604L338.052,120.721L297.8,120.721L297.8,81.604L338.052,81.604ZM236.798,81.604L236.798,120.721L196.546,120.721L196.546,81.604L236.798,81.604ZM186.175,81.604L186.175,120.721L145.923,120.721L145.923,81.604L186.175,81.604ZM86.674,100.989C82.919,100.989 79.87,97.94 79.87,94.185C79.87,90.431 82.919,87.382 86.674,87.382L95.21,87.382L95.21,81.604L135.496,81.604L135.496,120.721L95.21,120.721L95.21,100.989L86.674,100.989ZM489.929,81.604L489.929,120.721L449.67,120.721L449.67,81.604L489.929,81.604ZM591.175,81.604L591.175,120.721L550.923,120.721L550.923,81.604L591.175,81.604ZM72.278,81.604L72.278,120.721L32.026,120.721L32.026,81.604L72.278,81.604ZM110.244,33.414L110.244,72.532L69.992,72.532L69.992,33.414L110.244,33.414ZM262.114,33.414L262.114,72.532L221.862,72.532L221.862,33.414L262.114,33.414ZM211.49,33.414L211.49,72.532L171.238,72.532L171.238,33.414L211.49,33.414ZM515.244,33.414L515.244,72.532L474.992,72.532L474.992,33.414L515.244,33.414ZM667.121,33.414L667.121,72.532L626.862,72.532L626.862,33.414L667.121,33.414ZM818.99,33.414L818.99,72.532L778.738,72.532L778.738,33.414L818.99,33.414ZM768.367,33.414L768.367,72.532L728.115,72.532L728.115,33.414L768.367,33.414ZM565.867,33.414L565.867,72.532L525.615,72.532L525.615,33.414L546.989,33.414L546.989,26.016C546.989,24.69 547.531,23.418 548.496,22.481C549.461,21.543 550.77,21.016 552.134,21.016L556.637,21.016C558.002,21.016 559.311,21.543 560.276,22.481C561.24,23.418 561.783,24.69 561.783,26.016C561.783,29.459 561.783,33.414 561.783,33.414L565.867,33.414ZM312.744,33.414L312.744,72.532L272.492,72.532L272.492,33.414L276.557,33.414L276.557,26.016C276.557,23.255 278.86,21.016 281.702,21.016L286.102,21.016C288.943,21.016 291.247,23.255 291.247,26.016C291.247,29.459 291.247,33.414 291.247,33.414L312.744,33.414ZM160.867,33.414L160.867,72.532L120.615,72.532L120.615,33.414L160.867,33.414ZM616.49,33.414L616.49,72.532L576.238,72.532L576.238,33.414L616.49,33.414ZM59.614,33.414L59.614,72.532L19.362,72.532L19.362,33.414L59.614,33.414ZM363.367,33.414L363.367,72.532L323.115,72.532L323.115,33.414L363.367,33.414ZM717.744,33.414L717.744,72.532L677.492,72.532L677.492,33.414L717.744,33.414Z" style="fill:rgb(26,122,230);stroke:rgb(57,183,255);stroke-width:1px;"/>
        </g>
    </g>
</svg>
