<?xml version="1.0" encoding="UTF-8" standalone="no"?>
<!DOCTYPE svg PUBLIC "-//W3C//DTD SVG 1.1//EN" "http://www.w3.org/Graphics/SVG/1.1/DTD/svg11.dtd">
<svg width="100%" height="100%" viewBox="0 0 1118 474" version="1.1" xmlns="http://www.w3.org/2000/svg" xmlns:xlink="http://www.w3.org/1999/xlink" xml:space="preserve" xmlns:serif="http://www.serif.com/" style="fill-rule:evenodd;clip-rule:evenodd;">
    <g transform="matrix(1.33333,0,0,1.33333,0,0)">
        <g id="位置合わせ指標">
        </g>
        <g id="Nora-DN0030" serif:id="Nora DN0030">
            <path d="M31.845,177.983C30.146,177.983 28.769,176.606 28.769,174.907C28.769,174.906 28.769,174.906 28.769,174.905C28.769,172.976 28.002,171.127 26.636,169.765C25.271,168.402 23.42,167.639 21.492,167.643C18.679,167.649 16.123,167.654 16.123,167.654L15.121,167.239L14.706,166.237L14.709,20.305L14.726,19.86L14.777,19.417L14.865,18.981L14.984,18.55L15.14,18.133L15.324,17.731L15.542,17.342L15.789,16.971L16.067,16.622L16.367,16.294L16.696,15.993L17.045,15.715L17.416,15.469L17.804,15.25L18.207,15.066L18.624,14.91L19.054,14.791L19.491,14.703L19.933,14.652L20.378,14.632L817.977,14.635L818.419,14.652L818.861,14.703L819.298,14.791L819.731,14.91L820.145,15.066L820.548,15.25L820.936,15.469L821.307,15.715L821.656,15.993L821.985,16.294L822.285,16.622L822.566,16.971L822.81,17.342L823.028,17.731L823.212,18.133L823.368,18.55L823.487,18.981L823.575,19.417L823.629,19.86L823.646,20.305L823.646,151.338C823.646,154.099 821.407,156.338 818.646,156.338C817.548,156.338 813.9,156.338 810.766,156.338C809.44,156.338 808.168,155.811 807.23,154.873C806.292,153.936 805.766,152.664 805.766,151.338C805.766,143.647 805.766,129.794 805.766,129.794L766.648,129.795L766.648,168.913C766.648,168.913 797.1,168.909 804.6,168.908C805.468,168.908 806.301,169.253 806.915,169.867C807.529,170.481 807.874,171.313 807.874,172.182C807.874,173.004 807.874,173.887 807.874,174.709C807.874,176.517 806.408,177.983 804.6,177.983C797.101,177.983 779.32,177.983 779.32,177.983L779.32,217.101L818.646,217.101C819.972,217.101 821.244,217.627 822.182,218.565C823.119,219.503 823.646,220.775 823.646,222.101C823.646,236.668 823.646,278.05 823.646,278.05L823.629,278.49L823.575,278.932L823.487,279.369L823.368,279.799L823.212,280.219L823.028,280.619L822.81,281.007L822.566,281.378L822.285,281.73L821.985,282.059L821.656,282.356L821.307,282.634L820.936,282.881L820.548,283.099L820.145,283.283L819.731,283.442L819.298,283.561L818.861,283.646L818.419,283.697L817.977,283.714L20.378,283.72L19.933,283.697L19.491,283.646L19.054,283.561L18.624,283.442L18.207,283.283L17.804,283.099L17.416,282.881L17.045,282.634L16.696,282.356L16.367,282.059L16.067,281.73L15.789,281.378L15.542,281.007L15.324,280.619L15.14,280.219L14.984,279.799L14.865,279.369L14.777,278.932L14.726,278.49L14.706,278.05L14.706,222.101C14.706,220.775 15.233,219.503 16.171,218.565C17.108,217.627 18.38,217.101 19.706,217.101C39.286,217.101 59.01,217.101 59.01,217.101L59.01,177.983L31.845,177.983ZM259.959,265.29L259.959,269.898C259.959,273.817 256.777,276.998 252.859,276.998C248.941,276.998 245.759,273.817 245.759,269.898L245.759,265.295L222.443,265.29L222.443,226.173L261.561,226.173L261.561,265.29L259.959,265.29ZM388.13,226.178L388.13,265.295L349.012,265.295L349.012,226.178L388.13,226.178ZM438.76,226.178L438.76,265.295L399.642,265.295L399.642,226.178L438.76,226.178ZM615.938,226.178L615.938,265.295L576.82,265.295L576.82,226.178L615.938,226.178ZM324.82,226.173L324.82,265.29L285.702,265.29L285.702,226.173L324.82,226.173ZM198.273,226.173L198.273,265.29L159.155,265.29L159.155,226.173L198.273,226.173ZM552.642,226.173L552.642,248.862C552.642,248.862 556.406,248.861 559.734,248.86C561.06,248.86 562.333,249.387 563.27,250.324C564.208,251.262 564.735,252.534 564.735,253.86L564.735,258.184C564.735,260.945 562.498,262.796 559.737,262.796C556.408,262.797 552.642,262.799 552.642,262.799L552.642,265.29L513.525,265.29L513.525,226.173L552.642,226.173ZM489.362,226.173L489.362,265.29L450.244,265.29L450.244,226.173L489.362,226.173ZM679.197,226.173L679.197,265.29L640.079,265.29L640.079,226.173L679.197,226.173ZM666.539,177.983L666.539,217.101L627.414,217.101L627.414,177.983L666.539,177.983ZM109.655,177.983L109.655,217.101L70.538,217.101L70.538,177.983L109.655,177.983ZM514.67,177.983L514.67,217.101L475.545,217.101L475.545,177.983L514.67,177.983ZM160.293,177.983L160.293,217.101L121.175,217.101L121.175,177.983L160.293,177.983ZM261.539,177.983L261.539,217.101L222.422,217.101L222.422,177.983L261.539,177.983ZM210.916,177.983L210.916,217.101L171.798,217.101L171.798,177.983L210.916,177.983ZM717.191,177.983L717.191,217.101L678.074,217.101L678.074,177.983L717.191,177.983ZM565.293,177.983L565.293,217.101L526.175,217.101L526.175,177.983L565.293,177.983ZM464.039,177.983L464.039,217.101L424.922,217.101L424.922,177.983L464.039,177.983ZM362.793,177.983L362.793,217.101L323.675,217.101L323.675,177.983L362.793,177.983ZM413.416,177.983L413.416,217.101L374.298,217.101L374.298,177.983L413.416,177.983ZM312.162,177.983L312.162,217.101L273.045,217.101L273.045,177.983L312.162,177.983ZM767.814,177.983L767.814,217.101L728.697,217.101L728.697,177.983L767.814,177.983ZM615.916,177.983L615.916,217.101L576.798,217.101L576.798,177.983L615.916,177.983ZM742.503,129.793L742.503,168.911L703.385,168.911L703.385,129.793L742.503,129.793ZM691.88,129.793L691.88,168.911L652.762,168.911L652.762,129.793L691.88,129.793ZM641.238,129.793L641.238,168.911L602.121,168.911L602.121,129.793L641.238,129.793ZM388.108,129.793L388.108,168.911L348.99,168.911L348.99,129.793L388.108,129.793ZM236.231,129.793L236.231,168.911L197.114,168.911L197.114,129.793L236.231,129.793ZM134.985,129.793L134.985,168.911L95.867,168.911L95.867,129.793L134.985,129.793ZM489.362,129.793L489.362,168.911L450.237,168.911L450.237,129.793L489.362,129.793ZM185.608,129.793L185.608,168.911L146.49,168.911L146.49,129.793L185.608,129.793ZM539.985,129.793L539.985,168.911L500.867,168.911L500.867,129.793L539.985,129.793ZM438.731,129.793L438.731,168.911L399.614,168.911L399.614,129.793L438.731,129.793ZM286.854,129.793L286.854,168.911L247.737,168.911L247.737,129.793L286.854,129.793ZM337.485,129.793L337.485,168.911L298.367,168.911L298.367,129.793L337.485,129.793ZM590.608,129.793L590.608,168.911L551.49,168.911L551.49,129.793L590.608,129.793ZM71.711,129.793L71.711,168.911L32.594,168.911L32.594,129.793L71.711,129.793ZM691.88,81.604L691.88,120.721L652.762,120.721L652.762,81.604L691.88,81.604ZM641.238,81.604L641.238,120.721L602.121,120.721L602.121,81.604L641.238,81.604ZM86.674,100.989C82.919,100.989 79.87,97.94 79.87,94.185C79.87,90.431 82.919,87.382 86.674,87.382L95.867,87.382L95.867,81.604L134.985,81.604L134.985,120.721L95.867,120.721L95.867,100.989L86.674,100.989ZM590.608,81.604L590.608,120.721L551.49,120.721L551.49,81.604L590.608,81.604ZM337.485,81.604L337.485,120.721L298.367,120.721L298.367,81.604L337.485,81.604ZM388.108,81.604L388.108,120.721L348.99,120.721L348.99,81.604L388.108,81.604ZM438.731,81.604L438.731,120.721L399.614,120.721L399.614,81.604L438.731,81.604ZM539.985,81.604L539.985,120.721L500.867,120.721L500.867,81.604L539.985,81.604ZM185.608,81.604L185.608,120.721L146.49,120.721L146.49,81.604L185.608,81.604ZM286.854,81.604L286.854,120.721L247.737,120.721L247.737,81.604L286.854,81.604ZM236.231,81.604L236.231,120.721L197.114,120.721L197.114,81.604L236.231,81.604ZM489.362,81.604L489.362,120.721L450.237,120.721L450.237,81.604L489.362,81.604ZM71.711,81.604L71.711,120.721L32.594,120.721L32.594,81.604L71.711,81.604ZM742.503,86.482C742.503,86.721 742.598,86.95 742.767,87.118C742.935,87.287 743.164,87.382 743.403,87.382C747.208,87.382 761.943,87.382 765.748,87.382C765.986,87.382 766.215,87.287 766.384,87.118C766.553,86.95 766.648,86.721 766.648,86.482C766.648,84.857 766.648,81.604 766.648,81.604L805.766,81.604L805.766,120.721L766.648,120.721L766.648,101.929C766.648,101.68 766.549,101.44 766.373,101.264C766.196,101.088 765.957,100.989 765.708,100.989C761.854,100.989 747.296,100.989 743.443,100.989C743.194,100.989 742.955,101.088 742.778,101.264C742.602,101.44 742.503,101.68 742.503,101.929C742.503,105.853 742.503,120.721 742.503,120.721L703.385,120.721L703.385,81.604L742.503,81.604L742.503,86.482ZM514.677,33.414L514.677,72.532L475.559,72.532L475.559,33.414L514.677,33.414ZM362.8,33.414L362.8,72.532L323.682,72.532L323.682,33.414L362.8,33.414ZM767.8,33.414L767.8,72.532L728.682,72.532L728.682,33.414L767.8,33.414ZM666.554,33.414L666.554,72.532L627.429,72.532L627.429,33.414L666.554,33.414ZM464.054,33.414L464.054,72.532L424.929,72.532L424.929,33.414L464.054,33.414ZM615.923,33.414L615.923,72.532L576.806,72.532L576.806,33.414L615.923,33.414ZM109.677,33.414L109.677,72.532L70.559,72.532L70.559,33.414L109.677,33.414ZM59.046,33.414L59.046,72.532L19.929,72.532L19.929,33.414L59.046,33.414ZM818.423,33.414L818.423,72.532L779.306,72.532L779.306,33.414L818.423,33.414ZM160.3,33.414L160.3,72.532L121.182,72.532L121.182,33.414L160.3,33.414ZM717.177,33.414L717.177,72.532L678.059,72.532L678.059,33.414L717.177,33.414ZM565.3,33.414L565.3,72.532L526.182,72.532L526.182,33.414L546.954,33.414L546.954,26.016C546.954,24.69 547.481,23.418 548.419,22.481C549.356,21.543 550.628,21.016 551.954,21.016L556.33,21.016C557.657,21.016 558.928,21.543 559.866,22.481C560.804,23.418 561.33,24.69 561.33,26.016C561.33,29.459 561.33,33.414 561.33,33.414L565.3,33.414ZM312.177,33.414L312.177,72.532L273.059,72.532L273.059,33.414L277.009,33.414L277.009,26.016C277.009,23.255 279.248,21.016 282.009,21.016L286.285,21.016C289.047,21.016 291.285,23.255 291.285,26.016C291.285,29.459 291.285,33.414 291.285,33.414L312.177,33.414ZM413.423,33.414L413.423,72.532L374.306,72.532L374.306,33.414L413.423,33.414ZM261.546,33.414L261.546,72.532L222.429,72.532L222.429,33.414L261.546,33.414ZM210.923,33.414L210.923,72.532L171.806,72.532L171.806,33.414L210.923,33.414Z" style="fill:rgb(26,122,230);stroke:rgb(57,183,255);stroke-width:1px;"/>
        </g>
    </g>
</svg>
