%TF.GenerationSoftware,KiCad,Pcbnew,(6.0.1-0)*%
%TF.CreationDate,2022-03-20T09:18:00+09:00*%
%TF.ProjectId,keyplate,6b657970-6c61-4746-952e-6b696361645f,rev?*%
%TF.SameCoordinates,Original*%
%TF.FileFunction,Profile,NP*%
%FSLAX46Y46*%
G04 Gerber Fmt 4.6, Leading zero omitted, Abs format (unit mm)*
G04 Created by KiCad (PCBNEW (6.0.1-0)) date 2022-03-20 09:18:00*
%MOMM*%
%LPD*%
G01*
G04 APERTURE LIST*
%TA.AperFunction,Profile*%
%ADD10C,0.352776*%
%TD*%
G04 APERTURE END LIST*
D10*
X20977226Y-75200324D02*
X20921380Y-75198912D01*
X20921380Y-75198912D02*
X20866267Y-75194722D01*
X20866267Y-75194722D02*
X20811956Y-75187822D01*
X20811956Y-75187822D02*
X20758515Y-75178280D01*
X20758515Y-75178280D02*
X20706013Y-75166164D01*
X20706013Y-75166164D02*
X20654516Y-75151543D01*
X20654516Y-75151543D02*
X20604094Y-75134484D01*
X20604094Y-75134484D02*
X20554815Y-75115056D01*
X20554815Y-75115056D02*
X20506746Y-75093327D01*
X20506746Y-75093327D02*
X20459957Y-75069365D01*
X20459957Y-75069365D02*
X20414514Y-75043238D01*
X20414514Y-75043238D02*
X20370487Y-75015014D01*
X20370487Y-75015014D02*
X20327943Y-74984762D01*
X20327943Y-74984762D02*
X20286951Y-74952549D01*
X20286951Y-74952549D02*
X20247578Y-74918444D01*
X20247578Y-74918444D02*
X20209893Y-74882515D01*
X20209893Y-74882515D02*
X20173964Y-74844830D01*
X20173964Y-74844830D02*
X20139859Y-74805457D01*
X20139859Y-74805457D02*
X20107646Y-74764465D01*
X20107646Y-74764465D02*
X20077394Y-74721921D01*
X20077394Y-74721921D02*
X20049170Y-74677893D01*
X20049170Y-74677893D02*
X20023043Y-74632451D01*
X20023043Y-74632451D02*
X19999081Y-74585661D01*
X19999081Y-74585661D02*
X19977352Y-74537592D01*
X19977352Y-74537592D02*
X19957924Y-74488313D01*
X19957924Y-74488313D02*
X19940865Y-74437891D01*
X19940865Y-74437891D02*
X19926244Y-74386394D01*
X19926244Y-74386394D02*
X19914128Y-74333892D01*
X19914128Y-74333892D02*
X19904586Y-74280451D01*
X19904586Y-74280451D02*
X19897686Y-74226140D01*
X19897686Y-74226140D02*
X19893496Y-74171027D01*
X19893496Y-74171027D02*
X19892084Y-74115180D01*
X19892084Y-74115180D02*
X19892084Y-74114470D01*
X19892084Y-74114470D02*
X19888928Y-73987242D01*
X19888928Y-73987242D02*
X19879517Y-73860885D01*
X19879517Y-73860885D02*
X19863937Y-73735609D01*
X19863937Y-73735609D02*
X19842277Y-73611627D01*
X19842277Y-73611627D02*
X19814622Y-73489147D01*
X19814622Y-73489147D02*
X19781059Y-73368380D01*
X19781059Y-73368380D02*
X19741676Y-73249536D01*
X19741676Y-73249536D02*
X19696558Y-73132826D01*
X19696558Y-73132826D02*
X19645793Y-73018460D01*
X19645793Y-73018460D02*
X19589468Y-72906649D01*
X19589468Y-72906649D02*
X19527670Y-72797602D01*
X19527670Y-72797602D02*
X19460485Y-72691530D01*
X19460485Y-72691530D02*
X19387999Y-72588644D01*
X19387999Y-72588644D02*
X19310301Y-72489153D01*
X19310301Y-72489153D02*
X19227477Y-72393268D01*
X19227477Y-72393268D02*
X19139612Y-72301200D01*
X19139612Y-72301200D02*
X19047350Y-72213537D01*
X19047350Y-72213537D02*
X18951280Y-72130923D01*
X18951280Y-72130923D02*
X18851614Y-72053442D01*
X18851614Y-72053442D02*
X18748565Y-71981180D01*
X18748565Y-71981180D02*
X18642342Y-71914226D01*
X18642342Y-71914226D02*
X18533158Y-71852663D01*
X18533158Y-71852663D02*
X18421223Y-71796580D01*
X18421223Y-71796580D02*
X18306750Y-71746061D01*
X18306750Y-71746061D02*
X18189949Y-71701194D01*
X18189949Y-71701194D02*
X18071032Y-71662064D01*
X18071032Y-71662064D02*
X17950211Y-71628759D01*
X17950211Y-71628759D02*
X17827696Y-71601363D01*
X17827696Y-71601363D02*
X17703698Y-71579964D01*
X17703698Y-71579964D02*
X17578430Y-71564647D01*
X17578430Y-71564647D02*
X17452103Y-71555500D01*
X17452103Y-71555500D02*
X17324928Y-71552607D01*
X17324928Y-71552607D02*
X16698044Y-71553664D01*
X16698044Y-71553664D02*
X16610512Y-71551686D01*
X16610512Y-71551686D02*
X16523563Y-71545395D01*
X16523563Y-71545395D02*
X16437343Y-71534850D01*
X16437343Y-71534850D02*
X16351997Y-71520113D01*
X16351997Y-71520113D02*
X16267670Y-71501244D01*
X16267670Y-71501244D02*
X16184507Y-71478304D01*
X16184507Y-71478304D02*
X16102654Y-71451352D01*
X16102654Y-71451352D02*
X16022255Y-71420450D01*
X16022255Y-71420450D02*
X15943456Y-71385657D01*
X15943456Y-71385657D02*
X15866403Y-71347035D01*
X15866403Y-71347035D02*
X15791240Y-71304643D01*
X15791240Y-71304643D02*
X15718112Y-71258542D01*
X15718112Y-71258542D02*
X15647165Y-71208793D01*
X15647165Y-71208793D02*
X15578544Y-71155456D01*
X15578544Y-71155456D02*
X15512394Y-71098592D01*
X15512394Y-71098592D02*
X15448860Y-71038260D01*
X15448860Y-71038260D02*
X15388396Y-70974854D01*
X15388396Y-70974854D02*
X15331399Y-70908823D01*
X15331399Y-70908823D02*
X15277928Y-70840311D01*
X15277928Y-70840311D02*
X15228044Y-70769464D01*
X15228044Y-70769464D02*
X15181806Y-70696426D01*
X15181806Y-70696426D02*
X15139274Y-70621342D01*
X15139274Y-70621342D02*
X15100508Y-70544356D01*
X15100508Y-70544356D02*
X15065568Y-70465613D01*
X15065568Y-70465613D02*
X15034515Y-70385258D01*
X15034515Y-70385258D02*
X15007407Y-70303435D01*
X15007407Y-70303435D02*
X14984306Y-70220289D01*
X14984306Y-70220289D02*
X14965270Y-70135966D01*
X14965270Y-70135966D02*
X14950360Y-70050609D01*
X14950360Y-70050609D02*
X14939636Y-69964362D01*
X14939636Y-69964362D02*
X14933157Y-69877372D01*
X14933157Y-69877372D02*
X14930984Y-69789782D01*
X14930984Y-69789782D02*
X14932042Y-19575167D01*
X14932042Y-19575167D02*
X14938040Y-19418181D01*
X14938040Y-19418181D02*
X14956031Y-19261901D01*
X14956031Y-19261901D02*
X14987075Y-19108091D01*
X14987075Y-19108091D02*
X15029056Y-18956043D01*
X15029056Y-18956043D02*
X15084089Y-18808935D01*
X15084089Y-18808935D02*
X15149000Y-18667119D01*
X15149000Y-18667119D02*
X15225905Y-18529889D01*
X15225905Y-18529889D02*
X15313041Y-18399009D01*
X15313041Y-18399009D02*
X15411113Y-18275889D01*
X15411113Y-18275889D02*
X15516947Y-18160179D01*
X15516947Y-18160179D02*
X15633009Y-18053993D01*
X15633009Y-18053993D02*
X15756129Y-17955921D01*
X15756129Y-17955921D02*
X15887009Y-17869138D01*
X15887009Y-17869138D02*
X16023887Y-17791880D01*
X16023887Y-17791880D02*
X16166056Y-17726969D01*
X16166056Y-17726969D02*
X16313164Y-17671935D01*
X16313164Y-17671935D02*
X16464858Y-17629955D01*
X16464858Y-17629955D02*
X16619021Y-17598911D01*
X16619021Y-17598911D02*
X16774949Y-17580919D01*
X16774949Y-17580919D02*
X16931934Y-17573863D01*
X16931934Y-17573863D02*
X298306432Y-17574921D01*
X298306432Y-17574921D02*
X298462346Y-17580919D01*
X298462346Y-17580919D02*
X298618291Y-17598911D01*
X298618291Y-17598911D02*
X298772435Y-17629955D01*
X298772435Y-17629955D02*
X298925206Y-17671935D01*
X298925206Y-17671935D02*
X299071264Y-17726969D01*
X299071264Y-17726969D02*
X299213414Y-17791880D01*
X299213414Y-17791880D02*
X299350286Y-17869138D01*
X299350286Y-17869138D02*
X299481176Y-17955921D01*
X299481176Y-17955921D02*
X299604284Y-18053993D01*
X299604284Y-18053993D02*
X299720372Y-18160179D01*
X299720372Y-18160179D02*
X299826177Y-18275889D01*
X299826177Y-18275889D02*
X299925328Y-18399009D01*
X299925328Y-18399009D02*
X300011388Y-18529889D01*
X300011388Y-18529889D02*
X300088292Y-18667119D01*
X300088292Y-18667119D02*
X300153203Y-18808935D01*
X300153203Y-18808935D02*
X300208257Y-18956043D01*
X300208257Y-18956043D02*
X300250249Y-19108091D01*
X300250249Y-19108091D02*
X300281286Y-19261901D01*
X300281286Y-19261901D02*
X300300328Y-19418181D01*
X300300328Y-19418181D02*
X300306310Y-19575167D01*
X300306310Y-19575167D02*
X300306310Y-69789428D01*
X300306310Y-69789428D02*
X300304141Y-69876952D01*
X300304141Y-69876952D02*
X300297675Y-69963878D01*
X300297675Y-69963878D02*
X300286969Y-70050060D01*
X300286969Y-70050060D02*
X300272085Y-70135355D01*
X300272085Y-70135355D02*
X300253082Y-70219619D01*
X300253082Y-70219619D02*
X300230018Y-70302706D01*
X300230018Y-70302706D02*
X300202954Y-70384474D01*
X300202954Y-70384474D02*
X300171949Y-70464778D01*
X300171949Y-70464778D02*
X300137062Y-70543473D01*
X300137062Y-70543473D02*
X300098352Y-70620416D01*
X300098352Y-70620416D02*
X300055880Y-70695463D01*
X300055880Y-70695463D02*
X300009705Y-70768468D01*
X300009705Y-70768468D02*
X299959886Y-70839289D01*
X299959886Y-70839289D02*
X299906482Y-70907781D01*
X299906482Y-70907781D02*
X299849553Y-70973799D01*
X299849553Y-70973799D02*
X299789159Y-71037200D01*
X299789159Y-71037200D02*
X299725749Y-71097532D01*
X299725749Y-71097532D02*
X299659715Y-71154397D01*
X299659715Y-71154397D02*
X299591203Y-71207737D01*
X299591203Y-71207737D02*
X299520358Y-71257493D01*
X299520358Y-71257493D02*
X299447324Y-71303604D01*
X299447324Y-71303604D02*
X299372248Y-71346012D01*
X299372248Y-71346012D02*
X299295273Y-71384656D01*
X299295273Y-71384656D02*
X299216546Y-71419478D01*
X299216546Y-71419478D02*
X299136212Y-71450418D01*
X299136212Y-71450418D02*
X299054415Y-71477417D01*
X299054415Y-71477417D02*
X298971300Y-71500416D01*
X298971300Y-71500416D02*
X298887014Y-71519354D01*
X298887014Y-71519354D02*
X298801701Y-71534172D01*
X298801701Y-71534172D02*
X298715506Y-71544812D01*
X298715506Y-71544812D02*
X298628574Y-71551213D01*
X298628574Y-71551213D02*
X298541051Y-71553317D01*
X298541051Y-71553317D02*
X297910253Y-71552607D01*
X297910253Y-71552607D02*
X297783087Y-71555760D01*
X297783087Y-71555760D02*
X297656784Y-71565158D01*
X297656784Y-71565158D02*
X297531554Y-71580715D01*
X297531554Y-71580715D02*
X297407606Y-71602343D01*
X297407606Y-71602343D02*
X297285151Y-71629956D01*
X297285151Y-71629956D02*
X297164398Y-71663465D01*
X297164398Y-71663465D02*
X297045557Y-71702784D01*
X297045557Y-71702784D02*
X296928838Y-71747825D01*
X296928838Y-71747825D02*
X296814451Y-71798500D01*
X296814451Y-71798500D02*
X296702605Y-71854723D01*
X296702605Y-71854723D02*
X296593511Y-71916406D01*
X296593511Y-71916406D02*
X296487377Y-71983462D01*
X296487377Y-71983462D02*
X296384415Y-72055804D01*
X296384415Y-72055804D02*
X296284834Y-72133344D01*
X296284834Y-72133344D02*
X296188844Y-72215994D01*
X296188844Y-72215994D02*
X296096654Y-72303668D01*
X296096654Y-72303668D02*
X296008975Y-72395861D01*
X296008975Y-72395861D02*
X295926319Y-72491854D01*
X295926319Y-72491854D02*
X295848775Y-72591438D01*
X295848775Y-72591438D02*
X295776430Y-72694403D01*
X295776430Y-72694403D02*
X295709370Y-72800538D01*
X295709370Y-72800538D02*
X295647684Y-72909634D01*
X295647684Y-72909634D02*
X295591458Y-73021482D01*
X295591458Y-73021482D02*
X295540780Y-73135871D01*
X295540780Y-73135871D02*
X295495738Y-73252591D01*
X295495738Y-73252591D02*
X295456417Y-73371433D01*
X295456417Y-73371433D02*
X295422907Y-73492187D01*
X295422907Y-73492187D02*
X295395293Y-73614644D01*
X295395293Y-73614644D02*
X295373664Y-73738592D01*
X295373664Y-73738592D02*
X295358106Y-73863823D01*
X295358106Y-73863823D02*
X295348708Y-73990127D01*
X295348708Y-73990127D02*
X295345556Y-74117293D01*
X295345556Y-74117293D02*
X295345556Y-74121882D01*
X295345556Y-74121882D02*
X295344230Y-74175371D01*
X295344230Y-74175371D02*
X295340279Y-74228491D01*
X295340279Y-74228491D02*
X295333738Y-74281155D01*
X295333738Y-74281155D02*
X295324643Y-74333277D01*
X295324643Y-74333277D02*
X295313031Y-74384768D01*
X295313031Y-74384768D02*
X295298937Y-74435542D01*
X295298937Y-74435542D02*
X295282397Y-74485510D01*
X295282397Y-74485510D02*
X295263448Y-74534586D01*
X295263448Y-74534586D02*
X295242126Y-74582683D01*
X295242126Y-74582683D02*
X295218467Y-74629712D01*
X295218467Y-74629712D02*
X295192506Y-74675586D01*
X295192506Y-74675586D02*
X295164281Y-74720219D01*
X295164281Y-74720219D02*
X295133827Y-74763523D01*
X295133827Y-74763523D02*
X295101181Y-74805410D01*
X295101181Y-74805410D02*
X295066378Y-74845793D01*
X295066378Y-74845793D02*
X295029454Y-74884585D01*
X295029454Y-74884585D02*
X294990728Y-74921442D01*
X294990728Y-74921442D02*
X294950403Y-74956188D01*
X294950403Y-74956188D02*
X294908566Y-74988784D01*
X294908566Y-74988784D02*
X294865305Y-75019196D01*
X294865305Y-75019196D02*
X294820709Y-75047386D01*
X294820709Y-75047386D02*
X294774865Y-75073317D01*
X294774865Y-75073317D02*
X294727860Y-75096952D01*
X294727860Y-75096952D02*
X294679784Y-75118256D01*
X294679784Y-75118256D02*
X294630724Y-75137191D01*
X294630724Y-75137191D02*
X294580767Y-75153720D01*
X294580767Y-75153720D02*
X294530002Y-75167807D01*
X294530002Y-75167807D02*
X294478516Y-75179415D01*
X294478516Y-75179415D02*
X294426397Y-75188508D01*
X294426397Y-75188508D02*
X294373734Y-75195048D01*
X294373734Y-75195048D02*
X294320614Y-75198999D01*
X294320614Y-75198999D02*
X294267125Y-75200324D01*
X294267125Y-75200324D02*
X284542485Y-75200324D01*
X284542485Y-75200324D02*
X284542485Y-89000251D01*
X284542485Y-89000251D02*
X298542424Y-89000251D01*
X298542424Y-89000251D02*
X298629890Y-89002415D01*
X298629890Y-89002415D02*
X298716763Y-89008870D01*
X298716763Y-89008870D02*
X298802899Y-89019556D01*
X298802899Y-89019556D02*
X298888154Y-89034414D01*
X298888154Y-89034414D02*
X298972383Y-89053386D01*
X298972383Y-89053386D02*
X299055441Y-89076412D01*
X299055441Y-89076412D02*
X299137185Y-89103433D01*
X299137185Y-89103433D02*
X299217469Y-89134392D01*
X299217469Y-89134392D02*
X299296150Y-89169228D01*
X299296150Y-89169228D02*
X299373082Y-89207883D01*
X299373082Y-89207883D02*
X299448120Y-89250298D01*
X299448120Y-89250298D02*
X299521122Y-89296415D01*
X299521122Y-89296415D02*
X299591941Y-89346174D01*
X299591941Y-89346174D02*
X299660434Y-89399516D01*
X299660434Y-89399516D02*
X299726455Y-89456383D01*
X299726455Y-89456383D02*
X299789861Y-89516715D01*
X299789861Y-89516715D02*
X299850132Y-89580116D01*
X299850132Y-89580116D02*
X299906952Y-89646134D01*
X299906952Y-89646134D02*
X299960262Y-89714623D01*
X299960262Y-89714623D02*
X300010001Y-89785441D01*
X300010001Y-89785441D02*
X300056108Y-89858441D01*
X300056108Y-89858441D02*
X300098524Y-89933480D01*
X300098524Y-89933480D02*
X300137187Y-90010412D01*
X300137187Y-90010412D02*
X300172036Y-90089093D01*
X300172036Y-90089093D02*
X300203013Y-90169378D01*
X300203013Y-90169378D02*
X300230055Y-90251123D01*
X300230055Y-90251123D02*
X300253103Y-90334182D01*
X300253103Y-90334182D02*
X300272096Y-90418411D01*
X300272096Y-90418411D02*
X300286974Y-90503666D01*
X300286974Y-90503666D02*
X300297676Y-90589802D01*
X300297676Y-90589802D02*
X300304141Y-90676673D01*
X300304141Y-90676673D02*
X300306310Y-90764136D01*
X300306310Y-90764136D02*
X300306310Y-110501639D01*
X300306310Y-110501639D02*
X300300328Y-110656859D01*
X300300328Y-110656859D02*
X300281286Y-110812796D01*
X300281286Y-110812796D02*
X300250249Y-110966956D01*
X300250249Y-110966956D02*
X300208257Y-111118659D01*
X300208257Y-111118659D02*
X300153203Y-111266814D01*
X300153203Y-111266814D02*
X300088292Y-111407920D01*
X300088292Y-111407920D02*
X300011388Y-111544799D01*
X300011388Y-111544799D02*
X299925328Y-111675689D01*
X299925328Y-111675689D02*
X299826177Y-111799872D01*
X299826177Y-111799872D02*
X299720372Y-111915923D01*
X299720372Y-111915923D02*
X299604284Y-112020697D01*
X299604284Y-112020697D02*
X299481176Y-112118773D01*
X299481176Y-112118773D02*
X299350286Y-112205909D01*
X299350286Y-112205909D02*
X299213414Y-112282813D01*
X299213414Y-112282813D02*
X299071264Y-112347724D01*
X299071264Y-112347724D02*
X298925206Y-112403815D01*
X298925206Y-112403815D02*
X298772435Y-112445800D01*
X298772435Y-112445800D02*
X298618291Y-112475783D01*
X298618291Y-112475783D02*
X298462346Y-112493773D01*
X298462346Y-112493773D02*
X298306432Y-112499770D01*
X298306432Y-112499770D02*
X16931934Y-112501891D01*
X16931934Y-112501891D02*
X16774949Y-112493773D01*
X16774949Y-112493773D02*
X16619021Y-112475783D01*
X16619021Y-112475783D02*
X16464858Y-112445800D01*
X16464858Y-112445800D02*
X16313164Y-112403815D01*
X16313164Y-112403815D02*
X16166056Y-112347724D01*
X16166056Y-112347724D02*
X16023887Y-112282813D01*
X16023887Y-112282813D02*
X15887009Y-112205909D01*
X15887009Y-112205909D02*
X15756129Y-112118773D01*
X15756129Y-112118773D02*
X15633009Y-112020697D01*
X15633009Y-112020697D02*
X15516947Y-111915923D01*
X15516947Y-111915923D02*
X15411113Y-111799872D01*
X15411113Y-111799872D02*
X15313041Y-111675689D01*
X15313041Y-111675689D02*
X15225905Y-111544799D01*
X15225905Y-111544799D02*
X15149000Y-111407920D01*
X15149000Y-111407920D02*
X15084089Y-111266814D01*
X15084089Y-111266814D02*
X15029056Y-111118659D01*
X15029056Y-111118659D02*
X14987075Y-110966956D01*
X14987075Y-110966956D02*
X14956031Y-110812796D01*
X14956031Y-110812796D02*
X14938040Y-110656859D01*
X14938040Y-110656859D02*
X14930984Y-110501639D01*
X14930984Y-110501639D02*
X14930984Y-90764136D01*
X14930984Y-90764136D02*
X14933153Y-90676673D01*
X14933153Y-90676673D02*
X14939619Y-90589802D01*
X14939619Y-90589802D02*
X14950322Y-90503666D01*
X14950322Y-90503666D02*
X14965203Y-90418411D01*
X14965203Y-90418411D02*
X14984202Y-90334182D01*
X14984202Y-90334182D02*
X15007258Y-90251123D01*
X15007258Y-90251123D02*
X15034312Y-90169378D01*
X15034312Y-90169378D02*
X15065304Y-90089093D01*
X15065304Y-90089093D02*
X15100173Y-90010412D01*
X15100173Y-90010412D02*
X15138860Y-89933480D01*
X15138860Y-89933480D02*
X15181305Y-89858441D01*
X15181305Y-89858441D02*
X15227449Y-89785441D01*
X15227449Y-89785441D02*
X15277230Y-89714623D01*
X15277230Y-89714623D02*
X15330589Y-89646134D01*
X15330589Y-89646134D02*
X15387466Y-89580116D01*
X15387466Y-89580116D02*
X15447802Y-89516715D01*
X15447802Y-89516715D02*
X15511141Y-89456383D01*
X15511141Y-89456383D02*
X15577105Y-89399516D01*
X15577105Y-89399516D02*
X15645548Y-89346174D01*
X15645548Y-89346174D02*
X15716326Y-89296415D01*
X15716326Y-89296415D02*
X15789292Y-89250298D01*
X15789292Y-89250298D02*
X15864303Y-89207883D01*
X15864303Y-89207883D02*
X15941211Y-89169228D01*
X15941211Y-89169228D02*
X16019874Y-89134392D01*
X16019874Y-89134392D02*
X16100144Y-89103433D01*
X16100144Y-89103433D02*
X16181878Y-89076412D01*
X16181878Y-89076412D02*
X16264929Y-89053386D01*
X16264929Y-89053386D02*
X16349152Y-89034414D01*
X16349152Y-89034414D02*
X16434403Y-89019556D01*
X16434403Y-89019556D02*
X16520536Y-89008870D01*
X16520536Y-89008870D02*
X16607407Y-89002415D01*
X16607407Y-89002415D02*
X16694868Y-89000251D01*
X16694868Y-89000251D02*
X30642961Y-89000251D01*
X30642961Y-89000251D02*
X30642961Y-75200324D01*
X30642961Y-75200324D02*
X20977226Y-75200324D01*
X20977226Y-75200324D02*
X20977226Y-75200324D01*
X231597036Y-92205932D02*
X231597036Y-106005500D01*
X231597036Y-106005500D02*
X217597066Y-106005500D01*
X217597066Y-106005500D02*
X217597066Y-92205932D01*
X217597066Y-92205932D02*
X231597036Y-92205932D01*
X231597036Y-92205932D02*
X231597036Y-92205932D01*
X186943944Y-92204169D02*
X186943944Y-106003737D01*
X186943944Y-106003737D02*
X172943990Y-106003737D01*
X172943990Y-106003737D02*
X172943990Y-92204169D01*
X172943990Y-92204169D02*
X186943944Y-92204169D01*
X186943944Y-92204169D02*
X186943944Y-92204169D01*
X209267995Y-92204169D02*
X209267995Y-106003737D01*
X209267995Y-106003737D02*
X195268056Y-106003737D01*
X195268056Y-106003737D02*
X195268056Y-92204169D01*
X195268056Y-92204169D02*
X209267995Y-92204169D01*
X209267995Y-92204169D02*
X209267995Y-92204169D01*
X253913335Y-92204169D02*
X253913335Y-106003737D01*
X253913335Y-106003737D02*
X239913381Y-106003737D01*
X239913381Y-106003737D02*
X239913381Y-92204169D01*
X239913381Y-92204169D02*
X253913335Y-92204169D01*
X253913335Y-92204169D02*
X253913335Y-92204169D01*
X142298604Y-92204169D02*
X142298604Y-106003737D01*
X142298604Y-106003737D02*
X128298658Y-106003737D01*
X128298658Y-106003737D02*
X128298658Y-92204169D01*
X128298658Y-92204169D02*
X142298604Y-92204169D01*
X142298604Y-92204169D02*
X142298604Y-92204169D01*
X97642698Y-92202399D02*
X97642698Y-106001975D01*
X97642698Y-106001975D02*
X83642751Y-106001975D01*
X83642751Y-106001975D02*
X83642751Y-92202399D01*
X83642751Y-92202399D02*
X97642698Y-92202399D01*
X97642698Y-92202399D02*
X97642698Y-92202399D01*
X75321447Y-92202399D02*
X75321447Y-106001975D01*
X75321447Y-106001975D02*
X61321496Y-106001975D01*
X61321496Y-106001975D02*
X61321496Y-92202399D01*
X61321496Y-92202399D02*
X75321447Y-92202399D01*
X75321447Y-92202399D02*
X75321447Y-92202399D01*
X119964299Y-92202399D02*
X119964299Y-106001975D01*
X119964299Y-106001975D02*
X105964360Y-106001975D01*
X105964360Y-106001975D02*
X105964360Y-92202399D01*
X105964360Y-92202399D02*
X119964299Y-92202399D01*
X119964299Y-92202399D02*
X119964299Y-92202399D01*
X244982793Y-75200324D02*
X244982793Y-89000251D01*
X244982793Y-89000251D02*
X230980352Y-89000251D01*
X230980352Y-89000251D02*
X230980352Y-75200324D01*
X230980352Y-75200324D02*
X244982793Y-75200324D01*
X244982793Y-75200324D02*
X244982793Y-75200324D01*
X48526986Y-75200324D02*
X48526986Y-89000251D01*
X48526986Y-89000251D02*
X34527034Y-89000251D01*
X34527034Y-89000251D02*
X34527034Y-75200324D01*
X34527034Y-75200324D02*
X48526986Y-75200324D01*
X48526986Y-75200324D02*
X48526986Y-75200324D01*
X137828222Y-75200324D02*
X137828222Y-89000251D01*
X137828222Y-89000251D02*
X123828267Y-89000251D01*
X123828267Y-89000251D02*
X123828267Y-75200324D01*
X123828267Y-75200324D02*
X137828222Y-75200324D01*
X137828222Y-75200324D02*
X137828222Y-75200324D01*
X227124166Y-75200324D02*
X227124166Y-89000251D01*
X227124166Y-89000251D02*
X213124227Y-89000251D01*
X213124227Y-89000251D02*
X213124227Y-75200324D01*
X213124227Y-75200324D02*
X227124166Y-75200324D01*
X227124166Y-75200324D02*
X227124166Y-75200324D01*
X262851629Y-75200324D02*
X262851629Y-89000251D01*
X262851629Y-89000251D02*
X248851674Y-89000251D01*
X248851674Y-89000251D02*
X248851674Y-75200324D01*
X248851674Y-75200324D02*
X262851629Y-75200324D01*
X262851629Y-75200324D02*
X262851629Y-75200324D01*
X84249524Y-75200324D02*
X84249524Y-89000251D01*
X84249524Y-89000251D02*
X70249574Y-89000251D01*
X70249574Y-89000251D02*
X70249574Y-75200324D01*
X70249574Y-75200324D02*
X84249524Y-75200324D01*
X84249524Y-75200324D02*
X84249524Y-75200324D01*
X209265554Y-75200324D02*
X209265554Y-89000251D01*
X209265554Y-89000251D02*
X195265599Y-89000251D01*
X195265599Y-89000251D02*
X195265599Y-75200324D01*
X195265599Y-75200324D02*
X209265554Y-75200324D01*
X209265554Y-75200324D02*
X209265554Y-75200324D01*
X280710271Y-75200324D02*
X280710271Y-89000251D01*
X280710271Y-89000251D02*
X266710332Y-89000251D01*
X266710332Y-89000251D02*
X266710332Y-75200324D01*
X266710332Y-75200324D02*
X280710271Y-75200324D01*
X280710271Y-75200324D02*
X280710271Y-75200324D01*
X191406560Y-75200324D02*
X191406560Y-89000251D01*
X191406560Y-89000251D02*
X177404134Y-89000251D01*
X177404134Y-89000251D02*
X177404134Y-75200324D01*
X177404134Y-75200324D02*
X191406560Y-75200324D01*
X191406560Y-75200324D02*
X191406560Y-75200324D01*
X66390897Y-75200324D02*
X66390897Y-89000251D01*
X66390897Y-89000251D02*
X52390950Y-89000251D01*
X52390950Y-89000251D02*
X52390950Y-75200324D01*
X52390950Y-75200324D02*
X66390897Y-75200324D01*
X66390897Y-75200324D02*
X66390897Y-75200324D01*
X119966779Y-75200324D02*
X119966779Y-89000251D01*
X119966779Y-89000251D02*
X105966817Y-89000251D01*
X105966817Y-89000251D02*
X105966817Y-75200324D01*
X105966817Y-75200324D02*
X119966779Y-75200324D01*
X119966779Y-75200324D02*
X119966779Y-75200324D01*
X102108152Y-75200324D02*
X102108152Y-89000251D01*
X102108152Y-89000251D02*
X88108197Y-89000251D01*
X88108197Y-89000251D02*
X88108197Y-75200324D01*
X88108197Y-75200324D02*
X102108152Y-75200324D01*
X102108152Y-75200324D02*
X102108152Y-75200324D01*
X164893621Y-82111922D02*
X164893621Y-66011889D01*
X164893621Y-66011889D02*
X150393789Y-66011889D01*
X150393789Y-66011889D02*
X150393789Y-82111922D01*
X150393789Y-82111922D02*
X164893621Y-82111922D01*
X164893621Y-82111922D02*
X164893621Y-82111922D01*
X294089330Y-58200000D02*
X294089330Y-71999926D01*
X294089330Y-71999926D02*
X280089391Y-71999926D01*
X280089391Y-71999926D02*
X280089391Y-58200000D01*
X280089391Y-58200000D02*
X294089330Y-58200000D01*
X294089330Y-58200000D02*
X294089330Y-58200000D01*
X253922170Y-58200000D02*
X253922170Y-71999926D01*
X253922170Y-71999926D02*
X239922216Y-71999926D01*
X239922216Y-71999926D02*
X239922216Y-58200000D01*
X239922216Y-58200000D02*
X253922170Y-58200000D01*
X253922170Y-58200000D02*
X253922170Y-58200000D01*
X271781133Y-58200000D02*
X271781133Y-71999926D01*
X271781133Y-71999926D02*
X257781179Y-71999926D01*
X257781179Y-71999926D02*
X257781179Y-58200000D01*
X257781179Y-58200000D02*
X271781133Y-58200000D01*
X271781133Y-58200000D02*
X271781133Y-58200000D01*
X236057180Y-58200000D02*
X236057180Y-71999926D01*
X236057180Y-71999926D02*
X222057225Y-71999926D01*
X222057225Y-71999926D02*
X222057225Y-58200000D01*
X222057225Y-58200000D02*
X236057180Y-58200000D01*
X236057180Y-58200000D02*
X236057180Y-58200000D01*
X218196096Y-58200000D02*
X218196096Y-71999926D01*
X218196096Y-71999926D02*
X204196126Y-71999926D01*
X204196126Y-71999926D02*
X204196126Y-58200000D01*
X204196126Y-58200000D02*
X218196096Y-58200000D01*
X218196096Y-58200000D02*
X218196096Y-58200000D01*
X75321447Y-58200000D02*
X75321447Y-71999926D01*
X75321447Y-71999926D02*
X61321496Y-71999926D01*
X61321496Y-71999926D02*
X61321496Y-58200000D01*
X61321496Y-58200000D02*
X75321447Y-58200000D01*
X75321447Y-58200000D02*
X75321447Y-58200000D01*
X128900151Y-58200000D02*
X128900151Y-71999926D01*
X128900151Y-71999926D02*
X114900197Y-71999926D01*
X114900197Y-71999926D02*
X114900197Y-58200000D01*
X114900197Y-58200000D02*
X128900151Y-58200000D01*
X128900151Y-58200000D02*
X128900151Y-58200000D01*
X111038701Y-58200000D02*
X111038701Y-71999926D01*
X111038701Y-71999926D02*
X97038747Y-71999926D01*
X97038747Y-71999926D02*
X97038747Y-58200000D01*
X97038747Y-58200000D02*
X111038701Y-58200000D01*
X111038701Y-58200000D02*
X111038701Y-58200000D01*
X57462823Y-58200000D02*
X57462823Y-71999926D01*
X57462823Y-71999926D02*
X43462873Y-71999926D01*
X43462873Y-71999926D02*
X43462873Y-58200000D01*
X43462873Y-58200000D02*
X57462823Y-58200000D01*
X57462823Y-58200000D02*
X57462823Y-58200000D01*
X93180066Y-58200000D02*
X93180066Y-71999926D01*
X93180066Y-71999926D02*
X79180127Y-71999926D01*
X79180127Y-71999926D02*
X79180127Y-58200000D01*
X79180127Y-58200000D02*
X93180066Y-58200000D01*
X93180066Y-58200000D02*
X93180066Y-58200000D01*
X200337453Y-58200000D02*
X200337453Y-71999926D01*
X200337453Y-71999926D02*
X186337529Y-71999926D01*
X186337529Y-71999926D02*
X186337529Y-58200000D01*
X186337529Y-58200000D02*
X200337453Y-58200000D01*
X200337453Y-58200000D02*
X200337453Y-58200000D01*
X35141221Y-58200000D02*
X35141221Y-71999926D01*
X35141221Y-71999926D02*
X21141269Y-71999926D01*
X21141269Y-71999926D02*
X21141269Y-58200000D01*
X21141269Y-58200000D02*
X35141221Y-58200000D01*
X35141221Y-58200000D02*
X35141221Y-58200000D01*
X271730321Y-42920884D02*
X271730824Y-42928777D01*
X271730824Y-42928777D02*
X271732297Y-42936647D01*
X271732297Y-42936647D02*
X271734687Y-42944489D01*
X271734687Y-42944489D02*
X271737941Y-42952301D01*
X271737941Y-42952301D02*
X271742006Y-42960079D01*
X271742006Y-42960079D02*
X271746829Y-42967819D01*
X271746829Y-42967819D02*
X271752357Y-42975519D01*
X271752357Y-42975519D02*
X271758538Y-42983176D01*
X271758538Y-42983176D02*
X271765317Y-42990785D01*
X271765317Y-42990785D02*
X271772642Y-42998345D01*
X271772642Y-42998345D02*
X271788717Y-43013299D01*
X271788717Y-43013299D02*
X271806340Y-43028012D01*
X271806340Y-43028012D02*
X271825086Y-43042458D01*
X271825086Y-43042458D02*
X271844531Y-43056611D01*
X271844531Y-43056611D02*
X271864250Y-43070444D01*
X271864250Y-43070444D02*
X271902815Y-43097045D01*
X271902815Y-43097045D02*
X271920813Y-43109760D01*
X271920813Y-43109760D02*
X271937388Y-43122049D01*
X271937388Y-43122049D02*
X271952116Y-43133887D01*
X271952116Y-43133887D02*
X271964574Y-43145247D01*
X271964574Y-43145247D02*
X271975999Y-43156119D01*
X271975999Y-43156119D02*
X271987893Y-43166367D01*
X271987893Y-43166367D02*
X272000231Y-43175982D01*
X272000231Y-43175982D02*
X272012987Y-43184953D01*
X272012987Y-43184953D02*
X272026136Y-43193268D01*
X272026136Y-43193268D02*
X272039651Y-43200917D01*
X272039651Y-43200917D02*
X272053507Y-43207889D01*
X272053507Y-43207889D02*
X272067678Y-43214173D01*
X272067678Y-43214173D02*
X272082137Y-43219759D01*
X272082137Y-43219759D02*
X272096860Y-43224635D01*
X272096860Y-43224635D02*
X272111820Y-43228791D01*
X272111820Y-43228791D02*
X272126992Y-43232215D01*
X272126992Y-43232215D02*
X272142349Y-43234897D01*
X272142349Y-43234897D02*
X272157865Y-43236827D01*
X272157865Y-43236827D02*
X272173516Y-43237992D01*
X272173516Y-43237992D02*
X272189275Y-43238383D01*
X272189275Y-43238383D02*
X279671697Y-43238383D01*
X279671697Y-43238383D02*
X279687402Y-43237992D01*
X279687402Y-43237992D02*
X279703004Y-43236827D01*
X279703004Y-43236827D02*
X279718479Y-43234897D01*
X279718479Y-43234897D02*
X279733799Y-43232215D01*
X279733799Y-43232215D02*
X279748939Y-43228791D01*
X279748939Y-43228791D02*
X279763872Y-43224635D01*
X279763872Y-43224635D02*
X279778571Y-43219759D01*
X279778571Y-43219759D02*
X279793012Y-43214173D01*
X279793012Y-43214173D02*
X279807167Y-43207889D01*
X279807167Y-43207889D02*
X279821011Y-43200917D01*
X279821011Y-43200917D02*
X279834517Y-43193268D01*
X279834517Y-43193268D02*
X279847658Y-43184953D01*
X279847658Y-43184953D02*
X279860410Y-43175982D01*
X279860410Y-43175982D02*
X279872745Y-43166367D01*
X279872745Y-43166367D02*
X279884638Y-43156119D01*
X279884638Y-43156119D02*
X279896062Y-43145247D01*
X279896062Y-43145247D02*
X279908514Y-43133887D01*
X279908514Y-43133887D02*
X279923238Y-43122049D01*
X279923238Y-43122049D02*
X279939809Y-43109760D01*
X279939809Y-43109760D02*
X279957803Y-43097045D01*
X279957803Y-43097045D02*
X279996363Y-43070444D01*
X279996363Y-43070444D02*
X280035524Y-43042458D01*
X280035524Y-43042458D02*
X280054268Y-43028012D01*
X280054268Y-43028012D02*
X280071890Y-43013299D01*
X280071890Y-43013299D02*
X280087965Y-42998345D01*
X280087965Y-42998345D02*
X280102069Y-42983176D01*
X280102069Y-42983176D02*
X280108249Y-42975519D01*
X280108249Y-42975519D02*
X280113777Y-42967819D01*
X280113777Y-42967819D02*
X280118600Y-42960079D01*
X280118600Y-42960079D02*
X280122665Y-42952301D01*
X280122665Y-42952301D02*
X280125919Y-42944489D01*
X280125919Y-42944489D02*
X280128309Y-42936647D01*
X280128309Y-42936647D02*
X280129782Y-42928777D01*
X280129782Y-42928777D02*
X280130285Y-42920884D01*
X280130285Y-42920884D02*
X280130285Y-41200036D01*
X280130285Y-41200036D02*
X294042424Y-41200036D01*
X294042424Y-41200036D02*
X294042424Y-54999610D01*
X294042424Y-54999610D02*
X280130285Y-54999610D01*
X280130285Y-54999610D02*
X280130285Y-48370227D01*
X280130285Y-48370227D02*
X280129778Y-48362002D01*
X280129778Y-48362002D02*
X280128293Y-48353799D01*
X280128293Y-48353799D02*
X280125882Y-48345621D01*
X280125882Y-48345621D02*
X280122600Y-48337473D01*
X280122600Y-48337473D02*
X280118498Y-48329358D01*
X280118498Y-48329358D02*
X280113631Y-48321279D01*
X280113631Y-48321279D02*
X280108051Y-48313240D01*
X280108051Y-48313240D02*
X280101811Y-48305245D01*
X280101811Y-48305245D02*
X280094964Y-48297296D01*
X280094964Y-48297296D02*
X280087564Y-48289399D01*
X280087564Y-48289399D02*
X280071316Y-48273769D01*
X280071316Y-48273769D02*
X280053490Y-48258384D01*
X280053490Y-48258384D02*
X280034513Y-48243273D01*
X280034513Y-48243273D02*
X280014808Y-48228463D01*
X280014808Y-48228463D02*
X279994800Y-48213983D01*
X279994800Y-48213983D02*
X279955576Y-48186128D01*
X279955576Y-48186128D02*
X279937209Y-48172810D01*
X279937209Y-48172810D02*
X279920239Y-48159935D01*
X279920239Y-48159935D02*
X279905090Y-48147532D01*
X279905090Y-48147532D02*
X279892186Y-48135630D01*
X279892186Y-48135630D02*
X279880222Y-48124309D01*
X279880222Y-48124309D02*
X279867773Y-48113635D01*
X279867773Y-48113635D02*
X279854866Y-48103621D01*
X279854866Y-48103621D02*
X279841528Y-48094277D01*
X279841528Y-48094277D02*
X279827786Y-48085616D01*
X279827786Y-48085616D02*
X279813665Y-48077649D01*
X279813665Y-48077649D02*
X279799194Y-48070386D01*
X279799194Y-48070386D02*
X279784398Y-48063840D01*
X279784398Y-48063840D02*
X279769305Y-48058022D01*
X279769305Y-48058022D02*
X279753941Y-48052942D01*
X279753941Y-48052942D02*
X279738333Y-48048613D01*
X279738333Y-48048613D02*
X279722508Y-48045045D01*
X279722508Y-48045045D02*
X279706492Y-48042251D01*
X279706492Y-48042251D02*
X279690312Y-48040241D01*
X279690312Y-48040241D02*
X279673995Y-48039026D01*
X279673995Y-48039026D02*
X279657567Y-48038619D01*
X279657567Y-48038619D02*
X272203405Y-48038619D01*
X272203405Y-48038619D02*
X272186918Y-48039026D01*
X272186918Y-48039026D02*
X272170549Y-48040241D01*
X272170549Y-48040241D02*
X272154324Y-48042251D01*
X272154324Y-48042251D02*
X272138272Y-48045045D01*
X272138272Y-48045045D02*
X272122417Y-48048613D01*
X272122417Y-48048613D02*
X272106788Y-48052942D01*
X272106788Y-48052942D02*
X272091412Y-48058022D01*
X272091412Y-48058022D02*
X272076314Y-48063840D01*
X272076314Y-48063840D02*
X272061523Y-48070386D01*
X272061523Y-48070386D02*
X272047065Y-48077649D01*
X272047065Y-48077649D02*
X272032966Y-48085616D01*
X272032966Y-48085616D02*
X272019255Y-48094277D01*
X272019255Y-48094277D02*
X272005957Y-48103621D01*
X272005957Y-48103621D02*
X271993100Y-48113635D01*
X271993100Y-48113635D02*
X271980711Y-48124309D01*
X271980711Y-48124309D02*
X271968816Y-48135630D01*
X271968816Y-48135630D02*
X271955848Y-48147532D01*
X271955848Y-48147532D02*
X271940641Y-48159935D01*
X271940641Y-48159935D02*
X271905210Y-48186128D01*
X271905210Y-48186128D02*
X271865916Y-48213983D01*
X271865916Y-48213983D02*
X271826154Y-48243273D01*
X271826154Y-48243273D02*
X271807159Y-48258384D01*
X271807159Y-48258384D02*
X271789319Y-48273769D01*
X271789319Y-48273769D02*
X271773060Y-48289399D01*
X271773060Y-48289399D02*
X271758806Y-48305245D01*
X271758806Y-48305245D02*
X271752563Y-48313240D01*
X271752563Y-48313240D02*
X271746980Y-48321279D01*
X271746980Y-48321279D02*
X271742111Y-48329358D01*
X271742111Y-48329358D02*
X271738008Y-48337473D01*
X271738008Y-48337473D02*
X271734725Y-48345621D01*
X271734725Y-48345621D02*
X271732314Y-48353799D01*
X271732314Y-48353799D02*
X271730828Y-48362002D01*
X271730828Y-48362002D02*
X271730321Y-48370227D01*
X271730321Y-48370227D02*
X271730321Y-54999610D01*
X271730321Y-54999610D02*
X257742376Y-54999610D01*
X257742376Y-54999610D02*
X257742376Y-41200036D01*
X257742376Y-41200036D02*
X271730321Y-41200036D01*
X271730321Y-41200036D02*
X271730321Y-42920884D01*
X271730321Y-42920884D02*
X271730321Y-42920884D01*
X253922170Y-41200036D02*
X253922170Y-54999610D01*
X253922170Y-54999610D02*
X239922216Y-54999610D01*
X239922216Y-54999610D02*
X239922216Y-41200036D01*
X239922216Y-41200036D02*
X253922170Y-41200036D01*
X253922170Y-41200036D02*
X253922170Y-41200036D01*
X236057180Y-41200036D02*
X236057180Y-54999610D01*
X236057180Y-54999610D02*
X222057225Y-54999610D01*
X222057225Y-54999610D02*
X222057225Y-41200036D01*
X222057225Y-41200036D02*
X236057180Y-41200036D01*
X236057180Y-41200036D02*
X236057180Y-41200036D01*
X111038701Y-41200036D02*
X111038701Y-54999610D01*
X111038701Y-54999610D02*
X97038747Y-54999610D01*
X97038747Y-54999610D02*
X97038747Y-41200036D01*
X97038747Y-41200036D02*
X111038701Y-41200036D01*
X111038701Y-41200036D02*
X111038701Y-41200036D01*
X93180066Y-41200036D02*
X93180066Y-54999610D01*
X93180066Y-54999610D02*
X79180127Y-54999610D01*
X79180127Y-54999610D02*
X79180127Y-41200036D01*
X79180127Y-41200036D02*
X93180066Y-41200036D01*
X93180066Y-41200036D02*
X93180066Y-41200036D01*
X75321447Y-41200036D02*
X75321447Y-54999610D01*
X75321447Y-54999610D02*
X61321496Y-54999610D01*
X61321496Y-54999610D02*
X61321496Y-41200036D01*
X61321496Y-41200036D02*
X75321447Y-41200036D01*
X75321447Y-41200036D02*
X75321447Y-41200036D01*
X128900151Y-41200036D02*
X128900151Y-54999610D01*
X128900151Y-54999610D02*
X114900197Y-54999610D01*
X114900197Y-54999610D02*
X114900197Y-41200036D01*
X114900197Y-41200036D02*
X128900151Y-41200036D01*
X128900151Y-41200036D02*
X128900151Y-41200036D01*
X218196096Y-41200036D02*
X218196096Y-54999610D01*
X218196096Y-54999610D02*
X204196126Y-54999610D01*
X204196126Y-54999610D02*
X204196126Y-41200036D01*
X204196126Y-41200036D02*
X218196096Y-41200036D01*
X218196096Y-41200036D02*
X218196096Y-41200036D01*
X146758779Y-41200036D02*
X146758779Y-54999610D01*
X146758779Y-54999610D02*
X132758817Y-54999610D01*
X132758817Y-54999610D02*
X132758817Y-41200036D01*
X132758817Y-41200036D02*
X146758779Y-41200036D01*
X146758779Y-41200036D02*
X146758779Y-41200036D01*
X182478490Y-41200036D02*
X182478490Y-54999610D01*
X182478490Y-54999610D02*
X168476064Y-54999610D01*
X168476064Y-54999610D02*
X168476064Y-41200036D01*
X168476064Y-41200036D02*
X182478490Y-41200036D01*
X182478490Y-41200036D02*
X182478490Y-41200036D01*
X200337453Y-41200036D02*
X200337453Y-54999610D01*
X200337453Y-54999610D02*
X186337529Y-54999610D01*
X186337529Y-54999610D02*
X186337529Y-41200036D01*
X186337529Y-41200036D02*
X200337453Y-41200036D01*
X200337453Y-41200036D02*
X200337453Y-41200036D01*
X40319633Y-48038619D02*
X40196199Y-48035493D01*
X40196199Y-48035493D02*
X40074376Y-48026216D01*
X40074376Y-48026216D02*
X39954315Y-48010939D01*
X39954315Y-48010939D02*
X39836167Y-47989814D01*
X39836167Y-47989814D02*
X39720084Y-47962991D01*
X39720084Y-47962991D02*
X39606217Y-47930623D01*
X39606217Y-47930623D02*
X39494718Y-47892861D01*
X39494718Y-47892861D02*
X39385737Y-47849855D01*
X39385737Y-47849855D02*
X39279427Y-47801758D01*
X39279427Y-47801758D02*
X39175938Y-47748721D01*
X39175938Y-47748721D02*
X39075421Y-47690894D01*
X39075421Y-47690894D02*
X38978029Y-47628430D01*
X38978029Y-47628430D02*
X38883913Y-47561480D01*
X38883913Y-47561480D02*
X38793223Y-47490195D01*
X38793223Y-47490195D02*
X38706112Y-47414726D01*
X38706112Y-47414726D02*
X38622730Y-47335225D01*
X38622730Y-47335225D02*
X38543229Y-47251843D01*
X38543229Y-47251843D02*
X38467760Y-47164732D01*
X38467760Y-47164732D02*
X38396475Y-47074042D01*
X38396475Y-47074042D02*
X38329525Y-46979925D01*
X38329525Y-46979925D02*
X38267061Y-46882533D01*
X38267061Y-46882533D02*
X38209235Y-46782017D01*
X38209235Y-46782017D02*
X38156197Y-46678528D01*
X38156197Y-46678528D02*
X38108100Y-46572218D01*
X38108100Y-46572218D02*
X38065095Y-46463237D01*
X38065095Y-46463237D02*
X38027333Y-46351738D01*
X38027333Y-46351738D02*
X37994965Y-46237871D01*
X37994965Y-46237871D02*
X37968143Y-46121788D01*
X37968143Y-46121788D02*
X37947017Y-46003641D01*
X37947017Y-46003641D02*
X37931741Y-45883580D01*
X37931741Y-45883580D02*
X37922464Y-45761757D01*
X37922464Y-45761757D02*
X37919338Y-45638324D01*
X37919338Y-45638324D02*
X37922464Y-45514922D01*
X37922464Y-45514922D02*
X37931741Y-45393129D01*
X37931741Y-45393129D02*
X37947017Y-45273097D01*
X37947017Y-45273097D02*
X37968143Y-45154975D01*
X37968143Y-45154975D02*
X37994965Y-45038917D01*
X37994965Y-45038917D02*
X38027333Y-44925073D01*
X38027333Y-44925073D02*
X38065095Y-44813595D01*
X38065095Y-44813595D02*
X38108100Y-44704634D01*
X38108100Y-44704634D02*
X38156197Y-44598341D01*
X38156197Y-44598341D02*
X38209235Y-44494869D01*
X38209235Y-44494869D02*
X38267061Y-44394368D01*
X38267061Y-44394368D02*
X38329525Y-44296989D01*
X38329525Y-44296989D02*
X38396475Y-44202885D01*
X38396475Y-44202885D02*
X38467760Y-44112207D01*
X38467760Y-44112207D02*
X38543229Y-44025105D01*
X38543229Y-44025105D02*
X38622730Y-43941732D01*
X38622730Y-43941732D02*
X38706112Y-43862239D01*
X38706112Y-43862239D02*
X38793223Y-43786777D01*
X38793223Y-43786777D02*
X38883913Y-43715498D01*
X38883913Y-43715498D02*
X38978029Y-43648552D01*
X38978029Y-43648552D02*
X39075421Y-43586093D01*
X39075421Y-43586093D02*
X39175938Y-43528270D01*
X39175938Y-43528270D02*
X39279427Y-43475236D01*
X39279427Y-43475236D02*
X39385737Y-43427141D01*
X39385737Y-43427141D02*
X39494718Y-43384137D01*
X39494718Y-43384137D02*
X39606217Y-43346376D01*
X39606217Y-43346376D02*
X39720084Y-43314009D01*
X39720084Y-43314009D02*
X39836167Y-43287188D01*
X39836167Y-43287188D02*
X39954315Y-43266063D01*
X39954315Y-43266063D02*
X40074376Y-43250786D01*
X40074376Y-43250786D02*
X40196199Y-43241509D01*
X40196199Y-43241509D02*
X40319633Y-43238383D01*
X40319633Y-43238383D02*
X43431123Y-43238383D01*
X43431123Y-43238383D02*
X43431123Y-41200036D01*
X43431123Y-41200036D02*
X57443067Y-41200036D01*
X57443067Y-41200036D02*
X57443067Y-54999610D01*
X57443067Y-54999610D02*
X43431123Y-54999610D01*
X43431123Y-54999610D02*
X43431123Y-48038619D01*
X43431123Y-48038619D02*
X40319633Y-48038619D01*
X40319633Y-48038619D02*
X40319633Y-48038619D01*
X35141221Y-41200036D02*
X35141221Y-54999610D01*
X35141221Y-54999610D02*
X21141269Y-54999610D01*
X21141269Y-54999610D02*
X21141269Y-41200036D01*
X21141269Y-41200036D02*
X35141221Y-41200036D01*
X35141221Y-41200036D02*
X35141221Y-41200036D01*
X137830693Y-24199719D02*
X137830693Y-37999644D01*
X137830693Y-37999644D02*
X123830732Y-37999644D01*
X123830732Y-37999644D02*
X123830732Y-24199719D01*
X123830732Y-24199719D02*
X137830693Y-24199719D01*
X137830693Y-24199719D02*
X137830693Y-24199719D01*
X262846700Y-24199719D02*
X262846700Y-37999644D01*
X262846700Y-37999644D02*
X248846761Y-37999644D01*
X248846761Y-37999644D02*
X248846761Y-24199719D01*
X248846761Y-24199719D02*
X262846700Y-24199719D01*
X262846700Y-24199719D02*
X262846700Y-24199719D01*
X84251996Y-24199719D02*
X84251996Y-37999644D01*
X84251996Y-37999644D02*
X70252046Y-37999644D01*
X70252046Y-37999644D02*
X70252046Y-24199719D01*
X70252046Y-24199719D02*
X84251996Y-24199719D01*
X84251996Y-24199719D02*
X84251996Y-24199719D01*
X191409383Y-24199719D02*
X191409383Y-37999644D01*
X191409383Y-37999644D02*
X177409429Y-37999644D01*
X177409429Y-37999644D02*
X177409429Y-24199719D01*
X177409429Y-24199719D02*
X191409383Y-24199719D01*
X191409383Y-24199719D02*
X191409383Y-24199719D01*
X102110608Y-24199719D02*
X102110608Y-37999644D01*
X102110608Y-37999644D02*
X88110669Y-37999644D01*
X88110669Y-37999644D02*
X88110669Y-24199719D01*
X88110669Y-24199719D02*
X102110608Y-24199719D01*
X102110608Y-24199719D02*
X102110608Y-24199719D01*
X30673301Y-24199719D02*
X30673301Y-37999644D01*
X30673301Y-37999644D02*
X16673349Y-37999644D01*
X16673349Y-37999644D02*
X16673349Y-24199719D01*
X16673349Y-24199719D02*
X30673301Y-24199719D01*
X30673301Y-24199719D02*
X30673301Y-24199719D01*
X48534745Y-24199719D02*
X48534745Y-37999644D01*
X48534745Y-37999644D02*
X34534795Y-37999644D01*
X34534795Y-37999644D02*
X34534795Y-24199719D01*
X34534795Y-24199719D02*
X48534745Y-24199719D01*
X48534745Y-24199719D02*
X48534745Y-24199719D01*
X298563939Y-24199719D02*
X298563939Y-37999644D01*
X298563939Y-37999644D02*
X284563970Y-37999644D01*
X284563970Y-37999644D02*
X284563970Y-24199719D01*
X284563970Y-24199719D02*
X298563939Y-24199719D01*
X298563939Y-24199719D02*
X298563939Y-24199719D01*
X244987722Y-24199719D02*
X244987722Y-37999644D01*
X244987722Y-37999644D02*
X230985311Y-37999644D01*
X230985311Y-37999644D02*
X230985311Y-24199719D01*
X230985311Y-24199719D02*
X244987722Y-24199719D01*
X244987722Y-24199719D02*
X244987722Y-24199719D01*
X227126622Y-24199719D02*
X227126622Y-37999644D01*
X227126622Y-37999644D02*
X213126683Y-37999644D01*
X213126683Y-37999644D02*
X213126683Y-24199719D01*
X213126683Y-24199719D02*
X227126622Y-24199719D01*
X227126622Y-24199719D02*
X227126622Y-24199719D01*
X280705327Y-24199719D02*
X280705327Y-37999644D01*
X280705327Y-37999644D02*
X266705358Y-37999644D01*
X266705358Y-37999644D02*
X266705358Y-24199719D01*
X266705358Y-24199719D02*
X280705327Y-24199719D01*
X280705327Y-24199719D02*
X280705327Y-24199719D01*
X209242620Y-24199719D02*
X209242620Y-37999644D01*
X209242620Y-37999644D02*
X195242666Y-37999644D01*
X195242666Y-37999644D02*
X195242666Y-24199719D01*
X195242666Y-24199719D02*
X202708135Y-24199719D01*
X202708135Y-24199719D02*
X202708135Y-21589876D01*
X202708135Y-21589876D02*
X202710365Y-21502414D01*
X202710365Y-21502414D02*
X202717015Y-21415544D01*
X202717015Y-21415544D02*
X202728023Y-21329411D01*
X202728023Y-21329411D02*
X202743328Y-21244160D01*
X202743328Y-21244160D02*
X202762868Y-21159936D01*
X202762868Y-21159936D02*
X202786581Y-21076885D01*
X202786581Y-21076885D02*
X202814407Y-20995151D01*
X202814407Y-20995151D02*
X202846284Y-20914881D01*
X202846284Y-20914881D02*
X202882150Y-20836219D01*
X202882150Y-20836219D02*
X202921944Y-20759310D01*
X202921944Y-20759310D02*
X202965605Y-20684299D01*
X202965605Y-20684299D02*
X203013070Y-20611333D01*
X203013070Y-20611333D02*
X203064279Y-20540556D01*
X203064279Y-20540556D02*
X203119169Y-20472112D01*
X203119169Y-20472112D02*
X203177681Y-20406149D01*
X203177681Y-20406149D02*
X203239751Y-20342810D01*
X203239751Y-20342810D02*
X203304981Y-20282474D01*
X203304981Y-20282474D02*
X203372905Y-20225596D01*
X203372905Y-20225596D02*
X203443375Y-20172237D01*
X203443375Y-20172237D02*
X203516241Y-20122456D01*
X203516241Y-20122456D02*
X203591353Y-20076313D01*
X203591353Y-20076313D02*
X203668563Y-20033868D01*
X203668563Y-20033868D02*
X203747721Y-19995180D01*
X203747721Y-19995180D02*
X203828677Y-19960311D01*
X203828677Y-19960311D02*
X203911283Y-19929319D01*
X203911283Y-19929319D02*
X203995389Y-19902266D01*
X203995389Y-19902266D02*
X204080844Y-19879209D01*
X204080844Y-19879209D02*
X204167501Y-19860211D01*
X204167501Y-19860211D02*
X204255210Y-19845330D01*
X204255210Y-19845330D02*
X204343821Y-19834626D01*
X204343821Y-19834626D02*
X204433185Y-19828160D01*
X204433185Y-19828160D02*
X204523153Y-19825992D01*
X204523153Y-19825992D02*
X206111715Y-19825992D01*
X206111715Y-19825992D02*
X206201749Y-19828160D01*
X206201749Y-19828160D02*
X206291171Y-19834626D01*
X206291171Y-19834626D02*
X206379831Y-19845330D01*
X206379831Y-19845330D02*
X206467582Y-19860211D01*
X206467582Y-19860211D02*
X206554274Y-19879209D01*
X206554274Y-19879209D02*
X206639758Y-19902266D01*
X206639758Y-19902266D02*
X206723887Y-19929319D01*
X206723887Y-19929319D02*
X206806510Y-19960311D01*
X206806510Y-19960311D02*
X206887480Y-19995180D01*
X206887480Y-19995180D02*
X206966648Y-20033868D01*
X206966648Y-20033868D02*
X207043865Y-20076313D01*
X207043865Y-20076313D02*
X207118983Y-20122456D01*
X207118983Y-20122456D02*
X207191852Y-20172237D01*
X207191852Y-20172237D02*
X207262324Y-20225596D01*
X207262324Y-20225596D02*
X207330250Y-20282474D01*
X207330250Y-20282474D02*
X207395482Y-20342810D01*
X207395482Y-20342810D02*
X207457493Y-20406149D01*
X207457493Y-20406149D02*
X207515960Y-20472112D01*
X207515960Y-20472112D02*
X207570820Y-20540556D01*
X207570820Y-20540556D02*
X207622011Y-20611333D01*
X207622011Y-20611333D02*
X207669470Y-20684299D01*
X207669470Y-20684299D02*
X207713133Y-20759310D01*
X207713133Y-20759310D02*
X207752937Y-20836219D01*
X207752937Y-20836219D02*
X207788820Y-20914881D01*
X207788820Y-20914881D02*
X207820717Y-20995151D01*
X207820717Y-20995151D02*
X207848566Y-21076885D01*
X207848566Y-21076885D02*
X207872304Y-21159936D01*
X207872304Y-21159936D02*
X207891867Y-21244160D01*
X207891867Y-21244160D02*
X207907193Y-21329411D01*
X207907193Y-21329411D02*
X207918218Y-21415544D01*
X207918218Y-21415544D02*
X207924879Y-21502414D01*
X207924879Y-21502414D02*
X207927114Y-21589876D01*
X207927114Y-21589876D02*
X207927114Y-24199719D01*
X207927114Y-24199719D02*
X209242620Y-24199719D01*
X209242620Y-24199719D02*
X209242620Y-24199719D01*
X119942785Y-24199719D02*
X119942785Y-37999644D01*
X119942785Y-37999644D02*
X105942830Y-37999644D01*
X105942830Y-37999644D02*
X105942830Y-24199719D01*
X105942830Y-24199719D02*
X107305967Y-24199719D01*
X107305967Y-24199719D02*
X107305967Y-21589876D01*
X107305967Y-21589876D02*
X107308328Y-21499120D01*
X107308328Y-21499120D02*
X107315335Y-21409554D01*
X107315335Y-21409554D02*
X107326876Y-21321288D01*
X107326876Y-21321288D02*
X107342834Y-21234434D01*
X107342834Y-21234434D02*
X107363098Y-21149103D01*
X107363098Y-21149103D02*
X107387552Y-21065406D01*
X107387552Y-21065406D02*
X107416082Y-20983453D01*
X107416082Y-20983453D02*
X107448576Y-20903355D01*
X107448576Y-20903355D02*
X107484918Y-20825224D01*
X107484918Y-20825224D02*
X107524995Y-20749170D01*
X107524995Y-20749170D02*
X107568694Y-20675304D01*
X107568694Y-20675304D02*
X107615899Y-20603737D01*
X107615899Y-20603737D02*
X107666497Y-20534580D01*
X107666497Y-20534580D02*
X107720375Y-20467943D01*
X107720375Y-20467943D02*
X107777417Y-20403939D01*
X107777417Y-20403939D02*
X107837511Y-20342677D01*
X107837511Y-20342677D02*
X107900543Y-20284269D01*
X107900543Y-20284269D02*
X107966397Y-20228825D01*
X107966397Y-20228825D02*
X108034961Y-20176457D01*
X108034961Y-20176457D02*
X108106121Y-20127274D01*
X108106121Y-20127274D02*
X108179762Y-20081390D01*
X108179762Y-20081390D02*
X108255770Y-20038913D01*
X108255770Y-20038913D02*
X108334033Y-19999955D01*
X108334033Y-19999955D02*
X108414435Y-19964627D01*
X108414435Y-19964627D02*
X108496862Y-19933040D01*
X108496862Y-19933040D02*
X108581202Y-19905305D01*
X108581202Y-19905305D02*
X108667339Y-19881532D01*
X108667339Y-19881532D02*
X108755161Y-19861833D01*
X108755161Y-19861833D02*
X108844552Y-19846319D01*
X108844552Y-19846319D02*
X108935400Y-19835100D01*
X108935400Y-19835100D02*
X109027589Y-19828287D01*
X109027589Y-19828287D02*
X109121007Y-19825992D01*
X109121007Y-19825992D02*
X110673215Y-19825992D01*
X110673215Y-19825992D02*
X110766601Y-19828287D01*
X110766601Y-19828287D02*
X110858764Y-19835100D01*
X110858764Y-19835100D02*
X110949587Y-19846319D01*
X110949587Y-19846319D02*
X111038959Y-19861833D01*
X111038959Y-19861833D02*
X111126764Y-19881532D01*
X111126764Y-19881532D02*
X111212888Y-19905305D01*
X111212888Y-19905305D02*
X111297217Y-19933040D01*
X111297217Y-19933040D02*
X111379638Y-19964627D01*
X111379638Y-19964627D02*
X111460035Y-19999955D01*
X111460035Y-19999955D02*
X111538295Y-20038913D01*
X111538295Y-20038913D02*
X111614304Y-20081390D01*
X111614304Y-20081390D02*
X111687947Y-20127274D01*
X111687947Y-20127274D02*
X111759110Y-20176457D01*
X111759110Y-20176457D02*
X111827679Y-20228825D01*
X111827679Y-20228825D02*
X111893541Y-20284269D01*
X111893541Y-20284269D02*
X111956580Y-20342677D01*
X111956580Y-20342677D02*
X112016684Y-20403939D01*
X112016684Y-20403939D02*
X112073736Y-20467943D01*
X112073736Y-20467943D02*
X112127625Y-20534580D01*
X112127625Y-20534580D02*
X112178234Y-20603737D01*
X112178234Y-20603737D02*
X112225451Y-20675304D01*
X112225451Y-20675304D02*
X112269161Y-20749170D01*
X112269161Y-20749170D02*
X112309249Y-20825224D01*
X112309249Y-20825224D02*
X112345603Y-20903355D01*
X112345603Y-20903355D02*
X112378106Y-20983453D01*
X112378106Y-20983453D02*
X112406647Y-21065406D01*
X112406647Y-21065406D02*
X112431110Y-21149103D01*
X112431110Y-21149103D02*
X112451381Y-21234434D01*
X112451381Y-21234434D02*
X112467346Y-21321288D01*
X112467346Y-21321288D02*
X112478890Y-21409554D01*
X112478890Y-21409554D02*
X112485901Y-21499120D01*
X112485901Y-21499120D02*
X112488263Y-21589876D01*
X112488263Y-21589876D02*
X112488263Y-24199719D01*
X112488263Y-24199719D02*
X119942785Y-24199719D01*
X119942785Y-24199719D02*
X119942785Y-24199719D01*
X66393369Y-24199719D02*
X66393369Y-37999644D01*
X66393369Y-37999644D02*
X52393422Y-37999644D01*
X52393422Y-37999644D02*
X52393422Y-24199719D01*
X52393422Y-24199719D02*
X66393369Y-24199719D01*
X66393369Y-24199719D02*
X66393369Y-24199719D01*
M02*
