%TF.GenerationSoftware,KiCad,Pcbnew,(6.0.0-0)*%
%TF.CreationDate,2022-01-09T15:46:46+09:00*%
%TF.ProjectId,keyplate,6b657970-6c61-4746-952e-6b696361645f,rev?*%
%TF.SameCoordinates,Original*%
%TF.FileFunction,Profile,NP*%
%FSLAX46Y46*%
G04 Gerber Fmt 4.6, Leading zero omitted, Abs format (unit mm)*
G04 Created by KiCad (PCBNEW (6.0.0-0)) date 2022-01-09 15:46:46*
%MOMM*%
%LPD*%
G01*
G04 APERTURE LIST*
%TA.AperFunction,Profile*%
%ADD10C,0.352776*%
%TD*%
G04 APERTURE END LIST*
D10*
X20977226Y-75200324D02*
X20921380Y-75198912D01*
X20921380Y-75198912D02*
X20866267Y-75194722D01*
X20866267Y-75194722D02*
X20811956Y-75187822D01*
X20811956Y-75187822D02*
X20758515Y-75178280D01*
X20758515Y-75178280D02*
X20706013Y-75166164D01*
X20706013Y-75166164D02*
X20654516Y-75151543D01*
X20654516Y-75151543D02*
X20604094Y-75134484D01*
X20604094Y-75134484D02*
X20554815Y-75115056D01*
X20554815Y-75115056D02*
X20506746Y-75093327D01*
X20506746Y-75093327D02*
X20459957Y-75069365D01*
X20459957Y-75069365D02*
X20414514Y-75043238D01*
X20414514Y-75043238D02*
X20370487Y-75015014D01*
X20370487Y-75015014D02*
X20327943Y-74984762D01*
X20327943Y-74984762D02*
X20286951Y-74952549D01*
X20286951Y-74952549D02*
X20247578Y-74918444D01*
X20247578Y-74918444D02*
X20209893Y-74882515D01*
X20209893Y-74882515D02*
X20173964Y-74844830D01*
X20173964Y-74844830D02*
X20139859Y-74805457D01*
X20139859Y-74805457D02*
X20107646Y-74764465D01*
X20107646Y-74764465D02*
X20077394Y-74721921D01*
X20077394Y-74721921D02*
X20049170Y-74677893D01*
X20049170Y-74677893D02*
X20023043Y-74632451D01*
X20023043Y-74632451D02*
X19999081Y-74585661D01*
X19999081Y-74585661D02*
X19977352Y-74537592D01*
X19977352Y-74537592D02*
X19957924Y-74488313D01*
X19957924Y-74488313D02*
X19940865Y-74437891D01*
X19940865Y-74437891D02*
X19926244Y-74386394D01*
X19926244Y-74386394D02*
X19914128Y-74333892D01*
X19914128Y-74333892D02*
X19904586Y-74280451D01*
X19904586Y-74280451D02*
X19897686Y-74226140D01*
X19897686Y-74226140D02*
X19893496Y-74171027D01*
X19893496Y-74171027D02*
X19892084Y-74115180D01*
X19892084Y-74115180D02*
X19892084Y-74114470D01*
X19892084Y-74114470D02*
X19888928Y-73987242D01*
X19888928Y-73987242D02*
X19879517Y-73860885D01*
X19879517Y-73860885D02*
X19863937Y-73735609D01*
X19863937Y-73735609D02*
X19842277Y-73611627D01*
X19842277Y-73611627D02*
X19814622Y-73489147D01*
X19814622Y-73489147D02*
X19781059Y-73368380D01*
X19781059Y-73368380D02*
X19741676Y-73249536D01*
X19741676Y-73249536D02*
X19696558Y-73132826D01*
X19696558Y-73132826D02*
X19645793Y-73018460D01*
X19645793Y-73018460D02*
X19589468Y-72906649D01*
X19589468Y-72906649D02*
X19527670Y-72797602D01*
X19527670Y-72797602D02*
X19460485Y-72691530D01*
X19460485Y-72691530D02*
X19387999Y-72588644D01*
X19387999Y-72588644D02*
X19310301Y-72489153D01*
X19310301Y-72489153D02*
X19227477Y-72393268D01*
X19227477Y-72393268D02*
X19139612Y-72301200D01*
X19139612Y-72301200D02*
X19047350Y-72213537D01*
X19047350Y-72213537D02*
X18951280Y-72130923D01*
X18951280Y-72130923D02*
X18851614Y-72053442D01*
X18851614Y-72053442D02*
X18748565Y-71981180D01*
X18748565Y-71981180D02*
X18642342Y-71914226D01*
X18642342Y-71914226D02*
X18533158Y-71852663D01*
X18533158Y-71852663D02*
X18421223Y-71796580D01*
X18421223Y-71796580D02*
X18306750Y-71746061D01*
X18306750Y-71746061D02*
X18189949Y-71701194D01*
X18189949Y-71701194D02*
X18071032Y-71662064D01*
X18071032Y-71662064D02*
X17950211Y-71628759D01*
X17950211Y-71628759D02*
X17827696Y-71601363D01*
X17827696Y-71601363D02*
X17703698Y-71579964D01*
X17703698Y-71579964D02*
X17578430Y-71564647D01*
X17578430Y-71564647D02*
X17452103Y-71555500D01*
X17452103Y-71555500D02*
X17324928Y-71552607D01*
X17324928Y-71552607D02*
X15430868Y-71556491D01*
X15430868Y-71556491D02*
X15077386Y-71410087D01*
X15077386Y-71410087D02*
X14930984Y-71056605D01*
X14930984Y-71056605D02*
X14932042Y-19575167D01*
X14932042Y-19575167D02*
X14938040Y-19418181D01*
X14938040Y-19418181D02*
X14956031Y-19261901D01*
X14956031Y-19261901D02*
X14987075Y-19108091D01*
X14987075Y-19108091D02*
X15029056Y-18956043D01*
X15029056Y-18956043D02*
X15084089Y-18808935D01*
X15084089Y-18808935D02*
X15149000Y-18667119D01*
X15149000Y-18667119D02*
X15225905Y-18529889D01*
X15225905Y-18529889D02*
X15313041Y-18399009D01*
X15313041Y-18399009D02*
X15411113Y-18275889D01*
X15411113Y-18275889D02*
X15516947Y-18160179D01*
X15516947Y-18160179D02*
X15633009Y-18053993D01*
X15633009Y-18053993D02*
X15756129Y-17955921D01*
X15756129Y-17955921D02*
X15887009Y-17869138D01*
X15887009Y-17869138D02*
X16023887Y-17791880D01*
X16023887Y-17791880D02*
X16166056Y-17726969D01*
X16166056Y-17726969D02*
X16313164Y-17671935D01*
X16313164Y-17671935D02*
X16464858Y-17629955D01*
X16464858Y-17629955D02*
X16619021Y-17598911D01*
X16619021Y-17598911D02*
X16774949Y-17580919D01*
X16774949Y-17580919D02*
X16931934Y-17573863D01*
X16931934Y-17573863D02*
X298306432Y-17574921D01*
X298306432Y-17574921D02*
X298462346Y-17580919D01*
X298462346Y-17580919D02*
X298618291Y-17598911D01*
X298618291Y-17598911D02*
X298772435Y-17629955D01*
X298772435Y-17629955D02*
X298925206Y-17671935D01*
X298925206Y-17671935D02*
X299071264Y-17726969D01*
X299071264Y-17726969D02*
X299213414Y-17791880D01*
X299213414Y-17791880D02*
X299350286Y-17869138D01*
X299350286Y-17869138D02*
X299481176Y-17955921D01*
X299481176Y-17955921D02*
X299604284Y-18053993D01*
X299604284Y-18053993D02*
X299720372Y-18160179D01*
X299720372Y-18160179D02*
X299826177Y-18275889D01*
X299826177Y-18275889D02*
X299925328Y-18399009D01*
X299925328Y-18399009D02*
X300011388Y-18529889D01*
X300011388Y-18529889D02*
X300088292Y-18667119D01*
X300088292Y-18667119D02*
X300153203Y-18808935D01*
X300153203Y-18808935D02*
X300208257Y-18956043D01*
X300208257Y-18956043D02*
X300250249Y-19108091D01*
X300250249Y-19108091D02*
X300281286Y-19261901D01*
X300281286Y-19261901D02*
X300300328Y-19418181D01*
X300300328Y-19418181D02*
X300306310Y-19575167D01*
X300306310Y-19575167D02*
X300306310Y-65800578D01*
X300306310Y-65800578D02*
X300304014Y-65891335D01*
X300304014Y-65891335D02*
X300297201Y-65980901D01*
X300297201Y-65980901D02*
X300285982Y-66069167D01*
X300285982Y-66069167D02*
X300270467Y-66156021D01*
X300270467Y-66156021D02*
X300250768Y-66241352D01*
X300250768Y-66241352D02*
X300226995Y-66325050D01*
X300226995Y-66325050D02*
X300199259Y-66407003D01*
X300199259Y-66407003D02*
X300167671Y-66487101D01*
X300167671Y-66487101D02*
X300132343Y-66565232D01*
X300132343Y-66565232D02*
X300093385Y-66641286D01*
X300093385Y-66641286D02*
X300050907Y-66715152D01*
X300050907Y-66715152D02*
X300005022Y-66786719D01*
X300005022Y-66786719D02*
X299955839Y-66855876D01*
X299955839Y-66855876D02*
X299903470Y-66922513D01*
X299903470Y-66922513D02*
X299848026Y-66986517D01*
X299848026Y-66986517D02*
X299789617Y-67047779D01*
X299789617Y-67047779D02*
X299728355Y-67106187D01*
X299728355Y-67106187D02*
X299664350Y-67161631D01*
X299664350Y-67161631D02*
X299597713Y-67213999D01*
X299597713Y-67213999D02*
X299528556Y-67263181D01*
X299528556Y-67263181D02*
X299456989Y-67309066D01*
X299456989Y-67309066D02*
X299383123Y-67351543D01*
X299383123Y-67351543D02*
X299307069Y-67390500D01*
X299307069Y-67390500D02*
X299228937Y-67425828D01*
X299228937Y-67425828D02*
X299148840Y-67457415D01*
X299148840Y-67457415D02*
X299066888Y-67485150D01*
X299066888Y-67485150D02*
X298983191Y-67508923D01*
X298983191Y-67508923D02*
X298897861Y-67528622D01*
X298897861Y-67528622D02*
X298811008Y-67544136D01*
X298811008Y-67544136D02*
X298722744Y-67555355D01*
X298722744Y-67555355D02*
X298633179Y-67562168D01*
X298633179Y-67562168D02*
X298542424Y-67564463D01*
X298542424Y-67564463D02*
X295762548Y-67564463D01*
X295762548Y-67564463D02*
X295675082Y-67562295D01*
X295675082Y-67562295D02*
X295588209Y-67555829D01*
X295588209Y-67555829D02*
X295502073Y-67545126D01*
X295502073Y-67545126D02*
X295416818Y-67530245D01*
X295416818Y-67530245D02*
X295332589Y-67511246D01*
X295332589Y-67511246D02*
X295249531Y-67488191D01*
X295249531Y-67488191D02*
X295167787Y-67461137D01*
X295167787Y-67461137D02*
X295087503Y-67430146D01*
X295087503Y-67430146D02*
X295008822Y-67395276D01*
X295008822Y-67395276D02*
X294931891Y-67356589D01*
X294931891Y-67356589D02*
X294856852Y-67314145D01*
X294856852Y-67314145D02*
X294783850Y-67268002D01*
X294783850Y-67268002D02*
X294713031Y-67218221D01*
X294713031Y-67218221D02*
X294644539Y-67164861D01*
X294644539Y-67164861D02*
X294578517Y-67107984D01*
X294578517Y-67107984D02*
X294515111Y-67047648D01*
X294515111Y-67047648D02*
X294485218Y-67016316D01*
X294485218Y-67016316D02*
X294457523Y-66984309D01*
X294457523Y-66984309D02*
X294431944Y-66951646D01*
X294431944Y-66951646D02*
X294408398Y-66918345D01*
X294408398Y-66918345D02*
X294386805Y-66884425D01*
X294386805Y-66884425D02*
X294367082Y-66849902D01*
X294367082Y-66849902D02*
X294349148Y-66814796D01*
X294349148Y-66814796D02*
X294332919Y-66779125D01*
X294332919Y-66779125D02*
X294318316Y-66742906D01*
X294318316Y-66742906D02*
X294305255Y-66706158D01*
X294305255Y-66706158D02*
X294283433Y-66631147D01*
X294283433Y-66631147D02*
X294266799Y-66554238D01*
X294266799Y-66554238D02*
X294254697Y-66475576D01*
X294254697Y-66475576D02*
X294246473Y-66395305D01*
X294246473Y-66395305D02*
X294241471Y-66313571D01*
X294241471Y-66313571D02*
X294239036Y-66230520D01*
X294239036Y-66230520D02*
X294238513Y-66146296D01*
X294238513Y-66146296D02*
X294242437Y-65800578D01*
X294242437Y-65800578D02*
X294242437Y-58200354D01*
X294242437Y-58200354D02*
X279995183Y-58200709D01*
X279995183Y-58200709D02*
X279995183Y-72000632D01*
X279995183Y-72000632D02*
X293587346Y-71998870D01*
X293587346Y-71998870D02*
X293644601Y-72000290D01*
X293644601Y-72000290D02*
X293701470Y-72004523D01*
X293701470Y-72004523D02*
X293757860Y-72011530D01*
X293757860Y-72011530D02*
X293813675Y-72021272D01*
X293813675Y-72021272D02*
X293868820Y-72033709D01*
X293868820Y-72033709D02*
X293923201Y-72048803D01*
X293923201Y-72048803D02*
X293976721Y-72066513D01*
X293976721Y-72066513D02*
X294029287Y-72086801D01*
X294029287Y-72086801D02*
X294080802Y-72109628D01*
X294080802Y-72109628D02*
X294131173Y-72134954D01*
X294131173Y-72134954D02*
X294180303Y-72162739D01*
X294180303Y-72162739D02*
X294228098Y-72192945D01*
X294228098Y-72192945D02*
X294274463Y-72225532D01*
X294274463Y-72225532D02*
X294319303Y-72260461D01*
X294319303Y-72260461D02*
X294362523Y-72297693D01*
X294362523Y-72297693D02*
X294404027Y-72337188D01*
X294404027Y-72337188D02*
X294443519Y-72378686D01*
X294443519Y-72378686D02*
X294480747Y-72421893D01*
X294480747Y-72421893D02*
X294515675Y-72466716D01*
X294515675Y-72466716D02*
X294548260Y-72513060D01*
X294548260Y-72513060D02*
X294578466Y-72560834D01*
X294578466Y-72560834D02*
X294606251Y-72609942D01*
X294606251Y-72609942D02*
X294631577Y-72660292D01*
X294631577Y-72660292D02*
X294654405Y-72711789D01*
X294654405Y-72711789D02*
X294674694Y-72764341D01*
X294674694Y-72764341D02*
X294692406Y-72817853D01*
X294692406Y-72817853D02*
X294707501Y-72872233D01*
X294707501Y-72872233D02*
X294719940Y-72927386D01*
X294719940Y-72927386D02*
X294729683Y-72983220D01*
X294729683Y-72983220D02*
X294736691Y-73039640D01*
X294736691Y-73039640D02*
X294740925Y-73096552D01*
X294740925Y-73096552D02*
X294742345Y-73153865D01*
X294742345Y-73153865D02*
X294742345Y-74045329D01*
X294742345Y-74045329D02*
X294740842Y-74104759D01*
X294740842Y-74104759D02*
X294736381Y-74163410D01*
X294736381Y-74163410D02*
X294729035Y-74221208D01*
X294729035Y-74221208D02*
X294718877Y-74278082D01*
X294718877Y-74278082D02*
X294705978Y-74333959D01*
X294705978Y-74333959D02*
X294690413Y-74388765D01*
X294690413Y-74388765D02*
X294672252Y-74442429D01*
X294672252Y-74442429D02*
X294651570Y-74494878D01*
X294651570Y-74494878D02*
X294628438Y-74546039D01*
X294628438Y-74546039D02*
X294602929Y-74595839D01*
X294602929Y-74595839D02*
X294575116Y-74644207D01*
X294575116Y-74644207D02*
X294545071Y-74691069D01*
X294545071Y-74691069D02*
X294512867Y-74736353D01*
X294512867Y-74736353D02*
X294478577Y-74779986D01*
X294478577Y-74779986D02*
X294442273Y-74821896D01*
X294442273Y-74821896D02*
X294404027Y-74862009D01*
X294404027Y-74862009D02*
X294363913Y-74900254D01*
X294363913Y-74900254D02*
X294322003Y-74936558D01*
X294322003Y-74936558D02*
X294278370Y-74970848D01*
X294278370Y-74970848D02*
X294233086Y-75003052D01*
X294233086Y-75003052D02*
X294186224Y-75033096D01*
X294186224Y-75033096D02*
X294137856Y-75060909D01*
X294137856Y-75060909D02*
X294088055Y-75086418D01*
X294088055Y-75086418D02*
X294036894Y-75109550D01*
X294036894Y-75109550D02*
X293984445Y-75130232D01*
X293984445Y-75130232D02*
X293930781Y-75148392D01*
X293930781Y-75148392D02*
X293875975Y-75163958D01*
X293875975Y-75163958D02*
X293820099Y-75176856D01*
X293820099Y-75176856D02*
X293763225Y-75187014D01*
X293763225Y-75187014D02*
X293705427Y-75194360D01*
X293705427Y-75194360D02*
X293646776Y-75198821D01*
X293646776Y-75198821D02*
X293587346Y-75200324D01*
X293587346Y-75200324D02*
X284465581Y-75200324D01*
X284465581Y-75200324D02*
X284465581Y-89000251D01*
X284465581Y-89000251D02*
X298542424Y-89000251D01*
X298542424Y-89000251D02*
X298629890Y-89002415D01*
X298629890Y-89002415D02*
X298716763Y-89008870D01*
X298716763Y-89008870D02*
X298802899Y-89019556D01*
X298802899Y-89019556D02*
X298888154Y-89034414D01*
X298888154Y-89034414D02*
X298972383Y-89053386D01*
X298972383Y-89053386D02*
X299055441Y-89076412D01*
X299055441Y-89076412D02*
X299137185Y-89103433D01*
X299137185Y-89103433D02*
X299217469Y-89134392D01*
X299217469Y-89134392D02*
X299296150Y-89169228D01*
X299296150Y-89169228D02*
X299373082Y-89207883D01*
X299373082Y-89207883D02*
X299448120Y-89250298D01*
X299448120Y-89250298D02*
X299521122Y-89296415D01*
X299521122Y-89296415D02*
X299591941Y-89346174D01*
X299591941Y-89346174D02*
X299660434Y-89399516D01*
X299660434Y-89399516D02*
X299726455Y-89456383D01*
X299726455Y-89456383D02*
X299789861Y-89516715D01*
X299789861Y-89516715D02*
X299850132Y-89580116D01*
X299850132Y-89580116D02*
X299906952Y-89646134D01*
X299906952Y-89646134D02*
X299960262Y-89714623D01*
X299960262Y-89714623D02*
X300010001Y-89785441D01*
X300010001Y-89785441D02*
X300056108Y-89858441D01*
X300056108Y-89858441D02*
X300098524Y-89933480D01*
X300098524Y-89933480D02*
X300137187Y-90010412D01*
X300137187Y-90010412D02*
X300172036Y-90089093D01*
X300172036Y-90089093D02*
X300203013Y-90169378D01*
X300203013Y-90169378D02*
X300230055Y-90251123D01*
X300230055Y-90251123D02*
X300253103Y-90334182D01*
X300253103Y-90334182D02*
X300272096Y-90418411D01*
X300272096Y-90418411D02*
X300286974Y-90503666D01*
X300286974Y-90503666D02*
X300297676Y-90589802D01*
X300297676Y-90589802D02*
X300304141Y-90676673D01*
X300304141Y-90676673D02*
X300306310Y-90764136D01*
X300306310Y-90764136D02*
X300306310Y-110501639D01*
X300306310Y-110501639D02*
X300300328Y-110656859D01*
X300300328Y-110656859D02*
X300281286Y-110812796D01*
X300281286Y-110812796D02*
X300250249Y-110966956D01*
X300250249Y-110966956D02*
X300208257Y-111118659D01*
X300208257Y-111118659D02*
X300153203Y-111266814D01*
X300153203Y-111266814D02*
X300088292Y-111407920D01*
X300088292Y-111407920D02*
X300011388Y-111544799D01*
X300011388Y-111544799D02*
X299925328Y-111675689D01*
X299925328Y-111675689D02*
X299826177Y-111799872D01*
X299826177Y-111799872D02*
X299720372Y-111915923D01*
X299720372Y-111915923D02*
X299604284Y-112020697D01*
X299604284Y-112020697D02*
X299481176Y-112118773D01*
X299481176Y-112118773D02*
X299350286Y-112205909D01*
X299350286Y-112205909D02*
X299213414Y-112282813D01*
X299213414Y-112282813D02*
X299071264Y-112347724D01*
X299071264Y-112347724D02*
X298925206Y-112403815D01*
X298925206Y-112403815D02*
X298772435Y-112445800D01*
X298772435Y-112445800D02*
X298618291Y-112475783D01*
X298618291Y-112475783D02*
X298462346Y-112493773D01*
X298462346Y-112493773D02*
X298306432Y-112499770D01*
X298306432Y-112499770D02*
X16931934Y-112501891D01*
X16931934Y-112501891D02*
X16774949Y-112493773D01*
X16774949Y-112493773D02*
X16619021Y-112475783D01*
X16619021Y-112475783D02*
X16464858Y-112445800D01*
X16464858Y-112445800D02*
X16313164Y-112403815D01*
X16313164Y-112403815D02*
X16166056Y-112347724D01*
X16166056Y-112347724D02*
X16023887Y-112282813D01*
X16023887Y-112282813D02*
X15887009Y-112205909D01*
X15887009Y-112205909D02*
X15756129Y-112118773D01*
X15756129Y-112118773D02*
X15633009Y-112020697D01*
X15633009Y-112020697D02*
X15516947Y-111915923D01*
X15516947Y-111915923D02*
X15411113Y-111799872D01*
X15411113Y-111799872D02*
X15313041Y-111675689D01*
X15313041Y-111675689D02*
X15225905Y-111544799D01*
X15225905Y-111544799D02*
X15149000Y-111407920D01*
X15149000Y-111407920D02*
X15084089Y-111266814D01*
X15084089Y-111266814D02*
X15029056Y-111118659D01*
X15029056Y-111118659D02*
X14987075Y-110966956D01*
X14987075Y-110966956D02*
X14956031Y-110812796D01*
X14956031Y-110812796D02*
X14938040Y-110656859D01*
X14938040Y-110656859D02*
X14930984Y-110501639D01*
X14930984Y-110501639D02*
X14930984Y-90764136D01*
X14930984Y-90764136D02*
X14933153Y-90676673D01*
X14933153Y-90676673D02*
X14939619Y-90589802D01*
X14939619Y-90589802D02*
X14950322Y-90503666D01*
X14950322Y-90503666D02*
X14965203Y-90418411D01*
X14965203Y-90418411D02*
X14984202Y-90334182D01*
X14984202Y-90334182D02*
X15007258Y-90251123D01*
X15007258Y-90251123D02*
X15034312Y-90169378D01*
X15034312Y-90169378D02*
X15065304Y-90089093D01*
X15065304Y-90089093D02*
X15100173Y-90010412D01*
X15100173Y-90010412D02*
X15138860Y-89933480D01*
X15138860Y-89933480D02*
X15181305Y-89858441D01*
X15181305Y-89858441D02*
X15227449Y-89785441D01*
X15227449Y-89785441D02*
X15277230Y-89714623D01*
X15277230Y-89714623D02*
X15330589Y-89646134D01*
X15330589Y-89646134D02*
X15387466Y-89580116D01*
X15387466Y-89580116D02*
X15447802Y-89516715D01*
X15447802Y-89516715D02*
X15511141Y-89456383D01*
X15511141Y-89456383D02*
X15577105Y-89399516D01*
X15577105Y-89399516D02*
X15645548Y-89346174D01*
X15645548Y-89346174D02*
X15716326Y-89296415D01*
X15716326Y-89296415D02*
X15789292Y-89250298D01*
X15789292Y-89250298D02*
X15864303Y-89207883D01*
X15864303Y-89207883D02*
X15941211Y-89169228D01*
X15941211Y-89169228D02*
X16019874Y-89134392D01*
X16019874Y-89134392D02*
X16100144Y-89103433D01*
X16100144Y-89103433D02*
X16181878Y-89076412D01*
X16181878Y-89076412D02*
X16264929Y-89053386D01*
X16264929Y-89053386D02*
X16349152Y-89034414D01*
X16349152Y-89034414D02*
X16434403Y-89019556D01*
X16434403Y-89019556D02*
X16520536Y-89008870D01*
X16520536Y-89008870D02*
X16607407Y-89002415D01*
X16607407Y-89002415D02*
X16694868Y-89000251D01*
X16694868Y-89000251D02*
X30743148Y-89000251D01*
X30743148Y-89000251D02*
X30743148Y-75200324D01*
X30743148Y-75200324D02*
X20977226Y-75200324D01*
X20977226Y-75200324D02*
X20977226Y-75200324D01*
X231696843Y-92205932D02*
X231696843Y-106005500D01*
X231696843Y-106005500D02*
X217496877Y-106005500D01*
X217496877Y-106005500D02*
X217496877Y-92205932D01*
X217496877Y-92205932D02*
X231696843Y-92205932D01*
X231696843Y-92205932D02*
X231696843Y-92205932D01*
X209367849Y-92204169D02*
X209367849Y-106003737D01*
X209367849Y-106003737D02*
X195167867Y-106003737D01*
X195167867Y-106003737D02*
X195167867Y-92204169D01*
X195167867Y-92204169D02*
X209367849Y-92204169D01*
X209367849Y-92204169D02*
X209367849Y-92204169D01*
X187043782Y-92204169D02*
X187043782Y-106003737D01*
X187043782Y-106003737D02*
X172843801Y-106003737D01*
X172843801Y-106003737D02*
X172843801Y-92204169D01*
X172843801Y-92204169D02*
X187043782Y-92204169D01*
X187043782Y-92204169D02*
X187043782Y-92204169D01*
X142398458Y-92204169D02*
X142398458Y-106003737D01*
X142398458Y-106003737D02*
X128198468Y-106003737D01*
X128198468Y-106003737D02*
X128198468Y-92204169D01*
X128198468Y-92204169D02*
X142398458Y-92204169D01*
X142398458Y-92204169D02*
X142398458Y-92204169D01*
X254013524Y-92204169D02*
X254013524Y-106003737D01*
X254013524Y-106003737D02*
X239813543Y-106003737D01*
X239813543Y-106003737D02*
X239813543Y-92204169D01*
X239813543Y-92204169D02*
X254013524Y-92204169D01*
X254013524Y-92204169D02*
X254013524Y-92204169D01*
X120064130Y-92202399D02*
X120064130Y-106001975D01*
X120064130Y-106001975D02*
X105864171Y-106001975D01*
X105864171Y-106001975D02*
X105864171Y-92202399D01*
X105864171Y-92202399D02*
X120064130Y-92202399D01*
X120064130Y-92202399D02*
X120064130Y-92202399D01*
X75421285Y-92202399D02*
X75421285Y-106001975D01*
X75421285Y-106001975D02*
X61221311Y-106001975D01*
X61221311Y-106001975D02*
X61221311Y-92202399D01*
X61221311Y-92202399D02*
X75421285Y-92202399D01*
X75421285Y-92202399D02*
X75421285Y-92202399D01*
X97742887Y-92202399D02*
X97742887Y-106001975D01*
X97742887Y-106001975D02*
X83542913Y-106001975D01*
X83542913Y-106001975D02*
X83542913Y-92202399D01*
X83542913Y-92202399D02*
X97742887Y-92202399D01*
X97742887Y-92202399D02*
X97742887Y-92202399D01*
X164727453Y-92202399D02*
X164727453Y-106001975D01*
X164727453Y-106001975D02*
X150527486Y-106001975D01*
X150527486Y-106001975D02*
X150527486Y-92202399D01*
X150527486Y-92202399D02*
X164727453Y-92202399D01*
X164727453Y-92202399D02*
X164727453Y-92202399D01*
X245082982Y-75200324D02*
X245082982Y-89000251D01*
X245082982Y-89000251D02*
X230880162Y-89000251D01*
X230880162Y-89000251D02*
X230880162Y-75200324D01*
X230880162Y-75200324D02*
X245082982Y-75200324D01*
X245082982Y-75200324D02*
X245082982Y-75200324D01*
X48626825Y-75200324D02*
X48626825Y-89000251D01*
X48626825Y-89000251D02*
X34426847Y-89000251D01*
X34426847Y-89000251D02*
X34426847Y-75200324D01*
X34426847Y-75200324D02*
X48626825Y-75200324D01*
X48626825Y-75200324D02*
X48626825Y-75200324D01*
X102207982Y-75200324D02*
X102207982Y-89000251D01*
X102207982Y-89000251D02*
X88008008Y-89000251D01*
X88008008Y-89000251D02*
X88008008Y-75200324D01*
X88008008Y-75200324D02*
X102207982Y-75200324D01*
X102207982Y-75200324D02*
X102207982Y-75200324D01*
X191506749Y-75200324D02*
X191506749Y-89000251D01*
X191506749Y-89000251D02*
X177304311Y-89000251D01*
X177304311Y-89000251D02*
X177304311Y-75200324D01*
X177304311Y-75200324D02*
X191506749Y-75200324D01*
X191506749Y-75200324D02*
X191506749Y-75200324D01*
X137928060Y-75200324D02*
X137928060Y-89000251D01*
X137928060Y-89000251D02*
X123728078Y-89000251D01*
X123728078Y-89000251D02*
X123728078Y-75200324D01*
X123728078Y-75200324D02*
X137928060Y-75200324D01*
X137928060Y-75200324D02*
X137928060Y-75200324D01*
X209365361Y-75200324D02*
X209365361Y-89000251D01*
X209365361Y-89000251D02*
X195165395Y-89000251D01*
X195165395Y-89000251D02*
X195165395Y-75200324D01*
X195165395Y-75200324D02*
X209365361Y-75200324D01*
X209365361Y-75200324D02*
X209365361Y-75200324D01*
X84349355Y-75200324D02*
X84349355Y-89000251D01*
X84349355Y-89000251D02*
X70149385Y-89000251D01*
X70149385Y-89000251D02*
X70149385Y-75200324D01*
X70149385Y-75200324D02*
X84349355Y-75200324D01*
X84349355Y-75200324D02*
X84349355Y-75200324D01*
X262951482Y-75200324D02*
X262951482Y-89000251D01*
X262951482Y-89000251D02*
X248751485Y-89000251D01*
X248751485Y-89000251D02*
X248751485Y-75200324D01*
X248751485Y-75200324D02*
X262951482Y-75200324D01*
X262951482Y-75200324D02*
X262951482Y-75200324D01*
X120066968Y-75200324D02*
X120066968Y-89000251D01*
X120066968Y-89000251D02*
X105866987Y-89000251D01*
X105866987Y-89000251D02*
X105866987Y-75200324D01*
X105866987Y-75200324D02*
X120066968Y-75200324D01*
X120066968Y-75200324D02*
X120066968Y-75200324D01*
X280810460Y-75200324D02*
X280810460Y-89000251D01*
X280810460Y-89000251D02*
X266610479Y-89000251D01*
X266610479Y-89000251D02*
X266610479Y-75200324D01*
X266610479Y-75200324D02*
X280810460Y-75200324D01*
X280810460Y-75200324D02*
X280810460Y-75200324D01*
X227223989Y-75200324D02*
X227223989Y-89000251D01*
X227223989Y-89000251D02*
X213024038Y-89000251D01*
X213024038Y-89000251D02*
X213024038Y-75200324D01*
X213024038Y-75200324D02*
X227223989Y-75200324D01*
X227223989Y-75200324D02*
X227223989Y-75200324D01*
X66490739Y-75200324D02*
X66490739Y-89000251D01*
X66490739Y-89000251D02*
X52290761Y-89000251D01*
X52290761Y-89000251D02*
X52290761Y-75200324D01*
X52290761Y-75200324D02*
X66490739Y-75200324D01*
X66490739Y-75200324D02*
X66490739Y-75200324D01*
X164893621Y-82851699D02*
X164893621Y-65351844D01*
X164893621Y-65351844D02*
X150393789Y-65351844D01*
X150393789Y-65351844D02*
X150393789Y-82851699D01*
X150393789Y-82851699D02*
X164893621Y-82851699D01*
X164893621Y-82851699D02*
X164893621Y-82851699D01*
X254022359Y-58200000D02*
X254022359Y-71999926D01*
X254022359Y-71999926D02*
X239822362Y-71999926D01*
X239822362Y-71999926D02*
X239822362Y-58200000D01*
X239822362Y-58200000D02*
X254022359Y-58200000D01*
X254022359Y-58200000D02*
X254022359Y-58200000D01*
X271880986Y-58200000D02*
X271880986Y-71999926D01*
X271880986Y-71999926D02*
X257680990Y-71999926D01*
X257680990Y-71999926D02*
X257680990Y-58200000D01*
X257680990Y-58200000D02*
X271880986Y-58200000D01*
X271880986Y-58200000D02*
X271880986Y-58200000D01*
X236157384Y-58200000D02*
X236157384Y-71999926D01*
X236157384Y-71999926D02*
X221957387Y-71999926D01*
X221957387Y-71999926D02*
X221957387Y-58200000D01*
X221957387Y-58200000D02*
X236157384Y-58200000D01*
X236157384Y-58200000D02*
X236157384Y-58200000D01*
X57562658Y-58200000D02*
X57562658Y-71999926D01*
X57562658Y-71999926D02*
X43362684Y-71999926D01*
X43362684Y-71999926D02*
X43362684Y-58200000D01*
X43362684Y-58200000D02*
X57562658Y-58200000D01*
X57562658Y-58200000D02*
X57562658Y-58200000D01*
X200437291Y-58200000D02*
X200437291Y-71999926D01*
X200437291Y-71999926D02*
X186237325Y-71999926D01*
X186237325Y-71999926D02*
X186237325Y-58200000D01*
X186237325Y-58200000D02*
X200437291Y-58200000D01*
X200437291Y-58200000D02*
X200437291Y-58200000D01*
X128999982Y-58200000D02*
X128999982Y-71999926D01*
X128999982Y-71999926D02*
X114800000Y-71999926D01*
X114800000Y-71999926D02*
X114800000Y-58200000D01*
X114800000Y-58200000D02*
X128999982Y-58200000D01*
X128999982Y-58200000D02*
X128999982Y-58200000D01*
X75421285Y-58200000D02*
X75421285Y-71999926D01*
X75421285Y-71999926D02*
X61221311Y-71999926D01*
X61221311Y-71999926D02*
X61221311Y-58200000D01*
X61221311Y-58200000D02*
X75421285Y-58200000D01*
X75421285Y-58200000D02*
X75421285Y-58200000D01*
X93279912Y-58200000D02*
X93279912Y-71999926D01*
X93279912Y-71999926D02*
X79079938Y-71999926D01*
X79079938Y-71999926D02*
X79079938Y-58200000D01*
X79079938Y-58200000D02*
X93279912Y-58200000D01*
X93279912Y-58200000D02*
X93279912Y-58200000D01*
X111138891Y-58200000D02*
X111138891Y-71999926D01*
X111138891Y-71999926D02*
X96938909Y-71999926D01*
X96938909Y-71999926D02*
X96938909Y-58200000D01*
X96938909Y-58200000D02*
X111138891Y-58200000D01*
X111138891Y-58200000D02*
X111138891Y-58200000D01*
X218295919Y-58200000D02*
X218295919Y-71999926D01*
X218295919Y-71999926D02*
X204095937Y-71999926D01*
X204095937Y-71999926D02*
X204095937Y-58200000D01*
X204095937Y-58200000D02*
X218295919Y-58200000D01*
X218295919Y-58200000D02*
X218295919Y-58200000D01*
X35241056Y-58200000D02*
X35241056Y-71999926D01*
X35241056Y-71999926D02*
X21041080Y-71999926D01*
X21041080Y-71999926D02*
X21041080Y-58200000D01*
X21041080Y-58200000D02*
X35241056Y-58200000D01*
X35241056Y-58200000D02*
X35241056Y-58200000D01*
X271871465Y-42920884D02*
X271871855Y-42936647D01*
X271871855Y-42936647D02*
X271873020Y-42952301D01*
X271873020Y-42952301D02*
X271874948Y-42967819D01*
X271874948Y-42967819D02*
X271877628Y-42983176D01*
X271877628Y-42983176D02*
X271881049Y-42998345D01*
X271881049Y-42998345D02*
X271885202Y-43013299D01*
X271885202Y-43013299D02*
X271890075Y-43028012D01*
X271890075Y-43028012D02*
X271895658Y-43042458D01*
X271895658Y-43042458D02*
X271901939Y-43056611D01*
X271901939Y-43056611D02*
X271908909Y-43070444D01*
X271908909Y-43070444D02*
X271916555Y-43083931D01*
X271916555Y-43083931D02*
X271924869Y-43097045D01*
X271924869Y-43097045D02*
X271933838Y-43109760D01*
X271933838Y-43109760D02*
X271943453Y-43122049D01*
X271943453Y-43122049D02*
X271953701Y-43133887D01*
X271953701Y-43133887D02*
X271964574Y-43145247D01*
X271964574Y-43145247D02*
X271975999Y-43156119D01*
X271975999Y-43156119D02*
X271987893Y-43166367D01*
X271987893Y-43166367D02*
X272000231Y-43175982D01*
X272000231Y-43175982D02*
X272012987Y-43184953D01*
X272012987Y-43184953D02*
X272026136Y-43193268D01*
X272026136Y-43193268D02*
X272039651Y-43200917D01*
X272039651Y-43200917D02*
X272053507Y-43207889D01*
X272053507Y-43207889D02*
X272067678Y-43214173D01*
X272067678Y-43214173D02*
X272082137Y-43219759D01*
X272082137Y-43219759D02*
X272096860Y-43224635D01*
X272096860Y-43224635D02*
X272111820Y-43228791D01*
X272111820Y-43228791D02*
X272126992Y-43232215D01*
X272126992Y-43232215D02*
X272142349Y-43234897D01*
X272142349Y-43234897D02*
X272157865Y-43236827D01*
X272157865Y-43236827D02*
X272173516Y-43237992D01*
X272173516Y-43237992D02*
X272189275Y-43238383D01*
X272189275Y-43238383D02*
X279671697Y-43238383D01*
X279671697Y-43238383D02*
X279687402Y-43237992D01*
X279687402Y-43237992D02*
X279703004Y-43236827D01*
X279703004Y-43236827D02*
X279718479Y-43234897D01*
X279718479Y-43234897D02*
X279733799Y-43232215D01*
X279733799Y-43232215D02*
X279748939Y-43228791D01*
X279748939Y-43228791D02*
X279763872Y-43224635D01*
X279763872Y-43224635D02*
X279778571Y-43219759D01*
X279778571Y-43219759D02*
X279793012Y-43214173D01*
X279793012Y-43214173D02*
X279807167Y-43207889D01*
X279807167Y-43207889D02*
X279821011Y-43200917D01*
X279821011Y-43200917D02*
X279834517Y-43193268D01*
X279834517Y-43193268D02*
X279847658Y-43184953D01*
X279847658Y-43184953D02*
X279860410Y-43175982D01*
X279860410Y-43175982D02*
X279872745Y-43166367D01*
X279872745Y-43166367D02*
X279884638Y-43156119D01*
X279884638Y-43156119D02*
X279896062Y-43145247D01*
X279896062Y-43145247D02*
X279906930Y-43133887D01*
X279906930Y-43133887D02*
X279917176Y-43122049D01*
X279917176Y-43122049D02*
X279926790Y-43109760D01*
X279926790Y-43109760D02*
X279935759Y-43097045D01*
X279935759Y-43097045D02*
X279944074Y-43083931D01*
X279944074Y-43083931D02*
X279951724Y-43070444D01*
X279951724Y-43070444D02*
X279958697Y-43056611D01*
X279958697Y-43056611D02*
X279964982Y-43042458D01*
X279964982Y-43042458D02*
X279970569Y-43028012D01*
X279970569Y-43028012D02*
X279975447Y-43013299D01*
X279975447Y-43013299D02*
X279979604Y-42998345D01*
X279979604Y-42998345D02*
X279983030Y-42983176D01*
X279983030Y-42983176D02*
X279985714Y-42967819D01*
X279985714Y-42967819D02*
X279987644Y-42952301D01*
X279987644Y-42952301D02*
X279988811Y-42936647D01*
X279988811Y-42936647D02*
X279989202Y-42920884D01*
X279989202Y-42920884D02*
X279989202Y-41200036D01*
X279989202Y-41200036D02*
X294189183Y-41200036D01*
X294189183Y-41200036D02*
X294189183Y-54999610D01*
X294189183Y-54999610D02*
X279989202Y-54999610D01*
X279989202Y-54999610D02*
X279989202Y-48370227D01*
X279989202Y-48370227D02*
X279988794Y-48353799D01*
X279988794Y-48353799D02*
X279987579Y-48337473D01*
X279987579Y-48337473D02*
X279985568Y-48321279D01*
X279985568Y-48321279D02*
X279982772Y-48305245D01*
X279982772Y-48305245D02*
X279979203Y-48289399D01*
X279979203Y-48289399D02*
X279974872Y-48273769D01*
X279974872Y-48273769D02*
X279969791Y-48258384D01*
X279969791Y-48258384D02*
X279963971Y-48243273D01*
X279963971Y-48243273D02*
X279957424Y-48228463D01*
X279957424Y-48228463D02*
X279950161Y-48213983D01*
X279950161Y-48213983D02*
X279942193Y-48199862D01*
X279942193Y-48199862D02*
X279933532Y-48186128D01*
X279933532Y-48186128D02*
X279924189Y-48172810D01*
X279924189Y-48172810D02*
X279914177Y-48159935D01*
X279914177Y-48159935D02*
X279903505Y-48147532D01*
X279903505Y-48147532D02*
X279892186Y-48135630D01*
X279892186Y-48135630D02*
X279880222Y-48124309D01*
X279880222Y-48124309D02*
X279867773Y-48113635D01*
X279867773Y-48113635D02*
X279854866Y-48103621D01*
X279854866Y-48103621D02*
X279841528Y-48094277D01*
X279841528Y-48094277D02*
X279827786Y-48085616D01*
X279827786Y-48085616D02*
X279813665Y-48077649D01*
X279813665Y-48077649D02*
X279799194Y-48070386D01*
X279799194Y-48070386D02*
X279784398Y-48063840D01*
X279784398Y-48063840D02*
X279769305Y-48058022D01*
X279769305Y-48058022D02*
X279753941Y-48052942D01*
X279753941Y-48052942D02*
X279738333Y-48048613D01*
X279738333Y-48048613D02*
X279722508Y-48045045D01*
X279722508Y-48045045D02*
X279706492Y-48042251D01*
X279706492Y-48042251D02*
X279690312Y-48040241D01*
X279690312Y-48040241D02*
X279673995Y-48039026D01*
X279673995Y-48039026D02*
X279657567Y-48038619D01*
X279657567Y-48038619D02*
X272203405Y-48038619D01*
X272203405Y-48038619D02*
X272186918Y-48039026D01*
X272186918Y-48039026D02*
X272170549Y-48040241D01*
X272170549Y-48040241D02*
X272154324Y-48042251D01*
X272154324Y-48042251D02*
X272138272Y-48045045D01*
X272138272Y-48045045D02*
X272122417Y-48048613D01*
X272122417Y-48048613D02*
X272106788Y-48052942D01*
X272106788Y-48052942D02*
X272091412Y-48058022D01*
X272091412Y-48058022D02*
X272076314Y-48063840D01*
X272076314Y-48063840D02*
X272061523Y-48070386D01*
X272061523Y-48070386D02*
X272047065Y-48077649D01*
X272047065Y-48077649D02*
X272032966Y-48085616D01*
X272032966Y-48085616D02*
X272019255Y-48094277D01*
X272019255Y-48094277D02*
X272005957Y-48103621D01*
X272005957Y-48103621D02*
X271993100Y-48113635D01*
X271993100Y-48113635D02*
X271980711Y-48124309D01*
X271980711Y-48124309D02*
X271968816Y-48135630D01*
X271968816Y-48135630D02*
X271957433Y-48147532D01*
X271957433Y-48147532D02*
X271946706Y-48159935D01*
X271946706Y-48159935D02*
X271936646Y-48172810D01*
X271936646Y-48172810D02*
X271927263Y-48186128D01*
X271927263Y-48186128D02*
X271918569Y-48199862D01*
X271918569Y-48199862D02*
X271910575Y-48213983D01*
X271910575Y-48213983D02*
X271903290Y-48228463D01*
X271903290Y-48228463D02*
X271896726Y-48243273D01*
X271896726Y-48243273D02*
X271890894Y-48258384D01*
X271890894Y-48258384D02*
X271885804Y-48273769D01*
X271885804Y-48273769D02*
X271881468Y-48289399D01*
X271881468Y-48289399D02*
X271877896Y-48305245D01*
X271877896Y-48305245D02*
X271875098Y-48321279D01*
X271875098Y-48321279D02*
X271873087Y-48337473D01*
X271873087Y-48337473D02*
X271871872Y-48353799D01*
X271871872Y-48353799D02*
X271871465Y-48370227D01*
X271871465Y-48370227D02*
X271871465Y-54999610D01*
X271871465Y-54999610D02*
X257671468Y-54999610D01*
X257671468Y-54999610D02*
X257671468Y-41200036D01*
X257671468Y-41200036D02*
X271871465Y-41200036D01*
X271871465Y-41200036D02*
X271871465Y-42920884D01*
X271871465Y-42920884D02*
X271871465Y-42920884D01*
X254022359Y-41200036D02*
X254022359Y-54999610D01*
X254022359Y-54999610D02*
X239822362Y-54999610D01*
X239822362Y-54999610D02*
X239822362Y-41200036D01*
X239822362Y-41200036D02*
X254022359Y-41200036D01*
X254022359Y-41200036D02*
X254022359Y-41200036D01*
X236157384Y-41200036D02*
X236157384Y-54999610D01*
X236157384Y-54999610D02*
X221957387Y-54999610D01*
X221957387Y-54999610D02*
X221957387Y-41200036D01*
X221957387Y-41200036D02*
X236157384Y-41200036D01*
X236157384Y-41200036D02*
X236157384Y-41200036D01*
X111138891Y-41200036D02*
X111138891Y-54999610D01*
X111138891Y-54999610D02*
X96938909Y-54999610D01*
X96938909Y-54999610D02*
X96938909Y-41200036D01*
X96938909Y-41200036D02*
X111138891Y-41200036D01*
X111138891Y-41200036D02*
X111138891Y-41200036D01*
X93279912Y-41200036D02*
X93279912Y-54999610D01*
X93279912Y-54999610D02*
X79079938Y-54999610D01*
X79079938Y-54999610D02*
X79079938Y-41200036D01*
X79079938Y-41200036D02*
X93279912Y-41200036D01*
X93279912Y-41200036D02*
X93279912Y-41200036D01*
X75421285Y-41200036D02*
X75421285Y-54999610D01*
X75421285Y-54999610D02*
X61221311Y-54999610D01*
X61221311Y-54999610D02*
X61221311Y-41200036D01*
X61221311Y-41200036D02*
X75421285Y-41200036D01*
X75421285Y-41200036D02*
X75421285Y-41200036D01*
X128999982Y-41200036D02*
X128999982Y-54999610D01*
X128999982Y-54999610D02*
X114800000Y-54999610D01*
X114800000Y-54999610D02*
X114800000Y-41200036D01*
X114800000Y-41200036D02*
X128999982Y-41200036D01*
X128999982Y-41200036D02*
X128999982Y-41200036D01*
X200437291Y-41200036D02*
X200437291Y-54999610D01*
X200437291Y-54999610D02*
X186237325Y-54999610D01*
X186237325Y-54999610D02*
X186237325Y-41200036D01*
X186237325Y-41200036D02*
X200437291Y-41200036D01*
X200437291Y-41200036D02*
X200437291Y-41200036D01*
X182578679Y-41200036D02*
X182578679Y-54999610D01*
X182578679Y-54999610D02*
X168376241Y-54999610D01*
X168376241Y-54999610D02*
X168376241Y-41200036D01*
X168376241Y-41200036D02*
X182578679Y-41200036D01*
X182578679Y-41200036D02*
X182578679Y-41200036D01*
X146858602Y-41200036D02*
X146858602Y-54999610D01*
X146858602Y-54999610D02*
X132658635Y-54999610D01*
X132658635Y-54999610D02*
X132658635Y-41200036D01*
X132658635Y-41200036D02*
X146858602Y-41200036D01*
X146858602Y-41200036D02*
X146858602Y-41200036D01*
X40319633Y-48038619D02*
X40196199Y-48035493D01*
X40196199Y-48035493D02*
X40074376Y-48026216D01*
X40074376Y-48026216D02*
X39954315Y-48010939D01*
X39954315Y-48010939D02*
X39836167Y-47989814D01*
X39836167Y-47989814D02*
X39720084Y-47962991D01*
X39720084Y-47962991D02*
X39606217Y-47930623D01*
X39606217Y-47930623D02*
X39494718Y-47892861D01*
X39494718Y-47892861D02*
X39385737Y-47849855D01*
X39385737Y-47849855D02*
X39279427Y-47801758D01*
X39279427Y-47801758D02*
X39175938Y-47748721D01*
X39175938Y-47748721D02*
X39075421Y-47690894D01*
X39075421Y-47690894D02*
X38978029Y-47628430D01*
X38978029Y-47628430D02*
X38883913Y-47561480D01*
X38883913Y-47561480D02*
X38793223Y-47490195D01*
X38793223Y-47490195D02*
X38706112Y-47414726D01*
X38706112Y-47414726D02*
X38622730Y-47335225D01*
X38622730Y-47335225D02*
X38543229Y-47251843D01*
X38543229Y-47251843D02*
X38467760Y-47164732D01*
X38467760Y-47164732D02*
X38396475Y-47074042D01*
X38396475Y-47074042D02*
X38329525Y-46979925D01*
X38329525Y-46979925D02*
X38267061Y-46882533D01*
X38267061Y-46882533D02*
X38209235Y-46782017D01*
X38209235Y-46782017D02*
X38156197Y-46678528D01*
X38156197Y-46678528D02*
X38108100Y-46572218D01*
X38108100Y-46572218D02*
X38065095Y-46463237D01*
X38065095Y-46463237D02*
X38027333Y-46351738D01*
X38027333Y-46351738D02*
X37994965Y-46237871D01*
X37994965Y-46237871D02*
X37968143Y-46121788D01*
X37968143Y-46121788D02*
X37947017Y-46003641D01*
X37947017Y-46003641D02*
X37931741Y-45883580D01*
X37931741Y-45883580D02*
X37922464Y-45761757D01*
X37922464Y-45761757D02*
X37919338Y-45638324D01*
X37919338Y-45638324D02*
X37922464Y-45514922D01*
X37922464Y-45514922D02*
X37931741Y-45393129D01*
X37931741Y-45393129D02*
X37947017Y-45273097D01*
X37947017Y-45273097D02*
X37968143Y-45154975D01*
X37968143Y-45154975D02*
X37994965Y-45038917D01*
X37994965Y-45038917D02*
X38027333Y-44925073D01*
X38027333Y-44925073D02*
X38065095Y-44813595D01*
X38065095Y-44813595D02*
X38108100Y-44704634D01*
X38108100Y-44704634D02*
X38156197Y-44598341D01*
X38156197Y-44598341D02*
X38209235Y-44494869D01*
X38209235Y-44494869D02*
X38267061Y-44394368D01*
X38267061Y-44394368D02*
X38329525Y-44296989D01*
X38329525Y-44296989D02*
X38396475Y-44202885D01*
X38396475Y-44202885D02*
X38467760Y-44112207D01*
X38467760Y-44112207D02*
X38543229Y-44025105D01*
X38543229Y-44025105D02*
X38622730Y-43941732D01*
X38622730Y-43941732D02*
X38706112Y-43862239D01*
X38706112Y-43862239D02*
X38793223Y-43786777D01*
X38793223Y-43786777D02*
X38883913Y-43715498D01*
X38883913Y-43715498D02*
X38978029Y-43648552D01*
X38978029Y-43648552D02*
X39075421Y-43586093D01*
X39075421Y-43586093D02*
X39175938Y-43528270D01*
X39175938Y-43528270D02*
X39279427Y-43475236D01*
X39279427Y-43475236D02*
X39385737Y-43427141D01*
X39385737Y-43427141D02*
X39494718Y-43384137D01*
X39494718Y-43384137D02*
X39606217Y-43346376D01*
X39606217Y-43346376D02*
X39720084Y-43314009D01*
X39720084Y-43314009D02*
X39836167Y-43287188D01*
X39836167Y-43287188D02*
X39954315Y-43266063D01*
X39954315Y-43266063D02*
X40074376Y-43250786D01*
X40074376Y-43250786D02*
X40196199Y-43241509D01*
X40196199Y-43241509D02*
X40319633Y-43238383D01*
X40319633Y-43238383D02*
X43330934Y-43238383D01*
X43330934Y-43238383D02*
X43330934Y-41200036D01*
X43330934Y-41200036D02*
X57542905Y-41200036D01*
X57542905Y-41200036D02*
X57542905Y-54999610D01*
X57542905Y-54999610D02*
X43330934Y-54999610D01*
X43330934Y-54999610D02*
X43330934Y-48038619D01*
X43330934Y-48038619D02*
X40319633Y-48038619D01*
X40319633Y-48038619D02*
X40319633Y-48038619D01*
X218295919Y-41200036D02*
X218295919Y-54999610D01*
X218295919Y-54999610D02*
X204095937Y-54999610D01*
X204095937Y-54999610D02*
X204095937Y-41200036D01*
X204095937Y-41200036D02*
X218295919Y-41200036D01*
X218295919Y-41200036D02*
X218295919Y-41200036D01*
X35241056Y-41200036D02*
X35241056Y-54999610D01*
X35241056Y-54999610D02*
X21041080Y-54999610D01*
X21041080Y-54999610D02*
X21041080Y-41200036D01*
X21041080Y-41200036D02*
X35241056Y-41200036D01*
X35241056Y-41200036D02*
X35241056Y-41200036D01*
X137930532Y-24199719D02*
X137930532Y-37999644D01*
X137930532Y-37999644D02*
X123730542Y-37999644D01*
X123730542Y-37999644D02*
X123730542Y-24199719D01*
X123730542Y-24199719D02*
X137930532Y-24199719D01*
X137930532Y-24199719D02*
X137930532Y-24199719D01*
X30773488Y-24199719D02*
X30773488Y-37999644D01*
X30773488Y-37999644D02*
X16573513Y-37999644D01*
X16573513Y-37999644D02*
X16573513Y-24199719D01*
X16573513Y-24199719D02*
X30773488Y-24199719D01*
X30773488Y-24199719D02*
X30773488Y-24199719D01*
X84351827Y-24199719D02*
X84351827Y-37999644D01*
X84351827Y-37999644D02*
X70151857Y-37999644D01*
X70151857Y-37999644D02*
X70151857Y-24199719D01*
X70151857Y-24199719D02*
X84351827Y-24199719D01*
X84351827Y-24199719D02*
X84351827Y-24199719D01*
X102210813Y-24199719D02*
X102210813Y-37999644D01*
X102210813Y-37999644D02*
X88010839Y-37999644D01*
X88010839Y-37999644D02*
X88010839Y-24199719D01*
X88010839Y-24199719D02*
X102210813Y-24199719D01*
X102210813Y-24199719D02*
X102210813Y-24199719D01*
X191509221Y-24199719D02*
X191509221Y-37999644D01*
X191509221Y-37999644D02*
X177309255Y-37999644D01*
X177309255Y-37999644D02*
X177309255Y-24199719D01*
X177309255Y-24199719D02*
X191509221Y-24199719D01*
X191509221Y-24199719D02*
X191509221Y-24199719D01*
X227226461Y-24199719D02*
X227226461Y-37999644D01*
X227226461Y-37999644D02*
X213026494Y-37999644D01*
X213026494Y-37999644D02*
X213026494Y-24199719D01*
X213026494Y-24199719D02*
X227226461Y-24199719D01*
X227226461Y-24199719D02*
X227226461Y-24199719D01*
X262946553Y-24199719D02*
X262946553Y-37999644D01*
X262946553Y-37999644D02*
X248746572Y-37999644D01*
X248746572Y-37999644D02*
X248746572Y-24199719D01*
X248746572Y-24199719D02*
X262946553Y-24199719D01*
X262946553Y-24199719D02*
X262946553Y-24199719D01*
X48634584Y-24199719D02*
X48634584Y-37999644D01*
X48634584Y-37999644D02*
X34434606Y-37999644D01*
X34434606Y-37999644D02*
X34434606Y-24199719D01*
X34434606Y-24199719D02*
X48634584Y-24199719D01*
X48634584Y-24199719D02*
X48634584Y-24199719D01*
X298663793Y-24199719D02*
X298663793Y-37999644D01*
X298663793Y-37999644D02*
X284463811Y-37999644D01*
X284463811Y-37999644D02*
X284463811Y-24199719D01*
X284463811Y-24199719D02*
X298663793Y-24199719D01*
X298663793Y-24199719D02*
X298663793Y-24199719D01*
X66493211Y-24199719D02*
X66493211Y-37999644D01*
X66493211Y-37999644D02*
X52293229Y-37999644D01*
X52293229Y-37999644D02*
X52293229Y-24199719D01*
X52293229Y-24199719D02*
X66493211Y-24199719D01*
X66493211Y-24199719D02*
X66493211Y-24199719D01*
X245087911Y-24199719D02*
X245087911Y-37999644D01*
X245087911Y-37999644D02*
X230885457Y-37999644D01*
X230885457Y-37999644D02*
X230885457Y-24199719D01*
X230885457Y-24199719D02*
X245087911Y-24199719D01*
X245087911Y-24199719D02*
X245087911Y-24199719D01*
X280805181Y-24199719D02*
X280805181Y-37999644D01*
X280805181Y-37999644D02*
X266605169Y-37999644D01*
X266605169Y-37999644D02*
X266605169Y-24199719D01*
X266605169Y-24199719D02*
X280805181Y-24199719D01*
X280805181Y-24199719D02*
X280805181Y-24199719D01*
X209367849Y-24199719D02*
X209367849Y-37999644D01*
X209367849Y-37999644D02*
X195167867Y-37999644D01*
X195167867Y-37999644D02*
X195167867Y-24199719D01*
X195167867Y-24199719D02*
X202708135Y-24199719D01*
X202708135Y-24199719D02*
X202708135Y-21589876D01*
X202708135Y-21589876D02*
X202710365Y-21502414D01*
X202710365Y-21502414D02*
X202717015Y-21415544D01*
X202717015Y-21415544D02*
X202728023Y-21329411D01*
X202728023Y-21329411D02*
X202743328Y-21244160D01*
X202743328Y-21244160D02*
X202762868Y-21159936D01*
X202762868Y-21159936D02*
X202786581Y-21076885D01*
X202786581Y-21076885D02*
X202814407Y-20995151D01*
X202814407Y-20995151D02*
X202846284Y-20914881D01*
X202846284Y-20914881D02*
X202882150Y-20836219D01*
X202882150Y-20836219D02*
X202921944Y-20759310D01*
X202921944Y-20759310D02*
X202965605Y-20684299D01*
X202965605Y-20684299D02*
X203013070Y-20611333D01*
X203013070Y-20611333D02*
X203064279Y-20540556D01*
X203064279Y-20540556D02*
X203119169Y-20472112D01*
X203119169Y-20472112D02*
X203177681Y-20406149D01*
X203177681Y-20406149D02*
X203239751Y-20342810D01*
X203239751Y-20342810D02*
X203304981Y-20282474D01*
X203304981Y-20282474D02*
X203372905Y-20225596D01*
X203372905Y-20225596D02*
X203443375Y-20172237D01*
X203443375Y-20172237D02*
X203516241Y-20122456D01*
X203516241Y-20122456D02*
X203591353Y-20076313D01*
X203591353Y-20076313D02*
X203668563Y-20033868D01*
X203668563Y-20033868D02*
X203747721Y-19995180D01*
X203747721Y-19995180D02*
X203828677Y-19960311D01*
X203828677Y-19960311D02*
X203911283Y-19929319D01*
X203911283Y-19929319D02*
X203995389Y-19902266D01*
X203995389Y-19902266D02*
X204080844Y-19879209D01*
X204080844Y-19879209D02*
X204167501Y-19860211D01*
X204167501Y-19860211D02*
X204255210Y-19845330D01*
X204255210Y-19845330D02*
X204343821Y-19834626D01*
X204343821Y-19834626D02*
X204433185Y-19828160D01*
X204433185Y-19828160D02*
X204523153Y-19825992D01*
X204523153Y-19825992D02*
X206111715Y-19825992D01*
X206111715Y-19825992D02*
X206201749Y-19828160D01*
X206201749Y-19828160D02*
X206291171Y-19834626D01*
X206291171Y-19834626D02*
X206379831Y-19845330D01*
X206379831Y-19845330D02*
X206467582Y-19860211D01*
X206467582Y-19860211D02*
X206554274Y-19879209D01*
X206554274Y-19879209D02*
X206639758Y-19902266D01*
X206639758Y-19902266D02*
X206723887Y-19929319D01*
X206723887Y-19929319D02*
X206806510Y-19960311D01*
X206806510Y-19960311D02*
X206887480Y-19995180D01*
X206887480Y-19995180D02*
X206966648Y-20033868D01*
X206966648Y-20033868D02*
X207043865Y-20076313D01*
X207043865Y-20076313D02*
X207118983Y-20122456D01*
X207118983Y-20122456D02*
X207191852Y-20172237D01*
X207191852Y-20172237D02*
X207262324Y-20225596D01*
X207262324Y-20225596D02*
X207330250Y-20282474D01*
X207330250Y-20282474D02*
X207395482Y-20342810D01*
X207395482Y-20342810D02*
X207457493Y-20406149D01*
X207457493Y-20406149D02*
X207515960Y-20472112D01*
X207515960Y-20472112D02*
X207570820Y-20540556D01*
X207570820Y-20540556D02*
X207622011Y-20611333D01*
X207622011Y-20611333D02*
X207669470Y-20684299D01*
X207669470Y-20684299D02*
X207713133Y-20759310D01*
X207713133Y-20759310D02*
X207752937Y-20836219D01*
X207752937Y-20836219D02*
X207788820Y-20914881D01*
X207788820Y-20914881D02*
X207820717Y-20995151D01*
X207820717Y-20995151D02*
X207848566Y-21076885D01*
X207848566Y-21076885D02*
X207872304Y-21159936D01*
X207872304Y-21159936D02*
X207891867Y-21244160D01*
X207891867Y-21244160D02*
X207907193Y-21329411D01*
X207907193Y-21329411D02*
X207918218Y-21415544D01*
X207918218Y-21415544D02*
X207924879Y-21502414D01*
X207924879Y-21502414D02*
X207927114Y-21589876D01*
X207927114Y-21589876D02*
X207927114Y-24199719D01*
X207927114Y-24199719D02*
X209367849Y-24199719D01*
X209367849Y-24199719D02*
X209367849Y-24199719D01*
X120071904Y-24199719D02*
X120071904Y-37999644D01*
X120071904Y-37999644D02*
X105871930Y-37999644D01*
X105871930Y-37999644D02*
X105871930Y-24199719D01*
X105871930Y-24199719D02*
X107305967Y-24199719D01*
X107305967Y-24199719D02*
X107305967Y-21589876D01*
X107305967Y-21589876D02*
X107308328Y-21499120D01*
X107308328Y-21499120D02*
X107315335Y-21409554D01*
X107315335Y-21409554D02*
X107326876Y-21321288D01*
X107326876Y-21321288D02*
X107342834Y-21234434D01*
X107342834Y-21234434D02*
X107363098Y-21149103D01*
X107363098Y-21149103D02*
X107387552Y-21065406D01*
X107387552Y-21065406D02*
X107416082Y-20983453D01*
X107416082Y-20983453D02*
X107448576Y-20903355D01*
X107448576Y-20903355D02*
X107484918Y-20825224D01*
X107484918Y-20825224D02*
X107524995Y-20749170D01*
X107524995Y-20749170D02*
X107568694Y-20675304D01*
X107568694Y-20675304D02*
X107615899Y-20603737D01*
X107615899Y-20603737D02*
X107666497Y-20534580D01*
X107666497Y-20534580D02*
X107720375Y-20467943D01*
X107720375Y-20467943D02*
X107777417Y-20403939D01*
X107777417Y-20403939D02*
X107837511Y-20342677D01*
X107837511Y-20342677D02*
X107900543Y-20284269D01*
X107900543Y-20284269D02*
X107966397Y-20228825D01*
X107966397Y-20228825D02*
X108034961Y-20176457D01*
X108034961Y-20176457D02*
X108106121Y-20127274D01*
X108106121Y-20127274D02*
X108179762Y-20081390D01*
X108179762Y-20081390D02*
X108255770Y-20038913D01*
X108255770Y-20038913D02*
X108334033Y-19999955D01*
X108334033Y-19999955D02*
X108414435Y-19964627D01*
X108414435Y-19964627D02*
X108496862Y-19933040D01*
X108496862Y-19933040D02*
X108581202Y-19905305D01*
X108581202Y-19905305D02*
X108667339Y-19881532D01*
X108667339Y-19881532D02*
X108755161Y-19861833D01*
X108755161Y-19861833D02*
X108844552Y-19846319D01*
X108844552Y-19846319D02*
X108935400Y-19835100D01*
X108935400Y-19835100D02*
X109027589Y-19828287D01*
X109027589Y-19828287D02*
X109121007Y-19825992D01*
X109121007Y-19825992D02*
X110673215Y-19825992D01*
X110673215Y-19825992D02*
X110766601Y-19828287D01*
X110766601Y-19828287D02*
X110858764Y-19835100D01*
X110858764Y-19835100D02*
X110949587Y-19846319D01*
X110949587Y-19846319D02*
X111038959Y-19861833D01*
X111038959Y-19861833D02*
X111126764Y-19881532D01*
X111126764Y-19881532D02*
X111212888Y-19905305D01*
X111212888Y-19905305D02*
X111297217Y-19933040D01*
X111297217Y-19933040D02*
X111379638Y-19964627D01*
X111379638Y-19964627D02*
X111460035Y-19999955D01*
X111460035Y-19999955D02*
X111538295Y-20038913D01*
X111538295Y-20038913D02*
X111614304Y-20081390D01*
X111614304Y-20081390D02*
X111687947Y-20127274D01*
X111687947Y-20127274D02*
X111759110Y-20176457D01*
X111759110Y-20176457D02*
X111827679Y-20228825D01*
X111827679Y-20228825D02*
X111893541Y-20284269D01*
X111893541Y-20284269D02*
X111956580Y-20342677D01*
X111956580Y-20342677D02*
X112016684Y-20403939D01*
X112016684Y-20403939D02*
X112073736Y-20467943D01*
X112073736Y-20467943D02*
X112127625Y-20534580D01*
X112127625Y-20534580D02*
X112178234Y-20603737D01*
X112178234Y-20603737D02*
X112225451Y-20675304D01*
X112225451Y-20675304D02*
X112269161Y-20749170D01*
X112269161Y-20749170D02*
X112309249Y-20825224D01*
X112309249Y-20825224D02*
X112345603Y-20903355D01*
X112345603Y-20903355D02*
X112378106Y-20983453D01*
X112378106Y-20983453D02*
X112406647Y-21065406D01*
X112406647Y-21065406D02*
X112431110Y-21149103D01*
X112431110Y-21149103D02*
X112451381Y-21234434D01*
X112451381Y-21234434D02*
X112467346Y-21321288D01*
X112467346Y-21321288D02*
X112478890Y-21409554D01*
X112478890Y-21409554D02*
X112485901Y-21499120D01*
X112485901Y-21499120D02*
X112488263Y-21589876D01*
X112488263Y-21589876D02*
X112488263Y-24199719D01*
X112488263Y-24199719D02*
X120071904Y-24199719D01*
X120071904Y-24199719D02*
X120071904Y-24199719D01*
M02*
