0
SECTION
2
HEADER
9
$INSUNITS
70
4
9
$ACADVER
1
AC1014
9
$HANDSEED
5
FFFF
0
ENDSEC
0
SECTION
2
TABLES
0
TABLE
2
VPORT
5
8
100
AcDbSymbolTable
0
ENDTAB
0
TABLE
2
LTYPE
5
5
100
AcDbSymbolTable
0
LTYPE
5
14
100
AcDbSymbolTableRecord
100
AcDbLinetypeTableRecord
2
BYBLOCK
70
0
0
LTYPE
5
15
100
AcDbSymbolTableRecord
100
AcDbLinetypeTableRecord
2
BYLAYER
70
0
0
ENDTAB
0
TABLE
2
LAYER
5
2
100
AcDbSymbolTable
70
2
0
LAYER
5
50
100
AcDbSymbolTableRecord
100
AcDbLayerTableRecord
2
0
70
0
6
CONTINUOUS
0
ENDTAB
0
TABLE
2
STYLE
5
3
100
AcDbSymbolTable
70
1
0
STYLE
5
11
100
AcDbSymbolTableRecord
100
AcDbTextStyleTableRecord
2
STANDARD
70
0
0
ENDTAB
0
TABLE
2
VIEW
5
6
100
AcDbSymbolTable
70
0
0
ENDTAB
0
TABLE
2
UCS
5
7
100
AcDbSymbolTable
70
0
0
ENDTAB
0
TABLE
2
APPID
5
9
100
AcDbSymbolTable
70
2
0
APPID
5
12
100
AcDbSymbolTableRecord
100
AcDbRegAppTableRecord
2
ACAD
70
0
0
ENDTAB
0
TABLE
2
DIMSTYLE
5
A
100
AcDbSymbolTable
70
1
0
ENDTAB
0
TABLE
2
BLOCK_RECORD
5
1
100
AcDbSymbolTable
70
1
0
BLOCK_RECORD
5
1F
100
AcDbSymbolTableRecord
100
AcDbBlockTableRecord
2
*MODEL_SPACE
0
BLOCK_RECORD
5
1B
100
AcDbSymbolTableRecord
100
AcDbBlockTableRecord
2
*PAPER_SPACE
0
ENDTAB
0
ENDSEC
0
SECTION
2
BLOCKS
0
BLOCK
5
20
100
AcDbEntity
100
AcDbBlockBegin
2
*MODEL_SPACE
0
ENDBLK
5
21
100
AcDbEntity
100
AcDbBlockEnd
0
BLOCK
5
1C
100
AcDbEntity
100
AcDbBlockBegin
2
*PAPER_SPACE
0
ENDBLK
5
1D
100
AcDbEntity
100
AcDbBlockEnd
0
ENDSEC
0
SECTION
2
ENTITIES
0
SPLINE
5
100
100
AcDbEntity
8
0
100
AcDbSpline
70
4
71
3
72
8
73
4
74
0
42
0.000000001
43
0.0000000001
44
0.0000000001
40
0
40
0
40
0
40
0
40
1
40
1
40
1
40
1
41
1
41
1
41
1
41
1
10
11.23418000557983
20
-62.788290853994368
30
0
10
10.634812269493978
20
-62.788290853994368
30
0
10
10.149038198635223
20
-62.302517456004139
30
0
10
10.149038198635223
20
-61.703147701312702
30
0
0
SPLINE
5
101
100
AcDbEntity
8
0
100
AcDbSpline
70
4
71
3
72
8
73
4
74
0
42
0.000000001
43
0.0000000001
44
0.0000000001
40
0
40
0
40
0
40
0
40
1
40
1
40
1
40
1
41
1
41
1
41
1
41
1
10
10.149038198635223
20
-61.703147701312702
30
0
10
10.149038198635223
20
-61.702797809677122
30
0
10
10.149038198635223
20
-61.702797809677122
30
0
10
10.149038198635223
20
-61.702442535093311
30
0
0
SPLINE
5
102
100
AcDbEntity
8
0
100
AcDbSpline
70
4
71
3
72
8
73
4
74
0
42
0.000000001
43
0.0000000001
44
0.0000000001
40
0
40
0
40
0
40
0
40
1
40
1
40
1
40
1
41
1
41
1
41
1
41
1
10
10.149038198635223
20
-61.702442535093311
30
0
10
10.149038198635223
20
-61.02193560158571
30
0
10
9.878458922421256
20
-60.36965146569856
30
0
10
9.3965652843747538
20
-59.889169505827908
30
0
0
SPLINE
5
103
100
AcDbEntity
8
0
100
AcDbSpline
70
4
71
3
72
8
73
4
74
0
42
0.000000001
43
0.0000000001
44
0.0000000001
40
0
40
0
40
0
40
0
40
1
40
1
40
1
40
1
41
1
41
1
41
1
41
1
10
9.3965652843747538
20
-59.889169505827908
30
0
10
8.9150249023064791
20
-59.408332271373432
30
0
10
8.262034927331408
20
-59.1391687105465
30
0
10
7.5818812498020343
20
-59.14057904298528
30
0
0
SPLINE
5
104
100
AcDbEntity
8
0
100
AcDbSpline
70
0
71
2
72
6
73
3
74
0
42
0.000000001
43
0.0000000001
44
0.0000000001
40
0
40
0
40
0
40
1
40
1
40
1
10
7.5818812498020343
20
-59.14057904298528
30
0
10
6.5895199387159353
20
-59.142694541643465
30
0
10
5.6878216062245777
20
-59.144460148666063
30
0
0
LINE
5
105
100
AcDbEntity
8
0
100
AcDbLine
10
5.6878216062245777
20
-59.144460148666063
30
0
11
5.3343395441718506
21
-58.998054722444223
31
0
0
LINE
5
106
100
AcDbEntity
8
0
100
AcDbLine
10
5.3343395441718506
20
-58.998054722444223
30
0
11
5.1879371458583865
21
-58.644572660391496
31
0
0
LINE
5
107
100
AcDbEntity
8
0
100
AcDbLine
10
5.1879371458583865
20
-58.644572660391496
30
0
11
5.1889952316217425
21
-7.1631349775547992
31
0
0
LINE
5
108
100
AcDbEntity
8
0
100
AcDbLine
10
5.1889952316217425
20
-7.1631349775547992
30
0
11
5.1949925088292357
21
-7.0061493665679295
31
0
0
LINE
5
109
100
AcDbEntity
8
0
100
AcDbLine
10
5.1949925088292357
20
-7.0061493665679295
30
0
11
5.2129843404517171
21
-6.8498689218004554
31
0
0
LINE
5
110
100
AcDbEntity
8
0
100
AcDbLine
10
5.2129843404517171
20
-6.8498689218004554
30
0
11
5.2440284758182765
21
-6.6960585774064461
31
0
0
LINE
5
111
100
AcDbEntity
8
0
100
AcDbLine
10
5.2440284758182765
20
-6.6960585774064461
30
0
11
5.2860090798364681
21
-6.5440111485609211
31
0
0
LINE
5
112
100
AcDbEntity
8
0
100
AcDbLine
10
5.2860090798364681
20
-6.5440111485609211
30
0
11
5.3410423240330021
21
-6.3969032475938015
31
0
0
LINE
5
113
100
AcDbEntity
8
0
100
AcDbLine
10
5.3410423240330021
20
-6.3969032475938015
30
0
11
5.4059532782492834
21
-6.2550874576147795
31
0
0
LINE
5
114
100
AcDbEntity
8
0
100
AcDbLine
10
5.4059532782492834
20
-6.2550874576147795
30
0
11
5.4828584504462885
21
-6.1178565937988765
31
0
0
LINE
5
115
100
AcDbEntity
8
0
100
AcDbLine
10
5.4828584504462885
20
-6.1178565937988765
30
0
11
5.5699942522070014
21
-5.986976936037224
31
0
0
LINE
5
116
100
AcDbEntity
8
0
100
AcDbLine
10
5.5699942522070014
20
-5.986976936037224
30
0
11
5.6680661861850821
21
-5.8638574710315456
31
0
0
LINE
5
117
100
AcDbEntity
8
0
100
AcDbLine
10
5.6680661861850821
20
-5.8638574710315456
30
0
11
5.7738996586561999
21
-5.7481469614092129
31
0
0
LINE
5
118
100
AcDbEntity
8
0
100
AcDbLine
10
5.7738996586561999
20
-5.7481469614092129
30
0
11
5.8899627513882322
21
-5.6419609058283964
31
0
0
LINE
5
119
100
AcDbEntity
8
0
100
AcDbLine
10
5.8899627513882322
20
-5.6419609058283964
30
0
11
6.0130822163939088
21
-5.5438889718503157
31
0
0
LINE
5
120
100
AcDbEntity
8
0
100
AcDbLine
10
6.0130822163939088
20
-5.5438889718503157
30
0
11
6.1439625470240911
21
-5.4571057531992997
31
0
0
LINE
5
121
100
AcDbEntity
8
0
100
AcDbLine
10
6.1439625470240911
20
-5.4571057531992997
30
0
11
6.2808401548617674
21
-5.3798476614583333
31
0
0
LINE
5
122
100
AcDbEntity
8
0
100
AcDbLine
10
6.2808401548617674
20
-5.3798476614583333
30
0
11
6.4230092008190169
21
-5.3149367072420519
31
0
0
LINE
5
123
100
AcDbEntity
8
0
100
AcDbLine
10
6.4230092008190169
20
-5.3149367072420519
30
0
11
6.5701171017861366
21
-5.2599034630455179
31
0
0
LINE
5
124
100
AcDbEntity
8
0
100
AcDbLine
10
6.5701171017861366
20
-5.2599034630455179
30
0
11
6.7218112746534349
21
-5.2179231954615908
31
0
0
LINE
5
125
100
AcDbEntity
8
0
100
AcDbLine
10
6.7218112746534349
20
-5.2179231954615908
30
0
11
6.8759742021571402
21
-5.1868787236607687
31
0
0
LINE
5
126
100
AcDbEntity
8
0
100
AcDbLine
10
6.8759742021571402
20
-5.1868787236607687
30
0
11
7.0319020638149183
21
-5.1688872284725518
31
0
0
LINE
5
127
100
AcDbEntity
8
0
100
AcDbLine
10
7.0319020638149183
20
-5.1688872284725518
30
0
11
7.1888876748017871
21
-5.1618315290674381
31
0
0
LINE
5
128
100
AcDbEntity
8
0
100
AcDbLine
10
7.1888876748017871
20
-5.1618315290674381
30
0
11
288.56338330572129
21
-5.1628899512650577
31
0
0
LINE
5
129
100
AcDbEntity
8
0
100
AcDbLine
10
288.56338330572129
20
-5.1628899512650577
30
0
11
288.71931655032728
21
-5.1688872284725518
31
0
0
LINE
5
130
100
AcDbEntity
8
0
100
AcDbLine
10
288.71931655032728
20
-5.1688872284725518
30
0
11
288.87524979493327
21
-5.1868787236607687
31
0
0
LINE
5
131
100
AcDbEntity
8
0
100
AcDbLine
10
288.87524979493327
20
-5.1868787236607687
30
0
11
289.02939590072378
21
-5.2179231954615926
31
0
0
LINE
5
132
100
AcDbEntity
8
0
100
AcDbLine
10
289.02939590072378
20
-5.2179231954615926
30
0
11
289.18216397176485
21
-5.2599034630455188
31
0
0
LINE
5
133
100
AcDbEntity
8
0
100
AcDbLine
10
289.18216397176485
20
-5.2599034630455188
30
0
11
289.32821412340292
21
-5.3149367072420519
31
0
0
LINE
5
134
100
AcDbEntity
8
0
100
AcDbLine
10
289.32821412340292
20
-5.3149367072420519
30
0
11
289.47036702051548
21
-5.3798476614583333
31
0
0
LINE
5
135
100
AcDbEntity
8
0
100
AcDbLine
10
289.47036702051548
20
-5.3798476614583333
30
0
11
289.60724462835321
21
-5.4571057531992997
31
0
0
LINE
5
136
100
AcDbEntity
8
0
100
AcDbLine
10
289.60724462835321
20
-5.4571057531992997
30
0
11
289.73813639774835
21
-5.5438889718503157
31
0
0
LINE
5
137
100
AcDbEntity
8
0
100
AcDbLine
10
289.73813639774835
20
-5.5438889718503157
30
0
11
289.86125518988547
21
-5.6419609058283973
31
0
0
LINE
5
138
100
AcDbEntity
8
0
100
AcDbLine
10
289.86125518988547
20
-5.6419609058283973
30
0
11
289.97731155393217
21
-5.7481469614092129
31
0
0
LINE
5
139
100
AcDbEntity
8
0
100
AcDbLine
10
289.97731155393217
20
-5.7481469614092129
30
0
11
290.08314031632358
21
-5.8638574710315456
31
0
0
LINE
5
140
100
AcDbEntity
8
0
100
AcDbLine
10
290.08314031632358
20
-5.8638574710315456
30
0
11
290.18227269110491
21
-5.986976936037224
31
0
0
LINE
5
141
100
AcDbEntity
8
0
100
AcDbLine
10
290.18227269110491
20
-5.986976936037224
30
0
11
290.26835679935334
21
-6.1178565937988747
31
0
0
LINE
5
142
100
AcDbEntity
8
0
100
AcDbLine
10
290.26835679935334
20
-6.1178565937988747
30
0
11
290.34526836380132
21
-6.2550874576147795
31
0
0
LINE
5
143
100
AcDbEntity
8
0
100
AcDbLine
10
290.34526836380132
20
-6.2550874576147795
30
0
11
290.41016518777843
21
-6.3969032475938006
31
0
0
LINE
5
144
100
AcDbEntity
8
0
100
AcDbLine
10
290.41016518777843
20
-6.3969032475938006
30
0
11
290.4652004505806
21
-6.5440111485609211
31
0
0
LINE
5
145
100
AcDbEntity
8
0
100
AcDbLine
10
290.4652004505806
20
-6.5440111485609211
30
0
11
290.50718744684985
21
-6.6960585774064469
31
0
0
LINE
5
146
100
AcDbEntity
8
0
100
AcDbLine
10
290.50718744684985
20
-6.6960585774064469
30
0
11
290.53823629229612
21
-6.8498689218004554
31
0
0
LINE
5
147
100
AcDbEntity
8
0
100
AcDbLine
10
290.53823629229612
20
-6.8498689218004554
30
0
11
290.55729192906443
21
-7.0061493665679295
31
0
0
LINE
5
148
100
AcDbEntity
8
0
100
AcDbLine
10
290.55729192906443
20
-7.0061493665679295
30
0
11
290.56327776750697
21
-7.1631349775547983
31
0
0
LINE
5
149
100
AcDbEntity
8
0
100
AcDbLine
10
290.56327776750697
20
-7.1631349775547983
30
0
11
290.56327776750697
21
-53.3885489572897
31
0
0
SPLINE
5
150
100
AcDbEntity
8
0
100
AcDbSpline
70
4
71
3
72
8
73
4
74
0
42
0.000000001
43
0.0000000001
44
0.0000000001
40
0
40
0
40
0
40
0
40
1
40
1
40
1
40
1
41
1
41
1
41
1
41
1
10
290.56327776750697
20
-53.3885489572897
30
0
10
290.56327776750697
20
-54.362566526512154
30
0
10
289.77340547461449
20
-55.152433436456363
30
0
10
288.7993932883403
20
-55.152433436456363
30
0
0
SPLINE
5
151
100
AcDbEntity
8
0
100
AcDbSpline
70
4
71
3
72
8
73
4
74
0
42
0.000000001
43
0.0000000001
44
0.0000000001
40
0
40
0
40
0
40
0
40
1
40
1
40
1
40
1
41
1
41
1
41
1
41
1
10
288.7993932883403
20
-55.152433436456363
30
0
10
288.41203633301546
20
-55.152433436456363
30
0
10
287.1251241314672
20
-55.152433436456363
30
0
10
286.01950962663017
20
-55.152433436456363
30
0
0
SPLINE
5
152
100
AcDbEntity
8
0
100
AcDbSpline
70
4
71
3
72
8
73
4
74
0
42
0.000000001
43
0.0000000001
44
0.0000000001
40
0
40
0
40
0
40
0
40
1
40
1
40
1
40
1
41
1
41
1
41
1
41
1
10
286.01950962663017
20
-55.152433436456363
30
0
10
285.55173142460501
20
-55.152433436456363
30
0
10
285.10300885934834
20
-54.966522553103765
30
0
10
284.77208673336793
20
-54.635616575968115
30
0
0
SPLINE
5
153
100
AcDbEntity
8
0
100
AcDbSpline
70
4
71
3
72
8
73
4
74
0
42
0.000000001
43
0.0000000001
44
0.0000000001
40
0
40
0
40
0
40
0
40
1
40
1
40
1
40
1
41
1
41
1
41
1
41
1
10
284.77208673336793
20
-54.635616575968115
30
0
10
284.4411861391805
20
-54.305065873416268
30
0
10
284.25562514746355
20
-53.856332542263033
30
0
10
284.25562514746355
20
-53.3885489572897
30
0
0
SPLINE
5
154
100
AcDbEntity
8
0
100
AcDbSpline
70
0
71
2
72
6
73
3
74
0
42
0.000000001
43
0.0000000001
44
0.0000000001
40
0
40
0
40
0
40
1
40
1
40
1
10
284.25562514746355
20
-53.3885489572897
30
0
10
284.25562514746355
20
-50.675343875424076
30
0
10
284.25562514746355
20
-45.788326657098139
30
0
0
LINE
5
155
100
AcDbEntity
8
0
100
AcDbLine
10
284.25562514746355
20
-45.788326657098139
30
0
11
270.45570525417463
21
-45.788676548733712
31
0
0
LINE
5
156
100
AcDbEntity
8
0
100
AcDbLine
10
270.45570525417463
20
-45.788676548733712
30
0
11
270.45570525417457
21
-59.58860182497088
31
0
0
SPLINE
5
157
100
AcDbEntity
8
0
100
AcDbSpline
70
0
71
2
72
6
73
3
74
0
42
0.000000001
43
0.0000000001
44
0.0000000001
40
0
40
0
40
0
40
1
40
1
40
1
10
270.45570525417457
20
-59.58860182497088
30
0
10
281.19845505603286
20
-59.587191492532099
30
0
10
283.84428177478281
20
-59.58684160089652
30
0
0
SPLINE
5
158
100
AcDbEntity
8
0
100
AcDbSpline
70
4
71
3
72
8
73
4
74
0
42
0.000000001
43
0.0000000001
44
0.0000000001
40
0
40
0
40
0
40
0
40
1
40
1
40
1
40
1
41
1
41
1
41
1
41
1
10
283.84428177478281
20
-59.58684160089652
30
0
10
284.15050693423973
20
-59.58684160089652
30
0
10
284.44437284453841
20
-59.708550060594881
30
0
10
284.6609611499087
20
-59.925154514809932
30
0
0
SPLINE
5
159
100
AcDbEntity
8
0
100
AcDbSpline
70
4
71
3
72
8
73
4
74
0
42
0.000000001
43
0.0000000001
44
0.0000000001
40
0
40
0
40
0
40
0
40
1
40
1
40
1
40
1
41
1
41
1
41
1
41
1
10
284.6609611499087
20
-59.925154514809932
30
0
10
284.87757098707198
20
-60.141758969024977
30
0
10
284.99929021266684
20
-60.43526960473983
30
0
10
284.99929021266684
20
-60.741833889935819
30
0
0
SPLINE
5
160
100
AcDbEntity
8
0
100
AcDbSpline
70
4
71
3
72
8
73
4
74
0
42
0.000000001
43
0.0000000001
44
0.0000000001
40
0
40
0
40
0
40
0
40
1
40
1
40
1
40
1
41
1
41
1
41
1
41
1
10
284.99929021266684
20
-60.741833889935819
30
0
10
284.99929021266684
20
-61.031813311605461
30
0
10
284.99929021266684
20
-61.343313760337203
30
0
10
284.99929021266684
20
-61.633298564955084
30
0
0
SPLINE
5
161
100
AcDbEntity
8
0
100
AcDbSpline
70
4
71
3
72
8
73
4
74
0
42
0.000000001
43
0.0000000001
44
0.0000000001
40
0
40
0
40
0
40
0
40
1
40
1
40
1
40
1
41
1
41
1
41
1
41
1
10
284.99929021266684
20
-61.633298564955084
30
0
10
284.99929021266684
20
-62.271118718922303
30
0
10
284.48211807759481
20
-62.788290853994368
30
0
10
283.84428177478281
20
-62.788290853994368
30
0
0
SPLINE
5
162
100
AcDbEntity
8
0
100
AcDbSpline
70
0
71
2
72
6
73
3
74
0
42
0.000000001
43
0.0000000001
44
0.0000000001
40
0
40
0
40
0
40
1
40
1
40
1
10
283.84428177478281
20
-62.788290853994368
30
0
10
281.19882109651314
20
-62.788290853994368
30
0
10
274.9260930446485
20
-62.788290853994368
30
0
0
LINE
5
163
100
AcDbEntity
8
0
100
AcDbLine
10
274.9260930446485
20
-62.788290853994368
30
0
11
274.9260930446485
21
-76.58821613023153
31
0
0
LINE
5
164
100
AcDbEntity
8
0
100
AcDbLine
10
274.9260930446485
20
-76.58821613023153
30
0
11
288.7993932883403
21
-76.588216130231544
31
0
0
SPLINE
5
165
100
AcDbEntity
8
0
100
AcDbSpline
70
4
71
3
72
8
73
4
74
0
42
0.000000001
43
0.0000000001
44
0.0000000001
40
0
40
0
40
0
40
0
40
1
40
1
40
1
40
1
41
1
41
1
41
1
41
1
10
288.7993932883403
20
-76.588216130231544
30
0
10
289.2671714903654
20
-76.588216130231544
30
0
10
289.71591558741511
20
-76.773777121948555
30
0
10
290.04681618160254
20
-77.104683099084227
30
0
0
SPLINE
5
166
100
AcDbEntity
8
0
100
AcDbSpline
70
4
71
3
72
8
73
4
74
0
42
0.000000001
43
0.0000000001
44
0.0000000001
40
0
40
0
40
0
40
0
40
1
40
1
40
1
40
1
41
1
41
1
41
1
41
1
10
290.04681618160254
20
-77.104683099084227
30
0
10
290.3773722671026
20
-77.435589076219884
30
0
10
290.56327776750697
20
-77.884317024424888
30
0
10
290.56327776750697
20
-78.352100609398207
30
0
0
SPLINE
5
167
100
AcDbEntity
8
0
100
AcDbSpline
70
0
71
2
72
6
73
3
74
0
42
0.000000001
43
0.0000000001
44
0.0000000001
40
0
40
0
40
0
40
1
40
1
40
1
10
290.56327776750697
20
-78.352100609398207
30
0
10
290.56327776750697
20
-83.491002124701836
30
0
10
290.56327776750697
20
-98.089611580099756
30
0
0
LINE
5
168
100
AcDbEntity
8
0
100
AcDbLine
10
290.56327776750697
20
-98.089611580099756
30
0
11
290.55729192906443
21
-98.244834275538139
31
0
0
LINE
5
169
100
AcDbEntity
8
0
100
AcDbLine
10
290.55729192906443
20
-98.244834275538139
30
0
11
290.53823629229612
21
-98.400767520144143
31
0
0
LINE
5
170
100
AcDbEntity
8
0
100
AcDbLine
10
290.53823629229612
20
-98.400767520144143
30
0
11
290.50718744684985
21
-98.554924391831094
31
0
0
LINE
5
171
100
AcDbEntity
8
0
100
AcDbLine
10
290.50718744684985
20
-98.554924391831094
30
0
11
290.4652004505806
21
-98.706626639120742
31
0
0
LINE
5
172
100
AcDbEntity
8
0
100
AcDbLine
10
290.4652004505806
20
-98.706626639120742
30
0
11
290.41016518777849
21
-98.854786906468718
31
0
0
LINE
5
173
100
AcDbEntity
8
0
100
AcDbLine
10
290.41016518777849
20
-98.854786906468718
30
0
11
290.34526836380132
21
-98.995895511622763
31
0
0
LINE
5
174
100
AcDbEntity
8
0
100
AcDbLine
10
290.34526836380132
20
-98.995895511622763
30
0
11
290.26835679935328
21
-99.132773119460438
31
0
0
LINE
5
175
100
AcDbEntity
8
0
100
AcDbLine
10
290.26835679935328
20
-99.132773119460438
30
0
11
290.18227269110491
21
-99.263654122959153
31
0
0
LINE
5
176
100
AcDbEntity
8
0
100
AcDbLine
10
290.18227269110491
20
-99.263654122959153
30
0
11
290.08314031632364
21
-99.387838738847734
31
0
0
LINE
5
177
100
AcDbEntity
8
0
100
AcDbLine
10
290.08314031632364
20
-99.387838738847734
30
0
11
289.97731155393222
21
-99.503895102894461
31
0
0
LINE
5
178
100
AcDbEntity
8
0
100
AcDbLine
10
289.97731155393222
20
-99.503895102894461
30
0
11
289.86125518988547
21
-99.608668807430917
31
0
0
LINE
5
179
100
AcDbEntity
8
0
100
AcDbLine
10
289.86125518988547
20
-99.608668807430917
30
0
11
289.73813639774835
21
-99.706746124357238
31
0
0
LINE
5
180
100
AcDbEntity
8
0
100
AcDbLine
10
289.73813639774835
20
-99.706746124357238
30
0
11
289.60724462835321
21
-99.793885290460594
31
0
0
LINE
5
181
100
AcDbEntity
8
0
100
AcDbLine
10
289.60724462835321
20
-99.793885290460594
30
0
11
289.47036702051543
21
-99.870786089012142
31
0
0
LINE
5
182
100
AcDbEntity
8
0
100
AcDbLine
10
289.47036702051543
20
-99.870786089012142
30
0
11
289.32821412340297
21
-99.935693678885769
31
0
0
LINE
5
183
100
AcDbEntity
8
0
100
AcDbLine
10
289.32821412340297
20
-99.935693678885769
30
0
11
289.18216397176491
21
-99.991783999542889
31
0
0
LINE
5
184
100
AcDbEntity
8
0
100
AcDbLine
10
289.18216397176491
20
-99.991783999542889
30
0
11
289.02939590072378
21
-100.03377099581209
31
0
0
LINE
5
185
100
AcDbEntity
8
0
100
AcDbLine
10
289.02939590072378
20
-100.03377099581209
30
0
11
288.87524979493332
21
-100.06375401750691
31
0
0
LINE
5
186
100
AcDbEntity
8
0
100
AcDbLine
10
288.87524979493332
20
-100.06375401750691
30
0
11
288.71931655032733
21
-100.08174383052381
31
0
0
LINE
5
187
100
AcDbEntity
8
0
100
AcDbLine
10
288.71931655032733
20
-100.08174383052381
30
0
11
288.56338330572129
21
-100.08774043486278
31
0
0
LINE
5
188
100
AcDbEntity
8
0
100
AcDbLine
10
288.56338330572129
20
-100.08774043486278
30
0
11
7.1888876748017694
21
-100.0898613164692
31
0
0
LINE
5
189
100
AcDbEntity
8
0
100
AcDbLine
10
7.1888876748017694
20
-100.0898613164692
30
0
11
7.0319020638149183
21
-100.08174383052381
31
0
0
LINE
5
190
100
AcDbEntity
8
0
100
AcDbLine
10
7.0319020638149183
20
-100.08174383052381
30
0
11
6.8759742021571402
21
-100.06375401750691
31
0
0
LINE
5
191
100
AcDbEntity
8
0
100
AcDbLine
10
6.8759742021571402
20
-100.06375401750691
30
0
11
6.7218112746534349
21
-100.03377099581209
31
0
0
LINE
5
192
100
AcDbEntity
8
0
100
AcDbLine
10
6.7218112746534349
20
-100.03377099581209
30
0
11
6.5701171017861366
21
-99.991783999542875
31
0
0
LINE
5
193
100
AcDbEntity
8
0
100
AcDbLine
10
6.5701171017861366
20
-99.991783999542875
30
0
11
6.4230092008190169
21
-99.935693678885769
31
0
0
LINE
5
194
100
AcDbEntity
8
0
100
AcDbLine
10
6.4230092008190169
20
-99.935693678885769
30
0
11
6.2808401548617692
21
-99.870786089012157
31
0
0
LINE
5
195
100
AcDbEntity
8
0
100
AcDbLine
10
6.2808401548617692
20
-99.870786089012157
30
0
11
6.1439625470240919
21
-99.793885290460594
31
0
0
LINE
5
196
100
AcDbEntity
8
0
100
AcDbLine
10
6.1439625470240919
20
-99.793885290460594
30
0
11
6.0130822163939088
21
-99.706746124357224
31
0
0
LINE
5
197
100
AcDbEntity
8
0
100
AcDbLine
10
6.0130822163939088
20
-99.706746124357224
30
0
11
5.8899627513882322
21
-99.608668807430902
31
0
0
LINE
5
198
100
AcDbEntity
8
0
100
AcDbLine
10
5.8899627513882322
20
-99.608668807430902
30
0
11
5.7738996586561999
21
-99.503895102894475
31
0
0
LINE
5
199
100
AcDbEntity
8
0
100
AcDbLine
10
5.7738996586561999
20
-99.503895102894475
30
0
11
5.6680661861850821
21
-99.387838738847748
31
0
0
LINE
5
200
100
AcDbEntity
8
0
100
AcDbLine
10
5.6680661861850821
20
-99.387838738847748
30
0
11
5.5699942522070014
21
-99.263654122959153
31
0
0
LINE
5
201
100
AcDbEntity
8
0
100
AcDbLine
10
5.5699942522070014
20
-99.263654122959153
30
0
11
5.4828584504462885
21
-99.132773119460438
31
0
0
LINE
5
202
100
AcDbEntity
8
0
100
AcDbLine
10
5.4828584504462885
20
-99.132773119460438
30
0
11
5.4059532782492834
21
-98.995895511622763
31
0
0
LINE
5
203
100
AcDbEntity
8
0
100
AcDbLine
10
5.4059532782492834
20
-98.995895511622763
30
0
11
5.3410423240330021
21
-98.854786906468718
31
0
0
LINE
5
204
100
AcDbEntity
8
0
100
AcDbLine
10
5.3410423240330021
20
-98.854786906468718
30
0
11
5.2860090798364681
21
-98.706626639120742
31
0
0
LINE
5
205
100
AcDbEntity
8
0
100
AcDbLine
10
5.2860090798364681
20
-98.706626639120742
30
0
11
5.2440284758182765
21
-98.554924391831094
31
0
0
LINE
5
206
100
AcDbEntity
8
0
100
AcDbLine
10
5.2440284758182765
20
-98.554924391831094
30
0
11
5.2129843404517171
21
-98.400767520144143
31
0
0
LINE
5
207
100
AcDbEntity
8
0
100
AcDbLine
10
5.2129843404517171
20
-98.400767520144143
30
0
11
5.1949925088292357
21
-98.244834275538139
31
0
0
LINE
5
208
100
AcDbEntity
8
0
100
AcDbLine
10
5.1949925088292357
20
-98.244834275538139
30
0
11
5.1879371458583865
21
-98.089611580099756
31
0
0
LINE
5
209
100
AcDbEntity
8
0
100
AcDbLine
10
5.1879371458583865
20
-98.089611580099756
30
0
11
5.1879371458583883
21
-78.352100609398207
31
0
0
SPLINE
5
210
100
AcDbEntity
8
0
100
AcDbSpline
70
4
71
3
72
8
73
4
74
0
42
0.000000001
43
0.0000000001
44
0.0000000001
40
0
40
0
40
0
40
0
40
1
40
1
40
1
40
1
41
1
41
1
41
1
41
1
10
5.1879371458583883
20
-78.352100609398207
30
0
10
5.1879371458583883
20
-77.884317024424888
30
0
10
5.3738503842508401
20
-77.435589076219884
30
0
10
5.7047550156494387
20
-77.104683099084227
30
0
0
SPLINE
5
211
100
AcDbEntity
8
0
100
AcDbSpline
70
4
71
3
72
8
73
4
74
0
42
0.000000001
43
0.0000000001
44
0.0000000001
40
0
40
0
40
0
40
0
40
1
40
1
40
1
40
1
41
1
41
1
41
1
41
1
10
5.7047550156494387
20
-77.104683099084227
30
0
10
6.0353070639383404
20
-76.773777121948555
30
0
10
6.4840390493545144
20
-76.588216130231544
30
0
10
6.9518212885907893
20
-76.588216130231544
30
0
0
SPLINE
5
212
100
AcDbEntity
8
0
100
AcDbSpline
70
0
71
2
72
6
73
3
74
0
42
0.000000001
43
0.0000000001
44
0.0000000001
40
0
40
0
40
0
40
1
40
1
40
1
10
6.9518212885907893
20
-76.588216130231544
30
0
10
13.859192882092717
20
-76.588216130231544
30
0
10
20.817364031000697
20
-76.588216130231544
30
0
0
LINE
5
213
100
AcDbEntity
8
0
100
AcDbLine
10
20.817364031000697
20
-76.588216130231544
30
0
11
20.817364031000697
21
-62.788290853994376
31
0
0
LINE
5
214
100
AcDbEntity
8
0
100
AcDbLine
10
20.817364031000697
20
-62.788290853994376
30
0
11
11.23418000557983
21
-62.788290853994368
31
0
0
LINE
5
215
100
AcDbEntity
8
0
100
AcDbLine
10
91.707534317694993
20
-93.588185710076019
30
0
11
91.707534317694993
21
-95.213782248966226
31
0
0
SPLINE
5
216
100
AcDbEntity
8
0
100
AcDbSpline
70
4
71
3
72
8
73
4
74
0
42
0.000000001
43
0.0000000001
44
0.0000000001
40
0
40
0
40
0
40
0
40
1
40
1
40
1
40
1
41
1
41
1
41
1
41
1
10
91.707534317694993
20
-95.213782248966226
30
0
10
91.707534317694993
20
-96.596306377147044
30
0
10
90.584995823592521
20
-97.718489596665705
30
0
10
89.202810821150791
20
-97.718489596665705
30
0
0
SPLINE
5
217
100
AcDbEntity
8
0
100
AcDbSpline
70
4
71
3
72
8
73
4
74
0
42
0.000000001
43
0.0000000001
44
0.0000000001
40
0
40
0
40
0
40
0
40
1
40
1
40
1
40
1
41
1
41
1
41
1
41
1
10
89.202810821150791
20
-97.718489596665705
30
0
10
87.820631201657307
20
-97.718489596665705
30
0
10
86.698098090503052
20
-96.596306377147044
30
0
10
86.698098090503052
20
-95.213782248966226
30
0
0
LINE
5
218
100
AcDbEntity
8
0
100
AcDbLine
10
86.698098090503052
20
-95.213782248966226
30
0
11
86.698098090503052
21
-93.589951317098624
31
0
0
LINE
5
219
100
AcDbEntity
8
0
100
AcDbLine
10
86.698098090503052
20
-93.589951317098624
30
0
11
78.472748628293346
21
-93.588185710076019
31
0
0
LINE
5
220
100
AcDbEntity
8
0
100
AcDbLine
10
78.472748628293346
20
-93.588185710076019
30
0
11
78.47274862829336
21
-79.788610325474423
31
0
0
LINE
5
221
100
AcDbEntity
8
0
100
AcDbLine
10
78.47274862829336
20
-79.788610325474423
30
0
11
92.272679287478766
21
-79.788610325474423
31
0
0
LINE
5
222
100
AcDbEntity
8
0
100
AcDbLine
10
92.272679287478766
20
-79.788610325474423
30
0
11
92.272679287478766
21
-93.588185710076019
31
0
0
LINE
5
223
100
AcDbEntity
8
0
100
AcDbLine
10
92.272679287478766
20
-93.588185710076019
30
0
11
91.707534317694993
21
-93.588185710076019
31
0
0
LWPOLYLINE
5
224
100
AcDbEntity
8
0
100
AcDbPolyline
90
4
70
1
43
0.0
10
136.92329830233513
20
-93.589951317098624
10
136.92329830233513
20
-79.790370549548797
10
123.12336764314971
20
-79.790370549548797
10
123.12336764314971
20
-93.589951317098624
0
LWPOLYLINE
5
225
100
AcDbEntity
8
0
100
AcDbPolyline
90
4
70
1
43
0.0
10
154.78439426092024
20
-93.589951317098624
10
154.78439426092024
20
-79.790370549548797
10
140.98446360173483
20
-79.790370549548797
10
140.98446360173483
20
-93.589951317098624
0
LWPOLYLINE
5
226
100
AcDbEntity
8
0
100
AcDbPolyline
90
4
70
1
43
0.0
10
217.28869153168745
20
-93.589951317098624
10
217.28869153168745
20
-79.790370549548797
10
203.48877163839853
20
-79.790370549548797
10
203.48877163839853
20
-93.589951317098624
0
LWPOLYLINE
5
227
100
AcDbEntity
8
0
100
AcDbPolyline
90
4
70
1
43
0.0
10
114.58899388839851
20
-93.588185710076019
10
114.58899388839851
20
-79.788610325474423
10
100.7890632292131
20
-79.788610325474423
10
100.7890632292131
20
-93.588185710076019
0
LWPOLYLINE
5
228
100
AcDbEntity
8
0
100
AcDbPolyline
90
4
70
1
43
0.0
10
69.94613170195548
20
-93.588185710076019
10
69.94613170195548
20
-79.788610325474423
10
56.146206425718304
20
-79.788610325474423
10
56.146206425718304
20
-93.588185710076019
0
LINE
5
229
100
AcDbEntity
8
0
100
AcDbLine
10
194.95933943013131
20
-79.788610325474423
30
0
11
194.95933943013131
21
-87.792763678620659
31
0
0
SPLINE
5
230
100
AcDbEntity
8
0
100
AcDbSpline
70
0
71
2
72
6
73
3
74
0
42
0.000000001
43
0.0000000001
44
0.0000000001
40
0
40
0
40
0
40
1
40
1
40
1
10
194.95933943013131
20
-87.792763678620659
30
0
10
196.28718357009379
20
-87.792408404036848
30
0
10
197.4612261129532
20
-87.792058512401269
30
0
0
SPLINE
5
231
100
AcDbEntity
8
0
100
AcDbSpline
70
4
71
3
72
8
73
4
74
0
42
0.000000001
43
0.0000000001
44
0.0000000001
40
0
40
0
40
0
40
0
40
1
40
1
40
1
40
1
41
1
41
1
41
1
41
1
10
197.4612261129532
20
-87.792058512401269
30
0
10
197.92900431497827
20
-87.792058512401269
30
0
10
198.37809292071537
20
-87.97796939575386
30
0
10
198.70864900621541
20
-88.308525481253938
30
0
0
SPLINE
5
232
100
AcDbEntity
8
0
100
AcDbSpline
70
4
71
3
72
8
73
4
74
0
42
0.000000001
43
0.0000000001
44
0.0000000001
40
0
40
0
40
0
40
0
40
1
40
1
40
1
40
1
41
1
41
1
41
1
41
1
10
198.70864900621541
20
-88.308525481253938
30
0
10
199.03954960040284
20
-88.639426075441349
30
0
10
199.22545510080721
20
-89.088159406594599
30
0
10
199.22545510080721
20
-89.555942991567932
30
0
0
LINE
5
233
100
AcDbEntity
8
0
100
AcDbLine
10
199.22545510080721
20
-89.555942991567946
30
0
11
199.22545510080721
21
-91.081346714873632
31
0
0
SPLINE
5
234
100
AcDbEntity
8
0
100
AcDbSpline
70
4
71
3
72
8
73
4
74
0
42
0.000000001
43
0.0000000001
44
0.0000000001
40
0
40
0
40
0
40
0
40
1
40
1
40
1
40
1
41
1
41
1
41
1
41
1
10
199.22545510080721
20
-91.081346714873632
30
0
10
199.22545510080721
20
-92.055369667044317
30
0
10
198.43629335708241
20
-92.70835358620262
30
0
10
197.46228117080818
20
-92.70835358620262
30
0
0
SPLINE
5
235
100
AcDbEntity
8
0
100
AcDbSpline
70
0
71
2
72
6
73
3
74
0
42
0.000000001
43
0.0000000001
44
0.0000000001
40
0
40
0
40
0
40
1
40
1
40
1
10
197.46228117080818
20
-92.70835358620262
30
0
10
196.28789411926141
20
-92.70870886078643
30
0
10
194.95933943013131
20
-92.70941940995408
30
0
0
LINE
5
236
100
AcDbEntity
8
0
100
AcDbLine
10
194.95933943013131
20
-92.70941940995408
30
0
11
194.95933943013131
21
-93.588185710076019
31
0
0
LINE
5
237
100
AcDbEntity
8
0
100
AcDbLine
10
194.95933943013131
20
-93.588185710076019
30
0
11
181.1597640455297
21
-93.588185710076019
31
0
0
LINE
5
238
100
AcDbEntity
8
0
100
AcDbLine
10
181.1597640455297
20
-93.588185710076019
30
0
11
181.1597640455297
21
-79.788610325474423
31
0
0
LINE
5
239
100
AcDbEntity
8
0
100
AcDbLine
10
181.1597640455297
20
-79.788610325474423
30
0
11
194.95933943013131
21
-79.788610325474423
31
0
0
LWPOLYLINE
5
240
100
AcDbEntity
8
0
100
AcDbPolyline
90
4
70
1
43
0.0
10
172.63560712653731
20
-93.588185710076019
10
172.63560712653731
20
-79.788610325474423
10
158.8356764673519
20
-79.788610325474423
10
158.8356764673519
20
-93.588185710076019
0
LWPOLYLINE
5
241
100
AcDbEntity
8
0
100
AcDbPolyline
90
4
70
1
43
0.0
10
239.60501689850364
20
-93.588185710076019
10
239.60501689850364
20
-79.788610325474423
10
225.80507547342177
20
-79.788610325474423
10
225.80507547342171
20
-93.588185710076019
0
LWPOLYLINE
5
242
100
AcDbEntity
8
0
100
AcDbPolyline
90
4
70
1
43
0.0
10
235.13955988861721
20
-76.58821613023153
10
235.13955988861721
20
-62.788290853994368
10
221.33716383913807
20
-62.788290853994376
10
221.33716383913807
20
-76.588216130231544
0
LWPOLYLINE
5
243
100
AcDbEntity
8
0
100
AcDbPolyline
90
4
70
1
43
0.0
10
38.683750081968313
20
-76.58821613023153
10
38.683750081968313
20
-62.788290853994368
10
24.88417738884084
20
-62.788290853994376
10
24.88417738884084
20
-76.588216130231544
0
LWPOLYLINE
5
244
100
AcDbEntity
8
0
100
AcDbPolyline
90
4
70
1
43
0.0
10
181.56367894963967
20
-76.58821613023153
10
181.56367894963967
20
-62.788290853994368
10
167.76129366605693
20
-62.788290853994376
10
167.76129366605693
20
-76.588216130231544
0
LWPOLYLINE
5
245
100
AcDbEntity
8
0
100
AcDbPolyline
90
4
70
1
43
0.0
10
56.547666705430984
20
-76.58821613023153
10
56.547666705430984
20
-62.788290853994368
10
42.747741429193809
20
-62.788290853994376
10
42.747741429193809
20
-76.588216130231544
0
LWPOLYLINE
5
246
100
AcDbEntity
8
0
100
AcDbPolyline
90
4
70
1
43
0.0
10
92.2649170761172
20
-76.58821613023153
10
92.2649170761172
20
-62.788290853994368
10
78.465341691515619
20
-62.788290853994376
10
78.465341691515619
20
-76.588216130231544
0
LWPOLYLINE
5
247
100
AcDbEntity
8
0
100
AcDbPolyline
90
4
70
1
43
0.0
10
74.406291890774099
20
-76.58821613023153
10
74.406291890774099
20
-62.788290853994368
10
60.606366614536931
20
-62.788290853994376
10
60.606366614536931
20
-76.588216130231544
0
LWPOLYLINE
5
248
100
AcDbEntity
8
0
100
AcDbPolyline
90
4
70
1
43
0.0
10
253.00840729266741
20
-76.58821613023153
10
253.00840729266741
20
-62.788290853994368
10
239.2088319080658
20
-62.788290853994376
10
239.2088319080658
20
-76.588216130231544
0
LWPOLYLINE
5
249
100
AcDbEntity
8
0
100
AcDbPolyline
90
4
70
1
43
0.0
10
199.42232028382747
20
-76.58821613023153
10
199.42232028382747
20
-62.788290853994368
10
185.62237885874561
20
-62.788290853994376
10
185.62237885874561
20
-76.588216130231544
0
LWPOLYLINE
5
250
100
AcDbEntity
8
0
100
AcDbPolyline
90
4
70
1
43
0.0
10
163.70223848236722
20
-76.58821613023153
10
163.70223848236722
20
-62.788290853994368
10
149.90266309776564
20
-62.788290853994376
10
149.90266309776564
20
-76.588216130231544
0
LWPOLYLINE
5
251
100
AcDbEntity
8
0
100
AcDbPolyline
90
4
70
1
43
0.0
10
127.98498811168101
20
-76.58821613023153
10
127.98498811168101
20
-62.788290853994368
10
114.18505745249558
20
-62.788290853994376
10
114.1850574524956
20
-76.588216130231544
0
LWPOLYLINE
5
252
100
AcDbEntity
8
0
100
AcDbPolyline
90
4
70
1
43
0.0
10
145.84360791407587
20
-76.58821613023153
10
145.84360791407587
20
-62.788290853994368
10
132.04368802078693
20
-62.788290853994376
10
132.04368802078693
20
-76.588216130231544
0
LWPOLYLINE
5
253
100
AcDbEntity
8
0
100
AcDbPolyline
90
4
70
1
43
0.0
10
110.12353687851208
20
-76.58821613023153
10
110.12353687851208
20
-62.788290853994368
10
96.323972259806965
20
-62.788290853994376
10
96.323972259806965
20
-76.588216130231544
0
LWPOLYLINE
5
254
100
AcDbEntity
8
0
100
AcDbPolyline
90
4
70
1
43
0.0
10
270.86704862685519
20
-76.58821613023153
10
270.86704862685519
20
-62.788290853994368
10
257.06747324225364
20
-62.788290853994376
10
257.06747324225364
20
-76.588216130231544
0
LWPOLYLINE
5
255
100
AcDbEntity
8
0
100
AcDbPolyline
90
4
70
1
43
0.0
10
217.28094008622236
20
-76.58821613023153
10
217.28094008622236
20
-62.788290853994368
10
203.48099866114046
20
-62.788290853994376
10
203.48099866114046
20
-76.588216130231544
0
LWPOLYLINE
5
256
100
AcDbEntity
8
0
100
AcDbPolyline
90
4
70
1
43
0.0
10
261.93790021410501
20
-59.587896658751482
10
261.93790021410501
20
-45.787971382514314
10
248.13798032081607
20
-45.787971382514321
10
248.13798032081607
20
-59.58789665875149
0
LWPOLYLINE
5
257
100
AcDbEntity
8
0
100
AcDbPolyline
90
4
70
1
43
0.0
10
244.0792804117101
20
-59.587896658751482
10
244.0792804117101
20
-45.787971382514314
10
230.27936051842119
20
-45.787971382514321
10
230.27936051842119
20
-59.58789665875149
0
LWPOLYLINE
5
258
100
AcDbEntity
8
0
100
AcDbPolyline
90
4
70
1
43
0.0
10
226.21394268991219
20
-59.587896658751482
10
226.21394268991219
20
-45.787971382514314
10
212.41436730531058
20
-45.787971382514321
10
212.41436730531058
20
-59.58789665875149
0
LWPOLYLINE
5
259
100
AcDbEntity
8
0
100
AcDbPolyline
90
4
70
1
43
0.0
10
136.91553609097357
20
-59.587896658751482
10
136.91553609097357
20
-45.787971382514314
10
123.11560543178814
20
-45.787971382514321
10
123.11560543178814
20
-59.58789665875149
0
LWPOLYLINE
5
260
100
AcDbEntity
8
0
100
AcDbPolyline
90
4
70
1
43
0.0
10
83.336839870066655
20
-59.587896658751482
10
83.336839870066655
20
-45.787971382514314
10
69.537264485465059
20
-45.787971382514321
10
69.537264485465059
20
-59.58789665875149
0
LWPOLYLINE
5
261
100
AcDbEntity
8
0
100
AcDbPolyline
90
4
70
1
43
0.0
10
47.619589499380425
20
-59.587896658751482
10
47.619589499380425
20
-45.787971382514314
10
33.819661531669141
20
-45.787971382514321
10
33.819661531669141
20
-59.58789665875149
0
LWPOLYLINE
5
262
100
AcDbEntity
8
0
100
AcDbPolyline
90
4
70
1
43
0.0
10
172.63560712653731
20
-59.587896658751482
10
172.63560712653731
20
-45.787971382514314
10
158.83321107705819
20
-45.787971382514321
10
158.83321107705817
20
-59.58789665875149
0
LWPOLYLINE
5
263
100
AcDbEntity
8
0
100
AcDbPolyline
90
4
70
1
43
0.0
10
65.47821468472354
20
-59.587896658751482
10
65.47821468472354
20
-45.787971382514314
10
51.678289408486364
20
-45.787971382514321
10
51.678289408486371
20
-59.58789665875149
0
LWPOLYLINE
5
264
100
AcDbEntity
8
0
100
AcDbPolyline
90
4
70
1
43
0.0
10
190.49422692893219
20
-59.587896658751482
10
190.49422692893219
20
-45.787971382514314
10
176.69430703564328
20
-45.787971382514321
10
176.69430703564328
20
-59.58789665875149
0
LWPOLYLINE
5
265
100
AcDbEntity
8
0
100
AcDbPolyline
90
4
70
1
43
0.0
10
154.7741558933684
20
-59.587896658751482
10
154.7741558933684
20
-45.787971382514314
10
140.97459127466331
20
-45.787971382514321
10
140.97459127466331
20
-59.58789665875149
0
LWPOLYLINE
5
266
100
AcDbEntity
8
0
100
AcDbPolyline
90
4
70
1
43
0.0
10
101.19546505540976
20
-59.587896658751482
10
101.19546505540976
20
-45.787971382514314
10
87.395889670808174
20
-45.787971382514321
10
87.395889670808174
20
-59.58789665875149
0
LWPOLYLINE
5
267
100
AcDbEntity
8
0
100
AcDbPolyline
90
4
70
1
43
0.0
10
119.0569055226822
20
-59.587896658751482
10
119.0569055226822
20
-45.787971382514314
10
105.25698562939327
20
-45.787971382514321
10
105.25698562939327
20
-59.58789665875149
0
LWPOLYLINE
5
268
100
AcDbEntity
8
0
100
AcDbPolyline
90
4
70
1
43
0.0
10
208.35284673132708
20
-59.587896658751482
10
208.35284673132708
20
-45.787971382514314
10
194.5529268380381
20
-45.787971382514321
10
194.55292683803816
20
-59.58789665875149
0
LWPOLYLINE
5
269
100
AcDbEntity
8
0
100
AcDbPolyline
90
4
70
1
43
0.0
10
25.297983460341136
20
-59.587896658751482
10
25.297983460341136
20
-45.787971382514314
10
11.498410767213663
20
-45.787971382514321
10
11.498410767213665
20
-59.58789665875149
0
LWPOLYLINE
5
270
100
AcDbEntity
8
0
100
AcDbPolyline
90
4
70
1
43
0.0
10
244.0792804117101
20
-42.587579878745565
10
244.0792804117101
20
-28.788004494143969
10
230.27936051842119
20
-28.788004494143962
10
230.27936051842119
20
-42.587579878745558
0
LWPOLYLINE
5
271
100
AcDbEntity
8
0
100
AcDbPolyline
90
4
70
1
43
0.0
10
226.21394268991219
20
-42.587579878745565
10
226.21394268991219
20
-28.788004494143969
10
212.41436730531058
20
-28.788004494143962
10
212.41436730531058
20
-42.587579878745558
0
SPLINE
5
272
100
AcDbEntity
8
0
100
AcDbSpline
70
4
71
3
72
8
73
4
74
0
42
0.000000001
43
0.0000000001
44
0.0000000001
40
0
40
0
40
0
40
0
40
1
40
1
40
1
40
1
41
1
41
1
41
1
41
1
10
30.576585939834121
20
-35.626585373485888
30
0
10
29.251906973436519
20
-35.626585373485888
30
0
10
28.176291639139023
20
-34.550970039188385
30
0
10
28.176291639139023
20
-33.226291072790787
30
0
0
SPLINE
5
273
100
AcDbEntity
8
0
100
AcDbSpline
70
4
71
3
72
8
73
4
74
0
42
0.000000001
43
0.0000000001
44
0.0000000001
40
0
40
0
40
0
40
0
40
1
40
1
40
1
40
1
41
1
41
1
41
1
41
1
10
28.176291639139023
20
-33.226291072790787
30
0
10
28.176291639139023
20
-31.901967380977002
30
0
10
29.251906973436519
20
-30.826352046679499
30
0
10
30.576585939834121
20
-30.826352046679499
30
0
0
LINE
5
274
100
AcDbEntity
8
0
100
AcDbLine
10
30.576585939834121
20
-30.826352046679499
30
0
11
33.819661531669148
21
-30.826352046679499
31
0
0
LINE
5
275
100
AcDbEntity
8
0
100
AcDbLine
10
33.819661531669148
20
-30.826352046679499
30
0
11
33.819661531669141
21
-28.788004494143962
31
0
0
LINE
5
276
100
AcDbEntity
8
0
100
AcDbLine
10
33.819661531669141
20
-28.788004494143962
30
0
11
47.619589499380425
21
-28.788004494143969
31
0
0
LINE
5
277
100
AcDbEntity
8
0
100
AcDbLine
10
47.619589499380425
20
-28.788004494143969
30
0
11
47.619589499380425
21
-42.587579878745565
31
0
0
LINE
5
278
100
AcDbEntity
8
0
100
AcDbLine
10
47.619589499380425
20
-42.587579878745565
30
0
11
33.819661531669141
21
-42.587579878745558
31
0
0
LINE
5
279
100
AcDbEntity
8
0
100
AcDbLine
10
33.819661531669141
20
-42.587579878745558
30
0
11
33.819661531669141
21
-35.626585373485881
31
0
0
LINE
5
280
100
AcDbEntity
8
0
100
AcDbLine
10
33.819661531669141
20
-35.626585373485881
30
0
11
30.576585939834121
21
-35.626585373485888
31
0
0
LWPOLYLINE
5
281
100
AcDbEntity
8
0
100
AcDbPolyline
90
4
70
1
43
0.0
10
208.35284673132708
20
-42.587579878745565
10
208.35284673132708
20
-28.788004494143969
10
194.5529268380381
20
-28.788004494143962
10
194.55292683803816
20
-42.587579878745558
0
LWPOLYLINE
5
282
100
AcDbEntity
8
0
100
AcDbPolyline
90
4
70
1
43
0.0
10
119.0569055226822
20
-42.587579878745565
10
119.0569055226822
20
-28.788004494143969
10
105.25698562939327
20
-28.788004494143962
10
105.25698562939327
20
-42.587579878745558
0
LWPOLYLINE
5
283
100
AcDbEntity
8
0
100
AcDbPolyline
90
4
70
1
43
0.0
10
136.91553609097357
20
-42.587579878745565
10
136.91553609097357
20
-28.788004494143969
10
123.11560543178814
20
-28.788004494143962
10
123.11560543178814
20
-42.587579878745558
0
LWPOLYLINE
5
284
100
AcDbEntity
8
0
100
AcDbPolyline
90
4
70
1
43
0.0
10
154.7741558933684
20
-42.587579878745565
10
154.7741558933684
20
-28.788004494143969
10
140.97459127466331
20
-28.788004494143962
10
140.97459127466331
20
-42.587579878745558
0
LWPOLYLINE
5
285
100
AcDbEntity
8
0
100
AcDbPolyline
90
4
70
1
43
0.0
10
190.49422692893219
20
-42.587579878745565
10
190.49422692893219
20
-28.788004494143969
10
176.69430703564328
20
-28.788004494143962
10
176.69430703564328
20
-42.587579878745558
0
LWPOLYLINE
5
286
100
AcDbEntity
8
0
100
AcDbPolyline
90
4
70
1
43
0.0
10
65.47821468472354
20
-42.587579878745565
10
65.47821468472354
20
-28.788004494143969
10
51.678289408486364
20
-28.788004494143962
10
51.678289408486371
20
-42.587579878745558
0
LWPOLYLINE
5
287
100
AcDbEntity
8
0
100
AcDbPolyline
90
4
70
1
43
0.0
10
101.19546505540976
20
-42.587579878745565
10
101.19546505540976
20
-28.788004494143969
10
87.395889670808174
20
-28.788004494143962
10
87.395889670808174
20
-42.587579878745558
0
LWPOLYLINE
5
288
100
AcDbEntity
8
0
100
AcDbPolyline
90
4
70
1
43
0.0
10
83.336839870066655
20
-42.587579878745565
10
83.336839870066655
20
-28.788004494143969
10
69.537264485465059
20
-28.788004494143962
10
69.537264485465059
20
-42.587579878745558
0
LWPOLYLINE
5
289
100
AcDbEntity
8
0
100
AcDbPolyline
90
4
70
1
43
0.0
10
172.63560712653731
20
-42.587579878745565
10
172.63560712653731
20
-28.788004494143969
10
158.83321107705819
20
-28.788004494143962
10
158.83321107705817
20
-42.587579878745558
0
LWPOLYLINE
5
290
100
AcDbEntity
8
0
100
AcDbPolyline
90
4
70
1
43
0.0
10
25.297983460341136
20
-42.587579878745565
10
25.297983460341136
20
-28.788004494143969
10
11.498410767213663
20
-28.788004494143962
10
11.498410767213665
20
-42.587579878745558
0
SPLINE
5
291
100
AcDbEntity
8
0
100
AcDbSpline
70
4
71
3
72
8
73
4
74
0
42
0.000000001
43
0.0000000001
44
0.0000000001
40
0
40
0
40
0
40
0
40
1
40
1
40
1
40
1
41
1
41
1
41
1
41
1
10
261.93790021410501
20
-30.508852302134674
30
0
10
261.93790021410501
20
-30.593165420412227
30
0
10
261.97142521574153
20
-30.673950016118688
30
0
10
262.03104675044381
20
-30.733216276237169
30
0
0
SPLINE
5
292
100
AcDbEntity
8
0
100
AcDbSpline
70
4
71
3
72
8
73
4
74
0
42
0.000000001
43
0.0000000001
44
0.0000000001
40
0
40
0
40
0
40
0
40
1
40
1
40
1
40
1
41
1
41
1
41
1
41
1
10
262.03104675044381
20
-30.733216276237169
30
0
10
262.09030224466579
20
-30.792837810939471
30
0
10
262.17108953184641
20
-30.826352046679499
30
0
10
262.25540803307217
20
-30.826352046679499
30
0
0
SPLINE
5
293
100
AcDbEntity
8
0
100
AcDbSpline
70
4
71
3
72
8
73
4
74
0
42
0.000000001
43
0.0000000001
44
0.0000000001
40
0
40
0
40
0
40
0
40
1
40
1
40
1
40
1
41
1
41
1
41
1
41
1
10
262.25540803307217
20
-30.826352046679499
30
0
10
263.59772153790283
20
-30.826352046679499
30
0
10
268.7958839303767
20
-30.826352046679499
30
0
10
270.13819743520736
20
-30.826352046679499
30
0
0
SPLINE
5
294
100
AcDbEntity
8
0
100
AcDbSpline
70
4
71
3
72
8
73
4
74
0
42
0.000000001
43
0.0000000001
44
0.0000000001
40
0
40
0
40
0
40
0
40
1
40
1
40
1
40
1
41
1
41
1
41
1
41
1
10
270.13819743520736
20
-30.826352046679499
30
0
10
270.22217142774582
20
-30.826352046679499
30
0
10
270.30295871492643
20
-30.792837810939471
30
0
10
270.36255871783573
20
-30.733216276237169
30
0
0
SPLINE
5
295
100
AcDbEntity
8
0
100
AcDbSpline
70
4
71
3
72
8
73
4
74
0
42
0.000000001
43
0.0000000001
44
0.0000000001
40
0
40
0
40
0
40
0
40
1
40
1
40
1
40
1
41
1
41
1
41
1
41
1
10
270.36255871783573
20
-30.733216276237169
30
0
10
270.42218025253806
20
-30.673950016118688
30
0
10
270.45570525417457
20
-30.593165420412227
30
0
10
270.45570525417457
20
-30.508852302134674
30
0
0
SPLINE
5
296
100
AcDbEntity
8
0
100
AcDbSpline
70
0
71
2
72
6
73
3
74
0
42
0.000000001
43
0.0000000001
44
0.0000000001
40
0
40
0
40
0
40
1
40
1
40
1
10
270.45570525417457
20
-30.508852302134674
30
0
10
270.45570525417457
20
-29.935589846405506
30
0
10
270.45570525417457
20
-28.788004494143969
30
0
0
LINE
5
297
100
AcDbEntity
8
0
100
AcDbLine
10
270.45570525417457
20
-28.788004494143969
30
0
11
284.25562514746349
21
-28.788004494143969
31
0
0
LINE
5
298
100
AcDbEntity
8
0
100
AcDbLine
10
284.25562514746349
20
-28.788004494143969
30
0
11
284.25562514746355
21
-42.587579878745565
31
0
0
LINE
5
299
100
AcDbEntity
8
0
100
AcDbLine
10
284.25562514746355
20
-42.587579878745565
30
0
11
270.45570525417463
21
-42.587579878745558
31
0
0
LINE
5
300
100
AcDbEntity
8
0
100
AcDbLine
10
270.45570525417463
20
-42.587579878745558
30
0
11
270.45570525417457
21
-35.958196516840928
31
0
0
SPLINE
5
301
100
AcDbEntity
8
0
100
AcDbSpline
70
4
71
3
72
8
73
4
74
0
42
0.000000001
43
0.0000000001
44
0.0000000001
40
0
40
0
40
0
40
0
40
1
40
1
40
1
40
1
41
1
41
1
41
1
41
1
10
270.45570525417457
20
-35.958196516840935
30
0
10
270.45570525417457
20
-35.870354875992305
30
0
10
270.42078068599574
20
-35.785689174605054
30
0
10
270.35868299510321
20
-35.723599558134879
30
0
0
SPLINE
5
302
100
AcDbEntity
8
0
100
AcDbSpline
70
4
71
3
72
8
73
4
74
0
42
0.000000001
43
0.0000000001
44
0.0000000001
40
0
40
0
40
0
40
0
40
1
40
1
40
1
40
1
41
1
41
1
41
1
41
1
10
270.35868299510321
20
-35.723599558134879
30
0
10
270.29624079552332
20
-35.661509941664697
30
0
10
270.21192229429755
20
-35.626585373485888
30
0
10
270.1240941108195
20
-35.626585373485888
30
0
0
SPLINE
5
303
100
AcDbEntity
8
0
100
AcDbSpline
70
4
71
3
72
8
73
4
74
0
42
0.000000001
43
0.0000000001
44
0.0000000001
40
0
40
0
40
0
40
0
40
1
40
1
40
1
40
1
41
1
41
1
41
1
41
1
10
270.1240941108195
20
-35.626585373485888
30
0
10
268.76449057624308
20
-35.626585373485888
30
0
10
263.62877038334909
20
-35.626585373485888
30
0
10
262.26951135746003
20
-35.626585373485888
30
0
0
SPLINE
5
304
100
AcDbEntity
8
0
100
AcDbSpline
70
4
71
3
72
8
73
4
74
0
42
0.000000001
43
0.0000000001
44
0.0000000001
40
0
40
0
40
0
40
0
40
1
40
1
40
1
40
1
41
1
41
1
41
1
41
1
10
262.26951135746003
20
-35.626585373485888
30
0
10
262.18166164218906
20
-35.626585373485888
30
0
10
262.09736467275621
20
-35.661509941664697
30
0
10
262.03492247317632
20
-35.723599558134879
30
0
0
SPLINE
5
305
100
AcDbEntity
8
0
100
AcDbSpline
70
4
71
3
72
8
73
4
74
0
42
0.000000001
43
0.0000000001
44
0.0000000001
40
0
40
0
40
0
40
0
40
1
40
1
40
1
40
1
41
1
41
1
41
1
41
1
10
262.03492247317632
20
-35.723599558134879
30
0
10
261.97282478228379
20
-35.785689174605054
30
0
10
261.93790021410501
20
-35.870354875992305
30
0
10
261.93790021410501
20
-35.958196516840935
30
0
0
SPLINE
5
306
100
AcDbEntity
8
0
100
AcDbSpline
70
0
71
2
72
6
73
3
74
0
42
0.000000001
43
0.0000000001
44
0.0000000001
40
0
40
0
40
0
40
1
40
1
40
1
10
261.93790021410501
20
-35.958196516840935
30
0
10
261.93790021410501
20
-37.342491634992605
30
0
10
261.93790021410501
20
-42.587579878745558
30
0
0
LINE
5
307
100
AcDbEntity
8
0
100
AcDbLine
10
261.93790021410501
20
-42.587579878745558
30
0
11
248.13798032081607
21
-42.587579878745558
31
0
0
LINE
5
308
100
AcDbEntity
8
0
100
AcDbLine
10
248.13798032081607
20
-42.587579878745558
30
0
11
248.13798032081607
21
-28.788004494143962
31
0
0
LINE
5
309
100
AcDbEntity
8
0
100
AcDbLine
10
248.13798032081607
20
-28.788004494143962
30
0
11
261.93790021410501
21
-28.788004494143969
31
0
0
LINE
5
310
100
AcDbEntity
8
0
100
AcDbLine
10
261.93790021410501
20
-28.788004494143969
30
0
11
261.93790021410501
21
-30.508852302134674
31
0
0
LWPOLYLINE
5
311
100
AcDbEntity
8
0
100
AcDbPolyline
90
4
70
1
43
0.0
10
181.56615510582992
20
-25.587612990375206
10
181.56615510582992
20
-11.787687714138031
10
167.76622444664446
20
-11.787687714138029
10
167.76622444664451
20
-25.587612990375202
0
LWPOLYLINE
5
312
100
AcDbEntity
8
0
100
AcDbPolyline
90
4
70
1
43
0.0
10
127.98745350197476
20
-25.587612990375206
10
127.98745350197476
20
-11.787687714138031
10
114.18753360868581
20
-11.787687714138029
10
114.18753360868581
20
-25.587612990375202
0
LWPOLYLINE
5
313
100
AcDbEntity
8
0
100
AcDbPolyline
90
4
70
1
43
0.0
10
270.8620963144748
20
-25.587612990375206
10
270.8620963144748
20
-11.787687714138031
10
257.06217642118582
20
-11.787687714138029
10
257.06217642118582
20
-25.587612990375202
0
LWPOLYLINE
5
314
100
AcDbEntity
8
0
100
AcDbPolyline
90
4
70
1
43
0.0
10
235.144856709685
20
-25.587612990375206
10
235.144856709685
20
-11.787687714138031
10
221.34246066020586
20
-11.787687714138029
10
221.34246066020586
20
-25.587612990375202
0
LWPOLYLINE
5
315
100
AcDbEntity
8
0
100
AcDbPolyline
90
4
70
1
43
0.0
10
163.70752453753855
20
-25.587612990375206
10
163.70752453753855
20
-11.787687714138031
10
149.90512848805938
20
-11.787687714138029
10
149.90512848805938
20
-25.587612990375202
0
LWPOLYLINE
5
316
100
AcDbEntity
8
0
100
AcDbPolyline
90
4
70
1
43
0.0
10
217.2833947106196
20
-25.587612990375206
10
217.2833947106196
20
-11.787687714138031
10
203.483840857811
20
-11.787687714138029
10
203.483840857811
20
-25.587612990375202
0
LWPOLYLINE
5
317
100
AcDbEntity
8
0
100
AcDbPolyline
90
4
70
1
43
0.0
10
38.691512293329879
20
-25.587612990375206
10
38.691512293329879
20
-11.787687714138031
10
24.891584325618588
20
-11.787687714138029
10
24.891584325618588
20
-25.587612990375202
0
LWPOLYLINE
5
318
100
AcDbEntity
8
0
100
AcDbPolyline
90
4
70
1
43
0.0
10
20.830065097372135
20
-25.587612990375206
10
20.830065097372135
20
-11.787687714138031
10
7.0304910585076019
20
-11.787687714138029
10
7.0304910585076019
20
-25.587612990375202
0
LWPOLYLINE
5
319
100
AcDbEntity
8
0
100
AcDbPolyline
90
4
70
1
43
0.0
10
288.72071611686965
20
-25.587612990375206
10
288.72071611686965
20
-11.787687714138031
10
274.92116226406102
20
-11.787687714138029
10
274.92116226406102
20
-25.587612990375202
0
LWPOLYLINE
5
320
100
AcDbEntity
8
0
100
AcDbPolyline
90
4
70
1
43
0.0
10
56.55013747867298
20
-25.587612990375206
10
56.55013747867298
20
-11.787687714138031
10
42.750209510961696
20
-11.787687714138029
10
42.750209510961682
20
-25.587612990375202
0
LWPOLYLINE
5
321
100
AcDbEntity
8
0
100
AcDbPolyline
90
4
70
1
43
0.0
10
253.00347651207989
20
-25.587612990375206
10
253.00347651207989
20
-11.787687714138031
10
239.20355661879097
20
-11.787687714138029
10
239.20355661879097
20
-25.587612990375202
0
LINE
5
322
100
AcDbEntity
8
0
100
AcDbLine
10
199.42477490822478
20
-11.787687714138031
30
0
11
199.42477490822478
21
-25.587612990375206
31
0
0
LINE
5
323
100
AcDbEntity
8
0
100
AcDbLine
10
199.42477490822478
20
-25.587612990375206
30
0
11
185.62485501493583
21
-25.587612990375202
31
0
0
LINE
5
324
100
AcDbEntity
8
0
100
AcDbLine
10
185.62485501493583
20
-25.587612990375202
30
0
11
185.6248550149358
21
-11.787687714138029
31
0
0
LINE
5
325
100
AcDbEntity
8
0
100
AcDbLine
10
185.6248550149358
20
-11.787687714138029
30
0
11
192.95272704894259
21
-11.787687714138031
31
0
0
LINE
5
326
100
AcDbEntity
8
0
100
AcDbLine
10
192.95272704894259
20
-11.787687714138031
30
0
11
192.95272704894259
21
-9.1778439857644631
31
0
0
SPLINE
5
327
100
AcDbEntity
8
0
100
AcDbSpline
70
4
71
3
72
8
73
4
74
0
42
0.000000001
43
0.0000000001
44
0.0000000001
40
0
40
0
40
0
40
0
40
1
40
1
40
1
40
1
41
1
41
1
41
1
41
1
10
192.95272704894259
20
-9.1778439857644631
30
0
10
192.95272704894259
20
-8.71006174652819
30
0
10
193.13865408113992
20
-8.2613290882434853
30
0
10
193.46955467532729
20
-7.9307777128231125
30
0
0
SPLINE
5
328
100
AcDbEntity
8
0
100
AcDbSpline
70
4
71
3
72
8
73
4
74
0
42
0.000000001
43
0.0000000001
44
0.0000000001
40
0
40
0
40
0
40
0
40
1
40
1
40
1
40
1
41
1
41
1
41
1
41
1
10
193.46955467532729
20
-7.9307777128231125
30
0
10
193.80011076082738
20
-7.599872408555985
30
0
10
194.24883332608414
20
-7.4139595065977968
30
0
10
194.71661152810927
20
-7.4139595065977968
30
0
0
LINE
5
329
100
AcDbEntity
8
0
100
AcDbLine
10
194.7166115281093
20
-7.4139595065977968
30
0
11
196.26037648786038
21
-7.4139595065977968
31
0
0
SPLINE
5
330
100
AcDbEntity
8
0
100
AcDbSpline
70
4
71
3
72
8
73
4
74
0
42
0.000000001
43
0.0000000001
44
0.0000000001
40
0
40
0
40
0
40
0
40
1
40
1
40
1
40
1
41
1
41
1
41
1
41
1
10
196.26037648786038
20
-7.4139595065977968
30
0
10
196.72849919857282
20
-7.4139595065977968
30
0
10
197.17687725514222
20
-7.599872408555985
30
0
10
197.50779938112262
20
-7.9307777128231125
30
0
0
SPLINE
5
331
100
AcDbEntity
8
0
100
AcDbSpline
70
4
71
3
72
8
73
4
74
0
42
0.000000001
43
0.0000000001
44
0.0000000001
40
0
40
0
40
0
40
0
40
1
40
1
40
1
40
1
41
1
41
1
41
1
41
1
10
197.50779938112262
20
-7.9307777128231125
30
0
10
197.83869997531002
20
-8.2613290882434853
30
0
10
198.02426096702703
20
-8.71006174652819
30
0
10
198.02426096702703
20
-9.1778439857644631
30
0
0
SPLINE
5
332
100
AcDbEntity
8
0
100
AcDbSpline
70
0
71
2
72
6
73
3
74
0
42
0.000000001
43
0.0000000001
44
0.0000000001
40
0
40
0
40
0
40
1
40
1
40
1
10
198.02426096702703
20
-9.1778439857644631
30
0
10
198.02426096702703
20
-10.392454445163409
30
0
10
198.02426096702703
20
-11.787687714138031
30
0
0
LINE
5
333
100
AcDbEntity
8
0
100
AcDbLine
10
198.02426096702703
20
-11.787687714138031
30
0
11
199.42477490822478
21
-11.787687714138031
31
0
0
LINE
5
334
100
AcDbEntity
8
0
100
AcDbLine
10
110.12883369957989
20
-11.787687714138031
30
0
11
110.12883369957989
21
-25.587612990375206
31
0
0
LINE
5
335
100
AcDbEntity
8
0
100
AcDbLine
10
110.12883369957989
20
-25.587612990375206
30
0
11
96.328903040394479
21
-25.587612990375202
31
0
0
LINE
5
336
100
AcDbEntity
8
0
100
AcDbLine
10
96.328903040394479
20
-25.587612990375202
30
0
11
96.328903040394479
21
-11.787687714138029
31
0
0
LINE
5
337
100
AcDbEntity
8
0
100
AcDbLine
10
96.328903040394479
20
-11.787687714138029
30
0
11
97.722376085294727
21
-11.787687714138031
31
0
0
LINE
5
338
100
AcDbEntity
8
0
100
AcDbLine
10
97.722376085294727
20
-11.787687714138031
30
0
11
97.722376085294727
21
-9.1778439857644631
31
0
0
SPLINE
5
339
100
AcDbEntity
8
0
100
AcDbSpline
70
4
71
3
72
8
73
4
74
0
42
0.000000001
43
0.0000000001
44
0.0000000001
40
0
40
0
40
0
40
0
40
1
40
1
40
1
40
1
41
1
41
1
41
1
41
1
10
97.722376085294727
20
-9.1778439857644631
30
0
10
97.722376085294727
20
-8.2038264165420145
30
0
10
98.512237612290704
20
-7.4139595065977968
30
0
10
99.486260564461389
20
-7.4139595065977968
30
0
0
LINE
5
340
100
AcDbEntity
8
0
100
AcDbLine
10
99.486260564461389
20
-7.4139595065977968
30
0
11
100.99473491555342
21
-7.4139595065977968
31
0
0
SPLINE
5
341
100
AcDbEntity
8
0
100
AcDbSpline
70
4
71
3
72
8
73
4
74
0
42
0.000000001
43
0.0000000001
44
0.0000000001
40
0
40
0
40
0
40
0
40
1
40
1
40
1
40
1
41
1
41
1
41
1
41
1
10
100.99473491555342
20
-7.4139595065977968
30
0
10
101.96910237641143
20
-7.4139595065977968
30
0
10
102.75861939472009
20
-8.2038264165420145
30
0
10
102.75861939472009
20
-9.1778439857644631
30
0
0
SPLINE
5
342
100
AcDbEntity
8
0
100
AcDbSpline
70
0
71
2
72
6
73
3
74
0
42
0.000000001
43
0.0000000001
44
0.0000000001
40
0
40
0
40
0
40
1
40
1
40
1
10
102.75861939472009
20
-9.1778439857644631
30
0
10
102.75861939472009
20
-10.392454445163409
30
0
10
102.75861939472009
20
-11.787687714138031
30
0
0
LINE
5
343
100
AcDbEntity
8
0
100
AcDbLine
10
102.75861939472009
20
-11.787687714138031
30
0
11
110.12883369957989
21
-11.787687714138031
31
0
0
LWPOLYLINE
5
344
100
AcDbEntity
8
0
100
AcDbPolyline
90
4
70
1
43
0.0
10
145.8460840702661
20
-25.587612990375206
10
145.8460840702661
20
-11.787687714138031
10
132.04650868566449
20
-11.787687714138029
10
132.04650868566452
20
-25.587612990375202
0
LWPOLYLINE
5
345
100
AcDbEntity
8
0
100
AcDbPolyline
90
4
70
1
43
0.0
10
92.267382466410965
20
-25.587612990375206
10
92.267382466410965
20
-11.787687714138031
10
78.4678124647576
20
-11.787687714138029
10
78.4678124647576
20
-25.587612990375202
0
LWPOLYLINE
5
346
100
AcDbEntity
8
0
100
AcDbPolyline
90
4
70
1
43
0.0
10
74.408762664016095
20
-25.587612990375206
10
74.408762664016095
20
-11.787687714138031
10
60.609187279414492
20
-11.787687714138029
10
60.609187279414499
20
-25.587612990375202
0
ENDSEC
0
SECTION
2
OBJECTS
0
DICTIONARY
5
C
100
AcDbDictionary
3
ACAD_GROUP
350
D
3
ACAD_MLINESTYLE
350
17
0
DICTIONARY
5
D
100
AcDbDictionary
0
DICTIONARY
5
1A
330
C
100
AcDbDictionary
0
DICTIONARY
5
17
100
AcDbDictionary
0
ENDSEC
0
EOF
