0
SECTION
2
HEADER
9
$INSUNITS
70
4
9
$ACADVER
1
AC1014
9
$HANDSEED
5
FFFF
0
ENDSEC
0
SECTION
2
TABLES
0
TABLE
2
VPORT
5
8
100
AcDbSymbolTable
0
ENDTAB
0
TABLE
2
LTYPE
5
5
100
AcDbSymbolTable
0
LTYPE
5
14
100
AcDbSymbolTableRecord
100
AcDbLinetypeTableRecord
2
BYBLOCK
70
0
0
LTYPE
5
15
100
AcDbSymbolTableRecord
100
AcDbLinetypeTableRecord
2
BYLAYER
70
0
0
ENDTAB
0
TABLE
2
LAYER
5
2
100
AcDbSymbolTable
70
2
0
LAYER
5
50
100
AcDbSymbolTableRecord
100
AcDbLayerTableRecord
2
0
70
0
6
CONTINUOUS
0
ENDTAB
0
TABLE
2
STYLE
5
3
100
AcDbSymbolTable
70
1
0
STYLE
5
11
100
AcDbSymbolTableRecord
100
AcDbTextStyleTableRecord
2
STANDARD
70
0
0
ENDTAB
0
TABLE
2
VIEW
5
6
100
AcDbSymbolTable
70
0
0
ENDTAB
0
TABLE
2
UCS
5
7
100
AcDbSymbolTable
70
0
0
ENDTAB
0
TABLE
2
APPID
5
9
100
AcDbSymbolTable
70
2
0
APPID
5
12
100
AcDbSymbolTableRecord
100
AcDbRegAppTableRecord
2
ACAD
70
0
0
ENDTAB
0
TABLE
2
DIMSTYLE
5
A
100
AcDbSymbolTable
70
1
0
ENDTAB
0
TABLE
2
BLOCK_RECORD
5
1
100
AcDbSymbolTable
70
1
0
BLOCK_RECORD
5
1F
100
AcDbSymbolTableRecord
100
AcDbBlockTableRecord
2
*MODEL_SPACE
0
BLOCK_RECORD
5
1B
100
AcDbSymbolTableRecord
100
AcDbBlockTableRecord
2
*PAPER_SPACE
0
ENDTAB
0
ENDSEC
0
SECTION
2
BLOCKS
0
BLOCK
5
20
100
AcDbEntity
100
AcDbBlockBegin
2
*MODEL_SPACE
0
ENDBLK
5
21
100
AcDbEntity
100
AcDbBlockEnd
0
BLOCK
5
1C
100
AcDbEntity
100
AcDbBlockBegin
2
*PAPER_SPACE
0
ENDBLK
5
1D
100
AcDbEntity
100
AcDbBlockEnd
0
ENDSEC
0
SECTION
2
ENTITIES
0
LWPOLYLINE
5
100
100
AcDbEntity
8
0
100
AcDbPolyline
90
4
70
1
43
0.0
10
217.28094008622236
20
-97.837732666070309
10
217.28094008622236
20
-84.037807389833148
10
203.48099866114046
20
-84.037807389833134
10
203.48099866114046
20
-97.837732666070295
0
LWPOLYLINE
5
101
100
AcDbEntity
8
0
100
AcDbPolyline
90
4
70
1
43
0.0
10
252.9981796910121
20
-97.837732666070309
10
252.9981796910121
20
-84.037807389833148
10
239.19860430641049
20
-84.037807389833134
10
239.19860430641049
20
-97.837732666070295
0
LWPOLYLINE
5
102
100
AcDbEntity
8
0
100
AcDbPolyline
90
4
70
1
43
0.0
10
235.13955988861721
20
-97.837732666070309
10
235.13955988861721
20
-84.037807389833148
10
221.3399845040156
20
-84.037807389833134
10
221.3399845040156
20
-97.837732666070295
0
SPLINE
5
103
100
AcDbEntity
8
0
100
AcDbSpline
70
4
71
3
72
8
73
4
74
0
42
0.000000001
43
0.0000000001
44
0.0000000001
40
0
40
0
40
0
40
0
40
1
40
1
40
1
40
1
41
1
41
1
41
1
41
1
10
89.202810821150791
20
-92.70941940995408
30
0
10
90.584995823592521
20
-92.70941940995408
30
0
10
91.707534317694993
20
-93.831602629472727
30
0
10
91.707534317694993
20
-95.213782248966226
30
0
0
SPLINE
5
104
100
AcDbEntity
8
0
100
AcDbSpline
70
4
71
3
72
8
73
4
74
0
42
0.000000001
43
0.0000000001
44
0.0000000001
40
0
40
0
40
0
40
0
40
1
40
1
40
1
40
1
41
1
41
1
41
1
41
1
10
91.707534317694993
20
-95.213782248966226
30
0
10
91.707534317694993
20
-96.596306377147044
30
0
10
90.584995823592521
20
-97.718489596665705
30
0
10
89.202810821150791
20
-97.718489596665705
30
0
0
SPLINE
5
105
100
AcDbEntity
8
0
100
AcDbSpline
70
4
71
3
72
8
73
4
74
0
42
0.000000001
43
0.0000000001
44
0.0000000001
40
0
40
0
40
0
40
0
40
1
40
1
40
1
40
1
41
1
41
1
41
1
41
1
10
89.202810821150791
20
-97.718489596665705
30
0
10
87.820631201657307
20
-97.718489596665705
30
0
10
86.698098090503052
20
-96.596306377147044
30
0
10
86.698098090503052
20
-95.213782248966226
30
0
0
SPLINE
5
106
100
AcDbEntity
8
0
100
AcDbSpline
70
4
71
3
72
8
73
4
74
0
42
0.000000001
43
0.0000000001
44
0.0000000001
40
0
40
0
40
0
40
0
40
1
40
1
40
1
40
1
41
1
41
1
41
1
41
1
10
86.698098090503052
20
-95.213782248966226
30
0
10
86.698098090503052
20
-93.831602629472727
30
0
10
87.820631201657307
20
-92.70941940995408
30
0
10
89.202810821150791
20
-92.70941940995408
30
0
0
LINE
5
107
100
AcDbEntity
8
0
100
AcDbLine
10
194.95933943013131
20
-79.788610325474423
30
0
11
194.95933943013131
21
-87.792763678620659
31
0
0
SPLINE
5
108
100
AcDbEntity
8
0
100
AcDbSpline
70
0
71
2
72
6
73
3
74
0
42
0.000000001
43
0.0000000001
44
0.0000000001
40
0
40
0
40
0
40
1
40
1
40
1
10
194.95933943013131
20
-87.792763678620659
30
0
10
196.28718357009379
20
-87.792408404036848
30
0
10
197.4612261129532
20
-87.792058512401269
30
0
0
SPLINE
5
109
100
AcDbEntity
8
0
100
AcDbSpline
70
4
71
3
72
8
73
4
74
0
42
0.000000001
43
0.0000000001
44
0.0000000001
40
0
40
0
40
0
40
0
40
1
40
1
40
1
40
1
41
1
41
1
41
1
41
1
10
197.4612261129532
20
-87.792058512401269
30
0
10
197.92900431497827
20
-87.792058512401269
30
0
10
198.37809292071537
20
-87.97796939575386
30
0
10
198.70864900621541
20
-88.308525481253938
30
0
0
SPLINE
5
110
100
AcDbEntity
8
0
100
AcDbSpline
70
4
71
3
72
8
73
4
74
0
42
0.000000001
43
0.0000000001
44
0.0000000001
40
0
40
0
40
0
40
0
40
1
40
1
40
1
40
1
41
1
41
1
41
1
41
1
10
198.70864900621541
20
-88.308525481253938
30
0
10
199.03954960040284
20
-88.639426075441349
30
0
10
199.22545510080721
20
-89.088159406594599
30
0
10
199.22545510080721
20
-89.555942991567932
30
0
0
LINE
5
111
100
AcDbEntity
8
0
100
AcDbLine
10
199.22545510080721
20
-89.555942991567946
30
0
11
199.22545510080721
21
-91.081346714873632
31
0
0
SPLINE
5
112
100
AcDbEntity
8
0
100
AcDbSpline
70
4
71
3
72
8
73
4
74
0
42
0.000000001
43
0.0000000001
44
0.0000000001
40
0
40
0
40
0
40
0
40
1
40
1
40
1
40
1
41
1
41
1
41
1
41
1
10
199.22545510080721
20
-91.081346714873632
30
0
10
199.22545510080721
20
-92.055369667044317
30
0
10
198.43629335708241
20
-92.70835358620262
30
0
10
197.46228117080818
20
-92.70835358620262
30
0
0
SPLINE
5
113
100
AcDbEntity
8
0
100
AcDbSpline
70
0
71
2
72
6
73
3
74
0
42
0.000000001
43
0.0000000001
44
0.0000000001
40
0
40
0
40
0
40
1
40
1
40
1
10
197.46228117080818
20
-92.70835358620262
30
0
10
196.28789411926141
20
-92.70870886078643
30
0
10
194.95933943013131
20
-92.70941940995408
30
0
0
LINE
5
114
100
AcDbEntity
8
0
100
AcDbLine
10
194.95933943013131
20
-92.70941940995408
30
0
11
194.95933943013131
21
-93.588185710076019
31
0
0
LINE
5
115
100
AcDbEntity
8
0
100
AcDbLine
10
194.95933943013131
20
-93.588185710076019
30
0
11
193.19967518238454
21
-93.588185710076019
31
0
0
SPLINE
5
116
100
AcDbEntity
8
0
100
AcDbSpline
70
0
71
2
72
6
73
3
74
0
42
0.000000001
43
0.0000000001
44
0.0000000001
40
0
40
0
40
0
40
1
40
1
40
1
10
193.19967518238454
20
-93.588185710076019
30
0
10
193.20109628071975
20
-94.645106065137242
30
0
10
193.20215133857474
20
-95.647690940667474
30
0
0
SPLINE
5
117
100
AcDbEntity
8
0
100
AcDbSpline
70
4
71
3
72
8
73
4
74
0
42
0.000000001
43
0.0000000001
44
0.0000000001
40
0
40
0
40
0
40
0
40
1
40
1
40
1
40
1
41
1
41
1
41
1
41
1
10
193.20215133857474
20
-95.647690940667474
30
0
10
193.20286188774236
20
-96.1158244172764
30
0
10
193.01730089602532
20
-96.565268297597257
30
0
10
192.68637877004497
20
-96.896524166368494
30
0
0
SPLINE
5
118
100
AcDbEntity
8
0
100
AcDbSpline
70
4
71
3
72
8
73
4
74
0
42
0.000000001
43
0.0000000001
44
0.0000000001
40
0
40
0
40
0
40
0
40
1
40
1
40
1
40
1
41
1
41
1
41
1
41
1
10
192.68637877004497
20
-96.896524166368494
30
0
10
192.35547817585754
20
-97.22778003513973
30
0
10
191.90675561060078
20
-97.413696301440552
30
0
10
191.43826685940809
20
-97.413696301440552
30
0
0
LINE
5
119
100
AcDbEntity
8
0
100
AcDbLine
10
191.43826685940806
20
-97.413696301440552
30
0
11
189.96118586244964
21
-97.413696301440552
31
0
0
SPLINE
5
120
100
AcDbEntity
8
0
100
AcDbSpline
70
4
71
3
72
8
73
4
74
0
42
0.000000001
43
0.0000000001
44
0.0000000001
40
0
40
0
40
0
40
0
40
1
40
1
40
1
40
1
41
1
41
1
41
1
41
1
10
189.96118586244964
20
-97.413696301440552
30
0
10
189.49340766042457
20
-97.413696301440552
30
0
10
189.04466356337483
20
-97.228135309723541
30
0
10
188.71412900966774
20
-96.897234715536129
30
0
0
SPLINE
5
121
100
AcDbEntity
8
0
100
AcDbSpline
70
4
71
3
72
8
73
4
74
0
42
0.000000001
43
0.0000000001
44
0.0000000001
40
0
40
0
40
0
40
0
40
1
40
1
40
1
40
1
41
1
41
1
41
1
41
1
10
188.71412900966774
20
-96.897234715536129
30
0
10
188.38320688368736
20
-96.566323355452241
30
0
10
188.19730138328299
20
-96.11794529888283
30
0
10
188.19730138328299
20
-95.649811822273904
30
0
0
SPLINE
5
122
100
AcDbEntity
8
0
100
AcDbSpline
70
0
71
2
72
6
73
3
74
0
42
0.000000001
43
0.0000000001
44
0.0000000001
40
0
40
0
40
0
40
1
40
1
40
1
10
188.19730138328299
20
-95.649811822273904
30
0
10
188.19730138328299
20
-94.646516397576036
30
0
10
188.19730138328299
20
-93.588185710076019
30
0
0
LINE
5
123
100
AcDbEntity
8
0
100
AcDbLine
10
188.19730138328299
20
-93.588185710076019
30
0
11
181.15976404552976
21
-93.588185710076019
31
0
0
LINE
5
124
100
AcDbEntity
8
0
100
AcDbLine
10
181.15976404552976
20
-93.588185710076019
30
0
11
181.1597640455297
21
-79.788610325474423
31
0
0
LINE
5
125
100
AcDbEntity
8
0
100
AcDbLine
10
181.1597640455297
20
-79.788610325474423
30
0
11
194.95933943013131
21
-79.788610325474423
31
0
0
LWPOLYLINE
5
126
100
AcDbEntity
8
0
100
AcDbPolyline
90
4
70
1
43
0.0
10
270.85964169007747
20
-93.588185710076019
10
270.85964169007747
20
-79.788610325474423
10
257.05970026499563
20
-79.788610325474423
10
257.05970026499557
20
-93.588185710076019
0
LWPOLYLINE
5
127
100
AcDbEntity
8
0
100
AcDbPolyline
90
4
70
1
43
0.0
10
288.71826149247232
20
-93.588185710076019
10
288.71826149247232
20
-79.788610325474423
10
274.91832006739048
20
-79.788610325474423
10
274.91832006739048
20
-93.588185710076019
0
LWPOLYLINE
5
128
100
AcDbEntity
8
0
100
AcDbPolyline
90
4
70
1
43
0.0
10
172.63560712653731
20
-93.588185710076019
10
172.63560712653731
20
-79.788610325474423
10
158.8356764673519
20
-79.788610325474423
10
158.8356764673519
20
-93.588185710076019
0
LWPOLYLINE
5
129
100
AcDbEntity
8
0
100
AcDbPolyline
90
4
70
1
43
0.0
10
110.12883369957989
20
-93.588185710076019
10
110.12883369957989
20
-79.788610325474423
10
96.328903040394479
20
-79.788610325474423
10
96.328903040394479
20
-93.588185710076019
0
LWPOLYLINE
5
130
100
AcDbEntity
8
0
100
AcDbPolyline
90
4
70
1
43
0.0
10
145.8460840702661
20
-93.588185710076019
10
145.8460840702661
20
-79.788610325474423
10
132.04650868566449
20
-79.788610325474423
10
132.04650868566452
20
-93.588185710076019
0
LWPOLYLINE
5
131
100
AcDbEntity
8
0
100
AcDbPolyline
90
4
70
1
43
0.0
10
83.339310643308664
20
-93.588185710076019
10
83.339310643308664
20
-79.788610325474423
10
69.539735258707054
20
-79.788610325474423
10
69.539735258707069
20
-93.588185710076019
0
LWPOLYLINE
5
132
100
AcDbEntity
8
0
100
AcDbPolyline
90
4
70
1
43
0.0
10
38.691512293329879
20
-93.588185710076019
10
38.691512293329879
20
-79.788610325474423
10
24.891584325618588
20
-79.788610325474423
10
24.891584325618588
20
-93.588185710076019
0
LWPOLYLINE
5
133
100
AcDbEntity
8
0
100
AcDbPolyline
90
4
70
1
43
0.0
10
20.830065097372135
20
-93.588185710076019
10
20.830065097372135
20
-79.788610325474423
10
7.0304910585076019
20
-79.788610325474423
10
7.0304910585076019
20
-93.588185710076019
0
LWPOLYLINE
5
134
100
AcDbEntity
8
0
100
AcDbPolyline
90
4
70
1
43
0.0
10
61.015583722662932
20
-93.588185710076019
10
61.015583722662932
20
-79.788610325474423
10
47.215658446425756
20
-79.788610325474423
10
47.215658446425756
20
-93.588185710076019
0
LWPOLYLINE
5
135
100
AcDbEntity
8
0
100
AcDbPolyline
90
8
70
1
43
0.0
10
89.427882652946792
20
-78.239214801864634
10
93.026916463024776
20
-78.239214801864634
10
93.02691646302479
20
-82.887401372694029
10
94.378402511655821
20
-82.887401372694029
10
94.378402511655807
20
-89.737622877604167
10
88.079217269193336
20
-89.737622877604196
10
88.079217269193336
20
-82.887401372694029
10
89.427882652946792
20
-82.887401372694029
0
LWPOLYLINE
5
136
100
AcDbEntity
8
0
100
AcDbPolyline
90
8
70
1
43
0.0
10
113.42835488665582
20
-78.239214801864634
10
117.02738331378555
20
-78.239214801864634
10
117.02738331378555
20
-82.887401372694029
10
118.37852485372926
20
-82.887401372694029
10
118.37852485372926
20
-89.737622877604167
10
112.07686883802479
20
-89.737622877604196
10
112.07686883802479
20
-82.887401372694029
10
113.42835488665582
20
-82.887401372694029
0
LWPOLYLINE
5
137
100
AcDbEntity
8
0
100
AcDbPolyline
90
8
70
1
43
0.0
10
149.145605257342
20
-78.239214801864634
10
152.74745434934934
20
-78.239214801864634
10
152.74745434934934
20
-82.887401372694029
10
154.09611973310282
20
-82.887401372694029
10
154.09611973310282
20
-89.737622877604167
10
147.79693987358857
20
-89.737622877604196
10
147.79693987358857
20
-82.887401372694029
10
149.145605257342
20
-82.887401372694029
0
LWPOLYLINE
5
138
100
AcDbEntity
8
0
100
AcDbPolyline
90
8
70
1
43
0.0
10
125.14760379687502
20
-78.239214801864634
10
128.74698749858857
20
-78.239214801864634
10
128.74698749858857
20
-82.887401372694029
10
130.09565288234202
20
-82.887401372694029
10
130.09565288234202
20
-89.737622877604167
10
123.79647302282778
20
-89.737622877604196
10
123.7964730228278
20
-82.887401372694029
10
125.14760379687502
20
-82.887401372694029
0
LWPOLYLINE
5
139
100
AcDbEntity
8
0
100
AcDbPolyline
90
4
70
1
43
0.0
10
235.144856709685
20
-80.837413194590255
10
235.144856709685
20
-67.037843192936904
10
221.34246066020586
20
-67.037843192936904
10
221.34246066020586
20
-80.837413194590255
0
LWPOLYLINE
5
140
100
AcDbEntity
8
0
100
AcDbPolyline
90
4
70
1
43
0.0
10
217.28094008622236
20
-76.58821613023153
10
217.28094008622236
20
-62.788290853994368
10
203.48099866114046
20
-62.788290853994376
10
203.48099866114046
20
-76.588216130231544
0
LWPOLYLINE
5
141
100
AcDbEntity
8
0
100
AcDbPolyline
90
4
70
1
43
0.0
10
110.12353687851208
20
-76.58821613023153
10
110.12353687851208
20
-62.788290853994368
10
96.323972259806965
20
-62.788290853994376
10
96.323972259806965
20
-76.588216130231544
0
LWPOLYLINE
5
142
100
AcDbEntity
8
0
100
AcDbPolyline
90
4
70
1
43
0.0
10
145.84360791407587
20
-76.58821613023153
10
145.84360791407587
20
-62.788290853994368
10
132.04368802078693
20
-62.788290853994376
10
132.04368802078693
20
-76.588216130231544
0
LWPOLYLINE
5
143
100
AcDbEntity
8
0
100
AcDbPolyline
90
4
70
1
43
0.0
10
127.98498811168101
20
-76.58821613023153
10
127.98498811168101
20
-62.788290853994368
10
114.18505745249558
20
-62.788290853994376
10
114.1850574524956
20
-76.588216130231544
0
LWPOLYLINE
5
144
100
AcDbEntity
8
0
100
AcDbPolyline
90
4
70
1
43
0.0
10
163.70223848236722
20
-76.58821613023153
10
163.70223848236722
20
-62.788290853994368
10
149.90266309776564
20
-62.788290853994376
10
149.90266309776564
20
-76.588216130231544
0
LWPOLYLINE
5
145
100
AcDbEntity
8
0
100
AcDbPolyline
90
4
70
1
43
0.0
10
199.42232028382747
20
-76.58821613023153
10
199.42232028382747
20
-62.788290853994368
10
185.62237885874561
20
-62.788290853994376
10
185.62237885874561
20
-76.588216130231544
0
LWPOLYLINE
5
146
100
AcDbEntity
8
0
100
AcDbPolyline
90
4
70
1
43
0.0
10
181.56367894963967
20
-76.58821613023153
10
181.56367894963967
20
-62.788290853994368
10
167.76129366605693
20
-62.788290853994376
10
167.76129366605693
20
-76.588216130231544
0
LWPOLYLINE
5
147
100
AcDbEntity
8
0
100
AcDbPolyline
90
4
70
1
43
0.0
10
74.406291890774099
20
-76.58821613023153
10
74.406291890774099
20
-62.788290853994368
10
60.606366614536931
20
-62.788290853994376
10
60.606366614536931
20
-76.588216130231544
0
LWPOLYLINE
5
148
100
AcDbEntity
8
0
100
AcDbPolyline
90
4
70
1
43
0.0
10
56.547666705430984
20
-76.58821613023153
10
56.547666705430984
20
-62.788290853994368
10
42.747741429193809
20
-62.788290853994376
10
42.747741429193809
20
-76.588216130231544
0
LWPOLYLINE
5
149
100
AcDbEntity
8
0
100
AcDbPolyline
90
4
70
1
43
0.0
10
92.2649170761172
20
-76.58821613023153
10
92.2649170761172
20
-62.788290853994368
10
78.465341691515619
20
-62.788290853994376
10
78.465341691515619
20
-76.588216130231544
0
LWPOLYLINE
5
150
100
AcDbEntity
8
0
100
AcDbPolyline
90
4
70
1
43
0.0
10
253.00840729266741
20
-76.58821613023153
10
253.00840729266741
20
-62.788290853994368
10
239.2088319080658
20
-62.788290853994376
10
239.2088319080658
20
-76.588216130231544
0
LWPOLYLINE
5
151
100
AcDbEntity
8
0
100
AcDbPolyline
90
4
70
1
43
0.0
10
270.86704862685519
20
-76.58821613023153
10
270.86704862685519
20
-62.788290853994368
10
257.06747324225364
20
-62.788290853994376
10
257.06747324225364
20
-76.588216130231544
0
LWPOLYLINE
5
152
100
AcDbEntity
8
0
100
AcDbPolyline
90
4
70
1
43
0.0
10
172.63560712653731
20
-59.587896658751482
10
172.63560712653731
20
-45.787971382514314
10
158.83321107705819
20
-45.787971382514321
10
158.83321107705817
20
-59.58789665875149
0
LWPOLYLINE
5
153
100
AcDbEntity
8
0
100
AcDbPolyline
90
4
70
1
43
0.0
10
208.35284673132708
20
-59.587896658751482
10
208.35284673132708
20
-45.787971382514314
10
194.5529268380381
20
-45.787971382514321
10
194.55292683803816
20
-59.58789665875149
0
LWPOLYLINE
5
154
100
AcDbEntity
8
0
100
AcDbPolyline
90
4
70
1
43
0.0
10
190.49422692893219
20
-59.587896658751482
10
190.49422692893219
20
-45.787971382514314
10
176.69430703564328
20
-45.787971382514321
10
176.69430703564328
20
-59.58789665875149
0
LWPOLYLINE
5
155
100
AcDbEntity
8
0
100
AcDbPolyline
90
4
70
1
43
0.0
10
154.7741558933684
20
-59.587896658751482
10
154.7741558933684
20
-45.787971382514314
10
140.97459127466331
20
-45.787971382514321
10
140.97459127466331
20
-59.58789665875149
0
LWPOLYLINE
5
156
100
AcDbEntity
8
0
100
AcDbPolyline
90
4
70
1
43
0.0
10
136.91553609097357
20
-59.587896658751482
10
136.91553609097357
20
-45.787971382514314
10
123.11560543178814
20
-45.787971382514321
10
123.11560543178814
20
-59.58789665875149
0
LWPOLYLINE
5
157
100
AcDbEntity
8
0
100
AcDbPolyline
90
4
70
1
43
0.0
10
119.0569055226822
20
-59.587896658751482
10
119.0569055226822
20
-45.787971382514314
10
105.25698562939327
20
-45.787971382514321
10
105.25698562939327
20
-59.58789665875149
0
LWPOLYLINE
5
158
100
AcDbEntity
8
0
100
AcDbPolyline
90
4
70
1
43
0.0
10
101.19546505540976
20
-59.587896658751482
10
101.19546505540976
20
-45.787971382514314
10
87.395889670808174
20
-45.787971382514321
10
87.395889670808174
20
-59.58789665875149
0
LWPOLYLINE
5
159
100
AcDbEntity
8
0
100
AcDbPolyline
90
4
70
1
43
0.0
10
83.336839870066655
20
-59.587896658751482
10
83.336839870066655
20
-45.787971382514314
10
69.537264485465059
20
-45.787971382514321
10
69.537264485465059
20
-59.58789665875149
0
LWPOLYLINE
5
160
100
AcDbEntity
8
0
100
AcDbPolyline
90
4
70
1
43
0.0
10
47.619589499380425
20
-59.587896658751482
10
47.619589499380425
20
-45.787971382514314
10
33.819661531669141
20
-45.787971382514321
10
33.819661531669141
20
-59.58789665875149
0
LWPOLYLINE
5
161
100
AcDbEntity
8
0
100
AcDbPolyline
90
4
70
1
43
0.0
10
65.47821468472354
20
-59.587896658751482
10
65.47821468472354
20
-45.787971382514314
10
51.678289408486364
20
-45.787971382514321
10
51.678289408486371
20
-59.58789665875149
0
LWPOLYLINE
5
162
100
AcDbEntity
8
0
100
AcDbPolyline
90
4
70
1
43
0.0
10
253.00840729266741
20
-59.587896658751482
10
253.00840729266741
20
-45.787971382514314
10
239.2088319080658
20
-45.787971382514321
10
239.2088319080658
20
-59.58789665875149
0
LWPOLYLINE
5
163
100
AcDbEntity
8
0
100
AcDbPolyline
90
4
70
1
43
0.0
10
270.86704862685519
20
-59.587896658751482
10
270.86704862685519
20
-45.787971382514314
10
257.06747324225364
20
-45.787971382514321
10
257.06747324225364
20
-59.58789665875149
0
LWPOLYLINE
5
164
100
AcDbEntity
8
0
100
AcDbPolyline
90
4
70
1
43
0.0
10
230.68187585598884
20
-59.587896658751482
10
230.68187585598884
20
-45.787971382514314
10
216.88230047138723
20
-45.787971382514321
10
216.88230047138723
20
-59.58789665875149
0
LWPOLYLINE
5
165
100
AcDbEntity
8
0
100
AcDbPolyline
90
4
70
1
43
0.0
10
25.297983460341136
20
-59.587896658751482
10
25.297983460341136
20
-45.787971382514314
10
11.498410767213663
20
-45.787971382514321
10
11.498410767213665
20
-59.58789665875149
0
LWPOLYLINE
5
166
100
AcDbEntity
8
0
100
AcDbPolyline
90
4
70
1
43
0.0
10
253.00840729266741
20
-42.587579878745565
10
253.00840729266741
20
-28.788004494143969
10
239.2088319080658
20
-28.788004494143962
10
239.2088319080658
20
-42.587579878745558
0
LWPOLYLINE
5
167
100
AcDbEntity
8
0
100
AcDbPolyline
90
4
70
1
43
0.0
10
119.0569055226822
20
-42.587579878745565
10
119.0569055226822
20
-28.788004494143969
10
105.25698562939327
20
-28.788004494143962
10
105.25698562939327
20
-42.587579878745558
0
LWPOLYLINE
5
168
100
AcDbEntity
8
0
100
AcDbPolyline
90
4
70
1
43
0.0
10
208.35284673132708
20
-42.587579878745565
10
208.35284673132708
20
-28.788004494143969
10
194.5529268380381
20
-28.788004494143962
10
194.55292683803816
20
-42.587579878745558
0
LWPOLYLINE
5
169
100
AcDbEntity
8
0
100
AcDbPolyline
90
4
70
1
43
0.0
10
288.72601293793741
20
-42.587579878745565
10
288.72601293793741
20
-28.788004494143969
10
274.9260930446485
20
-28.788004494143962
10
274.9260930446485
20
-42.587579878745558
0
LWPOLYLINE
5
170
100
AcDbEntity
8
0
100
AcDbPolyline
90
4
70
1
43
0.0
10
270.86704862685519
20
-42.587579878745565
10
270.86704862685519
20
-28.788004494143969
10
257.06747324225364
20
-28.788004494143962
10
257.06747324225364
20
-42.587579878745558
0
LWPOLYLINE
5
171
100
AcDbEntity
8
0
100
AcDbPolyline
90
4
70
1
43
0.0
10
190.49422692893219
20
-42.587579878745565
10
190.49422692893219
20
-28.788004494143969
10
176.69430703564328
20
-28.788004494143962
10
176.69430703564328
20
-42.587579878745558
0
LWPOLYLINE
5
172
100
AcDbEntity
8
0
100
AcDbPolyline
90
4
70
1
43
0.0
10
154.7741558933684
20
-42.587579878745565
10
154.7741558933684
20
-28.788004494143969
10
140.97459127466331
20
-28.788004494143962
10
140.97459127466331
20
-42.587579878745558
0
LWPOLYLINE
5
173
100
AcDbEntity
8
0
100
AcDbPolyline
90
4
70
1
43
0.0
10
136.91553609097357
20
-42.587579878745565
10
136.91553609097357
20
-28.788004494143969
10
123.11560543178814
20
-28.788004494143962
10
123.11560543178814
20
-42.587579878745558
0
LWPOLYLINE
5
174
100
AcDbEntity
8
0
100
AcDbPolyline
90
4
70
1
43
0.0
10
172.63560712653731
20
-42.587579878745565
10
172.63560712653731
20
-28.788004494143969
10
158.83321107705819
20
-28.788004494143962
10
158.83321107705817
20
-42.587579878745558
0
LWPOLYLINE
5
175
100
AcDbEntity
8
0
100
AcDbPolyline
90
4
70
1
43
0.0
10
101.19546505540976
20
-42.587579878745565
10
101.19546505540976
20
-28.788004494143969
10
87.395889670808174
20
-28.788004494143962
10
87.395889670808174
20
-42.587579878745558
0
LWPOLYLINE
5
176
100
AcDbEntity
8
0
100
AcDbPolyline
90
4
70
1
43
0.0
10
83.336839870066655
20
-42.587579878745565
10
83.336839870066655
20
-28.788004494143969
10
69.537264485465059
20
-28.788004494143962
10
69.537264485465059
20
-42.587579878745558
0
LWPOLYLINE
5
177
100
AcDbEntity
8
0
100
AcDbPolyline
90
4
70
1
43
0.0
10
65.47821468472354
20
-42.587579878745565
10
65.47821468472354
20
-28.788004494143969
10
51.678289408486364
20
-28.788004494143962
10
51.678289408486371
20
-42.587579878745558
0
LWPOLYLINE
5
178
100
AcDbEntity
8
0
100
AcDbPolyline
90
4
70
1
43
0.0
10
25.297983460341136
20
-42.587579878745565
10
25.297983460341136
20
-28.788004494143969
10
11.498410767213663
20
-28.788004494143962
10
11.498410767213665
20
-42.587579878745558
0
LWPOLYLINE
5
179
100
AcDbEntity
8
0
100
AcDbPolyline
90
4
70
1
43
0.0
10
230.68187585598884
20
-42.587579878745565
10
230.68187585598884
20
-28.788004494143969
10
216.88230047138723
20
-28.788004494143962
10
216.88230047138723
20
-42.587579878745558
0
LWPOLYLINE
5
180
100
AcDbEntity
8
0
100
AcDbPolyline
90
4
70
1
43
0.0
10
163.70752453753855
20
-25.587612990375206
10
163.70752453753855
20
-11.787687714138031
10
149.90512848805938
20
-11.787687714138029
10
149.90512848805938
20
-25.587612990375202
0
LWPOLYLINE
5
181
100
AcDbEntity
8
0
100
AcDbPolyline
90
4
70
1
43
0.0
10
145.8460840702661
20
-25.587612990375206
10
145.8460840702661
20
-11.787687714138031
10
132.04650868566449
20
-11.787687714138029
10
132.04650868566452
20
-25.587612990375202
0
LINE
5
182
100
AcDbEntity
8
0
100
AcDbLine
10
110.12883369957989
20
-11.787687714138031
30
0
11
110.12883369957989
21
-25.587612990375206
31
0
0
LINE
5
183
100
AcDbEntity
8
0
100
AcDbLine
10
110.12883369957989
20
-25.587612990375206
30
0
11
96.328903040394479
21
-25.587612990375202
31
0
0
LINE
5
184
100
AcDbEntity
8
0
100
AcDbLine
10
96.328903040394479
20
-25.587612990375202
30
0
11
96.328903040394479
21
-11.787687714138029
31
0
0
LINE
5
185
100
AcDbEntity
8
0
100
AcDbLine
10
96.328903040394479
20
-11.787687714138029
30
0
11
97.722376085294727
21
-11.787687714138031
31
0
0
LINE
5
186
100
AcDbEntity
8
0
100
AcDbLine
10
97.722376085294727
20
-11.787687714138031
30
0
11
97.722376085294727
21
-9.1778439857644631
31
0
0
SPLINE
5
187
100
AcDbEntity
8
0
100
AcDbSpline
70
4
71
3
72
8
73
4
74
0
42
0.000000001
43
0.0000000001
44
0.0000000001
40
0
40
0
40
0
40
0
40
1
40
1
40
1
40
1
41
1
41
1
41
1
41
1
10
97.722376085294727
20
-9.1778439857644631
30
0
10
97.722376085294727
20
-8.2038264165420145
30
0
10
98.512237612290704
20
-7.4139595065977968
30
0
10
99.486260564461389
20
-7.4139595065977968
30
0
0
LINE
5
188
100
AcDbEntity
8
0
100
AcDbLine
10
99.486260564461389
20
-7.4139595065977968
30
0
11
100.99473491555342
21
-7.4139595065977968
31
0
0
SPLINE
5
189
100
AcDbEntity
8
0
100
AcDbSpline
70
4
71
3
72
8
73
4
74
0
42
0.000000001
43
0.0000000001
44
0.0000000001
40
0
40
0
40
0
40
0
40
1
40
1
40
1
40
1
41
1
41
1
41
1
41
1
10
100.99473491555342
20
-7.4139595065977968
30
0
10
101.96910237641143
20
-7.4139595065977968
30
0
10
102.75861939472009
20
-8.2038264165420145
30
0
10
102.75861939472009
20
-9.1778439857644631
30
0
0
SPLINE
5
190
100
AcDbEntity
8
0
100
AcDbSpline
70
0
71
2
72
6
73
3
74
0
42
0.000000001
43
0.0000000001
44
0.0000000001
40
0
40
0
40
0
40
1
40
1
40
1
10
102.75861939472009
20
-9.1778439857644631
30
0
10
102.75861939472009
20
-10.392454445163409
30
0
10
102.75861939472009
20
-11.787687714138031
30
0
0
LINE
5
191
100
AcDbEntity
8
0
100
AcDbLine
10
102.75861939472009
20
-11.787687714138031
30
0
11
110.12883369957989
21
-11.787687714138031
31
0
0
LWPOLYLINE
5
192
100
AcDbEntity
8
0
100
AcDbPolyline
90
4
70
1
43
0.0
10
127.98745350197476
20
-25.587612990375206
10
127.98745350197476
20
-11.787687714138031
10
114.18753360868581
20
-11.787687714138029
10
114.18753360868581
20
-25.587612990375202
0
LWPOLYLINE
5
193
100
AcDbEntity
8
0
100
AcDbPolyline
90
4
70
1
43
0.0
10
92.267382466410965
20
-25.587612990375206
10
92.267382466410965
20
-11.787687714138031
10
78.4678124647576
20
-11.787687714138029
10
78.4678124647576
20
-25.587612990375202
0
LWPOLYLINE
5
194
100
AcDbEntity
8
0
100
AcDbPolyline
90
4
70
1
43
0.0
10
288.72071611686965
20
-25.587612990375206
10
288.72071611686965
20
-11.787687714138031
10
274.92116226406102
20
-11.787687714138029
10
274.92116226406102
20
-25.587612990375202
0
LWPOLYLINE
5
195
100
AcDbEntity
8
0
100
AcDbPolyline
90
4
70
1
43
0.0
10
270.8620963144748
20
-25.587612990375206
10
270.8620963144748
20
-11.787687714138031
10
257.06217642118582
20
-11.787687714138029
10
257.06217642118582
20
-25.587612990375202
0
LWPOLYLINE
5
196
100
AcDbEntity
8
0
100
AcDbPolyline
90
4
70
1
43
0.0
10
181.56615510582992
20
-25.587612990375206
10
181.56615510582992
20
-11.787687714138031
10
167.76622444664446
20
-11.787687714138029
10
167.76622444664451
20
-25.587612990375202
0
LWPOLYLINE
5
197
100
AcDbEntity
8
0
100
AcDbPolyline
90
4
70
1
43
0.0
10
74.408762664016095
20
-25.587612990375206
10
74.408762664016095
20
-11.787687714138031
10
60.609187279414492
20
-11.787687714138029
10
60.609187279414499
20
-25.587612990375202
0
LWPOLYLINE
5
198
100
AcDbEntity
8
0
100
AcDbPolyline
90
4
70
1
43
0.0
10
20.830065097372135
20
-25.587612990375206
10
20.830065097372135
20
-11.787687714138031
10
7.0304910585076019
20
-11.787687714138029
10
7.0304910585076019
20
-25.587612990375202
0
LWPOLYLINE
5
199
100
AcDbEntity
8
0
100
AcDbPolyline
90
4
70
1
43
0.0
10
38.691512293329879
20
-25.587612990375206
10
38.691512293329879
20
-11.787687714138031
10
24.891584325618588
20
-11.787687714138029
10
24.891584325618588
20
-25.587612990375202
0
LWPOLYLINE
5
200
100
AcDbEntity
8
0
100
AcDbPolyline
90
4
70
1
43
0.0
10
235.144856709685
20
-25.587612990375206
10
235.144856709685
20
-11.787687714138031
10
221.34246066020586
20
-11.787687714138029
10
221.34246066020586
20
-25.587612990375202
0
LWPOLYLINE
5
201
100
AcDbEntity
8
0
100
AcDbPolyline
90
4
70
1
43
0.0
10
56.55013747867298
20
-25.587612990375206
10
56.55013747867298
20
-11.787687714138031
10
42.750209510961696
20
-11.787687714138029
10
42.750209510961682
20
-25.587612990375202
0
LWPOLYLINE
5
202
100
AcDbEntity
8
0
100
AcDbPolyline
90
4
70
1
43
0.0
10
217.2833947106196
20
-25.587612990375206
10
217.2833947106196
20
-11.787687714138031
10
203.483840857811
20
-11.787687714138029
10
203.483840857811
20
-25.587612990375202
0
LWPOLYLINE
5
203
100
AcDbEntity
8
0
100
AcDbPolyline
90
4
70
1
43
0.0
10
253.00347651207989
20
-25.587612990375206
10
253.00347651207989
20
-11.787687714138031
10
239.20355661879097
20
-11.787687714138029
10
239.20355661879097
20
-25.587612990375202
0
LINE
5
204
100
AcDbEntity
8
0
100
AcDbLine
10
199.42477490822478
20
-11.787687714138031
30
0
11
199.42477490822478
21
-25.587612990375206
31
0
0
LINE
5
205
100
AcDbEntity
8
0
100
AcDbLine
10
199.42477490822478
20
-25.587612990375206
30
0
11
185.62485501493583
21
-25.587612990375202
31
0
0
LINE
5
206
100
AcDbEntity
8
0
100
AcDbLine
10
185.62485501493583
20
-25.587612990375202
30
0
11
185.6248550149358
21
-11.787687714138029
31
0
0
LINE
5
207
100
AcDbEntity
8
0
100
AcDbLine
10
185.6248550149358
20
-11.787687714138029
30
0
11
192.95272704894259
21
-11.787687714138031
31
0
0
LINE
5
208
100
AcDbEntity
8
0
100
AcDbLine
10
192.95272704894259
20
-11.787687714138031
30
0
11
192.95272704894259
21
-9.1778439857644631
31
0
0
SPLINE
5
209
100
AcDbEntity
8
0
100
AcDbSpline
70
4
71
3
72
8
73
4
74
0
42
0.000000001
43
0.0000000001
44
0.0000000001
40
0
40
0
40
0
40
0
40
1
40
1
40
1
40
1
41
1
41
1
41
1
41
1
10
192.95272704894259
20
-9.1778439857644631
30
0
10
192.95272704894259
20
-8.71006174652819
30
0
10
193.13865408113992
20
-8.2613290882434853
30
0
10
193.46955467532729
20
-7.9307777128231125
30
0
0
SPLINE
5
210
100
AcDbEntity
8
0
100
AcDbSpline
70
4
71
3
72
8
73
4
74
0
42
0.000000001
43
0.0000000001
44
0.0000000001
40
0
40
0
40
0
40
0
40
1
40
1
40
1
40
1
41
1
41
1
41
1
41
1
10
193.46955467532729
20
-7.9307777128231125
30
0
10
193.80011076082738
20
-7.599872408555985
30
0
10
194.24883332608414
20
-7.4139595065977968
30
0
10
194.71661152810927
20
-7.4139595065977968
30
0
0
LINE
5
211
100
AcDbEntity
8
0
100
AcDbLine
10
194.7166115281093
20
-7.4139595065977968
30
0
11
196.26037648786038
21
-7.4139595065977968
31
0
0
SPLINE
5
212
100
AcDbEntity
8
0
100
AcDbSpline
70
4
71
3
72
8
73
4
74
0
42
0.000000001
43
0.0000000001
44
0.0000000001
40
0
40
0
40
0
40
0
40
1
40
1
40
1
40
1
41
1
41
1
41
1
41
1
10
196.26037648786038
20
-7.4139595065977968
30
0
10
196.72849919857282
20
-7.4139595065977968
30
0
10
197.17687725514222
20
-7.599872408555985
30
0
10
197.50779938112262
20
-7.9307777128231125
30
0
0
SPLINE
5
213
100
AcDbEntity
8
0
100
AcDbSpline
70
4
71
3
72
8
73
4
74
0
42
0.000000001
43
0.0000000001
44
0.0000000001
40
0
40
0
40
0
40
0
40
1
40
1
40
1
40
1
41
1
41
1
41
1
41
1
10
197.50779938112262
20
-7.9307777128231125
30
0
10
197.83869997531002
20
-8.2613290882434853
30
0
10
198.02426096702703
20
-8.71006174652819
30
0
10
198.02426096702703
20
-9.1778439857644631
30
0
0
SPLINE
5
214
100
AcDbEntity
8
0
100
AcDbSpline
70
0
71
2
72
6
73
3
74
0
42
0.000000001
43
0.0000000001
44
0.0000000001
40
0
40
0
40
0
40
1
40
1
40
1
10
198.02426096702703
20
-9.1778439857644631
30
0
10
198.02426096702703
20
-10.392454445163409
30
0
10
198.02426096702703
20
-11.787687714138031
30
0
0
LINE
5
215
100
AcDbEntity
8
0
100
AcDbLine
10
198.02426096702703
20
-11.787687714138031
30
0
11
199.42477490822478
21
-11.787687714138031
31
0
0
SPLINE
5
216
100
AcDbEntity
8
0
100
AcDbSpline
70
4
71
3
72
8
73
4
74
0
42
0.000000001
43
0.0000000001
44
0.0000000001
40
0
40
0
40
0
40
0
40
1
40
1
40
1
40
1
41
1
41
1
41
1
41
1
10
11.23418000557983
20
-62.788290853994368
30
0
10
10.634812269493978
20
-62.788290853994368
30
0
10
10.149038198635223
20
-62.302517456004139
30
0
10
10.149038198635223
20
-61.703147701312702
30
0
0
SPLINE
5
217
100
AcDbEntity
8
0
100
AcDbSpline
70
4
71
3
72
8
73
4
74
0
42
0.000000001
43
0.0000000001
44
0.0000000001
40
0
40
0
40
0
40
0
40
1
40
1
40
1
40
1
41
1
41
1
41
1
41
1
10
10.149038198635223
20
-61.703147701312702
30
0
10
10.149038198635223
20
-61.702797809677122
30
0
10
10.149038198635223
20
-61.702797809677122
30
0
10
10.149038198635223
20
-61.702442535093311
30
0
0
SPLINE
5
218
100
AcDbEntity
8
0
100
AcDbSpline
70
4
71
3
72
8
73
4
74
0
42
0.000000001
43
0.0000000001
44
0.0000000001
40
0
40
0
40
0
40
0
40
1
40
1
40
1
40
1
41
1
41
1
41
1
41
1
10
10.149038198635223
20
-61.702442535093311
30
0
10
10.149038198635223
20
-61.02193560158571
30
0
10
9.878458922421256
20
-60.36965146569856
30
0
10
9.3965652843747538
20
-59.889169505827908
30
0
0
SPLINE
5
219
100
AcDbEntity
8
0
100
AcDbSpline
70
4
71
3
72
8
73
4
74
0
42
0.000000001
43
0.0000000001
44
0.0000000001
40
0
40
0
40
0
40
0
40
1
40
1
40
1
40
1
41
1
41
1
41
1
41
1
10
9.3965652843747538
20
-59.889169505827908
30
0
10
8.9150249023064791
20
-59.408332271373432
30
0
10
8.262034927331408
20
-59.1391687105465
30
0
10
7.5818812498020343
20
-59.14057904298528
30
0
0
SPLINE
5
220
100
AcDbEntity
8
0
100
AcDbSpline
70
0
71
2
72
6
73
3
74
0
42
0.000000001
43
0.0000000001
44
0.0000000001
40
0
40
0
40
0
40
1
40
1
40
1
10
7.5818812498020343
20
-59.14057904298528
30
0
10
6.5895199387159353
20
-59.142694541643465
30
0
10
5.6878216062245777
20
-59.144460148666063
30
0
0
LINE
5
221
100
AcDbEntity
8
0
100
AcDbLine
10
5.6878216062245777
20
-59.144460148666063
30
0
11
5.3343395441718506
21
-58.998054722444223
31
0
0
LINE
5
222
100
AcDbEntity
8
0
100
AcDbLine
10
5.3343395441718506
20
-58.998054722444223
30
0
11
5.1879371458583865
21
-58.644572660391496
31
0
0
LINE
5
223
100
AcDbEntity
8
0
100
AcDbLine
10
5.1879371458583865
20
-58.644572660391496
30
0
11
5.1889952316217425
21
-7.1631349775547992
31
0
0
LINE
5
224
100
AcDbEntity
8
0
100
AcDbLine
10
5.1889952316217425
20
-7.1631349775547992
30
0
11
5.1949925088292357
21
-7.0061493665679295
31
0
0
LINE
5
225
100
AcDbEntity
8
0
100
AcDbLine
10
5.1949925088292357
20
-7.0061493665679295
30
0
11
5.2129843404517171
21
-6.8498689218004554
31
0
0
LINE
5
226
100
AcDbEntity
8
0
100
AcDbLine
10
5.2129843404517171
20
-6.8498689218004554
30
0
11
5.2440284758182765
21
-6.6960585774064461
31
0
0
LINE
5
227
100
AcDbEntity
8
0
100
AcDbLine
10
5.2440284758182765
20
-6.6960585774064461
30
0
11
5.2860090798364681
21
-6.5440111485609211
31
0
0
LINE
5
228
100
AcDbEntity
8
0
100
AcDbLine
10
5.2860090798364681
20
-6.5440111485609211
30
0
11
5.3410423240330021
21
-6.3969032475938015
31
0
0
LINE
5
229
100
AcDbEntity
8
0
100
AcDbLine
10
5.3410423240330021
20
-6.3969032475938015
30
0
11
5.4059532782492834
21
-6.2550874576147795
31
0
0
LINE
5
230
100
AcDbEntity
8
0
100
AcDbLine
10
5.4059532782492834
20
-6.2550874576147795
30
0
11
5.4828584504462885
21
-6.1178565937988765
31
0
0
LINE
5
231
100
AcDbEntity
8
0
100
AcDbLine
10
5.4828584504462885
20
-6.1178565937988765
30
0
11
5.5699942522070014
21
-5.986976936037224
31
0
0
LINE
5
232
100
AcDbEntity
8
0
100
AcDbLine
10
5.5699942522070014
20
-5.986976936037224
30
0
11
5.6680661861850821
21
-5.8638574710315456
31
0
0
LINE
5
233
100
AcDbEntity
8
0
100
AcDbLine
10
5.6680661861850821
20
-5.8638574710315456
30
0
11
5.7738996586561999
21
-5.7481469614092129
31
0
0
LINE
5
234
100
AcDbEntity
8
0
100
AcDbLine
10
5.7738996586561999
20
-5.7481469614092129
30
0
11
5.8899627513882322
21
-5.6419609058283964
31
0
0
LINE
5
235
100
AcDbEntity
8
0
100
AcDbLine
10
5.8899627513882322
20
-5.6419609058283964
30
0
11
6.0130822163939088
21
-5.5438889718503157
31
0
0
LINE
5
236
100
AcDbEntity
8
0
100
AcDbLine
10
6.0130822163939088
20
-5.5438889718503157
30
0
11
6.1439625470240911
21
-5.4571057531992997
31
0
0
LINE
5
237
100
AcDbEntity
8
0
100
AcDbLine
10
6.1439625470240911
20
-5.4571057531992997
30
0
11
6.2808401548617674
21
-5.3798476614583333
31
0
0
LINE
5
238
100
AcDbEntity
8
0
100
AcDbLine
10
6.2808401548617674
20
-5.3798476614583333
30
0
11
6.4230092008190169
21
-5.3149367072420519
31
0
0
LINE
5
239
100
AcDbEntity
8
0
100
AcDbLine
10
6.4230092008190169
20
-5.3149367072420519
30
0
11
6.5701171017861366
21
-5.2599034630455179
31
0
0
LINE
5
240
100
AcDbEntity
8
0
100
AcDbLine
10
6.5701171017861366
20
-5.2599034630455179
30
0
11
6.7218112746534349
21
-5.2179231954615908
31
0
0
LINE
5
241
100
AcDbEntity
8
0
100
AcDbLine
10
6.7218112746534349
20
-5.2179231954615908
30
0
11
6.8759742021571402
21
-5.1868787236607687
31
0
0
LINE
5
242
100
AcDbEntity
8
0
100
AcDbLine
10
6.8759742021571402
20
-5.1868787236607687
30
0
11
7.0319020638149183
21
-5.1688872284725518
31
0
0
LINE
5
243
100
AcDbEntity
8
0
100
AcDbLine
10
7.0319020638149183
20
-5.1688872284725518
30
0
11
7.1888876748017871
21
-5.1618315290674381
31
0
0
LINE
5
244
100
AcDbEntity
8
0
100
AcDbLine
10
7.1888876748017871
20
-5.1618315290674381
30
0
11
288.56338330572129
21
-5.1628899512650577
31
0
0
LINE
5
245
100
AcDbEntity
8
0
100
AcDbLine
10
288.56338330572129
20
-5.1628899512650577
30
0
11
288.71931655032728
21
-5.1688872284725518
31
0
0
LINE
5
246
100
AcDbEntity
8
0
100
AcDbLine
10
288.71931655032728
20
-5.1688872284725518
30
0
11
288.87524979493327
21
-5.1868787236607687
31
0
0
LINE
5
247
100
AcDbEntity
8
0
100
AcDbLine
10
288.87524979493327
20
-5.1868787236607687
30
0
11
289.02939590072378
21
-5.2179231954615926
31
0
0
LINE
5
248
100
AcDbEntity
8
0
100
AcDbLine
10
289.02939590072378
20
-5.2179231954615926
30
0
11
289.18216397176485
21
-5.2599034630455188
31
0
0
LINE
5
249
100
AcDbEntity
8
0
100
AcDbLine
10
289.18216397176485
20
-5.2599034630455188
30
0
11
289.32821412340292
21
-5.3149367072420519
31
0
0
LINE
5
250
100
AcDbEntity
8
0
100
AcDbLine
10
289.32821412340292
20
-5.3149367072420519
30
0
11
289.47036702051548
21
-5.3798476614583333
31
0
0
LINE
5
251
100
AcDbEntity
8
0
100
AcDbLine
10
289.47036702051548
20
-5.3798476614583333
30
0
11
289.60724462835321
21
-5.4571057531992997
31
0
0
LINE
5
252
100
AcDbEntity
8
0
100
AcDbLine
10
289.60724462835321
20
-5.4571057531992997
30
0
11
289.73813639774835
21
-5.5438889718503157
31
0
0
LINE
5
253
100
AcDbEntity
8
0
100
AcDbLine
10
289.73813639774835
20
-5.5438889718503157
30
0
11
289.86125518988547
21
-5.6419609058283973
31
0
0
LINE
5
254
100
AcDbEntity
8
0
100
AcDbLine
10
289.86125518988547
20
-5.6419609058283973
30
0
11
289.97731155393217
21
-5.7481469614092129
31
0
0
LINE
5
255
100
AcDbEntity
8
0
100
AcDbLine
10
289.97731155393217
20
-5.7481469614092129
30
0
11
290.08314031632358
21
-5.8638574710315456
31
0
0
LINE
5
256
100
AcDbEntity
8
0
100
AcDbLine
10
290.08314031632358
20
-5.8638574710315456
30
0
11
290.18227269110491
21
-5.986976936037224
31
0
0
LINE
5
257
100
AcDbEntity
8
0
100
AcDbLine
10
290.18227269110491
20
-5.986976936037224
30
0
11
290.26835679935334
21
-6.1178565937988747
31
0
0
LINE
5
258
100
AcDbEntity
8
0
100
AcDbLine
10
290.26835679935334
20
-6.1178565937988747
30
0
11
290.34526836380132
21
-6.2550874576147795
31
0
0
LINE
5
259
100
AcDbEntity
8
0
100
AcDbLine
10
290.34526836380132
20
-6.2550874576147795
30
0
11
290.41016518777843
21
-6.3969032475938006
31
0
0
LINE
5
260
100
AcDbEntity
8
0
100
AcDbLine
10
290.41016518777843
20
-6.3969032475938006
30
0
11
290.4652004505806
21
-6.5440111485609211
31
0
0
LINE
5
261
100
AcDbEntity
8
0
100
AcDbLine
10
290.4652004505806
20
-6.5440111485609211
30
0
11
290.50718744684985
21
-6.6960585774064469
31
0
0
LINE
5
262
100
AcDbEntity
8
0
100
AcDbLine
10
290.50718744684985
20
-6.6960585774064469
30
0
11
290.53823629229612
21
-6.8498689218004554
31
0
0
LINE
5
263
100
AcDbEntity
8
0
100
AcDbLine
10
290.53823629229612
20
-6.8498689218004554
30
0
11
290.55729192906443
21
-7.0061493665679295
31
0
0
LINE
5
264
100
AcDbEntity
8
0
100
AcDbLine
10
290.55729192906443
20
-7.0061493665679295
30
0
11
290.56327776750697
21
-7.1631349775547983
31
0
0
SPLINE
5
265
100
AcDbEntity
8
0
100
AcDbSpline
70
0
71
2
72
6
73
3
74
0
42
0.000000001
43
0.0000000001
44
0.0000000001
40
0
40
0
40
0
40
1
40
1
40
1
10
290.56327776750697
20
-7.1631349775547983
30
0
10
290.56327776750697
20
-36.461962419322177
30
0
10
290.56327776750697
20
-44.024086903347659
30
0
0
SPLINE
5
266
100
AcDbEntity
8
0
100
AcDbSpline
70
4
71
3
72
8
73
4
74
0
42
0.000000001
43
0.0000000001
44
0.0000000001
40
0
40
0
40
0
40
0
40
1
40
1
40
1
40
1
41
1
41
1
41
1
41
1
10
290.56327776750697
20
-44.024086903347659
30
0
10
290.56327776750697
20
-44.998457055679808
30
0
10
289.77340547461449
20
-45.787971382514314
30
0
10
288.7993932883403
20
-45.787971382514314
30
0
0
SPLINE
5
267
100
AcDbEntity
8
0
100
AcDbSpline
70
0
71
2
72
6
73
3
74
0
42
0.000000001
43
0.0000000001
44
0.0000000001
40
0
40
0
40
0
40
1
40
1
40
1
10
288.7993932883403
20
-45.787971382514314
30
0
10
284.70964453378809
20
-45.787971382514314
30
0
10
274.9260930446485
20
-45.787971382514314
30
0
0
LINE
5
268
100
AcDbEntity
8
0
100
AcDbLine
10
274.9260930446485
20
-45.787971382514314
30
0
11
274.9260930446485
21
-59.587896658751482
31
0
0
SPLINE
5
269
100
AcDbEntity
8
0
100
AcDbSpline
70
0
71
2
72
6
73
3
74
0
42
0.000000001
43
0.0000000001
44
0.0000000001
40
0
40
0
40
0
40
1
40
1
40
1
10
274.9260930446485
20
-59.58789665875149
30
0
10
282.03102489436213
20
-59.587191492532099
30
0
10
284.87335075565215
20
-59.58684160089652
30
0
0
SPLINE
5
270
100
AcDbEntity
8
0
100
AcDbSpline
70
4
71
3
72
8
73
4
74
0
42
0.000000001
43
0.0000000001
44
0.0000000001
40
0
40
0
40
0
40
0
40
1
40
1
40
1
40
1
41
1
41
1
41
1
41
1
10
284.87335075565215
20
-59.58684160089652
30
0
10
285.17989889200339
20
-59.58684160089652
30
0
10
285.47342029361471
20
-59.708550060594881
30
0
10
285.69000859898506
20
-59.925154514809932
30
0
0
SPLINE
5
271
100
AcDbEntity
8
0
100
AcDbSpline
70
4
71
3
72
8
73
4
74
0
42
0.000000001
43
0.0000000001
44
0.0000000001
40
0
40
0
40
0
40
0
40
1
40
1
40
1
40
1
41
1
41
1
41
1
41
1
10
285.69000859898506
20
-59.925154514809932
30
0
10
285.90698447662868
20
-60.141758969024977
30
0
10
286.02833766174319
20
-60.43526960473983
30
0
10
286.02833766174319
20
-60.741833889935819
30
0
0
SPLINE
5
272
100
AcDbEntity
8
0
100
AcDbSpline
70
4
71
3
72
8
73
4
74
0
42
0.000000001
43
0.0000000001
44
0.0000000001
40
0
40
0
40
0
40
0
40
1
40
1
40
1
40
1
41
1
41
1
41
1
41
1
10
286.02833766174319
20
-60.741833889935819
30
0
10
286.02833766174319
20
-61.031813311605461
30
0
10
286.02833766174319
20
-61.343313760337203
30
0
10
286.02833766174319
20
-61.633298564955084
30
0
0
SPLINE
5
273
100
AcDbEntity
8
0
100
AcDbSpline
70
4
71
3
72
8
73
4
74
0
42
0.000000001
43
0.0000000001
44
0.0000000001
40
0
40
0
40
0
40
0
40
1
40
1
40
1
40
1
41
1
41
1
41
1
41
1
10
286.02833766174319
20
-61.633298564955084
30
0
10
286.02833766174319
20
-61.939862850151066
30
0
10
285.90698447662868
20
-62.233373485865911
30
0
10
285.69037463946535
20
-62.44997794008097
30
0
0
SPLINE
5
274
100
AcDbEntity
8
0
100
AcDbSpline
70
4
71
3
72
8
73
4
74
0
42
0.000000001
43
0.0000000001
44
0.0000000001
40
0
40
0
40
0
40
0
40
1
40
1
40
1
40
1
41
1
41
1
41
1
41
1
10
285.69037463946535
20
-62.44997794008097
30
0
10
285.47376480230207
20
-62.666582394296015
30
0
10
285.17989889200339
20
-62.788290853994368
30
0
10
284.87369526433946
20
-62.788290853994368
30
0
0
SPLINE
5
275
100
AcDbEntity
8
0
100
AcDbSpline
70
0
71
2
72
6
73
3
74
0
42
0.000000001
43
0.0000000001
44
0.0000000001
40
0
40
0
40
0
40
1
40
1
40
1
10
284.87369526433946
20
-62.788290853994368
30
0
10
282.0313694030495
20
-62.788290853994368
30
0
10
274.9260930446485
20
-62.788290853994368
30
0
0
LINE
5
276
100
AcDbEntity
8
0
100
AcDbLine
10
274.9260930446485
20
-62.788290853994368
30
0
11
274.9260930446485
21
-76.58821613023153
31
0
0
LINE
5
277
100
AcDbEntity
8
0
100
AcDbLine
10
274.9260930446485
20
-76.58821613023153
30
0
11
288.7993932883403
21
-76.588216130231544
31
0
0
SPLINE
5
278
100
AcDbEntity
8
0
100
AcDbSpline
70
4
71
3
72
8
73
4
74
0
42
0.000000001
43
0.0000000001
44
0.0000000001
40
0
40
0
40
0
40
0
40
1
40
1
40
1
40
1
41
1
41
1
41
1
41
1
10
288.7993932883403
20
-76.588216130231544
30
0
10
289.2671714903654
20
-76.588216130231544
30
0
10
289.71591558741511
20
-76.773777121948555
30
0
10
290.04681618160254
20
-77.104683099084227
30
0
0
SPLINE
5
279
100
AcDbEntity
8
0
100
AcDbSpline
70
4
71
3
72
8
73
4
74
0
42
0.000000001
43
0.0000000001
44
0.0000000001
40
0
40
0
40
0
40
0
40
1
40
1
40
1
40
1
41
1
41
1
41
1
41
1
10
290.04681618160254
20
-77.104683099084227
30
0
10
290.3773722671026
20
-77.435589076219884
30
0
10
290.56327776750697
20
-77.884317024424888
30
0
10
290.56327776750697
20
-78.352100609398207
30
0
0
SPLINE
5
280
100
AcDbEntity
8
0
100
AcDbSpline
70
0
71
2
72
6
73
3
74
0
42
0.000000001
43
0.0000000001
44
0.0000000001
40
0
40
0
40
0
40
1
40
1
40
1
10
290.56327776750697
20
-78.352100609398207
30
0
10
290.56327776750697
20
-83.491002124701836
30
0
10
290.56327776750697
20
-98.089611580099756
30
0
0
LINE
5
281
100
AcDbEntity
8
0
100
AcDbLine
10
290.56327776750697
20
-98.089611580099756
30
0
11
290.55729192906443
21
-98.244834275538139
31
0
0
LINE
5
282
100
AcDbEntity
8
0
100
AcDbLine
10
290.55729192906443
20
-98.244834275538139
30
0
11
290.53823629229612
21
-98.400767520144143
31
0
0
LINE
5
283
100
AcDbEntity
8
0
100
AcDbLine
10
290.53823629229612
20
-98.400767520144143
30
0
11
290.50718744684985
21
-98.554924391831094
31
0
0
LINE
5
284
100
AcDbEntity
8
0
100
AcDbLine
10
290.50718744684985
20
-98.554924391831094
30
0
11
290.4652004505806
21
-98.706626639120742
31
0
0
LINE
5
285
100
AcDbEntity
8
0
100
AcDbLine
10
290.4652004505806
20
-98.706626639120742
30
0
11
290.41016518777849
21
-98.854786906468718
31
0
0
LINE
5
286
100
AcDbEntity
8
0
100
AcDbLine
10
290.41016518777849
20
-98.854786906468718
30
0
11
290.34526836380132
21
-98.995895511622763
31
0
0
LINE
5
287
100
AcDbEntity
8
0
100
AcDbLine
10
290.34526836380132
20
-98.995895511622763
30
0
11
290.26835679935328
21
-99.132773119460438
31
0
0
LINE
5
288
100
AcDbEntity
8
0
100
AcDbLine
10
290.26835679935328
20
-99.132773119460438
30
0
11
290.18227269110491
21
-99.263654122959153
31
0
0
LINE
5
289
100
AcDbEntity
8
0
100
AcDbLine
10
290.18227269110491
20
-99.263654122959153
30
0
11
290.08314031632364
21
-99.387838738847734
31
0
0
LINE
5
290
100
AcDbEntity
8
0
100
AcDbLine
10
290.08314031632364
20
-99.387838738847734
30
0
11
289.97731155393222
21
-99.503895102894461
31
0
0
LINE
5
291
100
AcDbEntity
8
0
100
AcDbLine
10
289.97731155393222
20
-99.503895102894461
30
0
11
289.86125518988547
21
-99.608668807430917
31
0
0
LINE
5
292
100
AcDbEntity
8
0
100
AcDbLine
10
289.86125518988547
20
-99.608668807430917
30
0
11
289.73813639774835
21
-99.706746124357238
31
0
0
LINE
5
293
100
AcDbEntity
8
0
100
AcDbLine
10
289.73813639774835
20
-99.706746124357238
30
0
11
289.60724462835321
21
-99.793885290460594
31
0
0
LINE
5
294
100
AcDbEntity
8
0
100
AcDbLine
10
289.60724462835321
20
-99.793885290460594
30
0
11
289.47036702051543
21
-99.870786089012142
31
0
0
LINE
5
295
100
AcDbEntity
8
0
100
AcDbLine
10
289.47036702051543
20
-99.870786089012142
30
0
11
289.32821412340297
21
-99.935693678885769
31
0
0
LINE
5
296
100
AcDbEntity
8
0
100
AcDbLine
10
289.32821412340297
20
-99.935693678885769
30
0
11
289.18216397176491
21
-99.991783999542889
31
0
0
LINE
5
297
100
AcDbEntity
8
0
100
AcDbLine
10
289.18216397176491
20
-99.991783999542889
30
0
11
289.02939590072378
21
-100.03377099581209
31
0
0
LINE
5
298
100
AcDbEntity
8
0
100
AcDbLine
10
289.02939590072378
20
-100.03377099581209
30
0
11
288.87524979493332
21
-100.06375401750691
31
0
0
LINE
5
299
100
AcDbEntity
8
0
100
AcDbLine
10
288.87524979493332
20
-100.06375401750691
30
0
11
288.71931655032733
21
-100.08174383052381
31
0
0
LINE
5
300
100
AcDbEntity
8
0
100
AcDbLine
10
288.71931655032733
20
-100.08174383052381
30
0
11
288.56338330572129
21
-100.08774043486278
31
0
0
LINE
5
301
100
AcDbEntity
8
0
100
AcDbLine
10
288.56338330572129
20
-100.08774043486278
30
0
11
7.1888876748017694
21
-100.0898613164692
31
0
0
LINE
5
302
100
AcDbEntity
8
0
100
AcDbLine
10
7.1888876748017694
20
-100.0898613164692
30
0
11
7.0319020638149183
21
-100.08174383052381
31
0
0
LINE
5
303
100
AcDbEntity
8
0
100
AcDbLine
10
7.0319020638149183
20
-100.08174383052381
30
0
11
6.8759742021571402
21
-100.06375401750691
31
0
0
LINE
5
304
100
AcDbEntity
8
0
100
AcDbLine
10
6.8759742021571402
20
-100.06375401750691
30
0
11
6.7218112746534349
21
-100.03377099581209
31
0
0
LINE
5
305
100
AcDbEntity
8
0
100
AcDbLine
10
6.7218112746534349
20
-100.03377099581209
30
0
11
6.5701171017861366
21
-99.991783999542875
31
0
0
LINE
5
306
100
AcDbEntity
8
0
100
AcDbLine
10
6.5701171017861366
20
-99.991783999542875
30
0
11
6.4230092008190169
21
-99.935693678885769
31
0
0
LINE
5
307
100
AcDbEntity
8
0
100
AcDbLine
10
6.4230092008190169
20
-99.935693678885769
30
0
11
6.2808401548617692
21
-99.870786089012157
31
0
0
LINE
5
308
100
AcDbEntity
8
0
100
AcDbLine
10
6.2808401548617692
20
-99.870786089012157
30
0
11
6.1439625470240919
21
-99.793885290460594
31
0
0
LINE
5
309
100
AcDbEntity
8
0
100
AcDbLine
10
6.1439625470240919
20
-99.793885290460594
30
0
11
6.0130822163939088
21
-99.706746124357224
31
0
0
LINE
5
310
100
AcDbEntity
8
0
100
AcDbLine
10
6.0130822163939088
20
-99.706746124357224
30
0
11
5.8899627513882322
21
-99.608668807430902
31
0
0
LINE
5
311
100
AcDbEntity
8
0
100
AcDbLine
10
5.8899627513882322
20
-99.608668807430902
30
0
11
5.7738996586561999
21
-99.503895102894475
31
0
0
LINE
5
312
100
AcDbEntity
8
0
100
AcDbLine
10
5.7738996586561999
20
-99.503895102894475
30
0
11
5.6680661861850821
21
-99.387838738847748
31
0
0
LINE
5
313
100
AcDbEntity
8
0
100
AcDbLine
10
5.6680661861850821
20
-99.387838738847748
30
0
11
5.5699942522070014
21
-99.263654122959153
31
0
0
LINE
5
314
100
AcDbEntity
8
0
100
AcDbLine
10
5.5699942522070014
20
-99.263654122959153
30
0
11
5.4828584504462885
21
-99.132773119460438
31
0
0
LINE
5
315
100
AcDbEntity
8
0
100
AcDbLine
10
5.4828584504462885
20
-99.132773119460438
30
0
11
5.4059532782492834
21
-98.995895511622763
31
0
0
LINE
5
316
100
AcDbEntity
8
0
100
AcDbLine
10
5.4059532782492834
20
-98.995895511622763
30
0
11
5.3410423240330021
21
-98.854786906468718
31
0
0
LINE
5
317
100
AcDbEntity
8
0
100
AcDbLine
10
5.3410423240330021
20
-98.854786906468718
30
0
11
5.2860090798364681
21
-98.706626639120742
31
0
0
LINE
5
318
100
AcDbEntity
8
0
100
AcDbLine
10
5.2860090798364681
20
-98.706626639120742
30
0
11
5.2440284758182765
21
-98.554924391831094
31
0
0
LINE
5
319
100
AcDbEntity
8
0
100
AcDbLine
10
5.2440284758182765
20
-98.554924391831094
30
0
11
5.2129843404517171
21
-98.400767520144143
31
0
0
LINE
5
320
100
AcDbEntity
8
0
100
AcDbLine
10
5.2129843404517171
20
-98.400767520144143
30
0
11
5.1949925088292357
21
-98.244834275538139
31
0
0
LINE
5
321
100
AcDbEntity
8
0
100
AcDbLine
10
5.1949925088292357
20
-98.244834275538139
30
0
11
5.1879371458583865
21
-98.089611580099756
31
0
0
LINE
5
322
100
AcDbEntity
8
0
100
AcDbLine
10
5.1879371458583865
20
-98.089611580099756
30
0
11
5.1879371458583883
21
-78.352100609398207
31
0
0
SPLINE
5
323
100
AcDbEntity
8
0
100
AcDbSpline
70
4
71
3
72
8
73
4
74
0
42
0.000000001
43
0.0000000001
44
0.0000000001
40
0
40
0
40
0
40
0
40
1
40
1
40
1
40
1
41
1
41
1
41
1
41
1
10
5.1879371458583883
20
-78.352100609398207
30
0
10
5.1879371458583883
20
-77.884317024424888
30
0
10
5.3738503842508401
20
-77.435589076219884
30
0
10
5.7047550156494387
20
-77.104683099084227
30
0
0
SPLINE
5
324
100
AcDbEntity
8
0
100
AcDbSpline
70
4
71
3
72
8
73
4
74
0
42
0.000000001
43
0.0000000001
44
0.0000000001
40
0
40
0
40
0
40
0
40
1
40
1
40
1
40
1
41
1
41
1
41
1
41
1
10
5.7047550156494387
20
-77.104683099084227
30
0
10
6.0353070639383404
20
-76.773777121948555
30
0
10
6.4840390493545144
20
-76.588216130231544
30
0
10
6.9518212885907893
20
-76.588216130231544
30
0
0
SPLINE
5
325
100
AcDbEntity
8
0
100
AcDbSpline
70
0
71
2
72
6
73
3
74
0
42
0.000000001
43
0.0000000001
44
0.0000000001
40
0
40
0
40
0
40
1
40
1
40
1
10
6.9518212885907893
20
-76.588216130231544
30
0
10
13.859192882092717
20
-76.588216130231544
30
0
10
38.691512293329879
20
-76.588216130231544
30
0
0
LINE
5
326
100
AcDbEntity
8
0
100
AcDbLine
10
38.691512293329879
20
-76.588216130231544
30
0
11
38.691512293329879
21
-62.788290853994376
31
0
0
LINE
5
327
100
AcDbEntity
8
0
100
AcDbLine
10
38.691512293329879
20
-62.788290853994376
30
0
11
11.23418000557983
21
-62.788290853994368
31
0
0
SPLINE
5
328
100
AcDbEntity
8
0
100
AcDbSpline
70
4
71
3
72
8
73
4
74
0
42
0.000000001
43
0.0000000001
44
0.0000000001
40
0
40
0
40
0
40
0
40
1
40
1
40
1
40
1
41
1
41
1
41
1
41
1
10
30.576585939834121
20
-35.626585373485888
30
0
10
29.251906973436519
20
-35.626585373485888
30
0
10
28.176291639139023
20
-34.550970039188385
30
0
10
28.176291639139023
20
-33.226291072790787
30
0
0
SPLINE
5
329
100
AcDbEntity
8
0
100
AcDbSpline
70
4
71
3
72
8
73
4
74
0
42
0.000000001
43
0.0000000001
44
0.0000000001
40
0
40
0
40
0
40
0
40
1
40
1
40
1
40
1
41
1
41
1
41
1
41
1
10
28.176291639139023
20
-33.226291072790787
30
0
10
28.176291639139023
20
-31.901967380977002
30
0
10
29.251906973436519
20
-30.826352046679499
30
0
10
30.576585939834121
20
-30.826352046679499
30
0
0
LINE
5
330
100
AcDbEntity
8
0
100
AcDbLine
10
30.576585939834121
20
-30.826352046679499
30
0
11
33.819661531669148
21
-30.826352046679499
31
0
0
LINE
5
331
100
AcDbEntity
8
0
100
AcDbLine
10
33.819661531669148
20
-30.826352046679499
30
0
11
33.819661531669141
21
-28.788004494143962
31
0
0
LINE
5
332
100
AcDbEntity
8
0
100
AcDbLine
10
33.819661531669141
20
-28.788004494143962
30
0
11
47.619589499380425
21
-28.788004494143969
31
0
0
LINE
5
333
100
AcDbEntity
8
0
100
AcDbLine
10
47.619589499380425
20
-28.788004494143969
30
0
11
47.619589499380425
21
-42.587579878745565
31
0
0
LINE
5
334
100
AcDbEntity
8
0
100
AcDbLine
10
47.619589499380425
20
-42.587579878745565
30
0
11
33.819661531669141
21
-42.587579878745558
31
0
0
LINE
5
335
100
AcDbEntity
8
0
100
AcDbLine
10
33.819661531669141
20
-42.587579878745558
30
0
11
33.819661531669141
21
-35.626585373485881
31
0
0
LINE
5
336
100
AcDbEntity
8
0
100
AcDbLine
10
33.819661531669141
20
-35.626585373485881
30
0
11
30.576585939834121
21
-35.626585373485888
31
0
0
ENDSEC
0
SECTION
2
OBJECTS
0
DICTIONARY
5
C
100
AcDbDictionary
3
ACAD_GROUP
350
D
3
ACAD_MLINESTYLE
350
17
0
DICTIONARY
5
D
100
AcDbDictionary
0
DICTIONARY
5
1A
330
C
100
AcDbDictionary
0
DICTIONARY
5
17
100
AcDbDictionary
0
ENDSEC
0
EOF
