<?xml version="1.0" encoding="UTF-8" standalone="no"?>
<!DOCTYPE svg PUBLIC "-//W3C//DTD SVG 1.1//EN" "http://www.w3.org/Graphics/SVG/1.1/DTD/svg11.dtd">
<svg width="100%" height="100%" viewBox="0 0 1118 474" version="1.1" xmlns="http://www.w3.org/2000/svg" xmlns:xlink="http://www.w3.org/1999/xlink" xml:space="preserve" xmlns:serif="http://www.serif.com/" style="fill-rule:evenodd;clip-rule:evenodd;">
    <g transform="matrix(1.33333,0,0,1.33333,0,0)">
        <g id="位置合わせ指標">
        </g>
        <g id="Nora-v.0.1" serif:id="Nora v.0.1">
            <path d="M615.916,238.218L615.916,277.336L576.798,277.336L576.798,238.218L615.916,238.218ZM717.162,238.218L717.162,277.336L678.045,277.336L678.045,238.218L717.162,238.218ZM666.539,238.218L666.539,277.336L627.422,277.336L627.422,238.218L666.539,238.218ZM252.859,262.799C256.777,262.799 259.959,265.98 259.959,269.898C259.959,273.817 256.777,276.998 252.859,276.998C248.941,276.998 245.759,273.817 245.759,269.898C245.759,265.98 248.941,262.799 252.859,262.799ZM552.642,226.173L552.642,248.862C552.642,248.862 556.406,248.861 559.734,248.86C561.06,248.86 562.333,249.387 563.27,250.324C564.208,251.262 564.735,252.534 564.735,253.86L564.735,258.184C564.735,260.945 562.498,262.796 559.737,262.796C556.408,262.797 552.642,262.799 552.642,262.799L552.642,265.29L547.654,265.29C547.654,265.29 547.658,268.286 547.661,271.128C547.663,272.455 547.137,273.729 546.199,274.668C545.261,275.607 543.989,276.134 542.661,276.134L538.474,276.134C537.148,276.134 535.876,275.608 534.939,274.67C534.001,273.732 533.474,272.461 533.474,271.134C533.474,268.29 533.474,265.29 533.474,265.29L513.525,265.29L513.525,226.173L552.642,226.173ZM767.793,226.173L767.793,265.29L728.675,265.29L728.675,226.173L767.793,226.173ZM818.416,226.173L818.416,265.29L779.298,265.29L779.298,226.173L818.416,226.173ZM489.362,226.173L489.362,265.29L450.244,265.29L450.244,226.173L489.362,226.173ZM312.177,226.173L312.177,265.29L273.059,265.29L273.059,226.173L312.177,226.173ZM413.423,226.173L413.423,265.29L374.306,265.29L374.306,226.173L413.423,226.173ZM236.238,226.173L236.238,265.29L197.121,265.29L197.121,226.173L236.238,226.173ZM109.677,226.173L109.677,265.29L70.559,265.29L70.559,226.173L109.677,226.173ZM59.046,226.173L59.046,265.29L19.929,265.29L19.929,226.173L59.046,226.173ZM172.958,226.173L172.958,265.29L133.84,265.29L133.84,226.173L172.958,226.173ZM263.699,221.781L253.497,221.781L253.497,234.957L249.674,234.957L249.674,254.375L267.53,254.375L267.53,234.957L263.699,234.957L263.699,221.781ZM331.732,221.781L321.53,221.781L321.53,234.957L317.699,234.957L317.699,254.375L335.562,254.375L335.562,234.957L331.732,234.957L331.732,221.781ZM432.986,221.781L422.776,221.781L422.776,234.957L418.953,234.957L418.953,254.375L436.809,254.375L436.809,234.957L432.986,234.957L432.986,221.781ZM364.953,221.781L354.75,221.781L354.75,234.957L350.92,234.957L350.92,254.375L368.776,254.375L368.776,234.957L364.953,234.957L364.953,221.781ZM666.554,190.029L666.554,229.146L627.429,229.146L627.429,190.029L666.554,190.029ZM615.916,177.983L615.916,217.101L576.798,217.101L576.798,177.983L615.916,177.983ZM312.162,177.983L312.162,217.101L273.045,217.101L273.045,177.983L312.162,177.983ZM413.416,177.983L413.416,217.101L374.298,217.101L374.298,177.983L413.416,177.983ZM362.793,177.983L362.793,217.101L323.675,217.101L323.675,177.983L362.793,177.983ZM464.039,177.983L464.039,217.101L424.922,217.101L424.922,177.983L464.039,177.983ZM565.293,177.983L565.293,217.101L526.175,217.101L526.175,177.983L565.293,177.983ZM514.67,177.983L514.67,217.101L475.545,217.101L475.545,177.983L514.67,177.983ZM210.916,177.983L210.916,217.101L171.798,217.101L171.798,177.983L210.916,177.983ZM160.293,177.983L160.293,217.101L121.175,217.101L121.175,177.983L160.293,177.983ZM261.539,177.983L261.539,217.101L222.422,217.101L222.422,177.983L261.539,177.983ZM717.191,177.983L717.191,217.101L678.074,217.101L678.074,177.983L717.191,177.983ZM767.814,177.983L767.814,217.101L728.697,217.101L728.697,177.983L767.814,177.983ZM489.362,129.793L489.362,168.911L450.237,168.911L450.237,129.793L489.362,129.793ZM590.608,129.793L590.608,168.911L551.49,168.911L551.49,129.793L590.608,129.793ZM539.985,129.793L539.985,168.911L500.867,168.911L500.867,129.793L539.985,129.793ZM438.731,129.793L438.731,168.911L399.614,168.911L399.614,129.793L438.731,129.793ZM388.108,129.793L388.108,168.911L348.99,168.911L348.99,129.793L388.108,129.793ZM337.485,129.793L337.485,168.911L298.367,168.911L298.367,129.793L337.485,129.793ZM286.854,129.793L286.854,168.911L247.737,168.911L247.737,129.793L286.854,129.793ZM236.231,129.793L236.231,168.911L197.114,168.911L197.114,129.793L236.231,129.793ZM134.985,129.793L134.985,168.911L95.867,168.911L95.867,129.793L134.985,129.793ZM185.608,129.793L185.608,168.911L146.49,168.911L146.49,129.793L185.608,129.793ZM717.191,129.793L717.191,168.911L678.074,168.911L678.074,129.793L717.191,129.793ZM767.814,129.793L767.814,168.911L728.697,168.911L728.697,129.793L767.814,129.793ZM653.903,129.793L653.903,168.911L614.786,168.911L614.786,129.793L653.903,129.793ZM71.711,129.793L71.711,168.911L32.594,168.911L32.594,129.793L71.711,129.793ZM717.191,81.604L717.191,120.721L678.074,120.721L678.074,81.604L717.191,81.604ZM337.485,81.604L337.485,120.721L298.367,120.721L298.367,81.604L337.485,81.604ZM590.608,81.604L590.608,120.721L551.49,120.721L551.49,81.604L590.608,81.604ZM818.438,81.604L818.438,120.721L779.32,120.721L779.32,81.604L818.438,81.604ZM767.814,81.604L767.814,120.721L728.697,120.721L728.697,81.604L767.814,81.604ZM539.985,81.604L539.985,120.721L500.867,120.721L500.867,81.604L539.985,81.604ZM438.731,81.604L438.731,120.721L399.614,120.721L399.614,81.604L438.731,81.604ZM388.108,81.604L388.108,120.721L348.99,120.721L348.99,81.604L388.108,81.604ZM489.362,81.604L489.362,120.721L450.237,120.721L450.237,81.604L489.362,81.604ZM286.854,81.604L286.854,120.721L247.737,120.721L247.737,81.604L286.854,81.604ZM236.231,81.604L236.231,120.721L197.114,120.721L197.114,81.604L236.231,81.604ZM185.608,81.604L185.608,120.721L146.49,120.721L146.49,81.604L185.608,81.604ZM71.711,81.604L71.711,120.721L32.594,120.721L32.594,81.604L71.711,81.604ZM653.903,81.604L653.903,120.721L614.786,120.721L614.786,81.604L653.903,81.604ZM464.054,33.414L464.054,72.532L424.929,72.532L424.929,33.414L464.054,33.414ZM413.423,33.414L413.423,72.532L374.306,72.532L374.306,33.414L413.423,33.414ZM312.177,33.414L312.177,72.532L273.059,72.532L273.059,33.414L277.009,33.414L277.009,26.016C277.009,23.255 279.248,21.016 282.009,21.016L286.285,21.016C289.047,21.016 291.285,23.255 291.285,26.016C291.285,29.459 291.285,33.414 291.285,33.414L312.177,33.414ZM362.8,33.414L362.8,72.532L323.682,72.532L323.682,33.414L362.8,33.414ZM261.546,33.414L261.546,72.532L222.429,72.532L222.429,33.414L261.546,33.414ZM818.423,33.414L818.423,72.532L779.306,72.532L779.306,33.414L818.423,33.414ZM767.8,33.414L767.8,72.532L728.682,72.532L728.682,33.414L767.8,33.414ZM514.677,33.414L514.677,72.532L475.559,72.532L475.559,33.414L514.677,33.414ZM210.923,33.414L210.923,72.532L171.806,72.532L171.806,33.414L210.923,33.414ZM59.046,33.414L59.046,72.532L19.929,72.532L19.929,33.414L59.046,33.414ZM109.677,33.414L109.677,72.532L70.559,72.532L70.559,33.414L109.677,33.414ZM666.554,33.414L666.554,72.532L627.429,72.532L627.429,33.414L666.554,33.414ZM160.3,33.414L160.3,72.532L121.182,72.532L121.182,33.414L160.3,33.414ZM615.923,33.414L615.923,72.532L576.806,72.532L576.806,33.414L615.923,33.414ZM717.177,33.414L717.177,72.532L678.059,72.532L678.059,33.414L717.177,33.414ZM565.3,33.414L565.3,72.532L526.182,72.532L526.182,33.414L546.954,33.414L546.954,26.016C546.954,24.69 547.481,23.418 548.419,22.481C549.356,21.543 550.628,21.016 551.954,21.016L556.33,21.016C557.657,21.016 558.928,21.543 559.866,22.481C560.804,23.418 561.33,24.69 561.33,26.016C561.33,29.459 561.33,33.414 561.33,33.414L565.3,33.414ZM31.845,177.983C30.146,177.983 28.769,176.606 28.769,174.907C28.769,174.906 28.769,174.906 28.769,174.905C28.769,172.976 28.002,171.127 26.636,169.765C25.271,168.402 23.42,167.639 21.492,167.643C18.679,167.649 16.123,167.654 16.123,167.654L15.121,167.239L14.706,166.237L14.709,20.305L14.726,19.86L14.777,19.417L14.865,18.981L14.984,18.55L15.14,18.133L15.324,17.731L15.542,17.342L15.789,16.971L16.067,16.622L16.367,16.294L16.696,15.993L17.045,15.715L17.416,15.469L17.804,15.25L18.207,15.066L18.624,14.91L19.054,14.791L19.491,14.703L19.933,14.652L20.378,14.632L817.977,14.635L818.419,14.652L818.861,14.703L819.298,14.791L819.731,14.91L820.145,15.066L820.548,15.25L820.936,15.469L821.307,15.715L821.656,15.993L821.985,16.294L822.285,16.622L822.566,16.971L822.81,17.342L823.028,17.731L823.212,18.133L823.368,18.55L823.487,18.981L823.575,19.417L823.629,19.86L823.646,20.305C823.646,20.305 823.646,103.357 823.646,124.793C823.646,127.555 821.407,129.793 818.646,129.793C807.053,129.793 779.32,129.793 779.32,129.793L779.32,168.911C779.32,168.911 799.46,168.909 807.517,168.908C808.386,168.908 809.218,169.253 809.832,169.867C810.447,170.481 810.791,171.313 810.791,172.182C810.791,173.004 810.791,173.887 810.791,174.709C810.791,175.578 810.447,176.41 809.833,177.024C809.219,177.638 808.386,177.983 807.518,177.983C799.461,177.983 779.32,177.983 779.32,177.983L779.32,217.101L818.646,217.101C819.972,217.101 821.244,217.627 822.182,218.565C823.119,219.503 823.646,220.775 823.646,222.101C823.646,236.668 823.646,278.05 823.646,278.05L823.629,278.49L823.575,278.932L823.487,279.369L823.368,279.799L823.212,280.219L823.028,280.619L822.81,281.007L822.566,281.378L822.285,281.73L821.985,282.059L821.656,282.356L821.307,282.634L820.936,282.881L820.548,283.099L820.145,283.283L819.731,283.442L819.298,283.561L818.861,283.646L818.419,283.697L817.977,283.714L20.378,283.72L19.933,283.697L19.491,283.646L19.054,283.561L18.624,283.442L18.207,283.283L17.804,283.099L17.416,282.881L17.045,282.634L16.696,282.356L16.367,282.059L16.067,281.73L15.789,281.378L15.542,281.007L15.324,280.619L15.14,280.219L14.984,279.799L14.865,279.369L14.777,278.932L14.726,278.49L14.706,278.05L14.706,222.101C14.706,220.775 15.233,219.503 16.171,218.565C17.108,217.627 18.38,217.101 19.706,217.101C39.286,217.101 109.677,217.101 109.677,217.101L109.677,177.983L31.845,177.983ZM86.674,100.989C82.919,100.989 79.87,97.94 79.87,94.185C79.87,90.431 82.919,87.382 86.674,87.382L95.867,87.382L95.867,81.604L134.985,81.604L134.985,120.721L95.867,120.721L95.867,100.989L86.674,100.989Z" style="fill:rgb(26,122,230);stroke:rgb(57,183,255);stroke-width:1px;"/>
        </g>
    </g>
</svg>
