G04 #@! TF.GenerationSoftware,KiCad,Pcbnew,(5.1.10-1-10_14)*
G04 #@! TF.CreationDate,2021-12-19T10:41:02+09:00*
G04 #@! TF.ProjectId,nora,6e6f7261-2e6b-4696-9361-645f70636258,DN:0030*
G04 #@! TF.SameCoordinates,Original*
G04 #@! TF.FileFunction,Legend,Top*
G04 #@! TF.FilePolarity,Positive*
%FSLAX46Y46*%
G04 Gerber Fmt 4.6, Leading zero omitted, Abs format (unit mm)*
G04 Created by KiCad (PCBNEW (5.1.10-1-10_14)) date 2021-12-19 10:41:02*
%MOMM*%
%LPD*%
G01*
G04 APERTURE LIST*
%ADD10C,0.500000*%
%ADD11C,0.060000*%
%ADD12C,0.120000*%
%ADD13C,0.200000*%
%ADD14C,0.100000*%
%ADD15O,2.100000X2.100000*%
%ADD16C,3.400000*%
%ADD17C,2.100000*%
%ADD18C,3.800000*%
%ADD19C,1.600000*%
%ADD20C,3.829000*%
%ADD21O,1.300000X2.100000*%
%ADD22O,1.300000X2.800000*%
%ADD23C,1.100000*%
%ADD24C,1.400000*%
%ADD25O,5.600000X2.800000*%
%ADD26C,5.200000*%
%ADD27C,1.900000*%
%ADD28C,2.600000*%
G04 APERTURE END LIST*
D10*
X145083729Y-69453996D02*
G75*
G02*
X145865000Y-68150520I2181271J-421524D01*
G01*
X146819964Y-67700217D02*
G75*
G02*
X148565000Y-68075520I445036J-2175303D01*
G01*
X148869912Y-71452663D02*
G75*
G02*
X147265000Y-72125658I-1604912J1577143D01*
G01*
X146118623Y-71772513D02*
G75*
G02*
X145115000Y-70500520I1096377J1896993D01*
G01*
X154140036Y-69875520D02*
G75*
G03*
X154140036Y-69875520I-1375036J0D01*
G01*
D11*
X99600000Y-103600000D02*
X99375000Y-103750000D01*
X99350000Y-103575000D02*
X99625000Y-103775000D01*
X98225000Y-105475000D02*
X98725000Y-105475000D01*
X98325000Y-105275000D02*
X98825000Y-105275000D01*
X98475000Y-105075000D02*
X98925000Y-105075000D01*
X98575000Y-104875000D02*
X99075000Y-104875000D01*
X98675000Y-104675000D02*
X99175000Y-104675000D01*
X98775000Y-104475000D02*
X99275000Y-104475000D01*
X98875000Y-104275000D02*
X99375000Y-104275000D01*
D12*
X98525000Y-105825000D02*
X99500000Y-104050000D01*
X99125000Y-103825000D02*
X98125000Y-105625000D01*
X98575000Y-103225000D02*
G75*
G02*
X100452573Y-104234735I182087J-1911929D01*
G01*
X100445169Y-104247801D02*
G75*
G02*
X98550000Y-103250000I104831J2497801D01*
G01*
X98524999Y-105824999D02*
G75*
G02*
X98125001Y-105624999I-99999J299999D01*
G01*
D11*
X206600000Y-35600000D02*
X206375000Y-35750000D01*
X206350000Y-35575000D02*
X206625000Y-35775000D01*
X205225000Y-37475000D02*
X205725000Y-37475000D01*
X205325000Y-37275000D02*
X205825000Y-37275000D01*
X205475000Y-37075000D02*
X205925000Y-37075000D01*
X205575000Y-36875000D02*
X206075000Y-36875000D01*
X205675000Y-36675000D02*
X206175000Y-36675000D01*
X205775000Y-36475000D02*
X206275000Y-36475000D01*
X205875000Y-36275000D02*
X206375000Y-36275000D01*
D12*
X205525000Y-37825000D02*
X206500000Y-36050000D01*
X206125000Y-35825000D02*
X205125000Y-37625000D01*
X205524999Y-37824999D02*
G75*
G02*
X205125001Y-37624999I-99999J299999D01*
G01*
X207445169Y-36247801D02*
G75*
G02*
X205550000Y-35250000I104831J2497801D01*
G01*
X205575000Y-35225000D02*
G75*
G02*
X207452573Y-36234735I182087J-1911929D01*
G01*
D11*
X117400000Y-35600000D02*
X117175000Y-35750000D01*
X117150000Y-35575000D02*
X117425000Y-35775000D01*
X116025000Y-37475000D02*
X116525000Y-37475000D01*
X116125000Y-37275000D02*
X116625000Y-37275000D01*
X116275000Y-37075000D02*
X116725000Y-37075000D01*
X116375000Y-36875000D02*
X116875000Y-36875000D01*
X116475000Y-36675000D02*
X116975000Y-36675000D01*
X116575000Y-36475000D02*
X117075000Y-36475000D01*
X116675000Y-36275000D02*
X117175000Y-36275000D01*
D12*
X116325000Y-37825000D02*
X117300000Y-36050000D01*
X116925000Y-35825000D02*
X115925000Y-37625000D01*
X116324999Y-37824999D02*
G75*
G02*
X115925001Y-37624999I-99999J299999D01*
G01*
X118245169Y-36247801D02*
G75*
G02*
X116350000Y-35250000I104831J2497801D01*
G01*
X116375000Y-35225000D02*
G75*
G02*
X118252573Y-36234735I182087J-1911929D01*
G01*
D11*
X202500000Y-102300000D02*
X202275000Y-102450000D01*
X202250000Y-102275000D02*
X202525000Y-102475000D01*
X201125000Y-104175000D02*
X201625000Y-104175000D01*
X201225000Y-103975000D02*
X201725000Y-103975000D01*
X201375000Y-103775000D02*
X201825000Y-103775000D01*
X201475000Y-103575000D02*
X201975000Y-103575000D01*
X201575000Y-103375000D02*
X202075000Y-103375000D01*
X201675000Y-103175000D02*
X202175000Y-103175000D01*
X201775000Y-102975000D02*
X202275000Y-102975000D01*
D12*
X201425000Y-104525000D02*
X202400000Y-102750000D01*
X202025000Y-102525000D02*
X201025000Y-104325000D01*
X201424999Y-104524999D02*
G75*
G02*
X201025001Y-104324999I-99999J299999D01*
G01*
X203345169Y-102947801D02*
G75*
G02*
X201450000Y-101950000I104831J2497801D01*
G01*
X201475000Y-101925000D02*
G75*
G02*
X203352573Y-102934735I182087J-1911929D01*
G01*
D11*
X296000000Y-86600000D02*
X295775000Y-86750000D01*
X295750000Y-86575000D02*
X296025000Y-86775000D01*
X294625000Y-88475000D02*
X295125000Y-88475000D01*
X294725000Y-88275000D02*
X295225000Y-88275000D01*
X294875000Y-88075000D02*
X295325000Y-88075000D01*
X294975000Y-87875000D02*
X295475000Y-87875000D01*
X295075000Y-87675000D02*
X295575000Y-87675000D01*
X295175000Y-87475000D02*
X295675000Y-87475000D01*
X295275000Y-87275000D02*
X295775000Y-87275000D01*
D12*
X294925000Y-88825000D02*
X295900000Y-87050000D01*
X295525000Y-86825000D02*
X294525000Y-88625000D01*
X294924999Y-88824999D02*
G75*
G02*
X294525001Y-88624999I-99999J299999D01*
G01*
X296845169Y-87247801D02*
G75*
G02*
X294950000Y-86250000I104831J2497801D01*
G01*
X294975000Y-86225000D02*
G75*
G02*
X296852573Y-87234735I182087J-1911929D01*
G01*
D11*
X269300000Y-52600000D02*
X269075000Y-52750000D01*
X269050000Y-52575000D02*
X269325000Y-52775000D01*
X267925000Y-54475000D02*
X268425000Y-54475000D01*
X268025000Y-54275000D02*
X268525000Y-54275000D01*
X268175000Y-54075000D02*
X268625000Y-54075000D01*
X268275000Y-53875000D02*
X268775000Y-53875000D01*
X268375000Y-53675000D02*
X268875000Y-53675000D01*
X268475000Y-53475000D02*
X268975000Y-53475000D01*
X268575000Y-53275000D02*
X269075000Y-53275000D01*
D12*
X268225000Y-54825000D02*
X269200000Y-53050000D01*
X268825000Y-52825000D02*
X267825000Y-54625000D01*
X268224999Y-54824999D02*
G75*
G02*
X267825001Y-54624999I-99999J299999D01*
G01*
X270145169Y-53247801D02*
G75*
G02*
X268250000Y-52250000I104831J2497801D01*
G01*
X268275000Y-52225000D02*
G75*
G02*
X270152573Y-53234735I182087J-1911929D01*
G01*
D11*
X144000000Y-69400000D02*
X143775000Y-69550000D01*
X143750000Y-69375000D02*
X144025000Y-69575000D01*
X142625000Y-71275000D02*
X143125000Y-71275000D01*
X142725000Y-71075000D02*
X143225000Y-71075000D01*
X142875000Y-70875000D02*
X143325000Y-70875000D01*
X142975000Y-70675000D02*
X143475000Y-70675000D01*
X143075000Y-70475000D02*
X143575000Y-70475000D01*
X143175000Y-70275000D02*
X143675000Y-70275000D01*
X143275000Y-70075000D02*
X143775000Y-70075000D01*
D12*
X142925000Y-71625000D02*
X143900000Y-69850000D01*
X143525000Y-69625000D02*
X142525000Y-71425000D01*
X142924999Y-71624999D02*
G75*
G02*
X142525001Y-71424999I-99999J299999D01*
G01*
X144845169Y-70047801D02*
G75*
G02*
X142950000Y-69050000I104831J2497801D01*
G01*
X142975000Y-69025000D02*
G75*
G02*
X144852573Y-70034735I182087J-1911929D01*
G01*
D11*
X28100000Y-86000000D02*
X27875000Y-86150000D01*
X27850000Y-85975000D02*
X28125000Y-86175000D01*
X26725000Y-87875000D02*
X27225000Y-87875000D01*
X26825000Y-87675000D02*
X27325000Y-87675000D01*
X26975000Y-87475000D02*
X27425000Y-87475000D01*
X27075000Y-87275000D02*
X27575000Y-87275000D01*
X27175000Y-87075000D02*
X27675000Y-87075000D01*
X27275000Y-86875000D02*
X27775000Y-86875000D01*
X27375000Y-86675000D02*
X27875000Y-86675000D01*
D12*
X27025000Y-88225000D02*
X28000000Y-86450000D01*
X27625000Y-86225000D02*
X26625000Y-88025000D01*
X27075000Y-85625000D02*
G75*
G02*
X28952573Y-86634735I182087J-1911929D01*
G01*
X28945169Y-86647801D02*
G75*
G02*
X27050000Y-85650000I104831J2497801D01*
G01*
X27024999Y-88224999D02*
G75*
G02*
X26625001Y-88024999I-99999J299999D01*
G01*
D13*
X150665000Y-73675520D02*
X149780000Y-71405520D01*
X150065000Y-73675520D02*
X150980000Y-71405520D01*
X150056425Y-73650520D02*
G75*
G03*
X150056425Y-73650520I-316425J0D01*
G01*
X151296425Y-73646945D02*
G75*
G03*
X151296425Y-73646945I-315000J0D01*
G01*
D14*
G36*
X300765000Y-28975520D02*
G01*
X297365000Y-28975520D01*
X297365000Y-29675520D01*
X300765000Y-29675520D01*
X300765000Y-28975520D01*
G37*
X300765000Y-28975520D02*
X297365000Y-28975520D01*
X297365000Y-29675520D01*
X300765000Y-29675520D01*
X300765000Y-28975520D01*
G36*
X300765000Y-32675520D02*
G01*
X297365000Y-32675520D01*
X297365000Y-33375520D01*
X300765000Y-33375520D01*
X300765000Y-32675520D01*
G37*
X300765000Y-32675520D02*
X297365000Y-32675520D01*
X297365000Y-33375520D01*
X300765000Y-33375520D01*
X300765000Y-32675520D01*
G36*
X305565000Y-28975520D02*
G01*
X300765000Y-28975520D01*
X300765000Y-33375520D01*
X305565000Y-33375520D01*
X305565000Y-28975520D01*
G37*
X305565000Y-28975520D02*
X300765000Y-28975520D01*
X300765000Y-33375520D01*
X305565000Y-33375520D01*
X305565000Y-28975520D01*
G36*
X297365000Y-28975520D02*
G01*
X292565000Y-28975520D01*
X292565000Y-33375520D01*
X297365000Y-33375520D01*
X297365000Y-28975520D01*
G37*
X297365000Y-28975520D02*
X292565000Y-28975520D01*
X292565000Y-33375520D01*
X297365000Y-33375520D01*
X297365000Y-28975520D01*
G36*
X32879672Y-28975520D02*
G01*
X29479672Y-28975520D01*
X29479672Y-29675520D01*
X32879672Y-29675520D01*
X32879672Y-28975520D01*
G37*
X32879672Y-28975520D02*
X29479672Y-28975520D01*
X29479672Y-29675520D01*
X32879672Y-29675520D01*
X32879672Y-28975520D01*
G36*
X32879672Y-32675520D02*
G01*
X29479672Y-32675520D01*
X29479672Y-33375520D01*
X32879672Y-33375520D01*
X32879672Y-32675520D01*
G37*
X32879672Y-32675520D02*
X29479672Y-32675520D01*
X29479672Y-33375520D01*
X32879672Y-33375520D01*
X32879672Y-32675520D01*
G36*
X37679672Y-28975520D02*
G01*
X32879672Y-28975520D01*
X32879672Y-33375520D01*
X37679672Y-33375520D01*
X37679672Y-28975520D01*
G37*
X37679672Y-28975520D02*
X32879672Y-28975520D01*
X32879672Y-33375520D01*
X37679672Y-33375520D01*
X37679672Y-28975520D01*
G36*
X29479672Y-28975520D02*
G01*
X24679672Y-28975520D01*
X24679672Y-33375520D01*
X29479672Y-33375520D01*
X29479672Y-28975520D01*
G37*
X29479672Y-28975520D02*
X24679672Y-28975520D01*
X24679672Y-33375520D01*
X29479672Y-33375520D01*
X29479672Y-28975520D01*
G36*
X47334333Y-28975520D02*
G01*
X42534333Y-28975520D01*
X42534333Y-33375520D01*
X47334333Y-33375520D01*
X47334333Y-28975520D01*
G37*
X47334333Y-28975520D02*
X42534333Y-28975520D01*
X42534333Y-33375520D01*
X47334333Y-33375520D01*
X47334333Y-28975520D01*
G36*
X55534333Y-28975520D02*
G01*
X50734333Y-28975520D01*
X50734333Y-33375520D01*
X55534333Y-33375520D01*
X55534333Y-28975520D01*
G37*
X55534333Y-28975520D02*
X50734333Y-28975520D01*
X50734333Y-33375520D01*
X55534333Y-33375520D01*
X55534333Y-28975520D01*
G36*
X50734333Y-32675520D02*
G01*
X47334333Y-32675520D01*
X47334333Y-33375520D01*
X50734333Y-33375520D01*
X50734333Y-32675520D01*
G37*
X50734333Y-32675520D02*
X47334333Y-32675520D01*
X47334333Y-33375520D01*
X50734333Y-33375520D01*
X50734333Y-32675520D01*
G36*
X50734333Y-28975520D02*
G01*
X47334333Y-28975520D01*
X47334333Y-29675520D01*
X50734333Y-29675520D01*
X50734333Y-28975520D01*
G37*
X50734333Y-28975520D02*
X47334333Y-28975520D01*
X47334333Y-29675520D01*
X50734333Y-29675520D01*
X50734333Y-28975520D01*
G36*
X68593666Y-28975520D02*
G01*
X65193666Y-28975520D01*
X65193666Y-29675520D01*
X68593666Y-29675520D01*
X68593666Y-28975520D01*
G37*
X68593666Y-28975520D02*
X65193666Y-28975520D01*
X65193666Y-29675520D01*
X68593666Y-29675520D01*
X68593666Y-28975520D01*
G36*
X68593666Y-32675520D02*
G01*
X65193666Y-32675520D01*
X65193666Y-33375520D01*
X68593666Y-33375520D01*
X68593666Y-32675520D01*
G37*
X68593666Y-32675520D02*
X65193666Y-32675520D01*
X65193666Y-33375520D01*
X68593666Y-33375520D01*
X68593666Y-32675520D01*
G36*
X73393666Y-28975520D02*
G01*
X68593666Y-28975520D01*
X68593666Y-33375520D01*
X73393666Y-33375520D01*
X73393666Y-28975520D01*
G37*
X73393666Y-28975520D02*
X68593666Y-28975520D01*
X68593666Y-33375520D01*
X73393666Y-33375520D01*
X73393666Y-28975520D01*
G36*
X65193666Y-28975520D02*
G01*
X60393666Y-28975520D01*
X60393666Y-33375520D01*
X65193666Y-33375520D01*
X65193666Y-28975520D01*
G37*
X65193666Y-28975520D02*
X60393666Y-28975520D01*
X60393666Y-33375520D01*
X65193666Y-33375520D01*
X65193666Y-28975520D01*
G36*
X83052999Y-28975520D02*
G01*
X78252999Y-28975520D01*
X78252999Y-33375520D01*
X83052999Y-33375520D01*
X83052999Y-28975520D01*
G37*
X83052999Y-28975520D02*
X78252999Y-28975520D01*
X78252999Y-33375520D01*
X83052999Y-33375520D01*
X83052999Y-28975520D01*
G36*
X91252999Y-28975520D02*
G01*
X86452999Y-28975520D01*
X86452999Y-33375520D01*
X91252999Y-33375520D01*
X91252999Y-28975520D01*
G37*
X91252999Y-28975520D02*
X86452999Y-28975520D01*
X86452999Y-33375520D01*
X91252999Y-33375520D01*
X91252999Y-28975520D01*
G36*
X86452999Y-32675520D02*
G01*
X83052999Y-32675520D01*
X83052999Y-33375520D01*
X86452999Y-33375520D01*
X86452999Y-32675520D01*
G37*
X86452999Y-32675520D02*
X83052999Y-32675520D01*
X83052999Y-33375520D01*
X86452999Y-33375520D01*
X86452999Y-32675520D01*
G36*
X86452999Y-28975520D02*
G01*
X83052999Y-28975520D01*
X83052999Y-29675520D01*
X86452999Y-29675520D01*
X86452999Y-28975520D01*
G37*
X86452999Y-28975520D02*
X83052999Y-28975520D01*
X83052999Y-29675520D01*
X86452999Y-29675520D01*
X86452999Y-28975520D01*
G36*
X104312332Y-28975520D02*
G01*
X100912332Y-28975520D01*
X100912332Y-29675520D01*
X104312332Y-29675520D01*
X104312332Y-28975520D01*
G37*
X104312332Y-28975520D02*
X100912332Y-28975520D01*
X100912332Y-29675520D01*
X104312332Y-29675520D01*
X104312332Y-28975520D01*
G36*
X104312332Y-32675520D02*
G01*
X100912332Y-32675520D01*
X100912332Y-33375520D01*
X104312332Y-33375520D01*
X104312332Y-32675520D01*
G37*
X104312332Y-32675520D02*
X100912332Y-32675520D01*
X100912332Y-33375520D01*
X104312332Y-33375520D01*
X104312332Y-32675520D01*
G36*
X109112332Y-28975520D02*
G01*
X104312332Y-28975520D01*
X104312332Y-33375520D01*
X109112332Y-33375520D01*
X109112332Y-28975520D01*
G37*
X109112332Y-28975520D02*
X104312332Y-28975520D01*
X104312332Y-33375520D01*
X109112332Y-33375520D01*
X109112332Y-28975520D01*
G36*
X100912332Y-28975520D02*
G01*
X96112332Y-28975520D01*
X96112332Y-33375520D01*
X100912332Y-33375520D01*
X100912332Y-28975520D01*
G37*
X100912332Y-28975520D02*
X96112332Y-28975520D01*
X96112332Y-33375520D01*
X100912332Y-33375520D01*
X100912332Y-28975520D01*
G36*
X118771665Y-28975520D02*
G01*
X113971665Y-28975520D01*
X113971665Y-33375520D01*
X118771665Y-33375520D01*
X118771665Y-28975520D01*
G37*
X118771665Y-28975520D02*
X113971665Y-28975520D01*
X113971665Y-33375520D01*
X118771665Y-33375520D01*
X118771665Y-28975520D01*
G36*
X126971665Y-28975520D02*
G01*
X122171665Y-28975520D01*
X122171665Y-33375520D01*
X126971665Y-33375520D01*
X126971665Y-28975520D01*
G37*
X126971665Y-28975520D02*
X122171665Y-28975520D01*
X122171665Y-33375520D01*
X126971665Y-33375520D01*
X126971665Y-28975520D01*
G36*
X122171665Y-32675520D02*
G01*
X118771665Y-32675520D01*
X118771665Y-33375520D01*
X122171665Y-33375520D01*
X122171665Y-32675520D01*
G37*
X122171665Y-32675520D02*
X118771665Y-32675520D01*
X118771665Y-33375520D01*
X122171665Y-33375520D01*
X122171665Y-32675520D01*
G36*
X122171665Y-28975520D02*
G01*
X118771665Y-28975520D01*
X118771665Y-29675520D01*
X122171665Y-29675520D01*
X122171665Y-28975520D01*
G37*
X122171665Y-28975520D02*
X118771665Y-28975520D01*
X118771665Y-29675520D01*
X122171665Y-29675520D01*
X122171665Y-28975520D01*
G36*
X140030998Y-28975520D02*
G01*
X136630998Y-28975520D01*
X136630998Y-29675520D01*
X140030998Y-29675520D01*
X140030998Y-28975520D01*
G37*
X140030998Y-28975520D02*
X136630998Y-28975520D01*
X136630998Y-29675520D01*
X140030998Y-29675520D01*
X140030998Y-28975520D01*
G36*
X140030998Y-32675520D02*
G01*
X136630998Y-32675520D01*
X136630998Y-33375520D01*
X140030998Y-33375520D01*
X140030998Y-32675520D01*
G37*
X140030998Y-32675520D02*
X136630998Y-32675520D01*
X136630998Y-33375520D01*
X140030998Y-33375520D01*
X140030998Y-32675520D01*
G36*
X144830998Y-28975520D02*
G01*
X140030998Y-28975520D01*
X140030998Y-33375520D01*
X144830998Y-33375520D01*
X144830998Y-28975520D01*
G37*
X144830998Y-28975520D02*
X140030998Y-28975520D01*
X140030998Y-33375520D01*
X144830998Y-33375520D01*
X144830998Y-28975520D01*
G36*
X136630998Y-28975520D02*
G01*
X131830998Y-28975520D01*
X131830998Y-33375520D01*
X136630998Y-33375520D01*
X136630998Y-28975520D01*
G37*
X136630998Y-28975520D02*
X131830998Y-28975520D01*
X131830998Y-33375520D01*
X136630998Y-33375520D01*
X136630998Y-28975520D01*
G36*
X154490331Y-28975520D02*
G01*
X149690331Y-28975520D01*
X149690331Y-33375520D01*
X154490331Y-33375520D01*
X154490331Y-28975520D01*
G37*
X154490331Y-28975520D02*
X149690331Y-28975520D01*
X149690331Y-33375520D01*
X154490331Y-33375520D01*
X154490331Y-28975520D01*
G36*
X162690331Y-28975520D02*
G01*
X157890331Y-28975520D01*
X157890331Y-33375520D01*
X162690331Y-33375520D01*
X162690331Y-28975520D01*
G37*
X162690331Y-28975520D02*
X157890331Y-28975520D01*
X157890331Y-33375520D01*
X162690331Y-33375520D01*
X162690331Y-28975520D01*
G36*
X157890331Y-32675520D02*
G01*
X154490331Y-32675520D01*
X154490331Y-33375520D01*
X157890331Y-33375520D01*
X157890331Y-32675520D01*
G37*
X157890331Y-32675520D02*
X154490331Y-32675520D01*
X154490331Y-33375520D01*
X157890331Y-33375520D01*
X157890331Y-32675520D01*
G36*
X157890331Y-28975520D02*
G01*
X154490331Y-28975520D01*
X154490331Y-29675520D01*
X157890331Y-29675520D01*
X157890331Y-28975520D01*
G37*
X157890331Y-28975520D02*
X154490331Y-28975520D01*
X154490331Y-29675520D01*
X157890331Y-29675520D01*
X157890331Y-28975520D01*
G36*
X175749664Y-28975520D02*
G01*
X172349664Y-28975520D01*
X172349664Y-29675520D01*
X175749664Y-29675520D01*
X175749664Y-28975520D01*
G37*
X175749664Y-28975520D02*
X172349664Y-28975520D01*
X172349664Y-29675520D01*
X175749664Y-29675520D01*
X175749664Y-28975520D01*
G36*
X175749664Y-32675520D02*
G01*
X172349664Y-32675520D01*
X172349664Y-33375520D01*
X175749664Y-33375520D01*
X175749664Y-32675520D01*
G37*
X175749664Y-32675520D02*
X172349664Y-32675520D01*
X172349664Y-33375520D01*
X175749664Y-33375520D01*
X175749664Y-32675520D01*
G36*
X180549664Y-28975520D02*
G01*
X175749664Y-28975520D01*
X175749664Y-33375520D01*
X180549664Y-33375520D01*
X180549664Y-28975520D01*
G37*
X180549664Y-28975520D02*
X175749664Y-28975520D01*
X175749664Y-33375520D01*
X180549664Y-33375520D01*
X180549664Y-28975520D01*
G36*
X172349664Y-28975520D02*
G01*
X167549664Y-28975520D01*
X167549664Y-33375520D01*
X172349664Y-33375520D01*
X172349664Y-28975520D01*
G37*
X172349664Y-28975520D02*
X167549664Y-28975520D01*
X167549664Y-33375520D01*
X172349664Y-33375520D01*
X172349664Y-28975520D01*
G36*
X190208997Y-28975520D02*
G01*
X185408997Y-28975520D01*
X185408997Y-33375520D01*
X190208997Y-33375520D01*
X190208997Y-28975520D01*
G37*
X190208997Y-28975520D02*
X185408997Y-28975520D01*
X185408997Y-33375520D01*
X190208997Y-33375520D01*
X190208997Y-28975520D01*
G36*
X198408997Y-28975520D02*
G01*
X193608997Y-28975520D01*
X193608997Y-33375520D01*
X198408997Y-33375520D01*
X198408997Y-28975520D01*
G37*
X198408997Y-28975520D02*
X193608997Y-28975520D01*
X193608997Y-33375520D01*
X198408997Y-33375520D01*
X198408997Y-28975520D01*
G36*
X193608997Y-32675520D02*
G01*
X190208997Y-32675520D01*
X190208997Y-33375520D01*
X193608997Y-33375520D01*
X193608997Y-32675520D01*
G37*
X193608997Y-32675520D02*
X190208997Y-32675520D01*
X190208997Y-33375520D01*
X193608997Y-33375520D01*
X193608997Y-32675520D01*
G36*
X193608997Y-28975520D02*
G01*
X190208997Y-28975520D01*
X190208997Y-29675520D01*
X193608997Y-29675520D01*
X193608997Y-28975520D01*
G37*
X193608997Y-28975520D02*
X190208997Y-28975520D01*
X190208997Y-29675520D01*
X193608997Y-29675520D01*
X193608997Y-28975520D01*
G36*
X211468330Y-28975520D02*
G01*
X208068330Y-28975520D01*
X208068330Y-29675520D01*
X211468330Y-29675520D01*
X211468330Y-28975520D01*
G37*
X211468330Y-28975520D02*
X208068330Y-28975520D01*
X208068330Y-29675520D01*
X211468330Y-29675520D01*
X211468330Y-28975520D01*
G36*
X211468330Y-32675520D02*
G01*
X208068330Y-32675520D01*
X208068330Y-33375520D01*
X211468330Y-33375520D01*
X211468330Y-32675520D01*
G37*
X211468330Y-32675520D02*
X208068330Y-32675520D01*
X208068330Y-33375520D01*
X211468330Y-33375520D01*
X211468330Y-32675520D01*
G36*
X216268330Y-28975520D02*
G01*
X211468330Y-28975520D01*
X211468330Y-33375520D01*
X216268330Y-33375520D01*
X216268330Y-28975520D01*
G37*
X216268330Y-28975520D02*
X211468330Y-28975520D01*
X211468330Y-33375520D01*
X216268330Y-33375520D01*
X216268330Y-28975520D01*
G36*
X208068330Y-28975520D02*
G01*
X203268330Y-28975520D01*
X203268330Y-33375520D01*
X208068330Y-33375520D01*
X208068330Y-28975520D01*
G37*
X208068330Y-28975520D02*
X203268330Y-28975520D01*
X203268330Y-33375520D01*
X208068330Y-33375520D01*
X208068330Y-28975520D01*
G36*
X225927663Y-28975520D02*
G01*
X221127663Y-28975520D01*
X221127663Y-33375520D01*
X225927663Y-33375520D01*
X225927663Y-28975520D01*
G37*
X225927663Y-28975520D02*
X221127663Y-28975520D01*
X221127663Y-33375520D01*
X225927663Y-33375520D01*
X225927663Y-28975520D01*
G36*
X234127663Y-28975520D02*
G01*
X229327663Y-28975520D01*
X229327663Y-33375520D01*
X234127663Y-33375520D01*
X234127663Y-28975520D01*
G37*
X234127663Y-28975520D02*
X229327663Y-28975520D01*
X229327663Y-33375520D01*
X234127663Y-33375520D01*
X234127663Y-28975520D01*
G36*
X229327663Y-32675520D02*
G01*
X225927663Y-32675520D01*
X225927663Y-33375520D01*
X229327663Y-33375520D01*
X229327663Y-32675520D01*
G37*
X229327663Y-32675520D02*
X225927663Y-32675520D01*
X225927663Y-33375520D01*
X229327663Y-33375520D01*
X229327663Y-32675520D01*
G36*
X229327663Y-28975520D02*
G01*
X225927663Y-28975520D01*
X225927663Y-29675520D01*
X229327663Y-29675520D01*
X229327663Y-28975520D01*
G37*
X229327663Y-28975520D02*
X225927663Y-28975520D01*
X225927663Y-29675520D01*
X229327663Y-29675520D01*
X229327663Y-28975520D01*
G36*
X247186996Y-28975520D02*
G01*
X243786996Y-28975520D01*
X243786996Y-29675520D01*
X247186996Y-29675520D01*
X247186996Y-28975520D01*
G37*
X247186996Y-28975520D02*
X243786996Y-28975520D01*
X243786996Y-29675520D01*
X247186996Y-29675520D01*
X247186996Y-28975520D01*
G36*
X247186996Y-32675520D02*
G01*
X243786996Y-32675520D01*
X243786996Y-33375520D01*
X247186996Y-33375520D01*
X247186996Y-32675520D01*
G37*
X247186996Y-32675520D02*
X243786996Y-32675520D01*
X243786996Y-33375520D01*
X247186996Y-33375520D01*
X247186996Y-32675520D01*
G36*
X251986996Y-28975520D02*
G01*
X247186996Y-28975520D01*
X247186996Y-33375520D01*
X251986996Y-33375520D01*
X251986996Y-28975520D01*
G37*
X251986996Y-28975520D02*
X247186996Y-28975520D01*
X247186996Y-33375520D01*
X251986996Y-33375520D01*
X251986996Y-28975520D01*
G36*
X243786996Y-28975520D02*
G01*
X238986996Y-28975520D01*
X238986996Y-33375520D01*
X243786996Y-33375520D01*
X243786996Y-28975520D01*
G37*
X243786996Y-28975520D02*
X238986996Y-28975520D01*
X238986996Y-33375520D01*
X243786996Y-33375520D01*
X243786996Y-28975520D01*
G36*
X261646329Y-28975520D02*
G01*
X256846329Y-28975520D01*
X256846329Y-33375520D01*
X261646329Y-33375520D01*
X261646329Y-28975520D01*
G37*
X261646329Y-28975520D02*
X256846329Y-28975520D01*
X256846329Y-33375520D01*
X261646329Y-33375520D01*
X261646329Y-28975520D01*
G36*
X269846329Y-28975520D02*
G01*
X265046329Y-28975520D01*
X265046329Y-33375520D01*
X269846329Y-33375520D01*
X269846329Y-28975520D01*
G37*
X269846329Y-28975520D02*
X265046329Y-28975520D01*
X265046329Y-33375520D01*
X269846329Y-33375520D01*
X269846329Y-28975520D01*
G36*
X265046329Y-32675520D02*
G01*
X261646329Y-32675520D01*
X261646329Y-33375520D01*
X265046329Y-33375520D01*
X265046329Y-32675520D01*
G37*
X265046329Y-32675520D02*
X261646329Y-32675520D01*
X261646329Y-33375520D01*
X265046329Y-33375520D01*
X265046329Y-32675520D01*
G36*
X265046329Y-28975520D02*
G01*
X261646329Y-28975520D01*
X261646329Y-29675520D01*
X265046329Y-29675520D01*
X265046329Y-28975520D01*
G37*
X265046329Y-28975520D02*
X261646329Y-28975520D01*
X261646329Y-29675520D01*
X265046329Y-29675520D01*
X265046329Y-28975520D01*
G36*
X279505662Y-28975520D02*
G01*
X274705662Y-28975520D01*
X274705662Y-33375520D01*
X279505662Y-33375520D01*
X279505662Y-28975520D01*
G37*
X279505662Y-28975520D02*
X274705662Y-28975520D01*
X274705662Y-33375520D01*
X279505662Y-33375520D01*
X279505662Y-28975520D01*
G36*
X287705662Y-28975520D02*
G01*
X282905662Y-28975520D01*
X282905662Y-33375520D01*
X287705662Y-33375520D01*
X287705662Y-28975520D01*
G37*
X287705662Y-28975520D02*
X282905662Y-28975520D01*
X282905662Y-33375520D01*
X287705662Y-33375520D01*
X287705662Y-28975520D01*
G36*
X282905662Y-32675520D02*
G01*
X279505662Y-32675520D01*
X279505662Y-33375520D01*
X282905662Y-33375520D01*
X282905662Y-32675520D01*
G37*
X282905662Y-32675520D02*
X279505662Y-32675520D01*
X279505662Y-33375520D01*
X282905662Y-33375520D01*
X282905662Y-32675520D01*
G36*
X282905662Y-28975520D02*
G01*
X279505662Y-28975520D01*
X279505662Y-29675520D01*
X282905662Y-29675520D01*
X282905662Y-28975520D01*
G37*
X282905662Y-28975520D02*
X279505662Y-28975520D01*
X279505662Y-29675520D01*
X282905662Y-29675520D01*
X282905662Y-28975520D01*
G36*
X296300506Y-50375520D02*
G01*
X301100506Y-50375520D01*
X301100506Y-45975520D01*
X296300506Y-45975520D01*
X296300506Y-50375520D01*
G37*
X296300506Y-50375520D02*
X301100506Y-50375520D01*
X301100506Y-45975520D01*
X296300506Y-45975520D01*
X296300506Y-50375520D01*
G36*
X288100506Y-50375520D02*
G01*
X292900506Y-50375520D01*
X292900506Y-45975520D01*
X288100506Y-45975520D01*
X288100506Y-50375520D01*
G37*
X288100506Y-50375520D02*
X292900506Y-50375520D01*
X292900506Y-45975520D01*
X288100506Y-45975520D01*
X288100506Y-50375520D01*
G36*
X292900506Y-46675520D02*
G01*
X296300506Y-46675520D01*
X296300506Y-45975520D01*
X292900506Y-45975520D01*
X292900506Y-46675520D01*
G37*
X292900506Y-46675520D02*
X296300506Y-46675520D01*
X296300506Y-45975520D01*
X292900506Y-45975520D01*
X292900506Y-46675520D01*
G36*
X292900506Y-50375520D02*
G01*
X296300506Y-50375520D01*
X296300506Y-49675520D01*
X292900506Y-49675520D01*
X292900506Y-50375520D01*
G37*
X292900506Y-50375520D02*
X296300506Y-50375520D01*
X296300506Y-49675520D01*
X292900506Y-49675520D01*
X292900506Y-50375520D01*
G36*
X270576306Y-50375520D02*
G01*
X273976306Y-50375520D01*
X273976306Y-49675520D01*
X270576306Y-49675520D01*
X270576306Y-50375520D01*
G37*
X270576306Y-50375520D02*
X273976306Y-50375520D01*
X273976306Y-49675520D01*
X270576306Y-49675520D01*
X270576306Y-50375520D01*
G36*
X270576306Y-46675520D02*
G01*
X273976306Y-46675520D01*
X273976306Y-45975520D01*
X270576306Y-45975520D01*
X270576306Y-46675520D01*
G37*
X270576306Y-46675520D02*
X273976306Y-46675520D01*
X273976306Y-45975520D01*
X270576306Y-45975520D01*
X270576306Y-46675520D01*
G36*
X265776306Y-50375520D02*
G01*
X270576306Y-50375520D01*
X270576306Y-45975520D01*
X265776306Y-45975520D01*
X265776306Y-50375520D01*
G37*
X265776306Y-50375520D02*
X270576306Y-50375520D01*
X270576306Y-45975520D01*
X265776306Y-45975520D01*
X265776306Y-50375520D01*
G36*
X273976306Y-50375520D02*
G01*
X278776306Y-50375520D01*
X278776306Y-45975520D01*
X273976306Y-45975520D01*
X273976306Y-50375520D01*
G37*
X273976306Y-50375520D02*
X278776306Y-50375520D01*
X278776306Y-45975520D01*
X273976306Y-45975520D01*
X273976306Y-50375520D01*
G36*
X256116946Y-50375520D02*
G01*
X260916946Y-50375520D01*
X260916946Y-45975520D01*
X256116946Y-45975520D01*
X256116946Y-50375520D01*
G37*
X256116946Y-50375520D02*
X260916946Y-50375520D01*
X260916946Y-45975520D01*
X256116946Y-45975520D01*
X256116946Y-50375520D01*
G36*
X247916946Y-50375520D02*
G01*
X252716946Y-50375520D01*
X252716946Y-45975520D01*
X247916946Y-45975520D01*
X247916946Y-50375520D01*
G37*
X247916946Y-50375520D02*
X252716946Y-50375520D01*
X252716946Y-45975520D01*
X247916946Y-45975520D01*
X247916946Y-50375520D01*
G36*
X252716946Y-46675520D02*
G01*
X256116946Y-46675520D01*
X256116946Y-45975520D01*
X252716946Y-45975520D01*
X252716946Y-46675520D01*
G37*
X252716946Y-46675520D02*
X256116946Y-46675520D01*
X256116946Y-45975520D01*
X252716946Y-45975520D01*
X252716946Y-46675520D01*
G36*
X252716946Y-50375520D02*
G01*
X256116946Y-50375520D01*
X256116946Y-49675520D01*
X252716946Y-49675520D01*
X252716946Y-50375520D01*
G37*
X252716946Y-50375520D02*
X256116946Y-50375520D01*
X256116946Y-49675520D01*
X252716946Y-49675520D01*
X252716946Y-50375520D01*
G36*
X234857586Y-50375520D02*
G01*
X238257586Y-50375520D01*
X238257586Y-49675520D01*
X234857586Y-49675520D01*
X234857586Y-50375520D01*
G37*
X234857586Y-50375520D02*
X238257586Y-50375520D01*
X238257586Y-49675520D01*
X234857586Y-49675520D01*
X234857586Y-50375520D01*
G36*
X234857586Y-46675520D02*
G01*
X238257586Y-46675520D01*
X238257586Y-45975520D01*
X234857586Y-45975520D01*
X234857586Y-46675520D01*
G37*
X234857586Y-46675520D02*
X238257586Y-46675520D01*
X238257586Y-45975520D01*
X234857586Y-45975520D01*
X234857586Y-46675520D01*
G36*
X230057586Y-50375520D02*
G01*
X234857586Y-50375520D01*
X234857586Y-45975520D01*
X230057586Y-45975520D01*
X230057586Y-50375520D01*
G37*
X230057586Y-50375520D02*
X234857586Y-50375520D01*
X234857586Y-45975520D01*
X230057586Y-45975520D01*
X230057586Y-50375520D01*
G36*
X238257586Y-50375520D02*
G01*
X243057586Y-50375520D01*
X243057586Y-45975520D01*
X238257586Y-45975520D01*
X238257586Y-50375520D01*
G37*
X238257586Y-50375520D02*
X243057586Y-50375520D01*
X243057586Y-45975520D01*
X238257586Y-45975520D01*
X238257586Y-50375520D01*
G36*
X220398226Y-50375520D02*
G01*
X225198226Y-50375520D01*
X225198226Y-45975520D01*
X220398226Y-45975520D01*
X220398226Y-50375520D01*
G37*
X220398226Y-50375520D02*
X225198226Y-50375520D01*
X225198226Y-45975520D01*
X220398226Y-45975520D01*
X220398226Y-50375520D01*
G36*
X212198226Y-50375520D02*
G01*
X216998226Y-50375520D01*
X216998226Y-45975520D01*
X212198226Y-45975520D01*
X212198226Y-50375520D01*
G37*
X212198226Y-50375520D02*
X216998226Y-50375520D01*
X216998226Y-45975520D01*
X212198226Y-45975520D01*
X212198226Y-50375520D01*
G36*
X216998226Y-46675520D02*
G01*
X220398226Y-46675520D01*
X220398226Y-45975520D01*
X216998226Y-45975520D01*
X216998226Y-46675520D01*
G37*
X216998226Y-46675520D02*
X220398226Y-46675520D01*
X220398226Y-45975520D01*
X216998226Y-45975520D01*
X216998226Y-46675520D01*
G36*
X216998226Y-50375520D02*
G01*
X220398226Y-50375520D01*
X220398226Y-49675520D01*
X216998226Y-49675520D01*
X216998226Y-50375520D01*
G37*
X216998226Y-50375520D02*
X220398226Y-50375520D01*
X220398226Y-49675520D01*
X216998226Y-49675520D01*
X216998226Y-50375520D01*
G36*
X199138866Y-50375520D02*
G01*
X202538866Y-50375520D01*
X202538866Y-49675520D01*
X199138866Y-49675520D01*
X199138866Y-50375520D01*
G37*
X199138866Y-50375520D02*
X202538866Y-50375520D01*
X202538866Y-49675520D01*
X199138866Y-49675520D01*
X199138866Y-50375520D01*
G36*
X199138866Y-46675520D02*
G01*
X202538866Y-46675520D01*
X202538866Y-45975520D01*
X199138866Y-45975520D01*
X199138866Y-46675520D01*
G37*
X199138866Y-46675520D02*
X202538866Y-46675520D01*
X202538866Y-45975520D01*
X199138866Y-45975520D01*
X199138866Y-46675520D01*
G36*
X194338866Y-50375520D02*
G01*
X199138866Y-50375520D01*
X199138866Y-45975520D01*
X194338866Y-45975520D01*
X194338866Y-50375520D01*
G37*
X194338866Y-50375520D02*
X199138866Y-50375520D01*
X199138866Y-45975520D01*
X194338866Y-45975520D01*
X194338866Y-50375520D01*
G36*
X202538866Y-50375520D02*
G01*
X207338866Y-50375520D01*
X207338866Y-45975520D01*
X202538866Y-45975520D01*
X202538866Y-50375520D01*
G37*
X202538866Y-50375520D02*
X207338866Y-50375520D01*
X207338866Y-45975520D01*
X202538866Y-45975520D01*
X202538866Y-50375520D01*
G36*
X184679506Y-50375520D02*
G01*
X189479506Y-50375520D01*
X189479506Y-45975520D01*
X184679506Y-45975520D01*
X184679506Y-50375520D01*
G37*
X184679506Y-50375520D02*
X189479506Y-50375520D01*
X189479506Y-45975520D01*
X184679506Y-45975520D01*
X184679506Y-50375520D01*
G36*
X176479506Y-50375520D02*
G01*
X181279506Y-50375520D01*
X181279506Y-45975520D01*
X176479506Y-45975520D01*
X176479506Y-50375520D01*
G37*
X176479506Y-50375520D02*
X181279506Y-50375520D01*
X181279506Y-45975520D01*
X176479506Y-45975520D01*
X176479506Y-50375520D01*
G36*
X181279506Y-46675520D02*
G01*
X184679506Y-46675520D01*
X184679506Y-45975520D01*
X181279506Y-45975520D01*
X181279506Y-46675520D01*
G37*
X181279506Y-46675520D02*
X184679506Y-46675520D01*
X184679506Y-45975520D01*
X181279506Y-45975520D01*
X181279506Y-46675520D01*
G36*
X181279506Y-50375520D02*
G01*
X184679506Y-50375520D01*
X184679506Y-49675520D01*
X181279506Y-49675520D01*
X181279506Y-50375520D01*
G37*
X181279506Y-50375520D02*
X184679506Y-50375520D01*
X184679506Y-49675520D01*
X181279506Y-49675520D01*
X181279506Y-50375520D01*
G36*
X163420146Y-50375520D02*
G01*
X166820146Y-50375520D01*
X166820146Y-49675520D01*
X163420146Y-49675520D01*
X163420146Y-50375520D01*
G37*
X163420146Y-50375520D02*
X166820146Y-50375520D01*
X166820146Y-49675520D01*
X163420146Y-49675520D01*
X163420146Y-50375520D01*
G36*
X163420146Y-46675520D02*
G01*
X166820146Y-46675520D01*
X166820146Y-45975520D01*
X163420146Y-45975520D01*
X163420146Y-46675520D01*
G37*
X163420146Y-46675520D02*
X166820146Y-46675520D01*
X166820146Y-45975520D01*
X163420146Y-45975520D01*
X163420146Y-46675520D01*
G36*
X158620146Y-50375520D02*
G01*
X163420146Y-50375520D01*
X163420146Y-45975520D01*
X158620146Y-45975520D01*
X158620146Y-50375520D01*
G37*
X158620146Y-50375520D02*
X163420146Y-50375520D01*
X163420146Y-45975520D01*
X158620146Y-45975520D01*
X158620146Y-50375520D01*
G36*
X166820146Y-50375520D02*
G01*
X171620146Y-50375520D01*
X171620146Y-45975520D01*
X166820146Y-45975520D01*
X166820146Y-50375520D01*
G37*
X166820146Y-50375520D02*
X171620146Y-50375520D01*
X171620146Y-45975520D01*
X166820146Y-45975520D01*
X166820146Y-50375520D01*
G36*
X148960786Y-50375520D02*
G01*
X153760786Y-50375520D01*
X153760786Y-45975520D01*
X148960786Y-45975520D01*
X148960786Y-50375520D01*
G37*
X148960786Y-50375520D02*
X153760786Y-50375520D01*
X153760786Y-45975520D01*
X148960786Y-45975520D01*
X148960786Y-50375520D01*
G36*
X140760786Y-50375520D02*
G01*
X145560786Y-50375520D01*
X145560786Y-45975520D01*
X140760786Y-45975520D01*
X140760786Y-50375520D01*
G37*
X140760786Y-50375520D02*
X145560786Y-50375520D01*
X145560786Y-45975520D01*
X140760786Y-45975520D01*
X140760786Y-50375520D01*
G36*
X145560786Y-46675520D02*
G01*
X148960786Y-46675520D01*
X148960786Y-45975520D01*
X145560786Y-45975520D01*
X145560786Y-46675520D01*
G37*
X145560786Y-46675520D02*
X148960786Y-46675520D01*
X148960786Y-45975520D01*
X145560786Y-45975520D01*
X145560786Y-46675520D01*
G36*
X145560786Y-50375520D02*
G01*
X148960786Y-50375520D01*
X148960786Y-49675520D01*
X145560786Y-49675520D01*
X145560786Y-50375520D01*
G37*
X145560786Y-50375520D02*
X148960786Y-50375520D01*
X148960786Y-49675520D01*
X145560786Y-49675520D01*
X145560786Y-50375520D01*
G36*
X127701426Y-50375520D02*
G01*
X131101426Y-50375520D01*
X131101426Y-49675520D01*
X127701426Y-49675520D01*
X127701426Y-50375520D01*
G37*
X127701426Y-50375520D02*
X131101426Y-50375520D01*
X131101426Y-49675520D01*
X127701426Y-49675520D01*
X127701426Y-50375520D01*
G36*
X127701426Y-46675520D02*
G01*
X131101426Y-46675520D01*
X131101426Y-45975520D01*
X127701426Y-45975520D01*
X127701426Y-46675520D01*
G37*
X127701426Y-46675520D02*
X131101426Y-46675520D01*
X131101426Y-45975520D01*
X127701426Y-45975520D01*
X127701426Y-46675520D01*
G36*
X122901426Y-50375520D02*
G01*
X127701426Y-50375520D01*
X127701426Y-45975520D01*
X122901426Y-45975520D01*
X122901426Y-50375520D01*
G37*
X122901426Y-50375520D02*
X127701426Y-50375520D01*
X127701426Y-45975520D01*
X122901426Y-45975520D01*
X122901426Y-50375520D01*
G36*
X131101426Y-50375520D02*
G01*
X135901426Y-50375520D01*
X135901426Y-45975520D01*
X131101426Y-45975520D01*
X131101426Y-50375520D01*
G37*
X131101426Y-50375520D02*
X135901426Y-50375520D01*
X135901426Y-45975520D01*
X131101426Y-45975520D01*
X131101426Y-50375520D01*
G36*
X113242066Y-50375520D02*
G01*
X118042066Y-50375520D01*
X118042066Y-45975520D01*
X113242066Y-45975520D01*
X113242066Y-50375520D01*
G37*
X113242066Y-50375520D02*
X118042066Y-50375520D01*
X118042066Y-45975520D01*
X113242066Y-45975520D01*
X113242066Y-50375520D01*
G36*
X105042066Y-50375520D02*
G01*
X109842066Y-50375520D01*
X109842066Y-45975520D01*
X105042066Y-45975520D01*
X105042066Y-50375520D01*
G37*
X105042066Y-50375520D02*
X109842066Y-50375520D01*
X109842066Y-45975520D01*
X105042066Y-45975520D01*
X105042066Y-50375520D01*
G36*
X109842066Y-46675520D02*
G01*
X113242066Y-46675520D01*
X113242066Y-45975520D01*
X109842066Y-45975520D01*
X109842066Y-46675520D01*
G37*
X109842066Y-46675520D02*
X113242066Y-46675520D01*
X113242066Y-45975520D01*
X109842066Y-45975520D01*
X109842066Y-46675520D01*
G36*
X109842066Y-50375520D02*
G01*
X113242066Y-50375520D01*
X113242066Y-49675520D01*
X109842066Y-49675520D01*
X109842066Y-50375520D01*
G37*
X109842066Y-50375520D02*
X113242066Y-50375520D01*
X113242066Y-49675520D01*
X109842066Y-49675520D01*
X109842066Y-50375520D01*
G36*
X91982706Y-50375520D02*
G01*
X95382706Y-50375520D01*
X95382706Y-49675520D01*
X91982706Y-49675520D01*
X91982706Y-50375520D01*
G37*
X91982706Y-50375520D02*
X95382706Y-50375520D01*
X95382706Y-49675520D01*
X91982706Y-49675520D01*
X91982706Y-50375520D01*
G36*
X91982706Y-46675520D02*
G01*
X95382706Y-46675520D01*
X95382706Y-45975520D01*
X91982706Y-45975520D01*
X91982706Y-46675520D01*
G37*
X91982706Y-46675520D02*
X95382706Y-46675520D01*
X95382706Y-45975520D01*
X91982706Y-45975520D01*
X91982706Y-46675520D01*
G36*
X87182706Y-50375520D02*
G01*
X91982706Y-50375520D01*
X91982706Y-45975520D01*
X87182706Y-45975520D01*
X87182706Y-50375520D01*
G37*
X87182706Y-50375520D02*
X91982706Y-50375520D01*
X91982706Y-45975520D01*
X87182706Y-45975520D01*
X87182706Y-50375520D01*
G36*
X95382706Y-50375520D02*
G01*
X100182706Y-50375520D01*
X100182706Y-45975520D01*
X95382706Y-45975520D01*
X95382706Y-50375520D01*
G37*
X95382706Y-50375520D02*
X100182706Y-50375520D01*
X100182706Y-45975520D01*
X95382706Y-45975520D01*
X95382706Y-50375520D01*
G36*
X77523346Y-50375520D02*
G01*
X82323346Y-50375520D01*
X82323346Y-45975520D01*
X77523346Y-45975520D01*
X77523346Y-50375520D01*
G37*
X77523346Y-50375520D02*
X82323346Y-50375520D01*
X82323346Y-45975520D01*
X77523346Y-45975520D01*
X77523346Y-50375520D01*
G36*
X69323346Y-50375520D02*
G01*
X74123346Y-50375520D01*
X74123346Y-45975520D01*
X69323346Y-45975520D01*
X69323346Y-50375520D01*
G37*
X69323346Y-50375520D02*
X74123346Y-50375520D01*
X74123346Y-45975520D01*
X69323346Y-45975520D01*
X69323346Y-50375520D01*
G36*
X74123346Y-46675520D02*
G01*
X77523346Y-46675520D01*
X77523346Y-45975520D01*
X74123346Y-45975520D01*
X74123346Y-46675520D01*
G37*
X74123346Y-46675520D02*
X77523346Y-46675520D01*
X77523346Y-45975520D01*
X74123346Y-45975520D01*
X74123346Y-46675520D01*
G36*
X74123346Y-50375520D02*
G01*
X77523346Y-50375520D01*
X77523346Y-49675520D01*
X74123346Y-49675520D01*
X74123346Y-50375520D01*
G37*
X74123346Y-50375520D02*
X77523346Y-50375520D01*
X77523346Y-49675520D01*
X74123346Y-49675520D01*
X74123346Y-50375520D01*
G36*
X59663986Y-50375520D02*
G01*
X64463986Y-50375520D01*
X64463986Y-45975520D01*
X59663986Y-45975520D01*
X59663986Y-50375520D01*
G37*
X59663986Y-50375520D02*
X64463986Y-50375520D01*
X64463986Y-45975520D01*
X59663986Y-45975520D01*
X59663986Y-50375520D01*
G36*
X51463986Y-50375520D02*
G01*
X56263986Y-50375520D01*
X56263986Y-45975520D01*
X51463986Y-45975520D01*
X51463986Y-50375520D01*
G37*
X51463986Y-50375520D02*
X56263986Y-50375520D01*
X56263986Y-45975520D01*
X51463986Y-45975520D01*
X51463986Y-50375520D01*
G36*
X56263986Y-46675520D02*
G01*
X59663986Y-46675520D01*
X59663986Y-45975520D01*
X56263986Y-45975520D01*
X56263986Y-46675520D01*
G37*
X56263986Y-46675520D02*
X59663986Y-46675520D01*
X59663986Y-45975520D01*
X56263986Y-45975520D01*
X56263986Y-46675520D01*
G36*
X56263986Y-50375520D02*
G01*
X59663986Y-50375520D01*
X59663986Y-49675520D01*
X56263986Y-49675520D01*
X56263986Y-50375520D01*
G37*
X56263986Y-50375520D02*
X59663986Y-50375520D01*
X59663986Y-49675520D01*
X56263986Y-49675520D01*
X56263986Y-50375520D01*
G36*
X33939786Y-50375520D02*
G01*
X37339786Y-50375520D01*
X37339786Y-49675520D01*
X33939786Y-49675520D01*
X33939786Y-50375520D01*
G37*
X33939786Y-50375520D02*
X37339786Y-50375520D01*
X37339786Y-49675520D01*
X33939786Y-49675520D01*
X33939786Y-50375520D01*
G36*
X33939786Y-46675520D02*
G01*
X37339786Y-46675520D01*
X37339786Y-45975520D01*
X33939786Y-45975520D01*
X33939786Y-46675520D01*
G37*
X33939786Y-46675520D02*
X37339786Y-46675520D01*
X37339786Y-45975520D01*
X33939786Y-45975520D01*
X33939786Y-46675520D01*
G36*
X29139786Y-50375520D02*
G01*
X33939786Y-50375520D01*
X33939786Y-45975520D01*
X29139786Y-45975520D01*
X29139786Y-50375520D01*
G37*
X29139786Y-50375520D02*
X33939786Y-50375520D01*
X33939786Y-45975520D01*
X29139786Y-45975520D01*
X29139786Y-50375520D01*
G36*
X37339786Y-50375520D02*
G01*
X42139786Y-50375520D01*
X42139786Y-45975520D01*
X37339786Y-45975520D01*
X37339786Y-50375520D01*
G37*
X37339786Y-50375520D02*
X42139786Y-50375520D01*
X42139786Y-45975520D01*
X37339786Y-45975520D01*
X37339786Y-50375520D01*
G36*
X37339786Y-62975520D02*
G01*
X33939786Y-62975520D01*
X33939786Y-63675520D01*
X37339786Y-63675520D01*
X37339786Y-62975520D01*
G37*
X37339786Y-62975520D02*
X33939786Y-62975520D01*
X33939786Y-63675520D01*
X37339786Y-63675520D01*
X37339786Y-62975520D01*
G36*
X37339786Y-66675520D02*
G01*
X33939786Y-66675520D01*
X33939786Y-67375520D01*
X37339786Y-67375520D01*
X37339786Y-66675520D01*
G37*
X37339786Y-66675520D02*
X33939786Y-66675520D01*
X33939786Y-67375520D01*
X37339786Y-67375520D01*
X37339786Y-66675520D01*
G36*
X42139786Y-62975520D02*
G01*
X37339786Y-62975520D01*
X37339786Y-67375520D01*
X42139786Y-67375520D01*
X42139786Y-62975520D01*
G37*
X42139786Y-62975520D02*
X37339786Y-62975520D01*
X37339786Y-67375520D01*
X42139786Y-67375520D01*
X42139786Y-62975520D01*
G36*
X33939786Y-62975520D02*
G01*
X29139786Y-62975520D01*
X29139786Y-67375520D01*
X33939786Y-67375520D01*
X33939786Y-62975520D01*
G37*
X33939786Y-62975520D02*
X29139786Y-62975520D01*
X29139786Y-67375520D01*
X33939786Y-67375520D01*
X33939786Y-62975520D01*
G36*
X56263986Y-62975520D02*
G01*
X51463986Y-62975520D01*
X51463986Y-67375520D01*
X56263986Y-67375520D01*
X56263986Y-62975520D01*
G37*
X56263986Y-62975520D02*
X51463986Y-62975520D01*
X51463986Y-67375520D01*
X56263986Y-67375520D01*
X56263986Y-62975520D01*
G36*
X64463986Y-62975520D02*
G01*
X59663986Y-62975520D01*
X59663986Y-67375520D01*
X64463986Y-67375520D01*
X64463986Y-62975520D01*
G37*
X64463986Y-62975520D02*
X59663986Y-62975520D01*
X59663986Y-67375520D01*
X64463986Y-67375520D01*
X64463986Y-62975520D01*
G36*
X59663986Y-66675520D02*
G01*
X56263986Y-66675520D01*
X56263986Y-67375520D01*
X59663986Y-67375520D01*
X59663986Y-66675520D01*
G37*
X59663986Y-66675520D02*
X56263986Y-66675520D01*
X56263986Y-67375520D01*
X59663986Y-67375520D01*
X59663986Y-66675520D01*
G36*
X59663986Y-62975520D02*
G01*
X56263986Y-62975520D01*
X56263986Y-63675520D01*
X59663986Y-63675520D01*
X59663986Y-62975520D01*
G37*
X59663986Y-62975520D02*
X56263986Y-62975520D01*
X56263986Y-63675520D01*
X59663986Y-63675520D01*
X59663986Y-62975520D01*
G36*
X77523346Y-62975520D02*
G01*
X74123346Y-62975520D01*
X74123346Y-63675520D01*
X77523346Y-63675520D01*
X77523346Y-62975520D01*
G37*
X77523346Y-62975520D02*
X74123346Y-62975520D01*
X74123346Y-63675520D01*
X77523346Y-63675520D01*
X77523346Y-62975520D01*
G36*
X77523346Y-66675520D02*
G01*
X74123346Y-66675520D01*
X74123346Y-67375520D01*
X77523346Y-67375520D01*
X77523346Y-66675520D01*
G37*
X77523346Y-66675520D02*
X74123346Y-66675520D01*
X74123346Y-67375520D01*
X77523346Y-67375520D01*
X77523346Y-66675520D01*
G36*
X82323346Y-62975520D02*
G01*
X77523346Y-62975520D01*
X77523346Y-67375520D01*
X82323346Y-67375520D01*
X82323346Y-62975520D01*
G37*
X82323346Y-62975520D02*
X77523346Y-62975520D01*
X77523346Y-67375520D01*
X82323346Y-67375520D01*
X82323346Y-62975520D01*
G36*
X74123346Y-62975520D02*
G01*
X69323346Y-62975520D01*
X69323346Y-67375520D01*
X74123346Y-67375520D01*
X74123346Y-62975520D01*
G37*
X74123346Y-62975520D02*
X69323346Y-62975520D01*
X69323346Y-67375520D01*
X74123346Y-67375520D01*
X74123346Y-62975520D01*
G36*
X91982706Y-62975520D02*
G01*
X87182706Y-62975520D01*
X87182706Y-67375520D01*
X91982706Y-67375520D01*
X91982706Y-62975520D01*
G37*
X91982706Y-62975520D02*
X87182706Y-62975520D01*
X87182706Y-67375520D01*
X91982706Y-67375520D01*
X91982706Y-62975520D01*
G36*
X100182706Y-62975520D02*
G01*
X95382706Y-62975520D01*
X95382706Y-67375520D01*
X100182706Y-67375520D01*
X100182706Y-62975520D01*
G37*
X100182706Y-62975520D02*
X95382706Y-62975520D01*
X95382706Y-67375520D01*
X100182706Y-67375520D01*
X100182706Y-62975520D01*
G36*
X95382706Y-66675520D02*
G01*
X91982706Y-66675520D01*
X91982706Y-67375520D01*
X95382706Y-67375520D01*
X95382706Y-66675520D01*
G37*
X95382706Y-66675520D02*
X91982706Y-66675520D01*
X91982706Y-67375520D01*
X95382706Y-67375520D01*
X95382706Y-66675520D01*
G36*
X95382706Y-62975520D02*
G01*
X91982706Y-62975520D01*
X91982706Y-63675520D01*
X95382706Y-63675520D01*
X95382706Y-62975520D01*
G37*
X95382706Y-62975520D02*
X91982706Y-62975520D01*
X91982706Y-63675520D01*
X95382706Y-63675520D01*
X95382706Y-62975520D01*
G36*
X113242066Y-62975520D02*
G01*
X109842066Y-62975520D01*
X109842066Y-63675520D01*
X113242066Y-63675520D01*
X113242066Y-62975520D01*
G37*
X113242066Y-62975520D02*
X109842066Y-62975520D01*
X109842066Y-63675520D01*
X113242066Y-63675520D01*
X113242066Y-62975520D01*
G36*
X113242066Y-66675520D02*
G01*
X109842066Y-66675520D01*
X109842066Y-67375520D01*
X113242066Y-67375520D01*
X113242066Y-66675520D01*
G37*
X113242066Y-66675520D02*
X109842066Y-66675520D01*
X109842066Y-67375520D01*
X113242066Y-67375520D01*
X113242066Y-66675520D01*
G36*
X118042066Y-62975520D02*
G01*
X113242066Y-62975520D01*
X113242066Y-67375520D01*
X118042066Y-67375520D01*
X118042066Y-62975520D01*
G37*
X118042066Y-62975520D02*
X113242066Y-62975520D01*
X113242066Y-67375520D01*
X118042066Y-67375520D01*
X118042066Y-62975520D01*
G36*
X109842066Y-62975520D02*
G01*
X105042066Y-62975520D01*
X105042066Y-67375520D01*
X109842066Y-67375520D01*
X109842066Y-62975520D01*
G37*
X109842066Y-62975520D02*
X105042066Y-62975520D01*
X105042066Y-67375520D01*
X109842066Y-67375520D01*
X109842066Y-62975520D01*
G36*
X127701426Y-62975520D02*
G01*
X122901426Y-62975520D01*
X122901426Y-67375520D01*
X127701426Y-67375520D01*
X127701426Y-62975520D01*
G37*
X127701426Y-62975520D02*
X122901426Y-62975520D01*
X122901426Y-67375520D01*
X127701426Y-67375520D01*
X127701426Y-62975520D01*
G36*
X135901426Y-62975520D02*
G01*
X131101426Y-62975520D01*
X131101426Y-67375520D01*
X135901426Y-67375520D01*
X135901426Y-62975520D01*
G37*
X135901426Y-62975520D02*
X131101426Y-62975520D01*
X131101426Y-67375520D01*
X135901426Y-67375520D01*
X135901426Y-62975520D01*
G36*
X131101426Y-66675520D02*
G01*
X127701426Y-66675520D01*
X127701426Y-67375520D01*
X131101426Y-67375520D01*
X131101426Y-66675520D01*
G37*
X131101426Y-66675520D02*
X127701426Y-66675520D01*
X127701426Y-67375520D01*
X131101426Y-67375520D01*
X131101426Y-66675520D01*
G36*
X131101426Y-62975520D02*
G01*
X127701426Y-62975520D01*
X127701426Y-63675520D01*
X131101426Y-63675520D01*
X131101426Y-62975520D01*
G37*
X131101426Y-62975520D02*
X127701426Y-62975520D01*
X127701426Y-63675520D01*
X131101426Y-63675520D01*
X131101426Y-62975520D01*
G36*
X148960786Y-62975520D02*
G01*
X145560786Y-62975520D01*
X145560786Y-63675520D01*
X148960786Y-63675520D01*
X148960786Y-62975520D01*
G37*
X148960786Y-62975520D02*
X145560786Y-62975520D01*
X145560786Y-63675520D01*
X148960786Y-63675520D01*
X148960786Y-62975520D01*
G36*
X148960786Y-66675520D02*
G01*
X145560786Y-66675520D01*
X145560786Y-67375520D01*
X148960786Y-67375520D01*
X148960786Y-66675520D01*
G37*
X148960786Y-66675520D02*
X145560786Y-66675520D01*
X145560786Y-67375520D01*
X148960786Y-67375520D01*
X148960786Y-66675520D01*
G36*
X153760786Y-62975520D02*
G01*
X148960786Y-62975520D01*
X148960786Y-67375520D01*
X153760786Y-67375520D01*
X153760786Y-62975520D01*
G37*
X153760786Y-62975520D02*
X148960786Y-62975520D01*
X148960786Y-67375520D01*
X153760786Y-67375520D01*
X153760786Y-62975520D01*
G36*
X145560786Y-62975520D02*
G01*
X140760786Y-62975520D01*
X140760786Y-67375520D01*
X145560786Y-67375520D01*
X145560786Y-62975520D01*
G37*
X145560786Y-62975520D02*
X140760786Y-62975520D01*
X140760786Y-67375520D01*
X145560786Y-67375520D01*
X145560786Y-62975520D01*
G36*
X163420146Y-62975520D02*
G01*
X158620146Y-62975520D01*
X158620146Y-67375520D01*
X163420146Y-67375520D01*
X163420146Y-62975520D01*
G37*
X163420146Y-62975520D02*
X158620146Y-62975520D01*
X158620146Y-67375520D01*
X163420146Y-67375520D01*
X163420146Y-62975520D01*
G36*
X171620146Y-62975520D02*
G01*
X166820146Y-62975520D01*
X166820146Y-67375520D01*
X171620146Y-67375520D01*
X171620146Y-62975520D01*
G37*
X171620146Y-62975520D02*
X166820146Y-62975520D01*
X166820146Y-67375520D01*
X171620146Y-67375520D01*
X171620146Y-62975520D01*
G36*
X166820146Y-66675520D02*
G01*
X163420146Y-66675520D01*
X163420146Y-67375520D01*
X166820146Y-67375520D01*
X166820146Y-66675520D01*
G37*
X166820146Y-66675520D02*
X163420146Y-66675520D01*
X163420146Y-67375520D01*
X166820146Y-67375520D01*
X166820146Y-66675520D01*
G36*
X166820146Y-62975520D02*
G01*
X163420146Y-62975520D01*
X163420146Y-63675520D01*
X166820146Y-63675520D01*
X166820146Y-62975520D01*
G37*
X166820146Y-62975520D02*
X163420146Y-62975520D01*
X163420146Y-63675520D01*
X166820146Y-63675520D01*
X166820146Y-62975520D01*
G36*
X184679506Y-62975520D02*
G01*
X181279506Y-62975520D01*
X181279506Y-63675520D01*
X184679506Y-63675520D01*
X184679506Y-62975520D01*
G37*
X184679506Y-62975520D02*
X181279506Y-62975520D01*
X181279506Y-63675520D01*
X184679506Y-63675520D01*
X184679506Y-62975520D01*
G36*
X184679506Y-66675520D02*
G01*
X181279506Y-66675520D01*
X181279506Y-67375520D01*
X184679506Y-67375520D01*
X184679506Y-66675520D01*
G37*
X184679506Y-66675520D02*
X181279506Y-66675520D01*
X181279506Y-67375520D01*
X184679506Y-67375520D01*
X184679506Y-66675520D01*
G36*
X189479506Y-62975520D02*
G01*
X184679506Y-62975520D01*
X184679506Y-67375520D01*
X189479506Y-67375520D01*
X189479506Y-62975520D01*
G37*
X189479506Y-62975520D02*
X184679506Y-62975520D01*
X184679506Y-67375520D01*
X189479506Y-67375520D01*
X189479506Y-62975520D01*
G36*
X181279506Y-62975520D02*
G01*
X176479506Y-62975520D01*
X176479506Y-67375520D01*
X181279506Y-67375520D01*
X181279506Y-62975520D01*
G37*
X181279506Y-62975520D02*
X176479506Y-62975520D01*
X176479506Y-67375520D01*
X181279506Y-67375520D01*
X181279506Y-62975520D01*
G36*
X199138866Y-62975520D02*
G01*
X194338866Y-62975520D01*
X194338866Y-67375520D01*
X199138866Y-67375520D01*
X199138866Y-62975520D01*
G37*
X199138866Y-62975520D02*
X194338866Y-62975520D01*
X194338866Y-67375520D01*
X199138866Y-67375520D01*
X199138866Y-62975520D01*
G36*
X207338866Y-62975520D02*
G01*
X202538866Y-62975520D01*
X202538866Y-67375520D01*
X207338866Y-67375520D01*
X207338866Y-62975520D01*
G37*
X207338866Y-62975520D02*
X202538866Y-62975520D01*
X202538866Y-67375520D01*
X207338866Y-67375520D01*
X207338866Y-62975520D01*
G36*
X202538866Y-66675520D02*
G01*
X199138866Y-66675520D01*
X199138866Y-67375520D01*
X202538866Y-67375520D01*
X202538866Y-66675520D01*
G37*
X202538866Y-66675520D02*
X199138866Y-66675520D01*
X199138866Y-67375520D01*
X202538866Y-67375520D01*
X202538866Y-66675520D01*
G36*
X202538866Y-62975520D02*
G01*
X199138866Y-62975520D01*
X199138866Y-63675520D01*
X202538866Y-63675520D01*
X202538866Y-62975520D01*
G37*
X202538866Y-62975520D02*
X199138866Y-62975520D01*
X199138866Y-63675520D01*
X202538866Y-63675520D01*
X202538866Y-62975520D01*
G36*
X220398226Y-62975520D02*
G01*
X216998226Y-62975520D01*
X216998226Y-63675520D01*
X220398226Y-63675520D01*
X220398226Y-62975520D01*
G37*
X220398226Y-62975520D02*
X216998226Y-62975520D01*
X216998226Y-63675520D01*
X220398226Y-63675520D01*
X220398226Y-62975520D01*
G36*
X220398226Y-66675520D02*
G01*
X216998226Y-66675520D01*
X216998226Y-67375520D01*
X220398226Y-67375520D01*
X220398226Y-66675520D01*
G37*
X220398226Y-66675520D02*
X216998226Y-66675520D01*
X216998226Y-67375520D01*
X220398226Y-67375520D01*
X220398226Y-66675520D01*
G36*
X225198226Y-62975520D02*
G01*
X220398226Y-62975520D01*
X220398226Y-67375520D01*
X225198226Y-67375520D01*
X225198226Y-62975520D01*
G37*
X225198226Y-62975520D02*
X220398226Y-62975520D01*
X220398226Y-67375520D01*
X225198226Y-67375520D01*
X225198226Y-62975520D01*
G36*
X216998226Y-62975520D02*
G01*
X212198226Y-62975520D01*
X212198226Y-67375520D01*
X216998226Y-67375520D01*
X216998226Y-62975520D01*
G37*
X216998226Y-62975520D02*
X212198226Y-62975520D01*
X212198226Y-67375520D01*
X216998226Y-67375520D01*
X216998226Y-62975520D01*
G36*
X234857586Y-62975520D02*
G01*
X230057586Y-62975520D01*
X230057586Y-67375520D01*
X234857586Y-67375520D01*
X234857586Y-62975520D01*
G37*
X234857586Y-62975520D02*
X230057586Y-62975520D01*
X230057586Y-67375520D01*
X234857586Y-67375520D01*
X234857586Y-62975520D01*
G36*
X243057586Y-62975520D02*
G01*
X238257586Y-62975520D01*
X238257586Y-67375520D01*
X243057586Y-67375520D01*
X243057586Y-62975520D01*
G37*
X243057586Y-62975520D02*
X238257586Y-62975520D01*
X238257586Y-67375520D01*
X243057586Y-67375520D01*
X243057586Y-62975520D01*
G36*
X238257586Y-66675520D02*
G01*
X234857586Y-66675520D01*
X234857586Y-67375520D01*
X238257586Y-67375520D01*
X238257586Y-66675520D01*
G37*
X238257586Y-66675520D02*
X234857586Y-66675520D01*
X234857586Y-67375520D01*
X238257586Y-67375520D01*
X238257586Y-66675520D01*
G36*
X238257586Y-62975520D02*
G01*
X234857586Y-62975520D01*
X234857586Y-63675520D01*
X238257586Y-63675520D01*
X238257586Y-62975520D01*
G37*
X238257586Y-62975520D02*
X234857586Y-62975520D01*
X234857586Y-63675520D01*
X238257586Y-63675520D01*
X238257586Y-62975520D01*
G36*
X256116946Y-62975520D02*
G01*
X252716946Y-62975520D01*
X252716946Y-63675520D01*
X256116946Y-63675520D01*
X256116946Y-62975520D01*
G37*
X256116946Y-62975520D02*
X252716946Y-62975520D01*
X252716946Y-63675520D01*
X256116946Y-63675520D01*
X256116946Y-62975520D01*
G36*
X256116946Y-66675520D02*
G01*
X252716946Y-66675520D01*
X252716946Y-67375520D01*
X256116946Y-67375520D01*
X256116946Y-66675520D01*
G37*
X256116946Y-66675520D02*
X252716946Y-66675520D01*
X252716946Y-67375520D01*
X256116946Y-67375520D01*
X256116946Y-66675520D01*
G36*
X260916946Y-62975520D02*
G01*
X256116946Y-62975520D01*
X256116946Y-67375520D01*
X260916946Y-67375520D01*
X260916946Y-62975520D01*
G37*
X260916946Y-62975520D02*
X256116946Y-62975520D01*
X256116946Y-67375520D01*
X260916946Y-67375520D01*
X260916946Y-62975520D01*
G36*
X252716946Y-62975520D02*
G01*
X247916946Y-62975520D01*
X247916946Y-67375520D01*
X252716946Y-67375520D01*
X252716946Y-62975520D01*
G37*
X252716946Y-62975520D02*
X247916946Y-62975520D01*
X247916946Y-67375520D01*
X252716946Y-67375520D01*
X252716946Y-62975520D01*
G36*
X270576306Y-62975520D02*
G01*
X265776306Y-62975520D01*
X265776306Y-67375520D01*
X270576306Y-67375520D01*
X270576306Y-62975520D01*
G37*
X270576306Y-62975520D02*
X265776306Y-62975520D01*
X265776306Y-67375520D01*
X270576306Y-67375520D01*
X270576306Y-62975520D01*
G36*
X278776306Y-62975520D02*
G01*
X273976306Y-62975520D01*
X273976306Y-67375520D01*
X278776306Y-67375520D01*
X278776306Y-62975520D01*
G37*
X278776306Y-62975520D02*
X273976306Y-62975520D01*
X273976306Y-67375520D01*
X278776306Y-67375520D01*
X278776306Y-62975520D01*
G36*
X273976306Y-66675520D02*
G01*
X270576306Y-66675520D01*
X270576306Y-67375520D01*
X273976306Y-67375520D01*
X273976306Y-66675520D01*
G37*
X273976306Y-66675520D02*
X270576306Y-66675520D01*
X270576306Y-67375520D01*
X273976306Y-67375520D01*
X273976306Y-66675520D01*
G36*
X273976306Y-62975520D02*
G01*
X270576306Y-62975520D01*
X270576306Y-63675520D01*
X273976306Y-63675520D01*
X273976306Y-62975520D01*
G37*
X273976306Y-62975520D02*
X270576306Y-62975520D01*
X270576306Y-63675520D01*
X273976306Y-63675520D01*
X273976306Y-62975520D01*
G36*
X292900506Y-62975520D02*
G01*
X288100506Y-62975520D01*
X288100506Y-67375520D01*
X292900506Y-67375520D01*
X292900506Y-62975520D01*
G37*
X292900506Y-62975520D02*
X288100506Y-62975520D01*
X288100506Y-67375520D01*
X292900506Y-67375520D01*
X292900506Y-62975520D01*
G36*
X301100506Y-62975520D02*
G01*
X296300506Y-62975520D01*
X296300506Y-67375520D01*
X301100506Y-67375520D01*
X301100506Y-62975520D01*
G37*
X301100506Y-62975520D02*
X296300506Y-62975520D01*
X296300506Y-67375520D01*
X301100506Y-67375520D01*
X301100506Y-62975520D01*
G36*
X296300506Y-66675520D02*
G01*
X292900506Y-66675520D01*
X292900506Y-67375520D01*
X296300506Y-67375520D01*
X296300506Y-66675520D01*
G37*
X296300506Y-66675520D02*
X292900506Y-66675520D01*
X292900506Y-67375520D01*
X296300506Y-67375520D01*
X296300506Y-66675520D01*
G36*
X296300506Y-62975520D02*
G01*
X292900506Y-62975520D01*
X292900506Y-63675520D01*
X296300506Y-63675520D01*
X296300506Y-62975520D01*
G37*
X296300506Y-62975520D02*
X292900506Y-62975520D01*
X292900506Y-63675520D01*
X296300506Y-63675520D01*
X296300506Y-62975520D01*
G36*
X300765346Y-84375520D02*
G01*
X305565346Y-84375520D01*
X305565346Y-79975520D01*
X300765346Y-79975520D01*
X300765346Y-84375520D01*
G37*
X300765346Y-84375520D02*
X305565346Y-84375520D01*
X305565346Y-79975520D01*
X300765346Y-79975520D01*
X300765346Y-84375520D01*
G36*
X292565346Y-84375520D02*
G01*
X297365346Y-84375520D01*
X297365346Y-79975520D01*
X292565346Y-79975520D01*
X292565346Y-84375520D01*
G37*
X292565346Y-84375520D02*
X297365346Y-84375520D01*
X297365346Y-79975520D01*
X292565346Y-79975520D01*
X292565346Y-84375520D01*
G36*
X297365346Y-80675520D02*
G01*
X300765346Y-80675520D01*
X300765346Y-79975520D01*
X297365346Y-79975520D01*
X297365346Y-80675520D01*
G37*
X297365346Y-80675520D02*
X300765346Y-80675520D01*
X300765346Y-79975520D01*
X297365346Y-79975520D01*
X297365346Y-80675520D01*
G36*
X297365346Y-84375520D02*
G01*
X300765346Y-84375520D01*
X300765346Y-83675520D01*
X297365346Y-83675520D01*
X297365346Y-84375520D01*
G37*
X297365346Y-84375520D02*
X300765346Y-84375520D01*
X300765346Y-83675520D01*
X297365346Y-83675520D01*
X297365346Y-84375520D01*
G36*
X279505986Y-84375520D02*
G01*
X282905986Y-84375520D01*
X282905986Y-83675520D01*
X279505986Y-83675520D01*
X279505986Y-84375520D01*
G37*
X279505986Y-84375520D02*
X282905986Y-84375520D01*
X282905986Y-83675520D01*
X279505986Y-83675520D01*
X279505986Y-84375520D01*
G36*
X279505986Y-80675520D02*
G01*
X282905986Y-80675520D01*
X282905986Y-79975520D01*
X279505986Y-79975520D01*
X279505986Y-80675520D01*
G37*
X279505986Y-80675520D02*
X282905986Y-80675520D01*
X282905986Y-79975520D01*
X279505986Y-79975520D01*
X279505986Y-80675520D01*
G36*
X274705986Y-84375520D02*
G01*
X279505986Y-84375520D01*
X279505986Y-79975520D01*
X274705986Y-79975520D01*
X274705986Y-84375520D01*
G37*
X274705986Y-84375520D02*
X279505986Y-84375520D01*
X279505986Y-79975520D01*
X274705986Y-79975520D01*
X274705986Y-84375520D01*
G36*
X282905986Y-84375520D02*
G01*
X287705986Y-84375520D01*
X287705986Y-79975520D01*
X282905986Y-79975520D01*
X282905986Y-84375520D01*
G37*
X282905986Y-84375520D02*
X287705986Y-84375520D01*
X287705986Y-79975520D01*
X282905986Y-79975520D01*
X282905986Y-84375520D01*
G36*
X265046626Y-84375520D02*
G01*
X269846626Y-84375520D01*
X269846626Y-79975520D01*
X265046626Y-79975520D01*
X265046626Y-84375520D01*
G37*
X265046626Y-84375520D02*
X269846626Y-84375520D01*
X269846626Y-79975520D01*
X265046626Y-79975520D01*
X265046626Y-84375520D01*
G36*
X256846626Y-84375520D02*
G01*
X261646626Y-84375520D01*
X261646626Y-79975520D01*
X256846626Y-79975520D01*
X256846626Y-84375520D01*
G37*
X256846626Y-84375520D02*
X261646626Y-84375520D01*
X261646626Y-79975520D01*
X256846626Y-79975520D01*
X256846626Y-84375520D01*
G36*
X261646626Y-80675520D02*
G01*
X265046626Y-80675520D01*
X265046626Y-79975520D01*
X261646626Y-79975520D01*
X261646626Y-80675520D01*
G37*
X261646626Y-80675520D02*
X265046626Y-80675520D01*
X265046626Y-79975520D01*
X261646626Y-79975520D01*
X261646626Y-80675520D01*
G36*
X261646626Y-84375520D02*
G01*
X265046626Y-84375520D01*
X265046626Y-83675520D01*
X261646626Y-83675520D01*
X261646626Y-84375520D01*
G37*
X261646626Y-84375520D02*
X265046626Y-84375520D01*
X265046626Y-83675520D01*
X261646626Y-83675520D01*
X261646626Y-84375520D01*
G36*
X243787266Y-84375520D02*
G01*
X247187266Y-84375520D01*
X247187266Y-83675520D01*
X243787266Y-83675520D01*
X243787266Y-84375520D01*
G37*
X243787266Y-84375520D02*
X247187266Y-84375520D01*
X247187266Y-83675520D01*
X243787266Y-83675520D01*
X243787266Y-84375520D01*
G36*
X243787266Y-80675520D02*
G01*
X247187266Y-80675520D01*
X247187266Y-79975520D01*
X243787266Y-79975520D01*
X243787266Y-80675520D01*
G37*
X243787266Y-80675520D02*
X247187266Y-80675520D01*
X247187266Y-79975520D01*
X243787266Y-79975520D01*
X243787266Y-80675520D01*
G36*
X238987266Y-84375520D02*
G01*
X243787266Y-84375520D01*
X243787266Y-79975520D01*
X238987266Y-79975520D01*
X238987266Y-84375520D01*
G37*
X238987266Y-84375520D02*
X243787266Y-84375520D01*
X243787266Y-79975520D01*
X238987266Y-79975520D01*
X238987266Y-84375520D01*
G36*
X247187266Y-84375520D02*
G01*
X251987266Y-84375520D01*
X251987266Y-79975520D01*
X247187266Y-79975520D01*
X247187266Y-84375520D01*
G37*
X247187266Y-84375520D02*
X251987266Y-84375520D01*
X251987266Y-79975520D01*
X247187266Y-79975520D01*
X247187266Y-84375520D01*
G36*
X229327906Y-84375520D02*
G01*
X234127906Y-84375520D01*
X234127906Y-79975520D01*
X229327906Y-79975520D01*
X229327906Y-84375520D01*
G37*
X229327906Y-84375520D02*
X234127906Y-84375520D01*
X234127906Y-79975520D01*
X229327906Y-79975520D01*
X229327906Y-84375520D01*
G36*
X221127906Y-84375520D02*
G01*
X225927906Y-84375520D01*
X225927906Y-79975520D01*
X221127906Y-79975520D01*
X221127906Y-84375520D01*
G37*
X221127906Y-84375520D02*
X225927906Y-84375520D01*
X225927906Y-79975520D01*
X221127906Y-79975520D01*
X221127906Y-84375520D01*
G36*
X225927906Y-80675520D02*
G01*
X229327906Y-80675520D01*
X229327906Y-79975520D01*
X225927906Y-79975520D01*
X225927906Y-80675520D01*
G37*
X225927906Y-80675520D02*
X229327906Y-80675520D01*
X229327906Y-79975520D01*
X225927906Y-79975520D01*
X225927906Y-80675520D01*
G36*
X225927906Y-84375520D02*
G01*
X229327906Y-84375520D01*
X229327906Y-83675520D01*
X225927906Y-83675520D01*
X225927906Y-84375520D01*
G37*
X225927906Y-84375520D02*
X229327906Y-84375520D01*
X229327906Y-83675520D01*
X225927906Y-83675520D01*
X225927906Y-84375520D01*
G36*
X208068546Y-84375520D02*
G01*
X211468546Y-84375520D01*
X211468546Y-83675520D01*
X208068546Y-83675520D01*
X208068546Y-84375520D01*
G37*
X208068546Y-84375520D02*
X211468546Y-84375520D01*
X211468546Y-83675520D01*
X208068546Y-83675520D01*
X208068546Y-84375520D01*
G36*
X208068546Y-80675520D02*
G01*
X211468546Y-80675520D01*
X211468546Y-79975520D01*
X208068546Y-79975520D01*
X208068546Y-80675520D01*
G37*
X208068546Y-80675520D02*
X211468546Y-80675520D01*
X211468546Y-79975520D01*
X208068546Y-79975520D01*
X208068546Y-80675520D01*
G36*
X203268546Y-84375520D02*
G01*
X208068546Y-84375520D01*
X208068546Y-79975520D01*
X203268546Y-79975520D01*
X203268546Y-84375520D01*
G37*
X203268546Y-84375520D02*
X208068546Y-84375520D01*
X208068546Y-79975520D01*
X203268546Y-79975520D01*
X203268546Y-84375520D01*
G36*
X211468546Y-84375520D02*
G01*
X216268546Y-84375520D01*
X216268546Y-79975520D01*
X211468546Y-79975520D01*
X211468546Y-84375520D01*
G37*
X211468546Y-84375520D02*
X216268546Y-84375520D01*
X216268546Y-79975520D01*
X211468546Y-79975520D01*
X211468546Y-84375520D01*
G36*
X193609186Y-84375520D02*
G01*
X198409186Y-84375520D01*
X198409186Y-79975520D01*
X193609186Y-79975520D01*
X193609186Y-84375520D01*
G37*
X193609186Y-84375520D02*
X198409186Y-84375520D01*
X198409186Y-79975520D01*
X193609186Y-79975520D01*
X193609186Y-84375520D01*
G36*
X185409186Y-84375520D02*
G01*
X190209186Y-84375520D01*
X190209186Y-79975520D01*
X185409186Y-79975520D01*
X185409186Y-84375520D01*
G37*
X185409186Y-84375520D02*
X190209186Y-84375520D01*
X190209186Y-79975520D01*
X185409186Y-79975520D01*
X185409186Y-84375520D01*
G36*
X190209186Y-80675520D02*
G01*
X193609186Y-80675520D01*
X193609186Y-79975520D01*
X190209186Y-79975520D01*
X190209186Y-80675520D01*
G37*
X190209186Y-80675520D02*
X193609186Y-80675520D01*
X193609186Y-79975520D01*
X190209186Y-79975520D01*
X190209186Y-80675520D01*
G36*
X190209186Y-84375520D02*
G01*
X193609186Y-84375520D01*
X193609186Y-83675520D01*
X190209186Y-83675520D01*
X190209186Y-84375520D01*
G37*
X190209186Y-84375520D02*
X193609186Y-84375520D01*
X193609186Y-83675520D01*
X190209186Y-83675520D01*
X190209186Y-84375520D01*
G36*
X172349826Y-84375520D02*
G01*
X175749826Y-84375520D01*
X175749826Y-83675520D01*
X172349826Y-83675520D01*
X172349826Y-84375520D01*
G37*
X172349826Y-84375520D02*
X175749826Y-84375520D01*
X175749826Y-83675520D01*
X172349826Y-83675520D01*
X172349826Y-84375520D01*
G36*
X172349826Y-80675520D02*
G01*
X175749826Y-80675520D01*
X175749826Y-79975520D01*
X172349826Y-79975520D01*
X172349826Y-80675520D01*
G37*
X172349826Y-80675520D02*
X175749826Y-80675520D01*
X175749826Y-79975520D01*
X172349826Y-79975520D01*
X172349826Y-80675520D01*
G36*
X167549826Y-84375520D02*
G01*
X172349826Y-84375520D01*
X172349826Y-79975520D01*
X167549826Y-79975520D01*
X167549826Y-84375520D01*
G37*
X167549826Y-84375520D02*
X172349826Y-84375520D01*
X172349826Y-79975520D01*
X167549826Y-79975520D01*
X167549826Y-84375520D01*
G36*
X175749826Y-84375520D02*
G01*
X180549826Y-84375520D01*
X180549826Y-79975520D01*
X175749826Y-79975520D01*
X175749826Y-84375520D01*
G37*
X175749826Y-84375520D02*
X180549826Y-84375520D01*
X180549826Y-79975520D01*
X175749826Y-79975520D01*
X175749826Y-84375520D01*
G36*
X154490466Y-84375520D02*
G01*
X157890466Y-84375520D01*
X157890466Y-83675520D01*
X154490466Y-83675520D01*
X154490466Y-84375520D01*
G37*
X154490466Y-84375520D02*
X157890466Y-84375520D01*
X157890466Y-83675520D01*
X154490466Y-83675520D01*
X154490466Y-84375520D01*
G36*
X154490466Y-80675520D02*
G01*
X157890466Y-80675520D01*
X157890466Y-79975520D01*
X154490466Y-79975520D01*
X154490466Y-80675520D01*
G37*
X154490466Y-80675520D02*
X157890466Y-80675520D01*
X157890466Y-79975520D01*
X154490466Y-79975520D01*
X154490466Y-80675520D01*
G36*
X149690466Y-84375520D02*
G01*
X154490466Y-84375520D01*
X154490466Y-79975520D01*
X149690466Y-79975520D01*
X149690466Y-84375520D01*
G37*
X149690466Y-84375520D02*
X154490466Y-84375520D01*
X154490466Y-79975520D01*
X149690466Y-79975520D01*
X149690466Y-84375520D01*
G36*
X157890466Y-84375520D02*
G01*
X162690466Y-84375520D01*
X162690466Y-79975520D01*
X157890466Y-79975520D01*
X157890466Y-84375520D01*
G37*
X157890466Y-84375520D02*
X162690466Y-84375520D01*
X162690466Y-79975520D01*
X157890466Y-79975520D01*
X157890466Y-84375520D01*
G36*
X136631106Y-84375520D02*
G01*
X140031106Y-84375520D01*
X140031106Y-83675520D01*
X136631106Y-83675520D01*
X136631106Y-84375520D01*
G37*
X136631106Y-84375520D02*
X140031106Y-84375520D01*
X140031106Y-83675520D01*
X136631106Y-83675520D01*
X136631106Y-84375520D01*
G36*
X136631106Y-80675520D02*
G01*
X140031106Y-80675520D01*
X140031106Y-79975520D01*
X136631106Y-79975520D01*
X136631106Y-80675520D01*
G37*
X136631106Y-80675520D02*
X140031106Y-80675520D01*
X140031106Y-79975520D01*
X136631106Y-79975520D01*
X136631106Y-80675520D01*
G36*
X131831106Y-84375520D02*
G01*
X136631106Y-84375520D01*
X136631106Y-79975520D01*
X131831106Y-79975520D01*
X131831106Y-84375520D01*
G37*
X131831106Y-84375520D02*
X136631106Y-84375520D01*
X136631106Y-79975520D01*
X131831106Y-79975520D01*
X131831106Y-84375520D01*
G36*
X140031106Y-84375520D02*
G01*
X144831106Y-84375520D01*
X144831106Y-79975520D01*
X140031106Y-79975520D01*
X140031106Y-84375520D01*
G37*
X140031106Y-84375520D02*
X144831106Y-84375520D01*
X144831106Y-79975520D01*
X140031106Y-79975520D01*
X140031106Y-84375520D01*
G36*
X122171746Y-84375520D02*
G01*
X126971746Y-84375520D01*
X126971746Y-79975520D01*
X122171746Y-79975520D01*
X122171746Y-84375520D01*
G37*
X122171746Y-84375520D02*
X126971746Y-84375520D01*
X126971746Y-79975520D01*
X122171746Y-79975520D01*
X122171746Y-84375520D01*
G36*
X113971746Y-84375520D02*
G01*
X118771746Y-84375520D01*
X118771746Y-79975520D01*
X113971746Y-79975520D01*
X113971746Y-84375520D01*
G37*
X113971746Y-84375520D02*
X118771746Y-84375520D01*
X118771746Y-79975520D01*
X113971746Y-79975520D01*
X113971746Y-84375520D01*
G36*
X118771746Y-80675520D02*
G01*
X122171746Y-80675520D01*
X122171746Y-79975520D01*
X118771746Y-79975520D01*
X118771746Y-80675520D01*
G37*
X118771746Y-80675520D02*
X122171746Y-80675520D01*
X122171746Y-79975520D01*
X118771746Y-79975520D01*
X118771746Y-80675520D01*
G36*
X118771746Y-84375520D02*
G01*
X122171746Y-84375520D01*
X122171746Y-83675520D01*
X118771746Y-83675520D01*
X118771746Y-84375520D01*
G37*
X118771746Y-84375520D02*
X122171746Y-84375520D01*
X122171746Y-83675520D01*
X118771746Y-83675520D01*
X118771746Y-84375520D01*
G36*
X100912386Y-84375520D02*
G01*
X104312386Y-84375520D01*
X104312386Y-83675520D01*
X100912386Y-83675520D01*
X100912386Y-84375520D01*
G37*
X100912386Y-84375520D02*
X104312386Y-84375520D01*
X104312386Y-83675520D01*
X100912386Y-83675520D01*
X100912386Y-84375520D01*
G36*
X100912386Y-80675520D02*
G01*
X104312386Y-80675520D01*
X104312386Y-79975520D01*
X100912386Y-79975520D01*
X100912386Y-80675520D01*
G37*
X100912386Y-80675520D02*
X104312386Y-80675520D01*
X104312386Y-79975520D01*
X100912386Y-79975520D01*
X100912386Y-80675520D01*
G36*
X96112386Y-84375520D02*
G01*
X100912386Y-84375520D01*
X100912386Y-79975520D01*
X96112386Y-79975520D01*
X96112386Y-84375520D01*
G37*
X96112386Y-84375520D02*
X100912386Y-84375520D01*
X100912386Y-79975520D01*
X96112386Y-79975520D01*
X96112386Y-84375520D01*
G36*
X104312386Y-84375520D02*
G01*
X109112386Y-84375520D01*
X109112386Y-79975520D01*
X104312386Y-79975520D01*
X104312386Y-84375520D01*
G37*
X104312386Y-84375520D02*
X109112386Y-84375520D01*
X109112386Y-79975520D01*
X104312386Y-79975520D01*
X104312386Y-84375520D01*
G36*
X86453026Y-84375520D02*
G01*
X91253026Y-84375520D01*
X91253026Y-79975520D01*
X86453026Y-79975520D01*
X86453026Y-84375520D01*
G37*
X86453026Y-84375520D02*
X91253026Y-84375520D01*
X91253026Y-79975520D01*
X86453026Y-79975520D01*
X86453026Y-84375520D01*
G36*
X78253026Y-84375520D02*
G01*
X83053026Y-84375520D01*
X83053026Y-79975520D01*
X78253026Y-79975520D01*
X78253026Y-84375520D01*
G37*
X78253026Y-84375520D02*
X83053026Y-84375520D01*
X83053026Y-79975520D01*
X78253026Y-79975520D01*
X78253026Y-84375520D01*
G36*
X83053026Y-80675520D02*
G01*
X86453026Y-80675520D01*
X86453026Y-79975520D01*
X83053026Y-79975520D01*
X83053026Y-80675520D01*
G37*
X83053026Y-80675520D02*
X86453026Y-80675520D01*
X86453026Y-79975520D01*
X83053026Y-79975520D01*
X83053026Y-80675520D01*
G36*
X83053026Y-84375520D02*
G01*
X86453026Y-84375520D01*
X86453026Y-83675520D01*
X83053026Y-83675520D01*
X83053026Y-84375520D01*
G37*
X83053026Y-84375520D02*
X86453026Y-84375520D01*
X86453026Y-83675520D01*
X83053026Y-83675520D01*
X83053026Y-84375520D01*
G36*
X65193666Y-84375520D02*
G01*
X68593666Y-84375520D01*
X68593666Y-83675520D01*
X65193666Y-83675520D01*
X65193666Y-84375520D01*
G37*
X65193666Y-84375520D02*
X68593666Y-84375520D01*
X68593666Y-83675520D01*
X65193666Y-83675520D01*
X65193666Y-84375520D01*
G36*
X65193666Y-80675520D02*
G01*
X68593666Y-80675520D01*
X68593666Y-79975520D01*
X65193666Y-79975520D01*
X65193666Y-80675520D01*
G37*
X65193666Y-80675520D02*
X68593666Y-80675520D01*
X68593666Y-79975520D01*
X65193666Y-79975520D01*
X65193666Y-80675520D01*
G36*
X60393666Y-84375520D02*
G01*
X65193666Y-84375520D01*
X65193666Y-79975520D01*
X60393666Y-79975520D01*
X60393666Y-84375520D01*
G37*
X60393666Y-84375520D02*
X65193666Y-84375520D01*
X65193666Y-79975520D01*
X60393666Y-79975520D01*
X60393666Y-84375520D01*
G36*
X68593666Y-84375520D02*
G01*
X73393666Y-84375520D01*
X73393666Y-79975520D01*
X68593666Y-79975520D01*
X68593666Y-84375520D01*
G37*
X68593666Y-84375520D02*
X73393666Y-84375520D01*
X73393666Y-79975520D01*
X68593666Y-79975520D01*
X68593666Y-84375520D01*
G36*
X47334306Y-84375520D02*
G01*
X50734306Y-84375520D01*
X50734306Y-83675520D01*
X47334306Y-83675520D01*
X47334306Y-84375520D01*
G37*
X47334306Y-84375520D02*
X50734306Y-84375520D01*
X50734306Y-83675520D01*
X47334306Y-83675520D01*
X47334306Y-84375520D01*
G36*
X47334306Y-80675520D02*
G01*
X50734306Y-80675520D01*
X50734306Y-79975520D01*
X47334306Y-79975520D01*
X47334306Y-80675520D01*
G37*
X47334306Y-80675520D02*
X50734306Y-80675520D01*
X50734306Y-79975520D01*
X47334306Y-79975520D01*
X47334306Y-80675520D01*
G36*
X42534306Y-84375520D02*
G01*
X47334306Y-84375520D01*
X47334306Y-79975520D01*
X42534306Y-79975520D01*
X42534306Y-84375520D01*
G37*
X42534306Y-84375520D02*
X47334306Y-84375520D01*
X47334306Y-79975520D01*
X42534306Y-79975520D01*
X42534306Y-84375520D01*
G36*
X50734306Y-84375520D02*
G01*
X55534306Y-84375520D01*
X55534306Y-79975520D01*
X50734306Y-79975520D01*
X50734306Y-84375520D01*
G37*
X50734306Y-84375520D02*
X55534306Y-84375520D01*
X55534306Y-79975520D01*
X50734306Y-79975520D01*
X50734306Y-84375520D01*
G36*
X29474946Y-84375520D02*
G01*
X32874946Y-84375520D01*
X32874946Y-83675520D01*
X29474946Y-83675520D01*
X29474946Y-84375520D01*
G37*
X29474946Y-84375520D02*
X32874946Y-84375520D01*
X32874946Y-83675520D01*
X29474946Y-83675520D01*
X29474946Y-84375520D01*
G36*
X29474946Y-80675520D02*
G01*
X32874946Y-80675520D01*
X32874946Y-79975520D01*
X29474946Y-79975520D01*
X29474946Y-80675520D01*
G37*
X29474946Y-80675520D02*
X32874946Y-80675520D01*
X32874946Y-79975520D01*
X29474946Y-79975520D01*
X29474946Y-80675520D01*
G36*
X24674946Y-84375520D02*
G01*
X29474946Y-84375520D01*
X29474946Y-79975520D01*
X24674946Y-79975520D01*
X24674946Y-84375520D01*
G37*
X24674946Y-84375520D02*
X29474946Y-84375520D01*
X29474946Y-79975520D01*
X24674946Y-79975520D01*
X24674946Y-84375520D01*
G36*
X32874946Y-84375520D02*
G01*
X37674946Y-84375520D01*
X37674946Y-79975520D01*
X32874946Y-79975520D01*
X32874946Y-84375520D01*
G37*
X32874946Y-84375520D02*
X37674946Y-84375520D01*
X37674946Y-79975520D01*
X32874946Y-79975520D01*
X32874946Y-84375520D01*
G36*
X81988186Y-96975520D02*
G01*
X78588186Y-96975520D01*
X78588186Y-97675520D01*
X81988186Y-97675520D01*
X81988186Y-96975520D01*
G37*
X81988186Y-96975520D02*
X78588186Y-96975520D01*
X78588186Y-97675520D01*
X81988186Y-97675520D01*
X81988186Y-96975520D01*
G36*
X81988186Y-100675520D02*
G01*
X78588186Y-100675520D01*
X78588186Y-101375520D01*
X81988186Y-101375520D01*
X81988186Y-100675520D01*
G37*
X81988186Y-100675520D02*
X78588186Y-100675520D01*
X78588186Y-101375520D01*
X81988186Y-101375520D01*
X81988186Y-100675520D01*
G36*
X86788186Y-96975520D02*
G01*
X81988186Y-96975520D01*
X81988186Y-101375520D01*
X86788186Y-101375520D01*
X86788186Y-96975520D01*
G37*
X86788186Y-96975520D02*
X81988186Y-96975520D01*
X81988186Y-101375520D01*
X86788186Y-101375520D01*
X86788186Y-96975520D01*
G36*
X78588186Y-96975520D02*
G01*
X73788186Y-96975520D01*
X73788186Y-101375520D01*
X78588186Y-101375520D01*
X78588186Y-96975520D01*
G37*
X78588186Y-96975520D02*
X73788186Y-96975520D01*
X73788186Y-101375520D01*
X78588186Y-101375520D01*
X78588186Y-96975520D01*
G36*
X100912386Y-96975520D02*
G01*
X96112386Y-96975520D01*
X96112386Y-101375520D01*
X100912386Y-101375520D01*
X100912386Y-96975520D01*
G37*
X100912386Y-96975520D02*
X96112386Y-96975520D01*
X96112386Y-101375520D01*
X100912386Y-101375520D01*
X100912386Y-96975520D01*
G36*
X109112386Y-96975520D02*
G01*
X104312386Y-96975520D01*
X104312386Y-101375520D01*
X109112386Y-101375520D01*
X109112386Y-96975520D01*
G37*
X109112386Y-96975520D02*
X104312386Y-96975520D01*
X104312386Y-101375520D01*
X109112386Y-101375520D01*
X109112386Y-96975520D01*
G36*
X104312386Y-100675520D02*
G01*
X100912386Y-100675520D01*
X100912386Y-101375520D01*
X104312386Y-101375520D01*
X104312386Y-100675520D01*
G37*
X104312386Y-100675520D02*
X100912386Y-100675520D01*
X100912386Y-101375520D01*
X104312386Y-101375520D01*
X104312386Y-100675520D01*
G36*
X104312386Y-96975520D02*
G01*
X100912386Y-96975520D01*
X100912386Y-97675520D01*
X104312386Y-97675520D01*
X104312386Y-96975520D01*
G37*
X104312386Y-96975520D02*
X100912386Y-96975520D01*
X100912386Y-97675520D01*
X104312386Y-97675520D01*
X104312386Y-96975520D01*
G36*
X126636586Y-96975520D02*
G01*
X123236586Y-96975520D01*
X123236586Y-97675520D01*
X126636586Y-97675520D01*
X126636586Y-96975520D01*
G37*
X126636586Y-96975520D02*
X123236586Y-96975520D01*
X123236586Y-97675520D01*
X126636586Y-97675520D01*
X126636586Y-96975520D01*
G36*
X126636586Y-100675520D02*
G01*
X123236586Y-100675520D01*
X123236586Y-101375520D01*
X126636586Y-101375520D01*
X126636586Y-100675520D01*
G37*
X126636586Y-100675520D02*
X123236586Y-100675520D01*
X123236586Y-101375520D01*
X126636586Y-101375520D01*
X126636586Y-100675520D01*
G36*
X131436586Y-96975520D02*
G01*
X126636586Y-96975520D01*
X126636586Y-101375520D01*
X131436586Y-101375520D01*
X131436586Y-96975520D01*
G37*
X131436586Y-96975520D02*
X126636586Y-96975520D01*
X126636586Y-101375520D01*
X131436586Y-101375520D01*
X131436586Y-96975520D01*
G36*
X123236586Y-96975520D02*
G01*
X118436586Y-96975520D01*
X118436586Y-101375520D01*
X123236586Y-101375520D01*
X123236586Y-96975520D01*
G37*
X123236586Y-96975520D02*
X118436586Y-96975520D01*
X118436586Y-101375520D01*
X123236586Y-101375520D01*
X123236586Y-96975520D01*
G36*
X145560786Y-96975520D02*
G01*
X140760786Y-96975520D01*
X140760786Y-101375520D01*
X145560786Y-101375520D01*
X145560786Y-96975520D01*
G37*
X145560786Y-96975520D02*
X140760786Y-96975520D01*
X140760786Y-101375520D01*
X145560786Y-101375520D01*
X145560786Y-96975520D01*
G36*
X153760786Y-96975520D02*
G01*
X148960786Y-96975520D01*
X148960786Y-101375520D01*
X153760786Y-101375520D01*
X153760786Y-96975520D01*
G37*
X153760786Y-96975520D02*
X148960786Y-96975520D01*
X148960786Y-101375520D01*
X153760786Y-101375520D01*
X153760786Y-96975520D01*
G36*
X148960786Y-100675520D02*
G01*
X145560786Y-100675520D01*
X145560786Y-101375520D01*
X148960786Y-101375520D01*
X148960786Y-100675520D01*
G37*
X148960786Y-100675520D02*
X145560786Y-100675520D01*
X145560786Y-101375520D01*
X148960786Y-101375520D01*
X148960786Y-100675520D01*
G36*
X148960786Y-96975520D02*
G01*
X145560786Y-96975520D01*
X145560786Y-97675520D01*
X148960786Y-97675520D01*
X148960786Y-96975520D01*
G37*
X148960786Y-96975520D02*
X145560786Y-96975520D01*
X145560786Y-97675520D01*
X148960786Y-97675520D01*
X148960786Y-96975520D01*
G36*
X163420146Y-96975520D02*
G01*
X158620146Y-96975520D01*
X158620146Y-101375520D01*
X163420146Y-101375520D01*
X163420146Y-96975520D01*
G37*
X163420146Y-96975520D02*
X158620146Y-96975520D01*
X158620146Y-101375520D01*
X163420146Y-101375520D01*
X163420146Y-96975520D01*
G36*
X171620146Y-96975520D02*
G01*
X166820146Y-96975520D01*
X166820146Y-101375520D01*
X171620146Y-101375520D01*
X171620146Y-96975520D01*
G37*
X171620146Y-96975520D02*
X166820146Y-96975520D01*
X166820146Y-101375520D01*
X171620146Y-101375520D01*
X171620146Y-96975520D01*
G36*
X166820146Y-100675520D02*
G01*
X163420146Y-100675520D01*
X163420146Y-101375520D01*
X166820146Y-101375520D01*
X166820146Y-100675520D01*
G37*
X166820146Y-100675520D02*
X163420146Y-100675520D01*
X163420146Y-101375520D01*
X166820146Y-101375520D01*
X166820146Y-100675520D01*
G36*
X166820146Y-96975520D02*
G01*
X163420146Y-96975520D01*
X163420146Y-97675520D01*
X166820146Y-97675520D01*
X166820146Y-96975520D01*
G37*
X166820146Y-96975520D02*
X163420146Y-96975520D01*
X163420146Y-97675520D01*
X166820146Y-97675520D01*
X166820146Y-96975520D01*
G36*
X181279506Y-96975520D02*
G01*
X176479506Y-96975520D01*
X176479506Y-101375520D01*
X181279506Y-101375520D01*
X181279506Y-96975520D01*
G37*
X181279506Y-96975520D02*
X176479506Y-96975520D01*
X176479506Y-101375520D01*
X181279506Y-101375520D01*
X181279506Y-96975520D01*
G36*
X189479506Y-96975520D02*
G01*
X184679506Y-96975520D01*
X184679506Y-101375520D01*
X189479506Y-101375520D01*
X189479506Y-96975520D01*
G37*
X189479506Y-96975520D02*
X184679506Y-96975520D01*
X184679506Y-101375520D01*
X189479506Y-101375520D01*
X189479506Y-96975520D01*
G36*
X184679506Y-100675520D02*
G01*
X181279506Y-100675520D01*
X181279506Y-101375520D01*
X184679506Y-101375520D01*
X184679506Y-100675520D01*
G37*
X184679506Y-100675520D02*
X181279506Y-100675520D01*
X181279506Y-101375520D01*
X184679506Y-101375520D01*
X184679506Y-100675520D01*
G36*
X184679506Y-96975520D02*
G01*
X181279506Y-96975520D01*
X181279506Y-97675520D01*
X184679506Y-97675520D01*
X184679506Y-96975520D01*
G37*
X184679506Y-96975520D02*
X181279506Y-96975520D01*
X181279506Y-97675520D01*
X184679506Y-97675520D01*
X184679506Y-96975520D01*
G36*
X203603706Y-96975520D02*
G01*
X198803706Y-96975520D01*
X198803706Y-101375520D01*
X203603706Y-101375520D01*
X203603706Y-96975520D01*
G37*
X203603706Y-96975520D02*
X198803706Y-96975520D01*
X198803706Y-101375520D01*
X203603706Y-101375520D01*
X203603706Y-96975520D01*
G36*
X211803706Y-96975520D02*
G01*
X207003706Y-96975520D01*
X207003706Y-101375520D01*
X211803706Y-101375520D01*
X211803706Y-96975520D01*
G37*
X211803706Y-96975520D02*
X207003706Y-96975520D01*
X207003706Y-101375520D01*
X211803706Y-101375520D01*
X211803706Y-96975520D01*
G36*
X207003706Y-100675520D02*
G01*
X203603706Y-100675520D01*
X203603706Y-101375520D01*
X207003706Y-101375520D01*
X207003706Y-100675520D01*
G37*
X207003706Y-100675520D02*
X203603706Y-100675520D01*
X203603706Y-101375520D01*
X207003706Y-101375520D01*
X207003706Y-100675520D01*
G36*
X207003706Y-96975520D02*
G01*
X203603706Y-96975520D01*
X203603706Y-97675520D01*
X207003706Y-97675520D01*
X207003706Y-96975520D01*
G37*
X207003706Y-96975520D02*
X203603706Y-96975520D01*
X203603706Y-97675520D01*
X207003706Y-97675520D01*
X207003706Y-96975520D01*
G36*
X229327906Y-96975520D02*
G01*
X225927906Y-96975520D01*
X225927906Y-97675520D01*
X229327906Y-97675520D01*
X229327906Y-96975520D01*
G37*
X229327906Y-96975520D02*
X225927906Y-96975520D01*
X225927906Y-97675520D01*
X229327906Y-97675520D01*
X229327906Y-96975520D01*
G36*
X229327906Y-100675520D02*
G01*
X225927906Y-100675520D01*
X225927906Y-101375520D01*
X229327906Y-101375520D01*
X229327906Y-100675520D01*
G37*
X229327906Y-100675520D02*
X225927906Y-100675520D01*
X225927906Y-101375520D01*
X229327906Y-101375520D01*
X229327906Y-100675520D01*
G36*
X234127906Y-96975520D02*
G01*
X229327906Y-96975520D01*
X229327906Y-101375520D01*
X234127906Y-101375520D01*
X234127906Y-96975520D01*
G37*
X234127906Y-96975520D02*
X229327906Y-96975520D01*
X229327906Y-101375520D01*
X234127906Y-101375520D01*
X234127906Y-96975520D01*
G36*
X225927906Y-96975520D02*
G01*
X221127906Y-96975520D01*
X221127906Y-101375520D01*
X225927906Y-101375520D01*
X225927906Y-96975520D01*
G37*
X225927906Y-96975520D02*
X221127906Y-96975520D01*
X221127906Y-101375520D01*
X225927906Y-101375520D01*
X225927906Y-96975520D01*
G36*
X251652106Y-96975520D02*
G01*
X248252106Y-96975520D01*
X248252106Y-97675520D01*
X251652106Y-97675520D01*
X251652106Y-96975520D01*
G37*
X251652106Y-96975520D02*
X248252106Y-96975520D01*
X248252106Y-97675520D01*
X251652106Y-97675520D01*
X251652106Y-96975520D01*
G36*
X251652106Y-100675520D02*
G01*
X248252106Y-100675520D01*
X248252106Y-101375520D01*
X251652106Y-101375520D01*
X251652106Y-100675520D01*
G37*
X251652106Y-100675520D02*
X248252106Y-100675520D01*
X248252106Y-101375520D01*
X251652106Y-101375520D01*
X251652106Y-100675520D01*
G36*
X256452106Y-96975520D02*
G01*
X251652106Y-96975520D01*
X251652106Y-101375520D01*
X256452106Y-101375520D01*
X256452106Y-96975520D01*
G37*
X256452106Y-96975520D02*
X251652106Y-96975520D01*
X251652106Y-101375520D01*
X256452106Y-101375520D01*
X256452106Y-96975520D01*
G36*
X248252106Y-96975520D02*
G01*
X243452106Y-96975520D01*
X243452106Y-101375520D01*
X248252106Y-101375520D01*
X248252106Y-96975520D01*
G37*
X248252106Y-96975520D02*
X243452106Y-96975520D01*
X243452106Y-101375520D01*
X248252106Y-101375520D01*
X248252106Y-96975520D01*
%LPC*%
D15*
X64180000Y-113440000D03*
X64180000Y-110900000D03*
X61640000Y-113440000D03*
X61640000Y-110900000D03*
X59100000Y-113440000D03*
G36*
G01*
X58250000Y-109850000D02*
X59950000Y-109850000D01*
G75*
G02*
X60150000Y-110050000I0J-200000D01*
G01*
X60150000Y-111750000D01*
G75*
G02*
X59950000Y-111950000I-200000J0D01*
G01*
X58250000Y-111950000D01*
G75*
G02*
X58050000Y-111750000I0J200000D01*
G01*
X58050000Y-110050000D01*
G75*
G02*
X58250000Y-109850000I200000J0D01*
G01*
G37*
D16*
X30644516Y-56625520D03*
X35644516Y-58825520D03*
D17*
X41144516Y-52875520D03*
X30144516Y-52875520D03*
D18*
X35644516Y-52875520D03*
D19*
X40864516Y-48675520D03*
D16*
X30644516Y-73625520D03*
X35644516Y-75825520D03*
D17*
X41144516Y-69875520D03*
X30144516Y-69875520D03*
D18*
X35644516Y-69875520D03*
D19*
X40864516Y-65675520D03*
D16*
X200308588Y-107625520D03*
X205308588Y-109825520D03*
D17*
X210808588Y-103875520D03*
X199808588Y-103875520D03*
D18*
X205308588Y-103875520D03*
D19*
X210528588Y-99675520D03*
D16*
X75292912Y-107625520D03*
X80292912Y-109825520D03*
D17*
X85792912Y-103875520D03*
X74792912Y-103875520D03*
D18*
X80292912Y-103875520D03*
D19*
X85512912Y-99675520D03*
D16*
X119941312Y-107625520D03*
X124941312Y-109825520D03*
D17*
X130441312Y-103875520D03*
X119441312Y-103875520D03*
D18*
X124941312Y-103875520D03*
D19*
X130161312Y-99675520D03*
D16*
X244956832Y-107625520D03*
X249956832Y-109825520D03*
D17*
X255456832Y-103875520D03*
X244456832Y-103875520D03*
D18*
X249956832Y-103875520D03*
D19*
X255176832Y-99675520D03*
D16*
X289605232Y-56625520D03*
X294605232Y-58825520D03*
D17*
X300105232Y-52875520D03*
X289105232Y-52875520D03*
D18*
X294605232Y-52875520D03*
D19*
X299825232Y-48675520D03*
D16*
X289605232Y-73625520D03*
X294605232Y-75825520D03*
D17*
X300105232Y-69875520D03*
X289105232Y-69875520D03*
D18*
X294605232Y-69875520D03*
D19*
X299825232Y-65675520D03*
X36399672Y-31675520D03*
D18*
X31179672Y-35875520D03*
D17*
X25679672Y-35875520D03*
X36679672Y-35875520D03*
D20*
X31179672Y-35875520D03*
D16*
X31179672Y-41825520D03*
D19*
X36399680Y-82675520D03*
D18*
X31179680Y-86875520D03*
D17*
X25679680Y-86875520D03*
X36679680Y-86875520D03*
D20*
X31179680Y-86875520D03*
D16*
X31179680Y-92825520D03*
X66898424Y-41825520D03*
D20*
X66898424Y-35875520D03*
D16*
X61898424Y-39625520D03*
D17*
X72398424Y-35875520D03*
X61398424Y-35875520D03*
D18*
X66898424Y-35875520D03*
D19*
X72118424Y-31675520D03*
D16*
X49039048Y-41825520D03*
D20*
X49039048Y-35875520D03*
D16*
X44039048Y-39625520D03*
D17*
X54539048Y-35875520D03*
X43539048Y-35875520D03*
D18*
X49039048Y-35875520D03*
D19*
X54259048Y-31675520D03*
D16*
X49039048Y-92825520D03*
D20*
X49039048Y-86875520D03*
D16*
X44039048Y-90625520D03*
D17*
X54539048Y-86875520D03*
X43539048Y-86875520D03*
D18*
X49039048Y-86875520D03*
D19*
X54259048Y-82675520D03*
D16*
X57968736Y-58825520D03*
D20*
X57968736Y-52875520D03*
D16*
X52968736Y-56625520D03*
D17*
X63468736Y-52875520D03*
X52468736Y-52875520D03*
D18*
X57968736Y-52875520D03*
D19*
X63188736Y-48675520D03*
D16*
X57968736Y-75825520D03*
D20*
X57968736Y-69875520D03*
D16*
X52968736Y-73625520D03*
D17*
X63468736Y-69875520D03*
X52468736Y-69875520D03*
D18*
X57968736Y-69875520D03*
D19*
X63188736Y-65675520D03*
D16*
X66898424Y-92825520D03*
D20*
X66898424Y-86875520D03*
D16*
X61898424Y-90625520D03*
D17*
X72398424Y-86875520D03*
X61398424Y-86875520D03*
D18*
X66898424Y-86875520D03*
D19*
X72118424Y-82675520D03*
D16*
X84757800Y-41825520D03*
D20*
X84757800Y-35875520D03*
D16*
X79757800Y-39625520D03*
D17*
X90257800Y-35875520D03*
X79257800Y-35875520D03*
D18*
X84757800Y-35875520D03*
D19*
X89977800Y-31675520D03*
D16*
X75828112Y-58825520D03*
D20*
X75828112Y-52875520D03*
D16*
X70828112Y-56625520D03*
D17*
X81328112Y-52875520D03*
X70328112Y-52875520D03*
D18*
X75828112Y-52875520D03*
D19*
X81048112Y-48675520D03*
D16*
X75828112Y-75825520D03*
D20*
X75828112Y-69875520D03*
D16*
X70828112Y-73625520D03*
D17*
X81328112Y-69875520D03*
X70328112Y-69875520D03*
D18*
X75828112Y-69875520D03*
D19*
X81048112Y-65675520D03*
D16*
X84757800Y-92825520D03*
D20*
X84757800Y-86875520D03*
D16*
X79757800Y-90625520D03*
D17*
X90257800Y-86875520D03*
X79257800Y-86875520D03*
D18*
X84757800Y-86875520D03*
D19*
X89977800Y-82675520D03*
D16*
X102617176Y-41825520D03*
D20*
X102617176Y-35875520D03*
D16*
X97617176Y-39625520D03*
D17*
X108117176Y-35875520D03*
X97117176Y-35875520D03*
D18*
X102617176Y-35875520D03*
D19*
X107837176Y-31675520D03*
D16*
X93687488Y-58825520D03*
D20*
X93687488Y-52875520D03*
D16*
X88687488Y-56625520D03*
D17*
X99187488Y-52875520D03*
X88187488Y-52875520D03*
D18*
X93687488Y-52875520D03*
D19*
X98907488Y-48675520D03*
D16*
X93687488Y-75825520D03*
D20*
X93687488Y-69875520D03*
D16*
X88687488Y-73625520D03*
D17*
X99187488Y-69875520D03*
X88187488Y-69875520D03*
D18*
X93687488Y-69875520D03*
D19*
X98907488Y-65675520D03*
D16*
X102617176Y-92825520D03*
D20*
X102617176Y-86875520D03*
D16*
X97617176Y-90625520D03*
D17*
X108117176Y-86875520D03*
X97117176Y-86875520D03*
D18*
X102617176Y-86875520D03*
D19*
X107837176Y-82675520D03*
D16*
X120476552Y-41825520D03*
D20*
X120476552Y-35875520D03*
D16*
X115476552Y-39625520D03*
D17*
X125976552Y-35875520D03*
X114976552Y-35875520D03*
D18*
X120476552Y-35875520D03*
D19*
X125696552Y-31675520D03*
D16*
X111546864Y-58825520D03*
D20*
X111546864Y-52875520D03*
D16*
X106546864Y-56625520D03*
D17*
X117046864Y-52875520D03*
X106046864Y-52875520D03*
D18*
X111546864Y-52875520D03*
D19*
X116766864Y-48675520D03*
D16*
X111546864Y-75825520D03*
D20*
X111546864Y-69875520D03*
D16*
X106546864Y-73625520D03*
D17*
X117046864Y-69875520D03*
X106046864Y-69875520D03*
D18*
X111546864Y-69875520D03*
D19*
X116766864Y-65675520D03*
D16*
X120476552Y-92825520D03*
D20*
X120476552Y-86875520D03*
D16*
X115476552Y-90625520D03*
D17*
X125976552Y-86875520D03*
X114976552Y-86875520D03*
D18*
X120476552Y-86875520D03*
D19*
X125696552Y-82675520D03*
D16*
X138335928Y-41825520D03*
D20*
X138335928Y-35875520D03*
D16*
X133335928Y-39625520D03*
D17*
X143835928Y-35875520D03*
X132835928Y-35875520D03*
D18*
X138335928Y-35875520D03*
D19*
X143555928Y-31675520D03*
D16*
X129406240Y-58825520D03*
D20*
X129406240Y-52875520D03*
D16*
X124406240Y-56625520D03*
D17*
X134906240Y-52875520D03*
X123906240Y-52875520D03*
D18*
X129406240Y-52875520D03*
D19*
X134626240Y-48675520D03*
D16*
X129406240Y-75825520D03*
D20*
X129406240Y-69875520D03*
D16*
X124406240Y-73625520D03*
D17*
X134906240Y-69875520D03*
X123906240Y-69875520D03*
D18*
X129406240Y-69875520D03*
D19*
X134626240Y-65675520D03*
D16*
X138335928Y-92825520D03*
D20*
X138335928Y-86875520D03*
D16*
X133335928Y-90625520D03*
D17*
X143835928Y-86875520D03*
X132835928Y-86875520D03*
D18*
X138335928Y-86875520D03*
D19*
X143555928Y-82675520D03*
D16*
X156195304Y-41825520D03*
D20*
X156195304Y-35875520D03*
D16*
X151195304Y-39625520D03*
D17*
X161695304Y-35875520D03*
X150695304Y-35875520D03*
D18*
X156195304Y-35875520D03*
D19*
X161415304Y-31675520D03*
D16*
X147265616Y-58825520D03*
D20*
X147265616Y-52875520D03*
D16*
X142265616Y-56625520D03*
D17*
X152765616Y-52875520D03*
X141765616Y-52875520D03*
D18*
X147265616Y-52875520D03*
D19*
X152485616Y-48675520D03*
D16*
X147265616Y-75825520D03*
D20*
X147265616Y-69875520D03*
D16*
X142265616Y-73625520D03*
D17*
X152765616Y-69875520D03*
X141765616Y-69875520D03*
D18*
X147265616Y-69875520D03*
D19*
X152485616Y-65675520D03*
D16*
X156195320Y-92825520D03*
D20*
X156195320Y-86875520D03*
D16*
X151195320Y-90625520D03*
D17*
X161695320Y-86875520D03*
X150695320Y-86875520D03*
D18*
X156195320Y-86875520D03*
D19*
X161415320Y-82675520D03*
D16*
X174054680Y-41825520D03*
D20*
X174054680Y-35875520D03*
D16*
X169054680Y-39625520D03*
D17*
X179554680Y-35875520D03*
X168554680Y-35875520D03*
D18*
X174054680Y-35875520D03*
D19*
X179274680Y-31675520D03*
D16*
X165124992Y-58825520D03*
D20*
X165124992Y-52875520D03*
D16*
X160124992Y-56625520D03*
D17*
X170624992Y-52875520D03*
X159624992Y-52875520D03*
D18*
X165124992Y-52875520D03*
D19*
X170344992Y-48675520D03*
D16*
X165124992Y-75825520D03*
D20*
X165124992Y-69875520D03*
D16*
X160124992Y-73625520D03*
D17*
X170624992Y-69875520D03*
X159624992Y-69875520D03*
D18*
X165124992Y-69875520D03*
D19*
X170344992Y-65675520D03*
D16*
X174054680Y-92825520D03*
D20*
X174054680Y-86875520D03*
D16*
X169054680Y-90625520D03*
D17*
X179554680Y-86875520D03*
X168554680Y-86875520D03*
D18*
X174054680Y-86875520D03*
D19*
X179274680Y-82675520D03*
D16*
X191914056Y-41825520D03*
D20*
X191914056Y-35875520D03*
D16*
X186914056Y-39625520D03*
D17*
X197414056Y-35875520D03*
X186414056Y-35875520D03*
D18*
X191914056Y-35875520D03*
D19*
X197134056Y-31675520D03*
D16*
X182984368Y-58825520D03*
D20*
X182984368Y-52875520D03*
D16*
X177984368Y-56625520D03*
D17*
X188484368Y-52875520D03*
X177484368Y-52875520D03*
D18*
X182984368Y-52875520D03*
D19*
X188204368Y-48675520D03*
D16*
X182984368Y-75825520D03*
D20*
X182984368Y-69875520D03*
D16*
X177984368Y-73625520D03*
D17*
X188484368Y-69875520D03*
X177484368Y-69875520D03*
D18*
X182984368Y-69875520D03*
D19*
X188204368Y-65675520D03*
D16*
X191914056Y-92825520D03*
D20*
X191914056Y-86875520D03*
D16*
X186914056Y-90625520D03*
D17*
X197414056Y-86875520D03*
X186414056Y-86875520D03*
D18*
X191914056Y-86875520D03*
D19*
X197134056Y-82675520D03*
D16*
X182984232Y-109825520D03*
D20*
X182984232Y-103875520D03*
D16*
X177984232Y-107625520D03*
D17*
X188484232Y-103875520D03*
X177484232Y-103875520D03*
D18*
X182984232Y-103875520D03*
D19*
X188204232Y-99675520D03*
D16*
X209773432Y-41825520D03*
D20*
X209773432Y-35875520D03*
D16*
X204773432Y-39625520D03*
D17*
X215273432Y-35875520D03*
X204273432Y-35875520D03*
D18*
X209773432Y-35875520D03*
D19*
X214993432Y-31675520D03*
D16*
X200843744Y-58825520D03*
D20*
X200843744Y-52875520D03*
D16*
X195843744Y-56625520D03*
D17*
X206343744Y-52875520D03*
X195343744Y-52875520D03*
D18*
X200843744Y-52875520D03*
D19*
X206063744Y-48675520D03*
D16*
X200843744Y-75825520D03*
D20*
X200843744Y-69875520D03*
D16*
X195843744Y-73625520D03*
D17*
X206343744Y-69875520D03*
X195343744Y-69875520D03*
D18*
X200843744Y-69875520D03*
D19*
X206063744Y-65675520D03*
D16*
X209773432Y-92825520D03*
D20*
X209773432Y-86875520D03*
D16*
X204773432Y-90625520D03*
D17*
X215273432Y-86875520D03*
X204273432Y-86875520D03*
D18*
X209773432Y-86875520D03*
D19*
X214993432Y-82675520D03*
D16*
X227632808Y-41825520D03*
D20*
X227632808Y-35875520D03*
D16*
X222632808Y-39625520D03*
D17*
X233132808Y-35875520D03*
X222132808Y-35875520D03*
D18*
X227632808Y-35875520D03*
D19*
X232852808Y-31675520D03*
D16*
X218703120Y-58825520D03*
D20*
X218703120Y-52875520D03*
D16*
X213703120Y-56625520D03*
D17*
X224203120Y-52875520D03*
X213203120Y-52875520D03*
D18*
X218703120Y-52875520D03*
D19*
X223923120Y-48675520D03*
D16*
X218703120Y-75825520D03*
D20*
X218703120Y-69875520D03*
D16*
X213703120Y-73625520D03*
D17*
X224203120Y-69875520D03*
X213203120Y-69875520D03*
D18*
X218703120Y-69875520D03*
D19*
X223923120Y-65675520D03*
D16*
X227632808Y-92825520D03*
D20*
X227632808Y-86875520D03*
D16*
X222632808Y-90625520D03*
D17*
X233132808Y-86875520D03*
X222132808Y-86875520D03*
D18*
X227632808Y-86875520D03*
D19*
X232852808Y-82675520D03*
D16*
X227632808Y-109825520D03*
D20*
X227632808Y-103875520D03*
D16*
X222632808Y-107625520D03*
D17*
X233132808Y-103875520D03*
X222132808Y-103875520D03*
D18*
X227632808Y-103875520D03*
D19*
X232852808Y-99675520D03*
D16*
X245492187Y-41825520D03*
D20*
X245492187Y-35875520D03*
D16*
X240492187Y-39625520D03*
D17*
X250992187Y-35875520D03*
X239992187Y-35875520D03*
D18*
X245492187Y-35875520D03*
D19*
X250712187Y-31675520D03*
D16*
X245491992Y-92825520D03*
D20*
X245491992Y-86875520D03*
D16*
X240491992Y-90625520D03*
D17*
X250991992Y-86875520D03*
X239991992Y-86875520D03*
D18*
X245491992Y-86875520D03*
D19*
X250711992Y-82675520D03*
D16*
X263351560Y-41825520D03*
D20*
X263351560Y-35875520D03*
D16*
X258351560Y-39625520D03*
D17*
X268851560Y-35875520D03*
X257851560Y-35875520D03*
D18*
X263351560Y-35875520D03*
D19*
X268571560Y-31675520D03*
D16*
X254421672Y-58825520D03*
D20*
X254421672Y-52875520D03*
D16*
X249421672Y-56625520D03*
D17*
X259921672Y-52875520D03*
X248921672Y-52875520D03*
D18*
X254421672Y-52875520D03*
D19*
X259641672Y-48675520D03*
D16*
X254421672Y-75825520D03*
D20*
X254421672Y-69875520D03*
D16*
X249421672Y-73625520D03*
D17*
X259921672Y-69875520D03*
X248921672Y-69875520D03*
D18*
X254421672Y-69875520D03*
D19*
X259641672Y-65675520D03*
D16*
X263351560Y-92825520D03*
D20*
X263351560Y-86875520D03*
D16*
X258351560Y-90625520D03*
D17*
X268851560Y-86875520D03*
X257851560Y-86875520D03*
D18*
X263351560Y-86875520D03*
D19*
X268571560Y-82675520D03*
D16*
X281210937Y-41825520D03*
D20*
X281210937Y-35875520D03*
D16*
X276210937Y-39625520D03*
D17*
X286710937Y-35875520D03*
X275710937Y-35875520D03*
D18*
X281210937Y-35875520D03*
D19*
X286430937Y-31675520D03*
D16*
X272281032Y-58825520D03*
D20*
X272281032Y-52875520D03*
D16*
X267281032Y-56625520D03*
D17*
X277781032Y-52875520D03*
X266781032Y-52875520D03*
D18*
X272281032Y-52875520D03*
D19*
X277501032Y-48675520D03*
D16*
X272281032Y-75825520D03*
D20*
X272281032Y-69875520D03*
D16*
X267281032Y-73625520D03*
D17*
X277781032Y-69875520D03*
X266781032Y-69875520D03*
D18*
X272281032Y-69875520D03*
D19*
X277501032Y-65675520D03*
D16*
X281210936Y-92825520D03*
D20*
X281210936Y-86875520D03*
D16*
X276210936Y-90625520D03*
D17*
X286710936Y-86875520D03*
X275710936Y-86875520D03*
D18*
X281210936Y-86875520D03*
D19*
X286430936Y-82675520D03*
D16*
X165124872Y-109825520D03*
D20*
X165124872Y-103875520D03*
D16*
X160124872Y-107625520D03*
D17*
X170624872Y-103875520D03*
X159624872Y-103875520D03*
D18*
X165124872Y-103875520D03*
D19*
X170344872Y-99675520D03*
D16*
X299070312Y-41825520D03*
D20*
X299070312Y-35875520D03*
D16*
X294070312Y-39625520D03*
D17*
X304570312Y-35875520D03*
X293570312Y-35875520D03*
D18*
X299070312Y-35875520D03*
D19*
X304290312Y-31675520D03*
D16*
X299070312Y-92825520D03*
D20*
X299070312Y-86875520D03*
D16*
X294070312Y-90625520D03*
D17*
X304570312Y-86875520D03*
X293570312Y-86875520D03*
D18*
X299070312Y-86875520D03*
D19*
X304290312Y-82675520D03*
D16*
X147265512Y-109825520D03*
D20*
X147265512Y-103875520D03*
D16*
X142265512Y-107625520D03*
D17*
X152765512Y-103875520D03*
X141765512Y-103875520D03*
D18*
X147265512Y-103875520D03*
D19*
X152485512Y-99675520D03*
D16*
X236562312Y-75825520D03*
D20*
X236562312Y-69875520D03*
D16*
X231562312Y-73625520D03*
D17*
X242062312Y-69875520D03*
X231062312Y-69875520D03*
D18*
X236562312Y-69875520D03*
D19*
X241782312Y-65675520D03*
D16*
X102617112Y-109825520D03*
D20*
X102617112Y-103875520D03*
D16*
X97617112Y-107625520D03*
D17*
X108117112Y-103875520D03*
X97117112Y-103875520D03*
D18*
X102617112Y-103875520D03*
D19*
X107837112Y-99675520D03*
D16*
X236562312Y-58825520D03*
D20*
X236562312Y-52875520D03*
D16*
X231562312Y-56625520D03*
D17*
X242062312Y-52875520D03*
X231062312Y-52875520D03*
D18*
X236562312Y-52875520D03*
D19*
X241782312Y-48675520D03*
D15*
X153419984Y-45365520D03*
X155959984Y-45365520D03*
G36*
G01*
X157649984Y-44315520D02*
X159349984Y-44315520D01*
G75*
G02*
X159549984Y-44515520I0J-200000D01*
G01*
X159549984Y-46215520D01*
G75*
G02*
X159349984Y-46415520I-200000J0D01*
G01*
X157649984Y-46415520D01*
G75*
G02*
X157449984Y-46215520I0J200000D01*
G01*
X157449984Y-44515520D01*
G75*
G02*
X157649984Y-44315520I200000J0D01*
G01*
G37*
X161039984Y-45365520D03*
X163579984Y-45365520D03*
X166119984Y-45365520D03*
X168659984Y-45365520D03*
G36*
G01*
X170349984Y-44315520D02*
X172049984Y-44315520D01*
G75*
G02*
X172249984Y-44515520I0J-200000D01*
G01*
X172249984Y-46215520D01*
G75*
G02*
X172049984Y-46415520I-200000J0D01*
G01*
X170349984Y-46415520D01*
G75*
G02*
X170149984Y-46215520I0J200000D01*
G01*
X170149984Y-44515520D01*
G75*
G02*
X170349984Y-44315520I200000J0D01*
G01*
G37*
X173739984Y-45365520D03*
X176279984Y-45365520D03*
X178819984Y-45365520D03*
X181359984Y-45365520D03*
G36*
G01*
X183049984Y-44315520D02*
X184749984Y-44315520D01*
G75*
G02*
X184949984Y-44515520I0J-200000D01*
G01*
X184949984Y-46215520D01*
G75*
G02*
X184749984Y-46415520I-200000J0D01*
G01*
X183049984Y-46415520D01*
G75*
G02*
X182849984Y-46215520I0J200000D01*
G01*
X182849984Y-44515520D01*
G75*
G02*
X183049984Y-44315520I200000J0D01*
G01*
G37*
X186439984Y-45365520D03*
X188979984Y-45365520D03*
X191519984Y-45365520D03*
X194059984Y-45365520D03*
G36*
G01*
X195749984Y-44315520D02*
X197449984Y-44315520D01*
G75*
G02*
X197649984Y-44515520I0J-200000D01*
G01*
X197649984Y-46215520D01*
G75*
G02*
X197449984Y-46415520I-200000J0D01*
G01*
X195749984Y-46415520D01*
G75*
G02*
X195549984Y-46215520I0J200000D01*
G01*
X195549984Y-44515520D01*
G75*
G02*
X195749984Y-44315520I200000J0D01*
G01*
G37*
X199139984Y-45365520D03*
X201679984Y-45365520D03*
X201679984Y-27585520D03*
X199139984Y-27585520D03*
G36*
G01*
X195749984Y-26535520D02*
X197449984Y-26535520D01*
G75*
G02*
X197649984Y-26735520I0J-200000D01*
G01*
X197649984Y-28435520D01*
G75*
G02*
X197449984Y-28635520I-200000J0D01*
G01*
X195749984Y-28635520D01*
G75*
G02*
X195549984Y-28435520I0J200000D01*
G01*
X195549984Y-26735520D01*
G75*
G02*
X195749984Y-26535520I200000J0D01*
G01*
G37*
X194059984Y-27585520D03*
X191519984Y-27585520D03*
X188979984Y-27585520D03*
X186439984Y-27585520D03*
G36*
G01*
X183049984Y-26535520D02*
X184749984Y-26535520D01*
G75*
G02*
X184949984Y-26735520I0J-200000D01*
G01*
X184949984Y-28435520D01*
G75*
G02*
X184749984Y-28635520I-200000J0D01*
G01*
X183049984Y-28635520D01*
G75*
G02*
X182849984Y-28435520I0J200000D01*
G01*
X182849984Y-26735520D01*
G75*
G02*
X183049984Y-26535520I200000J0D01*
G01*
G37*
X181359984Y-27585520D03*
X178819984Y-27585520D03*
X176279984Y-27585520D03*
X173739984Y-27585520D03*
G36*
G01*
X170349984Y-26535520D02*
X172049984Y-26535520D01*
G75*
G02*
X172249984Y-26735520I0J-200000D01*
G01*
X172249984Y-28435520D01*
G75*
G02*
X172049984Y-28635520I-200000J0D01*
G01*
X170349984Y-28635520D01*
G75*
G02*
X170149984Y-28435520I0J200000D01*
G01*
X170149984Y-26735520D01*
G75*
G02*
X170349984Y-26535520I200000J0D01*
G01*
G37*
X168659984Y-27585520D03*
X166119984Y-27585520D03*
X163579984Y-27585520D03*
X161039984Y-27585520D03*
G36*
G01*
X157649984Y-26535520D02*
X159349984Y-26535520D01*
G75*
G02*
X159549984Y-26735520I0J-200000D01*
G01*
X159549984Y-28435520D01*
G75*
G02*
X159349984Y-28635520I-200000J0D01*
G01*
X157649984Y-28635520D01*
G75*
G02*
X157449984Y-28435520I0J200000D01*
G01*
X157449984Y-26735520D01*
G75*
G02*
X157649984Y-26535520I200000J0D01*
G01*
G37*
X155959984Y-27585520D03*
X153419984Y-27585520D03*
G36*
G01*
X124950000Y-23650520D02*
X126650000Y-23650520D01*
G75*
G02*
X126850000Y-23850520I0J-200000D01*
G01*
X126850000Y-25550520D01*
G75*
G02*
X126650000Y-25750520I-200000J0D01*
G01*
X124950000Y-25750520D01*
G75*
G02*
X124750000Y-25550520I0J200000D01*
G01*
X124750000Y-23850520D01*
G75*
G02*
X124950000Y-23650520I200000J0D01*
G01*
G37*
X128340000Y-24700520D03*
X150400000Y-26160000D03*
G36*
G01*
X149350000Y-29550000D02*
X149350000Y-27850000D01*
G75*
G02*
X149550000Y-27650000I200000J0D01*
G01*
X151250000Y-27650000D01*
G75*
G02*
X151450000Y-27850000I0J-200000D01*
G01*
X151450000Y-29550000D01*
G75*
G02*
X151250000Y-29750000I-200000J0D01*
G01*
X149550000Y-29750000D01*
G75*
G02*
X149350000Y-29550000I0J200000D01*
G01*
G37*
X187769984Y-24675520D03*
X185229984Y-24675520D03*
X182689984Y-24675520D03*
G36*
G01*
X179299984Y-23625520D02*
X180999984Y-23625520D01*
G75*
G02*
X181199984Y-23825520I0J-200000D01*
G01*
X181199984Y-25525520D01*
G75*
G02*
X180999984Y-25725520I-200000J0D01*
G01*
X179299984Y-25725520D01*
G75*
G02*
X179099984Y-25525520I0J200000D01*
G01*
X179099984Y-23825520D01*
G75*
G02*
X179299984Y-23625520I200000J0D01*
G01*
G37*
D21*
X45100000Y-23830000D03*
X36450000Y-23830000D03*
D22*
X45100000Y-27210000D03*
X36450000Y-27210000D03*
D23*
X41200000Y-26840000D03*
X43750000Y-26840000D03*
X42900000Y-26840000D03*
X42050000Y-26840000D03*
X37800000Y-26840000D03*
X39500000Y-26840000D03*
X40350000Y-26840000D03*
X38650000Y-26840000D03*
X43750000Y-28190000D03*
X42900000Y-28190000D03*
X42050000Y-28190000D03*
X41200000Y-28190000D03*
X40350000Y-28190000D03*
X39500000Y-28190000D03*
X38650000Y-28190000D03*
X37800000Y-28190000D03*
D24*
X53300000Y-104000000D03*
D25*
X150800000Y-69550000D03*
X213100000Y-107750000D03*
X282650000Y-50450000D03*
D24*
X49050000Y-51800000D03*
X46450000Y-51750000D03*
X49050000Y-49100000D03*
X46450000Y-49100000D03*
X47800000Y-52350000D03*
X49700000Y-50450000D03*
X45900000Y-50450000D03*
X47800000Y-48550000D03*
D26*
X47800000Y-50450000D03*
D27*
X132200000Y-109825000D03*
X201900000Y-110500000D03*
X259100000Y-109825000D03*
X68825000Y-109825000D03*
X190499984Y-109825520D03*
X156200000Y-110400000D03*
X305600000Y-95300000D03*
X27000000Y-100900000D03*
D28*
X117500000Y-26800000D03*
X212750000Y-26800000D03*
X106450000Y-112400000D03*
D27*
X305649984Y-44400000D03*
X305649984Y-55400000D03*
X305649984Y-72950000D03*
X305600000Y-98200000D03*
X263375000Y-108075000D03*
X305700000Y-47500000D03*
X305649984Y-61500000D03*
X305650000Y-67600000D03*
X305600000Y-101100000D03*
X263350000Y-111200000D03*
M02*
