G04 #@! TF.GenerationSoftware,KiCad,Pcbnew,(5.1.10-1-10_14)*
G04 #@! TF.CreationDate,2021-12-13T21:26:31+09:00*
G04 #@! TF.ProjectId,nora,6e6f7261-2e6b-4696-9361-645f70636258,DN:0020*
G04 #@! TF.SameCoordinates,Original*
G04 #@! TF.FileFunction,Soldermask,Top*
G04 #@! TF.FilePolarity,Negative*
%FSLAX46Y46*%
G04 Gerber Fmt 4.6, Leading zero omitted, Abs format (unit mm)*
G04 Created by KiCad (PCBNEW (5.1.10-1-10_14)) date 2021-12-13 21:26:31*
%MOMM*%
%LPD*%
G01*
G04 APERTURE LIST*
%ADD10O,2.100000X2.100000*%
%ADD11C,3.400000*%
%ADD12C,2.100000*%
%ADD13C,3.800000*%
%ADD14C,1.600000*%
%ADD15C,3.829000*%
%ADD16O,1.300000X2.100000*%
%ADD17O,1.300000X2.800000*%
%ADD18C,1.100000*%
%ADD19C,1.400000*%
%ADD20O,5.600000X2.800000*%
%ADD21C,5.200000*%
%ADD22C,1.900000*%
%ADD23C,2.600000*%
G04 APERTURE END LIST*
D10*
X75200000Y-62960000D03*
G36*
G01*
X74150000Y-66350000D02*
X74150000Y-64650000D01*
G75*
G02*
X74350000Y-64450000I200000J0D01*
G01*
X76050000Y-64450000D01*
G75*
G02*
X76250000Y-64650000I0J-200000D01*
G01*
X76250000Y-66350000D01*
G75*
G02*
X76050000Y-66550000I-200000J0D01*
G01*
X74350000Y-66550000D01*
G75*
G02*
X74150000Y-66350000I0J200000D01*
G01*
G37*
X187769984Y-24675520D03*
X185229984Y-24675520D03*
X182689984Y-24675520D03*
G36*
G01*
X179299984Y-23625520D02*
X180999984Y-23625520D01*
G75*
G02*
X181199984Y-23825520I0J-200000D01*
G01*
X181199984Y-25525520D01*
G75*
G02*
X180999984Y-25725520I-200000J0D01*
G01*
X179299984Y-25725520D01*
G75*
G02*
X179099984Y-25525520I0J200000D01*
G01*
X179099984Y-23825520D01*
G75*
G02*
X179299984Y-23625520I200000J0D01*
G01*
G37*
D11*
X115476552Y-107625520D03*
X120476552Y-109825520D03*
D12*
X125976552Y-103875520D03*
X114976552Y-103875520D03*
D13*
X120476552Y-103875520D03*
D14*
X125696552Y-99675520D03*
D11*
X151195304Y-107625520D03*
X156195304Y-109825520D03*
D12*
X161695304Y-103875520D03*
X150695304Y-103875520D03*
D13*
X156195304Y-103875520D03*
D14*
X161415304Y-99675520D03*
D11*
X35109360Y-90625520D03*
X40109360Y-92825520D03*
D12*
X45609360Y-86875520D03*
X34609360Y-86875520D03*
D13*
X40109360Y-86875520D03*
D14*
X45329360Y-82675520D03*
D11*
X30644516Y-56625520D03*
X35644516Y-58825520D03*
D12*
X41144516Y-52875520D03*
X30144516Y-52875520D03*
D13*
X35644516Y-52875520D03*
D14*
X40864516Y-48675520D03*
D11*
X30644516Y-73625520D03*
X35644516Y-75825520D03*
D12*
X41144516Y-69875520D03*
X30144516Y-69875520D03*
D13*
X35644516Y-69875520D03*
D14*
X40864516Y-65675520D03*
D11*
X66363268Y-107625520D03*
X71363268Y-109825520D03*
D12*
X76863268Y-103875520D03*
X65863268Y-103875520D03*
D13*
X71363268Y-103875520D03*
D14*
X76583268Y-99675520D03*
D11*
X200308588Y-107625520D03*
X205308588Y-109825520D03*
D12*
X210808588Y-103875520D03*
X199808588Y-103875520D03*
D13*
X205308588Y-103875520D03*
D14*
X210528588Y-99675520D03*
D11*
X236027340Y-56625520D03*
X241027340Y-58825520D03*
D12*
X246527340Y-52875520D03*
X235527340Y-52875520D03*
D13*
X241027340Y-52875520D03*
D14*
X246247340Y-48675520D03*
D11*
X236027340Y-73625520D03*
X241027340Y-75825520D03*
D12*
X246527340Y-69875520D03*
X235527340Y-69875520D03*
D13*
X241027340Y-69875520D03*
D14*
X246247340Y-65675520D03*
D11*
X31179672Y-29925520D03*
D15*
X31179672Y-35875520D03*
D11*
X36179672Y-32125520D03*
D12*
X25679672Y-35875520D03*
X36679672Y-35875520D03*
D13*
X31179672Y-35875520D03*
D14*
X25959672Y-40075520D03*
D11*
X31179672Y-80925520D03*
D15*
X31179672Y-86875520D03*
D11*
X36179672Y-83125520D03*
D12*
X25679672Y-86875520D03*
X36679672Y-86875520D03*
D13*
X31179672Y-86875520D03*
D14*
X25959672Y-91075520D03*
D11*
X31179672Y-97925520D03*
D15*
X31179672Y-103875520D03*
D11*
X36179672Y-100125520D03*
D12*
X25679672Y-103875520D03*
X36679672Y-103875520D03*
D13*
X31179672Y-103875520D03*
D14*
X25959672Y-108075520D03*
D11*
X49039048Y-41825520D03*
D15*
X49039048Y-35875520D03*
D11*
X44039048Y-39625520D03*
D12*
X54539048Y-35875520D03*
X43539048Y-35875520D03*
D13*
X49039048Y-35875520D03*
D14*
X54259048Y-31675520D03*
D11*
X49039048Y-80925520D03*
D15*
X49039048Y-86875520D03*
D11*
X54039048Y-83125520D03*
D12*
X43539048Y-86875520D03*
X54539048Y-86875520D03*
D13*
X49039048Y-86875520D03*
D14*
X43819048Y-91075520D03*
D11*
X49039048Y-109825520D03*
D15*
X49039048Y-103875520D03*
D11*
X44039048Y-107625520D03*
D12*
X54539048Y-103875520D03*
X43539048Y-103875520D03*
D13*
X49039048Y-103875520D03*
D14*
X54259048Y-99675520D03*
D11*
X66898424Y-41825520D03*
D15*
X66898424Y-35875520D03*
D11*
X61898424Y-39625520D03*
D12*
X72398424Y-35875520D03*
X61398424Y-35875520D03*
D13*
X66898424Y-35875520D03*
D14*
X72118424Y-31675520D03*
D11*
X57968736Y-58825520D03*
D15*
X57968736Y-52875520D03*
D11*
X52968736Y-56625520D03*
D12*
X63468736Y-52875520D03*
X52468736Y-52875520D03*
D13*
X57968736Y-52875520D03*
D14*
X63188736Y-48675520D03*
D11*
X57968736Y-75825520D03*
D15*
X57968736Y-69875520D03*
D11*
X52968736Y-73625520D03*
D12*
X63468736Y-69875520D03*
X52468736Y-69875520D03*
D13*
X57968736Y-69875520D03*
D14*
X63188736Y-65675520D03*
D11*
X66898424Y-92825520D03*
D15*
X66898424Y-86875520D03*
D11*
X61898424Y-90625520D03*
D12*
X72398424Y-86875520D03*
X61398424Y-86875520D03*
D13*
X66898424Y-86875520D03*
D14*
X72118424Y-82675520D03*
D11*
X84757800Y-41825520D03*
D15*
X84757800Y-35875520D03*
D11*
X79757800Y-39625520D03*
D12*
X90257800Y-35875520D03*
X79257800Y-35875520D03*
D13*
X84757800Y-35875520D03*
D14*
X89977800Y-31675520D03*
D11*
X75828112Y-58825520D03*
D15*
X75828112Y-52875520D03*
D11*
X70828112Y-56625520D03*
D12*
X81328112Y-52875520D03*
X70328112Y-52875520D03*
D13*
X75828112Y-52875520D03*
D14*
X81048112Y-48675520D03*
D11*
X75828112Y-75825520D03*
D15*
X75828112Y-69875520D03*
D11*
X70828112Y-73625520D03*
D12*
X81328112Y-69875520D03*
X70328112Y-69875520D03*
D13*
X75828112Y-69875520D03*
D14*
X81048112Y-65675520D03*
D11*
X84757800Y-92825520D03*
D15*
X84757800Y-86875520D03*
D11*
X79757800Y-90625520D03*
D12*
X90257800Y-86875520D03*
X79257800Y-86875520D03*
D13*
X84757800Y-86875520D03*
D14*
X89977800Y-82675520D03*
D11*
X93687488Y-109825520D03*
D15*
X93687488Y-103875520D03*
D11*
X88687488Y-107625520D03*
D12*
X99187488Y-103875520D03*
X88187488Y-103875520D03*
D13*
X93687488Y-103875520D03*
D14*
X98907488Y-99675520D03*
D11*
X102617176Y-41825520D03*
D15*
X102617176Y-35875520D03*
D11*
X97617176Y-39625520D03*
D12*
X108117176Y-35875520D03*
X97117176Y-35875520D03*
D13*
X102617176Y-35875520D03*
D14*
X107837176Y-31675520D03*
D11*
X93687488Y-58825520D03*
D15*
X93687488Y-52875520D03*
D11*
X88687488Y-56625520D03*
D12*
X99187488Y-52875520D03*
X88187488Y-52875520D03*
D13*
X93687488Y-52875520D03*
D14*
X98907488Y-48675520D03*
D11*
X93687488Y-75825520D03*
D15*
X93687488Y-69875520D03*
D11*
X88687488Y-73625520D03*
D12*
X99187488Y-69875520D03*
X88187488Y-69875520D03*
D13*
X93687488Y-69875520D03*
D14*
X98907488Y-65675520D03*
D11*
X102617176Y-92825520D03*
D15*
X102617176Y-86875520D03*
D11*
X97617176Y-90625520D03*
D12*
X108117176Y-86875520D03*
X97117176Y-86875520D03*
D13*
X102617176Y-86875520D03*
D14*
X107837176Y-82675520D03*
D11*
X120476552Y-41825520D03*
D15*
X120476552Y-35875520D03*
D11*
X115476552Y-39625520D03*
D12*
X125976552Y-35875520D03*
X114976552Y-35875520D03*
D13*
X120476552Y-35875520D03*
D14*
X125696552Y-31675520D03*
D11*
X111546864Y-58825520D03*
D15*
X111546864Y-52875520D03*
D11*
X106546864Y-56625520D03*
D12*
X117046864Y-52875520D03*
X106046864Y-52875520D03*
D13*
X111546864Y-52875520D03*
D14*
X116766864Y-48675520D03*
D11*
X111546864Y-75825520D03*
D15*
X111546864Y-69875520D03*
D11*
X106546864Y-73625520D03*
D12*
X117046864Y-69875520D03*
X106046864Y-69875520D03*
D13*
X111546864Y-69875520D03*
D14*
X116766864Y-65675520D03*
D11*
X120476552Y-92825520D03*
D15*
X120476552Y-86875520D03*
D11*
X115476552Y-90625520D03*
D12*
X125976552Y-86875520D03*
X114976552Y-86875520D03*
D13*
X120476552Y-86875520D03*
D14*
X125696552Y-82675520D03*
D11*
X138335928Y-41825520D03*
D15*
X138335928Y-35875520D03*
D11*
X133335928Y-39625520D03*
D12*
X143835928Y-35875520D03*
X132835928Y-35875520D03*
D13*
X138335928Y-35875520D03*
D14*
X143555928Y-31675520D03*
D11*
X129406240Y-58825520D03*
D15*
X129406240Y-52875520D03*
D11*
X124406240Y-56625520D03*
D12*
X134906240Y-52875520D03*
X123906240Y-52875520D03*
D13*
X129406240Y-52875520D03*
D14*
X134626240Y-48675520D03*
D11*
X129406240Y-75825520D03*
D15*
X129406240Y-69875520D03*
D11*
X124406240Y-73625520D03*
D12*
X134906240Y-69875520D03*
X123906240Y-69875520D03*
D13*
X129406240Y-69875520D03*
D14*
X134626240Y-65675520D03*
D11*
X138335928Y-92825520D03*
D15*
X138335928Y-86875520D03*
D11*
X133335928Y-90625520D03*
D12*
X143835928Y-86875520D03*
X132835928Y-86875520D03*
D13*
X138335928Y-86875520D03*
D14*
X143555928Y-82675520D03*
D11*
X156195304Y-41825520D03*
D15*
X156195304Y-35875520D03*
D11*
X151195304Y-39625520D03*
D12*
X161695304Y-35875520D03*
X150695304Y-35875520D03*
D13*
X156195304Y-35875520D03*
D14*
X161415304Y-31675520D03*
D11*
X147265616Y-58825520D03*
D15*
X147265616Y-52875520D03*
D11*
X142265616Y-56625520D03*
D12*
X152765616Y-52875520D03*
X141765616Y-52875520D03*
D13*
X147265616Y-52875520D03*
D14*
X152485616Y-48675520D03*
D11*
X147265616Y-75825520D03*
D15*
X147265616Y-69875520D03*
D11*
X142265616Y-73625520D03*
D12*
X152765616Y-69875520D03*
X141765616Y-69875520D03*
D13*
X147265616Y-69875520D03*
D14*
X152485616Y-65675520D03*
D11*
X156195320Y-92825520D03*
D15*
X156195320Y-86875520D03*
D11*
X151195320Y-90625520D03*
D12*
X161695320Y-86875520D03*
X150695320Y-86875520D03*
D13*
X156195320Y-86875520D03*
D14*
X161415320Y-82675520D03*
D11*
X174054680Y-41825520D03*
D15*
X174054680Y-35875520D03*
D11*
X169054680Y-39625520D03*
D12*
X179554680Y-35875520D03*
X168554680Y-35875520D03*
D13*
X174054680Y-35875520D03*
D14*
X179274680Y-31675520D03*
D11*
X165124992Y-58825520D03*
D15*
X165124992Y-52875520D03*
D11*
X160124992Y-56625520D03*
D12*
X170624992Y-52875520D03*
X159624992Y-52875520D03*
D13*
X165124992Y-52875520D03*
D14*
X170344992Y-48675520D03*
D11*
X165124992Y-75825520D03*
D15*
X165124992Y-69875520D03*
D11*
X160124992Y-73625520D03*
D12*
X170624992Y-69875520D03*
X159624992Y-69875520D03*
D13*
X165124992Y-69875520D03*
D14*
X170344992Y-65675520D03*
D11*
X174054680Y-92825520D03*
D15*
X174054680Y-86875520D03*
D11*
X169054680Y-90625520D03*
D12*
X179554680Y-86875520D03*
X168554680Y-86875520D03*
D13*
X174054680Y-86875520D03*
D14*
X179274680Y-82675520D03*
D11*
X191914056Y-41825520D03*
D15*
X191914056Y-35875520D03*
D11*
X186914056Y-39625520D03*
D12*
X197414056Y-35875520D03*
X186414056Y-35875520D03*
D13*
X191914056Y-35875520D03*
D14*
X197134056Y-31675520D03*
D11*
X182984368Y-58825520D03*
D15*
X182984368Y-52875520D03*
D11*
X177984368Y-56625520D03*
D12*
X188484368Y-52875520D03*
X177484368Y-52875520D03*
D13*
X182984368Y-52875520D03*
D14*
X188204368Y-48675520D03*
D11*
X182984368Y-75825520D03*
D15*
X182984368Y-69875520D03*
D11*
X177984368Y-73625520D03*
D12*
X188484368Y-69875520D03*
X177484368Y-69875520D03*
D13*
X182984368Y-69875520D03*
D14*
X188204368Y-65675520D03*
D11*
X191914056Y-92825520D03*
D15*
X191914056Y-86875520D03*
D11*
X186914056Y-90625520D03*
D12*
X197414056Y-86875520D03*
X186414056Y-86875520D03*
D13*
X191914056Y-86875520D03*
D14*
X197134056Y-82675520D03*
D11*
X182984368Y-109825520D03*
D15*
X182984368Y-103875520D03*
D11*
X177984368Y-107625520D03*
D12*
X188484368Y-103875520D03*
X177484368Y-103875520D03*
D13*
X182984368Y-103875520D03*
D14*
X188204368Y-99675520D03*
D11*
X209773432Y-41825520D03*
D15*
X209773432Y-35875520D03*
D11*
X204773432Y-39625520D03*
D12*
X215273432Y-35875520D03*
X204273432Y-35875520D03*
D13*
X209773432Y-35875520D03*
D14*
X214993432Y-31675520D03*
D11*
X200843744Y-58825520D03*
D15*
X200843744Y-52875520D03*
D11*
X195843744Y-56625520D03*
D12*
X206343744Y-52875520D03*
X195343744Y-52875520D03*
D13*
X200843744Y-52875520D03*
D14*
X206063744Y-48675520D03*
D11*
X200843744Y-75825520D03*
D15*
X200843744Y-69875520D03*
D11*
X195843744Y-73625520D03*
D12*
X206343744Y-69875520D03*
X195343744Y-69875520D03*
D13*
X200843744Y-69875520D03*
D14*
X206063744Y-65675520D03*
D11*
X209773432Y-92825520D03*
D15*
X209773432Y-86875520D03*
D11*
X204773432Y-90625520D03*
D12*
X215273432Y-86875520D03*
X204273432Y-86875520D03*
D13*
X209773432Y-86875520D03*
D14*
X214993432Y-82675520D03*
D11*
X227632808Y-41825520D03*
D15*
X227632808Y-35875520D03*
D11*
X222632808Y-39625520D03*
D12*
X233132808Y-35875520D03*
X222132808Y-35875520D03*
D13*
X227632808Y-35875520D03*
D14*
X232852808Y-31675520D03*
D11*
X218703120Y-58825520D03*
D15*
X218703120Y-52875520D03*
D11*
X213703120Y-56625520D03*
D12*
X224203120Y-52875520D03*
X213203120Y-52875520D03*
D13*
X218703120Y-52875520D03*
D14*
X223923120Y-48675520D03*
D11*
X218703120Y-75825520D03*
D15*
X218703120Y-69875520D03*
D11*
X213703120Y-73625520D03*
D12*
X224203120Y-69875520D03*
X213203120Y-69875520D03*
D13*
X218703120Y-69875520D03*
D14*
X223923120Y-65675520D03*
D11*
X227632808Y-92825520D03*
D15*
X227632808Y-86875520D03*
D11*
X222632808Y-90625520D03*
D12*
X233132808Y-86875520D03*
X222132808Y-86875520D03*
D13*
X227632808Y-86875520D03*
D14*
X232852808Y-82675520D03*
D11*
X227632808Y-114075520D03*
D15*
X227632808Y-108125520D03*
D11*
X222632808Y-111875520D03*
D12*
X233132808Y-108125520D03*
X222132808Y-108125520D03*
D13*
X227632808Y-108125520D03*
D14*
X232852808Y-103925520D03*
D11*
X245492187Y-41825520D03*
D15*
X245492187Y-35875520D03*
D11*
X240492187Y-39625520D03*
D12*
X250992187Y-35875520D03*
X239992187Y-35875520D03*
D13*
X245492187Y-35875520D03*
D14*
X250712187Y-31675520D03*
D11*
X245492184Y-97075520D03*
D15*
X245492184Y-91125520D03*
D11*
X240492184Y-94875520D03*
D12*
X250992184Y-91125520D03*
X239992184Y-91125520D03*
D13*
X245492184Y-91125520D03*
D14*
X250712184Y-86925520D03*
D11*
X245492184Y-114075520D03*
D15*
X245492184Y-108125520D03*
D11*
X240492184Y-111875520D03*
D12*
X250992184Y-108125520D03*
X239992184Y-108125520D03*
D13*
X245492184Y-108125520D03*
D14*
X250712184Y-103925520D03*
D11*
X263351560Y-41825520D03*
D15*
X263351560Y-35875520D03*
D11*
X258351560Y-39625520D03*
D12*
X268851560Y-35875520D03*
X257851560Y-35875520D03*
D13*
X263351560Y-35875520D03*
D14*
X268571560Y-31675520D03*
D11*
X263351560Y-58825520D03*
D15*
X263351560Y-52875520D03*
D11*
X258351560Y-56625520D03*
D12*
X268851560Y-52875520D03*
X257851560Y-52875520D03*
D13*
X263351560Y-52875520D03*
D14*
X268571560Y-48675520D03*
D11*
X263351560Y-75825520D03*
D15*
X263351560Y-69875520D03*
D11*
X258351560Y-73625520D03*
D12*
X268851560Y-69875520D03*
X257851560Y-69875520D03*
D13*
X263351560Y-69875520D03*
D14*
X268571560Y-65675520D03*
D11*
X263351560Y-92825520D03*
D15*
X263351560Y-86875520D03*
D11*
X258351560Y-90625520D03*
D12*
X268851560Y-86875520D03*
X257851560Y-86875520D03*
D13*
X263351560Y-86875520D03*
D14*
X268571560Y-82675520D03*
D11*
X263351560Y-114075520D03*
D15*
X263351560Y-108125520D03*
D11*
X258351560Y-111875520D03*
D12*
X268851560Y-108125520D03*
X257851560Y-108125520D03*
D13*
X263351560Y-108125520D03*
D14*
X268571560Y-103925520D03*
D11*
X281210937Y-41825520D03*
D15*
X281210937Y-35875520D03*
D11*
X276210937Y-39625520D03*
D12*
X286710937Y-35875520D03*
X275710937Y-35875520D03*
D13*
X281210937Y-35875520D03*
D14*
X286430937Y-31675520D03*
D11*
X281210936Y-58825520D03*
D15*
X281210936Y-52875520D03*
D11*
X276210936Y-56625520D03*
D12*
X286710936Y-52875520D03*
X275710936Y-52875520D03*
D13*
X281210936Y-52875520D03*
D14*
X286430936Y-48675520D03*
D11*
X281210936Y-75825520D03*
D15*
X281210936Y-69875520D03*
D11*
X276210936Y-73625520D03*
D12*
X286710936Y-69875520D03*
X275710936Y-69875520D03*
D13*
X281210936Y-69875520D03*
D14*
X286430936Y-65675520D03*
D11*
X281210936Y-92825520D03*
D15*
X281210936Y-86875520D03*
D11*
X276210936Y-90625520D03*
D12*
X286710936Y-86875520D03*
X275710936Y-86875520D03*
D13*
X281210936Y-86875520D03*
D14*
X286430936Y-82675520D03*
D11*
X281210936Y-109825520D03*
D15*
X281210936Y-103875520D03*
D11*
X276210936Y-107625520D03*
D12*
X286710936Y-103875520D03*
X275710936Y-103875520D03*
D13*
X281210936Y-103875520D03*
D14*
X286430936Y-99675520D03*
D11*
X299070312Y-41825520D03*
D15*
X299070312Y-35875520D03*
D11*
X294070312Y-39625520D03*
D12*
X304570312Y-35875520D03*
X293570312Y-35875520D03*
D13*
X299070312Y-35875520D03*
D14*
X304290312Y-31675520D03*
D11*
X299070312Y-58825520D03*
D15*
X299070312Y-52875520D03*
D11*
X294070312Y-56625520D03*
D12*
X304570312Y-52875520D03*
X293570312Y-52875520D03*
D13*
X299070312Y-52875520D03*
D14*
X304290312Y-48675520D03*
D11*
X299070312Y-75825520D03*
D15*
X299070312Y-69875520D03*
D11*
X294070312Y-73625520D03*
D12*
X304570312Y-69875520D03*
X293570312Y-69875520D03*
D13*
X299070312Y-69875520D03*
D14*
X304290312Y-65675520D03*
D11*
X299070312Y-92825520D03*
D15*
X299070312Y-86875520D03*
D11*
X294070312Y-90625520D03*
D12*
X304570312Y-86875520D03*
X293570312Y-86875520D03*
D13*
X299070312Y-86875520D03*
D14*
X304290312Y-82675520D03*
D11*
X299070312Y-109825520D03*
D15*
X299070312Y-103875520D03*
D11*
X294070312Y-107625520D03*
D12*
X304570312Y-103875520D03*
X293570312Y-103875520D03*
D13*
X299070312Y-103875520D03*
D14*
X304290312Y-99675520D03*
D16*
X45100000Y-23830000D03*
X36450000Y-23830000D03*
D17*
X45100000Y-27210000D03*
X36450000Y-27210000D03*
D18*
X41200000Y-26840000D03*
X43750000Y-26840000D03*
X42900000Y-26840000D03*
X42050000Y-26840000D03*
X37800000Y-26840000D03*
X39500000Y-26840000D03*
X40350000Y-26840000D03*
X38650000Y-26840000D03*
X43750000Y-28190000D03*
X42900000Y-28190000D03*
X42050000Y-28190000D03*
X41200000Y-28190000D03*
X40350000Y-28190000D03*
X39500000Y-28190000D03*
X38650000Y-28190000D03*
X37800000Y-28190000D03*
D10*
X153419984Y-45365520D03*
X155959984Y-45365520D03*
G36*
G01*
X157649984Y-44315520D02*
X159349984Y-44315520D01*
G75*
G02*
X159549984Y-44515520I0J-200000D01*
G01*
X159549984Y-46215520D01*
G75*
G02*
X159349984Y-46415520I-200000J0D01*
G01*
X157649984Y-46415520D01*
G75*
G02*
X157449984Y-46215520I0J200000D01*
G01*
X157449984Y-44515520D01*
G75*
G02*
X157649984Y-44315520I200000J0D01*
G01*
G37*
X161039984Y-45365520D03*
X163579984Y-45365520D03*
X166119984Y-45365520D03*
X168659984Y-45365520D03*
G36*
G01*
X170349984Y-44315520D02*
X172049984Y-44315520D01*
G75*
G02*
X172249984Y-44515520I0J-200000D01*
G01*
X172249984Y-46215520D01*
G75*
G02*
X172049984Y-46415520I-200000J0D01*
G01*
X170349984Y-46415520D01*
G75*
G02*
X170149984Y-46215520I0J200000D01*
G01*
X170149984Y-44515520D01*
G75*
G02*
X170349984Y-44315520I200000J0D01*
G01*
G37*
X173739984Y-45365520D03*
X176279984Y-45365520D03*
X178819984Y-45365520D03*
X181359984Y-45365520D03*
G36*
G01*
X183049984Y-44315520D02*
X184749984Y-44315520D01*
G75*
G02*
X184949984Y-44515520I0J-200000D01*
G01*
X184949984Y-46215520D01*
G75*
G02*
X184749984Y-46415520I-200000J0D01*
G01*
X183049984Y-46415520D01*
G75*
G02*
X182849984Y-46215520I0J200000D01*
G01*
X182849984Y-44515520D01*
G75*
G02*
X183049984Y-44315520I200000J0D01*
G01*
G37*
X186439984Y-45365520D03*
X188979984Y-45365520D03*
X191519984Y-45365520D03*
X194059984Y-45365520D03*
G36*
G01*
X195749984Y-44315520D02*
X197449984Y-44315520D01*
G75*
G02*
X197649984Y-44515520I0J-200000D01*
G01*
X197649984Y-46215520D01*
G75*
G02*
X197449984Y-46415520I-200000J0D01*
G01*
X195749984Y-46415520D01*
G75*
G02*
X195549984Y-46215520I0J200000D01*
G01*
X195549984Y-44515520D01*
G75*
G02*
X195749984Y-44315520I200000J0D01*
G01*
G37*
X199139984Y-45365520D03*
X201679984Y-45365520D03*
X201679984Y-27585520D03*
X199139984Y-27585520D03*
G36*
G01*
X195749984Y-26535520D02*
X197449984Y-26535520D01*
G75*
G02*
X197649984Y-26735520I0J-200000D01*
G01*
X197649984Y-28435520D01*
G75*
G02*
X197449984Y-28635520I-200000J0D01*
G01*
X195749984Y-28635520D01*
G75*
G02*
X195549984Y-28435520I0J200000D01*
G01*
X195549984Y-26735520D01*
G75*
G02*
X195749984Y-26535520I200000J0D01*
G01*
G37*
X194059984Y-27585520D03*
X191519984Y-27585520D03*
X188979984Y-27585520D03*
X186439984Y-27585520D03*
G36*
G01*
X183049984Y-26535520D02*
X184749984Y-26535520D01*
G75*
G02*
X184949984Y-26735520I0J-200000D01*
G01*
X184949984Y-28435520D01*
G75*
G02*
X184749984Y-28635520I-200000J0D01*
G01*
X183049984Y-28635520D01*
G75*
G02*
X182849984Y-28435520I0J200000D01*
G01*
X182849984Y-26735520D01*
G75*
G02*
X183049984Y-26535520I200000J0D01*
G01*
G37*
X181359984Y-27585520D03*
X178819984Y-27585520D03*
X176279984Y-27585520D03*
X173739984Y-27585520D03*
G36*
G01*
X170349984Y-26535520D02*
X172049984Y-26535520D01*
G75*
G02*
X172249984Y-26735520I0J-200000D01*
G01*
X172249984Y-28435520D01*
G75*
G02*
X172049984Y-28635520I-200000J0D01*
G01*
X170349984Y-28635520D01*
G75*
G02*
X170149984Y-28435520I0J200000D01*
G01*
X170149984Y-26735520D01*
G75*
G02*
X170349984Y-26535520I200000J0D01*
G01*
G37*
X168659984Y-27585520D03*
X166119984Y-27585520D03*
X163579984Y-27585520D03*
X161039984Y-27585520D03*
G36*
G01*
X157649984Y-26535520D02*
X159349984Y-26535520D01*
G75*
G02*
X159549984Y-26735520I0J-200000D01*
G01*
X159549984Y-28435520D01*
G75*
G02*
X159349984Y-28635520I-200000J0D01*
G01*
X157649984Y-28635520D01*
G75*
G02*
X157449984Y-28435520I0J200000D01*
G01*
X157449984Y-26735520D01*
G75*
G02*
X157649984Y-26535520I200000J0D01*
G01*
G37*
X155959984Y-27585520D03*
X153419984Y-27585520D03*
D19*
X40600000Y-67600000D03*
D20*
X150800000Y-69550000D03*
X213100000Y-107750000D03*
X282650000Y-50450000D03*
D19*
X49050000Y-51800000D03*
X46450000Y-51750000D03*
X49050000Y-49100000D03*
X46450000Y-49100000D03*
X47800000Y-52350000D03*
X49700000Y-50450000D03*
X45900000Y-50450000D03*
X47800000Y-48550000D03*
D21*
X47800000Y-50450000D03*
D10*
X72820000Y-24460000D03*
X72820000Y-27000000D03*
X75360000Y-24460000D03*
X75360000Y-27000000D03*
X77900000Y-24460000D03*
G36*
G01*
X78750000Y-28050000D02*
X77050000Y-28050000D01*
G75*
G02*
X76850000Y-27850000I0J200000D01*
G01*
X76850000Y-26150000D01*
G75*
G02*
X77050000Y-25950000I200000J0D01*
G01*
X78750000Y-25950000D01*
G75*
G02*
X78950000Y-26150000I0J-200000D01*
G01*
X78950000Y-27850000D01*
G75*
G02*
X78750000Y-28050000I-200000J0D01*
G01*
G37*
D22*
X127950000Y-109825520D03*
X211965000Y-111775520D03*
X270850000Y-114070000D03*
X101149984Y-109825520D03*
X190499984Y-109825520D03*
X163699984Y-109825520D03*
X287565000Y-106675520D03*
X56549984Y-109825520D03*
D23*
X117500000Y-26800000D03*
X212750000Y-26800000D03*
X106450000Y-112400000D03*
D22*
X305649984Y-41575520D03*
X305649984Y-50600000D03*
X305649984Y-67575520D03*
X305600000Y-84600000D03*
X305600000Y-106400000D03*
X305649984Y-45500000D03*
X305649984Y-55700000D03*
X305650000Y-73275520D03*
X305600000Y-89700000D03*
X305600000Y-112500000D03*
M02*
