M48
; DRILL file {KiCad (5.1.10-1-10_14)} date Monday, December 13, 2021 at 09:26:29 PM
; FORMAT={-:-/ absolute / inch / decimal}
; #@! TF.CreationDate,2021-12-13T21:26:29+09:00
; #@! TF.GenerationSoftware,Kicad,Pcbnew,(5.1.10-1-10_14)
FMAT,2
INCH
T1C0.0157
T2C0.0197
T3C0.0236
T4C0.0276
T5C0.0394
T6C0.0402
T7C0.0984
T8C0.0472
T9C0.0669
T10C0.0866
T11C0.0945
T12C0.1181
T13C0.1339
T14C0.1350
%
G90
G05
T1
X0.9685Y-0.9665
X0.9685Y-1.6358
X0.9685Y-2.4724
X0.9685Y-3.0138
X0.9685Y-3.2106
X0.9685Y-3.9783
X0.9685Y-4.5728
X1.0986Y-1.1782
X1.1049Y-3.8538
X1.1289Y-1.627
X1.2033Y-0.9675
X1.234Y-1.7518
X1.2565Y-3.0817
X1.2978Y-3.1132
X1.3228Y-3.3287
X1.3228Y-3.4862
X1.3388Y-2.388
X1.3624Y-1.777
X1.412Y-2.503
X1.4429Y-1.686
X1.4514Y-2.5423
X1.4882Y-1.0567
X1.4882Y-1.1098
X1.4941Y-1.9921
X1.4941Y-2.4567
X1.4986Y-2.5463
X1.5Y-4.3642
X1.5217Y-1.0567
X1.5217Y-1.1098
X1.5217Y-2.4173
X1.5222Y-2.7038
X1.5234Y-2.316
X1.537Y-2.5975
X1.5482Y-2.4566
X1.5482Y-1.816
X1.5537Y-1.2628
X1.5537Y-3.9715
X1.5551Y-1.0567
X1.5551Y-1.1098
X1.5591Y-2.8563
X1.563Y-2.9843
X1.563Y-3.1122
X1.5886Y-1.0567
X1.5886Y-1.1098
X1.6075Y-4.4941
X1.622Y-1.0567
X1.622Y-1.1098
X1.6378Y-1.6752
X1.6378Y-3.3287
X1.6511Y-2.6002
X1.6516Y-2.3307
X1.6516Y-2.3917
X1.6555Y-1.0567
X1.6555Y-1.1098
X1.6575Y-4.5354
X1.6593Y-1.3762
X1.6632Y-2.7975
X1.6716Y-0.9665
X1.689Y-1.0567
X1.689Y-1.1098
X1.6922Y-2.6525
X1.7053Y-3.003
X1.708Y-3.6545
X1.7165Y-2.935
X1.7215Y-2.6953
X1.7224Y-1.0567
X1.7224Y-1.1098
X1.7255Y-2.2885
X1.7382Y-1.2707
X1.7575Y-2.2681
X1.7585Y-2.7116
X1.7742Y-1.8514
X1.7795Y-2.1161
X1.7848Y-2.7866
X1.7953Y-1.7146
X1.8096Y-2.7589
X1.8313Y-2.2647
X1.8445Y-2.6998
X1.853Y-2.1132
X1.874Y-1.5177
X1.8777Y-2.7006
X1.8986Y-2.6675
X1.9134Y-1.7343
X1.9134Y-2.8266
X1.9346Y-2.6584
X1.9411Y-2.7849
X1.9498Y-2.3003
X1.9528Y-1.5571
X1.9596Y-2.6126
X1.9843Y-2.3189
X1.9843Y-2.3579
X1.9843Y-3.3287
X1.9844Y-2.3937
X1.9844Y-2.6612
X2.0085Y-1.9282
X2.0262Y-3.627
X2.0315Y-1.3602
X2.0341Y-1.9498
X2.0596Y-1.6467
X2.0596Y-4.3238
X2.0616Y-1.0738
X2.0677Y-1.728
X2.0775Y-3.0934
X2.0937Y-1.7528
X2.1128Y-1.3297
X2.1163Y-3.1688
X2.1167Y-3.0935
X2.1189Y-1.7823
X2.1516Y-3.627
X2.1693Y-3.0531
X2.1709Y-2.8425
X2.2014Y-1.9538
X2.2467Y-3.7589
X2.2677Y-1.6358
X2.3136Y-1.877
X2.3465Y-3.25
X2.3465Y-4.5728
X2.3636Y-2.8561
X2.3748Y-0.9665
X2.3748Y-1.6358
X2.3748Y-3.811
X2.3963Y-1.1171
X2.3963Y-1.3043
X2.4094Y-2.7539
X2.4112Y-2.9853
X2.5039Y-3.0728
X2.5433Y-1.3996
X2.5591Y-2.8996
X2.5827Y-1.9114
X2.6024Y-3.1545
X2.6614Y-2.7579
X2.7263Y-2.9744
X2.7402Y-1.3996
X2.7627Y-3.6545
X2.7795Y-3.25
X2.8215Y-2.314
X2.8608Y-1.877
X2.889Y-1.728
X2.8976Y-3.25
X2.9016Y-2.4252
X2.9016Y-2.626
X2.915Y-1.7528
X2.9406Y-1.7823
X3.1143Y-2.316
X3.1143Y-2.9853
X3.1339Y-1.9114
X3.1605Y-2.5013
X3.2126Y-1.3996
X3.252Y-1.9114
X3.2537Y-0.9665
X3.4077Y-2.5065
X3.4294Y-3.811
X3.4488Y-1.3996
X3.4659Y-1.6467
X3.4659Y-3.6545
X3.4882Y-3.25
X3.6063Y-3.25
X3.7244Y-4.5728
X3.781Y-1.6358
X3.781Y-2.4724
X3.8174Y-4.3238
X3.8425Y-1.9114
X3.9213Y-1.3996
X3.9606Y-1.9114
X4.1326Y-2.9744
X4.1326Y-3.811
X4.1575Y-1.3996
X4.1575Y-3.25
X4.3083Y-2.3051
X4.315Y-3.25
X4.4841Y-0.9665
X4.4841Y-3.811
X4.5118Y-1.9114
X4.5205Y-2.316
X4.5205Y-2.9853
X4.6299Y-1.3996
X4.6693Y-1.9114
X4.8661Y-1.3996
X4.8661Y-3.25
X4.8721Y-1.6467
X4.8721Y-3.6545
X4.8721Y-4.3238
X5.0115Y-3.811
X5.0236Y-3.25
X5.1417Y-4.5728
X5.1873Y-1.6358
X5.1873Y-2.4724
X5.2205Y-1.9114
X5.2992Y-1.3996
X5.3098Y-2.3732
X5.3451Y-2.3731
X5.3569Y-1.0896
X5.4002Y-1.0896
X5.4173Y-1.9114
X5.5388Y-2.9744
X5.5388Y-3.811
X5.5748Y-1.3996
X5.5748Y-3.25
X5.5754Y-1.1183
X5.7323Y-3.25
X5.8904Y-0.9665
X5.8904Y-3.811
X5.9268Y-2.9853
X5.9855Y-1.6928
X6.0321Y-1.6605
X6.0472Y-1.3996
X6.1837Y-2.314
X6.2703Y-1.6368
X6.2784Y-4.3238
X6.2784Y-3.6545
X6.2835Y-3.25
X6.2939Y-1.3297
X6.4177Y-3.811
X6.4317Y-1.5148
X6.4409Y-3.25
X6.5591Y-4.5728
X6.5935Y-1.6358
X6.5935Y-2.4724
X6.7565Y-1.9538
X6.7585Y-1.9931
X6.7693Y-2.9744
X6.7693Y-3.811
X6.8911Y-3.1545
X6.9238Y-3.1988
X6.9451Y-0.9665
X6.9921Y-3.25
X7.0626Y-1.6919
X7.1201Y-1.7097
X7.1496Y-3.25
X7.2575Y-3.3012
X7.2725Y-3.3398
X7.333Y-2.316
X7.333Y-2.9853
X7.4671Y-3.7156
X7.6846Y-1.6467
X7.7008Y-3.25
X7.824Y-3.811
X7.8976Y-3.25
X7.8976Y-4.4705
X7.9593Y-4.3337
X7.9764Y-4.5728
X7.9868Y-4.5364
X7.9997Y-0.9665
X7.9997Y-1.6358
X7.9997Y-2.4724
X8.0362Y-2.316
X8.0362Y-2.9853
X8.1755Y-2.9744
X8.212Y-4.3238
X8.3513Y-3.811
X8.3701Y-4.4705
X8.3877Y-1.6467
X8.3877Y-3.6545
X8.4094Y-3.25
X8.5276Y-3.25
X8.7638Y-1.9114
X8.8819Y-1.9114
X8.8819Y-4.3917
X8.8819Y-4.5728
X9.0544Y-3.811
X9.0787Y-3.25
X9.1969Y-4.5098
X9.2362Y-3.25
X9.406Y-0.9665
X9.406Y-1.6358
X9.406Y-2.4724
X9.406Y-2.9744
X9.5661Y-3.3731
X9.5738Y-3.4321
X9.5827Y-3.995
X9.6182Y-2.316
X9.6182Y-2.9853
X9.6299Y-1.9114
X9.748Y-1.9114
X9.7633Y-3.3731
X9.7633Y-4.0423
X9.794Y-1.6467
X9.8338Y-4.0423
X9.9646Y-4.372
X10.1091Y-3.811
X10.4953Y-3.2313
X10.4961Y-1.9114
X10.4971Y-2.9853
X10.4971Y-3.6545
X10.5228Y-3.25
X10.6142Y-4.5728
X10.6535Y-1.9114
X10.6535Y-3.25
X10.8122Y-0.9665
X10.8122Y-1.6358
X10.8122Y-2.4724
X10.8122Y-2.9744
X11.2002Y-1.6467
X11.2047Y-3.25
X11.3622Y-4.5728
X11.3666Y-1.3043
X11.3677Y-3.872
X11.5154Y-3.811
X11.8726Y-3.875
X11.9034Y-2.316
X11.9034Y-2.8423
X11.9034Y-3.003
X11.9034Y-3.6545
X11.9034Y-4.3238
X11.9041Y-1.6447
X11.9337Y-1.1979
X12.0315Y-4.5728
X12.0427Y-0.9665
X12.0427Y-1.4685
X12.0427Y-2.3051
X12.0427Y-2.9744
X12.0427Y-3.6437
X12.0427Y-3.9783
X12.0433Y-3.2067
T2
X1.5984Y-2.6614
X1.8071Y-1.9862
X1.8287Y-1.9331
X1.8287Y-2.0374
X1.8819Y-1.9114
X1.8819Y-2.061
X1.9311Y-1.9331
X1.9311Y-2.0394
X1.9567Y-1.9862
T4
X2.2264Y-4.3238
X3.9823Y-4.3238
X5.0374Y-4.3238
X6.4449Y-4.3238
X7.5Y-4.3238
X8.3451Y-4.4006
X10.6634Y-4.4909
X11.3215Y-4.1998
X12.0315Y-3.3307
X12.0315Y-3.5315
X12.0315Y-4.189
X12.0315Y-4.4291
X12.0335Y-1.6368
X12.0335Y-1.7913
X12.0335Y-1.9921
X12.0335Y-2.1929
X12.0335Y-2.6605
X12.0335Y-2.8849
T5
X2.8669Y-0.963
X2.8669Y-1.063
X2.9606Y-2.4787
X2.9606Y-2.5787
X2.9669Y-0.963
X2.9669Y-1.063
X3.0669Y-0.963
X3.0669Y-1.063
X7.0925Y-0.9715
X7.1925Y-0.9715
X7.2925Y-0.9715
X7.3925Y-0.9715
T6
X6.0402Y-1.086
X6.0402Y-1.786
X6.1402Y-1.086
X6.1402Y-1.786
X6.2402Y-1.086
X6.2402Y-1.786
X6.3402Y-1.086
X6.3402Y-1.786
X6.4402Y-1.086
X6.4402Y-1.786
X6.5402Y-1.086
X6.5402Y-1.786
X6.6402Y-1.086
X6.6402Y-1.786
X6.7402Y-1.086
X6.7402Y-1.786
X6.8402Y-1.086
X6.8402Y-1.786
X6.9402Y-1.086
X6.9402Y-1.786
X7.0402Y-1.086
X7.0402Y-1.786
X7.1402Y-1.086
X7.1402Y-1.786
X7.2402Y-1.086
X7.2402Y-1.786
X7.3402Y-1.086
X7.3402Y-1.786
X7.4402Y-1.086
X7.4402Y-1.786
X7.5402Y-1.086
X7.5402Y-1.786
X7.6402Y-1.086
X7.6402Y-1.786
X7.7402Y-1.086
X7.7402Y-1.786
X7.8402Y-1.086
X7.8402Y-1.786
X7.9402Y-1.086
X7.9402Y-1.786
T7
X1.8819Y-1.9862
T8
X1.022Y-1.5778
X1.022Y-3.5857
X1.022Y-4.2549
X1.6088Y-1.9164
X1.6088Y-2.5857
X1.7252Y-3.5857
X1.7846Y-3.2549
X2.1362Y-1.2471
X2.1362Y-3.9242
X2.4877Y-1.9164
X2.4877Y-2.5857
X2.8393Y-1.2471
X2.8393Y-3.2549
X3.0151Y-3.9242
X3.1909Y-1.9164
X3.1909Y-2.5857
X3.5424Y-1.2471
X3.5424Y-3.2549
X3.894Y-1.9164
X3.894Y-2.5857
X3.894Y-3.9242
X4.2456Y-1.2471
X4.2456Y-3.2549
X4.5971Y-1.9164
X4.5971Y-2.5857
X4.9487Y-1.2471
X4.9487Y-3.2549
X4.9487Y-3.9242
X5.3002Y-1.9164
X5.3002Y-2.5857
X5.6518Y-1.2471
X5.6518Y-3.2549
X6.0034Y-1.9164
X6.0034Y-2.5857
X6.3549Y-1.2471
X6.3549Y-3.9242
X6.3549Y-3.2549
X6.7065Y-1.9164
X6.7065Y-2.5857
X7.0581Y-1.2471
X7.0581Y-3.2549
X7.4096Y-1.9164
X7.4096Y-2.5857
X7.4096Y-3.9242
X7.7612Y-1.2471
X7.7612Y-3.2549
X8.1127Y-1.9164
X8.1127Y-2.5857
X8.2885Y-3.9242
X8.4643Y-1.2471
X8.4643Y-3.2549
X8.8159Y-1.9164
X8.8159Y-2.5857
X9.1674Y-1.2471
X9.1674Y-3.2549
X9.1674Y-4.0916
X9.6948Y-1.9164
X9.6948Y-2.5857
X9.8706Y-3.4223
X9.8706Y-4.0916
X9.8706Y-1.2471
X10.5737Y-1.2471
X10.5737Y-1.9164
X10.5737Y-2.5857
X10.5737Y-3.2549
X10.5737Y-4.0916
X11.2768Y-1.9164
X11.2768Y-2.5857
X11.2768Y-3.2549
X11.2768Y-3.9242
X11.2768Y-1.2471
X11.9799Y-1.2471
X11.9799Y-1.9164
X11.9799Y-2.5857
X11.9799Y-3.2549
X11.9799Y-3.9242
T9
X1.011Y-1.4124
X1.011Y-3.4203
X1.011Y-4.0896
X1.1868Y-2.0817
X1.1868Y-2.751
X1.3626Y-3.4203
X1.4441Y-1.4124
X1.4441Y-3.4203
X1.4441Y-4.0896
X1.6199Y-2.0817
X1.6199Y-2.751
X1.7141Y-1.4124
X1.7141Y-3.4203
X1.7141Y-4.0896
X1.7956Y-3.4203
X2.0657Y-2.0817
X2.0657Y-2.751
X2.1472Y-1.4124
X2.1472Y-3.4203
X2.1472Y-4.0896
X2.4173Y-1.4124
X2.4173Y-3.4203
X2.4988Y-2.0817
X2.4988Y-2.751
X2.593Y-4.0896
X2.7688Y-2.0817
X2.7688Y-2.751
X2.8503Y-1.4124
X2.8503Y-3.4203
X3.0261Y-4.0896
X3.1204Y-1.4124
X3.1204Y-3.4203
X3.2019Y-2.0817
X3.2019Y-2.751
X3.4719Y-2.0817
X3.4719Y-2.751
X3.4719Y-4.0896
X3.5535Y-1.4124
X3.5535Y-3.4203
X3.8235Y-1.4124
X3.8235Y-3.4203
X3.905Y-2.0817
X3.905Y-2.751
X3.905Y-4.0896
X4.1751Y-2.0817
X4.1751Y-2.751
X4.2566Y-1.4124
X4.2566Y-3.4203
X4.5266Y-1.4124
X4.5266Y-3.4203
X4.5266Y-4.0896
X4.6081Y-2.0817
X4.6081Y-2.751
X4.8782Y-2.0817
X4.8782Y-2.751
X4.9597Y-1.4124
X4.9597Y-3.4203
X4.9597Y-4.0896
X5.2298Y-1.4124
X5.2298Y-3.4203
X5.3113Y-2.0817
X5.3113Y-2.751
X5.5813Y-2.0817
X5.5813Y-2.751
X5.6628Y-1.4124
X5.6628Y-3.4203
X5.9329Y-1.4124
X5.9329Y-4.0896
X5.9329Y-3.4203
X6.0144Y-2.0817
X6.0144Y-2.751
X6.2844Y-2.0817
X6.2844Y-2.751
X6.366Y-1.4124
X6.366Y-4.0896
X6.366Y-3.4203
X6.636Y-1.4124
X6.636Y-3.4203
X6.7175Y-2.0817
X6.7175Y-2.751
X6.9876Y-2.0817
X6.9876Y-2.751
X6.9876Y-4.0896
X7.0691Y-1.4124
X7.0691Y-3.4203
X7.3391Y-1.4124
X7.3391Y-3.4203
X7.4206Y-2.0817
X7.4206Y-2.751
X7.4206Y-4.0896
X7.6907Y-2.0817
X7.6907Y-2.751
X7.7722Y-1.4124
X7.7722Y-3.4203
X7.8665Y-4.0896
X8.0423Y-1.4124
X8.0423Y-3.4203
X8.1238Y-2.0817
X8.1238Y-2.751
X8.2996Y-4.0896
X8.3938Y-2.0817
X8.3938Y-2.751
X8.4753Y-1.4124
X8.4753Y-3.4203
X8.7454Y-1.4124
X8.7454Y-3.4203
X8.7454Y-4.2569
X8.8269Y-2.0817
X8.8269Y-2.751
X9.1785Y-1.4124
X9.1785Y-3.4203
X9.1785Y-4.2569
X9.2727Y-2.0817
X9.2727Y-2.751
X9.4485Y-3.5876
X9.4485Y-4.2569
X9.4485Y-1.4124
X9.7058Y-2.0817
X9.7058Y-2.751
X9.8816Y-3.5876
X9.8816Y-4.2569
X9.8816Y-1.4124
X10.1516Y-1.4124
X10.1516Y-2.0817
X10.1516Y-2.751
X10.1516Y-3.4203
X10.1516Y-4.2569
X10.5847Y-1.4124
X10.5847Y-2.0817
X10.5847Y-2.751
X10.5847Y-3.4203
X10.5847Y-4.2569
X10.8548Y-2.0817
X10.8548Y-2.751
X10.8548Y-3.4203
X10.8548Y-4.0896
X10.8548Y-1.4124
X11.2878Y-2.0817
X11.2878Y-2.751
X11.2878Y-3.4203
X11.2878Y-4.0896
X11.2878Y-1.4124
X11.5579Y-1.4124
X11.5579Y-2.0817
X11.5579Y-2.751
X11.5579Y-3.4203
X11.5579Y-4.0896
X11.991Y-1.4124
X11.991Y-2.0817
X11.991Y-2.751
X11.991Y-3.4203
X11.991Y-4.0896
T10
X4.1909Y-4.4252
X4.626Y-1.0551
X8.376Y-1.0551
T12
X1.2065Y-2.2294
X1.2065Y-2.8986
X1.2275Y-1.1782
X1.2275Y-3.186
X1.2275Y-3.8553
X1.3823Y-3.5679
X1.4033Y-2.316
X1.4033Y-2.9853
X1.4244Y-1.2648
X1.4244Y-3.2727
X1.4244Y-3.9419
X1.5791Y-3.6545
X1.7338Y-1.5601
X1.7338Y-4.2372
X1.9307Y-1.6467
X1.9307Y-3.186
X1.9307Y-4.3238
X2.0854Y-2.2294
X2.0854Y-2.8986
X2.1275Y-3.2727
X2.2822Y-2.316
X2.2822Y-2.9853
X2.4369Y-1.5601
X2.4369Y-3.5679
X2.6127Y-4.2372
X2.6338Y-1.6467
X2.6338Y-3.6545
X2.7885Y-2.2294
X2.7885Y-2.8986
X2.8096Y-4.3238
X2.9854Y-2.316
X2.9854Y-2.9853
X3.1401Y-1.5601
X3.1401Y-3.5679
X3.3369Y-1.6467
X3.3369Y-3.6545
X3.4916Y-2.2294
X3.4916Y-2.8986
X3.4916Y-4.2372
X3.6885Y-2.316
X3.6885Y-2.9853
X3.6885Y-4.3238
X3.8432Y-1.5601
X3.8432Y-3.5679
X4.04Y-1.6467
X4.04Y-3.6545
X4.1948Y-2.2294
X4.1948Y-2.8986
X4.3916Y-2.316
X4.3916Y-2.9853
X4.5463Y-1.5601
X4.5463Y-3.5679
X4.5463Y-4.2372
X4.7432Y-1.6467
X4.7432Y-3.6545
X4.7432Y-4.3238
X4.8979Y-2.2294
X4.8979Y-2.8986
X5.0947Y-2.316
X5.0947Y-2.9853
X5.2494Y-1.5601
X5.2494Y-3.5679
X5.4463Y-1.6467
X5.4463Y-3.6545
X5.601Y-2.2294
X5.601Y-2.8986
X5.7979Y-2.316
X5.7979Y-2.9853
X5.9526Y-1.5601
X5.9526Y-4.2372
X5.9526Y-3.5679
X6.1494Y-1.6467
X6.1494Y-4.3238
X6.1494Y-3.6545
X6.3041Y-2.2294
X6.3041Y-2.8986
X6.501Y-2.316
X6.501Y-2.9853
X6.6557Y-1.5601
X6.6557Y-3.5679
X6.8525Y-1.6467
X6.8525Y-3.6545
X7.0073Y-2.2294
X7.0073Y-2.8986
X7.0073Y-4.2372
X7.2041Y-2.316
X7.2041Y-2.9853
X7.2041Y-4.3238
X7.3588Y-1.5601
X7.3588Y-3.5679
X7.5557Y-1.6467
X7.5557Y-3.6545
X7.7104Y-2.2294
X7.7104Y-2.8986
X7.8862Y-4.2372
X7.9072Y-2.316
X7.9072Y-2.9853
X8.0619Y-1.5601
X8.0619Y-3.5679
X8.083Y-4.3238
X8.2588Y-1.6467
X8.2588Y-3.6545
X8.4135Y-2.2294
X8.4135Y-2.8986
X8.6104Y-2.316
X8.6104Y-2.9853
X8.7651Y-1.5601
X8.7651Y-3.5679
X8.7651Y-4.4045
X8.9619Y-1.6467
X8.9619Y-3.6545
X8.9619Y-4.4912
X9.2924Y-2.2294
X9.2924Y-2.8986
X9.4682Y-3.7353
X9.4682Y-4.4045
X9.4682Y-1.5601
X9.4893Y-2.316
X9.4893Y-2.9853
X9.665Y-3.8219
X9.665Y-4.4912
X9.665Y-1.6467
X10.1713Y-1.5601
X10.1713Y-2.2294
X10.1713Y-2.8986
X10.1713Y-3.5679
X10.1713Y-4.4045
X10.3682Y-1.6467
X10.3682Y-2.316
X10.3682Y-2.9853
X10.3682Y-3.6545
X10.3682Y-4.4912
X10.8744Y-2.2294
X10.8744Y-2.8986
X10.8744Y-3.5679
X10.8744Y-4.2372
X10.8744Y-1.5601
X11.0713Y-2.316
X11.0713Y-2.9853
X11.0713Y-3.6545
X11.0713Y-4.3238
X11.0713Y-1.6467
X11.5776Y-1.5601
X11.5776Y-2.2294
X11.5776Y-2.8986
X11.5776Y-3.5679
X11.5776Y-4.2372
X11.7744Y-1.6467
X11.7744Y-2.316
X11.7744Y-2.9853
X11.7744Y-3.6545
X11.7744Y-4.3238
T13
X1.2275Y-1.4124
X1.2275Y-3.4203
X1.2275Y-4.0896
X1.4033Y-2.0817
X1.4033Y-2.751
X1.5791Y-3.4203
X1.9307Y-1.4124
X1.9307Y-3.4203
X1.9307Y-4.0896
X2.2822Y-2.0817
X2.2822Y-2.751
X2.6338Y-1.4124
X2.6338Y-3.4203
X2.8096Y-4.0896
X2.9854Y-2.0817
X2.9854Y-2.751
X3.3369Y-1.4124
X3.3369Y-3.4203
X3.6885Y-2.0817
X3.6885Y-2.751
X3.6885Y-4.0896
X4.04Y-1.4124
X4.04Y-3.4203
X4.3916Y-2.0817
X4.3916Y-2.751
X4.7432Y-1.4124
X4.7432Y-3.4203
X4.7432Y-4.0896
X5.0947Y-2.0817
X5.0947Y-2.751
X5.4463Y-1.4124
X5.4463Y-3.4203
X5.7979Y-2.0817
X5.7979Y-2.751
X6.1494Y-1.4124
X6.1494Y-4.0896
X6.1494Y-3.4203
X6.501Y-2.0817
X6.501Y-2.751
X6.8525Y-1.4124
X6.8525Y-3.4203
X7.2041Y-2.0817
X7.2041Y-2.751
X7.2041Y-4.0896
X7.5557Y-1.4124
X7.5557Y-3.4203
X7.9072Y-2.0817
X7.9072Y-2.751
X8.083Y-4.0896
X8.2588Y-1.4124
X8.2588Y-3.4203
X8.6104Y-2.0817
X8.6104Y-2.751
X8.9619Y-1.4124
X8.9619Y-3.4203
X8.9619Y-4.2569
X9.4893Y-2.0817
X9.4893Y-2.751
X9.665Y-3.5876
X9.665Y-4.2569
X9.665Y-1.4124
X10.3682Y-1.4124
X10.3682Y-2.0817
X10.3682Y-2.751
X10.3682Y-3.4203
X10.3682Y-4.2569
X11.0713Y-2.0817
X11.0713Y-2.751
X11.0713Y-3.4203
X11.0713Y-4.0896
X11.0713Y-1.4124
X11.7744Y-1.4124
X11.7744Y-2.0817
X11.7744Y-2.751
X11.7744Y-3.4203
X11.7744Y-4.0896
T14
X1.2275Y-1.4124
X1.2275Y-3.4203
X1.2275Y-4.0896
X1.9307Y-1.4124
X1.9307Y-3.4203
X1.9307Y-4.0896
X2.2822Y-2.0817
X2.2822Y-2.751
X2.6338Y-1.4124
X2.6338Y-3.4203
X2.9854Y-2.0817
X2.9854Y-2.751
X3.3369Y-1.4124
X3.3369Y-3.4203
X3.6885Y-2.0817
X3.6885Y-2.751
X3.6885Y-4.0896
X4.04Y-1.4124
X4.04Y-3.4203
X4.3916Y-2.0817
X4.3916Y-2.751
X4.7432Y-1.4124
X4.7432Y-3.4203
X5.0947Y-2.0817
X5.0947Y-2.751
X5.4463Y-1.4124
X5.4463Y-3.4203
X5.7979Y-2.0817
X5.7979Y-2.751
X6.1494Y-1.4124
X6.1494Y-3.4203
X6.501Y-2.0817
X6.501Y-2.751
X6.8525Y-1.4124
X6.8525Y-3.4203
X7.2041Y-2.0817
X7.2041Y-2.751
X7.2041Y-4.0896
X7.5557Y-1.4124
X7.5557Y-3.4203
X7.9072Y-2.0817
X7.9072Y-2.751
X8.2588Y-1.4124
X8.2588Y-3.4203
X8.6104Y-2.0817
X8.6104Y-2.751
X8.9619Y-1.4124
X8.9619Y-3.4203
X8.9619Y-4.2569
X9.665Y-3.5876
X9.665Y-4.2569
X9.665Y-1.4124
X10.3682Y-1.4124
X10.3682Y-2.0817
X10.3682Y-2.751
X10.3682Y-3.4203
X10.3682Y-4.2569
X11.0713Y-2.0817
X11.0713Y-2.751
X11.0713Y-3.4203
X11.0713Y-4.0896
X11.0713Y-1.4124
X11.7744Y-1.4124
X11.7744Y-2.0817
X11.7744Y-2.751
X11.7744Y-3.4203
X11.7744Y-4.0896
T3
G00X1.435Y-0.9224
M15
G01X1.435Y-0.9539
M16
G05
G00X1.435Y-1.0417
M15
G01X1.435Y-1.1008
M16
G05
G00X1.7756Y-0.9224
M15
G01X1.7756Y-0.9539
M16
G05
G00X1.7756Y-1.0417
M15
G01X1.7756Y-1.1008
M16
G05
T11
G00X5.8819Y-2.7382
M15
G01X5.9921Y-2.7382
M16
G05
G00X8.3346Y-4.2421
M15
G01X8.4449Y-4.2421
M16
G05
G00X11.0728Y-1.9862
M15
G01X11.1831Y-1.9862
M16
G05
T0
M30
