G04 #@! TF.GenerationSoftware,KiCad,Pcbnew,(5.1.10-1-10_14)*
G04 #@! TF.CreationDate,2021-12-13T21:26:31+09:00*
G04 #@! TF.ProjectId,nora,6e6f7261-2e6b-4696-9361-645f70636258,DN:0020*
G04 #@! TF.SameCoordinates,Original*
G04 #@! TF.FileFunction,Other,Fab,Top*
%FSLAX46Y46*%
G04 Gerber Fmt 4.6, Leading zero omitted, Abs format (unit mm)*
G04 Created by KiCad (PCBNEW (5.1.10-1-10_14)) date 2021-12-13 21:26:31*
%MOMM*%
%LPD*%
G01*
G04 APERTURE LIST*
%ADD10C,0.150000*%
G04 APERTURE END LIST*
D10*
X199809433Y-37752900D02*
X199809433Y-36752900D01*
X200857052Y-37657662D02*
X200809433Y-37705281D01*
X200666576Y-37752900D01*
X200571338Y-37752900D01*
X200428481Y-37705281D01*
X200333243Y-37610043D01*
X200285624Y-37514805D01*
X200238005Y-37324329D01*
X200238005Y-37181472D01*
X200285624Y-36990996D01*
X200333243Y-36895758D01*
X200428481Y-36800520D01*
X200571338Y-36752900D01*
X200666576Y-36752900D01*
X200809433Y-36800520D01*
X200857052Y-36848139D01*
X201476100Y-36752900D02*
X201666576Y-36752900D01*
X201761814Y-36800520D01*
X201857052Y-36895758D01*
X201904672Y-37086234D01*
X201904672Y-37419567D01*
X201857052Y-37610043D01*
X201761814Y-37705281D01*
X201666576Y-37752900D01*
X201476100Y-37752900D01*
X201380862Y-37705281D01*
X201285624Y-37610043D01*
X201238005Y-37419567D01*
X201238005Y-37086234D01*
X201285624Y-36895758D01*
X201380862Y-36800520D01*
X201476100Y-36752900D01*
X202333243Y-37752900D02*
X202333243Y-36752900D01*
X202904672Y-37752900D01*
X202904672Y-36752900D01*
X203142767Y-37848139D02*
X203904672Y-37848139D01*
X204095148Y-37705281D02*
X204238005Y-37752900D01*
X204476100Y-37752900D01*
X204571338Y-37705281D01*
X204618957Y-37657662D01*
X204666576Y-37562424D01*
X204666576Y-37467186D01*
X204618957Y-37371948D01*
X204571338Y-37324329D01*
X204476100Y-37276710D01*
X204285624Y-37229091D01*
X204190386Y-37181472D01*
X204142767Y-37133853D01*
X204095148Y-37038615D01*
X204095148Y-36943377D01*
X204142767Y-36848139D01*
X204190386Y-36800520D01*
X204285624Y-36752900D01*
X204523719Y-36752900D01*
X204666576Y-36800520D01*
X205523719Y-37705281D02*
X205428481Y-37752900D01*
X205238005Y-37752900D01*
X205142767Y-37705281D01*
X205095148Y-37657662D01*
X205047529Y-37562424D01*
X205047529Y-37276710D01*
X205095148Y-37181472D01*
X205142767Y-37133853D01*
X205238005Y-37086234D01*
X205428481Y-37086234D01*
X205523719Y-37133853D01*
X205952291Y-37752900D02*
X205952291Y-37086234D01*
X205952291Y-37276710D02*
X205999910Y-37181472D01*
X206047529Y-37133853D01*
X206142767Y-37086234D01*
X206238005Y-37086234D01*
X206952291Y-37705281D02*
X206857052Y-37752900D01*
X206666576Y-37752900D01*
X206571338Y-37705281D01*
X206523719Y-37610043D01*
X206523719Y-37229091D01*
X206571338Y-37133853D01*
X206666576Y-37086234D01*
X206857052Y-37086234D01*
X206952291Y-37133853D01*
X206999910Y-37229091D01*
X206999910Y-37324329D01*
X206523719Y-37419567D01*
X207333243Y-37086234D02*
X207523719Y-37752900D01*
X207714195Y-37276710D01*
X207904672Y-37752900D01*
X208095148Y-37086234D01*
X208238005Y-37848139D02*
X208999910Y-37848139D01*
X209190386Y-37705281D02*
X209333243Y-37752900D01*
X209571338Y-37752900D01*
X209666576Y-37705281D01*
X209714195Y-37657662D01*
X209761814Y-37562424D01*
X209761814Y-37467186D01*
X209714195Y-37371948D01*
X209666576Y-37324329D01*
X209571338Y-37276710D01*
X209380862Y-37229091D01*
X209285624Y-37181472D01*
X209238005Y-37133853D01*
X209190386Y-37038615D01*
X209190386Y-36943377D01*
X209238005Y-36848139D01*
X209285624Y-36800520D01*
X209380862Y-36752900D01*
X209618957Y-36752900D01*
X209761814Y-36800520D01*
X210190386Y-37752900D02*
X210190386Y-37086234D01*
X210190386Y-37181472D02*
X210238005Y-37133853D01*
X210333243Y-37086234D01*
X210476100Y-37086234D01*
X210571338Y-37133853D01*
X210618957Y-37229091D01*
X210618957Y-37752900D01*
X210618957Y-37229091D02*
X210666576Y-37133853D01*
X210761814Y-37086234D01*
X210904672Y-37086234D01*
X210999910Y-37133853D01*
X211047529Y-37229091D01*
X211047529Y-37752900D01*
X211952291Y-37752900D02*
X211952291Y-37229091D01*
X211904672Y-37133853D01*
X211809433Y-37086234D01*
X211618957Y-37086234D01*
X211523719Y-37133853D01*
X211952291Y-37705281D02*
X211857052Y-37752900D01*
X211618957Y-37752900D01*
X211523719Y-37705281D01*
X211476100Y-37610043D01*
X211476100Y-37514805D01*
X211523719Y-37419567D01*
X211618957Y-37371948D01*
X211857052Y-37371948D01*
X211952291Y-37324329D01*
X212571338Y-37752900D02*
X212476100Y-37705281D01*
X212428481Y-37610043D01*
X212428481Y-36752900D01*
X213095148Y-37752900D02*
X212999910Y-37705281D01*
X212952291Y-37610043D01*
X212952291Y-36752900D01*
X110409433Y-37952900D02*
X110409433Y-36952900D01*
X111457052Y-37857662D02*
X111409433Y-37905281D01*
X111266576Y-37952900D01*
X111171338Y-37952900D01*
X111028481Y-37905281D01*
X110933243Y-37810043D01*
X110885624Y-37714805D01*
X110838005Y-37524329D01*
X110838005Y-37381472D01*
X110885624Y-37190996D01*
X110933243Y-37095758D01*
X111028481Y-37000520D01*
X111171338Y-36952900D01*
X111266576Y-36952900D01*
X111409433Y-37000520D01*
X111457052Y-37048139D01*
X112076100Y-36952900D02*
X112266576Y-36952900D01*
X112361814Y-37000520D01*
X112457052Y-37095758D01*
X112504672Y-37286234D01*
X112504672Y-37619567D01*
X112457052Y-37810043D01*
X112361814Y-37905281D01*
X112266576Y-37952900D01*
X112076100Y-37952900D01*
X111980862Y-37905281D01*
X111885624Y-37810043D01*
X111838005Y-37619567D01*
X111838005Y-37286234D01*
X111885624Y-37095758D01*
X111980862Y-37000520D01*
X112076100Y-36952900D01*
X112933243Y-37952900D02*
X112933243Y-36952900D01*
X113504672Y-37952900D01*
X113504672Y-36952900D01*
X113742767Y-38048139D02*
X114504672Y-38048139D01*
X114695148Y-37905281D02*
X114838005Y-37952900D01*
X115076100Y-37952900D01*
X115171338Y-37905281D01*
X115218957Y-37857662D01*
X115266576Y-37762424D01*
X115266576Y-37667186D01*
X115218957Y-37571948D01*
X115171338Y-37524329D01*
X115076100Y-37476710D01*
X114885624Y-37429091D01*
X114790386Y-37381472D01*
X114742767Y-37333853D01*
X114695148Y-37238615D01*
X114695148Y-37143377D01*
X114742767Y-37048139D01*
X114790386Y-37000520D01*
X114885624Y-36952900D01*
X115123719Y-36952900D01*
X115266576Y-37000520D01*
X116123719Y-37905281D02*
X116028481Y-37952900D01*
X115838005Y-37952900D01*
X115742767Y-37905281D01*
X115695148Y-37857662D01*
X115647529Y-37762424D01*
X115647529Y-37476710D01*
X115695148Y-37381472D01*
X115742767Y-37333853D01*
X115838005Y-37286234D01*
X116028481Y-37286234D01*
X116123719Y-37333853D01*
X116552291Y-37952900D02*
X116552291Y-37286234D01*
X116552291Y-37476710D02*
X116599910Y-37381472D01*
X116647529Y-37333853D01*
X116742767Y-37286234D01*
X116838005Y-37286234D01*
X117552291Y-37905281D02*
X117457052Y-37952900D01*
X117266576Y-37952900D01*
X117171338Y-37905281D01*
X117123719Y-37810043D01*
X117123719Y-37429091D01*
X117171338Y-37333853D01*
X117266576Y-37286234D01*
X117457052Y-37286234D01*
X117552291Y-37333853D01*
X117599910Y-37429091D01*
X117599910Y-37524329D01*
X117123719Y-37619567D01*
X117933243Y-37286234D02*
X118123719Y-37952900D01*
X118314195Y-37476710D01*
X118504672Y-37952900D01*
X118695148Y-37286234D01*
X118838005Y-38048139D02*
X119599910Y-38048139D01*
X119790386Y-37905281D02*
X119933243Y-37952900D01*
X120171338Y-37952900D01*
X120266576Y-37905281D01*
X120314195Y-37857662D01*
X120361814Y-37762424D01*
X120361814Y-37667186D01*
X120314195Y-37571948D01*
X120266576Y-37524329D01*
X120171338Y-37476710D01*
X119980862Y-37429091D01*
X119885624Y-37381472D01*
X119838005Y-37333853D01*
X119790386Y-37238615D01*
X119790386Y-37143377D01*
X119838005Y-37048139D01*
X119885624Y-37000520D01*
X119980862Y-36952900D01*
X120218957Y-36952900D01*
X120361814Y-37000520D01*
X120790386Y-37952900D02*
X120790386Y-37286234D01*
X120790386Y-37381472D02*
X120838005Y-37333853D01*
X120933243Y-37286234D01*
X121076100Y-37286234D01*
X121171338Y-37333853D01*
X121218957Y-37429091D01*
X121218957Y-37952900D01*
X121218957Y-37429091D02*
X121266576Y-37333853D01*
X121361814Y-37286234D01*
X121504672Y-37286234D01*
X121599910Y-37333853D01*
X121647529Y-37429091D01*
X121647529Y-37952900D01*
X122552291Y-37952900D02*
X122552291Y-37429091D01*
X122504672Y-37333853D01*
X122409433Y-37286234D01*
X122218957Y-37286234D01*
X122123719Y-37333853D01*
X122552291Y-37905281D02*
X122457052Y-37952900D01*
X122218957Y-37952900D01*
X122123719Y-37905281D01*
X122076100Y-37810043D01*
X122076100Y-37714805D01*
X122123719Y-37619567D01*
X122218957Y-37571948D01*
X122457052Y-37571948D01*
X122552291Y-37524329D01*
X123171338Y-37952900D02*
X123076100Y-37905281D01*
X123028481Y-37810043D01*
X123028481Y-36952900D01*
X123695148Y-37952900D02*
X123599910Y-37905281D01*
X123552291Y-37810043D01*
X123552291Y-36952900D01*
X201509433Y-108452900D02*
X201509433Y-107452900D01*
X202557052Y-108357662D02*
X202509433Y-108405281D01*
X202366576Y-108452900D01*
X202271338Y-108452900D01*
X202128481Y-108405281D01*
X202033243Y-108310043D01*
X201985624Y-108214805D01*
X201938005Y-108024329D01*
X201938005Y-107881472D01*
X201985624Y-107690996D01*
X202033243Y-107595758D01*
X202128481Y-107500520D01*
X202271338Y-107452900D01*
X202366576Y-107452900D01*
X202509433Y-107500520D01*
X202557052Y-107548139D01*
X203176100Y-107452900D02*
X203366576Y-107452900D01*
X203461814Y-107500520D01*
X203557052Y-107595758D01*
X203604672Y-107786234D01*
X203604672Y-108119567D01*
X203557052Y-108310043D01*
X203461814Y-108405281D01*
X203366576Y-108452900D01*
X203176100Y-108452900D01*
X203080862Y-108405281D01*
X202985624Y-108310043D01*
X202938005Y-108119567D01*
X202938005Y-107786234D01*
X202985624Y-107595758D01*
X203080862Y-107500520D01*
X203176100Y-107452900D01*
X204033243Y-108452900D02*
X204033243Y-107452900D01*
X204604672Y-108452900D01*
X204604672Y-107452900D01*
X204842767Y-108548139D02*
X205604672Y-108548139D01*
X205795148Y-108405281D02*
X205938005Y-108452900D01*
X206176100Y-108452900D01*
X206271338Y-108405281D01*
X206318957Y-108357662D01*
X206366576Y-108262424D01*
X206366576Y-108167186D01*
X206318957Y-108071948D01*
X206271338Y-108024329D01*
X206176100Y-107976710D01*
X205985624Y-107929091D01*
X205890386Y-107881472D01*
X205842767Y-107833853D01*
X205795148Y-107738615D01*
X205795148Y-107643377D01*
X205842767Y-107548139D01*
X205890386Y-107500520D01*
X205985624Y-107452900D01*
X206223719Y-107452900D01*
X206366576Y-107500520D01*
X207223719Y-108405281D02*
X207128481Y-108452900D01*
X206938005Y-108452900D01*
X206842767Y-108405281D01*
X206795148Y-108357662D01*
X206747529Y-108262424D01*
X206747529Y-107976710D01*
X206795148Y-107881472D01*
X206842767Y-107833853D01*
X206938005Y-107786234D01*
X207128481Y-107786234D01*
X207223719Y-107833853D01*
X207652291Y-108452900D02*
X207652291Y-107786234D01*
X207652291Y-107976710D02*
X207699910Y-107881472D01*
X207747529Y-107833853D01*
X207842767Y-107786234D01*
X207938005Y-107786234D01*
X208652291Y-108405281D02*
X208557052Y-108452900D01*
X208366576Y-108452900D01*
X208271338Y-108405281D01*
X208223719Y-108310043D01*
X208223719Y-107929091D01*
X208271338Y-107833853D01*
X208366576Y-107786234D01*
X208557052Y-107786234D01*
X208652291Y-107833853D01*
X208699910Y-107929091D01*
X208699910Y-108024329D01*
X208223719Y-108119567D01*
X209033243Y-107786234D02*
X209223719Y-108452900D01*
X209414195Y-107976710D01*
X209604672Y-108452900D01*
X209795148Y-107786234D01*
X209938005Y-108548139D02*
X210699910Y-108548139D01*
X210890386Y-108405281D02*
X211033243Y-108452900D01*
X211271338Y-108452900D01*
X211366576Y-108405281D01*
X211414195Y-108357662D01*
X211461814Y-108262424D01*
X211461814Y-108167186D01*
X211414195Y-108071948D01*
X211366576Y-108024329D01*
X211271338Y-107976710D01*
X211080862Y-107929091D01*
X210985624Y-107881472D01*
X210938005Y-107833853D01*
X210890386Y-107738615D01*
X210890386Y-107643377D01*
X210938005Y-107548139D01*
X210985624Y-107500520D01*
X211080862Y-107452900D01*
X211318957Y-107452900D01*
X211461814Y-107500520D01*
X211890386Y-108452900D02*
X211890386Y-107786234D01*
X211890386Y-107881472D02*
X211938005Y-107833853D01*
X212033243Y-107786234D01*
X212176100Y-107786234D01*
X212271338Y-107833853D01*
X212318957Y-107929091D01*
X212318957Y-108452900D01*
X212318957Y-107929091D02*
X212366576Y-107833853D01*
X212461814Y-107786234D01*
X212604672Y-107786234D01*
X212699910Y-107833853D01*
X212747529Y-107929091D01*
X212747529Y-108452900D01*
X213652291Y-108452900D02*
X213652291Y-107929091D01*
X213604672Y-107833853D01*
X213509433Y-107786234D01*
X213318957Y-107786234D01*
X213223719Y-107833853D01*
X213652291Y-108405281D02*
X213557052Y-108452900D01*
X213318957Y-108452900D01*
X213223719Y-108405281D01*
X213176100Y-108310043D01*
X213176100Y-108214805D01*
X213223719Y-108119567D01*
X213318957Y-108071948D01*
X213557052Y-108071948D01*
X213652291Y-108024329D01*
X214271338Y-108452900D02*
X214176100Y-108405281D01*
X214128481Y-108310043D01*
X214128481Y-107452900D01*
X214795148Y-108452900D02*
X214699910Y-108405281D01*
X214652291Y-108310043D01*
X214652291Y-107452900D01*
X289109433Y-88552900D02*
X289109433Y-87552900D01*
X290157052Y-88457662D02*
X290109433Y-88505281D01*
X289966576Y-88552900D01*
X289871338Y-88552900D01*
X289728481Y-88505281D01*
X289633243Y-88410043D01*
X289585624Y-88314805D01*
X289538005Y-88124329D01*
X289538005Y-87981472D01*
X289585624Y-87790996D01*
X289633243Y-87695758D01*
X289728481Y-87600520D01*
X289871338Y-87552900D01*
X289966576Y-87552900D01*
X290109433Y-87600520D01*
X290157052Y-87648139D01*
X290776100Y-87552900D02*
X290966576Y-87552900D01*
X291061814Y-87600520D01*
X291157052Y-87695758D01*
X291204672Y-87886234D01*
X291204672Y-88219567D01*
X291157052Y-88410043D01*
X291061814Y-88505281D01*
X290966576Y-88552900D01*
X290776100Y-88552900D01*
X290680862Y-88505281D01*
X290585624Y-88410043D01*
X290538005Y-88219567D01*
X290538005Y-87886234D01*
X290585624Y-87695758D01*
X290680862Y-87600520D01*
X290776100Y-87552900D01*
X291633243Y-88552900D02*
X291633243Y-87552900D01*
X292204672Y-88552900D01*
X292204672Y-87552900D01*
X292442767Y-88648139D02*
X293204672Y-88648139D01*
X293395148Y-88505281D02*
X293538005Y-88552900D01*
X293776100Y-88552900D01*
X293871338Y-88505281D01*
X293918957Y-88457662D01*
X293966576Y-88362424D01*
X293966576Y-88267186D01*
X293918957Y-88171948D01*
X293871338Y-88124329D01*
X293776100Y-88076710D01*
X293585624Y-88029091D01*
X293490386Y-87981472D01*
X293442767Y-87933853D01*
X293395148Y-87838615D01*
X293395148Y-87743377D01*
X293442767Y-87648139D01*
X293490386Y-87600520D01*
X293585624Y-87552900D01*
X293823719Y-87552900D01*
X293966576Y-87600520D01*
X294823719Y-88505281D02*
X294728481Y-88552900D01*
X294538005Y-88552900D01*
X294442767Y-88505281D01*
X294395148Y-88457662D01*
X294347529Y-88362424D01*
X294347529Y-88076710D01*
X294395148Y-87981472D01*
X294442767Y-87933853D01*
X294538005Y-87886234D01*
X294728481Y-87886234D01*
X294823719Y-87933853D01*
X295252291Y-88552900D02*
X295252291Y-87886234D01*
X295252291Y-88076710D02*
X295299910Y-87981472D01*
X295347529Y-87933853D01*
X295442767Y-87886234D01*
X295538005Y-87886234D01*
X296252291Y-88505281D02*
X296157052Y-88552900D01*
X295966576Y-88552900D01*
X295871338Y-88505281D01*
X295823719Y-88410043D01*
X295823719Y-88029091D01*
X295871338Y-87933853D01*
X295966576Y-87886234D01*
X296157052Y-87886234D01*
X296252291Y-87933853D01*
X296299910Y-88029091D01*
X296299910Y-88124329D01*
X295823719Y-88219567D01*
X296633243Y-87886234D02*
X296823719Y-88552900D01*
X297014195Y-88076710D01*
X297204672Y-88552900D01*
X297395148Y-87886234D01*
X297538005Y-88648139D02*
X298299910Y-88648139D01*
X298490386Y-88505281D02*
X298633243Y-88552900D01*
X298871338Y-88552900D01*
X298966576Y-88505281D01*
X299014195Y-88457662D01*
X299061814Y-88362424D01*
X299061814Y-88267186D01*
X299014195Y-88171948D01*
X298966576Y-88124329D01*
X298871338Y-88076710D01*
X298680862Y-88029091D01*
X298585624Y-87981472D01*
X298538005Y-87933853D01*
X298490386Y-87838615D01*
X298490386Y-87743377D01*
X298538005Y-87648139D01*
X298585624Y-87600520D01*
X298680862Y-87552900D01*
X298918957Y-87552900D01*
X299061814Y-87600520D01*
X299490386Y-88552900D02*
X299490386Y-87886234D01*
X299490386Y-87981472D02*
X299538005Y-87933853D01*
X299633243Y-87886234D01*
X299776100Y-87886234D01*
X299871338Y-87933853D01*
X299918957Y-88029091D01*
X299918957Y-88552900D01*
X299918957Y-88029091D02*
X299966576Y-87933853D01*
X300061814Y-87886234D01*
X300204672Y-87886234D01*
X300299910Y-87933853D01*
X300347529Y-88029091D01*
X300347529Y-88552900D01*
X301252291Y-88552900D02*
X301252291Y-88029091D01*
X301204672Y-87933853D01*
X301109433Y-87886234D01*
X300918957Y-87886234D01*
X300823719Y-87933853D01*
X301252291Y-88505281D02*
X301157052Y-88552900D01*
X300918957Y-88552900D01*
X300823719Y-88505281D01*
X300776100Y-88410043D01*
X300776100Y-88314805D01*
X300823719Y-88219567D01*
X300918957Y-88171948D01*
X301157052Y-88171948D01*
X301252291Y-88124329D01*
X301871338Y-88552900D02*
X301776100Y-88505281D01*
X301728481Y-88410043D01*
X301728481Y-87552900D01*
X302395148Y-88552900D02*
X302299910Y-88505281D01*
X302252291Y-88410043D01*
X302252291Y-87552900D01*
X289109433Y-71652900D02*
X289109433Y-70652900D01*
X290157052Y-71557662D02*
X290109433Y-71605281D01*
X289966576Y-71652900D01*
X289871338Y-71652900D01*
X289728481Y-71605281D01*
X289633243Y-71510043D01*
X289585624Y-71414805D01*
X289538005Y-71224329D01*
X289538005Y-71081472D01*
X289585624Y-70890996D01*
X289633243Y-70795758D01*
X289728481Y-70700520D01*
X289871338Y-70652900D01*
X289966576Y-70652900D01*
X290109433Y-70700520D01*
X290157052Y-70748139D01*
X290776100Y-70652900D02*
X290966576Y-70652900D01*
X291061814Y-70700520D01*
X291157052Y-70795758D01*
X291204672Y-70986234D01*
X291204672Y-71319567D01*
X291157052Y-71510043D01*
X291061814Y-71605281D01*
X290966576Y-71652900D01*
X290776100Y-71652900D01*
X290680862Y-71605281D01*
X290585624Y-71510043D01*
X290538005Y-71319567D01*
X290538005Y-70986234D01*
X290585624Y-70795758D01*
X290680862Y-70700520D01*
X290776100Y-70652900D01*
X291633243Y-71652900D02*
X291633243Y-70652900D01*
X292204672Y-71652900D01*
X292204672Y-70652900D01*
X292442767Y-71748139D02*
X293204672Y-71748139D01*
X293395148Y-71605281D02*
X293538005Y-71652900D01*
X293776100Y-71652900D01*
X293871338Y-71605281D01*
X293918957Y-71557662D01*
X293966576Y-71462424D01*
X293966576Y-71367186D01*
X293918957Y-71271948D01*
X293871338Y-71224329D01*
X293776100Y-71176710D01*
X293585624Y-71129091D01*
X293490386Y-71081472D01*
X293442767Y-71033853D01*
X293395148Y-70938615D01*
X293395148Y-70843377D01*
X293442767Y-70748139D01*
X293490386Y-70700520D01*
X293585624Y-70652900D01*
X293823719Y-70652900D01*
X293966576Y-70700520D01*
X294823719Y-71605281D02*
X294728481Y-71652900D01*
X294538005Y-71652900D01*
X294442767Y-71605281D01*
X294395148Y-71557662D01*
X294347529Y-71462424D01*
X294347529Y-71176710D01*
X294395148Y-71081472D01*
X294442767Y-71033853D01*
X294538005Y-70986234D01*
X294728481Y-70986234D01*
X294823719Y-71033853D01*
X295252291Y-71652900D02*
X295252291Y-70986234D01*
X295252291Y-71176710D02*
X295299910Y-71081472D01*
X295347529Y-71033853D01*
X295442767Y-70986234D01*
X295538005Y-70986234D01*
X296252291Y-71605281D02*
X296157052Y-71652900D01*
X295966576Y-71652900D01*
X295871338Y-71605281D01*
X295823719Y-71510043D01*
X295823719Y-71129091D01*
X295871338Y-71033853D01*
X295966576Y-70986234D01*
X296157052Y-70986234D01*
X296252291Y-71033853D01*
X296299910Y-71129091D01*
X296299910Y-71224329D01*
X295823719Y-71319567D01*
X296633243Y-70986234D02*
X296823719Y-71652900D01*
X297014195Y-71176710D01*
X297204672Y-71652900D01*
X297395148Y-70986234D01*
X297538005Y-71748139D02*
X298299910Y-71748139D01*
X298490386Y-71605281D02*
X298633243Y-71652900D01*
X298871338Y-71652900D01*
X298966576Y-71605281D01*
X299014195Y-71557662D01*
X299061814Y-71462424D01*
X299061814Y-71367186D01*
X299014195Y-71271948D01*
X298966576Y-71224329D01*
X298871338Y-71176710D01*
X298680862Y-71129091D01*
X298585624Y-71081472D01*
X298538005Y-71033853D01*
X298490386Y-70938615D01*
X298490386Y-70843377D01*
X298538005Y-70748139D01*
X298585624Y-70700520D01*
X298680862Y-70652900D01*
X298918957Y-70652900D01*
X299061814Y-70700520D01*
X299490386Y-71652900D02*
X299490386Y-70986234D01*
X299490386Y-71081472D02*
X299538005Y-71033853D01*
X299633243Y-70986234D01*
X299776100Y-70986234D01*
X299871338Y-71033853D01*
X299918957Y-71129091D01*
X299918957Y-71652900D01*
X299918957Y-71129091D02*
X299966576Y-71033853D01*
X300061814Y-70986234D01*
X300204672Y-70986234D01*
X300299910Y-71033853D01*
X300347529Y-71129091D01*
X300347529Y-71652900D01*
X301252291Y-71652900D02*
X301252291Y-71129091D01*
X301204672Y-71033853D01*
X301109433Y-70986234D01*
X300918957Y-70986234D01*
X300823719Y-71033853D01*
X301252291Y-71605281D02*
X301157052Y-71652900D01*
X300918957Y-71652900D01*
X300823719Y-71605281D01*
X300776100Y-71510043D01*
X300776100Y-71414805D01*
X300823719Y-71319567D01*
X300918957Y-71271948D01*
X301157052Y-71271948D01*
X301252291Y-71224329D01*
X301871338Y-71652900D02*
X301776100Y-71605281D01*
X301728481Y-71510043D01*
X301728481Y-70652900D01*
X302395148Y-71652900D02*
X302299910Y-71605281D01*
X302252291Y-71510043D01*
X302252291Y-70652900D01*
X271084433Y-53552900D02*
X271084433Y-52552900D01*
X272132052Y-53457662D02*
X272084433Y-53505281D01*
X271941576Y-53552900D01*
X271846338Y-53552900D01*
X271703481Y-53505281D01*
X271608243Y-53410043D01*
X271560624Y-53314805D01*
X271513005Y-53124329D01*
X271513005Y-52981472D01*
X271560624Y-52790996D01*
X271608243Y-52695758D01*
X271703481Y-52600520D01*
X271846338Y-52552900D01*
X271941576Y-52552900D01*
X272084433Y-52600520D01*
X272132052Y-52648139D01*
X272751100Y-52552900D02*
X272941576Y-52552900D01*
X273036814Y-52600520D01*
X273132052Y-52695758D01*
X273179672Y-52886234D01*
X273179672Y-53219567D01*
X273132052Y-53410043D01*
X273036814Y-53505281D01*
X272941576Y-53552900D01*
X272751100Y-53552900D01*
X272655862Y-53505281D01*
X272560624Y-53410043D01*
X272513005Y-53219567D01*
X272513005Y-52886234D01*
X272560624Y-52695758D01*
X272655862Y-52600520D01*
X272751100Y-52552900D01*
X273608243Y-53552900D02*
X273608243Y-52552900D01*
X274179672Y-53552900D01*
X274179672Y-52552900D01*
X274417767Y-53648139D02*
X275179672Y-53648139D01*
X275370148Y-53505281D02*
X275513005Y-53552900D01*
X275751100Y-53552900D01*
X275846338Y-53505281D01*
X275893957Y-53457662D01*
X275941576Y-53362424D01*
X275941576Y-53267186D01*
X275893957Y-53171948D01*
X275846338Y-53124329D01*
X275751100Y-53076710D01*
X275560624Y-53029091D01*
X275465386Y-52981472D01*
X275417767Y-52933853D01*
X275370148Y-52838615D01*
X275370148Y-52743377D01*
X275417767Y-52648139D01*
X275465386Y-52600520D01*
X275560624Y-52552900D01*
X275798719Y-52552900D01*
X275941576Y-52600520D01*
X276798719Y-53505281D02*
X276703481Y-53552900D01*
X276513005Y-53552900D01*
X276417767Y-53505281D01*
X276370148Y-53457662D01*
X276322529Y-53362424D01*
X276322529Y-53076710D01*
X276370148Y-52981472D01*
X276417767Y-52933853D01*
X276513005Y-52886234D01*
X276703481Y-52886234D01*
X276798719Y-52933853D01*
X277227291Y-53552900D02*
X277227291Y-52886234D01*
X277227291Y-53076710D02*
X277274910Y-52981472D01*
X277322529Y-52933853D01*
X277417767Y-52886234D01*
X277513005Y-52886234D01*
X278227291Y-53505281D02*
X278132052Y-53552900D01*
X277941576Y-53552900D01*
X277846338Y-53505281D01*
X277798719Y-53410043D01*
X277798719Y-53029091D01*
X277846338Y-52933853D01*
X277941576Y-52886234D01*
X278132052Y-52886234D01*
X278227291Y-52933853D01*
X278274910Y-53029091D01*
X278274910Y-53124329D01*
X277798719Y-53219567D01*
X278608243Y-52886234D02*
X278798719Y-53552900D01*
X278989195Y-53076710D01*
X279179672Y-53552900D01*
X279370148Y-52886234D01*
X279513005Y-53648139D02*
X280274910Y-53648139D01*
X280465386Y-53505281D02*
X280608243Y-53552900D01*
X280846338Y-53552900D01*
X280941576Y-53505281D01*
X280989195Y-53457662D01*
X281036814Y-53362424D01*
X281036814Y-53267186D01*
X280989195Y-53171948D01*
X280941576Y-53124329D01*
X280846338Y-53076710D01*
X280655862Y-53029091D01*
X280560624Y-52981472D01*
X280513005Y-52933853D01*
X280465386Y-52838615D01*
X280465386Y-52743377D01*
X280513005Y-52648139D01*
X280560624Y-52600520D01*
X280655862Y-52552900D01*
X280893957Y-52552900D01*
X281036814Y-52600520D01*
X281465386Y-53552900D02*
X281465386Y-52886234D01*
X281465386Y-52981472D02*
X281513005Y-52933853D01*
X281608243Y-52886234D01*
X281751100Y-52886234D01*
X281846338Y-52933853D01*
X281893957Y-53029091D01*
X281893957Y-53552900D01*
X281893957Y-53029091D02*
X281941576Y-52933853D01*
X282036814Y-52886234D01*
X282179672Y-52886234D01*
X282274910Y-52933853D01*
X282322529Y-53029091D01*
X282322529Y-53552900D01*
X283227291Y-53552900D02*
X283227291Y-53029091D01*
X283179672Y-52933853D01*
X283084433Y-52886234D01*
X282893957Y-52886234D01*
X282798719Y-52933853D01*
X283227291Y-53505281D02*
X283132052Y-53552900D01*
X282893957Y-53552900D01*
X282798719Y-53505281D01*
X282751100Y-53410043D01*
X282751100Y-53314805D01*
X282798719Y-53219567D01*
X282893957Y-53171948D01*
X283132052Y-53171948D01*
X283227291Y-53124329D01*
X283846338Y-53552900D02*
X283751100Y-53505281D01*
X283703481Y-53410043D01*
X283703481Y-52552900D01*
X284370148Y-53552900D02*
X284274910Y-53505281D01*
X284227291Y-53410043D01*
X284227291Y-52552900D01*
X137209433Y-71052900D02*
X137209433Y-70052900D01*
X138257052Y-70957662D02*
X138209433Y-71005281D01*
X138066576Y-71052900D01*
X137971338Y-71052900D01*
X137828481Y-71005281D01*
X137733243Y-70910043D01*
X137685624Y-70814805D01*
X137638005Y-70624329D01*
X137638005Y-70481472D01*
X137685624Y-70290996D01*
X137733243Y-70195758D01*
X137828481Y-70100520D01*
X137971338Y-70052900D01*
X138066576Y-70052900D01*
X138209433Y-70100520D01*
X138257052Y-70148139D01*
X138876100Y-70052900D02*
X139066576Y-70052900D01*
X139161814Y-70100520D01*
X139257052Y-70195758D01*
X139304672Y-70386234D01*
X139304672Y-70719567D01*
X139257052Y-70910043D01*
X139161814Y-71005281D01*
X139066576Y-71052900D01*
X138876100Y-71052900D01*
X138780862Y-71005281D01*
X138685624Y-70910043D01*
X138638005Y-70719567D01*
X138638005Y-70386234D01*
X138685624Y-70195758D01*
X138780862Y-70100520D01*
X138876100Y-70052900D01*
X139733243Y-71052900D02*
X139733243Y-70052900D01*
X140304672Y-71052900D01*
X140304672Y-70052900D01*
X140542767Y-71148139D02*
X141304672Y-71148139D01*
X141495148Y-71005281D02*
X141638005Y-71052900D01*
X141876100Y-71052900D01*
X141971338Y-71005281D01*
X142018957Y-70957662D01*
X142066576Y-70862424D01*
X142066576Y-70767186D01*
X142018957Y-70671948D01*
X141971338Y-70624329D01*
X141876100Y-70576710D01*
X141685624Y-70529091D01*
X141590386Y-70481472D01*
X141542767Y-70433853D01*
X141495148Y-70338615D01*
X141495148Y-70243377D01*
X141542767Y-70148139D01*
X141590386Y-70100520D01*
X141685624Y-70052900D01*
X141923719Y-70052900D01*
X142066576Y-70100520D01*
X142923719Y-71005281D02*
X142828481Y-71052900D01*
X142638005Y-71052900D01*
X142542767Y-71005281D01*
X142495148Y-70957662D01*
X142447529Y-70862424D01*
X142447529Y-70576710D01*
X142495148Y-70481472D01*
X142542767Y-70433853D01*
X142638005Y-70386234D01*
X142828481Y-70386234D01*
X142923719Y-70433853D01*
X143352291Y-71052900D02*
X143352291Y-70386234D01*
X143352291Y-70576710D02*
X143399910Y-70481472D01*
X143447529Y-70433853D01*
X143542767Y-70386234D01*
X143638005Y-70386234D01*
X144352291Y-71005281D02*
X144257052Y-71052900D01*
X144066576Y-71052900D01*
X143971338Y-71005281D01*
X143923719Y-70910043D01*
X143923719Y-70529091D01*
X143971338Y-70433853D01*
X144066576Y-70386234D01*
X144257052Y-70386234D01*
X144352291Y-70433853D01*
X144399910Y-70529091D01*
X144399910Y-70624329D01*
X143923719Y-70719567D01*
X144733243Y-70386234D02*
X144923719Y-71052900D01*
X145114195Y-70576710D01*
X145304672Y-71052900D01*
X145495148Y-70386234D01*
X145638005Y-71148139D02*
X146399910Y-71148139D01*
X146590386Y-71005281D02*
X146733243Y-71052900D01*
X146971338Y-71052900D01*
X147066576Y-71005281D01*
X147114195Y-70957662D01*
X147161814Y-70862424D01*
X147161814Y-70767186D01*
X147114195Y-70671948D01*
X147066576Y-70624329D01*
X146971338Y-70576710D01*
X146780862Y-70529091D01*
X146685624Y-70481472D01*
X146638005Y-70433853D01*
X146590386Y-70338615D01*
X146590386Y-70243377D01*
X146638005Y-70148139D01*
X146685624Y-70100520D01*
X146780862Y-70052900D01*
X147018957Y-70052900D01*
X147161814Y-70100520D01*
X147590386Y-71052900D02*
X147590386Y-70386234D01*
X147590386Y-70481472D02*
X147638005Y-70433853D01*
X147733243Y-70386234D01*
X147876100Y-70386234D01*
X147971338Y-70433853D01*
X148018957Y-70529091D01*
X148018957Y-71052900D01*
X148018957Y-70529091D02*
X148066576Y-70433853D01*
X148161814Y-70386234D01*
X148304672Y-70386234D01*
X148399910Y-70433853D01*
X148447529Y-70529091D01*
X148447529Y-71052900D01*
X149352291Y-71052900D02*
X149352291Y-70529091D01*
X149304672Y-70433853D01*
X149209433Y-70386234D01*
X149018957Y-70386234D01*
X148923719Y-70433853D01*
X149352291Y-71005281D02*
X149257052Y-71052900D01*
X149018957Y-71052900D01*
X148923719Y-71005281D01*
X148876100Y-70910043D01*
X148876100Y-70814805D01*
X148923719Y-70719567D01*
X149018957Y-70671948D01*
X149257052Y-70671948D01*
X149352291Y-70624329D01*
X149971338Y-71052900D02*
X149876100Y-71005281D01*
X149828481Y-70910043D01*
X149828481Y-70052900D01*
X150495148Y-71052900D02*
X150399910Y-71005281D01*
X150352291Y-70910043D01*
X150352291Y-70052900D01*
X21484433Y-88227900D02*
X21484433Y-87227900D01*
X22532052Y-88132662D02*
X22484433Y-88180281D01*
X22341576Y-88227900D01*
X22246338Y-88227900D01*
X22103481Y-88180281D01*
X22008243Y-88085043D01*
X21960624Y-87989805D01*
X21913005Y-87799329D01*
X21913005Y-87656472D01*
X21960624Y-87465996D01*
X22008243Y-87370758D01*
X22103481Y-87275520D01*
X22246338Y-87227900D01*
X22341576Y-87227900D01*
X22484433Y-87275520D01*
X22532052Y-87323139D01*
X23151100Y-87227900D02*
X23341576Y-87227900D01*
X23436814Y-87275520D01*
X23532052Y-87370758D01*
X23579672Y-87561234D01*
X23579672Y-87894567D01*
X23532052Y-88085043D01*
X23436814Y-88180281D01*
X23341576Y-88227900D01*
X23151100Y-88227900D01*
X23055862Y-88180281D01*
X22960624Y-88085043D01*
X22913005Y-87894567D01*
X22913005Y-87561234D01*
X22960624Y-87370758D01*
X23055862Y-87275520D01*
X23151100Y-87227900D01*
X24008243Y-88227900D02*
X24008243Y-87227900D01*
X24579672Y-88227900D01*
X24579672Y-87227900D01*
X24817767Y-88323139D02*
X25579672Y-88323139D01*
X25770148Y-88180281D02*
X25913005Y-88227900D01*
X26151100Y-88227900D01*
X26246338Y-88180281D01*
X26293957Y-88132662D01*
X26341576Y-88037424D01*
X26341576Y-87942186D01*
X26293957Y-87846948D01*
X26246338Y-87799329D01*
X26151100Y-87751710D01*
X25960624Y-87704091D01*
X25865386Y-87656472D01*
X25817767Y-87608853D01*
X25770148Y-87513615D01*
X25770148Y-87418377D01*
X25817767Y-87323139D01*
X25865386Y-87275520D01*
X25960624Y-87227900D01*
X26198719Y-87227900D01*
X26341576Y-87275520D01*
X27198719Y-88180281D02*
X27103481Y-88227900D01*
X26913005Y-88227900D01*
X26817767Y-88180281D01*
X26770148Y-88132662D01*
X26722529Y-88037424D01*
X26722529Y-87751710D01*
X26770148Y-87656472D01*
X26817767Y-87608853D01*
X26913005Y-87561234D01*
X27103481Y-87561234D01*
X27198719Y-87608853D01*
X27627291Y-88227900D02*
X27627291Y-87561234D01*
X27627291Y-87751710D02*
X27674910Y-87656472D01*
X27722529Y-87608853D01*
X27817767Y-87561234D01*
X27913005Y-87561234D01*
X28627291Y-88180281D02*
X28532052Y-88227900D01*
X28341576Y-88227900D01*
X28246338Y-88180281D01*
X28198719Y-88085043D01*
X28198719Y-87704091D01*
X28246338Y-87608853D01*
X28341576Y-87561234D01*
X28532052Y-87561234D01*
X28627291Y-87608853D01*
X28674910Y-87704091D01*
X28674910Y-87799329D01*
X28198719Y-87894567D01*
X29008243Y-87561234D02*
X29198719Y-88227900D01*
X29389195Y-87751710D01*
X29579672Y-88227900D01*
X29770148Y-87561234D01*
X29913005Y-88323139D02*
X30674910Y-88323139D01*
X30865386Y-88180281D02*
X31008243Y-88227900D01*
X31246338Y-88227900D01*
X31341576Y-88180281D01*
X31389195Y-88132662D01*
X31436814Y-88037424D01*
X31436814Y-87942186D01*
X31389195Y-87846948D01*
X31341576Y-87799329D01*
X31246338Y-87751710D01*
X31055862Y-87704091D01*
X30960624Y-87656472D01*
X30913005Y-87608853D01*
X30865386Y-87513615D01*
X30865386Y-87418377D01*
X30913005Y-87323139D01*
X30960624Y-87275520D01*
X31055862Y-87227900D01*
X31293957Y-87227900D01*
X31436814Y-87275520D01*
X31865386Y-88227900D02*
X31865386Y-87561234D01*
X31865386Y-87656472D02*
X31913005Y-87608853D01*
X32008243Y-87561234D01*
X32151100Y-87561234D01*
X32246338Y-87608853D01*
X32293957Y-87704091D01*
X32293957Y-88227900D01*
X32293957Y-87704091D02*
X32341576Y-87608853D01*
X32436814Y-87561234D01*
X32579672Y-87561234D01*
X32674910Y-87608853D01*
X32722529Y-87704091D01*
X32722529Y-88227900D01*
X33627291Y-88227900D02*
X33627291Y-87704091D01*
X33579672Y-87608853D01*
X33484433Y-87561234D01*
X33293957Y-87561234D01*
X33198719Y-87608853D01*
X33627291Y-88180281D02*
X33532052Y-88227900D01*
X33293957Y-88227900D01*
X33198719Y-88180281D01*
X33151100Y-88085043D01*
X33151100Y-87989805D01*
X33198719Y-87894567D01*
X33293957Y-87846948D01*
X33532052Y-87846948D01*
X33627291Y-87799329D01*
X34246338Y-88227900D02*
X34151100Y-88180281D01*
X34103481Y-88085043D01*
X34103481Y-87227900D01*
X34770148Y-88227900D02*
X34674910Y-88180281D01*
X34627291Y-88085043D01*
X34627291Y-87227900D01*
X276817380Y-57127900D02*
X276817380Y-56127900D01*
X277865000Y-57032662D02*
X277817380Y-57080281D01*
X277674523Y-57127900D01*
X277579285Y-57127900D01*
X277436428Y-57080281D01*
X277341190Y-56985043D01*
X277293571Y-56889805D01*
X277245952Y-56699329D01*
X277245952Y-56556472D01*
X277293571Y-56365996D01*
X277341190Y-56270758D01*
X277436428Y-56175520D01*
X277579285Y-56127900D01*
X277674523Y-56127900D01*
X277817380Y-56175520D01*
X277865000Y-56223139D01*
X278484047Y-56127900D02*
X278674523Y-56127900D01*
X278769761Y-56175520D01*
X278865000Y-56270758D01*
X278912619Y-56461234D01*
X278912619Y-56794567D01*
X278865000Y-56985043D01*
X278769761Y-57080281D01*
X278674523Y-57127900D01*
X278484047Y-57127900D01*
X278388809Y-57080281D01*
X278293571Y-56985043D01*
X278245952Y-56794567D01*
X278245952Y-56461234D01*
X278293571Y-56270758D01*
X278388809Y-56175520D01*
X278484047Y-56127900D01*
X279341190Y-57127900D02*
X279341190Y-56127900D01*
X279912619Y-57127900D01*
X279912619Y-56127900D01*
X280150714Y-57223139D02*
X280912619Y-57223139D01*
X281103095Y-57080281D02*
X281245952Y-57127900D01*
X281484047Y-57127900D01*
X281579285Y-57080281D01*
X281626904Y-57032662D01*
X281674523Y-56937424D01*
X281674523Y-56842186D01*
X281626904Y-56746948D01*
X281579285Y-56699329D01*
X281484047Y-56651710D01*
X281293571Y-56604091D01*
X281198333Y-56556472D01*
X281150714Y-56508853D01*
X281103095Y-56413615D01*
X281103095Y-56318377D01*
X281150714Y-56223139D01*
X281198333Y-56175520D01*
X281293571Y-56127900D01*
X281531666Y-56127900D01*
X281674523Y-56175520D01*
X282531666Y-57080281D02*
X282436428Y-57127900D01*
X282245952Y-57127900D01*
X282150714Y-57080281D01*
X282103095Y-57032662D01*
X282055476Y-56937424D01*
X282055476Y-56651710D01*
X282103095Y-56556472D01*
X282150714Y-56508853D01*
X282245952Y-56461234D01*
X282436428Y-56461234D01*
X282531666Y-56508853D01*
X282960238Y-57127900D02*
X282960238Y-56461234D01*
X282960238Y-56127900D02*
X282912619Y-56175520D01*
X282960238Y-56223139D01*
X283007857Y-56175520D01*
X282960238Y-56127900D01*
X282960238Y-56223139D01*
X283388809Y-57080281D02*
X283484047Y-57127900D01*
X283674523Y-57127900D01*
X283769761Y-57080281D01*
X283817380Y-56985043D01*
X283817380Y-56937424D01*
X283769761Y-56842186D01*
X283674523Y-56794567D01*
X283531666Y-56794567D01*
X283436428Y-56746948D01*
X283388809Y-56651710D01*
X283388809Y-56604091D01*
X283436428Y-56508853D01*
X283531666Y-56461234D01*
X283674523Y-56461234D01*
X283769761Y-56508853D01*
X284198333Y-57080281D02*
X284293571Y-57127900D01*
X284484047Y-57127900D01*
X284579285Y-57080281D01*
X284626904Y-56985043D01*
X284626904Y-56937424D01*
X284579285Y-56842186D01*
X284484047Y-56794567D01*
X284341190Y-56794567D01*
X284245952Y-56746948D01*
X284198333Y-56651710D01*
X284198333Y-56604091D01*
X284245952Y-56508853D01*
X284341190Y-56461234D01*
X284484047Y-56461234D01*
X284579285Y-56508853D01*
X285198333Y-57127900D02*
X285103095Y-57080281D01*
X285055476Y-57032662D01*
X285007857Y-56937424D01*
X285007857Y-56651710D01*
X285055476Y-56556472D01*
X285103095Y-56508853D01*
X285198333Y-56461234D01*
X285341190Y-56461234D01*
X285436428Y-56508853D01*
X285484047Y-56556472D01*
X285531666Y-56651710D01*
X285531666Y-56937424D01*
X285484047Y-57032662D01*
X285436428Y-57080281D01*
X285341190Y-57127900D01*
X285198333Y-57127900D01*
X285960238Y-57127900D02*
X285960238Y-56461234D01*
X285960238Y-56651710D02*
X286007857Y-56556472D01*
X286055476Y-56508853D01*
X286150714Y-56461234D01*
X286245952Y-56461234D01*
X286531666Y-57080281D02*
X286626904Y-57127900D01*
X286817380Y-57127900D01*
X286912619Y-57080281D01*
X286960238Y-56985043D01*
X286960238Y-56937424D01*
X286912619Y-56842186D01*
X286817380Y-56794567D01*
X286674523Y-56794567D01*
X286579285Y-56746948D01*
X286531666Y-56651710D01*
X286531666Y-56604091D01*
X286579285Y-56508853D01*
X286674523Y-56461234D01*
X286817380Y-56461234D01*
X286912619Y-56508853D01*
X287150714Y-57223139D02*
X287912619Y-57223139D01*
X288103095Y-57080281D02*
X288245952Y-57127900D01*
X288484047Y-57127900D01*
X288579285Y-57080281D01*
X288626904Y-57032662D01*
X288674523Y-56937424D01*
X288674523Y-56842186D01*
X288626904Y-56746948D01*
X288579285Y-56699329D01*
X288484047Y-56651710D01*
X288293571Y-56604091D01*
X288198333Y-56556472D01*
X288150714Y-56508853D01*
X288103095Y-56413615D01*
X288103095Y-56318377D01*
X288150714Y-56223139D01*
X288198333Y-56175520D01*
X288293571Y-56127900D01*
X288531666Y-56127900D01*
X288674523Y-56175520D01*
X289103095Y-57127900D02*
X289103095Y-56461234D01*
X289103095Y-56556472D02*
X289150714Y-56508853D01*
X289245952Y-56461234D01*
X289388809Y-56461234D01*
X289484047Y-56508853D01*
X289531666Y-56604091D01*
X289531666Y-57127900D01*
X289531666Y-56604091D02*
X289579285Y-56508853D01*
X289674523Y-56461234D01*
X289817380Y-56461234D01*
X289912619Y-56508853D01*
X289960238Y-56604091D01*
X289960238Y-57127900D01*
X290865000Y-57127900D02*
X290865000Y-56604091D01*
X290817380Y-56508853D01*
X290722142Y-56461234D01*
X290531666Y-56461234D01*
X290436428Y-56508853D01*
X290865000Y-57080281D02*
X290769761Y-57127900D01*
X290531666Y-57127900D01*
X290436428Y-57080281D01*
X290388809Y-56985043D01*
X290388809Y-56889805D01*
X290436428Y-56794567D01*
X290531666Y-56746948D01*
X290769761Y-56746948D01*
X290865000Y-56699329D01*
X291484047Y-57127900D02*
X291388809Y-57080281D01*
X291341190Y-56985043D01*
X291341190Y-56127900D01*
X292007857Y-57127900D02*
X291912619Y-57080281D01*
X291865000Y-56985043D01*
X291865000Y-56127900D01*
X142617380Y-75127900D02*
X142617380Y-74127900D01*
X143665000Y-75032662D02*
X143617380Y-75080281D01*
X143474523Y-75127900D01*
X143379285Y-75127900D01*
X143236428Y-75080281D01*
X143141190Y-74985043D01*
X143093571Y-74889805D01*
X143045952Y-74699329D01*
X143045952Y-74556472D01*
X143093571Y-74365996D01*
X143141190Y-74270758D01*
X143236428Y-74175520D01*
X143379285Y-74127900D01*
X143474523Y-74127900D01*
X143617380Y-74175520D01*
X143665000Y-74223139D01*
X144284047Y-74127900D02*
X144474523Y-74127900D01*
X144569761Y-74175520D01*
X144665000Y-74270758D01*
X144712619Y-74461234D01*
X144712619Y-74794567D01*
X144665000Y-74985043D01*
X144569761Y-75080281D01*
X144474523Y-75127900D01*
X144284047Y-75127900D01*
X144188809Y-75080281D01*
X144093571Y-74985043D01*
X144045952Y-74794567D01*
X144045952Y-74461234D01*
X144093571Y-74270758D01*
X144188809Y-74175520D01*
X144284047Y-74127900D01*
X145141190Y-75127900D02*
X145141190Y-74127900D01*
X145712619Y-75127900D01*
X145712619Y-74127900D01*
X145950714Y-75223139D02*
X146712619Y-75223139D01*
X146903095Y-75080281D02*
X147045952Y-75127900D01*
X147284047Y-75127900D01*
X147379285Y-75080281D01*
X147426904Y-75032662D01*
X147474523Y-74937424D01*
X147474523Y-74842186D01*
X147426904Y-74746948D01*
X147379285Y-74699329D01*
X147284047Y-74651710D01*
X147093571Y-74604091D01*
X146998333Y-74556472D01*
X146950714Y-74508853D01*
X146903095Y-74413615D01*
X146903095Y-74318377D01*
X146950714Y-74223139D01*
X146998333Y-74175520D01*
X147093571Y-74127900D01*
X147331666Y-74127900D01*
X147474523Y-74175520D01*
X148331666Y-75080281D02*
X148236428Y-75127900D01*
X148045952Y-75127900D01*
X147950714Y-75080281D01*
X147903095Y-75032662D01*
X147855476Y-74937424D01*
X147855476Y-74651710D01*
X147903095Y-74556472D01*
X147950714Y-74508853D01*
X148045952Y-74461234D01*
X148236428Y-74461234D01*
X148331666Y-74508853D01*
X148760238Y-75127900D02*
X148760238Y-74461234D01*
X148760238Y-74127900D02*
X148712619Y-74175520D01*
X148760238Y-74223139D01*
X148807857Y-74175520D01*
X148760238Y-74127900D01*
X148760238Y-74223139D01*
X149188809Y-75080281D02*
X149284047Y-75127900D01*
X149474523Y-75127900D01*
X149569761Y-75080281D01*
X149617380Y-74985043D01*
X149617380Y-74937424D01*
X149569761Y-74842186D01*
X149474523Y-74794567D01*
X149331666Y-74794567D01*
X149236428Y-74746948D01*
X149188809Y-74651710D01*
X149188809Y-74604091D01*
X149236428Y-74508853D01*
X149331666Y-74461234D01*
X149474523Y-74461234D01*
X149569761Y-74508853D01*
X149998333Y-75080281D02*
X150093571Y-75127900D01*
X150284047Y-75127900D01*
X150379285Y-75080281D01*
X150426904Y-74985043D01*
X150426904Y-74937424D01*
X150379285Y-74842186D01*
X150284047Y-74794567D01*
X150141190Y-74794567D01*
X150045952Y-74746948D01*
X149998333Y-74651710D01*
X149998333Y-74604091D01*
X150045952Y-74508853D01*
X150141190Y-74461234D01*
X150284047Y-74461234D01*
X150379285Y-74508853D01*
X150998333Y-75127900D02*
X150903095Y-75080281D01*
X150855476Y-75032662D01*
X150807857Y-74937424D01*
X150807857Y-74651710D01*
X150855476Y-74556472D01*
X150903095Y-74508853D01*
X150998333Y-74461234D01*
X151141190Y-74461234D01*
X151236428Y-74508853D01*
X151284047Y-74556472D01*
X151331666Y-74651710D01*
X151331666Y-74937424D01*
X151284047Y-75032662D01*
X151236428Y-75080281D01*
X151141190Y-75127900D01*
X150998333Y-75127900D01*
X151760238Y-75127900D02*
X151760238Y-74461234D01*
X151760238Y-74651710D02*
X151807857Y-74556472D01*
X151855476Y-74508853D01*
X151950714Y-74461234D01*
X152045952Y-74461234D01*
X152331666Y-75080281D02*
X152426904Y-75127900D01*
X152617380Y-75127900D01*
X152712619Y-75080281D01*
X152760238Y-74985043D01*
X152760238Y-74937424D01*
X152712619Y-74842186D01*
X152617380Y-74794567D01*
X152474523Y-74794567D01*
X152379285Y-74746948D01*
X152331666Y-74651710D01*
X152331666Y-74604091D01*
X152379285Y-74508853D01*
X152474523Y-74461234D01*
X152617380Y-74461234D01*
X152712619Y-74508853D01*
X152950714Y-75223139D02*
X153712619Y-75223139D01*
X153903095Y-75080281D02*
X154045952Y-75127900D01*
X154284047Y-75127900D01*
X154379285Y-75080281D01*
X154426904Y-75032662D01*
X154474523Y-74937424D01*
X154474523Y-74842186D01*
X154426904Y-74746948D01*
X154379285Y-74699329D01*
X154284047Y-74651710D01*
X154093571Y-74604091D01*
X153998333Y-74556472D01*
X153950714Y-74508853D01*
X153903095Y-74413615D01*
X153903095Y-74318377D01*
X153950714Y-74223139D01*
X153998333Y-74175520D01*
X154093571Y-74127900D01*
X154331666Y-74127900D01*
X154474523Y-74175520D01*
X154903095Y-75127900D02*
X154903095Y-74461234D01*
X154903095Y-74556472D02*
X154950714Y-74508853D01*
X155045952Y-74461234D01*
X155188809Y-74461234D01*
X155284047Y-74508853D01*
X155331666Y-74604091D01*
X155331666Y-75127900D01*
X155331666Y-74604091D02*
X155379285Y-74508853D01*
X155474523Y-74461234D01*
X155617380Y-74461234D01*
X155712619Y-74508853D01*
X155760238Y-74604091D01*
X155760238Y-75127900D01*
X156665000Y-75127900D02*
X156665000Y-74604091D01*
X156617380Y-74508853D01*
X156522142Y-74461234D01*
X156331666Y-74461234D01*
X156236428Y-74508853D01*
X156665000Y-75080281D02*
X156569761Y-75127900D01*
X156331666Y-75127900D01*
X156236428Y-75080281D01*
X156188809Y-74985043D01*
X156188809Y-74889805D01*
X156236428Y-74794567D01*
X156331666Y-74746948D01*
X156569761Y-74746948D01*
X156665000Y-74699329D01*
X157284047Y-75127900D02*
X157188809Y-75080281D01*
X157141190Y-74985043D01*
X157141190Y-74127900D01*
X157807857Y-75127900D02*
X157712619Y-75080281D01*
X157665000Y-74985043D01*
X157665000Y-74127900D01*
X112714285Y-30452380D02*
X112714285Y-29452380D01*
X113047619Y-30166666D01*
X113380952Y-29452380D01*
X113380952Y-30452380D01*
X114000000Y-30452380D02*
X113904761Y-30404761D01*
X113857142Y-30357142D01*
X113809523Y-30261904D01*
X113809523Y-29976190D01*
X113857142Y-29880952D01*
X113904761Y-29833333D01*
X114000000Y-29785714D01*
X114142857Y-29785714D01*
X114238095Y-29833333D01*
X114285714Y-29880952D01*
X114333333Y-29976190D01*
X114333333Y-30261904D01*
X114285714Y-30357142D01*
X114238095Y-30404761D01*
X114142857Y-30452380D01*
X114000000Y-30452380D01*
X115190476Y-29785714D02*
X115190476Y-30452380D01*
X114761904Y-29785714D02*
X114761904Y-30309523D01*
X114809523Y-30404761D01*
X114904761Y-30452380D01*
X115047619Y-30452380D01*
X115142857Y-30404761D01*
X115190476Y-30357142D01*
X115666666Y-29785714D02*
X115666666Y-30452380D01*
X115666666Y-29880952D02*
X115714285Y-29833333D01*
X115809523Y-29785714D01*
X115952380Y-29785714D01*
X116047619Y-29833333D01*
X116095238Y-29928571D01*
X116095238Y-30452380D01*
X116428571Y-29785714D02*
X116809523Y-29785714D01*
X116571428Y-29452380D02*
X116571428Y-30309523D01*
X116619047Y-30404761D01*
X116714285Y-30452380D01*
X116809523Y-30452380D01*
X117142857Y-30452380D02*
X117142857Y-29785714D01*
X117142857Y-29452380D02*
X117095238Y-29500000D01*
X117142857Y-29547619D01*
X117190476Y-29500000D01*
X117142857Y-29452380D01*
X117142857Y-29547619D01*
X117619047Y-29785714D02*
X117619047Y-30452380D01*
X117619047Y-29880952D02*
X117666666Y-29833333D01*
X117761904Y-29785714D01*
X117904761Y-29785714D01*
X118000000Y-29833333D01*
X118047619Y-29928571D01*
X118047619Y-30452380D01*
X118952380Y-29785714D02*
X118952380Y-30595238D01*
X118904761Y-30690476D01*
X118857142Y-30738095D01*
X118761904Y-30785714D01*
X118619047Y-30785714D01*
X118523809Y-30738095D01*
X118952380Y-30404761D02*
X118857142Y-30452380D01*
X118666666Y-30452380D01*
X118571428Y-30404761D01*
X118523809Y-30357142D01*
X118476190Y-30261904D01*
X118476190Y-29976190D01*
X118523809Y-29880952D01*
X118571428Y-29833333D01*
X118666666Y-29785714D01*
X118857142Y-29785714D01*
X118952380Y-29833333D01*
X119428571Y-30452380D02*
X119428571Y-29452380D01*
X119428571Y-29928571D02*
X120000000Y-29928571D01*
X120000000Y-30452380D02*
X120000000Y-29452380D01*
X120619047Y-30452380D02*
X120523809Y-30404761D01*
X120476190Y-30357142D01*
X120428571Y-30261904D01*
X120428571Y-29976190D01*
X120476190Y-29880952D01*
X120523809Y-29833333D01*
X120619047Y-29785714D01*
X120761904Y-29785714D01*
X120857142Y-29833333D01*
X120904761Y-29880952D01*
X120952380Y-29976190D01*
X120952380Y-30261904D01*
X120904761Y-30357142D01*
X120857142Y-30404761D01*
X120761904Y-30452380D01*
X120619047Y-30452380D01*
X121523809Y-30452380D02*
X121428571Y-30404761D01*
X121380952Y-30309523D01*
X121380952Y-29452380D01*
X122285714Y-30404761D02*
X122190476Y-30452380D01*
X122000000Y-30452380D01*
X121904761Y-30404761D01*
X121857142Y-30309523D01*
X121857142Y-29928571D01*
X121904761Y-29833333D01*
X122000000Y-29785714D01*
X122190476Y-29785714D01*
X122285714Y-29833333D01*
X122333333Y-29928571D01*
X122333333Y-30023809D01*
X121857142Y-30119047D01*
X117038095Y-27252380D02*
X117038095Y-26252380D01*
X117038095Y-26728571D02*
X117609523Y-26728571D01*
X117609523Y-27252380D02*
X117609523Y-26252380D01*
X118609523Y-27252380D02*
X118038095Y-27252380D01*
X118323809Y-27252380D02*
X118323809Y-26252380D01*
X118228571Y-26395238D01*
X118133333Y-26490476D01*
X118038095Y-26538095D01*
X207964285Y-30452380D02*
X207964285Y-29452380D01*
X208297619Y-30166666D01*
X208630952Y-29452380D01*
X208630952Y-30452380D01*
X209250000Y-30452380D02*
X209154761Y-30404761D01*
X209107142Y-30357142D01*
X209059523Y-30261904D01*
X209059523Y-29976190D01*
X209107142Y-29880952D01*
X209154761Y-29833333D01*
X209250000Y-29785714D01*
X209392857Y-29785714D01*
X209488095Y-29833333D01*
X209535714Y-29880952D01*
X209583333Y-29976190D01*
X209583333Y-30261904D01*
X209535714Y-30357142D01*
X209488095Y-30404761D01*
X209392857Y-30452380D01*
X209250000Y-30452380D01*
X210440476Y-29785714D02*
X210440476Y-30452380D01*
X210011904Y-29785714D02*
X210011904Y-30309523D01*
X210059523Y-30404761D01*
X210154761Y-30452380D01*
X210297619Y-30452380D01*
X210392857Y-30404761D01*
X210440476Y-30357142D01*
X210916666Y-29785714D02*
X210916666Y-30452380D01*
X210916666Y-29880952D02*
X210964285Y-29833333D01*
X211059523Y-29785714D01*
X211202380Y-29785714D01*
X211297619Y-29833333D01*
X211345238Y-29928571D01*
X211345238Y-30452380D01*
X211678571Y-29785714D02*
X212059523Y-29785714D01*
X211821428Y-29452380D02*
X211821428Y-30309523D01*
X211869047Y-30404761D01*
X211964285Y-30452380D01*
X212059523Y-30452380D01*
X212392857Y-30452380D02*
X212392857Y-29785714D01*
X212392857Y-29452380D02*
X212345238Y-29500000D01*
X212392857Y-29547619D01*
X212440476Y-29500000D01*
X212392857Y-29452380D01*
X212392857Y-29547619D01*
X212869047Y-29785714D02*
X212869047Y-30452380D01*
X212869047Y-29880952D02*
X212916666Y-29833333D01*
X213011904Y-29785714D01*
X213154761Y-29785714D01*
X213250000Y-29833333D01*
X213297619Y-29928571D01*
X213297619Y-30452380D01*
X214202380Y-29785714D02*
X214202380Y-30595238D01*
X214154761Y-30690476D01*
X214107142Y-30738095D01*
X214011904Y-30785714D01*
X213869047Y-30785714D01*
X213773809Y-30738095D01*
X214202380Y-30404761D02*
X214107142Y-30452380D01*
X213916666Y-30452380D01*
X213821428Y-30404761D01*
X213773809Y-30357142D01*
X213726190Y-30261904D01*
X213726190Y-29976190D01*
X213773809Y-29880952D01*
X213821428Y-29833333D01*
X213916666Y-29785714D01*
X214107142Y-29785714D01*
X214202380Y-29833333D01*
X214678571Y-30452380D02*
X214678571Y-29452380D01*
X214678571Y-29928571D02*
X215250000Y-29928571D01*
X215250000Y-30452380D02*
X215250000Y-29452380D01*
X215869047Y-30452380D02*
X215773809Y-30404761D01*
X215726190Y-30357142D01*
X215678571Y-30261904D01*
X215678571Y-29976190D01*
X215726190Y-29880952D01*
X215773809Y-29833333D01*
X215869047Y-29785714D01*
X216011904Y-29785714D01*
X216107142Y-29833333D01*
X216154761Y-29880952D01*
X216202380Y-29976190D01*
X216202380Y-30261904D01*
X216154761Y-30357142D01*
X216107142Y-30404761D01*
X216011904Y-30452380D01*
X215869047Y-30452380D01*
X216773809Y-30452380D02*
X216678571Y-30404761D01*
X216630952Y-30309523D01*
X216630952Y-29452380D01*
X217535714Y-30404761D02*
X217440476Y-30452380D01*
X217250000Y-30452380D01*
X217154761Y-30404761D01*
X217107142Y-30309523D01*
X217107142Y-29928571D01*
X217154761Y-29833333D01*
X217250000Y-29785714D01*
X217440476Y-29785714D01*
X217535714Y-29833333D01*
X217583333Y-29928571D01*
X217583333Y-30023809D01*
X217107142Y-30119047D01*
X212288095Y-27252380D02*
X212288095Y-26252380D01*
X212288095Y-26728571D02*
X212859523Y-26728571D01*
X212859523Y-27252380D02*
X212859523Y-26252380D01*
X213288095Y-26347619D02*
X213335714Y-26300000D01*
X213430952Y-26252380D01*
X213669047Y-26252380D01*
X213764285Y-26300000D01*
X213811904Y-26347619D01*
X213859523Y-26442857D01*
X213859523Y-26538095D01*
X213811904Y-26680952D01*
X213240476Y-27252380D01*
X213859523Y-27252380D01*
X101664285Y-116052380D02*
X101664285Y-115052380D01*
X101997619Y-115766666D01*
X102330952Y-115052380D01*
X102330952Y-116052380D01*
X102950000Y-116052380D02*
X102854761Y-116004761D01*
X102807142Y-115957142D01*
X102759523Y-115861904D01*
X102759523Y-115576190D01*
X102807142Y-115480952D01*
X102854761Y-115433333D01*
X102950000Y-115385714D01*
X103092857Y-115385714D01*
X103188095Y-115433333D01*
X103235714Y-115480952D01*
X103283333Y-115576190D01*
X103283333Y-115861904D01*
X103235714Y-115957142D01*
X103188095Y-116004761D01*
X103092857Y-116052380D01*
X102950000Y-116052380D01*
X104140476Y-115385714D02*
X104140476Y-116052380D01*
X103711904Y-115385714D02*
X103711904Y-115909523D01*
X103759523Y-116004761D01*
X103854761Y-116052380D01*
X103997619Y-116052380D01*
X104092857Y-116004761D01*
X104140476Y-115957142D01*
X104616666Y-115385714D02*
X104616666Y-116052380D01*
X104616666Y-115480952D02*
X104664285Y-115433333D01*
X104759523Y-115385714D01*
X104902380Y-115385714D01*
X104997619Y-115433333D01*
X105045238Y-115528571D01*
X105045238Y-116052380D01*
X105378571Y-115385714D02*
X105759523Y-115385714D01*
X105521428Y-115052380D02*
X105521428Y-115909523D01*
X105569047Y-116004761D01*
X105664285Y-116052380D01*
X105759523Y-116052380D01*
X106092857Y-116052380D02*
X106092857Y-115385714D01*
X106092857Y-115052380D02*
X106045238Y-115100000D01*
X106092857Y-115147619D01*
X106140476Y-115100000D01*
X106092857Y-115052380D01*
X106092857Y-115147619D01*
X106569047Y-115385714D02*
X106569047Y-116052380D01*
X106569047Y-115480952D02*
X106616666Y-115433333D01*
X106711904Y-115385714D01*
X106854761Y-115385714D01*
X106950000Y-115433333D01*
X106997619Y-115528571D01*
X106997619Y-116052380D01*
X107902380Y-115385714D02*
X107902380Y-116195238D01*
X107854761Y-116290476D01*
X107807142Y-116338095D01*
X107711904Y-116385714D01*
X107569047Y-116385714D01*
X107473809Y-116338095D01*
X107902380Y-116004761D02*
X107807142Y-116052380D01*
X107616666Y-116052380D01*
X107521428Y-116004761D01*
X107473809Y-115957142D01*
X107426190Y-115861904D01*
X107426190Y-115576190D01*
X107473809Y-115480952D01*
X107521428Y-115433333D01*
X107616666Y-115385714D01*
X107807142Y-115385714D01*
X107902380Y-115433333D01*
X108378571Y-116052380D02*
X108378571Y-115052380D01*
X108378571Y-115528571D02*
X108950000Y-115528571D01*
X108950000Y-116052380D02*
X108950000Y-115052380D01*
X109569047Y-116052380D02*
X109473809Y-116004761D01*
X109426190Y-115957142D01*
X109378571Y-115861904D01*
X109378571Y-115576190D01*
X109426190Y-115480952D01*
X109473809Y-115433333D01*
X109569047Y-115385714D01*
X109711904Y-115385714D01*
X109807142Y-115433333D01*
X109854761Y-115480952D01*
X109902380Y-115576190D01*
X109902380Y-115861904D01*
X109854761Y-115957142D01*
X109807142Y-116004761D01*
X109711904Y-116052380D01*
X109569047Y-116052380D01*
X110473809Y-116052380D02*
X110378571Y-116004761D01*
X110330952Y-115909523D01*
X110330952Y-115052380D01*
X111235714Y-116004761D02*
X111140476Y-116052380D01*
X110950000Y-116052380D01*
X110854761Y-116004761D01*
X110807142Y-115909523D01*
X110807142Y-115528571D01*
X110854761Y-115433333D01*
X110950000Y-115385714D01*
X111140476Y-115385714D01*
X111235714Y-115433333D01*
X111283333Y-115528571D01*
X111283333Y-115623809D01*
X110807142Y-115719047D01*
X105988095Y-112852380D02*
X105988095Y-111852380D01*
X105988095Y-112328571D02*
X106559523Y-112328571D01*
X106559523Y-112852380D02*
X106559523Y-111852380D01*
X106940476Y-111852380D02*
X107559523Y-111852380D01*
X107226190Y-112233333D01*
X107369047Y-112233333D01*
X107464285Y-112280952D01*
X107511904Y-112328571D01*
X107559523Y-112423809D01*
X107559523Y-112661904D01*
X107511904Y-112757142D01*
X107464285Y-112804761D01*
X107369047Y-112852380D01*
X107083333Y-112852380D01*
X106988095Y-112804761D01*
X106940476Y-112757142D01*
M02*
