G04 #@! TF.GenerationSoftware,KiCad,Pcbnew,(5.1.10-1-10_14)*
G04 #@! TF.CreationDate,2021-11-20T18:36:26+09:00*
G04 #@! TF.ProjectId,nora,6e6f7261-2e6b-4696-9361-645f70636258,v.0.1*
G04 #@! TF.SameCoordinates,Original*
G04 #@! TF.FileFunction,Other,Fab,Top*
%FSLAX46Y46*%
G04 Gerber Fmt 4.6, Leading zero omitted, Abs format (unit mm)*
G04 Created by KiCad (PCBNEW (5.1.10-1-10_14)) date 2021-11-20 18:36:26*
%MOMM*%
%LPD*%
G01*
G04 APERTURE LIST*
%ADD10C,0.150000*%
G04 APERTURE END LIST*
D10*
X112714285Y-30452380D02*
X112714285Y-29452380D01*
X113047619Y-30166666D01*
X113380952Y-29452380D01*
X113380952Y-30452380D01*
X114000000Y-30452380D02*
X113904761Y-30404761D01*
X113857142Y-30357142D01*
X113809523Y-30261904D01*
X113809523Y-29976190D01*
X113857142Y-29880952D01*
X113904761Y-29833333D01*
X114000000Y-29785714D01*
X114142857Y-29785714D01*
X114238095Y-29833333D01*
X114285714Y-29880952D01*
X114333333Y-29976190D01*
X114333333Y-30261904D01*
X114285714Y-30357142D01*
X114238095Y-30404761D01*
X114142857Y-30452380D01*
X114000000Y-30452380D01*
X115190476Y-29785714D02*
X115190476Y-30452380D01*
X114761904Y-29785714D02*
X114761904Y-30309523D01*
X114809523Y-30404761D01*
X114904761Y-30452380D01*
X115047619Y-30452380D01*
X115142857Y-30404761D01*
X115190476Y-30357142D01*
X115666666Y-29785714D02*
X115666666Y-30452380D01*
X115666666Y-29880952D02*
X115714285Y-29833333D01*
X115809523Y-29785714D01*
X115952380Y-29785714D01*
X116047619Y-29833333D01*
X116095238Y-29928571D01*
X116095238Y-30452380D01*
X116428571Y-29785714D02*
X116809523Y-29785714D01*
X116571428Y-29452380D02*
X116571428Y-30309523D01*
X116619047Y-30404761D01*
X116714285Y-30452380D01*
X116809523Y-30452380D01*
X117142857Y-30452380D02*
X117142857Y-29785714D01*
X117142857Y-29452380D02*
X117095238Y-29500000D01*
X117142857Y-29547619D01*
X117190476Y-29500000D01*
X117142857Y-29452380D01*
X117142857Y-29547619D01*
X117619047Y-29785714D02*
X117619047Y-30452380D01*
X117619047Y-29880952D02*
X117666666Y-29833333D01*
X117761904Y-29785714D01*
X117904761Y-29785714D01*
X118000000Y-29833333D01*
X118047619Y-29928571D01*
X118047619Y-30452380D01*
X118952380Y-29785714D02*
X118952380Y-30595238D01*
X118904761Y-30690476D01*
X118857142Y-30738095D01*
X118761904Y-30785714D01*
X118619047Y-30785714D01*
X118523809Y-30738095D01*
X118952380Y-30404761D02*
X118857142Y-30452380D01*
X118666666Y-30452380D01*
X118571428Y-30404761D01*
X118523809Y-30357142D01*
X118476190Y-30261904D01*
X118476190Y-29976190D01*
X118523809Y-29880952D01*
X118571428Y-29833333D01*
X118666666Y-29785714D01*
X118857142Y-29785714D01*
X118952380Y-29833333D01*
X119428571Y-30452380D02*
X119428571Y-29452380D01*
X119428571Y-29928571D02*
X120000000Y-29928571D01*
X120000000Y-30452380D02*
X120000000Y-29452380D01*
X120619047Y-30452380D02*
X120523809Y-30404761D01*
X120476190Y-30357142D01*
X120428571Y-30261904D01*
X120428571Y-29976190D01*
X120476190Y-29880952D01*
X120523809Y-29833333D01*
X120619047Y-29785714D01*
X120761904Y-29785714D01*
X120857142Y-29833333D01*
X120904761Y-29880952D01*
X120952380Y-29976190D01*
X120952380Y-30261904D01*
X120904761Y-30357142D01*
X120857142Y-30404761D01*
X120761904Y-30452380D01*
X120619047Y-30452380D01*
X121523809Y-30452380D02*
X121428571Y-30404761D01*
X121380952Y-30309523D01*
X121380952Y-29452380D01*
X122285714Y-30404761D02*
X122190476Y-30452380D01*
X122000000Y-30452380D01*
X121904761Y-30404761D01*
X121857142Y-30309523D01*
X121857142Y-29928571D01*
X121904761Y-29833333D01*
X122000000Y-29785714D01*
X122190476Y-29785714D01*
X122285714Y-29833333D01*
X122333333Y-29928571D01*
X122333333Y-30023809D01*
X121857142Y-30119047D01*
X117038095Y-27252380D02*
X117038095Y-26252380D01*
X117038095Y-26728571D02*
X117609523Y-26728571D01*
X117609523Y-27252380D02*
X117609523Y-26252380D01*
X118609523Y-27252380D02*
X118038095Y-27252380D01*
X118323809Y-27252380D02*
X118323809Y-26252380D01*
X118228571Y-26395238D01*
X118133333Y-26490476D01*
X118038095Y-26538095D01*
X207964285Y-30452380D02*
X207964285Y-29452380D01*
X208297619Y-30166666D01*
X208630952Y-29452380D01*
X208630952Y-30452380D01*
X209250000Y-30452380D02*
X209154761Y-30404761D01*
X209107142Y-30357142D01*
X209059523Y-30261904D01*
X209059523Y-29976190D01*
X209107142Y-29880952D01*
X209154761Y-29833333D01*
X209250000Y-29785714D01*
X209392857Y-29785714D01*
X209488095Y-29833333D01*
X209535714Y-29880952D01*
X209583333Y-29976190D01*
X209583333Y-30261904D01*
X209535714Y-30357142D01*
X209488095Y-30404761D01*
X209392857Y-30452380D01*
X209250000Y-30452380D01*
X210440476Y-29785714D02*
X210440476Y-30452380D01*
X210011904Y-29785714D02*
X210011904Y-30309523D01*
X210059523Y-30404761D01*
X210154761Y-30452380D01*
X210297619Y-30452380D01*
X210392857Y-30404761D01*
X210440476Y-30357142D01*
X210916666Y-29785714D02*
X210916666Y-30452380D01*
X210916666Y-29880952D02*
X210964285Y-29833333D01*
X211059523Y-29785714D01*
X211202380Y-29785714D01*
X211297619Y-29833333D01*
X211345238Y-29928571D01*
X211345238Y-30452380D01*
X211678571Y-29785714D02*
X212059523Y-29785714D01*
X211821428Y-29452380D02*
X211821428Y-30309523D01*
X211869047Y-30404761D01*
X211964285Y-30452380D01*
X212059523Y-30452380D01*
X212392857Y-30452380D02*
X212392857Y-29785714D01*
X212392857Y-29452380D02*
X212345238Y-29500000D01*
X212392857Y-29547619D01*
X212440476Y-29500000D01*
X212392857Y-29452380D01*
X212392857Y-29547619D01*
X212869047Y-29785714D02*
X212869047Y-30452380D01*
X212869047Y-29880952D02*
X212916666Y-29833333D01*
X213011904Y-29785714D01*
X213154761Y-29785714D01*
X213250000Y-29833333D01*
X213297619Y-29928571D01*
X213297619Y-30452380D01*
X214202380Y-29785714D02*
X214202380Y-30595238D01*
X214154761Y-30690476D01*
X214107142Y-30738095D01*
X214011904Y-30785714D01*
X213869047Y-30785714D01*
X213773809Y-30738095D01*
X214202380Y-30404761D02*
X214107142Y-30452380D01*
X213916666Y-30452380D01*
X213821428Y-30404761D01*
X213773809Y-30357142D01*
X213726190Y-30261904D01*
X213726190Y-29976190D01*
X213773809Y-29880952D01*
X213821428Y-29833333D01*
X213916666Y-29785714D01*
X214107142Y-29785714D01*
X214202380Y-29833333D01*
X214678571Y-30452380D02*
X214678571Y-29452380D01*
X214678571Y-29928571D02*
X215250000Y-29928571D01*
X215250000Y-30452380D02*
X215250000Y-29452380D01*
X215869047Y-30452380D02*
X215773809Y-30404761D01*
X215726190Y-30357142D01*
X215678571Y-30261904D01*
X215678571Y-29976190D01*
X215726190Y-29880952D01*
X215773809Y-29833333D01*
X215869047Y-29785714D01*
X216011904Y-29785714D01*
X216107142Y-29833333D01*
X216154761Y-29880952D01*
X216202380Y-29976190D01*
X216202380Y-30261904D01*
X216154761Y-30357142D01*
X216107142Y-30404761D01*
X216011904Y-30452380D01*
X215869047Y-30452380D01*
X216773809Y-30452380D02*
X216678571Y-30404761D01*
X216630952Y-30309523D01*
X216630952Y-29452380D01*
X217535714Y-30404761D02*
X217440476Y-30452380D01*
X217250000Y-30452380D01*
X217154761Y-30404761D01*
X217107142Y-30309523D01*
X217107142Y-29928571D01*
X217154761Y-29833333D01*
X217250000Y-29785714D01*
X217440476Y-29785714D01*
X217535714Y-29833333D01*
X217583333Y-29928571D01*
X217583333Y-30023809D01*
X217107142Y-30119047D01*
X212288095Y-27252380D02*
X212288095Y-26252380D01*
X212288095Y-26728571D02*
X212859523Y-26728571D01*
X212859523Y-27252380D02*
X212859523Y-26252380D01*
X213288095Y-26347619D02*
X213335714Y-26300000D01*
X213430952Y-26252380D01*
X213669047Y-26252380D01*
X213764285Y-26300000D01*
X213811904Y-26347619D01*
X213859523Y-26442857D01*
X213859523Y-26538095D01*
X213811904Y-26680952D01*
X213240476Y-27252380D01*
X213859523Y-27252380D01*
X101664285Y-116052380D02*
X101664285Y-115052380D01*
X101997619Y-115766666D01*
X102330952Y-115052380D01*
X102330952Y-116052380D01*
X102950000Y-116052380D02*
X102854761Y-116004761D01*
X102807142Y-115957142D01*
X102759523Y-115861904D01*
X102759523Y-115576190D01*
X102807142Y-115480952D01*
X102854761Y-115433333D01*
X102950000Y-115385714D01*
X103092857Y-115385714D01*
X103188095Y-115433333D01*
X103235714Y-115480952D01*
X103283333Y-115576190D01*
X103283333Y-115861904D01*
X103235714Y-115957142D01*
X103188095Y-116004761D01*
X103092857Y-116052380D01*
X102950000Y-116052380D01*
X104140476Y-115385714D02*
X104140476Y-116052380D01*
X103711904Y-115385714D02*
X103711904Y-115909523D01*
X103759523Y-116004761D01*
X103854761Y-116052380D01*
X103997619Y-116052380D01*
X104092857Y-116004761D01*
X104140476Y-115957142D01*
X104616666Y-115385714D02*
X104616666Y-116052380D01*
X104616666Y-115480952D02*
X104664285Y-115433333D01*
X104759523Y-115385714D01*
X104902380Y-115385714D01*
X104997619Y-115433333D01*
X105045238Y-115528571D01*
X105045238Y-116052380D01*
X105378571Y-115385714D02*
X105759523Y-115385714D01*
X105521428Y-115052380D02*
X105521428Y-115909523D01*
X105569047Y-116004761D01*
X105664285Y-116052380D01*
X105759523Y-116052380D01*
X106092857Y-116052380D02*
X106092857Y-115385714D01*
X106092857Y-115052380D02*
X106045238Y-115100000D01*
X106092857Y-115147619D01*
X106140476Y-115100000D01*
X106092857Y-115052380D01*
X106092857Y-115147619D01*
X106569047Y-115385714D02*
X106569047Y-116052380D01*
X106569047Y-115480952D02*
X106616666Y-115433333D01*
X106711904Y-115385714D01*
X106854761Y-115385714D01*
X106950000Y-115433333D01*
X106997619Y-115528571D01*
X106997619Y-116052380D01*
X107902380Y-115385714D02*
X107902380Y-116195238D01*
X107854761Y-116290476D01*
X107807142Y-116338095D01*
X107711904Y-116385714D01*
X107569047Y-116385714D01*
X107473809Y-116338095D01*
X107902380Y-116004761D02*
X107807142Y-116052380D01*
X107616666Y-116052380D01*
X107521428Y-116004761D01*
X107473809Y-115957142D01*
X107426190Y-115861904D01*
X107426190Y-115576190D01*
X107473809Y-115480952D01*
X107521428Y-115433333D01*
X107616666Y-115385714D01*
X107807142Y-115385714D01*
X107902380Y-115433333D01*
X108378571Y-116052380D02*
X108378571Y-115052380D01*
X108378571Y-115528571D02*
X108950000Y-115528571D01*
X108950000Y-116052380D02*
X108950000Y-115052380D01*
X109569047Y-116052380D02*
X109473809Y-116004761D01*
X109426190Y-115957142D01*
X109378571Y-115861904D01*
X109378571Y-115576190D01*
X109426190Y-115480952D01*
X109473809Y-115433333D01*
X109569047Y-115385714D01*
X109711904Y-115385714D01*
X109807142Y-115433333D01*
X109854761Y-115480952D01*
X109902380Y-115576190D01*
X109902380Y-115861904D01*
X109854761Y-115957142D01*
X109807142Y-116004761D01*
X109711904Y-116052380D01*
X109569047Y-116052380D01*
X110473809Y-116052380D02*
X110378571Y-116004761D01*
X110330952Y-115909523D01*
X110330952Y-115052380D01*
X111235714Y-116004761D02*
X111140476Y-116052380D01*
X110950000Y-116052380D01*
X110854761Y-116004761D01*
X110807142Y-115909523D01*
X110807142Y-115528571D01*
X110854761Y-115433333D01*
X110950000Y-115385714D01*
X111140476Y-115385714D01*
X111235714Y-115433333D01*
X111283333Y-115528571D01*
X111283333Y-115623809D01*
X110807142Y-115719047D01*
X105988095Y-112852380D02*
X105988095Y-111852380D01*
X105988095Y-112328571D02*
X106559523Y-112328571D01*
X106559523Y-112852380D02*
X106559523Y-111852380D01*
X106940476Y-111852380D02*
X107559523Y-111852380D01*
X107226190Y-112233333D01*
X107369047Y-112233333D01*
X107464285Y-112280952D01*
X107511904Y-112328571D01*
X107559523Y-112423809D01*
X107559523Y-112661904D01*
X107511904Y-112757142D01*
X107464285Y-112804761D01*
X107369047Y-112852380D01*
X107083333Y-112852380D01*
X106988095Y-112804761D01*
X106940476Y-112757142D01*
X203214285Y-116052380D02*
X203214285Y-115052380D01*
X203547619Y-115766666D01*
X203880952Y-115052380D01*
X203880952Y-116052380D01*
X204500000Y-116052380D02*
X204404761Y-116004761D01*
X204357142Y-115957142D01*
X204309523Y-115861904D01*
X204309523Y-115576190D01*
X204357142Y-115480952D01*
X204404761Y-115433333D01*
X204500000Y-115385714D01*
X204642857Y-115385714D01*
X204738095Y-115433333D01*
X204785714Y-115480952D01*
X204833333Y-115576190D01*
X204833333Y-115861904D01*
X204785714Y-115957142D01*
X204738095Y-116004761D01*
X204642857Y-116052380D01*
X204500000Y-116052380D01*
X205690476Y-115385714D02*
X205690476Y-116052380D01*
X205261904Y-115385714D02*
X205261904Y-115909523D01*
X205309523Y-116004761D01*
X205404761Y-116052380D01*
X205547619Y-116052380D01*
X205642857Y-116004761D01*
X205690476Y-115957142D01*
X206166666Y-115385714D02*
X206166666Y-116052380D01*
X206166666Y-115480952D02*
X206214285Y-115433333D01*
X206309523Y-115385714D01*
X206452380Y-115385714D01*
X206547619Y-115433333D01*
X206595238Y-115528571D01*
X206595238Y-116052380D01*
X206928571Y-115385714D02*
X207309523Y-115385714D01*
X207071428Y-115052380D02*
X207071428Y-115909523D01*
X207119047Y-116004761D01*
X207214285Y-116052380D01*
X207309523Y-116052380D01*
X207642857Y-116052380D02*
X207642857Y-115385714D01*
X207642857Y-115052380D02*
X207595238Y-115100000D01*
X207642857Y-115147619D01*
X207690476Y-115100000D01*
X207642857Y-115052380D01*
X207642857Y-115147619D01*
X208119047Y-115385714D02*
X208119047Y-116052380D01*
X208119047Y-115480952D02*
X208166666Y-115433333D01*
X208261904Y-115385714D01*
X208404761Y-115385714D01*
X208500000Y-115433333D01*
X208547619Y-115528571D01*
X208547619Y-116052380D01*
X209452380Y-115385714D02*
X209452380Y-116195238D01*
X209404761Y-116290476D01*
X209357142Y-116338095D01*
X209261904Y-116385714D01*
X209119047Y-116385714D01*
X209023809Y-116338095D01*
X209452380Y-116004761D02*
X209357142Y-116052380D01*
X209166666Y-116052380D01*
X209071428Y-116004761D01*
X209023809Y-115957142D01*
X208976190Y-115861904D01*
X208976190Y-115576190D01*
X209023809Y-115480952D01*
X209071428Y-115433333D01*
X209166666Y-115385714D01*
X209357142Y-115385714D01*
X209452380Y-115433333D01*
X209928571Y-116052380D02*
X209928571Y-115052380D01*
X209928571Y-115528571D02*
X210500000Y-115528571D01*
X210500000Y-116052380D02*
X210500000Y-115052380D01*
X211119047Y-116052380D02*
X211023809Y-116004761D01*
X210976190Y-115957142D01*
X210928571Y-115861904D01*
X210928571Y-115576190D01*
X210976190Y-115480952D01*
X211023809Y-115433333D01*
X211119047Y-115385714D01*
X211261904Y-115385714D01*
X211357142Y-115433333D01*
X211404761Y-115480952D01*
X211452380Y-115576190D01*
X211452380Y-115861904D01*
X211404761Y-115957142D01*
X211357142Y-116004761D01*
X211261904Y-116052380D01*
X211119047Y-116052380D01*
X212023809Y-116052380D02*
X211928571Y-116004761D01*
X211880952Y-115909523D01*
X211880952Y-115052380D01*
X212785714Y-116004761D02*
X212690476Y-116052380D01*
X212500000Y-116052380D01*
X212404761Y-116004761D01*
X212357142Y-115909523D01*
X212357142Y-115528571D01*
X212404761Y-115433333D01*
X212500000Y-115385714D01*
X212690476Y-115385714D01*
X212785714Y-115433333D01*
X212833333Y-115528571D01*
X212833333Y-115623809D01*
X212357142Y-115719047D01*
X207538095Y-112852380D02*
X207538095Y-111852380D01*
X207538095Y-112328571D02*
X208109523Y-112328571D01*
X208109523Y-112852380D02*
X208109523Y-111852380D01*
X209014285Y-112185714D02*
X209014285Y-112852380D01*
X208776190Y-111804761D02*
X208538095Y-112519047D01*
X209157142Y-112519047D01*
M02*
