G04 #@! TF.GenerationSoftware,KiCad,Pcbnew,(5.1.10-1-10_14)*
G04 #@! TF.CreationDate,2021-11-20T08:10:03+09:00*
G04 #@! TF.ProjectId,nora,6e6f7261-2e6b-4696-9361-645f70636258,v.0.1*
G04 #@! TF.SameCoordinates,Original*
G04 #@! TF.FileFunction,Soldermask,Top*
G04 #@! TF.FilePolarity,Negative*
%FSLAX46Y46*%
G04 Gerber Fmt 4.6, Leading zero omitted, Abs format (unit mm)*
G04 Created by KiCad (PCBNEW (5.1.10-1-10_14)) date 2021-11-20 08:10:03*
%MOMM*%
%LPD*%
G01*
G04 APERTURE LIST*
%ADD10C,2.100000*%
%ADD11C,2.650000*%
%ADD12C,3.800000*%
%ADD13C,1.600000*%
%ADD14C,2.101800*%
%ADD15C,2.400000*%
%ADD16C,1.400000*%
%ADD17O,5.600000X2.800000*%
%ADD18C,5.200000*%
%ADD19O,2.100000X2.100000*%
%ADD20C,1.900000*%
%ADD21C,2.600000*%
%ADD22O,1.300000X2.100000*%
%ADD23O,1.300000X2.800000*%
%ADD24C,1.100000*%
G04 APERTURE END LIST*
D10*
X210808588Y-103875520D03*
X199808588Y-103875520D03*
D11*
X200308588Y-107675520D03*
X205308588Y-109775520D03*
D12*
X205308588Y-103875520D03*
D13*
X210528588Y-99675520D03*
D11*
X142265616Y-73675520D03*
D14*
X152765616Y-69875520D03*
X141765616Y-69875520D03*
D10*
X152765616Y-69875520D03*
X141765616Y-69875520D03*
D11*
X147265616Y-75775520D03*
D12*
X147265616Y-69875520D03*
D13*
X152485616Y-65675520D03*
D11*
X276210936Y-56675520D03*
D14*
X286710936Y-52875520D03*
X275710936Y-52875520D03*
D10*
X286710936Y-52875520D03*
X275710936Y-52875520D03*
D11*
X281210936Y-58775520D03*
D12*
X281210936Y-52875520D03*
D13*
X286430936Y-48675520D03*
D11*
X294070312Y-73675520D03*
D14*
X304570312Y-69875520D03*
X293570312Y-69875520D03*
D10*
X304570312Y-69875520D03*
X293570312Y-69875520D03*
D11*
X299070312Y-75775520D03*
D12*
X299070312Y-69875520D03*
D13*
X304290312Y-65675520D03*
D11*
X294070312Y-90675520D03*
D14*
X304570312Y-86875520D03*
X293570312Y-86875520D03*
D10*
X304570312Y-86875520D03*
X293570312Y-86875520D03*
D11*
X299070312Y-92775520D03*
D12*
X299070312Y-86875520D03*
D13*
X304290312Y-82675520D03*
D11*
X26179672Y-90675520D03*
D14*
X36679672Y-86875520D03*
X25679672Y-86875520D03*
D10*
X36679672Y-86875520D03*
X25679672Y-86875520D03*
D11*
X31179672Y-92775520D03*
D12*
X31179672Y-86875520D03*
D13*
X36399672Y-82675520D03*
D11*
X133335824Y-112050520D03*
D14*
X143835824Y-108250520D03*
X132835824Y-108250520D03*
D10*
X143835824Y-108250520D03*
X132835824Y-108250520D03*
D11*
X138335824Y-114150520D03*
D12*
X138335824Y-108250520D03*
D13*
X143555824Y-104050520D03*
D11*
X164589704Y-112050520D03*
D14*
X175089704Y-108250520D03*
X164089704Y-108250520D03*
D10*
X175089704Y-108250520D03*
X164089704Y-108250520D03*
D11*
X169589704Y-114150520D03*
D12*
X169589704Y-108250520D03*
D13*
X174809704Y-104050520D03*
D14*
X81328112Y-69875520D03*
X70328112Y-69875520D03*
D10*
X81328112Y-69875520D03*
X70328112Y-69875520D03*
D15*
X70828112Y-73675520D03*
X75828112Y-75775520D03*
D12*
X75828112Y-69875520D03*
D13*
X81048112Y-65675520D03*
D14*
X63468736Y-69875520D03*
X52468736Y-69875520D03*
D10*
X63468736Y-69875520D03*
X52468736Y-69875520D03*
D15*
X52968736Y-73675520D03*
X57968736Y-75775520D03*
D12*
X57968736Y-69875520D03*
D13*
X63188736Y-65675520D03*
D10*
X41144516Y-52875520D03*
X30144516Y-52875520D03*
D15*
X30644516Y-56675520D03*
X35644516Y-58775520D03*
D12*
X35644516Y-52875520D03*
D13*
X40864516Y-48675520D03*
D14*
X36679672Y-35875520D03*
X25679672Y-35875520D03*
D10*
X36679672Y-35875520D03*
X25679672Y-35875520D03*
D15*
X26179672Y-39675520D03*
X31179672Y-41775520D03*
D12*
X31179672Y-35875520D03*
D13*
X36399672Y-31675520D03*
D16*
X31950000Y-68100520D03*
D10*
X125976552Y-103875520D03*
X114976552Y-103875520D03*
D15*
X115476552Y-107675520D03*
X120476552Y-109775520D03*
D12*
X120476552Y-103875520D03*
D13*
X125696552Y-99675520D03*
D10*
X161695304Y-103875520D03*
X150695304Y-103875520D03*
D15*
X151195304Y-107675520D03*
X156195304Y-109775520D03*
D12*
X156195304Y-103875520D03*
D13*
X161415304Y-99675520D03*
D14*
X286710937Y-35875520D03*
X275710937Y-35875520D03*
D10*
X286710937Y-35875520D03*
X275710937Y-35875520D03*
D15*
X276210937Y-39675520D03*
X281210937Y-41775520D03*
D12*
X281210937Y-35875520D03*
D13*
X286430937Y-31675520D03*
D14*
X304570312Y-35875520D03*
X293570312Y-35875520D03*
D10*
X304570312Y-35875520D03*
X293570312Y-35875520D03*
D15*
X294070312Y-39675520D03*
X299070312Y-41775520D03*
D12*
X299070312Y-35875520D03*
D13*
X304290312Y-31675520D03*
D14*
X45609360Y-86875520D03*
X34609360Y-86875520D03*
D10*
X45609360Y-86875520D03*
X34609360Y-86875520D03*
D15*
X35109360Y-90675520D03*
X40109360Y-92775520D03*
D12*
X40109360Y-86875520D03*
D13*
X45329360Y-82675520D03*
D14*
X36679672Y-103875520D03*
X25679672Y-103875520D03*
D10*
X36679672Y-103875520D03*
X25679672Y-103875520D03*
D15*
X26179672Y-107675520D03*
X31179672Y-109775520D03*
D12*
X31179672Y-103875520D03*
D13*
X36399672Y-99675520D03*
D14*
X54539048Y-35875520D03*
X43539048Y-35875520D03*
D10*
X54539048Y-35875520D03*
X43539048Y-35875520D03*
D15*
X44039048Y-39675520D03*
X49039048Y-41775520D03*
D12*
X49039048Y-35875520D03*
D13*
X54259048Y-31675520D03*
D14*
X54539048Y-86875520D03*
X43539048Y-86875520D03*
D10*
X54539048Y-86875520D03*
X43539048Y-86875520D03*
D15*
X44039048Y-90675520D03*
X49039048Y-92775520D03*
D12*
X49039048Y-86875520D03*
D13*
X54259048Y-82675520D03*
D14*
X54539048Y-103875520D03*
X43539048Y-103875520D03*
D10*
X54539048Y-103875520D03*
X43539048Y-103875520D03*
D15*
X44039048Y-107675520D03*
X49039048Y-109775520D03*
D12*
X49039048Y-103875520D03*
D13*
X54259048Y-99675520D03*
D14*
X72398424Y-35875520D03*
X61398424Y-35875520D03*
D10*
X72398424Y-35875520D03*
X61398424Y-35875520D03*
D15*
X61898424Y-39675520D03*
X66898424Y-41775520D03*
D12*
X66898424Y-35875520D03*
D13*
X72118424Y-31675520D03*
D14*
X63468736Y-52875520D03*
X52468736Y-52875520D03*
D10*
X63468736Y-52875520D03*
X52468736Y-52875520D03*
D15*
X52968736Y-56675520D03*
X57968736Y-58775520D03*
D12*
X57968736Y-52875520D03*
D13*
X63188736Y-48675520D03*
D14*
X72398424Y-86875520D03*
X61398424Y-86875520D03*
D10*
X72398424Y-86875520D03*
X61398424Y-86875520D03*
D15*
X61898424Y-90675520D03*
X66898424Y-92775520D03*
D12*
X66898424Y-86875520D03*
D13*
X72118424Y-82675520D03*
D14*
X90257800Y-35875520D03*
X79257800Y-35875520D03*
D10*
X90257800Y-35875520D03*
X79257800Y-35875520D03*
D15*
X79757800Y-39675520D03*
X84757800Y-41775520D03*
D12*
X84757800Y-35875520D03*
D13*
X89977800Y-31675520D03*
D14*
X81328112Y-52875520D03*
X70328112Y-52875520D03*
D10*
X81328112Y-52875520D03*
X70328112Y-52875520D03*
D15*
X70828112Y-56675520D03*
X75828112Y-58775520D03*
D12*
X75828112Y-52875520D03*
D13*
X81048112Y-48675520D03*
D14*
X90257800Y-86875520D03*
X79257800Y-86875520D03*
D10*
X90257800Y-86875520D03*
X79257800Y-86875520D03*
D15*
X79757800Y-90675520D03*
X84757800Y-92775520D03*
D12*
X84757800Y-86875520D03*
D13*
X89977800Y-82675520D03*
D14*
X99187488Y-103875520D03*
X88187488Y-103875520D03*
D10*
X99187488Y-103875520D03*
X88187488Y-103875520D03*
D15*
X88687488Y-107675520D03*
X93687488Y-109775520D03*
D12*
X93687488Y-103875520D03*
D13*
X98907488Y-99675520D03*
D14*
X108117176Y-35875520D03*
X97117176Y-35875520D03*
D10*
X108117176Y-35875520D03*
X97117176Y-35875520D03*
D15*
X97617176Y-39675520D03*
X102617176Y-41775520D03*
D12*
X102617176Y-35875520D03*
D13*
X107837176Y-31675520D03*
D14*
X99187488Y-52875520D03*
X88187488Y-52875520D03*
D10*
X99187488Y-52875520D03*
X88187488Y-52875520D03*
D15*
X88687488Y-56675520D03*
X93687488Y-58775520D03*
D12*
X93687488Y-52875520D03*
D13*
X98907488Y-48675520D03*
D14*
X99187488Y-69875520D03*
X88187488Y-69875520D03*
D10*
X99187488Y-69875520D03*
X88187488Y-69875520D03*
D15*
X88687488Y-73675520D03*
X93687488Y-75775520D03*
D12*
X93687488Y-69875520D03*
D13*
X98907488Y-65675520D03*
D14*
X108117176Y-86875520D03*
X97117176Y-86875520D03*
D10*
X108117176Y-86875520D03*
X97117176Y-86875520D03*
D15*
X97617176Y-90675520D03*
X102617176Y-92775520D03*
D12*
X102617176Y-86875520D03*
D13*
X107837176Y-82675520D03*
D14*
X125976552Y-35875520D03*
X114976552Y-35875520D03*
D10*
X125976552Y-35875520D03*
X114976552Y-35875520D03*
D15*
X115476552Y-39675520D03*
X120476552Y-41775520D03*
D12*
X120476552Y-35875520D03*
D13*
X125696552Y-31675520D03*
D14*
X117046864Y-52875520D03*
X106046864Y-52875520D03*
D10*
X117046864Y-52875520D03*
X106046864Y-52875520D03*
D15*
X106546864Y-56675520D03*
X111546864Y-58775520D03*
D12*
X111546864Y-52875520D03*
D13*
X116766864Y-48675520D03*
D14*
X117046864Y-69875520D03*
X106046864Y-69875520D03*
D10*
X117046864Y-69875520D03*
X106046864Y-69875520D03*
D15*
X106546864Y-73675520D03*
X111546864Y-75775520D03*
D12*
X111546864Y-69875520D03*
D13*
X116766864Y-65675520D03*
D14*
X125976552Y-86875520D03*
X114976552Y-86875520D03*
D10*
X125976552Y-86875520D03*
X114976552Y-86875520D03*
D15*
X115476552Y-90675520D03*
X120476552Y-92775520D03*
D12*
X120476552Y-86875520D03*
D13*
X125696552Y-82675520D03*
D14*
X143835928Y-35875520D03*
X132835928Y-35875520D03*
D10*
X143835928Y-35875520D03*
X132835928Y-35875520D03*
D15*
X133335928Y-39675520D03*
X138335928Y-41775520D03*
D12*
X138335928Y-35875520D03*
D13*
X143555928Y-31675520D03*
D14*
X134906240Y-52875520D03*
X123906240Y-52875520D03*
D10*
X134906240Y-52875520D03*
X123906240Y-52875520D03*
D15*
X124406240Y-56675520D03*
X129406240Y-58775520D03*
D12*
X129406240Y-52875520D03*
D13*
X134626240Y-48675520D03*
D14*
X134906240Y-69875520D03*
X123906240Y-69875520D03*
D10*
X134906240Y-69875520D03*
X123906240Y-69875520D03*
D15*
X124406240Y-73675520D03*
X129406240Y-75775520D03*
D12*
X129406240Y-69875520D03*
D13*
X134626240Y-65675520D03*
D14*
X143835928Y-86875520D03*
X132835928Y-86875520D03*
D10*
X143835928Y-86875520D03*
X132835928Y-86875520D03*
D15*
X133335928Y-90675520D03*
X138335928Y-92775520D03*
D12*
X138335928Y-86875520D03*
D13*
X143555928Y-82675520D03*
D14*
X161695304Y-35875520D03*
X150695304Y-35875520D03*
D10*
X161695304Y-35875520D03*
X150695304Y-35875520D03*
D15*
X151195304Y-39675520D03*
X156195304Y-41775520D03*
D12*
X156195304Y-35875520D03*
D13*
X161415304Y-31675520D03*
D14*
X152765616Y-52875520D03*
X141765616Y-52875520D03*
D10*
X152765616Y-52875520D03*
X141765616Y-52875520D03*
D15*
X142265616Y-56675520D03*
X147265616Y-58775520D03*
D12*
X147265616Y-52875520D03*
D13*
X152485616Y-48675520D03*
D14*
X161695320Y-86875520D03*
X150695320Y-86875520D03*
D10*
X161695320Y-86875520D03*
X150695320Y-86875520D03*
D15*
X151195320Y-90675520D03*
X156195320Y-92775520D03*
D12*
X156195320Y-86875520D03*
D13*
X161415320Y-82675520D03*
D14*
X179554680Y-35875520D03*
X168554680Y-35875520D03*
D10*
X179554680Y-35875520D03*
X168554680Y-35875520D03*
D15*
X169054680Y-39675520D03*
X174054680Y-41775520D03*
D12*
X174054680Y-35875520D03*
D13*
X179274680Y-31675520D03*
D14*
X170624992Y-52875520D03*
X159624992Y-52875520D03*
D10*
X170624992Y-52875520D03*
X159624992Y-52875520D03*
D15*
X160124992Y-56675520D03*
X165124992Y-58775520D03*
D12*
X165124992Y-52875520D03*
D13*
X170344992Y-48675520D03*
D14*
X170624992Y-69875520D03*
X159624992Y-69875520D03*
D10*
X170624992Y-69875520D03*
X159624992Y-69875520D03*
D15*
X160124992Y-73675520D03*
X165124992Y-75775520D03*
D12*
X165124992Y-69875520D03*
D13*
X170344992Y-65675520D03*
D14*
X179554680Y-86875520D03*
X168554680Y-86875520D03*
D10*
X179554680Y-86875520D03*
X168554680Y-86875520D03*
D15*
X169054680Y-90675520D03*
X174054680Y-92775520D03*
D12*
X174054680Y-86875520D03*
D13*
X179274680Y-82675520D03*
D14*
X197414056Y-35875520D03*
X186414056Y-35875520D03*
D10*
X197414056Y-35875520D03*
X186414056Y-35875520D03*
D15*
X186914056Y-39675520D03*
X191914056Y-41775520D03*
D12*
X191914056Y-35875520D03*
D13*
X197134056Y-31675520D03*
D14*
X188484368Y-52875520D03*
X177484368Y-52875520D03*
D10*
X188484368Y-52875520D03*
X177484368Y-52875520D03*
D15*
X177984368Y-56675520D03*
X182984368Y-58775520D03*
D12*
X182984368Y-52875520D03*
D13*
X188204368Y-48675520D03*
D14*
X188484368Y-69875520D03*
X177484368Y-69875520D03*
D10*
X188484368Y-69875520D03*
X177484368Y-69875520D03*
D15*
X177984368Y-73675520D03*
X182984368Y-75775520D03*
D12*
X182984368Y-69875520D03*
D13*
X188204368Y-65675520D03*
D14*
X197414056Y-86875520D03*
X186414056Y-86875520D03*
D10*
X197414056Y-86875520D03*
X186414056Y-86875520D03*
D15*
X186914056Y-90675520D03*
X191914056Y-92775520D03*
D12*
X191914056Y-86875520D03*
D13*
X197134056Y-82675520D03*
D14*
X188484368Y-103875520D03*
X177484368Y-103875520D03*
D10*
X188484368Y-103875520D03*
X177484368Y-103875520D03*
D15*
X177984368Y-107675520D03*
X182984368Y-109775520D03*
D12*
X182984368Y-103875520D03*
D13*
X188204368Y-99675520D03*
D14*
X215273432Y-35875520D03*
X204273432Y-35875520D03*
D10*
X215273432Y-35875520D03*
X204273432Y-35875520D03*
D15*
X204773432Y-39675520D03*
X209773432Y-41775520D03*
D12*
X209773432Y-35875520D03*
D13*
X214993432Y-31675520D03*
D14*
X206343744Y-52875520D03*
X195343744Y-52875520D03*
D10*
X206343744Y-52875520D03*
X195343744Y-52875520D03*
D15*
X195843744Y-56675520D03*
X200843744Y-58775520D03*
D12*
X200843744Y-52875520D03*
D13*
X206063744Y-48675520D03*
D14*
X206343744Y-69875520D03*
X195343744Y-69875520D03*
D10*
X206343744Y-69875520D03*
X195343744Y-69875520D03*
D15*
X195843744Y-73675520D03*
X200843744Y-75775520D03*
D12*
X200843744Y-69875520D03*
D13*
X206063744Y-65675520D03*
D14*
X215273432Y-86875520D03*
X204273432Y-86875520D03*
D10*
X215273432Y-86875520D03*
X204273432Y-86875520D03*
D15*
X204773432Y-90675520D03*
X209773432Y-92775520D03*
D12*
X209773432Y-86875520D03*
D13*
X214993432Y-82675520D03*
D14*
X233132808Y-35875520D03*
X222132808Y-35875520D03*
D10*
X233132808Y-35875520D03*
X222132808Y-35875520D03*
D15*
X222632808Y-39675520D03*
X227632808Y-41775520D03*
D12*
X227632808Y-35875520D03*
D13*
X232852808Y-31675520D03*
D14*
X224203120Y-52875520D03*
X213203120Y-52875520D03*
D10*
X224203120Y-52875520D03*
X213203120Y-52875520D03*
D15*
X213703120Y-56675520D03*
X218703120Y-58775520D03*
D12*
X218703120Y-52875520D03*
D13*
X223923120Y-48675520D03*
D14*
X224203120Y-69875520D03*
X213203120Y-69875520D03*
D10*
X224203120Y-69875520D03*
X213203120Y-69875520D03*
D15*
X213703120Y-73675520D03*
X218703120Y-75775520D03*
D12*
X218703120Y-69875520D03*
D13*
X223923120Y-65675520D03*
D14*
X233132808Y-86875520D03*
X222132808Y-86875520D03*
D10*
X233132808Y-86875520D03*
X222132808Y-86875520D03*
D15*
X222632808Y-90675520D03*
X227632808Y-92775520D03*
D12*
X227632808Y-86875520D03*
D13*
X232852808Y-82675520D03*
D14*
X233132808Y-108125520D03*
X222132808Y-108125520D03*
D10*
X233132808Y-108125520D03*
X222132808Y-108125520D03*
D15*
X222632808Y-111925520D03*
X227632808Y-114025520D03*
D12*
X227632808Y-108125520D03*
D13*
X232852808Y-103925520D03*
D14*
X250992187Y-35875520D03*
X239992187Y-35875520D03*
D10*
X250992187Y-35875520D03*
X239992187Y-35875520D03*
D15*
X240492187Y-39675520D03*
X245492187Y-41775520D03*
D12*
X245492187Y-35875520D03*
D13*
X250712187Y-31675520D03*
D14*
X250992184Y-91125520D03*
X239992184Y-91125520D03*
D10*
X250992184Y-91125520D03*
X239992184Y-91125520D03*
D15*
X240492184Y-94925520D03*
X245492184Y-97025520D03*
D12*
X245492184Y-91125520D03*
D13*
X250712184Y-86925520D03*
D14*
X250992184Y-108125520D03*
X239992184Y-108125520D03*
D10*
X250992184Y-108125520D03*
X239992184Y-108125520D03*
D15*
X240492184Y-111925520D03*
X245492184Y-114025520D03*
D12*
X245492184Y-108125520D03*
D13*
X250712184Y-103925520D03*
D14*
X268851560Y-35875520D03*
X257851560Y-35875520D03*
D10*
X268851560Y-35875520D03*
X257851560Y-35875520D03*
D15*
X258351560Y-39675520D03*
X263351560Y-41775520D03*
D12*
X263351560Y-35875520D03*
D13*
X268571560Y-31675520D03*
D14*
X268851560Y-52875520D03*
X257851560Y-52875520D03*
D10*
X268851560Y-52875520D03*
X257851560Y-52875520D03*
D15*
X258351560Y-56675520D03*
X263351560Y-58775520D03*
D12*
X263351560Y-52875520D03*
D13*
X268571560Y-48675520D03*
D14*
X268851560Y-69875520D03*
X257851560Y-69875520D03*
D10*
X268851560Y-69875520D03*
X257851560Y-69875520D03*
D15*
X258351560Y-73675520D03*
X263351560Y-75775520D03*
D12*
X263351560Y-69875520D03*
D13*
X268571560Y-65675520D03*
D14*
X268851560Y-86875520D03*
X257851560Y-86875520D03*
D10*
X268851560Y-86875520D03*
X257851560Y-86875520D03*
D15*
X258351560Y-90675520D03*
X263351560Y-92775520D03*
D12*
X263351560Y-86875520D03*
D13*
X268571560Y-82675520D03*
D14*
X268851560Y-108125520D03*
X257851560Y-108125520D03*
D10*
X268851560Y-108125520D03*
X257851560Y-108125520D03*
D15*
X258351560Y-111925520D03*
X263351560Y-114025520D03*
D12*
X263351560Y-108125520D03*
D13*
X268571560Y-103925520D03*
D14*
X286710936Y-69875520D03*
X275710936Y-69875520D03*
D10*
X286710936Y-69875520D03*
X275710936Y-69875520D03*
D15*
X276210936Y-73675520D03*
X281210936Y-75775520D03*
D12*
X281210936Y-69875520D03*
D13*
X286430936Y-65675520D03*
D14*
X286710936Y-86875520D03*
X275710936Y-86875520D03*
D10*
X286710936Y-86875520D03*
X275710936Y-86875520D03*
D15*
X276210936Y-90675520D03*
X281210936Y-92775520D03*
D12*
X281210936Y-86875520D03*
D13*
X286430936Y-82675520D03*
D14*
X286710936Y-103875520D03*
X275710936Y-103875520D03*
D10*
X286710936Y-103875520D03*
X275710936Y-103875520D03*
D15*
X276210936Y-107675520D03*
X281210936Y-109775520D03*
D12*
X281210936Y-103875520D03*
D13*
X286430936Y-99675520D03*
D14*
X304570312Y-52875520D03*
X293570312Y-52875520D03*
D10*
X304570312Y-52875520D03*
X293570312Y-52875520D03*
D15*
X294070312Y-56675520D03*
X299070312Y-58775520D03*
D12*
X299070312Y-52875520D03*
D13*
X304290312Y-48675520D03*
D14*
X304570312Y-103875520D03*
X293570312Y-103875520D03*
D10*
X304570312Y-103875520D03*
X293570312Y-103875520D03*
D15*
X294070312Y-107675520D03*
X299070312Y-109775520D03*
D12*
X299070312Y-103875520D03*
D13*
X304290312Y-99675520D03*
D10*
X76863268Y-103875520D03*
X65863268Y-103875520D03*
D15*
X66363268Y-107675520D03*
X71363268Y-109775520D03*
D12*
X71363268Y-103875520D03*
D13*
X76583268Y-99675520D03*
D10*
X246527340Y-52875520D03*
X235527340Y-52875520D03*
D15*
X236027340Y-56675520D03*
X241027340Y-58775520D03*
D12*
X241027340Y-52875520D03*
D13*
X246247340Y-48675520D03*
D10*
X246527340Y-69875520D03*
X235527340Y-69875520D03*
D15*
X236027340Y-73675520D03*
X241027340Y-75775520D03*
D12*
X241027340Y-69875520D03*
D13*
X246247340Y-65675520D03*
D17*
X150800000Y-69550000D03*
X213100000Y-107750000D03*
X282650000Y-50450000D03*
D16*
X49050000Y-51800000D03*
X46450000Y-51750000D03*
X49050000Y-49100000D03*
X46450000Y-49100000D03*
X47800000Y-52350000D03*
X49700000Y-50450000D03*
X45900000Y-50450000D03*
X47800000Y-48550000D03*
D18*
X47800000Y-50450000D03*
D19*
X54390000Y-97300520D03*
G36*
G01*
X51000000Y-96250520D02*
X52700000Y-96250520D01*
G75*
G02*
X52900000Y-96450520I0J-200000D01*
G01*
X52900000Y-98150520D01*
G75*
G02*
X52700000Y-98350520I-200000J0D01*
G01*
X51000000Y-98350520D01*
G75*
G02*
X50800000Y-98150520I0J200000D01*
G01*
X50800000Y-96450520D01*
G75*
G02*
X51000000Y-96250520I200000J0D01*
G01*
G37*
X53970000Y-39860520D03*
X53970000Y-42400520D03*
X56510000Y-39860520D03*
X56510000Y-42400520D03*
X59050000Y-39860520D03*
G36*
G01*
X59900000Y-43450520D02*
X58200000Y-43450520D01*
G75*
G02*
X58000000Y-43250520I0J200000D01*
G01*
X58000000Y-41550520D01*
G75*
G02*
X58200000Y-41350520I200000J0D01*
G01*
X59900000Y-41350520D01*
G75*
G02*
X60100000Y-41550520I0J-200000D01*
G01*
X60100000Y-43250520D01*
G75*
G02*
X59900000Y-43450520I-200000J0D01*
G01*
G37*
D20*
X123175000Y-109775520D03*
X230475000Y-114000520D03*
X248100000Y-114025520D03*
X96400000Y-109775520D03*
X185675000Y-109775520D03*
X158775000Y-109775520D03*
X283925000Y-109775520D03*
X35150000Y-109775520D03*
D21*
X117500000Y-26800000D03*
X212750000Y-26800000D03*
X106450000Y-112400000D03*
X208000000Y-112400000D03*
D22*
X45100000Y-23830000D03*
X36450000Y-23830000D03*
D23*
X45100000Y-27210000D03*
X36450000Y-27210000D03*
D24*
X41200000Y-26840000D03*
X43750000Y-26840000D03*
X42900000Y-26840000D03*
X42050000Y-26840000D03*
X37800000Y-26840000D03*
X39500000Y-26840000D03*
X40350000Y-26840000D03*
X38650000Y-26840000D03*
X43750000Y-28190000D03*
X42900000Y-28190000D03*
X42050000Y-28190000D03*
X41200000Y-28190000D03*
X40350000Y-28190000D03*
X39500000Y-28190000D03*
X38650000Y-28190000D03*
X37800000Y-28190000D03*
D20*
X304550000Y-38500520D03*
X304550000Y-55500520D03*
X304550000Y-63325520D03*
X304550000Y-89300520D03*
X304550000Y-106400520D03*
X304550000Y-41100520D03*
X304550000Y-58100520D03*
X304550000Y-72675520D03*
X304550000Y-91900520D03*
X304550000Y-109000520D03*
D12*
X35644516Y-69875520D03*
D15*
X35644516Y-75775520D03*
X30644516Y-73675520D03*
D10*
X30144516Y-69875520D03*
X41144516Y-69875520D03*
M02*
