G04 #@! TF.GenerationSoftware,KiCad,Pcbnew,(5.1.10-1-10_14)*
G04 #@! TF.CreationDate,2021-12-13T21:26:31+09:00*
G04 #@! TF.ProjectId,nora,6e6f7261-2e6b-4696-9361-645f70636258,DN:0020*
G04 #@! TF.SameCoordinates,Original*
G04 #@! TF.FileFunction,Legend,Top*
G04 #@! TF.FilePolarity,Positive*
%FSLAX46Y46*%
G04 Gerber Fmt 4.6, Leading zero omitted, Abs format (unit mm)*
G04 Created by KiCad (PCBNEW (5.1.10-1-10_14)) date 2021-12-13 21:26:31*
%MOMM*%
%LPD*%
G01*
G04 APERTURE LIST*
%ADD10C,0.500000*%
%ADD11C,0.120000*%
%ADD12C,0.060000*%
%ADD13C,0.200000*%
%ADD14C,0.100000*%
%ADD15O,2.100000X2.100000*%
%ADD16C,3.400000*%
%ADD17C,2.100000*%
%ADD18C,3.800000*%
%ADD19C,1.600000*%
%ADD20C,3.829000*%
%ADD21O,1.300000X2.100000*%
%ADD22O,1.300000X2.800000*%
%ADD23C,1.100000*%
%ADD24C,1.400000*%
%ADD25O,5.600000X2.800000*%
%ADD26C,5.200000*%
%ADD27C,1.900000*%
%ADD28C,2.600000*%
G04 APERTURE END LIST*
D10*
X145083729Y-69453996D02*
G75*
G02*
X145865000Y-68150520I2181271J-421524D01*
G01*
X146819964Y-67700217D02*
G75*
G02*
X148565000Y-68075520I445036J-2175303D01*
G01*
X148869912Y-71452663D02*
G75*
G02*
X147265000Y-72125658I-1604912J1577143D01*
G01*
X146118623Y-71772513D02*
G75*
G02*
X145115000Y-70500520I1096377J1896993D01*
G01*
X154140036Y-69875520D02*
G75*
G03*
X154140036Y-69875520I-1375036J0D01*
G01*
X283445090Y-52875520D02*
G75*
G03*
X283445090Y-52875520I-2230090J0D01*
G01*
D11*
X206629672Y-34325520D02*
X205629672Y-36125520D01*
X206029672Y-36325520D02*
X207004672Y-34550520D01*
D12*
X206379672Y-34775520D02*
X206879672Y-34775520D01*
X206279672Y-34975520D02*
X206779672Y-34975520D01*
X206179672Y-35175520D02*
X206679672Y-35175520D01*
X206079672Y-35375520D02*
X206579672Y-35375520D01*
X205979672Y-35575520D02*
X206429672Y-35575520D01*
X205829672Y-35775520D02*
X206329672Y-35775520D01*
X205729672Y-35975520D02*
X206229672Y-35975520D01*
X206854672Y-34075520D02*
X207129672Y-34275520D01*
X207104672Y-34100520D02*
X206879672Y-34250520D01*
D11*
X206029671Y-36325519D02*
G75*
G02*
X205629673Y-36125519I-99999J299999D01*
G01*
X207949841Y-34748321D02*
G75*
G02*
X206054672Y-33750520I104831J2497801D01*
G01*
X206079672Y-33725520D02*
G75*
G02*
X207957245Y-34735255I182087J-1911929D01*
G01*
X117229672Y-34525520D02*
X116229672Y-36325520D01*
X116629672Y-36525520D02*
X117604672Y-34750520D01*
D12*
X116979672Y-34975520D02*
X117479672Y-34975520D01*
X116879672Y-35175520D02*
X117379672Y-35175520D01*
X116779672Y-35375520D02*
X117279672Y-35375520D01*
X116679672Y-35575520D02*
X117179672Y-35575520D01*
X116579672Y-35775520D02*
X117029672Y-35775520D01*
X116429672Y-35975520D02*
X116929672Y-35975520D01*
X116329672Y-36175520D02*
X116829672Y-36175520D01*
X117454672Y-34275520D02*
X117729672Y-34475520D01*
X117704672Y-34300520D02*
X117479672Y-34450520D01*
D11*
X116629671Y-36525519D02*
G75*
G02*
X116229673Y-36325519I-99999J299999D01*
G01*
X118549841Y-34948321D02*
G75*
G02*
X116654672Y-33950520I104831J2497801D01*
G01*
X116679672Y-33925520D02*
G75*
G02*
X118557245Y-34935255I182087J-1911929D01*
G01*
X208329672Y-105025520D02*
X207329672Y-106825520D01*
X207729672Y-107025520D02*
X208704672Y-105250520D01*
D12*
X208079672Y-105475520D02*
X208579672Y-105475520D01*
X207979672Y-105675520D02*
X208479672Y-105675520D01*
X207879672Y-105875520D02*
X208379672Y-105875520D01*
X207779672Y-106075520D02*
X208279672Y-106075520D01*
X207679672Y-106275520D02*
X208129672Y-106275520D01*
X207529672Y-106475520D02*
X208029672Y-106475520D01*
X207429672Y-106675520D02*
X207929672Y-106675520D01*
X208554672Y-104775520D02*
X208829672Y-104975520D01*
X208804672Y-104800520D02*
X208579672Y-104950520D01*
D11*
X207729671Y-107025519D02*
G75*
G02*
X207329673Y-106825519I-99999J299999D01*
G01*
X209649841Y-105448321D02*
G75*
G02*
X207754672Y-104450520I104831J2497801D01*
G01*
X207779672Y-104425520D02*
G75*
G02*
X209657245Y-105435255I182087J-1911929D01*
G01*
X295929672Y-85125520D02*
X294929672Y-86925520D01*
X295329672Y-87125520D02*
X296304672Y-85350520D01*
D12*
X295679672Y-85575520D02*
X296179672Y-85575520D01*
X295579672Y-85775520D02*
X296079672Y-85775520D01*
X295479672Y-85975520D02*
X295979672Y-85975520D01*
X295379672Y-86175520D02*
X295879672Y-86175520D01*
X295279672Y-86375520D02*
X295729672Y-86375520D01*
X295129672Y-86575520D02*
X295629672Y-86575520D01*
X295029672Y-86775520D02*
X295529672Y-86775520D01*
X296154672Y-84875520D02*
X296429672Y-85075520D01*
X296404672Y-84900520D02*
X296179672Y-85050520D01*
D11*
X295329671Y-87125519D02*
G75*
G02*
X294929673Y-86925519I-99999J299999D01*
G01*
X297249841Y-85548321D02*
G75*
G02*
X295354672Y-84550520I104831J2497801D01*
G01*
X295379672Y-84525520D02*
G75*
G02*
X297257245Y-85535255I182087J-1911929D01*
G01*
X295929672Y-68225520D02*
X294929672Y-70025520D01*
X295329672Y-70225520D02*
X296304672Y-68450520D01*
D12*
X295679672Y-68675520D02*
X296179672Y-68675520D01*
X295579672Y-68875520D02*
X296079672Y-68875520D01*
X295479672Y-69075520D02*
X295979672Y-69075520D01*
X295379672Y-69275520D02*
X295879672Y-69275520D01*
X295279672Y-69475520D02*
X295729672Y-69475520D01*
X295129672Y-69675520D02*
X295629672Y-69675520D01*
X295029672Y-69875520D02*
X295529672Y-69875520D01*
X296154672Y-67975520D02*
X296429672Y-68175520D01*
X296404672Y-68000520D02*
X296179672Y-68150520D01*
D11*
X295329671Y-70225519D02*
G75*
G02*
X294929673Y-70025519I-99999J299999D01*
G01*
X297249841Y-68648321D02*
G75*
G02*
X295354672Y-67650520I104831J2497801D01*
G01*
X295379672Y-67625520D02*
G75*
G02*
X297257245Y-68635255I182087J-1911929D01*
G01*
X277904672Y-50125520D02*
X276904672Y-51925520D01*
X277304672Y-52125520D02*
X278279672Y-50350520D01*
D12*
X277654672Y-50575520D02*
X278154672Y-50575520D01*
X277554672Y-50775520D02*
X278054672Y-50775520D01*
X277454672Y-50975520D02*
X277954672Y-50975520D01*
X277354672Y-51175520D02*
X277854672Y-51175520D01*
X277254672Y-51375520D02*
X277704672Y-51375520D01*
X277104672Y-51575520D02*
X277604672Y-51575520D01*
X277004672Y-51775520D02*
X277504672Y-51775520D01*
X278129672Y-49875520D02*
X278404672Y-50075520D01*
X278379672Y-49900520D02*
X278154672Y-50050520D01*
D11*
X277304671Y-52125519D02*
G75*
G02*
X276904673Y-51925519I-99999J299999D01*
G01*
X279224841Y-50548321D02*
G75*
G02*
X277329672Y-49550520I104831J2497801D01*
G01*
X277354672Y-49525520D02*
G75*
G02*
X279232245Y-50535255I182087J-1911929D01*
G01*
X144029672Y-67625520D02*
X143029672Y-69425520D01*
X143429672Y-69625520D02*
X144404672Y-67850520D01*
D12*
X143779672Y-68075520D02*
X144279672Y-68075520D01*
X143679672Y-68275520D02*
X144179672Y-68275520D01*
X143579672Y-68475520D02*
X144079672Y-68475520D01*
X143479672Y-68675520D02*
X143979672Y-68675520D01*
X143379672Y-68875520D02*
X143829672Y-68875520D01*
X143229672Y-69075520D02*
X143729672Y-69075520D01*
X143129672Y-69275520D02*
X143629672Y-69275520D01*
X144254672Y-67375520D02*
X144529672Y-67575520D01*
X144504672Y-67400520D02*
X144279672Y-67550520D01*
D11*
X143429671Y-69625519D02*
G75*
G02*
X143029673Y-69425519I-99999J299999D01*
G01*
X145349841Y-68048321D02*
G75*
G02*
X143454672Y-67050520I104831J2497801D01*
G01*
X143479672Y-67025520D02*
G75*
G02*
X145357245Y-68035255I182087J-1911929D01*
G01*
X28304672Y-84800520D02*
X27304672Y-86600520D01*
X27704672Y-86800520D02*
X28679672Y-85025520D01*
D12*
X28054672Y-85250520D02*
X28554672Y-85250520D01*
X27954672Y-85450520D02*
X28454672Y-85450520D01*
X27854672Y-85650520D02*
X28354672Y-85650520D01*
X27754672Y-85850520D02*
X28254672Y-85850520D01*
X27654672Y-86050520D02*
X28104672Y-86050520D01*
X27504672Y-86250520D02*
X28004672Y-86250520D01*
X27404672Y-86450520D02*
X27904672Y-86450520D01*
X28529672Y-84550520D02*
X28804672Y-84750520D01*
X28779672Y-84575520D02*
X28554672Y-84725520D01*
D11*
X27754672Y-84200520D02*
G75*
G02*
X29632245Y-85210255I182087J-1911929D01*
G01*
X29624841Y-85223321D02*
G75*
G02*
X27729672Y-84225520I104831J2497801D01*
G01*
X27704671Y-86800519D02*
G75*
G02*
X27304673Y-86600519I-99999J299999D01*
G01*
D13*
X285496425Y-55646945D02*
G75*
G03*
X285496425Y-55646945I-315000J0D01*
G01*
X284256425Y-55650520D02*
G75*
G03*
X284256425Y-55650520I-316425J0D01*
G01*
X284265000Y-55675520D02*
X285180000Y-53405520D01*
X284865000Y-55675520D02*
X283980000Y-53405520D01*
X151296425Y-73646945D02*
G75*
G03*
X151296425Y-73646945I-315000J0D01*
G01*
X150056425Y-73650520D02*
G75*
G03*
X150056425Y-73650520I-316425J0D01*
G01*
X150065000Y-73675520D02*
X150980000Y-71405520D01*
X150665000Y-73675520D02*
X149780000Y-71405520D01*
D14*
G36*
X297365000Y-28975520D02*
G01*
X292565000Y-28975520D01*
X292565000Y-33375520D01*
X297365000Y-33375520D01*
X297365000Y-28975520D01*
G37*
X297365000Y-28975520D02*
X292565000Y-28975520D01*
X292565000Y-33375520D01*
X297365000Y-33375520D01*
X297365000Y-28975520D01*
G36*
X305565000Y-28975520D02*
G01*
X300765000Y-28975520D01*
X300765000Y-33375520D01*
X305565000Y-33375520D01*
X305565000Y-28975520D01*
G37*
X305565000Y-28975520D02*
X300765000Y-28975520D01*
X300765000Y-33375520D01*
X305565000Y-33375520D01*
X305565000Y-28975520D01*
G36*
X300765000Y-32675520D02*
G01*
X297365000Y-32675520D01*
X297365000Y-33375520D01*
X300765000Y-33375520D01*
X300765000Y-32675520D01*
G37*
X300765000Y-32675520D02*
X297365000Y-32675520D01*
X297365000Y-33375520D01*
X300765000Y-33375520D01*
X300765000Y-32675520D01*
G36*
X300765000Y-28975520D02*
G01*
X297365000Y-28975520D01*
X297365000Y-29675520D01*
X300765000Y-29675520D01*
X300765000Y-28975520D01*
G37*
X300765000Y-28975520D02*
X297365000Y-28975520D01*
X297365000Y-29675520D01*
X300765000Y-29675520D01*
X300765000Y-28975520D01*
G36*
X29475000Y-38375520D02*
G01*
X24675000Y-38375520D01*
X24675000Y-42775520D01*
X29475000Y-42775520D01*
X29475000Y-38375520D01*
G37*
X29475000Y-38375520D02*
X24675000Y-38375520D01*
X24675000Y-42775520D01*
X29475000Y-42775520D01*
X29475000Y-38375520D01*
G36*
X37675000Y-38375520D02*
G01*
X32875000Y-38375520D01*
X32875000Y-42775520D01*
X37675000Y-42775520D01*
X37675000Y-38375520D01*
G37*
X37675000Y-38375520D02*
X32875000Y-38375520D01*
X32875000Y-42775520D01*
X37675000Y-42775520D01*
X37675000Y-38375520D01*
G36*
X32875000Y-42075520D02*
G01*
X29475000Y-42075520D01*
X29475000Y-42775520D01*
X32875000Y-42775520D01*
X32875000Y-42075520D01*
G37*
X32875000Y-42075520D02*
X29475000Y-42075520D01*
X29475000Y-42775520D01*
X32875000Y-42775520D01*
X32875000Y-42075520D01*
G36*
X32875000Y-38375520D02*
G01*
X29475000Y-38375520D01*
X29475000Y-39075520D01*
X32875000Y-39075520D01*
X32875000Y-38375520D01*
G37*
X32875000Y-38375520D02*
X29475000Y-38375520D01*
X29475000Y-39075520D01*
X32875000Y-39075520D01*
X32875000Y-38375520D01*
G36*
X50734333Y-28975520D02*
G01*
X47334333Y-28975520D01*
X47334333Y-29675520D01*
X50734333Y-29675520D01*
X50734333Y-28975520D01*
G37*
X50734333Y-28975520D02*
X47334333Y-28975520D01*
X47334333Y-29675520D01*
X50734333Y-29675520D01*
X50734333Y-28975520D01*
G36*
X50734333Y-32675520D02*
G01*
X47334333Y-32675520D01*
X47334333Y-33375520D01*
X50734333Y-33375520D01*
X50734333Y-32675520D01*
G37*
X50734333Y-32675520D02*
X47334333Y-32675520D01*
X47334333Y-33375520D01*
X50734333Y-33375520D01*
X50734333Y-32675520D01*
G36*
X55534333Y-28975520D02*
G01*
X50734333Y-28975520D01*
X50734333Y-33375520D01*
X55534333Y-33375520D01*
X55534333Y-28975520D01*
G37*
X55534333Y-28975520D02*
X50734333Y-28975520D01*
X50734333Y-33375520D01*
X55534333Y-33375520D01*
X55534333Y-28975520D01*
G36*
X47334333Y-28975520D02*
G01*
X42534333Y-28975520D01*
X42534333Y-33375520D01*
X47334333Y-33375520D01*
X47334333Y-28975520D01*
G37*
X47334333Y-28975520D02*
X42534333Y-28975520D01*
X42534333Y-33375520D01*
X47334333Y-33375520D01*
X47334333Y-28975520D01*
G36*
X65193666Y-28975520D02*
G01*
X60393666Y-28975520D01*
X60393666Y-33375520D01*
X65193666Y-33375520D01*
X65193666Y-28975520D01*
G37*
X65193666Y-28975520D02*
X60393666Y-28975520D01*
X60393666Y-33375520D01*
X65193666Y-33375520D01*
X65193666Y-28975520D01*
G36*
X73393666Y-28975520D02*
G01*
X68593666Y-28975520D01*
X68593666Y-33375520D01*
X73393666Y-33375520D01*
X73393666Y-28975520D01*
G37*
X73393666Y-28975520D02*
X68593666Y-28975520D01*
X68593666Y-33375520D01*
X73393666Y-33375520D01*
X73393666Y-28975520D01*
G36*
X68593666Y-32675520D02*
G01*
X65193666Y-32675520D01*
X65193666Y-33375520D01*
X68593666Y-33375520D01*
X68593666Y-32675520D01*
G37*
X68593666Y-32675520D02*
X65193666Y-32675520D01*
X65193666Y-33375520D01*
X68593666Y-33375520D01*
X68593666Y-32675520D01*
G36*
X68593666Y-28975520D02*
G01*
X65193666Y-28975520D01*
X65193666Y-29675520D01*
X68593666Y-29675520D01*
X68593666Y-28975520D01*
G37*
X68593666Y-28975520D02*
X65193666Y-28975520D01*
X65193666Y-29675520D01*
X68593666Y-29675520D01*
X68593666Y-28975520D01*
G36*
X86452999Y-28975520D02*
G01*
X83052999Y-28975520D01*
X83052999Y-29675520D01*
X86452999Y-29675520D01*
X86452999Y-28975520D01*
G37*
X86452999Y-28975520D02*
X83052999Y-28975520D01*
X83052999Y-29675520D01*
X86452999Y-29675520D01*
X86452999Y-28975520D01*
G36*
X86452999Y-32675520D02*
G01*
X83052999Y-32675520D01*
X83052999Y-33375520D01*
X86452999Y-33375520D01*
X86452999Y-32675520D01*
G37*
X86452999Y-32675520D02*
X83052999Y-32675520D01*
X83052999Y-33375520D01*
X86452999Y-33375520D01*
X86452999Y-32675520D01*
G36*
X91252999Y-28975520D02*
G01*
X86452999Y-28975520D01*
X86452999Y-33375520D01*
X91252999Y-33375520D01*
X91252999Y-28975520D01*
G37*
X91252999Y-28975520D02*
X86452999Y-28975520D01*
X86452999Y-33375520D01*
X91252999Y-33375520D01*
X91252999Y-28975520D01*
G36*
X83052999Y-28975520D02*
G01*
X78252999Y-28975520D01*
X78252999Y-33375520D01*
X83052999Y-33375520D01*
X83052999Y-28975520D01*
G37*
X83052999Y-28975520D02*
X78252999Y-28975520D01*
X78252999Y-33375520D01*
X83052999Y-33375520D01*
X83052999Y-28975520D01*
G36*
X100912332Y-28975520D02*
G01*
X96112332Y-28975520D01*
X96112332Y-33375520D01*
X100912332Y-33375520D01*
X100912332Y-28975520D01*
G37*
X100912332Y-28975520D02*
X96112332Y-28975520D01*
X96112332Y-33375520D01*
X100912332Y-33375520D01*
X100912332Y-28975520D01*
G36*
X109112332Y-28975520D02*
G01*
X104312332Y-28975520D01*
X104312332Y-33375520D01*
X109112332Y-33375520D01*
X109112332Y-28975520D01*
G37*
X109112332Y-28975520D02*
X104312332Y-28975520D01*
X104312332Y-33375520D01*
X109112332Y-33375520D01*
X109112332Y-28975520D01*
G36*
X104312332Y-32675520D02*
G01*
X100912332Y-32675520D01*
X100912332Y-33375520D01*
X104312332Y-33375520D01*
X104312332Y-32675520D01*
G37*
X104312332Y-32675520D02*
X100912332Y-32675520D01*
X100912332Y-33375520D01*
X104312332Y-33375520D01*
X104312332Y-32675520D01*
G36*
X104312332Y-28975520D02*
G01*
X100912332Y-28975520D01*
X100912332Y-29675520D01*
X104312332Y-29675520D01*
X104312332Y-28975520D01*
G37*
X104312332Y-28975520D02*
X100912332Y-28975520D01*
X100912332Y-29675520D01*
X104312332Y-29675520D01*
X104312332Y-28975520D01*
G36*
X122171665Y-28975520D02*
G01*
X118771665Y-28975520D01*
X118771665Y-29675520D01*
X122171665Y-29675520D01*
X122171665Y-28975520D01*
G37*
X122171665Y-28975520D02*
X118771665Y-28975520D01*
X118771665Y-29675520D01*
X122171665Y-29675520D01*
X122171665Y-28975520D01*
G36*
X122171665Y-32675520D02*
G01*
X118771665Y-32675520D01*
X118771665Y-33375520D01*
X122171665Y-33375520D01*
X122171665Y-32675520D01*
G37*
X122171665Y-32675520D02*
X118771665Y-32675520D01*
X118771665Y-33375520D01*
X122171665Y-33375520D01*
X122171665Y-32675520D01*
G36*
X126971665Y-28975520D02*
G01*
X122171665Y-28975520D01*
X122171665Y-33375520D01*
X126971665Y-33375520D01*
X126971665Y-28975520D01*
G37*
X126971665Y-28975520D02*
X122171665Y-28975520D01*
X122171665Y-33375520D01*
X126971665Y-33375520D01*
X126971665Y-28975520D01*
G36*
X118771665Y-28975520D02*
G01*
X113971665Y-28975520D01*
X113971665Y-33375520D01*
X118771665Y-33375520D01*
X118771665Y-28975520D01*
G37*
X118771665Y-28975520D02*
X113971665Y-28975520D01*
X113971665Y-33375520D01*
X118771665Y-33375520D01*
X118771665Y-28975520D01*
G36*
X136630998Y-28975520D02*
G01*
X131830998Y-28975520D01*
X131830998Y-33375520D01*
X136630998Y-33375520D01*
X136630998Y-28975520D01*
G37*
X136630998Y-28975520D02*
X131830998Y-28975520D01*
X131830998Y-33375520D01*
X136630998Y-33375520D01*
X136630998Y-28975520D01*
G36*
X144830998Y-28975520D02*
G01*
X140030998Y-28975520D01*
X140030998Y-33375520D01*
X144830998Y-33375520D01*
X144830998Y-28975520D01*
G37*
X144830998Y-28975520D02*
X140030998Y-28975520D01*
X140030998Y-33375520D01*
X144830998Y-33375520D01*
X144830998Y-28975520D01*
G36*
X140030998Y-32675520D02*
G01*
X136630998Y-32675520D01*
X136630998Y-33375520D01*
X140030998Y-33375520D01*
X140030998Y-32675520D01*
G37*
X140030998Y-32675520D02*
X136630998Y-32675520D01*
X136630998Y-33375520D01*
X140030998Y-33375520D01*
X140030998Y-32675520D01*
G36*
X140030998Y-28975520D02*
G01*
X136630998Y-28975520D01*
X136630998Y-29675520D01*
X140030998Y-29675520D01*
X140030998Y-28975520D01*
G37*
X140030998Y-28975520D02*
X136630998Y-28975520D01*
X136630998Y-29675520D01*
X140030998Y-29675520D01*
X140030998Y-28975520D01*
G36*
X157890331Y-28975520D02*
G01*
X154490331Y-28975520D01*
X154490331Y-29675520D01*
X157890331Y-29675520D01*
X157890331Y-28975520D01*
G37*
X157890331Y-28975520D02*
X154490331Y-28975520D01*
X154490331Y-29675520D01*
X157890331Y-29675520D01*
X157890331Y-28975520D01*
G36*
X157890331Y-32675520D02*
G01*
X154490331Y-32675520D01*
X154490331Y-33375520D01*
X157890331Y-33375520D01*
X157890331Y-32675520D01*
G37*
X157890331Y-32675520D02*
X154490331Y-32675520D01*
X154490331Y-33375520D01*
X157890331Y-33375520D01*
X157890331Y-32675520D01*
G36*
X162690331Y-28975520D02*
G01*
X157890331Y-28975520D01*
X157890331Y-33375520D01*
X162690331Y-33375520D01*
X162690331Y-28975520D01*
G37*
X162690331Y-28975520D02*
X157890331Y-28975520D01*
X157890331Y-33375520D01*
X162690331Y-33375520D01*
X162690331Y-28975520D01*
G36*
X154490331Y-28975520D02*
G01*
X149690331Y-28975520D01*
X149690331Y-33375520D01*
X154490331Y-33375520D01*
X154490331Y-28975520D01*
G37*
X154490331Y-28975520D02*
X149690331Y-28975520D01*
X149690331Y-33375520D01*
X154490331Y-33375520D01*
X154490331Y-28975520D01*
G36*
X172349664Y-28975520D02*
G01*
X167549664Y-28975520D01*
X167549664Y-33375520D01*
X172349664Y-33375520D01*
X172349664Y-28975520D01*
G37*
X172349664Y-28975520D02*
X167549664Y-28975520D01*
X167549664Y-33375520D01*
X172349664Y-33375520D01*
X172349664Y-28975520D01*
G36*
X180549664Y-28975520D02*
G01*
X175749664Y-28975520D01*
X175749664Y-33375520D01*
X180549664Y-33375520D01*
X180549664Y-28975520D01*
G37*
X180549664Y-28975520D02*
X175749664Y-28975520D01*
X175749664Y-33375520D01*
X180549664Y-33375520D01*
X180549664Y-28975520D01*
G36*
X175749664Y-32675520D02*
G01*
X172349664Y-32675520D01*
X172349664Y-33375520D01*
X175749664Y-33375520D01*
X175749664Y-32675520D01*
G37*
X175749664Y-32675520D02*
X172349664Y-32675520D01*
X172349664Y-33375520D01*
X175749664Y-33375520D01*
X175749664Y-32675520D01*
G36*
X175749664Y-28975520D02*
G01*
X172349664Y-28975520D01*
X172349664Y-29675520D01*
X175749664Y-29675520D01*
X175749664Y-28975520D01*
G37*
X175749664Y-28975520D02*
X172349664Y-28975520D01*
X172349664Y-29675520D01*
X175749664Y-29675520D01*
X175749664Y-28975520D01*
G36*
X193608997Y-28975520D02*
G01*
X190208997Y-28975520D01*
X190208997Y-29675520D01*
X193608997Y-29675520D01*
X193608997Y-28975520D01*
G37*
X193608997Y-28975520D02*
X190208997Y-28975520D01*
X190208997Y-29675520D01*
X193608997Y-29675520D01*
X193608997Y-28975520D01*
G36*
X193608997Y-32675520D02*
G01*
X190208997Y-32675520D01*
X190208997Y-33375520D01*
X193608997Y-33375520D01*
X193608997Y-32675520D01*
G37*
X193608997Y-32675520D02*
X190208997Y-32675520D01*
X190208997Y-33375520D01*
X193608997Y-33375520D01*
X193608997Y-32675520D01*
G36*
X198408997Y-28975520D02*
G01*
X193608997Y-28975520D01*
X193608997Y-33375520D01*
X198408997Y-33375520D01*
X198408997Y-28975520D01*
G37*
X198408997Y-28975520D02*
X193608997Y-28975520D01*
X193608997Y-33375520D01*
X198408997Y-33375520D01*
X198408997Y-28975520D01*
G36*
X190208997Y-28975520D02*
G01*
X185408997Y-28975520D01*
X185408997Y-33375520D01*
X190208997Y-33375520D01*
X190208997Y-28975520D01*
G37*
X190208997Y-28975520D02*
X185408997Y-28975520D01*
X185408997Y-33375520D01*
X190208997Y-33375520D01*
X190208997Y-28975520D01*
G36*
X208068330Y-28975520D02*
G01*
X203268330Y-28975520D01*
X203268330Y-33375520D01*
X208068330Y-33375520D01*
X208068330Y-28975520D01*
G37*
X208068330Y-28975520D02*
X203268330Y-28975520D01*
X203268330Y-33375520D01*
X208068330Y-33375520D01*
X208068330Y-28975520D01*
G36*
X216268330Y-28975520D02*
G01*
X211468330Y-28975520D01*
X211468330Y-33375520D01*
X216268330Y-33375520D01*
X216268330Y-28975520D01*
G37*
X216268330Y-28975520D02*
X211468330Y-28975520D01*
X211468330Y-33375520D01*
X216268330Y-33375520D01*
X216268330Y-28975520D01*
G36*
X211468330Y-32675520D02*
G01*
X208068330Y-32675520D01*
X208068330Y-33375520D01*
X211468330Y-33375520D01*
X211468330Y-32675520D01*
G37*
X211468330Y-32675520D02*
X208068330Y-32675520D01*
X208068330Y-33375520D01*
X211468330Y-33375520D01*
X211468330Y-32675520D01*
G36*
X211468330Y-28975520D02*
G01*
X208068330Y-28975520D01*
X208068330Y-29675520D01*
X211468330Y-29675520D01*
X211468330Y-28975520D01*
G37*
X211468330Y-28975520D02*
X208068330Y-28975520D01*
X208068330Y-29675520D01*
X211468330Y-29675520D01*
X211468330Y-28975520D01*
G36*
X229327663Y-28975520D02*
G01*
X225927663Y-28975520D01*
X225927663Y-29675520D01*
X229327663Y-29675520D01*
X229327663Y-28975520D01*
G37*
X229327663Y-28975520D02*
X225927663Y-28975520D01*
X225927663Y-29675520D01*
X229327663Y-29675520D01*
X229327663Y-28975520D01*
G36*
X229327663Y-32675520D02*
G01*
X225927663Y-32675520D01*
X225927663Y-33375520D01*
X229327663Y-33375520D01*
X229327663Y-32675520D01*
G37*
X229327663Y-32675520D02*
X225927663Y-32675520D01*
X225927663Y-33375520D01*
X229327663Y-33375520D01*
X229327663Y-32675520D01*
G36*
X234127663Y-28975520D02*
G01*
X229327663Y-28975520D01*
X229327663Y-33375520D01*
X234127663Y-33375520D01*
X234127663Y-28975520D01*
G37*
X234127663Y-28975520D02*
X229327663Y-28975520D01*
X229327663Y-33375520D01*
X234127663Y-33375520D01*
X234127663Y-28975520D01*
G36*
X225927663Y-28975520D02*
G01*
X221127663Y-28975520D01*
X221127663Y-33375520D01*
X225927663Y-33375520D01*
X225927663Y-28975520D01*
G37*
X225927663Y-28975520D02*
X221127663Y-28975520D01*
X221127663Y-33375520D01*
X225927663Y-33375520D01*
X225927663Y-28975520D01*
G36*
X243786996Y-28975520D02*
G01*
X238986996Y-28975520D01*
X238986996Y-33375520D01*
X243786996Y-33375520D01*
X243786996Y-28975520D01*
G37*
X243786996Y-28975520D02*
X238986996Y-28975520D01*
X238986996Y-33375520D01*
X243786996Y-33375520D01*
X243786996Y-28975520D01*
G36*
X251986996Y-28975520D02*
G01*
X247186996Y-28975520D01*
X247186996Y-33375520D01*
X251986996Y-33375520D01*
X251986996Y-28975520D01*
G37*
X251986996Y-28975520D02*
X247186996Y-28975520D01*
X247186996Y-33375520D01*
X251986996Y-33375520D01*
X251986996Y-28975520D01*
G36*
X247186996Y-32675520D02*
G01*
X243786996Y-32675520D01*
X243786996Y-33375520D01*
X247186996Y-33375520D01*
X247186996Y-32675520D01*
G37*
X247186996Y-32675520D02*
X243786996Y-32675520D01*
X243786996Y-33375520D01*
X247186996Y-33375520D01*
X247186996Y-32675520D01*
G36*
X247186996Y-28975520D02*
G01*
X243786996Y-28975520D01*
X243786996Y-29675520D01*
X247186996Y-29675520D01*
X247186996Y-28975520D01*
G37*
X247186996Y-28975520D02*
X243786996Y-28975520D01*
X243786996Y-29675520D01*
X247186996Y-29675520D01*
X247186996Y-28975520D01*
G36*
X265046329Y-28975520D02*
G01*
X261646329Y-28975520D01*
X261646329Y-29675520D01*
X265046329Y-29675520D01*
X265046329Y-28975520D01*
G37*
X265046329Y-28975520D02*
X261646329Y-28975520D01*
X261646329Y-29675520D01*
X265046329Y-29675520D01*
X265046329Y-28975520D01*
G36*
X265046329Y-32675520D02*
G01*
X261646329Y-32675520D01*
X261646329Y-33375520D01*
X265046329Y-33375520D01*
X265046329Y-32675520D01*
G37*
X265046329Y-32675520D02*
X261646329Y-32675520D01*
X261646329Y-33375520D01*
X265046329Y-33375520D01*
X265046329Y-32675520D01*
G36*
X269846329Y-28975520D02*
G01*
X265046329Y-28975520D01*
X265046329Y-33375520D01*
X269846329Y-33375520D01*
X269846329Y-28975520D01*
G37*
X269846329Y-28975520D02*
X265046329Y-28975520D01*
X265046329Y-33375520D01*
X269846329Y-33375520D01*
X269846329Y-28975520D01*
G36*
X261646329Y-28975520D02*
G01*
X256846329Y-28975520D01*
X256846329Y-33375520D01*
X261646329Y-33375520D01*
X261646329Y-28975520D01*
G37*
X261646329Y-28975520D02*
X256846329Y-28975520D01*
X256846329Y-33375520D01*
X261646329Y-33375520D01*
X261646329Y-28975520D01*
G36*
X282905662Y-28975520D02*
G01*
X279505662Y-28975520D01*
X279505662Y-29675520D01*
X282905662Y-29675520D01*
X282905662Y-28975520D01*
G37*
X282905662Y-28975520D02*
X279505662Y-28975520D01*
X279505662Y-29675520D01*
X282905662Y-29675520D01*
X282905662Y-28975520D01*
G36*
X282905662Y-32675520D02*
G01*
X279505662Y-32675520D01*
X279505662Y-33375520D01*
X282905662Y-33375520D01*
X282905662Y-32675520D01*
G37*
X282905662Y-32675520D02*
X279505662Y-32675520D01*
X279505662Y-33375520D01*
X282905662Y-33375520D01*
X282905662Y-32675520D01*
G36*
X287705662Y-28975520D02*
G01*
X282905662Y-28975520D01*
X282905662Y-33375520D01*
X287705662Y-33375520D01*
X287705662Y-28975520D01*
G37*
X287705662Y-28975520D02*
X282905662Y-28975520D01*
X282905662Y-33375520D01*
X287705662Y-33375520D01*
X287705662Y-28975520D01*
G36*
X279505662Y-28975520D02*
G01*
X274705662Y-28975520D01*
X274705662Y-33375520D01*
X279505662Y-33375520D01*
X279505662Y-28975520D01*
G37*
X279505662Y-28975520D02*
X274705662Y-28975520D01*
X274705662Y-33375520D01*
X279505662Y-33375520D01*
X279505662Y-28975520D01*
G36*
X300765000Y-101375520D02*
G01*
X305565000Y-101375520D01*
X305565000Y-96975520D01*
X300765000Y-96975520D01*
X300765000Y-101375520D01*
G37*
X300765000Y-101375520D02*
X305565000Y-101375520D01*
X305565000Y-96975520D01*
X300765000Y-96975520D01*
X300765000Y-101375520D01*
G36*
X292565000Y-101375520D02*
G01*
X297365000Y-101375520D01*
X297365000Y-96975520D01*
X292565000Y-96975520D01*
X292565000Y-101375520D01*
G37*
X292565000Y-101375520D02*
X297365000Y-101375520D01*
X297365000Y-96975520D01*
X292565000Y-96975520D01*
X292565000Y-101375520D01*
G36*
X297365000Y-97675520D02*
G01*
X300765000Y-97675520D01*
X300765000Y-96975520D01*
X297365000Y-96975520D01*
X297365000Y-97675520D01*
G37*
X297365000Y-97675520D02*
X300765000Y-97675520D01*
X300765000Y-96975520D01*
X297365000Y-96975520D01*
X297365000Y-97675520D01*
G36*
X297365000Y-101375520D02*
G01*
X300765000Y-101375520D01*
X300765000Y-100675520D01*
X297365000Y-100675520D01*
X297365000Y-101375520D01*
G37*
X297365000Y-101375520D02*
X300765000Y-101375520D01*
X300765000Y-100675520D01*
X297365000Y-100675520D01*
X297365000Y-101375520D01*
G36*
X282905624Y-101375520D02*
G01*
X287705624Y-101375520D01*
X287705624Y-96975520D01*
X282905624Y-96975520D01*
X282905624Y-101375520D01*
G37*
X282905624Y-101375520D02*
X287705624Y-101375520D01*
X287705624Y-96975520D01*
X282905624Y-96975520D01*
X282905624Y-101375520D01*
G36*
X274705624Y-101375520D02*
G01*
X279505624Y-101375520D01*
X279505624Y-96975520D01*
X274705624Y-96975520D01*
X274705624Y-101375520D01*
G37*
X274705624Y-101375520D02*
X279505624Y-101375520D01*
X279505624Y-96975520D01*
X274705624Y-96975520D01*
X274705624Y-101375520D01*
G36*
X279505624Y-97675520D02*
G01*
X282905624Y-97675520D01*
X282905624Y-96975520D01*
X279505624Y-96975520D01*
X279505624Y-97675520D01*
G37*
X279505624Y-97675520D02*
X282905624Y-97675520D01*
X282905624Y-96975520D01*
X279505624Y-96975520D01*
X279505624Y-97675520D01*
G36*
X279505624Y-101375520D02*
G01*
X282905624Y-101375520D01*
X282905624Y-100675520D01*
X279505624Y-100675520D01*
X279505624Y-101375520D01*
G37*
X279505624Y-101375520D02*
X282905624Y-101375520D01*
X282905624Y-100675520D01*
X279505624Y-100675520D01*
X279505624Y-101375520D01*
G36*
X265046248Y-105625520D02*
G01*
X269846248Y-105625520D01*
X269846248Y-101225520D01*
X265046248Y-101225520D01*
X265046248Y-105625520D01*
G37*
X265046248Y-105625520D02*
X269846248Y-105625520D01*
X269846248Y-101225520D01*
X265046248Y-101225520D01*
X265046248Y-105625520D01*
G36*
X256846248Y-105625520D02*
G01*
X261646248Y-105625520D01*
X261646248Y-101225520D01*
X256846248Y-101225520D01*
X256846248Y-105625520D01*
G37*
X256846248Y-105625520D02*
X261646248Y-105625520D01*
X261646248Y-101225520D01*
X256846248Y-101225520D01*
X256846248Y-105625520D01*
G36*
X261646248Y-101925520D02*
G01*
X265046248Y-101925520D01*
X265046248Y-101225520D01*
X261646248Y-101225520D01*
X261646248Y-101925520D01*
G37*
X261646248Y-101925520D02*
X265046248Y-101925520D01*
X265046248Y-101225520D01*
X261646248Y-101225520D01*
X261646248Y-101925520D01*
G36*
X261646248Y-105625520D02*
G01*
X265046248Y-105625520D01*
X265046248Y-104925520D01*
X261646248Y-104925520D01*
X261646248Y-105625520D01*
G37*
X261646248Y-105625520D02*
X265046248Y-105625520D01*
X265046248Y-104925520D01*
X261646248Y-104925520D01*
X261646248Y-105625520D01*
G36*
X243786872Y-88625520D02*
G01*
X247186872Y-88625520D01*
X247186872Y-87925520D01*
X243786872Y-87925520D01*
X243786872Y-88625520D01*
G37*
X243786872Y-88625520D02*
X247186872Y-88625520D01*
X247186872Y-87925520D01*
X243786872Y-87925520D01*
X243786872Y-88625520D01*
G36*
X243786872Y-84925520D02*
G01*
X247186872Y-84925520D01*
X247186872Y-84225520D01*
X243786872Y-84225520D01*
X243786872Y-84925520D01*
G37*
X243786872Y-84925520D02*
X247186872Y-84925520D01*
X247186872Y-84225520D01*
X243786872Y-84225520D01*
X243786872Y-84925520D01*
G36*
X238986872Y-88625520D02*
G01*
X243786872Y-88625520D01*
X243786872Y-84225520D01*
X238986872Y-84225520D01*
X238986872Y-88625520D01*
G37*
X238986872Y-88625520D02*
X243786872Y-88625520D01*
X243786872Y-84225520D01*
X238986872Y-84225520D01*
X238986872Y-88625520D01*
G36*
X247186872Y-88625520D02*
G01*
X251986872Y-88625520D01*
X251986872Y-84225520D01*
X247186872Y-84225520D01*
X247186872Y-88625520D01*
G37*
X247186872Y-88625520D02*
X251986872Y-88625520D01*
X251986872Y-84225520D01*
X247186872Y-84225520D01*
X247186872Y-88625520D01*
G36*
X247186872Y-105625520D02*
G01*
X251986872Y-105625520D01*
X251986872Y-101225520D01*
X247186872Y-101225520D01*
X247186872Y-105625520D01*
G37*
X247186872Y-105625520D02*
X251986872Y-105625520D01*
X251986872Y-101225520D01*
X247186872Y-101225520D01*
X247186872Y-105625520D01*
G36*
X238986872Y-105625520D02*
G01*
X243786872Y-105625520D01*
X243786872Y-101225520D01*
X238986872Y-101225520D01*
X238986872Y-105625520D01*
G37*
X238986872Y-105625520D02*
X243786872Y-105625520D01*
X243786872Y-101225520D01*
X238986872Y-101225520D01*
X238986872Y-105625520D01*
G36*
X243786872Y-101925520D02*
G01*
X247186872Y-101925520D01*
X247186872Y-101225520D01*
X243786872Y-101225520D01*
X243786872Y-101925520D01*
G37*
X243786872Y-101925520D02*
X247186872Y-101925520D01*
X247186872Y-101225520D01*
X243786872Y-101225520D01*
X243786872Y-101925520D01*
G36*
X243786872Y-105625520D02*
G01*
X247186872Y-105625520D01*
X247186872Y-104925520D01*
X243786872Y-104925520D01*
X243786872Y-105625520D01*
G37*
X243786872Y-105625520D02*
X247186872Y-105625520D01*
X247186872Y-104925520D01*
X243786872Y-104925520D01*
X243786872Y-105625520D01*
G36*
X225927512Y-105625520D02*
G01*
X229327512Y-105625520D01*
X229327512Y-104925520D01*
X225927512Y-104925520D01*
X225927512Y-105625520D01*
G37*
X225927512Y-105625520D02*
X229327512Y-105625520D01*
X229327512Y-104925520D01*
X225927512Y-104925520D01*
X225927512Y-105625520D01*
G36*
X225927512Y-101925520D02*
G01*
X229327512Y-101925520D01*
X229327512Y-101225520D01*
X225927512Y-101225520D01*
X225927512Y-101925520D01*
G37*
X225927512Y-101925520D02*
X229327512Y-101925520D01*
X229327512Y-101225520D01*
X225927512Y-101225520D01*
X225927512Y-101925520D01*
G36*
X221127512Y-105625520D02*
G01*
X225927512Y-105625520D01*
X225927512Y-101225520D01*
X221127512Y-101225520D01*
X221127512Y-105625520D01*
G37*
X221127512Y-105625520D02*
X225927512Y-105625520D01*
X225927512Y-101225520D01*
X221127512Y-101225520D01*
X221127512Y-105625520D01*
G36*
X229327512Y-105625520D02*
G01*
X234127512Y-105625520D01*
X234127512Y-101225520D01*
X229327512Y-101225520D01*
X229327512Y-105625520D01*
G37*
X229327512Y-105625520D02*
X234127512Y-105625520D01*
X234127512Y-101225520D01*
X229327512Y-101225520D01*
X229327512Y-105625520D01*
G36*
X207003312Y-101375520D02*
G01*
X211803312Y-101375520D01*
X211803312Y-96975520D01*
X207003312Y-96975520D01*
X207003312Y-101375520D01*
G37*
X207003312Y-101375520D02*
X211803312Y-101375520D01*
X211803312Y-96975520D01*
X207003312Y-96975520D01*
X207003312Y-101375520D01*
G36*
X198803312Y-101375520D02*
G01*
X203603312Y-101375520D01*
X203603312Y-96975520D01*
X198803312Y-96975520D01*
X198803312Y-101375520D01*
G37*
X198803312Y-101375520D02*
X203603312Y-101375520D01*
X203603312Y-96975520D01*
X198803312Y-96975520D01*
X198803312Y-101375520D01*
G36*
X203603312Y-97675520D02*
G01*
X207003312Y-97675520D01*
X207003312Y-96975520D01*
X203603312Y-96975520D01*
X203603312Y-97675520D01*
G37*
X203603312Y-97675520D02*
X207003312Y-97675520D01*
X207003312Y-96975520D01*
X203603312Y-96975520D01*
X203603312Y-97675520D01*
G36*
X203603312Y-101375520D02*
G01*
X207003312Y-101375520D01*
X207003312Y-100675520D01*
X203603312Y-100675520D01*
X203603312Y-101375520D01*
G37*
X203603312Y-101375520D02*
X207003312Y-101375520D01*
X207003312Y-100675520D01*
X203603312Y-100675520D01*
X203603312Y-101375520D01*
G36*
X181279112Y-101375520D02*
G01*
X184679112Y-101375520D01*
X184679112Y-100675520D01*
X181279112Y-100675520D01*
X181279112Y-101375520D01*
G37*
X181279112Y-101375520D02*
X184679112Y-101375520D01*
X184679112Y-100675520D01*
X181279112Y-100675520D01*
X181279112Y-101375520D01*
G36*
X181279112Y-97675520D02*
G01*
X184679112Y-97675520D01*
X184679112Y-96975520D01*
X181279112Y-96975520D01*
X181279112Y-97675520D01*
G37*
X181279112Y-97675520D02*
X184679112Y-97675520D01*
X184679112Y-96975520D01*
X181279112Y-96975520D01*
X181279112Y-97675520D01*
G36*
X176479112Y-101375520D02*
G01*
X181279112Y-101375520D01*
X181279112Y-96975520D01*
X176479112Y-96975520D01*
X176479112Y-101375520D01*
G37*
X176479112Y-101375520D02*
X181279112Y-101375520D01*
X181279112Y-96975520D01*
X176479112Y-96975520D01*
X176479112Y-101375520D01*
G36*
X184679112Y-101375520D02*
G01*
X189479112Y-101375520D01*
X189479112Y-96975520D01*
X184679112Y-96975520D01*
X184679112Y-101375520D01*
G37*
X184679112Y-101375520D02*
X189479112Y-101375520D01*
X189479112Y-96975520D01*
X184679112Y-96975520D01*
X184679112Y-101375520D01*
G36*
X157890072Y-101375520D02*
G01*
X162690072Y-101375520D01*
X162690072Y-96975520D01*
X157890072Y-96975520D01*
X157890072Y-101375520D01*
G37*
X157890072Y-101375520D02*
X162690072Y-101375520D01*
X162690072Y-96975520D01*
X157890072Y-96975520D01*
X157890072Y-101375520D01*
G36*
X149690072Y-101375520D02*
G01*
X154490072Y-101375520D01*
X154490072Y-96975520D01*
X149690072Y-96975520D01*
X149690072Y-101375520D01*
G37*
X149690072Y-101375520D02*
X154490072Y-101375520D01*
X154490072Y-96975520D01*
X149690072Y-96975520D01*
X149690072Y-101375520D01*
G36*
X154490072Y-97675520D02*
G01*
X157890072Y-97675520D01*
X157890072Y-96975520D01*
X154490072Y-96975520D01*
X154490072Y-97675520D01*
G37*
X154490072Y-97675520D02*
X157890072Y-97675520D01*
X157890072Y-96975520D01*
X154490072Y-96975520D01*
X154490072Y-97675520D01*
G36*
X154490072Y-101375520D02*
G01*
X157890072Y-101375520D01*
X157890072Y-100675520D01*
X154490072Y-100675520D01*
X154490072Y-101375520D01*
G37*
X154490072Y-101375520D02*
X157890072Y-101375520D01*
X157890072Y-100675520D01*
X154490072Y-100675520D01*
X154490072Y-101375520D01*
G36*
X118771352Y-101375520D02*
G01*
X122171352Y-101375520D01*
X122171352Y-100675520D01*
X118771352Y-100675520D01*
X118771352Y-101375520D01*
G37*
X118771352Y-101375520D02*
X122171352Y-101375520D01*
X122171352Y-100675520D01*
X118771352Y-100675520D01*
X118771352Y-101375520D01*
G36*
X118771352Y-97675520D02*
G01*
X122171352Y-97675520D01*
X122171352Y-96975520D01*
X118771352Y-96975520D01*
X118771352Y-97675520D01*
G37*
X118771352Y-97675520D02*
X122171352Y-97675520D01*
X122171352Y-96975520D01*
X118771352Y-96975520D01*
X118771352Y-97675520D01*
G36*
X113971352Y-101375520D02*
G01*
X118771352Y-101375520D01*
X118771352Y-96975520D01*
X113971352Y-96975520D01*
X113971352Y-101375520D01*
G37*
X113971352Y-101375520D02*
X118771352Y-101375520D01*
X118771352Y-96975520D01*
X113971352Y-96975520D01*
X113971352Y-101375520D01*
G36*
X122171352Y-101375520D02*
G01*
X126971352Y-101375520D01*
X126971352Y-96975520D01*
X122171352Y-96975520D01*
X122171352Y-101375520D01*
G37*
X122171352Y-101375520D02*
X126971352Y-101375520D01*
X126971352Y-96975520D01*
X122171352Y-96975520D01*
X122171352Y-101375520D01*
G36*
X95382312Y-101375520D02*
G01*
X100182312Y-101375520D01*
X100182312Y-96975520D01*
X95382312Y-96975520D01*
X95382312Y-101375520D01*
G37*
X95382312Y-101375520D02*
X100182312Y-101375520D01*
X100182312Y-96975520D01*
X95382312Y-96975520D01*
X95382312Y-101375520D01*
G36*
X87182312Y-101375520D02*
G01*
X91982312Y-101375520D01*
X91982312Y-96975520D01*
X87182312Y-96975520D01*
X87182312Y-101375520D01*
G37*
X87182312Y-101375520D02*
X91982312Y-101375520D01*
X91982312Y-96975520D01*
X87182312Y-96975520D01*
X87182312Y-101375520D01*
G36*
X91982312Y-97675520D02*
G01*
X95382312Y-97675520D01*
X95382312Y-96975520D01*
X91982312Y-96975520D01*
X91982312Y-97675520D01*
G37*
X91982312Y-97675520D02*
X95382312Y-97675520D01*
X95382312Y-96975520D01*
X91982312Y-96975520D01*
X91982312Y-97675520D01*
G36*
X91982312Y-101375520D02*
G01*
X95382312Y-101375520D01*
X95382312Y-100675520D01*
X91982312Y-100675520D01*
X91982312Y-101375520D01*
G37*
X91982312Y-101375520D02*
X95382312Y-101375520D01*
X95382312Y-100675520D01*
X91982312Y-100675520D01*
X91982312Y-101375520D01*
G36*
X69658112Y-101375520D02*
G01*
X73058112Y-101375520D01*
X73058112Y-100675520D01*
X69658112Y-100675520D01*
X69658112Y-101375520D01*
G37*
X69658112Y-101375520D02*
X73058112Y-101375520D01*
X73058112Y-100675520D01*
X69658112Y-100675520D01*
X69658112Y-101375520D01*
G36*
X69658112Y-97675520D02*
G01*
X73058112Y-97675520D01*
X73058112Y-96975520D01*
X69658112Y-96975520D01*
X69658112Y-97675520D01*
G37*
X69658112Y-97675520D02*
X73058112Y-97675520D01*
X73058112Y-96975520D01*
X69658112Y-96975520D01*
X69658112Y-97675520D01*
G36*
X64858112Y-101375520D02*
G01*
X69658112Y-101375520D01*
X69658112Y-96975520D01*
X64858112Y-96975520D01*
X64858112Y-101375520D01*
G37*
X64858112Y-101375520D02*
X69658112Y-101375520D01*
X69658112Y-96975520D01*
X64858112Y-96975520D01*
X64858112Y-101375520D01*
G36*
X73058112Y-101375520D02*
G01*
X77858112Y-101375520D01*
X77858112Y-96975520D01*
X73058112Y-96975520D01*
X73058112Y-101375520D01*
G37*
X73058112Y-101375520D02*
X77858112Y-101375520D01*
X77858112Y-96975520D01*
X73058112Y-96975520D01*
X73058112Y-101375520D01*
G36*
X47333912Y-101375520D02*
G01*
X50733912Y-101375520D01*
X50733912Y-100675520D01*
X47333912Y-100675520D01*
X47333912Y-101375520D01*
G37*
X47333912Y-101375520D02*
X50733912Y-101375520D01*
X50733912Y-100675520D01*
X47333912Y-100675520D01*
X47333912Y-101375520D01*
G36*
X47333912Y-97675520D02*
G01*
X50733912Y-97675520D01*
X50733912Y-96975520D01*
X47333912Y-96975520D01*
X47333912Y-97675520D01*
G37*
X47333912Y-97675520D02*
X50733912Y-97675520D01*
X50733912Y-96975520D01*
X47333912Y-96975520D01*
X47333912Y-97675520D01*
G36*
X42533912Y-101375520D02*
G01*
X47333912Y-101375520D01*
X47333912Y-96975520D01*
X42533912Y-96975520D01*
X42533912Y-101375520D01*
G37*
X42533912Y-101375520D02*
X47333912Y-101375520D01*
X47333912Y-96975520D01*
X42533912Y-96975520D01*
X42533912Y-101375520D01*
G36*
X50733912Y-101375520D02*
G01*
X55533912Y-101375520D01*
X55533912Y-96975520D01*
X50733912Y-96975520D01*
X50733912Y-101375520D01*
G37*
X50733912Y-101375520D02*
X55533912Y-101375520D01*
X55533912Y-96975520D01*
X50733912Y-96975520D01*
X50733912Y-101375520D01*
G36*
X32879672Y-110775520D02*
G01*
X37679672Y-110775520D01*
X37679672Y-106375520D01*
X32879672Y-106375520D01*
X32879672Y-110775520D01*
G37*
X32879672Y-110775520D02*
X37679672Y-110775520D01*
X37679672Y-106375520D01*
X32879672Y-106375520D01*
X32879672Y-110775520D01*
G36*
X24679672Y-110775520D02*
G01*
X29479672Y-110775520D01*
X29479672Y-106375520D01*
X24679672Y-106375520D01*
X24679672Y-110775520D01*
G37*
X24679672Y-110775520D02*
X29479672Y-110775520D01*
X29479672Y-106375520D01*
X24679672Y-106375520D01*
X24679672Y-110775520D01*
G36*
X29479672Y-107075520D02*
G01*
X32879672Y-107075520D01*
X32879672Y-106375520D01*
X29479672Y-106375520D01*
X29479672Y-107075520D01*
G37*
X29479672Y-107075520D02*
X32879672Y-107075520D01*
X32879672Y-106375520D01*
X29479672Y-106375520D01*
X29479672Y-107075520D01*
G36*
X29479672Y-110775520D02*
G01*
X32879672Y-110775520D01*
X32879672Y-110075520D01*
X29479672Y-110075520D01*
X29479672Y-110775520D01*
G37*
X29479672Y-110775520D02*
X32879672Y-110775520D01*
X32879672Y-110075520D01*
X29479672Y-110075520D01*
X29479672Y-110775520D01*
%LPC*%
D15*
X75200000Y-62960000D03*
G36*
G01*
X74150000Y-66350000D02*
X74150000Y-64650000D01*
G75*
G02*
X74350000Y-64450000I200000J0D01*
G01*
X76050000Y-64450000D01*
G75*
G02*
X76250000Y-64650000I0J-200000D01*
G01*
X76250000Y-66350000D01*
G75*
G02*
X76050000Y-66550000I-200000J0D01*
G01*
X74350000Y-66550000D01*
G75*
G02*
X74150000Y-66350000I0J200000D01*
G01*
G37*
X187769984Y-24675520D03*
X185229984Y-24675520D03*
X182689984Y-24675520D03*
G36*
G01*
X179299984Y-23625520D02*
X180999984Y-23625520D01*
G75*
G02*
X181199984Y-23825520I0J-200000D01*
G01*
X181199984Y-25525520D01*
G75*
G02*
X180999984Y-25725520I-200000J0D01*
G01*
X179299984Y-25725520D01*
G75*
G02*
X179099984Y-25525520I0J200000D01*
G01*
X179099984Y-23825520D01*
G75*
G02*
X179299984Y-23625520I200000J0D01*
G01*
G37*
D16*
X115476552Y-107625520D03*
X120476552Y-109825520D03*
D17*
X125976552Y-103875520D03*
X114976552Y-103875520D03*
D18*
X120476552Y-103875520D03*
D19*
X125696552Y-99675520D03*
D16*
X151195304Y-107625520D03*
X156195304Y-109825520D03*
D17*
X161695304Y-103875520D03*
X150695304Y-103875520D03*
D18*
X156195304Y-103875520D03*
D19*
X161415304Y-99675520D03*
D16*
X35109360Y-90625520D03*
X40109360Y-92825520D03*
D17*
X45609360Y-86875520D03*
X34609360Y-86875520D03*
D18*
X40109360Y-86875520D03*
D19*
X45329360Y-82675520D03*
D16*
X30644516Y-56625520D03*
X35644516Y-58825520D03*
D17*
X41144516Y-52875520D03*
X30144516Y-52875520D03*
D18*
X35644516Y-52875520D03*
D19*
X40864516Y-48675520D03*
D16*
X30644516Y-73625520D03*
X35644516Y-75825520D03*
D17*
X41144516Y-69875520D03*
X30144516Y-69875520D03*
D18*
X35644516Y-69875520D03*
D19*
X40864516Y-65675520D03*
D16*
X66363268Y-107625520D03*
X71363268Y-109825520D03*
D17*
X76863268Y-103875520D03*
X65863268Y-103875520D03*
D18*
X71363268Y-103875520D03*
D19*
X76583268Y-99675520D03*
D16*
X200308588Y-107625520D03*
X205308588Y-109825520D03*
D17*
X210808588Y-103875520D03*
X199808588Y-103875520D03*
D18*
X205308588Y-103875520D03*
D19*
X210528588Y-99675520D03*
D16*
X236027340Y-56625520D03*
X241027340Y-58825520D03*
D17*
X246527340Y-52875520D03*
X235527340Y-52875520D03*
D18*
X241027340Y-52875520D03*
D19*
X246247340Y-48675520D03*
D16*
X236027340Y-73625520D03*
X241027340Y-75825520D03*
D17*
X246527340Y-69875520D03*
X235527340Y-69875520D03*
D18*
X241027340Y-69875520D03*
D19*
X246247340Y-65675520D03*
D16*
X31179672Y-29925520D03*
D20*
X31179672Y-35875520D03*
D16*
X36179672Y-32125520D03*
D17*
X25679672Y-35875520D03*
X36679672Y-35875520D03*
D18*
X31179672Y-35875520D03*
D19*
X25959672Y-40075520D03*
D16*
X31179672Y-80925520D03*
D20*
X31179672Y-86875520D03*
D16*
X36179672Y-83125520D03*
D17*
X25679672Y-86875520D03*
X36679672Y-86875520D03*
D18*
X31179672Y-86875520D03*
D19*
X25959672Y-91075520D03*
D16*
X31179672Y-97925520D03*
D20*
X31179672Y-103875520D03*
D16*
X36179672Y-100125520D03*
D17*
X25679672Y-103875520D03*
X36679672Y-103875520D03*
D18*
X31179672Y-103875520D03*
D19*
X25959672Y-108075520D03*
D16*
X49039048Y-41825520D03*
D20*
X49039048Y-35875520D03*
D16*
X44039048Y-39625520D03*
D17*
X54539048Y-35875520D03*
X43539048Y-35875520D03*
D18*
X49039048Y-35875520D03*
D19*
X54259048Y-31675520D03*
D16*
X49039048Y-80925520D03*
D20*
X49039048Y-86875520D03*
D16*
X54039048Y-83125520D03*
D17*
X43539048Y-86875520D03*
X54539048Y-86875520D03*
D18*
X49039048Y-86875520D03*
D19*
X43819048Y-91075520D03*
D16*
X49039048Y-109825520D03*
D20*
X49039048Y-103875520D03*
D16*
X44039048Y-107625520D03*
D17*
X54539048Y-103875520D03*
X43539048Y-103875520D03*
D18*
X49039048Y-103875520D03*
D19*
X54259048Y-99675520D03*
D16*
X66898424Y-41825520D03*
D20*
X66898424Y-35875520D03*
D16*
X61898424Y-39625520D03*
D17*
X72398424Y-35875520D03*
X61398424Y-35875520D03*
D18*
X66898424Y-35875520D03*
D19*
X72118424Y-31675520D03*
D16*
X57968736Y-58825520D03*
D20*
X57968736Y-52875520D03*
D16*
X52968736Y-56625520D03*
D17*
X63468736Y-52875520D03*
X52468736Y-52875520D03*
D18*
X57968736Y-52875520D03*
D19*
X63188736Y-48675520D03*
D16*
X57968736Y-75825520D03*
D20*
X57968736Y-69875520D03*
D16*
X52968736Y-73625520D03*
D17*
X63468736Y-69875520D03*
X52468736Y-69875520D03*
D18*
X57968736Y-69875520D03*
D19*
X63188736Y-65675520D03*
D16*
X66898424Y-92825520D03*
D20*
X66898424Y-86875520D03*
D16*
X61898424Y-90625520D03*
D17*
X72398424Y-86875520D03*
X61398424Y-86875520D03*
D18*
X66898424Y-86875520D03*
D19*
X72118424Y-82675520D03*
D16*
X84757800Y-41825520D03*
D20*
X84757800Y-35875520D03*
D16*
X79757800Y-39625520D03*
D17*
X90257800Y-35875520D03*
X79257800Y-35875520D03*
D18*
X84757800Y-35875520D03*
D19*
X89977800Y-31675520D03*
D16*
X75828112Y-58825520D03*
D20*
X75828112Y-52875520D03*
D16*
X70828112Y-56625520D03*
D17*
X81328112Y-52875520D03*
X70328112Y-52875520D03*
D18*
X75828112Y-52875520D03*
D19*
X81048112Y-48675520D03*
D16*
X75828112Y-75825520D03*
D20*
X75828112Y-69875520D03*
D16*
X70828112Y-73625520D03*
D17*
X81328112Y-69875520D03*
X70328112Y-69875520D03*
D18*
X75828112Y-69875520D03*
D19*
X81048112Y-65675520D03*
D16*
X84757800Y-92825520D03*
D20*
X84757800Y-86875520D03*
D16*
X79757800Y-90625520D03*
D17*
X90257800Y-86875520D03*
X79257800Y-86875520D03*
D18*
X84757800Y-86875520D03*
D19*
X89977800Y-82675520D03*
D16*
X93687488Y-109825520D03*
D20*
X93687488Y-103875520D03*
D16*
X88687488Y-107625520D03*
D17*
X99187488Y-103875520D03*
X88187488Y-103875520D03*
D18*
X93687488Y-103875520D03*
D19*
X98907488Y-99675520D03*
D16*
X102617176Y-41825520D03*
D20*
X102617176Y-35875520D03*
D16*
X97617176Y-39625520D03*
D17*
X108117176Y-35875520D03*
X97117176Y-35875520D03*
D18*
X102617176Y-35875520D03*
D19*
X107837176Y-31675520D03*
D16*
X93687488Y-58825520D03*
D20*
X93687488Y-52875520D03*
D16*
X88687488Y-56625520D03*
D17*
X99187488Y-52875520D03*
X88187488Y-52875520D03*
D18*
X93687488Y-52875520D03*
D19*
X98907488Y-48675520D03*
D16*
X93687488Y-75825520D03*
D20*
X93687488Y-69875520D03*
D16*
X88687488Y-73625520D03*
D17*
X99187488Y-69875520D03*
X88187488Y-69875520D03*
D18*
X93687488Y-69875520D03*
D19*
X98907488Y-65675520D03*
D16*
X102617176Y-92825520D03*
D20*
X102617176Y-86875520D03*
D16*
X97617176Y-90625520D03*
D17*
X108117176Y-86875520D03*
X97117176Y-86875520D03*
D18*
X102617176Y-86875520D03*
D19*
X107837176Y-82675520D03*
D16*
X120476552Y-41825520D03*
D20*
X120476552Y-35875520D03*
D16*
X115476552Y-39625520D03*
D17*
X125976552Y-35875520D03*
X114976552Y-35875520D03*
D18*
X120476552Y-35875520D03*
D19*
X125696552Y-31675520D03*
D16*
X111546864Y-58825520D03*
D20*
X111546864Y-52875520D03*
D16*
X106546864Y-56625520D03*
D17*
X117046864Y-52875520D03*
X106046864Y-52875520D03*
D18*
X111546864Y-52875520D03*
D19*
X116766864Y-48675520D03*
D16*
X111546864Y-75825520D03*
D20*
X111546864Y-69875520D03*
D16*
X106546864Y-73625520D03*
D17*
X117046864Y-69875520D03*
X106046864Y-69875520D03*
D18*
X111546864Y-69875520D03*
D19*
X116766864Y-65675520D03*
D16*
X120476552Y-92825520D03*
D20*
X120476552Y-86875520D03*
D16*
X115476552Y-90625520D03*
D17*
X125976552Y-86875520D03*
X114976552Y-86875520D03*
D18*
X120476552Y-86875520D03*
D19*
X125696552Y-82675520D03*
D16*
X138335928Y-41825520D03*
D20*
X138335928Y-35875520D03*
D16*
X133335928Y-39625520D03*
D17*
X143835928Y-35875520D03*
X132835928Y-35875520D03*
D18*
X138335928Y-35875520D03*
D19*
X143555928Y-31675520D03*
D16*
X129406240Y-58825520D03*
D20*
X129406240Y-52875520D03*
D16*
X124406240Y-56625520D03*
D17*
X134906240Y-52875520D03*
X123906240Y-52875520D03*
D18*
X129406240Y-52875520D03*
D19*
X134626240Y-48675520D03*
D16*
X129406240Y-75825520D03*
D20*
X129406240Y-69875520D03*
D16*
X124406240Y-73625520D03*
D17*
X134906240Y-69875520D03*
X123906240Y-69875520D03*
D18*
X129406240Y-69875520D03*
D19*
X134626240Y-65675520D03*
D16*
X138335928Y-92825520D03*
D20*
X138335928Y-86875520D03*
D16*
X133335928Y-90625520D03*
D17*
X143835928Y-86875520D03*
X132835928Y-86875520D03*
D18*
X138335928Y-86875520D03*
D19*
X143555928Y-82675520D03*
D16*
X156195304Y-41825520D03*
D20*
X156195304Y-35875520D03*
D16*
X151195304Y-39625520D03*
D17*
X161695304Y-35875520D03*
X150695304Y-35875520D03*
D18*
X156195304Y-35875520D03*
D19*
X161415304Y-31675520D03*
D16*
X147265616Y-58825520D03*
D20*
X147265616Y-52875520D03*
D16*
X142265616Y-56625520D03*
D17*
X152765616Y-52875520D03*
X141765616Y-52875520D03*
D18*
X147265616Y-52875520D03*
D19*
X152485616Y-48675520D03*
D16*
X147265616Y-75825520D03*
D20*
X147265616Y-69875520D03*
D16*
X142265616Y-73625520D03*
D17*
X152765616Y-69875520D03*
X141765616Y-69875520D03*
D18*
X147265616Y-69875520D03*
D19*
X152485616Y-65675520D03*
D16*
X156195320Y-92825520D03*
D20*
X156195320Y-86875520D03*
D16*
X151195320Y-90625520D03*
D17*
X161695320Y-86875520D03*
X150695320Y-86875520D03*
D18*
X156195320Y-86875520D03*
D19*
X161415320Y-82675520D03*
D16*
X174054680Y-41825520D03*
D20*
X174054680Y-35875520D03*
D16*
X169054680Y-39625520D03*
D17*
X179554680Y-35875520D03*
X168554680Y-35875520D03*
D18*
X174054680Y-35875520D03*
D19*
X179274680Y-31675520D03*
D16*
X165124992Y-58825520D03*
D20*
X165124992Y-52875520D03*
D16*
X160124992Y-56625520D03*
D17*
X170624992Y-52875520D03*
X159624992Y-52875520D03*
D18*
X165124992Y-52875520D03*
D19*
X170344992Y-48675520D03*
D16*
X165124992Y-75825520D03*
D20*
X165124992Y-69875520D03*
D16*
X160124992Y-73625520D03*
D17*
X170624992Y-69875520D03*
X159624992Y-69875520D03*
D18*
X165124992Y-69875520D03*
D19*
X170344992Y-65675520D03*
D16*
X174054680Y-92825520D03*
D20*
X174054680Y-86875520D03*
D16*
X169054680Y-90625520D03*
D17*
X179554680Y-86875520D03*
X168554680Y-86875520D03*
D18*
X174054680Y-86875520D03*
D19*
X179274680Y-82675520D03*
D16*
X191914056Y-41825520D03*
D20*
X191914056Y-35875520D03*
D16*
X186914056Y-39625520D03*
D17*
X197414056Y-35875520D03*
X186414056Y-35875520D03*
D18*
X191914056Y-35875520D03*
D19*
X197134056Y-31675520D03*
D16*
X182984368Y-58825520D03*
D20*
X182984368Y-52875520D03*
D16*
X177984368Y-56625520D03*
D17*
X188484368Y-52875520D03*
X177484368Y-52875520D03*
D18*
X182984368Y-52875520D03*
D19*
X188204368Y-48675520D03*
D16*
X182984368Y-75825520D03*
D20*
X182984368Y-69875520D03*
D16*
X177984368Y-73625520D03*
D17*
X188484368Y-69875520D03*
X177484368Y-69875520D03*
D18*
X182984368Y-69875520D03*
D19*
X188204368Y-65675520D03*
D16*
X191914056Y-92825520D03*
D20*
X191914056Y-86875520D03*
D16*
X186914056Y-90625520D03*
D17*
X197414056Y-86875520D03*
X186414056Y-86875520D03*
D18*
X191914056Y-86875520D03*
D19*
X197134056Y-82675520D03*
D16*
X182984368Y-109825520D03*
D20*
X182984368Y-103875520D03*
D16*
X177984368Y-107625520D03*
D17*
X188484368Y-103875520D03*
X177484368Y-103875520D03*
D18*
X182984368Y-103875520D03*
D19*
X188204368Y-99675520D03*
D16*
X209773432Y-41825520D03*
D20*
X209773432Y-35875520D03*
D16*
X204773432Y-39625520D03*
D17*
X215273432Y-35875520D03*
X204273432Y-35875520D03*
D18*
X209773432Y-35875520D03*
D19*
X214993432Y-31675520D03*
D16*
X200843744Y-58825520D03*
D20*
X200843744Y-52875520D03*
D16*
X195843744Y-56625520D03*
D17*
X206343744Y-52875520D03*
X195343744Y-52875520D03*
D18*
X200843744Y-52875520D03*
D19*
X206063744Y-48675520D03*
D16*
X200843744Y-75825520D03*
D20*
X200843744Y-69875520D03*
D16*
X195843744Y-73625520D03*
D17*
X206343744Y-69875520D03*
X195343744Y-69875520D03*
D18*
X200843744Y-69875520D03*
D19*
X206063744Y-65675520D03*
D16*
X209773432Y-92825520D03*
D20*
X209773432Y-86875520D03*
D16*
X204773432Y-90625520D03*
D17*
X215273432Y-86875520D03*
X204273432Y-86875520D03*
D18*
X209773432Y-86875520D03*
D19*
X214993432Y-82675520D03*
D16*
X227632808Y-41825520D03*
D20*
X227632808Y-35875520D03*
D16*
X222632808Y-39625520D03*
D17*
X233132808Y-35875520D03*
X222132808Y-35875520D03*
D18*
X227632808Y-35875520D03*
D19*
X232852808Y-31675520D03*
D16*
X218703120Y-58825520D03*
D20*
X218703120Y-52875520D03*
D16*
X213703120Y-56625520D03*
D17*
X224203120Y-52875520D03*
X213203120Y-52875520D03*
D18*
X218703120Y-52875520D03*
D19*
X223923120Y-48675520D03*
D16*
X218703120Y-75825520D03*
D20*
X218703120Y-69875520D03*
D16*
X213703120Y-73625520D03*
D17*
X224203120Y-69875520D03*
X213203120Y-69875520D03*
D18*
X218703120Y-69875520D03*
D19*
X223923120Y-65675520D03*
D16*
X227632808Y-92825520D03*
D20*
X227632808Y-86875520D03*
D16*
X222632808Y-90625520D03*
D17*
X233132808Y-86875520D03*
X222132808Y-86875520D03*
D18*
X227632808Y-86875520D03*
D19*
X232852808Y-82675520D03*
D16*
X227632808Y-114075520D03*
D20*
X227632808Y-108125520D03*
D16*
X222632808Y-111875520D03*
D17*
X233132808Y-108125520D03*
X222132808Y-108125520D03*
D18*
X227632808Y-108125520D03*
D19*
X232852808Y-103925520D03*
D16*
X245492187Y-41825520D03*
D20*
X245492187Y-35875520D03*
D16*
X240492187Y-39625520D03*
D17*
X250992187Y-35875520D03*
X239992187Y-35875520D03*
D18*
X245492187Y-35875520D03*
D19*
X250712187Y-31675520D03*
D16*
X245492184Y-97075520D03*
D20*
X245492184Y-91125520D03*
D16*
X240492184Y-94875520D03*
D17*
X250992184Y-91125520D03*
X239992184Y-91125520D03*
D18*
X245492184Y-91125520D03*
D19*
X250712184Y-86925520D03*
D16*
X245492184Y-114075520D03*
D20*
X245492184Y-108125520D03*
D16*
X240492184Y-111875520D03*
D17*
X250992184Y-108125520D03*
X239992184Y-108125520D03*
D18*
X245492184Y-108125520D03*
D19*
X250712184Y-103925520D03*
D16*
X263351560Y-41825520D03*
D20*
X263351560Y-35875520D03*
D16*
X258351560Y-39625520D03*
D17*
X268851560Y-35875520D03*
X257851560Y-35875520D03*
D18*
X263351560Y-35875520D03*
D19*
X268571560Y-31675520D03*
D16*
X263351560Y-58825520D03*
D20*
X263351560Y-52875520D03*
D16*
X258351560Y-56625520D03*
D17*
X268851560Y-52875520D03*
X257851560Y-52875520D03*
D18*
X263351560Y-52875520D03*
D19*
X268571560Y-48675520D03*
D16*
X263351560Y-75825520D03*
D20*
X263351560Y-69875520D03*
D16*
X258351560Y-73625520D03*
D17*
X268851560Y-69875520D03*
X257851560Y-69875520D03*
D18*
X263351560Y-69875520D03*
D19*
X268571560Y-65675520D03*
D16*
X263351560Y-92825520D03*
D20*
X263351560Y-86875520D03*
D16*
X258351560Y-90625520D03*
D17*
X268851560Y-86875520D03*
X257851560Y-86875520D03*
D18*
X263351560Y-86875520D03*
D19*
X268571560Y-82675520D03*
D16*
X263351560Y-114075520D03*
D20*
X263351560Y-108125520D03*
D16*
X258351560Y-111875520D03*
D17*
X268851560Y-108125520D03*
X257851560Y-108125520D03*
D18*
X263351560Y-108125520D03*
D19*
X268571560Y-103925520D03*
D16*
X281210937Y-41825520D03*
D20*
X281210937Y-35875520D03*
D16*
X276210937Y-39625520D03*
D17*
X286710937Y-35875520D03*
X275710937Y-35875520D03*
D18*
X281210937Y-35875520D03*
D19*
X286430937Y-31675520D03*
D16*
X281210936Y-58825520D03*
D20*
X281210936Y-52875520D03*
D16*
X276210936Y-56625520D03*
D17*
X286710936Y-52875520D03*
X275710936Y-52875520D03*
D18*
X281210936Y-52875520D03*
D19*
X286430936Y-48675520D03*
D16*
X281210936Y-75825520D03*
D20*
X281210936Y-69875520D03*
D16*
X276210936Y-73625520D03*
D17*
X286710936Y-69875520D03*
X275710936Y-69875520D03*
D18*
X281210936Y-69875520D03*
D19*
X286430936Y-65675520D03*
D16*
X281210936Y-92825520D03*
D20*
X281210936Y-86875520D03*
D16*
X276210936Y-90625520D03*
D17*
X286710936Y-86875520D03*
X275710936Y-86875520D03*
D18*
X281210936Y-86875520D03*
D19*
X286430936Y-82675520D03*
D16*
X281210936Y-109825520D03*
D20*
X281210936Y-103875520D03*
D16*
X276210936Y-107625520D03*
D17*
X286710936Y-103875520D03*
X275710936Y-103875520D03*
D18*
X281210936Y-103875520D03*
D19*
X286430936Y-99675520D03*
D16*
X299070312Y-41825520D03*
D20*
X299070312Y-35875520D03*
D16*
X294070312Y-39625520D03*
D17*
X304570312Y-35875520D03*
X293570312Y-35875520D03*
D18*
X299070312Y-35875520D03*
D19*
X304290312Y-31675520D03*
D16*
X299070312Y-58825520D03*
D20*
X299070312Y-52875520D03*
D16*
X294070312Y-56625520D03*
D17*
X304570312Y-52875520D03*
X293570312Y-52875520D03*
D18*
X299070312Y-52875520D03*
D19*
X304290312Y-48675520D03*
D16*
X299070312Y-75825520D03*
D20*
X299070312Y-69875520D03*
D16*
X294070312Y-73625520D03*
D17*
X304570312Y-69875520D03*
X293570312Y-69875520D03*
D18*
X299070312Y-69875520D03*
D19*
X304290312Y-65675520D03*
D16*
X299070312Y-92825520D03*
D20*
X299070312Y-86875520D03*
D16*
X294070312Y-90625520D03*
D17*
X304570312Y-86875520D03*
X293570312Y-86875520D03*
D18*
X299070312Y-86875520D03*
D19*
X304290312Y-82675520D03*
D16*
X299070312Y-109825520D03*
D20*
X299070312Y-103875520D03*
D16*
X294070312Y-107625520D03*
D17*
X304570312Y-103875520D03*
X293570312Y-103875520D03*
D18*
X299070312Y-103875520D03*
D19*
X304290312Y-99675520D03*
D21*
X45100000Y-23830000D03*
X36450000Y-23830000D03*
D22*
X45100000Y-27210000D03*
X36450000Y-27210000D03*
D23*
X41200000Y-26840000D03*
X43750000Y-26840000D03*
X42900000Y-26840000D03*
X42050000Y-26840000D03*
X37800000Y-26840000D03*
X39500000Y-26840000D03*
X40350000Y-26840000D03*
X38650000Y-26840000D03*
X43750000Y-28190000D03*
X42900000Y-28190000D03*
X42050000Y-28190000D03*
X41200000Y-28190000D03*
X40350000Y-28190000D03*
X39500000Y-28190000D03*
X38650000Y-28190000D03*
X37800000Y-28190000D03*
D15*
X153419984Y-45365520D03*
X155959984Y-45365520D03*
G36*
G01*
X157649984Y-44315520D02*
X159349984Y-44315520D01*
G75*
G02*
X159549984Y-44515520I0J-200000D01*
G01*
X159549984Y-46215520D01*
G75*
G02*
X159349984Y-46415520I-200000J0D01*
G01*
X157649984Y-46415520D01*
G75*
G02*
X157449984Y-46215520I0J200000D01*
G01*
X157449984Y-44515520D01*
G75*
G02*
X157649984Y-44315520I200000J0D01*
G01*
G37*
X161039984Y-45365520D03*
X163579984Y-45365520D03*
X166119984Y-45365520D03*
X168659984Y-45365520D03*
G36*
G01*
X170349984Y-44315520D02*
X172049984Y-44315520D01*
G75*
G02*
X172249984Y-44515520I0J-200000D01*
G01*
X172249984Y-46215520D01*
G75*
G02*
X172049984Y-46415520I-200000J0D01*
G01*
X170349984Y-46415520D01*
G75*
G02*
X170149984Y-46215520I0J200000D01*
G01*
X170149984Y-44515520D01*
G75*
G02*
X170349984Y-44315520I200000J0D01*
G01*
G37*
X173739984Y-45365520D03*
X176279984Y-45365520D03*
X178819984Y-45365520D03*
X181359984Y-45365520D03*
G36*
G01*
X183049984Y-44315520D02*
X184749984Y-44315520D01*
G75*
G02*
X184949984Y-44515520I0J-200000D01*
G01*
X184949984Y-46215520D01*
G75*
G02*
X184749984Y-46415520I-200000J0D01*
G01*
X183049984Y-46415520D01*
G75*
G02*
X182849984Y-46215520I0J200000D01*
G01*
X182849984Y-44515520D01*
G75*
G02*
X183049984Y-44315520I200000J0D01*
G01*
G37*
X186439984Y-45365520D03*
X188979984Y-45365520D03*
X191519984Y-45365520D03*
X194059984Y-45365520D03*
G36*
G01*
X195749984Y-44315520D02*
X197449984Y-44315520D01*
G75*
G02*
X197649984Y-44515520I0J-200000D01*
G01*
X197649984Y-46215520D01*
G75*
G02*
X197449984Y-46415520I-200000J0D01*
G01*
X195749984Y-46415520D01*
G75*
G02*
X195549984Y-46215520I0J200000D01*
G01*
X195549984Y-44515520D01*
G75*
G02*
X195749984Y-44315520I200000J0D01*
G01*
G37*
X199139984Y-45365520D03*
X201679984Y-45365520D03*
X201679984Y-27585520D03*
X199139984Y-27585520D03*
G36*
G01*
X195749984Y-26535520D02*
X197449984Y-26535520D01*
G75*
G02*
X197649984Y-26735520I0J-200000D01*
G01*
X197649984Y-28435520D01*
G75*
G02*
X197449984Y-28635520I-200000J0D01*
G01*
X195749984Y-28635520D01*
G75*
G02*
X195549984Y-28435520I0J200000D01*
G01*
X195549984Y-26735520D01*
G75*
G02*
X195749984Y-26535520I200000J0D01*
G01*
G37*
X194059984Y-27585520D03*
X191519984Y-27585520D03*
X188979984Y-27585520D03*
X186439984Y-27585520D03*
G36*
G01*
X183049984Y-26535520D02*
X184749984Y-26535520D01*
G75*
G02*
X184949984Y-26735520I0J-200000D01*
G01*
X184949984Y-28435520D01*
G75*
G02*
X184749984Y-28635520I-200000J0D01*
G01*
X183049984Y-28635520D01*
G75*
G02*
X182849984Y-28435520I0J200000D01*
G01*
X182849984Y-26735520D01*
G75*
G02*
X183049984Y-26535520I200000J0D01*
G01*
G37*
X181359984Y-27585520D03*
X178819984Y-27585520D03*
X176279984Y-27585520D03*
X173739984Y-27585520D03*
G36*
G01*
X170349984Y-26535520D02*
X172049984Y-26535520D01*
G75*
G02*
X172249984Y-26735520I0J-200000D01*
G01*
X172249984Y-28435520D01*
G75*
G02*
X172049984Y-28635520I-200000J0D01*
G01*
X170349984Y-28635520D01*
G75*
G02*
X170149984Y-28435520I0J200000D01*
G01*
X170149984Y-26735520D01*
G75*
G02*
X170349984Y-26535520I200000J0D01*
G01*
G37*
X168659984Y-27585520D03*
X166119984Y-27585520D03*
X163579984Y-27585520D03*
X161039984Y-27585520D03*
G36*
G01*
X157649984Y-26535520D02*
X159349984Y-26535520D01*
G75*
G02*
X159549984Y-26735520I0J-200000D01*
G01*
X159549984Y-28435520D01*
G75*
G02*
X159349984Y-28635520I-200000J0D01*
G01*
X157649984Y-28635520D01*
G75*
G02*
X157449984Y-28435520I0J200000D01*
G01*
X157449984Y-26735520D01*
G75*
G02*
X157649984Y-26535520I200000J0D01*
G01*
G37*
X155959984Y-27585520D03*
X153419984Y-27585520D03*
D24*
X40600000Y-67600000D03*
D25*
X150800000Y-69550000D03*
X213100000Y-107750000D03*
X282650000Y-50450000D03*
D24*
X49050000Y-51800000D03*
X46450000Y-51750000D03*
X49050000Y-49100000D03*
X46450000Y-49100000D03*
X47800000Y-52350000D03*
X49700000Y-50450000D03*
X45900000Y-50450000D03*
X47800000Y-48550000D03*
D26*
X47800000Y-50450000D03*
D15*
X72820000Y-24460000D03*
X72820000Y-27000000D03*
X75360000Y-24460000D03*
X75360000Y-27000000D03*
X77900000Y-24460000D03*
G36*
G01*
X78750000Y-28050000D02*
X77050000Y-28050000D01*
G75*
G02*
X76850000Y-27850000I0J200000D01*
G01*
X76850000Y-26150000D01*
G75*
G02*
X77050000Y-25950000I200000J0D01*
G01*
X78750000Y-25950000D01*
G75*
G02*
X78950000Y-26150000I0J-200000D01*
G01*
X78950000Y-27850000D01*
G75*
G02*
X78750000Y-28050000I-200000J0D01*
G01*
G37*
D27*
X127950000Y-109825520D03*
X211965000Y-111775520D03*
X270850000Y-114070000D03*
X101149984Y-109825520D03*
X190499984Y-109825520D03*
X163699984Y-109825520D03*
X287565000Y-106675520D03*
X56549984Y-109825520D03*
D28*
X117500000Y-26800000D03*
X212750000Y-26800000D03*
X106450000Y-112400000D03*
D27*
X305649984Y-41575520D03*
X305649984Y-50600000D03*
X305649984Y-67575520D03*
X305600000Y-84600000D03*
X305600000Y-106400000D03*
X305649984Y-45500000D03*
X305649984Y-55700000D03*
X305650000Y-73275520D03*
X305600000Y-89700000D03*
X305600000Y-112500000D03*
M02*
