G04 #@! TF.GenerationSoftware,KiCad,Pcbnew,(5.1.10-1-10_14)*
G04 #@! TF.CreationDate,2021-11-20T18:58:22+09:00*
G04 #@! TF.ProjectId,nora,6e6f7261-2e6b-4696-9361-645f70636258,v.0.1*
G04 #@! TF.SameCoordinates,Original*
G04 #@! TF.FileFunction,Profile,NP*
%FSLAX46Y46*%
G04 Gerber Fmt 4.6, Leading zero omitted, Abs format (unit mm)*
G04 Created by KiCad (PCBNEW (5.1.10-1-10_14)) date 2021-11-20 18:58:22*
%MOMM*%
%LPD*%
G01*
G04 APERTURE LIST*
G04 #@! TA.AperFunction,Profile*
%ADD10C,0.120000*%
G04 #@! TD*
G04 #@! TA.AperFunction,Profile*
%ADD11C,0.300000*%
G04 #@! TD*
G04 APERTURE END LIST*
D10*
X105826552Y-106175520D02*
X111126552Y-106175520D01*
X105826552Y-100675520D02*
X111126552Y-100675520D01*
X111126552Y-106175520D02*
X111126552Y-100675520D01*
X105826552Y-100675520D02*
X105826552Y-106175520D01*
X106476552Y-94875520D02*
X110476552Y-94875520D01*
X106476552Y-98375520D02*
X110476552Y-98375520D01*
X106476552Y-94875520D02*
X106476552Y-98375520D01*
X110476552Y-98375520D02*
X110476552Y-94875520D01*
X129826552Y-106175520D02*
X135126552Y-106175520D01*
X129826552Y-100675520D02*
X135126552Y-100675520D01*
X135126552Y-106175520D02*
X135126552Y-100675520D01*
X129826552Y-100675520D02*
X129826552Y-106175520D01*
X130476552Y-94875520D02*
X134476552Y-94875520D01*
X130476552Y-98375520D02*
X134476552Y-98375520D01*
X130476552Y-94875520D02*
X130476552Y-98375520D01*
X134476552Y-98375520D02*
X134476552Y-94875520D01*
X141545304Y-106175520D02*
X146845304Y-106175520D01*
X141545304Y-100675520D02*
X146845304Y-100675520D01*
X146845304Y-106175520D02*
X146845304Y-100675520D01*
X141545304Y-100675520D02*
X141545304Y-106175520D01*
X142195304Y-94875520D02*
X146195304Y-94875520D01*
X142195304Y-98375520D02*
X146195304Y-98375520D01*
X142195304Y-94875520D02*
X142195304Y-98375520D01*
X146195304Y-98375520D02*
X146195304Y-94875520D01*
X165545304Y-106175520D02*
X170845304Y-106175520D01*
X165545304Y-100675520D02*
X170845304Y-100675520D01*
X170845304Y-106175520D02*
X170845304Y-100675520D01*
X165545304Y-100675520D02*
X165545304Y-106175520D01*
X166195304Y-94875520D02*
X170195304Y-94875520D01*
X166195304Y-98375520D02*
X170195304Y-98375520D01*
X166195304Y-94875520D02*
X166195304Y-98375520D01*
X170195304Y-98375520D02*
X170195304Y-94875520D01*
D11*
X305600000Y-22550000D02*
X46800000Y-22550000D01*
X22600000Y-115150000D02*
X22600000Y-80850000D01*
X23000000Y-80450000D02*
X26400000Y-80450000D01*
X26400000Y-77650000D02*
X23000000Y-77650000D01*
X22600000Y-77250000D02*
X22600000Y-24550000D01*
X307600000Y-80850000D02*
X307600000Y-115150000D01*
X307600000Y-77250000D02*
X307600000Y-24550000D01*
X303800000Y-80450000D02*
X307200000Y-80450000D01*
X303800000Y-77650000D02*
X307200000Y-77650000D01*
X35300000Y-22050000D02*
X46300000Y-22050000D01*
X24600000Y-22550000D02*
X34800000Y-22550000D01*
X305600000Y-117150000D02*
X24600000Y-117150000D01*
X307200000Y-80450000D02*
G75*
G02*
X307600000Y-80850000I0J-400000D01*
G01*
X307600000Y-77250000D02*
G75*
G02*
X307200000Y-77650000I-400000J0D01*
G01*
X22600000Y-80850000D02*
G75*
G02*
X23000000Y-80450000I400000J0D01*
G01*
X23000000Y-77650000D02*
G75*
G02*
X22600000Y-77250000I0J400000D01*
G01*
X24600000Y-22550000D02*
G75*
G03*
X22600000Y-24550000I0J-2000000D01*
G01*
X22600000Y-115150000D02*
G75*
G03*
X24600000Y-117150000I2000000J0D01*
G01*
X305600000Y-117150000D02*
G75*
G03*
X307600000Y-115150000I0J2000000D01*
G01*
X307600000Y-24550000D02*
G75*
G03*
X305600000Y-22550000I-2000000J0D01*
G01*
X27800000Y-79050000D02*
G75*
G03*
X26400000Y-77650000I-1400000J0D01*
G01*
X302400000Y-79050000D02*
G75*
G02*
X303800000Y-77650000I1400000J0D01*
G01*
X303800000Y-80450000D02*
G75*
G02*
X302400000Y-79050000I0J1400000D01*
G01*
X26400000Y-80450000D02*
G75*
G03*
X27800000Y-79050000I0J1400000D01*
G01*
X34800000Y-22550000D02*
G75*
G03*
X35300000Y-22050000I0J500000D01*
G01*
X46300000Y-22050000D02*
G75*
G03*
X46800000Y-22550000I500000J0D01*
G01*
D10*
X29475000Y-32675520D02*
X29475000Y-29675520D01*
X29475000Y-29675520D02*
X32875000Y-29675520D01*
X32875000Y-29675520D02*
X32875000Y-32675520D01*
X32875000Y-32675520D02*
X29475000Y-32675520D01*
X47334333Y-32675520D02*
X47334333Y-29675520D01*
X47334333Y-29675520D02*
X50734333Y-29675520D01*
X50734333Y-29675520D02*
X50734333Y-32675520D01*
X50734333Y-32675520D02*
X47334333Y-32675520D01*
X65193666Y-32675520D02*
X65193666Y-29675520D01*
X65193666Y-29675520D02*
X68593666Y-29675520D01*
X68593666Y-29675520D02*
X68593666Y-32675520D01*
X68593666Y-32675520D02*
X65193666Y-32675520D01*
X83052999Y-32675520D02*
X83052999Y-29675520D01*
X83052999Y-29675520D02*
X86452999Y-29675520D01*
X86452999Y-29675520D02*
X86452999Y-32675520D01*
X86452999Y-32675520D02*
X83052999Y-32675520D01*
X100912332Y-32675520D02*
X100912332Y-29675520D01*
X100912332Y-29675520D02*
X104312332Y-29675520D01*
X104312332Y-29675520D02*
X104312332Y-32675520D01*
X104312332Y-32675520D02*
X100912332Y-32675520D01*
X118771665Y-32675520D02*
X118771665Y-29675520D01*
X118771665Y-29675520D02*
X122171665Y-29675520D01*
X122171665Y-29675520D02*
X122171665Y-32675520D01*
X122171665Y-32675520D02*
X118771665Y-32675520D01*
X136630998Y-32675520D02*
X136630998Y-29675520D01*
X136630998Y-29675520D02*
X140030998Y-29675520D01*
X140030998Y-29675520D02*
X140030998Y-32675520D01*
X140030998Y-32675520D02*
X136630998Y-32675520D01*
X154490331Y-32675520D02*
X154490331Y-29675520D01*
X154490331Y-29675520D02*
X157890331Y-29675520D01*
X157890331Y-29675520D02*
X157890331Y-32675520D01*
X157890331Y-32675520D02*
X154490331Y-32675520D01*
X172349664Y-32675520D02*
X172349664Y-29675520D01*
X172349664Y-29675520D02*
X175749664Y-29675520D01*
X175749664Y-29675520D02*
X175749664Y-32675520D01*
X175749664Y-32675520D02*
X172349664Y-32675520D01*
X190208997Y-32675520D02*
X190208997Y-29675520D01*
X190208997Y-29675520D02*
X193608997Y-29675520D01*
X193608997Y-29675520D02*
X193608997Y-32675520D01*
X193608997Y-32675520D02*
X190208997Y-32675520D01*
X208068330Y-32675520D02*
X208068330Y-29675520D01*
X208068330Y-29675520D02*
X211468330Y-29675520D01*
X211468330Y-29675520D02*
X211468330Y-32675520D01*
X211468330Y-32675520D02*
X208068330Y-32675520D01*
X225927663Y-32675520D02*
X225927663Y-29675520D01*
X225927663Y-29675520D02*
X229327663Y-29675520D01*
X229327663Y-29675520D02*
X229327663Y-32675520D01*
X229327663Y-32675520D02*
X225927663Y-32675520D01*
X243786996Y-32675520D02*
X243786996Y-29675520D01*
X243786996Y-29675520D02*
X247186996Y-29675520D01*
X247186996Y-29675520D02*
X247186996Y-32675520D01*
X247186996Y-32675520D02*
X243786996Y-32675520D01*
X261646329Y-32675520D02*
X261646329Y-29675520D01*
X261646329Y-29675520D02*
X265046329Y-29675520D01*
X265046329Y-29675520D02*
X265046329Y-32675520D01*
X265046329Y-32675520D02*
X261646329Y-32675520D01*
X279505662Y-32675520D02*
X279505662Y-29675520D01*
X279505662Y-29675520D02*
X282905662Y-29675520D01*
X282905662Y-29675520D02*
X282905662Y-32675520D01*
X282905662Y-32675520D02*
X279505662Y-32675520D01*
X297365000Y-32675520D02*
X297365000Y-29675520D01*
X297365000Y-29675520D02*
X300765000Y-29675520D01*
X300765000Y-29675520D02*
X300765000Y-32675520D01*
X300765000Y-32675520D02*
X297365000Y-32675520D01*
M02*
