G04 #@! TF.GenerationSoftware,KiCad,Pcbnew,(5.1.10-1-10_14)*
G04 #@! TF.CreationDate,2021-11-20T18:36:26+09:00*
G04 #@! TF.ProjectId,nora,6e6f7261-2e6b-4696-9361-645f70636258,v.0.1*
G04 #@! TF.SameCoordinates,Original*
G04 #@! TF.FileFunction,Soldermask,Bot*
G04 #@! TF.FilePolarity,Negative*
%FSLAX46Y46*%
G04 Gerber Fmt 4.6, Leading zero omitted, Abs format (unit mm)*
G04 Created by KiCad (PCBNEW (5.1.10-1-10_14)) date 2021-11-20 18:36:26*
%MOMM*%
%LPD*%
G01*
G04 APERTURE LIST*
%ADD10O,2.100000X2.100000*%
%ADD11C,2.100000*%
%ADD12C,2.650000*%
%ADD13C,3.800000*%
%ADD14C,1.600000*%
%ADD15C,2.101800*%
%ADD16C,2.400000*%
%ADD17C,1.400000*%
%ADD18O,5.600000X2.800000*%
%ADD19C,5.200000*%
%ADD20C,1.900000*%
%ADD21C,2.600000*%
%ADD22O,1.300000X2.100000*%
%ADD23O,1.300000X2.800000*%
%ADD24C,1.100000*%
%ADD25C,0.100000*%
G04 APERTURE END LIST*
D10*
X149919984Y-44865520D03*
X152459984Y-44865520D03*
G36*
G01*
X154149984Y-43815520D02*
X155849984Y-43815520D01*
G75*
G02*
X156049984Y-44015520I0J-200000D01*
G01*
X156049984Y-45715520D01*
G75*
G02*
X155849984Y-45915520I-200000J0D01*
G01*
X154149984Y-45915520D01*
G75*
G02*
X153949984Y-45715520I0J200000D01*
G01*
X153949984Y-44015520D01*
G75*
G02*
X154149984Y-43815520I200000J0D01*
G01*
G37*
X157539984Y-44865520D03*
X160079984Y-44865520D03*
X162619984Y-44865520D03*
X165159984Y-44865520D03*
G36*
G01*
X166849984Y-43815520D02*
X168549984Y-43815520D01*
G75*
G02*
X168749984Y-44015520I0J-200000D01*
G01*
X168749984Y-45715520D01*
G75*
G02*
X168549984Y-45915520I-200000J0D01*
G01*
X166849984Y-45915520D01*
G75*
G02*
X166649984Y-45715520I0J200000D01*
G01*
X166649984Y-44015520D01*
G75*
G02*
X166849984Y-43815520I200000J0D01*
G01*
G37*
X170239984Y-44865520D03*
X172779984Y-44865520D03*
X175319984Y-44865520D03*
X177859984Y-44865520D03*
G36*
G01*
X179549984Y-43815520D02*
X181249984Y-43815520D01*
G75*
G02*
X181449984Y-44015520I0J-200000D01*
G01*
X181449984Y-45715520D01*
G75*
G02*
X181249984Y-45915520I-200000J0D01*
G01*
X179549984Y-45915520D01*
G75*
G02*
X179349984Y-45715520I0J200000D01*
G01*
X179349984Y-44015520D01*
G75*
G02*
X179549984Y-43815520I200000J0D01*
G01*
G37*
X182939984Y-44865520D03*
X185479984Y-44865520D03*
X188019984Y-44865520D03*
X190559984Y-44865520D03*
G36*
G01*
X192249984Y-43815520D02*
X193949984Y-43815520D01*
G75*
G02*
X194149984Y-44015520I0J-200000D01*
G01*
X194149984Y-45715520D01*
G75*
G02*
X193949984Y-45915520I-200000J0D01*
G01*
X192249984Y-45915520D01*
G75*
G02*
X192049984Y-45715520I0J200000D01*
G01*
X192049984Y-44015520D01*
G75*
G02*
X192249984Y-43815520I200000J0D01*
G01*
G37*
X195639984Y-44865520D03*
X198179984Y-44865520D03*
X198179984Y-27085520D03*
X195639984Y-27085520D03*
G36*
G01*
X192249984Y-26035520D02*
X193949984Y-26035520D01*
G75*
G02*
X194149984Y-26235520I0J-200000D01*
G01*
X194149984Y-27935520D01*
G75*
G02*
X193949984Y-28135520I-200000J0D01*
G01*
X192249984Y-28135520D01*
G75*
G02*
X192049984Y-27935520I0J200000D01*
G01*
X192049984Y-26235520D01*
G75*
G02*
X192249984Y-26035520I200000J0D01*
G01*
G37*
X190559984Y-27085520D03*
X188019984Y-27085520D03*
X185479984Y-27085520D03*
X182939984Y-27085520D03*
G36*
G01*
X179549984Y-26035520D02*
X181249984Y-26035520D01*
G75*
G02*
X181449984Y-26235520I0J-200000D01*
G01*
X181449984Y-27935520D01*
G75*
G02*
X181249984Y-28135520I-200000J0D01*
G01*
X179549984Y-28135520D01*
G75*
G02*
X179349984Y-27935520I0J200000D01*
G01*
X179349984Y-26235520D01*
G75*
G02*
X179549984Y-26035520I200000J0D01*
G01*
G37*
X177859984Y-27085520D03*
X175319984Y-27085520D03*
X172779984Y-27085520D03*
X170239984Y-27085520D03*
G36*
G01*
X166849984Y-26035520D02*
X168549984Y-26035520D01*
G75*
G02*
X168749984Y-26235520I0J-200000D01*
G01*
X168749984Y-27935520D01*
G75*
G02*
X168549984Y-28135520I-200000J0D01*
G01*
X166849984Y-28135520D01*
G75*
G02*
X166649984Y-27935520I0J200000D01*
G01*
X166649984Y-26235520D01*
G75*
G02*
X166849984Y-26035520I200000J0D01*
G01*
G37*
X165159984Y-27085520D03*
X162619984Y-27085520D03*
X160079984Y-27085520D03*
X157539984Y-27085520D03*
G36*
G01*
X154149984Y-26035520D02*
X155849984Y-26035520D01*
G75*
G02*
X156049984Y-26235520I0J-200000D01*
G01*
X156049984Y-27935520D01*
G75*
G02*
X155849984Y-28135520I-200000J0D01*
G01*
X154149984Y-28135520D01*
G75*
G02*
X153949984Y-27935520I0J200000D01*
G01*
X153949984Y-26235520D01*
G75*
G02*
X154149984Y-26035520I200000J0D01*
G01*
G37*
X152459984Y-27085520D03*
X149919984Y-27085520D03*
X184169984Y-24375520D03*
X181629984Y-24375520D03*
X179089984Y-24375520D03*
G36*
G01*
X175699984Y-23325520D02*
X177399984Y-23325520D01*
G75*
G02*
X177599984Y-23525520I0J-200000D01*
G01*
X177599984Y-25225520D01*
G75*
G02*
X177399984Y-25425520I-200000J0D01*
G01*
X175699984Y-25425520D01*
G75*
G02*
X175499984Y-25225520I0J200000D01*
G01*
X175499984Y-23525520D01*
G75*
G02*
X175699984Y-23325520I200000J0D01*
G01*
G37*
D11*
X210808588Y-103875520D03*
X199808588Y-103875520D03*
D12*
X200308588Y-107675520D03*
X205308588Y-109775520D03*
D13*
X205308588Y-103875520D03*
D14*
X210528588Y-99675520D03*
D12*
X142265616Y-73675520D03*
D15*
X152765616Y-69875520D03*
X141765616Y-69875520D03*
D11*
X152765616Y-69875520D03*
X141765616Y-69875520D03*
D12*
X147265616Y-75775520D03*
D13*
X147265616Y-69875520D03*
D14*
X152485616Y-65675520D03*
D12*
X276210936Y-56675520D03*
D15*
X286710936Y-52875520D03*
X275710936Y-52875520D03*
D11*
X286710936Y-52875520D03*
X275710936Y-52875520D03*
D12*
X281210936Y-58775520D03*
D13*
X281210936Y-52875520D03*
D14*
X286430936Y-48675520D03*
D12*
X294070312Y-73675520D03*
D15*
X304570312Y-69875520D03*
X293570312Y-69875520D03*
D11*
X304570312Y-69875520D03*
X293570312Y-69875520D03*
D12*
X299070312Y-75775520D03*
D13*
X299070312Y-69875520D03*
D14*
X304290312Y-65675520D03*
D12*
X294070312Y-90675520D03*
D15*
X304570312Y-86875520D03*
X293570312Y-86875520D03*
D11*
X304570312Y-86875520D03*
X293570312Y-86875520D03*
D12*
X299070312Y-92775520D03*
D13*
X299070312Y-86875520D03*
D14*
X304290312Y-82675520D03*
D12*
X26179672Y-90675520D03*
D15*
X36679672Y-86875520D03*
X25679672Y-86875520D03*
D11*
X36679672Y-86875520D03*
X25679672Y-86875520D03*
D12*
X31179672Y-92775520D03*
D13*
X31179672Y-86875520D03*
D14*
X36399672Y-82675520D03*
D12*
X133335824Y-112050520D03*
D15*
X143835824Y-108250520D03*
X132835824Y-108250520D03*
D11*
X143835824Y-108250520D03*
X132835824Y-108250520D03*
D12*
X138335824Y-114150520D03*
D13*
X138335824Y-108250520D03*
D14*
X143555824Y-104050520D03*
D12*
X164589704Y-112050520D03*
D15*
X175089704Y-108250520D03*
X164089704Y-108250520D03*
D11*
X175089704Y-108250520D03*
X164089704Y-108250520D03*
D12*
X169589704Y-114150520D03*
D13*
X169589704Y-108250520D03*
D14*
X174809704Y-104050520D03*
D15*
X81328112Y-69875520D03*
X70328112Y-69875520D03*
D11*
X81328112Y-69875520D03*
X70328112Y-69875520D03*
D16*
X70828112Y-73675520D03*
X75828112Y-75775520D03*
D13*
X75828112Y-69875520D03*
D14*
X81048112Y-65675520D03*
G36*
G01*
X33480000Y-38760520D02*
X33480000Y-39960520D01*
G75*
G02*
X33280000Y-40160520I-200000J0D01*
G01*
X32380000Y-40160520D01*
G75*
G02*
X32180000Y-39960520I0J200000D01*
G01*
X32180000Y-38760520D01*
G75*
G02*
X32380000Y-38560520I200000J0D01*
G01*
X33280000Y-38560520D01*
G75*
G02*
X33480000Y-38760520I0J-200000D01*
G01*
G37*
G36*
G01*
X30180000Y-38760520D02*
X30180000Y-39960520D01*
G75*
G02*
X29980000Y-40160520I-200000J0D01*
G01*
X29080000Y-40160520D01*
G75*
G02*
X28880000Y-39960520I0J200000D01*
G01*
X28880000Y-38760520D01*
G75*
G02*
X29080000Y-38560520I200000J0D01*
G01*
X29980000Y-38560520D01*
G75*
G02*
X30180000Y-38760520I0J-200000D01*
G01*
G37*
G36*
G01*
X33470000Y-89750520D02*
X33470000Y-90950520D01*
G75*
G02*
X33270000Y-91150520I-200000J0D01*
G01*
X32370000Y-91150520D01*
G75*
G02*
X32170000Y-90950520I0J200000D01*
G01*
X32170000Y-89750520D01*
G75*
G02*
X32370000Y-89550520I200000J0D01*
G01*
X33270000Y-89550520D01*
G75*
G02*
X33470000Y-89750520I0J-200000D01*
G01*
G37*
G36*
G01*
X30170000Y-89750520D02*
X30170000Y-90950520D01*
G75*
G02*
X29970000Y-91150520I-200000J0D01*
G01*
X29070000Y-91150520D01*
G75*
G02*
X28870000Y-90950520I0J200000D01*
G01*
X28870000Y-89750520D01*
G75*
G02*
X29070000Y-89550520I200000J0D01*
G01*
X29970000Y-89550520D01*
G75*
G02*
X30170000Y-89750520I0J-200000D01*
G01*
G37*
G36*
G01*
X33450000Y-106750520D02*
X33450000Y-107950520D01*
G75*
G02*
X33250000Y-108150520I-200000J0D01*
G01*
X32350000Y-108150520D01*
G75*
G02*
X32150000Y-107950520I0J200000D01*
G01*
X32150000Y-106750520D01*
G75*
G02*
X32350000Y-106550520I200000J0D01*
G01*
X33250000Y-106550520D01*
G75*
G02*
X33450000Y-106750520I0J-200000D01*
G01*
G37*
G36*
G01*
X30150000Y-106750520D02*
X30150000Y-107950520D01*
G75*
G02*
X29950000Y-108150520I-200000J0D01*
G01*
X29050000Y-108150520D01*
G75*
G02*
X28850000Y-107950520I0J200000D01*
G01*
X28850000Y-106750520D01*
G75*
G02*
X29050000Y-106550520I200000J0D01*
G01*
X29950000Y-106550520D01*
G75*
G02*
X30150000Y-106750520I0J-200000D01*
G01*
G37*
G36*
G01*
X51339333Y-38760520D02*
X51339333Y-39960520D01*
G75*
G02*
X51139333Y-40160520I-200000J0D01*
G01*
X50239333Y-40160520D01*
G75*
G02*
X50039333Y-39960520I0J200000D01*
G01*
X50039333Y-38760520D01*
G75*
G02*
X50239333Y-38560520I200000J0D01*
G01*
X51139333Y-38560520D01*
G75*
G02*
X51339333Y-38760520I0J-200000D01*
G01*
G37*
G36*
G01*
X48039333Y-38760520D02*
X48039333Y-39960520D01*
G75*
G02*
X47839333Y-40160520I-200000J0D01*
G01*
X46939333Y-40160520D01*
G75*
G02*
X46739333Y-39960520I0J200000D01*
G01*
X46739333Y-38760520D01*
G75*
G02*
X46939333Y-38560520I200000J0D01*
G01*
X47839333Y-38560520D01*
G75*
G02*
X48039333Y-38760520I0J-200000D01*
G01*
G37*
G36*
G01*
X29090000Y-55750520D02*
X29090000Y-56950520D01*
G75*
G02*
X28890000Y-57150520I-200000J0D01*
G01*
X27990000Y-57150520D01*
G75*
G02*
X27790000Y-56950520I0J200000D01*
G01*
X27790000Y-55750520D01*
G75*
G02*
X27990000Y-55550520I200000J0D01*
G01*
X28890000Y-55550520D01*
G75*
G02*
X29090000Y-55750520I0J-200000D01*
G01*
G37*
G36*
G01*
X25790000Y-55750520D02*
X25790000Y-56950520D01*
G75*
G02*
X25590000Y-57150520I-200000J0D01*
G01*
X24690000Y-57150520D01*
G75*
G02*
X24490000Y-56950520I0J200000D01*
G01*
X24490000Y-55750520D01*
G75*
G02*
X24690000Y-55550520I200000J0D01*
G01*
X25590000Y-55550520D01*
G75*
G02*
X25790000Y-55750520I0J-200000D01*
G01*
G37*
G36*
G01*
X37950000Y-72750520D02*
X37950000Y-73950520D01*
G75*
G02*
X37750000Y-74150520I-200000J0D01*
G01*
X36850000Y-74150520D01*
G75*
G02*
X36650000Y-73950520I0J200000D01*
G01*
X36650000Y-72750520D01*
G75*
G02*
X36850000Y-72550520I200000J0D01*
G01*
X37750000Y-72550520D01*
G75*
G02*
X37950000Y-72750520I0J-200000D01*
G01*
G37*
G36*
G01*
X34650000Y-72750520D02*
X34650000Y-73950520D01*
G75*
G02*
X34450000Y-74150520I-200000J0D01*
G01*
X33550000Y-74150520D01*
G75*
G02*
X33350000Y-73950520I0J200000D01*
G01*
X33350000Y-72750520D01*
G75*
G02*
X33550000Y-72550520I200000J0D01*
G01*
X34450000Y-72550520D01*
G75*
G02*
X34650000Y-72750520I0J-200000D01*
G01*
G37*
G36*
G01*
X51329333Y-89750520D02*
X51329333Y-90950520D01*
G75*
G02*
X51129333Y-91150520I-200000J0D01*
G01*
X50229333Y-91150520D01*
G75*
G02*
X50029333Y-90950520I0J200000D01*
G01*
X50029333Y-89750520D01*
G75*
G02*
X50229333Y-89550520I200000J0D01*
G01*
X51129333Y-89550520D01*
G75*
G02*
X51329333Y-89750520I0J-200000D01*
G01*
G37*
G36*
G01*
X48029333Y-89750520D02*
X48029333Y-90950520D01*
G75*
G02*
X47829333Y-91150520I-200000J0D01*
G01*
X46929333Y-91150520D01*
G75*
G02*
X46729333Y-90950520I0J200000D01*
G01*
X46729333Y-89750520D01*
G75*
G02*
X46929333Y-89550520I200000J0D01*
G01*
X47829333Y-89550520D01*
G75*
G02*
X48029333Y-89750520I0J-200000D01*
G01*
G37*
G36*
G01*
X51350000Y-106750520D02*
X51350000Y-107950520D01*
G75*
G02*
X51150000Y-108150520I-200000J0D01*
G01*
X50250000Y-108150520D01*
G75*
G02*
X50050000Y-107950520I0J200000D01*
G01*
X50050000Y-106750520D01*
G75*
G02*
X50250000Y-106550520I200000J0D01*
G01*
X51150000Y-106550520D01*
G75*
G02*
X51350000Y-106750520I0J-200000D01*
G01*
G37*
G36*
G01*
X48050000Y-106750520D02*
X48050000Y-107950520D01*
G75*
G02*
X47850000Y-108150520I-200000J0D01*
G01*
X46950000Y-108150520D01*
G75*
G02*
X46750000Y-107950520I0J200000D01*
G01*
X46750000Y-106750520D01*
G75*
G02*
X46950000Y-106550520I200000J0D01*
G01*
X47850000Y-106550520D01*
G75*
G02*
X48050000Y-106750520I0J-200000D01*
G01*
G37*
G36*
G01*
X69198666Y-38760520D02*
X69198666Y-39960520D01*
G75*
G02*
X68998666Y-40160520I-200000J0D01*
G01*
X68098666Y-40160520D01*
G75*
G02*
X67898666Y-39960520I0J200000D01*
G01*
X67898666Y-38760520D01*
G75*
G02*
X68098666Y-38560520I200000J0D01*
G01*
X68998666Y-38560520D01*
G75*
G02*
X69198666Y-38760520I0J-200000D01*
G01*
G37*
G36*
G01*
X65898666Y-38760520D02*
X65898666Y-39960520D01*
G75*
G02*
X65698666Y-40160520I-200000J0D01*
G01*
X64798666Y-40160520D01*
G75*
G02*
X64598666Y-39960520I0J200000D01*
G01*
X64598666Y-38760520D01*
G75*
G02*
X64798666Y-38560520I200000J0D01*
G01*
X65698666Y-38560520D01*
G75*
G02*
X65898666Y-38760520I0J-200000D01*
G01*
G37*
G36*
G01*
X61620000Y-55760520D02*
X61620000Y-56960520D01*
G75*
G02*
X61420000Y-57160520I-200000J0D01*
G01*
X60520000Y-57160520D01*
G75*
G02*
X60320000Y-56960520I0J200000D01*
G01*
X60320000Y-55760520D01*
G75*
G02*
X60520000Y-55560520I200000J0D01*
G01*
X61420000Y-55560520D01*
G75*
G02*
X61620000Y-55760520I0J-200000D01*
G01*
G37*
G36*
G01*
X58320000Y-55760520D02*
X58320000Y-56960520D01*
G75*
G02*
X58120000Y-57160520I-200000J0D01*
G01*
X57220000Y-57160520D01*
G75*
G02*
X57020000Y-56960520I0J200000D01*
G01*
X57020000Y-55760520D01*
G75*
G02*
X57220000Y-55560520I200000J0D01*
G01*
X58120000Y-55560520D01*
G75*
G02*
X58320000Y-55760520I0J-200000D01*
G01*
G37*
G36*
G01*
X60950000Y-72750520D02*
X60950000Y-73950520D01*
G75*
G02*
X60750000Y-74150520I-200000J0D01*
G01*
X59850000Y-74150520D01*
G75*
G02*
X59650000Y-73950520I0J200000D01*
G01*
X59650000Y-72750520D01*
G75*
G02*
X59850000Y-72550520I200000J0D01*
G01*
X60750000Y-72550520D01*
G75*
G02*
X60950000Y-72750520I0J-200000D01*
G01*
G37*
G36*
G01*
X57650000Y-72750520D02*
X57650000Y-73950520D01*
G75*
G02*
X57450000Y-74150520I-200000J0D01*
G01*
X56550000Y-74150520D01*
G75*
G02*
X56350000Y-73950520I0J200000D01*
G01*
X56350000Y-72750520D01*
G75*
G02*
X56550000Y-72550520I200000J0D01*
G01*
X57450000Y-72550520D01*
G75*
G02*
X57650000Y-72750520I0J-200000D01*
G01*
G37*
G36*
G01*
X69188666Y-89750520D02*
X69188666Y-90950520D01*
G75*
G02*
X68988666Y-91150520I-200000J0D01*
G01*
X68088666Y-91150520D01*
G75*
G02*
X67888666Y-90950520I0J200000D01*
G01*
X67888666Y-89750520D01*
G75*
G02*
X68088666Y-89550520I200000J0D01*
G01*
X68988666Y-89550520D01*
G75*
G02*
X69188666Y-89750520I0J-200000D01*
G01*
G37*
G36*
G01*
X65888666Y-89750520D02*
X65888666Y-90950520D01*
G75*
G02*
X65688666Y-91150520I-200000J0D01*
G01*
X64788666Y-91150520D01*
G75*
G02*
X64588666Y-90950520I0J200000D01*
G01*
X64588666Y-89750520D01*
G75*
G02*
X64788666Y-89550520I200000J0D01*
G01*
X65688666Y-89550520D01*
G75*
G02*
X65888666Y-89750520I0J-200000D01*
G01*
G37*
G36*
G01*
X73650000Y-106750520D02*
X73650000Y-107950520D01*
G75*
G02*
X73450000Y-108150520I-200000J0D01*
G01*
X72550000Y-108150520D01*
G75*
G02*
X72350000Y-107950520I0J200000D01*
G01*
X72350000Y-106750520D01*
G75*
G02*
X72550000Y-106550520I200000J0D01*
G01*
X73450000Y-106550520D01*
G75*
G02*
X73650000Y-106750520I0J-200000D01*
G01*
G37*
G36*
G01*
X70350000Y-106750520D02*
X70350000Y-107950520D01*
G75*
G02*
X70150000Y-108150520I-200000J0D01*
G01*
X69250000Y-108150520D01*
G75*
G02*
X69050000Y-107950520I0J200000D01*
G01*
X69050000Y-106750520D01*
G75*
G02*
X69250000Y-106550520I200000J0D01*
G01*
X70150000Y-106550520D01*
G75*
G02*
X70350000Y-106750520I0J-200000D01*
G01*
G37*
G36*
G01*
X87057999Y-38760520D02*
X87057999Y-39960520D01*
G75*
G02*
X86857999Y-40160520I-200000J0D01*
G01*
X85957999Y-40160520D01*
G75*
G02*
X85757999Y-39960520I0J200000D01*
G01*
X85757999Y-38760520D01*
G75*
G02*
X85957999Y-38560520I200000J0D01*
G01*
X86857999Y-38560520D01*
G75*
G02*
X87057999Y-38760520I0J-200000D01*
G01*
G37*
G36*
G01*
X83757999Y-38760520D02*
X83757999Y-39960520D01*
G75*
G02*
X83557999Y-40160520I-200000J0D01*
G01*
X82657999Y-40160520D01*
G75*
G02*
X82457999Y-39960520I0J200000D01*
G01*
X82457999Y-38760520D01*
G75*
G02*
X82657999Y-38560520I200000J0D01*
G01*
X83557999Y-38560520D01*
G75*
G02*
X83757999Y-38760520I0J-200000D01*
G01*
G37*
G36*
G01*
X78128888Y-55770520D02*
X78128888Y-56970520D01*
G75*
G02*
X77928888Y-57170520I-200000J0D01*
G01*
X77028888Y-57170520D01*
G75*
G02*
X76828888Y-56970520I0J200000D01*
G01*
X76828888Y-55770520D01*
G75*
G02*
X77028888Y-55570520I200000J0D01*
G01*
X77928888Y-55570520D01*
G75*
G02*
X78128888Y-55770520I0J-200000D01*
G01*
G37*
G36*
G01*
X74828888Y-55770520D02*
X74828888Y-56970520D01*
G75*
G02*
X74628888Y-57170520I-200000J0D01*
G01*
X73728888Y-57170520D01*
G75*
G02*
X73528888Y-56970520I0J200000D01*
G01*
X73528888Y-55770520D01*
G75*
G02*
X73728888Y-55570520I200000J0D01*
G01*
X74628888Y-55570520D01*
G75*
G02*
X74828888Y-55770520I0J-200000D01*
G01*
G37*
G36*
G01*
X78128888Y-72750520D02*
X78128888Y-73950520D01*
G75*
G02*
X77928888Y-74150520I-200000J0D01*
G01*
X77028888Y-74150520D01*
G75*
G02*
X76828888Y-73950520I0J200000D01*
G01*
X76828888Y-72750520D01*
G75*
G02*
X77028888Y-72550520I200000J0D01*
G01*
X77928888Y-72550520D01*
G75*
G02*
X78128888Y-72750520I0J-200000D01*
G01*
G37*
G36*
G01*
X74828888Y-72750520D02*
X74828888Y-73950520D01*
G75*
G02*
X74628888Y-74150520I-200000J0D01*
G01*
X73728888Y-74150520D01*
G75*
G02*
X73528888Y-73950520I0J200000D01*
G01*
X73528888Y-72750520D01*
G75*
G02*
X73728888Y-72550520I200000J0D01*
G01*
X74628888Y-72550520D01*
G75*
G02*
X74828888Y-72750520I0J-200000D01*
G01*
G37*
G36*
G01*
X87047999Y-89750520D02*
X87047999Y-90950520D01*
G75*
G02*
X86847999Y-91150520I-200000J0D01*
G01*
X85947999Y-91150520D01*
G75*
G02*
X85747999Y-90950520I0J200000D01*
G01*
X85747999Y-89750520D01*
G75*
G02*
X85947999Y-89550520I200000J0D01*
G01*
X86847999Y-89550520D01*
G75*
G02*
X87047999Y-89750520I0J-200000D01*
G01*
G37*
G36*
G01*
X83747999Y-89750520D02*
X83747999Y-90950520D01*
G75*
G02*
X83547999Y-91150520I-200000J0D01*
G01*
X82647999Y-91150520D01*
G75*
G02*
X82447999Y-90950520I0J200000D01*
G01*
X82447999Y-89750520D01*
G75*
G02*
X82647999Y-89550520I200000J0D01*
G01*
X83547999Y-89550520D01*
G75*
G02*
X83747999Y-89750520I0J-200000D01*
G01*
G37*
G36*
G01*
X96000000Y-106750520D02*
X96000000Y-107950520D01*
G75*
G02*
X95800000Y-108150520I-200000J0D01*
G01*
X94900000Y-108150520D01*
G75*
G02*
X94700000Y-107950520I0J200000D01*
G01*
X94700000Y-106750520D01*
G75*
G02*
X94900000Y-106550520I200000J0D01*
G01*
X95800000Y-106550520D01*
G75*
G02*
X96000000Y-106750520I0J-200000D01*
G01*
G37*
G36*
G01*
X92700000Y-106750520D02*
X92700000Y-107950520D01*
G75*
G02*
X92500000Y-108150520I-200000J0D01*
G01*
X91600000Y-108150520D01*
G75*
G02*
X91400000Y-107950520I0J200000D01*
G01*
X91400000Y-106750520D01*
G75*
G02*
X91600000Y-106550520I200000J0D01*
G01*
X92500000Y-106550520D01*
G75*
G02*
X92700000Y-106750520I0J-200000D01*
G01*
G37*
G36*
G01*
X104917332Y-38760520D02*
X104917332Y-39960520D01*
G75*
G02*
X104717332Y-40160520I-200000J0D01*
G01*
X103817332Y-40160520D01*
G75*
G02*
X103617332Y-39960520I0J200000D01*
G01*
X103617332Y-38760520D01*
G75*
G02*
X103817332Y-38560520I200000J0D01*
G01*
X104717332Y-38560520D01*
G75*
G02*
X104917332Y-38760520I0J-200000D01*
G01*
G37*
G36*
G01*
X101617332Y-38760520D02*
X101617332Y-39960520D01*
G75*
G02*
X101417332Y-40160520I-200000J0D01*
G01*
X100517332Y-40160520D01*
G75*
G02*
X100317332Y-39960520I0J200000D01*
G01*
X100317332Y-38760520D01*
G75*
G02*
X100517332Y-38560520I200000J0D01*
G01*
X101417332Y-38560520D01*
G75*
G02*
X101617332Y-38760520I0J-200000D01*
G01*
G37*
G36*
G01*
X95987776Y-55770520D02*
X95987776Y-56970520D01*
G75*
G02*
X95787776Y-57170520I-200000J0D01*
G01*
X94887776Y-57170520D01*
G75*
G02*
X94687776Y-56970520I0J200000D01*
G01*
X94687776Y-55770520D01*
G75*
G02*
X94887776Y-55570520I200000J0D01*
G01*
X95787776Y-55570520D01*
G75*
G02*
X95987776Y-55770520I0J-200000D01*
G01*
G37*
G36*
G01*
X92687776Y-55770520D02*
X92687776Y-56970520D01*
G75*
G02*
X92487776Y-57170520I-200000J0D01*
G01*
X91587776Y-57170520D01*
G75*
G02*
X91387776Y-56970520I0J200000D01*
G01*
X91387776Y-55770520D01*
G75*
G02*
X91587776Y-55570520I200000J0D01*
G01*
X92487776Y-55570520D01*
G75*
G02*
X92687776Y-55770520I0J-200000D01*
G01*
G37*
G36*
G01*
X95987776Y-72750520D02*
X95987776Y-73950520D01*
G75*
G02*
X95787776Y-74150520I-200000J0D01*
G01*
X94887776Y-74150520D01*
G75*
G02*
X94687776Y-73950520I0J200000D01*
G01*
X94687776Y-72750520D01*
G75*
G02*
X94887776Y-72550520I200000J0D01*
G01*
X95787776Y-72550520D01*
G75*
G02*
X95987776Y-72750520I0J-200000D01*
G01*
G37*
G36*
G01*
X92687776Y-72750520D02*
X92687776Y-73950520D01*
G75*
G02*
X92487776Y-74150520I-200000J0D01*
G01*
X91587776Y-74150520D01*
G75*
G02*
X91387776Y-73950520I0J200000D01*
G01*
X91387776Y-72750520D01*
G75*
G02*
X91587776Y-72550520I200000J0D01*
G01*
X92487776Y-72550520D01*
G75*
G02*
X92687776Y-72750520I0J-200000D01*
G01*
G37*
G36*
G01*
X104907332Y-89750520D02*
X104907332Y-90950520D01*
G75*
G02*
X104707332Y-91150520I-200000J0D01*
G01*
X103807332Y-91150520D01*
G75*
G02*
X103607332Y-90950520I0J200000D01*
G01*
X103607332Y-89750520D01*
G75*
G02*
X103807332Y-89550520I200000J0D01*
G01*
X104707332Y-89550520D01*
G75*
G02*
X104907332Y-89750520I0J-200000D01*
G01*
G37*
G36*
G01*
X101607332Y-89750520D02*
X101607332Y-90950520D01*
G75*
G02*
X101407332Y-91150520I-200000J0D01*
G01*
X100507332Y-91150520D01*
G75*
G02*
X100307332Y-90950520I0J200000D01*
G01*
X100307332Y-89750520D01*
G75*
G02*
X100507332Y-89550520I200000J0D01*
G01*
X101407332Y-89550520D01*
G75*
G02*
X101607332Y-89750520I0J-200000D01*
G01*
G37*
G36*
G01*
X122776665Y-38760520D02*
X122776665Y-39960520D01*
G75*
G02*
X122576665Y-40160520I-200000J0D01*
G01*
X121676665Y-40160520D01*
G75*
G02*
X121476665Y-39960520I0J200000D01*
G01*
X121476665Y-38760520D01*
G75*
G02*
X121676665Y-38560520I200000J0D01*
G01*
X122576665Y-38560520D01*
G75*
G02*
X122776665Y-38760520I0J-200000D01*
G01*
G37*
G36*
G01*
X119476665Y-38760520D02*
X119476665Y-39960520D01*
G75*
G02*
X119276665Y-40160520I-200000J0D01*
G01*
X118376665Y-40160520D01*
G75*
G02*
X118176665Y-39960520I0J200000D01*
G01*
X118176665Y-38760520D01*
G75*
G02*
X118376665Y-38560520I200000J0D01*
G01*
X119276665Y-38560520D01*
G75*
G02*
X119476665Y-38760520I0J-200000D01*
G01*
G37*
G36*
G01*
X113846664Y-55770520D02*
X113846664Y-56970520D01*
G75*
G02*
X113646664Y-57170520I-200000J0D01*
G01*
X112746664Y-57170520D01*
G75*
G02*
X112546664Y-56970520I0J200000D01*
G01*
X112546664Y-55770520D01*
G75*
G02*
X112746664Y-55570520I200000J0D01*
G01*
X113646664Y-55570520D01*
G75*
G02*
X113846664Y-55770520I0J-200000D01*
G01*
G37*
G36*
G01*
X110546664Y-55770520D02*
X110546664Y-56970520D01*
G75*
G02*
X110346664Y-57170520I-200000J0D01*
G01*
X109446664Y-57170520D01*
G75*
G02*
X109246664Y-56970520I0J200000D01*
G01*
X109246664Y-55770520D01*
G75*
G02*
X109446664Y-55570520I200000J0D01*
G01*
X110346664Y-55570520D01*
G75*
G02*
X110546664Y-55770520I0J-200000D01*
G01*
G37*
G36*
G01*
X113846664Y-72750520D02*
X113846664Y-73950520D01*
G75*
G02*
X113646664Y-74150520I-200000J0D01*
G01*
X112746664Y-74150520D01*
G75*
G02*
X112546664Y-73950520I0J200000D01*
G01*
X112546664Y-72750520D01*
G75*
G02*
X112746664Y-72550520I200000J0D01*
G01*
X113646664Y-72550520D01*
G75*
G02*
X113846664Y-72750520I0J-200000D01*
G01*
G37*
G36*
G01*
X110546664Y-72750520D02*
X110546664Y-73950520D01*
G75*
G02*
X110346664Y-74150520I-200000J0D01*
G01*
X109446664Y-74150520D01*
G75*
G02*
X109246664Y-73950520I0J200000D01*
G01*
X109246664Y-72750520D01*
G75*
G02*
X109446664Y-72550520I200000J0D01*
G01*
X110346664Y-72550520D01*
G75*
G02*
X110546664Y-72750520I0J-200000D01*
G01*
G37*
G36*
G01*
X122766665Y-89750520D02*
X122766665Y-90950520D01*
G75*
G02*
X122566665Y-91150520I-200000J0D01*
G01*
X121666665Y-91150520D01*
G75*
G02*
X121466665Y-90950520I0J200000D01*
G01*
X121466665Y-89750520D01*
G75*
G02*
X121666665Y-89550520I200000J0D01*
G01*
X122566665Y-89550520D01*
G75*
G02*
X122766665Y-89750520I0J-200000D01*
G01*
G37*
G36*
G01*
X119466665Y-89750520D02*
X119466665Y-90950520D01*
G75*
G02*
X119266665Y-91150520I-200000J0D01*
G01*
X118366665Y-91150520D01*
G75*
G02*
X118166665Y-90950520I0J200000D01*
G01*
X118166665Y-89750520D01*
G75*
G02*
X118366665Y-89550520I200000J0D01*
G01*
X119266665Y-89550520D01*
G75*
G02*
X119466665Y-89750520I0J-200000D01*
G01*
G37*
G36*
G01*
X122750000Y-106750520D02*
X122750000Y-107950520D01*
G75*
G02*
X122550000Y-108150520I-200000J0D01*
G01*
X121650000Y-108150520D01*
G75*
G02*
X121450000Y-107950520I0J200000D01*
G01*
X121450000Y-106750520D01*
G75*
G02*
X121650000Y-106550520I200000J0D01*
G01*
X122550000Y-106550520D01*
G75*
G02*
X122750000Y-106750520I0J-200000D01*
G01*
G37*
G36*
G01*
X119450000Y-106750520D02*
X119450000Y-107950520D01*
G75*
G02*
X119250000Y-108150520I-200000J0D01*
G01*
X118350000Y-108150520D01*
G75*
G02*
X118150000Y-107950520I0J200000D01*
G01*
X118150000Y-106750520D01*
G75*
G02*
X118350000Y-106550520I200000J0D01*
G01*
X119250000Y-106550520D01*
G75*
G02*
X119450000Y-106750520I0J-200000D01*
G01*
G37*
G36*
G01*
X140635998Y-38760520D02*
X140635998Y-39960520D01*
G75*
G02*
X140435998Y-40160520I-200000J0D01*
G01*
X139535998Y-40160520D01*
G75*
G02*
X139335998Y-39960520I0J200000D01*
G01*
X139335998Y-38760520D01*
G75*
G02*
X139535998Y-38560520I200000J0D01*
G01*
X140435998Y-38560520D01*
G75*
G02*
X140635998Y-38760520I0J-200000D01*
G01*
G37*
G36*
G01*
X137335998Y-38760520D02*
X137335998Y-39960520D01*
G75*
G02*
X137135998Y-40160520I-200000J0D01*
G01*
X136235998Y-40160520D01*
G75*
G02*
X136035998Y-39960520I0J200000D01*
G01*
X136035998Y-38760520D01*
G75*
G02*
X136235998Y-38560520I200000J0D01*
G01*
X137135998Y-38560520D01*
G75*
G02*
X137335998Y-38760520I0J-200000D01*
G01*
G37*
G36*
G01*
X131705552Y-55770520D02*
X131705552Y-56970520D01*
G75*
G02*
X131505552Y-57170520I-200000J0D01*
G01*
X130605552Y-57170520D01*
G75*
G02*
X130405552Y-56970520I0J200000D01*
G01*
X130405552Y-55770520D01*
G75*
G02*
X130605552Y-55570520I200000J0D01*
G01*
X131505552Y-55570520D01*
G75*
G02*
X131705552Y-55770520I0J-200000D01*
G01*
G37*
G36*
G01*
X128405552Y-55770520D02*
X128405552Y-56970520D01*
G75*
G02*
X128205552Y-57170520I-200000J0D01*
G01*
X127305552Y-57170520D01*
G75*
G02*
X127105552Y-56970520I0J200000D01*
G01*
X127105552Y-55770520D01*
G75*
G02*
X127305552Y-55570520I200000J0D01*
G01*
X128205552Y-55570520D01*
G75*
G02*
X128405552Y-55770520I0J-200000D01*
G01*
G37*
G36*
G01*
X131705552Y-72750520D02*
X131705552Y-73950520D01*
G75*
G02*
X131505552Y-74150520I-200000J0D01*
G01*
X130605552Y-74150520D01*
G75*
G02*
X130405552Y-73950520I0J200000D01*
G01*
X130405552Y-72750520D01*
G75*
G02*
X130605552Y-72550520I200000J0D01*
G01*
X131505552Y-72550520D01*
G75*
G02*
X131705552Y-72750520I0J-200000D01*
G01*
G37*
G36*
G01*
X128405552Y-72750520D02*
X128405552Y-73950520D01*
G75*
G02*
X128205552Y-74150520I-200000J0D01*
G01*
X127305552Y-74150520D01*
G75*
G02*
X127105552Y-73950520I0J200000D01*
G01*
X127105552Y-72750520D01*
G75*
G02*
X127305552Y-72550520I200000J0D01*
G01*
X128205552Y-72550520D01*
G75*
G02*
X128405552Y-72750520I0J-200000D01*
G01*
G37*
G36*
G01*
X140625998Y-89750520D02*
X140625998Y-90950520D01*
G75*
G02*
X140425998Y-91150520I-200000J0D01*
G01*
X139525998Y-91150520D01*
G75*
G02*
X139325998Y-90950520I0J200000D01*
G01*
X139325998Y-89750520D01*
G75*
G02*
X139525998Y-89550520I200000J0D01*
G01*
X140425998Y-89550520D01*
G75*
G02*
X140625998Y-89750520I0J-200000D01*
G01*
G37*
G36*
G01*
X137325998Y-89750520D02*
X137325998Y-90950520D01*
G75*
G02*
X137125998Y-91150520I-200000J0D01*
G01*
X136225998Y-91150520D01*
G75*
G02*
X136025998Y-90950520I0J200000D01*
G01*
X136025998Y-89750520D01*
G75*
G02*
X136225998Y-89550520I200000J0D01*
G01*
X137125998Y-89550520D01*
G75*
G02*
X137325998Y-89750520I0J-200000D01*
G01*
G37*
G36*
G01*
X158495331Y-38760520D02*
X158495331Y-39960520D01*
G75*
G02*
X158295331Y-40160520I-200000J0D01*
G01*
X157395331Y-40160520D01*
G75*
G02*
X157195331Y-39960520I0J200000D01*
G01*
X157195331Y-38760520D01*
G75*
G02*
X157395331Y-38560520I200000J0D01*
G01*
X158295331Y-38560520D01*
G75*
G02*
X158495331Y-38760520I0J-200000D01*
G01*
G37*
G36*
G01*
X155195331Y-38760520D02*
X155195331Y-39960520D01*
G75*
G02*
X154995331Y-40160520I-200000J0D01*
G01*
X154095331Y-40160520D01*
G75*
G02*
X153895331Y-39960520I0J200000D01*
G01*
X153895331Y-38760520D01*
G75*
G02*
X154095331Y-38560520I200000J0D01*
G01*
X154995331Y-38560520D01*
G75*
G02*
X155195331Y-38760520I0J-200000D01*
G01*
G37*
G36*
G01*
X149564440Y-55770520D02*
X149564440Y-56970520D01*
G75*
G02*
X149364440Y-57170520I-200000J0D01*
G01*
X148464440Y-57170520D01*
G75*
G02*
X148264440Y-56970520I0J200000D01*
G01*
X148264440Y-55770520D01*
G75*
G02*
X148464440Y-55570520I200000J0D01*
G01*
X149364440Y-55570520D01*
G75*
G02*
X149564440Y-55770520I0J-200000D01*
G01*
G37*
G36*
G01*
X146264440Y-55770520D02*
X146264440Y-56970520D01*
G75*
G02*
X146064440Y-57170520I-200000J0D01*
G01*
X145164440Y-57170520D01*
G75*
G02*
X144964440Y-56970520I0J200000D01*
G01*
X144964440Y-55770520D01*
G75*
G02*
X145164440Y-55570520I200000J0D01*
G01*
X146064440Y-55570520D01*
G75*
G02*
X146264440Y-55770520I0J-200000D01*
G01*
G37*
G36*
G01*
X149564440Y-72750520D02*
X149564440Y-73950520D01*
G75*
G02*
X149364440Y-74150520I-200000J0D01*
G01*
X148464440Y-74150520D01*
G75*
G02*
X148264440Y-73950520I0J200000D01*
G01*
X148264440Y-72750520D01*
G75*
G02*
X148464440Y-72550520I200000J0D01*
G01*
X149364440Y-72550520D01*
G75*
G02*
X149564440Y-72750520I0J-200000D01*
G01*
G37*
G36*
G01*
X146264440Y-72750520D02*
X146264440Y-73950520D01*
G75*
G02*
X146064440Y-74150520I-200000J0D01*
G01*
X145164440Y-74150520D01*
G75*
G02*
X144964440Y-73950520I0J200000D01*
G01*
X144964440Y-72750520D01*
G75*
G02*
X145164440Y-72550520I200000J0D01*
G01*
X146064440Y-72550520D01*
G75*
G02*
X146264440Y-72750520I0J-200000D01*
G01*
G37*
G36*
G01*
X158485331Y-89750520D02*
X158485331Y-90950520D01*
G75*
G02*
X158285331Y-91150520I-200000J0D01*
G01*
X157385331Y-91150520D01*
G75*
G02*
X157185331Y-90950520I0J200000D01*
G01*
X157185331Y-89750520D01*
G75*
G02*
X157385331Y-89550520I200000J0D01*
G01*
X158285331Y-89550520D01*
G75*
G02*
X158485331Y-89750520I0J-200000D01*
G01*
G37*
G36*
G01*
X155185331Y-89750520D02*
X155185331Y-90950520D01*
G75*
G02*
X154985331Y-91150520I-200000J0D01*
G01*
X154085331Y-91150520D01*
G75*
G02*
X153885331Y-90950520I0J200000D01*
G01*
X153885331Y-89750520D01*
G75*
G02*
X154085331Y-89550520I200000J0D01*
G01*
X154985331Y-89550520D01*
G75*
G02*
X155185331Y-89750520I0J-200000D01*
G01*
G37*
G36*
G01*
X158500000Y-106750520D02*
X158500000Y-107950520D01*
G75*
G02*
X158300000Y-108150520I-200000J0D01*
G01*
X157400000Y-108150520D01*
G75*
G02*
X157200000Y-107950520I0J200000D01*
G01*
X157200000Y-106750520D01*
G75*
G02*
X157400000Y-106550520I200000J0D01*
G01*
X158300000Y-106550520D01*
G75*
G02*
X158500000Y-106750520I0J-200000D01*
G01*
G37*
G36*
G01*
X155200000Y-106750520D02*
X155200000Y-107950520D01*
G75*
G02*
X155000000Y-108150520I-200000J0D01*
G01*
X154100000Y-108150520D01*
G75*
G02*
X153900000Y-107950520I0J200000D01*
G01*
X153900000Y-106750520D01*
G75*
G02*
X154100000Y-106550520I200000J0D01*
G01*
X155000000Y-106550520D01*
G75*
G02*
X155200000Y-106750520I0J-200000D01*
G01*
G37*
G36*
G01*
X176354664Y-38760520D02*
X176354664Y-39960520D01*
G75*
G02*
X176154664Y-40160520I-200000J0D01*
G01*
X175254664Y-40160520D01*
G75*
G02*
X175054664Y-39960520I0J200000D01*
G01*
X175054664Y-38760520D01*
G75*
G02*
X175254664Y-38560520I200000J0D01*
G01*
X176154664Y-38560520D01*
G75*
G02*
X176354664Y-38760520I0J-200000D01*
G01*
G37*
G36*
G01*
X173054664Y-38760520D02*
X173054664Y-39960520D01*
G75*
G02*
X172854664Y-40160520I-200000J0D01*
G01*
X171954664Y-40160520D01*
G75*
G02*
X171754664Y-39960520I0J200000D01*
G01*
X171754664Y-38760520D01*
G75*
G02*
X171954664Y-38560520I200000J0D01*
G01*
X172854664Y-38560520D01*
G75*
G02*
X173054664Y-38760520I0J-200000D01*
G01*
G37*
G36*
G01*
X167423328Y-55770520D02*
X167423328Y-56970520D01*
G75*
G02*
X167223328Y-57170520I-200000J0D01*
G01*
X166323328Y-57170520D01*
G75*
G02*
X166123328Y-56970520I0J200000D01*
G01*
X166123328Y-55770520D01*
G75*
G02*
X166323328Y-55570520I200000J0D01*
G01*
X167223328Y-55570520D01*
G75*
G02*
X167423328Y-55770520I0J-200000D01*
G01*
G37*
G36*
G01*
X164123328Y-55770520D02*
X164123328Y-56970520D01*
G75*
G02*
X163923328Y-57170520I-200000J0D01*
G01*
X163023328Y-57170520D01*
G75*
G02*
X162823328Y-56970520I0J200000D01*
G01*
X162823328Y-55770520D01*
G75*
G02*
X163023328Y-55570520I200000J0D01*
G01*
X163923328Y-55570520D01*
G75*
G02*
X164123328Y-55770520I0J-200000D01*
G01*
G37*
G36*
G01*
X167423328Y-72750520D02*
X167423328Y-73950520D01*
G75*
G02*
X167223328Y-74150520I-200000J0D01*
G01*
X166323328Y-74150520D01*
G75*
G02*
X166123328Y-73950520I0J200000D01*
G01*
X166123328Y-72750520D01*
G75*
G02*
X166323328Y-72550520I200000J0D01*
G01*
X167223328Y-72550520D01*
G75*
G02*
X167423328Y-72750520I0J-200000D01*
G01*
G37*
G36*
G01*
X164123328Y-72750520D02*
X164123328Y-73950520D01*
G75*
G02*
X163923328Y-74150520I-200000J0D01*
G01*
X163023328Y-74150520D01*
G75*
G02*
X162823328Y-73950520I0J200000D01*
G01*
X162823328Y-72750520D01*
G75*
G02*
X163023328Y-72550520I200000J0D01*
G01*
X163923328Y-72550520D01*
G75*
G02*
X164123328Y-72750520I0J-200000D01*
G01*
G37*
G36*
G01*
X176344664Y-89750520D02*
X176344664Y-90950520D01*
G75*
G02*
X176144664Y-91150520I-200000J0D01*
G01*
X175244664Y-91150520D01*
G75*
G02*
X175044664Y-90950520I0J200000D01*
G01*
X175044664Y-89750520D01*
G75*
G02*
X175244664Y-89550520I200000J0D01*
G01*
X176144664Y-89550520D01*
G75*
G02*
X176344664Y-89750520I0J-200000D01*
G01*
G37*
G36*
G01*
X173044664Y-89750520D02*
X173044664Y-90950520D01*
G75*
G02*
X172844664Y-91150520I-200000J0D01*
G01*
X171944664Y-91150520D01*
G75*
G02*
X171744664Y-90950520I0J200000D01*
G01*
X171744664Y-89750520D01*
G75*
G02*
X171944664Y-89550520I200000J0D01*
G01*
X172844664Y-89550520D01*
G75*
G02*
X173044664Y-89750520I0J-200000D01*
G01*
G37*
G36*
G01*
X194213997Y-38760520D02*
X194213997Y-39960520D01*
G75*
G02*
X194013997Y-40160520I-200000J0D01*
G01*
X193113997Y-40160520D01*
G75*
G02*
X192913997Y-39960520I0J200000D01*
G01*
X192913997Y-38760520D01*
G75*
G02*
X193113997Y-38560520I200000J0D01*
G01*
X194013997Y-38560520D01*
G75*
G02*
X194213997Y-38760520I0J-200000D01*
G01*
G37*
G36*
G01*
X190913997Y-38760520D02*
X190913997Y-39960520D01*
G75*
G02*
X190713997Y-40160520I-200000J0D01*
G01*
X189813997Y-40160520D01*
G75*
G02*
X189613997Y-39960520I0J200000D01*
G01*
X189613997Y-38760520D01*
G75*
G02*
X189813997Y-38560520I200000J0D01*
G01*
X190713997Y-38560520D01*
G75*
G02*
X190913997Y-38760520I0J-200000D01*
G01*
G37*
G36*
G01*
X185282216Y-55770520D02*
X185282216Y-56970520D01*
G75*
G02*
X185082216Y-57170520I-200000J0D01*
G01*
X184182216Y-57170520D01*
G75*
G02*
X183982216Y-56970520I0J200000D01*
G01*
X183982216Y-55770520D01*
G75*
G02*
X184182216Y-55570520I200000J0D01*
G01*
X185082216Y-55570520D01*
G75*
G02*
X185282216Y-55770520I0J-200000D01*
G01*
G37*
G36*
G01*
X181982216Y-55770520D02*
X181982216Y-56970520D01*
G75*
G02*
X181782216Y-57170520I-200000J0D01*
G01*
X180882216Y-57170520D01*
G75*
G02*
X180682216Y-56970520I0J200000D01*
G01*
X180682216Y-55770520D01*
G75*
G02*
X180882216Y-55570520I200000J0D01*
G01*
X181782216Y-55570520D01*
G75*
G02*
X181982216Y-55770520I0J-200000D01*
G01*
G37*
G36*
G01*
X185282216Y-72750520D02*
X185282216Y-73950520D01*
G75*
G02*
X185082216Y-74150520I-200000J0D01*
G01*
X184182216Y-74150520D01*
G75*
G02*
X183982216Y-73950520I0J200000D01*
G01*
X183982216Y-72750520D01*
G75*
G02*
X184182216Y-72550520I200000J0D01*
G01*
X185082216Y-72550520D01*
G75*
G02*
X185282216Y-72750520I0J-200000D01*
G01*
G37*
G36*
G01*
X181982216Y-72750520D02*
X181982216Y-73950520D01*
G75*
G02*
X181782216Y-74150520I-200000J0D01*
G01*
X180882216Y-74150520D01*
G75*
G02*
X180682216Y-73950520I0J200000D01*
G01*
X180682216Y-72750520D01*
G75*
G02*
X180882216Y-72550520I200000J0D01*
G01*
X181782216Y-72550520D01*
G75*
G02*
X181982216Y-72750520I0J-200000D01*
G01*
G37*
G36*
G01*
X194203997Y-89750520D02*
X194203997Y-90950520D01*
G75*
G02*
X194003997Y-91150520I-200000J0D01*
G01*
X193103997Y-91150520D01*
G75*
G02*
X192903997Y-90950520I0J200000D01*
G01*
X192903997Y-89750520D01*
G75*
G02*
X193103997Y-89550520I200000J0D01*
G01*
X194003997Y-89550520D01*
G75*
G02*
X194203997Y-89750520I0J-200000D01*
G01*
G37*
G36*
G01*
X190903997Y-89750520D02*
X190903997Y-90950520D01*
G75*
G02*
X190703997Y-91150520I-200000J0D01*
G01*
X189803997Y-91150520D01*
G75*
G02*
X189603997Y-90950520I0J200000D01*
G01*
X189603997Y-89750520D01*
G75*
G02*
X189803997Y-89550520I200000J0D01*
G01*
X190703997Y-89550520D01*
G75*
G02*
X190903997Y-89750520I0J-200000D01*
G01*
G37*
G36*
G01*
X185300000Y-106750520D02*
X185300000Y-107950520D01*
G75*
G02*
X185100000Y-108150520I-200000J0D01*
G01*
X184200000Y-108150520D01*
G75*
G02*
X184000000Y-107950520I0J200000D01*
G01*
X184000000Y-106750520D01*
G75*
G02*
X184200000Y-106550520I200000J0D01*
G01*
X185100000Y-106550520D01*
G75*
G02*
X185300000Y-106750520I0J-200000D01*
G01*
G37*
G36*
G01*
X182000000Y-106750520D02*
X182000000Y-107950520D01*
G75*
G02*
X181800000Y-108150520I-200000J0D01*
G01*
X180900000Y-108150520D01*
G75*
G02*
X180700000Y-107950520I0J200000D01*
G01*
X180700000Y-106750520D01*
G75*
G02*
X180900000Y-106550520I200000J0D01*
G01*
X181800000Y-106550520D01*
G75*
G02*
X182000000Y-106750520I0J-200000D01*
G01*
G37*
G36*
G01*
X212073330Y-38760520D02*
X212073330Y-39960520D01*
G75*
G02*
X211873330Y-40160520I-200000J0D01*
G01*
X210973330Y-40160520D01*
G75*
G02*
X210773330Y-39960520I0J200000D01*
G01*
X210773330Y-38760520D01*
G75*
G02*
X210973330Y-38560520I200000J0D01*
G01*
X211873330Y-38560520D01*
G75*
G02*
X212073330Y-38760520I0J-200000D01*
G01*
G37*
G36*
G01*
X208773330Y-38760520D02*
X208773330Y-39960520D01*
G75*
G02*
X208573330Y-40160520I-200000J0D01*
G01*
X207673330Y-40160520D01*
G75*
G02*
X207473330Y-39960520I0J200000D01*
G01*
X207473330Y-38760520D01*
G75*
G02*
X207673330Y-38560520I200000J0D01*
G01*
X208573330Y-38560520D01*
G75*
G02*
X208773330Y-38760520I0J-200000D01*
G01*
G37*
G36*
G01*
X203141104Y-55770520D02*
X203141104Y-56970520D01*
G75*
G02*
X202941104Y-57170520I-200000J0D01*
G01*
X202041104Y-57170520D01*
G75*
G02*
X201841104Y-56970520I0J200000D01*
G01*
X201841104Y-55770520D01*
G75*
G02*
X202041104Y-55570520I200000J0D01*
G01*
X202941104Y-55570520D01*
G75*
G02*
X203141104Y-55770520I0J-200000D01*
G01*
G37*
G36*
G01*
X199841104Y-55770520D02*
X199841104Y-56970520D01*
G75*
G02*
X199641104Y-57170520I-200000J0D01*
G01*
X198741104Y-57170520D01*
G75*
G02*
X198541104Y-56970520I0J200000D01*
G01*
X198541104Y-55770520D01*
G75*
G02*
X198741104Y-55570520I200000J0D01*
G01*
X199641104Y-55570520D01*
G75*
G02*
X199841104Y-55770520I0J-200000D01*
G01*
G37*
G36*
G01*
X203141104Y-72750520D02*
X203141104Y-73950520D01*
G75*
G02*
X202941104Y-74150520I-200000J0D01*
G01*
X202041104Y-74150520D01*
G75*
G02*
X201841104Y-73950520I0J200000D01*
G01*
X201841104Y-72750520D01*
G75*
G02*
X202041104Y-72550520I200000J0D01*
G01*
X202941104Y-72550520D01*
G75*
G02*
X203141104Y-72750520I0J-200000D01*
G01*
G37*
G36*
G01*
X199841104Y-72750520D02*
X199841104Y-73950520D01*
G75*
G02*
X199641104Y-74150520I-200000J0D01*
G01*
X198741104Y-74150520D01*
G75*
G02*
X198541104Y-73950520I0J200000D01*
G01*
X198541104Y-72750520D01*
G75*
G02*
X198741104Y-72550520I200000J0D01*
G01*
X199641104Y-72550520D01*
G75*
G02*
X199841104Y-72750520I0J-200000D01*
G01*
G37*
G36*
G01*
X212063330Y-89750520D02*
X212063330Y-90950520D01*
G75*
G02*
X211863330Y-91150520I-200000J0D01*
G01*
X210963330Y-91150520D01*
G75*
G02*
X210763330Y-90950520I0J200000D01*
G01*
X210763330Y-89750520D01*
G75*
G02*
X210963330Y-89550520I200000J0D01*
G01*
X211863330Y-89550520D01*
G75*
G02*
X212063330Y-89750520I0J-200000D01*
G01*
G37*
G36*
G01*
X208763330Y-89750520D02*
X208763330Y-90950520D01*
G75*
G02*
X208563330Y-91150520I-200000J0D01*
G01*
X207663330Y-91150520D01*
G75*
G02*
X207463330Y-90950520I0J200000D01*
G01*
X207463330Y-89750520D01*
G75*
G02*
X207663330Y-89550520I200000J0D01*
G01*
X208563330Y-89550520D01*
G75*
G02*
X208763330Y-89750520I0J-200000D01*
G01*
G37*
G36*
G01*
X207600000Y-106700520D02*
X207600000Y-107900520D01*
G75*
G02*
X207400000Y-108100520I-200000J0D01*
G01*
X206500000Y-108100520D01*
G75*
G02*
X206300000Y-107900520I0J200000D01*
G01*
X206300000Y-106700520D01*
G75*
G02*
X206500000Y-106500520I200000J0D01*
G01*
X207400000Y-106500520D01*
G75*
G02*
X207600000Y-106700520I0J-200000D01*
G01*
G37*
G36*
G01*
X204300000Y-106700520D02*
X204300000Y-107900520D01*
G75*
G02*
X204100000Y-108100520I-200000J0D01*
G01*
X203200000Y-108100520D01*
G75*
G02*
X203000000Y-107900520I0J200000D01*
G01*
X203000000Y-106700520D01*
G75*
G02*
X203200000Y-106500520I200000J0D01*
G01*
X204100000Y-106500520D01*
G75*
G02*
X204300000Y-106700520I0J-200000D01*
G01*
G37*
G36*
G01*
X229932663Y-38760520D02*
X229932663Y-39960520D01*
G75*
G02*
X229732663Y-40160520I-200000J0D01*
G01*
X228832663Y-40160520D01*
G75*
G02*
X228632663Y-39960520I0J200000D01*
G01*
X228632663Y-38760520D01*
G75*
G02*
X228832663Y-38560520I200000J0D01*
G01*
X229732663Y-38560520D01*
G75*
G02*
X229932663Y-38760520I0J-200000D01*
G01*
G37*
G36*
G01*
X226632663Y-38760520D02*
X226632663Y-39960520D01*
G75*
G02*
X226432663Y-40160520I-200000J0D01*
G01*
X225532663Y-40160520D01*
G75*
G02*
X225332663Y-39960520I0J200000D01*
G01*
X225332663Y-38760520D01*
G75*
G02*
X225532663Y-38560520I200000J0D01*
G01*
X226432663Y-38560520D01*
G75*
G02*
X226632663Y-38760520I0J-200000D01*
G01*
G37*
G36*
G01*
X221000000Y-55770520D02*
X221000000Y-56970520D01*
G75*
G02*
X220800000Y-57170520I-200000J0D01*
G01*
X219900000Y-57170520D01*
G75*
G02*
X219700000Y-56970520I0J200000D01*
G01*
X219700000Y-55770520D01*
G75*
G02*
X219900000Y-55570520I200000J0D01*
G01*
X220800000Y-55570520D01*
G75*
G02*
X221000000Y-55770520I0J-200000D01*
G01*
G37*
G36*
G01*
X217700000Y-55770520D02*
X217700000Y-56970520D01*
G75*
G02*
X217500000Y-57170520I-200000J0D01*
G01*
X216600000Y-57170520D01*
G75*
G02*
X216400000Y-56970520I0J200000D01*
G01*
X216400000Y-55770520D01*
G75*
G02*
X216600000Y-55570520I200000J0D01*
G01*
X217500000Y-55570520D01*
G75*
G02*
X217700000Y-55770520I0J-200000D01*
G01*
G37*
G36*
G01*
X221000000Y-72750520D02*
X221000000Y-73950520D01*
G75*
G02*
X220800000Y-74150520I-200000J0D01*
G01*
X219900000Y-74150520D01*
G75*
G02*
X219700000Y-73950520I0J200000D01*
G01*
X219700000Y-72750520D01*
G75*
G02*
X219900000Y-72550520I200000J0D01*
G01*
X220800000Y-72550520D01*
G75*
G02*
X221000000Y-72750520I0J-200000D01*
G01*
G37*
G36*
G01*
X217700000Y-72750520D02*
X217700000Y-73950520D01*
G75*
G02*
X217500000Y-74150520I-200000J0D01*
G01*
X216600000Y-74150520D01*
G75*
G02*
X216400000Y-73950520I0J200000D01*
G01*
X216400000Y-72750520D01*
G75*
G02*
X216600000Y-72550520I200000J0D01*
G01*
X217500000Y-72550520D01*
G75*
G02*
X217700000Y-72750520I0J-200000D01*
G01*
G37*
G36*
G01*
X229922663Y-89750520D02*
X229922663Y-90950520D01*
G75*
G02*
X229722663Y-91150520I-200000J0D01*
G01*
X228822663Y-91150520D01*
G75*
G02*
X228622663Y-90950520I0J200000D01*
G01*
X228622663Y-89750520D01*
G75*
G02*
X228822663Y-89550520I200000J0D01*
G01*
X229722663Y-89550520D01*
G75*
G02*
X229922663Y-89750520I0J-200000D01*
G01*
G37*
G36*
G01*
X226622663Y-89750520D02*
X226622663Y-90950520D01*
G75*
G02*
X226422663Y-91150520I-200000J0D01*
G01*
X225522663Y-91150520D01*
G75*
G02*
X225322663Y-90950520I0J200000D01*
G01*
X225322663Y-89750520D01*
G75*
G02*
X225522663Y-89550520I200000J0D01*
G01*
X226422663Y-89550520D01*
G75*
G02*
X226622663Y-89750520I0J-200000D01*
G01*
G37*
G36*
G01*
X229950000Y-111000520D02*
X229950000Y-112200520D01*
G75*
G02*
X229750000Y-112400520I-200000J0D01*
G01*
X228850000Y-112400520D01*
G75*
G02*
X228650000Y-112200520I0J200000D01*
G01*
X228650000Y-111000520D01*
G75*
G02*
X228850000Y-110800520I200000J0D01*
G01*
X229750000Y-110800520D01*
G75*
G02*
X229950000Y-111000520I0J-200000D01*
G01*
G37*
G36*
G01*
X226650000Y-111000520D02*
X226650000Y-112200520D01*
G75*
G02*
X226450000Y-112400520I-200000J0D01*
G01*
X225550000Y-112400520D01*
G75*
G02*
X225350000Y-112200520I0J200000D01*
G01*
X225350000Y-111000520D01*
G75*
G02*
X225550000Y-110800520I200000J0D01*
G01*
X226450000Y-110800520D01*
G75*
G02*
X226650000Y-111000520I0J-200000D01*
G01*
G37*
G36*
G01*
X247791996Y-38760520D02*
X247791996Y-39960520D01*
G75*
G02*
X247591996Y-40160520I-200000J0D01*
G01*
X246691996Y-40160520D01*
G75*
G02*
X246491996Y-39960520I0J200000D01*
G01*
X246491996Y-38760520D01*
G75*
G02*
X246691996Y-38560520I200000J0D01*
G01*
X247591996Y-38560520D01*
G75*
G02*
X247791996Y-38760520I0J-200000D01*
G01*
G37*
G36*
G01*
X244491996Y-38760520D02*
X244491996Y-39960520D01*
G75*
G02*
X244291996Y-40160520I-200000J0D01*
G01*
X243391996Y-40160520D01*
G75*
G02*
X243191996Y-39960520I0J200000D01*
G01*
X243191996Y-38760520D01*
G75*
G02*
X243391996Y-38560520I200000J0D01*
G01*
X244291996Y-38560520D01*
G75*
G02*
X244491996Y-38760520I0J-200000D01*
G01*
G37*
G36*
G01*
X243320000Y-55770520D02*
X243320000Y-56970520D01*
G75*
G02*
X243120000Y-57170520I-200000J0D01*
G01*
X242220000Y-57170520D01*
G75*
G02*
X242020000Y-56970520I0J200000D01*
G01*
X242020000Y-55770520D01*
G75*
G02*
X242220000Y-55570520I200000J0D01*
G01*
X243120000Y-55570520D01*
G75*
G02*
X243320000Y-55770520I0J-200000D01*
G01*
G37*
G36*
G01*
X240020000Y-55770520D02*
X240020000Y-56970520D01*
G75*
G02*
X239820000Y-57170520I-200000J0D01*
G01*
X238920000Y-57170520D01*
G75*
G02*
X238720000Y-56970520I0J200000D01*
G01*
X238720000Y-55770520D01*
G75*
G02*
X238920000Y-55570520I200000J0D01*
G01*
X239820000Y-55570520D01*
G75*
G02*
X240020000Y-55770520I0J-200000D01*
G01*
G37*
G36*
G01*
X243310000Y-72740520D02*
X243310000Y-73940520D01*
G75*
G02*
X243110000Y-74140520I-200000J0D01*
G01*
X242210000Y-74140520D01*
G75*
G02*
X242010000Y-73940520I0J200000D01*
G01*
X242010000Y-72740520D01*
G75*
G02*
X242210000Y-72540520I200000J0D01*
G01*
X243110000Y-72540520D01*
G75*
G02*
X243310000Y-72740520I0J-200000D01*
G01*
G37*
G36*
G01*
X240010000Y-72740520D02*
X240010000Y-73940520D01*
G75*
G02*
X239810000Y-74140520I-200000J0D01*
G01*
X238910000Y-74140520D01*
G75*
G02*
X238710000Y-73940520I0J200000D01*
G01*
X238710000Y-72740520D01*
G75*
G02*
X238910000Y-72540520I200000J0D01*
G01*
X239810000Y-72540520D01*
G75*
G02*
X240010000Y-72740520I0J-200000D01*
G01*
G37*
G36*
G01*
X247770000Y-93970520D02*
X247770000Y-95170520D01*
G75*
G02*
X247570000Y-95370520I-200000J0D01*
G01*
X246670000Y-95370520D01*
G75*
G02*
X246470000Y-95170520I0J200000D01*
G01*
X246470000Y-93970520D01*
G75*
G02*
X246670000Y-93770520I200000J0D01*
G01*
X247570000Y-93770520D01*
G75*
G02*
X247770000Y-93970520I0J-200000D01*
G01*
G37*
G36*
G01*
X244470000Y-93970520D02*
X244470000Y-95170520D01*
G75*
G02*
X244270000Y-95370520I-200000J0D01*
G01*
X243370000Y-95370520D01*
G75*
G02*
X243170000Y-95170520I0J200000D01*
G01*
X243170000Y-93970520D01*
G75*
G02*
X243370000Y-93770520I200000J0D01*
G01*
X244270000Y-93770520D01*
G75*
G02*
X244470000Y-93970520I0J-200000D01*
G01*
G37*
G36*
G01*
X247800000Y-111000520D02*
X247800000Y-112200520D01*
G75*
G02*
X247600000Y-112400520I-200000J0D01*
G01*
X246700000Y-112400520D01*
G75*
G02*
X246500000Y-112200520I0J200000D01*
G01*
X246500000Y-111000520D01*
G75*
G02*
X246700000Y-110800520I200000J0D01*
G01*
X247600000Y-110800520D01*
G75*
G02*
X247800000Y-111000520I0J-200000D01*
G01*
G37*
G36*
G01*
X244500000Y-111000520D02*
X244500000Y-112200520D01*
G75*
G02*
X244300000Y-112400520I-200000J0D01*
G01*
X243400000Y-112400520D01*
G75*
G02*
X243200000Y-112200520I0J200000D01*
G01*
X243200000Y-111000520D01*
G75*
G02*
X243400000Y-110800520I200000J0D01*
G01*
X244300000Y-110800520D01*
G75*
G02*
X244500000Y-111000520I0J-200000D01*
G01*
G37*
G36*
G01*
X265651329Y-38760520D02*
X265651329Y-39960520D01*
G75*
G02*
X265451329Y-40160520I-200000J0D01*
G01*
X264551329Y-40160520D01*
G75*
G02*
X264351329Y-39960520I0J200000D01*
G01*
X264351329Y-38760520D01*
G75*
G02*
X264551329Y-38560520I200000J0D01*
G01*
X265451329Y-38560520D01*
G75*
G02*
X265651329Y-38760520I0J-200000D01*
G01*
G37*
G36*
G01*
X262351329Y-38760520D02*
X262351329Y-39960520D01*
G75*
G02*
X262151329Y-40160520I-200000J0D01*
G01*
X261251329Y-40160520D01*
G75*
G02*
X261051329Y-39960520I0J200000D01*
G01*
X261051329Y-38760520D01*
G75*
G02*
X261251329Y-38560520I200000J0D01*
G01*
X262151329Y-38560520D01*
G75*
G02*
X262351329Y-38760520I0J-200000D01*
G01*
G37*
G36*
G01*
X265660000Y-55750520D02*
X265660000Y-56950520D01*
G75*
G02*
X265460000Y-57150520I-200000J0D01*
G01*
X264560000Y-57150520D01*
G75*
G02*
X264360000Y-56950520I0J200000D01*
G01*
X264360000Y-55750520D01*
G75*
G02*
X264560000Y-55550520I200000J0D01*
G01*
X265460000Y-55550520D01*
G75*
G02*
X265660000Y-55750520I0J-200000D01*
G01*
G37*
G36*
G01*
X262360000Y-55750520D02*
X262360000Y-56950520D01*
G75*
G02*
X262160000Y-57150520I-200000J0D01*
G01*
X261260000Y-57150520D01*
G75*
G02*
X261060000Y-56950520I0J200000D01*
G01*
X261060000Y-55750520D01*
G75*
G02*
X261260000Y-55550520I200000J0D01*
G01*
X262160000Y-55550520D01*
G75*
G02*
X262360000Y-55750520I0J-200000D01*
G01*
G37*
G36*
G01*
X265640000Y-72750520D02*
X265640000Y-73950520D01*
G75*
G02*
X265440000Y-74150520I-200000J0D01*
G01*
X264540000Y-74150520D01*
G75*
G02*
X264340000Y-73950520I0J200000D01*
G01*
X264340000Y-72750520D01*
G75*
G02*
X264540000Y-72550520I200000J0D01*
G01*
X265440000Y-72550520D01*
G75*
G02*
X265640000Y-72750520I0J-200000D01*
G01*
G37*
G36*
G01*
X262340000Y-72750520D02*
X262340000Y-73950520D01*
G75*
G02*
X262140000Y-74150520I-200000J0D01*
G01*
X261240000Y-74150520D01*
G75*
G02*
X261040000Y-73950520I0J200000D01*
G01*
X261040000Y-72750520D01*
G75*
G02*
X261240000Y-72550520I200000J0D01*
G01*
X262140000Y-72550520D01*
G75*
G02*
X262340000Y-72750520I0J-200000D01*
G01*
G37*
G36*
G01*
X265641329Y-89750520D02*
X265641329Y-90950520D01*
G75*
G02*
X265441329Y-91150520I-200000J0D01*
G01*
X264541329Y-91150520D01*
G75*
G02*
X264341329Y-90950520I0J200000D01*
G01*
X264341329Y-89750520D01*
G75*
G02*
X264541329Y-89550520I200000J0D01*
G01*
X265441329Y-89550520D01*
G75*
G02*
X265641329Y-89750520I0J-200000D01*
G01*
G37*
G36*
G01*
X262341329Y-89750520D02*
X262341329Y-90950520D01*
G75*
G02*
X262141329Y-91150520I-200000J0D01*
G01*
X261241329Y-91150520D01*
G75*
G02*
X261041329Y-90950520I0J200000D01*
G01*
X261041329Y-89750520D01*
G75*
G02*
X261241329Y-89550520I200000J0D01*
G01*
X262141329Y-89550520D01*
G75*
G02*
X262341329Y-89750520I0J-200000D01*
G01*
G37*
G36*
G01*
X265650000Y-111000520D02*
X265650000Y-112200520D01*
G75*
G02*
X265450000Y-112400520I-200000J0D01*
G01*
X264550000Y-112400520D01*
G75*
G02*
X264350000Y-112200520I0J200000D01*
G01*
X264350000Y-111000520D01*
G75*
G02*
X264550000Y-110800520I200000J0D01*
G01*
X265450000Y-110800520D01*
G75*
G02*
X265650000Y-111000520I0J-200000D01*
G01*
G37*
G36*
G01*
X262350000Y-111000520D02*
X262350000Y-112200520D01*
G75*
G02*
X262150000Y-112400520I-200000J0D01*
G01*
X261250000Y-112400520D01*
G75*
G02*
X261050000Y-112200520I0J200000D01*
G01*
X261050000Y-111000520D01*
G75*
G02*
X261250000Y-110800520I200000J0D01*
G01*
X262150000Y-110800520D01*
G75*
G02*
X262350000Y-111000520I0J-200000D01*
G01*
G37*
G36*
G01*
X283510662Y-38760520D02*
X283510662Y-39960520D01*
G75*
G02*
X283310662Y-40160520I-200000J0D01*
G01*
X282410662Y-40160520D01*
G75*
G02*
X282210662Y-39960520I0J200000D01*
G01*
X282210662Y-38760520D01*
G75*
G02*
X282410662Y-38560520I200000J0D01*
G01*
X283310662Y-38560520D01*
G75*
G02*
X283510662Y-38760520I0J-200000D01*
G01*
G37*
G36*
G01*
X280210662Y-38760520D02*
X280210662Y-39960520D01*
G75*
G02*
X280010662Y-40160520I-200000J0D01*
G01*
X279110662Y-40160520D01*
G75*
G02*
X278910662Y-39960520I0J200000D01*
G01*
X278910662Y-38760520D01*
G75*
G02*
X279110662Y-38560520I200000J0D01*
G01*
X280010662Y-38560520D01*
G75*
G02*
X280210662Y-38760520I0J-200000D01*
G01*
G37*
G36*
G01*
X283515000Y-55750520D02*
X283515000Y-56950520D01*
G75*
G02*
X283315000Y-57150520I-200000J0D01*
G01*
X282415000Y-57150520D01*
G75*
G02*
X282215000Y-56950520I0J200000D01*
G01*
X282215000Y-55750520D01*
G75*
G02*
X282415000Y-55550520I200000J0D01*
G01*
X283315000Y-55550520D01*
G75*
G02*
X283515000Y-55750520I0J-200000D01*
G01*
G37*
G36*
G01*
X280215000Y-55750520D02*
X280215000Y-56950520D01*
G75*
G02*
X280015000Y-57150520I-200000J0D01*
G01*
X279115000Y-57150520D01*
G75*
G02*
X278915000Y-56950520I0J200000D01*
G01*
X278915000Y-55750520D01*
G75*
G02*
X279115000Y-55550520I200000J0D01*
G01*
X280015000Y-55550520D01*
G75*
G02*
X280215000Y-55750520I0J-200000D01*
G01*
G37*
G36*
G01*
X283495000Y-72750520D02*
X283495000Y-73950520D01*
G75*
G02*
X283295000Y-74150520I-200000J0D01*
G01*
X282395000Y-74150520D01*
G75*
G02*
X282195000Y-73950520I0J200000D01*
G01*
X282195000Y-72750520D01*
G75*
G02*
X282395000Y-72550520I200000J0D01*
G01*
X283295000Y-72550520D01*
G75*
G02*
X283495000Y-72750520I0J-200000D01*
G01*
G37*
G36*
G01*
X280195000Y-72750520D02*
X280195000Y-73950520D01*
G75*
G02*
X279995000Y-74150520I-200000J0D01*
G01*
X279095000Y-74150520D01*
G75*
G02*
X278895000Y-73950520I0J200000D01*
G01*
X278895000Y-72750520D01*
G75*
G02*
X279095000Y-72550520I200000J0D01*
G01*
X279995000Y-72550520D01*
G75*
G02*
X280195000Y-72750520I0J-200000D01*
G01*
G37*
G36*
G01*
X283500662Y-89750520D02*
X283500662Y-90950520D01*
G75*
G02*
X283300662Y-91150520I-200000J0D01*
G01*
X282400662Y-91150520D01*
G75*
G02*
X282200662Y-90950520I0J200000D01*
G01*
X282200662Y-89750520D01*
G75*
G02*
X282400662Y-89550520I200000J0D01*
G01*
X283300662Y-89550520D01*
G75*
G02*
X283500662Y-89750520I0J-200000D01*
G01*
G37*
G36*
G01*
X280200662Y-89750520D02*
X280200662Y-90950520D01*
G75*
G02*
X280000662Y-91150520I-200000J0D01*
G01*
X279100662Y-91150520D01*
G75*
G02*
X278900662Y-90950520I0J200000D01*
G01*
X278900662Y-89750520D01*
G75*
G02*
X279100662Y-89550520I200000J0D01*
G01*
X280000662Y-89550520D01*
G75*
G02*
X280200662Y-89750520I0J-200000D01*
G01*
G37*
G36*
G01*
X283550000Y-106750520D02*
X283550000Y-107950520D01*
G75*
G02*
X283350000Y-108150520I-200000J0D01*
G01*
X282450000Y-108150520D01*
G75*
G02*
X282250000Y-107950520I0J200000D01*
G01*
X282250000Y-106750520D01*
G75*
G02*
X282450000Y-106550520I200000J0D01*
G01*
X283350000Y-106550520D01*
G75*
G02*
X283550000Y-106750520I0J-200000D01*
G01*
G37*
G36*
G01*
X280250000Y-106750520D02*
X280250000Y-107950520D01*
G75*
G02*
X280050000Y-108150520I-200000J0D01*
G01*
X279150000Y-108150520D01*
G75*
G02*
X278950000Y-107950520I0J200000D01*
G01*
X278950000Y-106750520D01*
G75*
G02*
X279150000Y-106550520I200000J0D01*
G01*
X280050000Y-106550520D01*
G75*
G02*
X280250000Y-106750520I0J-200000D01*
G01*
G37*
G36*
G01*
X301370000Y-38760520D02*
X301370000Y-39960520D01*
G75*
G02*
X301170000Y-40160520I-200000J0D01*
G01*
X300270000Y-40160520D01*
G75*
G02*
X300070000Y-39960520I0J200000D01*
G01*
X300070000Y-38760520D01*
G75*
G02*
X300270000Y-38560520I200000J0D01*
G01*
X301170000Y-38560520D01*
G75*
G02*
X301370000Y-38760520I0J-200000D01*
G01*
G37*
G36*
G01*
X298070000Y-38760520D02*
X298070000Y-39960520D01*
G75*
G02*
X297870000Y-40160520I-200000J0D01*
G01*
X296970000Y-40160520D01*
G75*
G02*
X296770000Y-39960520I0J200000D01*
G01*
X296770000Y-38760520D01*
G75*
G02*
X296970000Y-38560520I200000J0D01*
G01*
X297870000Y-38560520D01*
G75*
G02*
X298070000Y-38760520I0J-200000D01*
G01*
G37*
G36*
G01*
X301370000Y-55750520D02*
X301370000Y-56950520D01*
G75*
G02*
X301170000Y-57150520I-200000J0D01*
G01*
X300270000Y-57150520D01*
G75*
G02*
X300070000Y-56950520I0J200000D01*
G01*
X300070000Y-55750520D01*
G75*
G02*
X300270000Y-55550520I200000J0D01*
G01*
X301170000Y-55550520D01*
G75*
G02*
X301370000Y-55750520I0J-200000D01*
G01*
G37*
G36*
G01*
X298070000Y-55750520D02*
X298070000Y-56950520D01*
G75*
G02*
X297870000Y-57150520I-200000J0D01*
G01*
X296970000Y-57150520D01*
G75*
G02*
X296770000Y-56950520I0J200000D01*
G01*
X296770000Y-55750520D01*
G75*
G02*
X296970000Y-55550520I200000J0D01*
G01*
X297870000Y-55550520D01*
G75*
G02*
X298070000Y-55750520I0J-200000D01*
G01*
G37*
G36*
G01*
X301350000Y-72710520D02*
X301350000Y-73910520D01*
G75*
G02*
X301150000Y-74110520I-200000J0D01*
G01*
X300250000Y-74110520D01*
G75*
G02*
X300050000Y-73910520I0J200000D01*
G01*
X300050000Y-72710520D01*
G75*
G02*
X300250000Y-72510520I200000J0D01*
G01*
X301150000Y-72510520D01*
G75*
G02*
X301350000Y-72710520I0J-200000D01*
G01*
G37*
G36*
G01*
X298050000Y-72710520D02*
X298050000Y-73910520D01*
G75*
G02*
X297850000Y-74110520I-200000J0D01*
G01*
X296950000Y-74110520D01*
G75*
G02*
X296750000Y-73910520I0J200000D01*
G01*
X296750000Y-72710520D01*
G75*
G02*
X296950000Y-72510520I200000J0D01*
G01*
X297850000Y-72510520D01*
G75*
G02*
X298050000Y-72710520I0J-200000D01*
G01*
G37*
G36*
G01*
X301360000Y-89750520D02*
X301360000Y-90950520D01*
G75*
G02*
X301160000Y-91150520I-200000J0D01*
G01*
X300260000Y-91150520D01*
G75*
G02*
X300060000Y-90950520I0J200000D01*
G01*
X300060000Y-89750520D01*
G75*
G02*
X300260000Y-89550520I200000J0D01*
G01*
X301160000Y-89550520D01*
G75*
G02*
X301360000Y-89750520I0J-200000D01*
G01*
G37*
G36*
G01*
X298060000Y-89750520D02*
X298060000Y-90950520D01*
G75*
G02*
X297860000Y-91150520I-200000J0D01*
G01*
X296960000Y-91150520D01*
G75*
G02*
X296760000Y-90950520I0J200000D01*
G01*
X296760000Y-89750520D01*
G75*
G02*
X296960000Y-89550520I200000J0D01*
G01*
X297860000Y-89550520D01*
G75*
G02*
X298060000Y-89750520I0J-200000D01*
G01*
G37*
G36*
G01*
X301400000Y-106750520D02*
X301400000Y-107950520D01*
G75*
G02*
X301200000Y-108150520I-200000J0D01*
G01*
X300300000Y-108150520D01*
G75*
G02*
X300100000Y-107950520I0J200000D01*
G01*
X300100000Y-106750520D01*
G75*
G02*
X300300000Y-106550520I200000J0D01*
G01*
X301200000Y-106550520D01*
G75*
G02*
X301400000Y-106750520I0J-200000D01*
G01*
G37*
G36*
G01*
X298100000Y-106750520D02*
X298100000Y-107950520D01*
G75*
G02*
X297900000Y-108150520I-200000J0D01*
G01*
X297000000Y-108150520D01*
G75*
G02*
X296800000Y-107950520I0J200000D01*
G01*
X296800000Y-106750520D01*
G75*
G02*
X297000000Y-106550520I200000J0D01*
G01*
X297900000Y-106550520D01*
G75*
G02*
X298100000Y-106750520I0J-200000D01*
G01*
G37*
D15*
X63468736Y-69875520D03*
X52468736Y-69875520D03*
D11*
X63468736Y-69875520D03*
X52468736Y-69875520D03*
D16*
X52968736Y-73675520D03*
X57968736Y-75775520D03*
D13*
X57968736Y-69875520D03*
D14*
X63188736Y-65675520D03*
D11*
X41144516Y-52875520D03*
X30144516Y-52875520D03*
D16*
X30644516Y-56675520D03*
X35644516Y-58775520D03*
D13*
X35644516Y-52875520D03*
D14*
X40864516Y-48675520D03*
G36*
G01*
X38950000Y-57100520D02*
X38950000Y-57650520D01*
G75*
G02*
X38750000Y-57850520I-200000J0D01*
G01*
X37250000Y-57850520D01*
G75*
G02*
X37050000Y-57650520I0J200000D01*
G01*
X37050000Y-57100520D01*
G75*
G02*
X37250000Y-56900520I200000J0D01*
G01*
X38750000Y-56900520D01*
G75*
G02*
X38950000Y-57100520I0J-200000D01*
G01*
G37*
G36*
G01*
X38950000Y-57900520D02*
X38950000Y-58450520D01*
G75*
G02*
X38750000Y-58650520I-200000J0D01*
G01*
X37250000Y-58650520D01*
G75*
G02*
X37050000Y-58450520I0J200000D01*
G01*
X37050000Y-57900520D01*
G75*
G02*
X37250000Y-57700520I200000J0D01*
G01*
X38750000Y-57700520D01*
G75*
G02*
X38950000Y-57900520I0J-200000D01*
G01*
G37*
G36*
G01*
X38950000Y-58700520D02*
X38950000Y-59250520D01*
G75*
G02*
X38750000Y-59450520I-200000J0D01*
G01*
X37250000Y-59450520D01*
G75*
G02*
X37050000Y-59250520I0J200000D01*
G01*
X37050000Y-58700520D01*
G75*
G02*
X37250000Y-58500520I200000J0D01*
G01*
X38750000Y-58500520D01*
G75*
G02*
X38950000Y-58700520I0J-200000D01*
G01*
G37*
G36*
G01*
X38950000Y-59500520D02*
X38950000Y-60050520D01*
G75*
G02*
X38750000Y-60250520I-200000J0D01*
G01*
X37250000Y-60250520D01*
G75*
G02*
X37050000Y-60050520I0J200000D01*
G01*
X37050000Y-59500520D01*
G75*
G02*
X37250000Y-59300520I200000J0D01*
G01*
X38750000Y-59300520D01*
G75*
G02*
X38950000Y-59500520I0J-200000D01*
G01*
G37*
G36*
G01*
X38950000Y-60300520D02*
X38950000Y-60850520D01*
G75*
G02*
X38750000Y-61050520I-200000J0D01*
G01*
X37250000Y-61050520D01*
G75*
G02*
X37050000Y-60850520I0J200000D01*
G01*
X37050000Y-60300520D01*
G75*
G02*
X37250000Y-60100520I200000J0D01*
G01*
X38750000Y-60100520D01*
G75*
G02*
X38950000Y-60300520I0J-200000D01*
G01*
G37*
G36*
G01*
X38950000Y-61100520D02*
X38950000Y-61650520D01*
G75*
G02*
X38750000Y-61850520I-200000J0D01*
G01*
X37250000Y-61850520D01*
G75*
G02*
X37050000Y-61650520I0J200000D01*
G01*
X37050000Y-61100520D01*
G75*
G02*
X37250000Y-60900520I200000J0D01*
G01*
X38750000Y-60900520D01*
G75*
G02*
X38950000Y-61100520I0J-200000D01*
G01*
G37*
G36*
G01*
X38950000Y-61900520D02*
X38950000Y-62450520D01*
G75*
G02*
X38750000Y-62650520I-200000J0D01*
G01*
X37250000Y-62650520D01*
G75*
G02*
X37050000Y-62450520I0J200000D01*
G01*
X37050000Y-61900520D01*
G75*
G02*
X37250000Y-61700520I200000J0D01*
G01*
X38750000Y-61700520D01*
G75*
G02*
X38950000Y-61900520I0J-200000D01*
G01*
G37*
G36*
G01*
X38950000Y-62700520D02*
X38950000Y-63250520D01*
G75*
G02*
X38750000Y-63450520I-200000J0D01*
G01*
X37250000Y-63450520D01*
G75*
G02*
X37050000Y-63250520I0J200000D01*
G01*
X37050000Y-62700520D01*
G75*
G02*
X37250000Y-62500520I200000J0D01*
G01*
X38750000Y-62500520D01*
G75*
G02*
X38950000Y-62700520I0J-200000D01*
G01*
G37*
G36*
G01*
X38950000Y-63500520D02*
X38950000Y-64050520D01*
G75*
G02*
X38750000Y-64250520I-200000J0D01*
G01*
X37250000Y-64250520D01*
G75*
G02*
X37050000Y-64050520I0J200000D01*
G01*
X37050000Y-63500520D01*
G75*
G02*
X37250000Y-63300520I200000J0D01*
G01*
X38750000Y-63300520D01*
G75*
G02*
X38950000Y-63500520I0J-200000D01*
G01*
G37*
G36*
G01*
X38950000Y-64300520D02*
X38950000Y-64850520D01*
G75*
G02*
X38750000Y-65050520I-200000J0D01*
G01*
X37250000Y-65050520D01*
G75*
G02*
X37050000Y-64850520I0J200000D01*
G01*
X37050000Y-64300520D01*
G75*
G02*
X37250000Y-64100520I200000J0D01*
G01*
X38750000Y-64100520D01*
G75*
G02*
X38950000Y-64300520I0J-200000D01*
G01*
G37*
G36*
G01*
X38950000Y-65100520D02*
X38950000Y-65650520D01*
G75*
G02*
X38750000Y-65850520I-200000J0D01*
G01*
X37250000Y-65850520D01*
G75*
G02*
X37050000Y-65650520I0J200000D01*
G01*
X37050000Y-65100520D01*
G75*
G02*
X37250000Y-64900520I200000J0D01*
G01*
X38750000Y-64900520D01*
G75*
G02*
X38950000Y-65100520I0J-200000D01*
G01*
G37*
G36*
G01*
X39425000Y-66125520D02*
X39975000Y-66125520D01*
G75*
G02*
X40175000Y-66325520I0J-200000D01*
G01*
X40175000Y-67825520D01*
G75*
G02*
X39975000Y-68025520I-200000J0D01*
G01*
X39425000Y-68025520D01*
G75*
G02*
X39225000Y-67825520I0J200000D01*
G01*
X39225000Y-66325520D01*
G75*
G02*
X39425000Y-66125520I200000J0D01*
G01*
G37*
G36*
G01*
X40225000Y-66125520D02*
X40775000Y-66125520D01*
G75*
G02*
X40975000Y-66325520I0J-200000D01*
G01*
X40975000Y-67825520D01*
G75*
G02*
X40775000Y-68025520I-200000J0D01*
G01*
X40225000Y-68025520D01*
G75*
G02*
X40025000Y-67825520I0J200000D01*
G01*
X40025000Y-66325520D01*
G75*
G02*
X40225000Y-66125520I200000J0D01*
G01*
G37*
G36*
G01*
X41025000Y-66125520D02*
X41575000Y-66125520D01*
G75*
G02*
X41775000Y-66325520I0J-200000D01*
G01*
X41775000Y-67825520D01*
G75*
G02*
X41575000Y-68025520I-200000J0D01*
G01*
X41025000Y-68025520D01*
G75*
G02*
X40825000Y-67825520I0J200000D01*
G01*
X40825000Y-66325520D01*
G75*
G02*
X41025000Y-66125520I200000J0D01*
G01*
G37*
G36*
G01*
X41825000Y-66125520D02*
X42375000Y-66125520D01*
G75*
G02*
X42575000Y-66325520I0J-200000D01*
G01*
X42575000Y-67825520D01*
G75*
G02*
X42375000Y-68025520I-200000J0D01*
G01*
X41825000Y-68025520D01*
G75*
G02*
X41625000Y-67825520I0J200000D01*
G01*
X41625000Y-66325520D01*
G75*
G02*
X41825000Y-66125520I200000J0D01*
G01*
G37*
G36*
G01*
X42625000Y-66125520D02*
X43175000Y-66125520D01*
G75*
G02*
X43375000Y-66325520I0J-200000D01*
G01*
X43375000Y-67825520D01*
G75*
G02*
X43175000Y-68025520I-200000J0D01*
G01*
X42625000Y-68025520D01*
G75*
G02*
X42425000Y-67825520I0J200000D01*
G01*
X42425000Y-66325520D01*
G75*
G02*
X42625000Y-66125520I200000J0D01*
G01*
G37*
G36*
G01*
X43425000Y-66125520D02*
X43975000Y-66125520D01*
G75*
G02*
X44175000Y-66325520I0J-200000D01*
G01*
X44175000Y-67825520D01*
G75*
G02*
X43975000Y-68025520I-200000J0D01*
G01*
X43425000Y-68025520D01*
G75*
G02*
X43225000Y-67825520I0J200000D01*
G01*
X43225000Y-66325520D01*
G75*
G02*
X43425000Y-66125520I200000J0D01*
G01*
G37*
G36*
G01*
X44225000Y-66125520D02*
X44775000Y-66125520D01*
G75*
G02*
X44975000Y-66325520I0J-200000D01*
G01*
X44975000Y-67825520D01*
G75*
G02*
X44775000Y-68025520I-200000J0D01*
G01*
X44225000Y-68025520D01*
G75*
G02*
X44025000Y-67825520I0J200000D01*
G01*
X44025000Y-66325520D01*
G75*
G02*
X44225000Y-66125520I200000J0D01*
G01*
G37*
G36*
G01*
X45025000Y-66125520D02*
X45575000Y-66125520D01*
G75*
G02*
X45775000Y-66325520I0J-200000D01*
G01*
X45775000Y-67825520D01*
G75*
G02*
X45575000Y-68025520I-200000J0D01*
G01*
X45025000Y-68025520D01*
G75*
G02*
X44825000Y-67825520I0J200000D01*
G01*
X44825000Y-66325520D01*
G75*
G02*
X45025000Y-66125520I200000J0D01*
G01*
G37*
G36*
G01*
X45825000Y-66125520D02*
X46375000Y-66125520D01*
G75*
G02*
X46575000Y-66325520I0J-200000D01*
G01*
X46575000Y-67825520D01*
G75*
G02*
X46375000Y-68025520I-200000J0D01*
G01*
X45825000Y-68025520D01*
G75*
G02*
X45625000Y-67825520I0J200000D01*
G01*
X45625000Y-66325520D01*
G75*
G02*
X45825000Y-66125520I200000J0D01*
G01*
G37*
G36*
G01*
X46625000Y-66125520D02*
X47175000Y-66125520D01*
G75*
G02*
X47375000Y-66325520I0J-200000D01*
G01*
X47375000Y-67825520D01*
G75*
G02*
X47175000Y-68025520I-200000J0D01*
G01*
X46625000Y-68025520D01*
G75*
G02*
X46425000Y-67825520I0J200000D01*
G01*
X46425000Y-66325520D01*
G75*
G02*
X46625000Y-66125520I200000J0D01*
G01*
G37*
G36*
G01*
X47425000Y-66125520D02*
X47975000Y-66125520D01*
G75*
G02*
X48175000Y-66325520I0J-200000D01*
G01*
X48175000Y-67825520D01*
G75*
G02*
X47975000Y-68025520I-200000J0D01*
G01*
X47425000Y-68025520D01*
G75*
G02*
X47225000Y-67825520I0J200000D01*
G01*
X47225000Y-66325520D01*
G75*
G02*
X47425000Y-66125520I200000J0D01*
G01*
G37*
G36*
G01*
X50350000Y-65100520D02*
X50350000Y-65650520D01*
G75*
G02*
X50150000Y-65850520I-200000J0D01*
G01*
X48650000Y-65850520D01*
G75*
G02*
X48450000Y-65650520I0J200000D01*
G01*
X48450000Y-65100520D01*
G75*
G02*
X48650000Y-64900520I200000J0D01*
G01*
X50150000Y-64900520D01*
G75*
G02*
X50350000Y-65100520I0J-200000D01*
G01*
G37*
G36*
G01*
X50350000Y-64300520D02*
X50350000Y-64850520D01*
G75*
G02*
X50150000Y-65050520I-200000J0D01*
G01*
X48650000Y-65050520D01*
G75*
G02*
X48450000Y-64850520I0J200000D01*
G01*
X48450000Y-64300520D01*
G75*
G02*
X48650000Y-64100520I200000J0D01*
G01*
X50150000Y-64100520D01*
G75*
G02*
X50350000Y-64300520I0J-200000D01*
G01*
G37*
G36*
G01*
X50350000Y-63500520D02*
X50350000Y-64050520D01*
G75*
G02*
X50150000Y-64250520I-200000J0D01*
G01*
X48650000Y-64250520D01*
G75*
G02*
X48450000Y-64050520I0J200000D01*
G01*
X48450000Y-63500520D01*
G75*
G02*
X48650000Y-63300520I200000J0D01*
G01*
X50150000Y-63300520D01*
G75*
G02*
X50350000Y-63500520I0J-200000D01*
G01*
G37*
G36*
G01*
X50350000Y-62700520D02*
X50350000Y-63250520D01*
G75*
G02*
X50150000Y-63450520I-200000J0D01*
G01*
X48650000Y-63450520D01*
G75*
G02*
X48450000Y-63250520I0J200000D01*
G01*
X48450000Y-62700520D01*
G75*
G02*
X48650000Y-62500520I200000J0D01*
G01*
X50150000Y-62500520D01*
G75*
G02*
X50350000Y-62700520I0J-200000D01*
G01*
G37*
G36*
G01*
X50350000Y-61900520D02*
X50350000Y-62450520D01*
G75*
G02*
X50150000Y-62650520I-200000J0D01*
G01*
X48650000Y-62650520D01*
G75*
G02*
X48450000Y-62450520I0J200000D01*
G01*
X48450000Y-61900520D01*
G75*
G02*
X48650000Y-61700520I200000J0D01*
G01*
X50150000Y-61700520D01*
G75*
G02*
X50350000Y-61900520I0J-200000D01*
G01*
G37*
G36*
G01*
X50350000Y-61100520D02*
X50350000Y-61650520D01*
G75*
G02*
X50150000Y-61850520I-200000J0D01*
G01*
X48650000Y-61850520D01*
G75*
G02*
X48450000Y-61650520I0J200000D01*
G01*
X48450000Y-61100520D01*
G75*
G02*
X48650000Y-60900520I200000J0D01*
G01*
X50150000Y-60900520D01*
G75*
G02*
X50350000Y-61100520I0J-200000D01*
G01*
G37*
G36*
G01*
X50350000Y-60300520D02*
X50350000Y-60850520D01*
G75*
G02*
X50150000Y-61050520I-200000J0D01*
G01*
X48650000Y-61050520D01*
G75*
G02*
X48450000Y-60850520I0J200000D01*
G01*
X48450000Y-60300520D01*
G75*
G02*
X48650000Y-60100520I200000J0D01*
G01*
X50150000Y-60100520D01*
G75*
G02*
X50350000Y-60300520I0J-200000D01*
G01*
G37*
G36*
G01*
X50350000Y-59500520D02*
X50350000Y-60050520D01*
G75*
G02*
X50150000Y-60250520I-200000J0D01*
G01*
X48650000Y-60250520D01*
G75*
G02*
X48450000Y-60050520I0J200000D01*
G01*
X48450000Y-59500520D01*
G75*
G02*
X48650000Y-59300520I200000J0D01*
G01*
X50150000Y-59300520D01*
G75*
G02*
X50350000Y-59500520I0J-200000D01*
G01*
G37*
G36*
G01*
X50350000Y-58700520D02*
X50350000Y-59250520D01*
G75*
G02*
X50150000Y-59450520I-200000J0D01*
G01*
X48650000Y-59450520D01*
G75*
G02*
X48450000Y-59250520I0J200000D01*
G01*
X48450000Y-58700520D01*
G75*
G02*
X48650000Y-58500520I200000J0D01*
G01*
X50150000Y-58500520D01*
G75*
G02*
X50350000Y-58700520I0J-200000D01*
G01*
G37*
G36*
G01*
X50350000Y-57900520D02*
X50350000Y-58450520D01*
G75*
G02*
X50150000Y-58650520I-200000J0D01*
G01*
X48650000Y-58650520D01*
G75*
G02*
X48450000Y-58450520I0J200000D01*
G01*
X48450000Y-57900520D01*
G75*
G02*
X48650000Y-57700520I200000J0D01*
G01*
X50150000Y-57700520D01*
G75*
G02*
X50350000Y-57900520I0J-200000D01*
G01*
G37*
G36*
G01*
X50350000Y-57100520D02*
X50350000Y-57650520D01*
G75*
G02*
X50150000Y-57850520I-200000J0D01*
G01*
X48650000Y-57850520D01*
G75*
G02*
X48450000Y-57650520I0J200000D01*
G01*
X48450000Y-57100520D01*
G75*
G02*
X48650000Y-56900520I200000J0D01*
G01*
X50150000Y-56900520D01*
G75*
G02*
X50350000Y-57100520I0J-200000D01*
G01*
G37*
G36*
G01*
X47425000Y-54725520D02*
X47975000Y-54725520D01*
G75*
G02*
X48175000Y-54925520I0J-200000D01*
G01*
X48175000Y-56425520D01*
G75*
G02*
X47975000Y-56625520I-200000J0D01*
G01*
X47425000Y-56625520D01*
G75*
G02*
X47225000Y-56425520I0J200000D01*
G01*
X47225000Y-54925520D01*
G75*
G02*
X47425000Y-54725520I200000J0D01*
G01*
G37*
G36*
G01*
X46625000Y-54725520D02*
X47175000Y-54725520D01*
G75*
G02*
X47375000Y-54925520I0J-200000D01*
G01*
X47375000Y-56425520D01*
G75*
G02*
X47175000Y-56625520I-200000J0D01*
G01*
X46625000Y-56625520D01*
G75*
G02*
X46425000Y-56425520I0J200000D01*
G01*
X46425000Y-54925520D01*
G75*
G02*
X46625000Y-54725520I200000J0D01*
G01*
G37*
G36*
G01*
X45825000Y-54725520D02*
X46375000Y-54725520D01*
G75*
G02*
X46575000Y-54925520I0J-200000D01*
G01*
X46575000Y-56425520D01*
G75*
G02*
X46375000Y-56625520I-200000J0D01*
G01*
X45825000Y-56625520D01*
G75*
G02*
X45625000Y-56425520I0J200000D01*
G01*
X45625000Y-54925520D01*
G75*
G02*
X45825000Y-54725520I200000J0D01*
G01*
G37*
G36*
G01*
X45025000Y-54725520D02*
X45575000Y-54725520D01*
G75*
G02*
X45775000Y-54925520I0J-200000D01*
G01*
X45775000Y-56425520D01*
G75*
G02*
X45575000Y-56625520I-200000J0D01*
G01*
X45025000Y-56625520D01*
G75*
G02*
X44825000Y-56425520I0J200000D01*
G01*
X44825000Y-54925520D01*
G75*
G02*
X45025000Y-54725520I200000J0D01*
G01*
G37*
G36*
G01*
X44225000Y-54725520D02*
X44775000Y-54725520D01*
G75*
G02*
X44975000Y-54925520I0J-200000D01*
G01*
X44975000Y-56425520D01*
G75*
G02*
X44775000Y-56625520I-200000J0D01*
G01*
X44225000Y-56625520D01*
G75*
G02*
X44025000Y-56425520I0J200000D01*
G01*
X44025000Y-54925520D01*
G75*
G02*
X44225000Y-54725520I200000J0D01*
G01*
G37*
G36*
G01*
X43425000Y-54725520D02*
X43975000Y-54725520D01*
G75*
G02*
X44175000Y-54925520I0J-200000D01*
G01*
X44175000Y-56425520D01*
G75*
G02*
X43975000Y-56625520I-200000J0D01*
G01*
X43425000Y-56625520D01*
G75*
G02*
X43225000Y-56425520I0J200000D01*
G01*
X43225000Y-54925520D01*
G75*
G02*
X43425000Y-54725520I200000J0D01*
G01*
G37*
G36*
G01*
X42625000Y-54725520D02*
X43175000Y-54725520D01*
G75*
G02*
X43375000Y-54925520I0J-200000D01*
G01*
X43375000Y-56425520D01*
G75*
G02*
X43175000Y-56625520I-200000J0D01*
G01*
X42625000Y-56625520D01*
G75*
G02*
X42425000Y-56425520I0J200000D01*
G01*
X42425000Y-54925520D01*
G75*
G02*
X42625000Y-54725520I200000J0D01*
G01*
G37*
G36*
G01*
X41825000Y-54725520D02*
X42375000Y-54725520D01*
G75*
G02*
X42575000Y-54925520I0J-200000D01*
G01*
X42575000Y-56425520D01*
G75*
G02*
X42375000Y-56625520I-200000J0D01*
G01*
X41825000Y-56625520D01*
G75*
G02*
X41625000Y-56425520I0J200000D01*
G01*
X41625000Y-54925520D01*
G75*
G02*
X41825000Y-54725520I200000J0D01*
G01*
G37*
G36*
G01*
X41025000Y-54725520D02*
X41575000Y-54725520D01*
G75*
G02*
X41775000Y-54925520I0J-200000D01*
G01*
X41775000Y-56425520D01*
G75*
G02*
X41575000Y-56625520I-200000J0D01*
G01*
X41025000Y-56625520D01*
G75*
G02*
X40825000Y-56425520I0J200000D01*
G01*
X40825000Y-54925520D01*
G75*
G02*
X41025000Y-54725520I200000J0D01*
G01*
G37*
G36*
G01*
X40225000Y-54725520D02*
X40775000Y-54725520D01*
G75*
G02*
X40975000Y-54925520I0J-200000D01*
G01*
X40975000Y-56425520D01*
G75*
G02*
X40775000Y-56625520I-200000J0D01*
G01*
X40225000Y-56625520D01*
G75*
G02*
X40025000Y-56425520I0J200000D01*
G01*
X40025000Y-54925520D01*
G75*
G02*
X40225000Y-54725520I200000J0D01*
G01*
G37*
G36*
G01*
X39425000Y-54725520D02*
X39975000Y-54725520D01*
G75*
G02*
X40175000Y-54925520I0J-200000D01*
G01*
X40175000Y-56425520D01*
G75*
G02*
X39975000Y-56625520I-200000J0D01*
G01*
X39425000Y-56625520D01*
G75*
G02*
X39225000Y-56425520I0J200000D01*
G01*
X39225000Y-54925520D01*
G75*
G02*
X39425000Y-54725520I200000J0D01*
G01*
G37*
D15*
X36679672Y-35875520D03*
X25679672Y-35875520D03*
D11*
X36679672Y-35875520D03*
X25679672Y-35875520D03*
D16*
X26179672Y-39675520D03*
X31179672Y-41775520D03*
D13*
X31179672Y-35875520D03*
D14*
X36399672Y-31675520D03*
D17*
X31950000Y-68100520D03*
D11*
X125976552Y-103875520D03*
X114976552Y-103875520D03*
D16*
X115476552Y-107675520D03*
X120476552Y-109775520D03*
D13*
X120476552Y-103875520D03*
D14*
X125696552Y-99675520D03*
D11*
X161695304Y-103875520D03*
X150695304Y-103875520D03*
D16*
X151195304Y-107675520D03*
X156195304Y-109775520D03*
D13*
X156195304Y-103875520D03*
D14*
X161415304Y-99675520D03*
D15*
X286710937Y-35875520D03*
X275710937Y-35875520D03*
D11*
X286710937Y-35875520D03*
X275710937Y-35875520D03*
D16*
X276210937Y-39675520D03*
X281210937Y-41775520D03*
D13*
X281210937Y-35875520D03*
D14*
X286430937Y-31675520D03*
D15*
X304570312Y-35875520D03*
X293570312Y-35875520D03*
D11*
X304570312Y-35875520D03*
X293570312Y-35875520D03*
D16*
X294070312Y-39675520D03*
X299070312Y-41775520D03*
D13*
X299070312Y-35875520D03*
D14*
X304290312Y-31675520D03*
D15*
X45609360Y-86875520D03*
X34609360Y-86875520D03*
D11*
X45609360Y-86875520D03*
X34609360Y-86875520D03*
D16*
X35109360Y-90675520D03*
X40109360Y-92775520D03*
D13*
X40109360Y-86875520D03*
D14*
X45329360Y-82675520D03*
D15*
X36679672Y-103875520D03*
X25679672Y-103875520D03*
D11*
X36679672Y-103875520D03*
X25679672Y-103875520D03*
D16*
X26179672Y-107675520D03*
X31179672Y-109775520D03*
D13*
X31179672Y-103875520D03*
D14*
X36399672Y-99675520D03*
D15*
X54539048Y-35875520D03*
X43539048Y-35875520D03*
D11*
X54539048Y-35875520D03*
X43539048Y-35875520D03*
D16*
X44039048Y-39675520D03*
X49039048Y-41775520D03*
D13*
X49039048Y-35875520D03*
D14*
X54259048Y-31675520D03*
D15*
X54539048Y-86875520D03*
X43539048Y-86875520D03*
D11*
X54539048Y-86875520D03*
X43539048Y-86875520D03*
D16*
X44039048Y-90675520D03*
X49039048Y-92775520D03*
D13*
X49039048Y-86875520D03*
D14*
X54259048Y-82675520D03*
D15*
X54539048Y-103875520D03*
X43539048Y-103875520D03*
D11*
X54539048Y-103875520D03*
X43539048Y-103875520D03*
D16*
X44039048Y-107675520D03*
X49039048Y-109775520D03*
D13*
X49039048Y-103875520D03*
D14*
X54259048Y-99675520D03*
D15*
X72398424Y-35875520D03*
X61398424Y-35875520D03*
D11*
X72398424Y-35875520D03*
X61398424Y-35875520D03*
D16*
X61898424Y-39675520D03*
X66898424Y-41775520D03*
D13*
X66898424Y-35875520D03*
D14*
X72118424Y-31675520D03*
D15*
X63468736Y-52875520D03*
X52468736Y-52875520D03*
D11*
X63468736Y-52875520D03*
X52468736Y-52875520D03*
D16*
X52968736Y-56675520D03*
X57968736Y-58775520D03*
D13*
X57968736Y-52875520D03*
D14*
X63188736Y-48675520D03*
D15*
X72398424Y-86875520D03*
X61398424Y-86875520D03*
D11*
X72398424Y-86875520D03*
X61398424Y-86875520D03*
D16*
X61898424Y-90675520D03*
X66898424Y-92775520D03*
D13*
X66898424Y-86875520D03*
D14*
X72118424Y-82675520D03*
D15*
X90257800Y-35875520D03*
X79257800Y-35875520D03*
D11*
X90257800Y-35875520D03*
X79257800Y-35875520D03*
D16*
X79757800Y-39675520D03*
X84757800Y-41775520D03*
D13*
X84757800Y-35875520D03*
D14*
X89977800Y-31675520D03*
D15*
X81328112Y-52875520D03*
X70328112Y-52875520D03*
D11*
X81328112Y-52875520D03*
X70328112Y-52875520D03*
D16*
X70828112Y-56675520D03*
X75828112Y-58775520D03*
D13*
X75828112Y-52875520D03*
D14*
X81048112Y-48675520D03*
D15*
X90257800Y-86875520D03*
X79257800Y-86875520D03*
D11*
X90257800Y-86875520D03*
X79257800Y-86875520D03*
D16*
X79757800Y-90675520D03*
X84757800Y-92775520D03*
D13*
X84757800Y-86875520D03*
D14*
X89977800Y-82675520D03*
D15*
X99187488Y-103875520D03*
X88187488Y-103875520D03*
D11*
X99187488Y-103875520D03*
X88187488Y-103875520D03*
D16*
X88687488Y-107675520D03*
X93687488Y-109775520D03*
D13*
X93687488Y-103875520D03*
D14*
X98907488Y-99675520D03*
D15*
X108117176Y-35875520D03*
X97117176Y-35875520D03*
D11*
X108117176Y-35875520D03*
X97117176Y-35875520D03*
D16*
X97617176Y-39675520D03*
X102617176Y-41775520D03*
D13*
X102617176Y-35875520D03*
D14*
X107837176Y-31675520D03*
D15*
X99187488Y-52875520D03*
X88187488Y-52875520D03*
D11*
X99187488Y-52875520D03*
X88187488Y-52875520D03*
D16*
X88687488Y-56675520D03*
X93687488Y-58775520D03*
D13*
X93687488Y-52875520D03*
D14*
X98907488Y-48675520D03*
D15*
X99187488Y-69875520D03*
X88187488Y-69875520D03*
D11*
X99187488Y-69875520D03*
X88187488Y-69875520D03*
D16*
X88687488Y-73675520D03*
X93687488Y-75775520D03*
D13*
X93687488Y-69875520D03*
D14*
X98907488Y-65675520D03*
D15*
X108117176Y-86875520D03*
X97117176Y-86875520D03*
D11*
X108117176Y-86875520D03*
X97117176Y-86875520D03*
D16*
X97617176Y-90675520D03*
X102617176Y-92775520D03*
D13*
X102617176Y-86875520D03*
D14*
X107837176Y-82675520D03*
D15*
X125976552Y-35875520D03*
X114976552Y-35875520D03*
D11*
X125976552Y-35875520D03*
X114976552Y-35875520D03*
D16*
X115476552Y-39675520D03*
X120476552Y-41775520D03*
D13*
X120476552Y-35875520D03*
D14*
X125696552Y-31675520D03*
D15*
X117046864Y-52875520D03*
X106046864Y-52875520D03*
D11*
X117046864Y-52875520D03*
X106046864Y-52875520D03*
D16*
X106546864Y-56675520D03*
X111546864Y-58775520D03*
D13*
X111546864Y-52875520D03*
D14*
X116766864Y-48675520D03*
D15*
X117046864Y-69875520D03*
X106046864Y-69875520D03*
D11*
X117046864Y-69875520D03*
X106046864Y-69875520D03*
D16*
X106546864Y-73675520D03*
X111546864Y-75775520D03*
D13*
X111546864Y-69875520D03*
D14*
X116766864Y-65675520D03*
D15*
X125976552Y-86875520D03*
X114976552Y-86875520D03*
D11*
X125976552Y-86875520D03*
X114976552Y-86875520D03*
D16*
X115476552Y-90675520D03*
X120476552Y-92775520D03*
D13*
X120476552Y-86875520D03*
D14*
X125696552Y-82675520D03*
D15*
X143835928Y-35875520D03*
X132835928Y-35875520D03*
D11*
X143835928Y-35875520D03*
X132835928Y-35875520D03*
D16*
X133335928Y-39675520D03*
X138335928Y-41775520D03*
D13*
X138335928Y-35875520D03*
D14*
X143555928Y-31675520D03*
D15*
X134906240Y-52875520D03*
X123906240Y-52875520D03*
D11*
X134906240Y-52875520D03*
X123906240Y-52875520D03*
D16*
X124406240Y-56675520D03*
X129406240Y-58775520D03*
D13*
X129406240Y-52875520D03*
D14*
X134626240Y-48675520D03*
D15*
X134906240Y-69875520D03*
X123906240Y-69875520D03*
D11*
X134906240Y-69875520D03*
X123906240Y-69875520D03*
D16*
X124406240Y-73675520D03*
X129406240Y-75775520D03*
D13*
X129406240Y-69875520D03*
D14*
X134626240Y-65675520D03*
D15*
X143835928Y-86875520D03*
X132835928Y-86875520D03*
D11*
X143835928Y-86875520D03*
X132835928Y-86875520D03*
D16*
X133335928Y-90675520D03*
X138335928Y-92775520D03*
D13*
X138335928Y-86875520D03*
D14*
X143555928Y-82675520D03*
D15*
X161695304Y-35875520D03*
X150695304Y-35875520D03*
D11*
X161695304Y-35875520D03*
X150695304Y-35875520D03*
D16*
X151195304Y-39675520D03*
X156195304Y-41775520D03*
D13*
X156195304Y-35875520D03*
D14*
X161415304Y-31675520D03*
D15*
X152765616Y-52875520D03*
X141765616Y-52875520D03*
D11*
X152765616Y-52875520D03*
X141765616Y-52875520D03*
D16*
X142265616Y-56675520D03*
X147265616Y-58775520D03*
D13*
X147265616Y-52875520D03*
D14*
X152485616Y-48675520D03*
D15*
X161695320Y-86875520D03*
X150695320Y-86875520D03*
D11*
X161695320Y-86875520D03*
X150695320Y-86875520D03*
D16*
X151195320Y-90675520D03*
X156195320Y-92775520D03*
D13*
X156195320Y-86875520D03*
D14*
X161415320Y-82675520D03*
D15*
X179554680Y-35875520D03*
X168554680Y-35875520D03*
D11*
X179554680Y-35875520D03*
X168554680Y-35875520D03*
D16*
X169054680Y-39675520D03*
X174054680Y-41775520D03*
D13*
X174054680Y-35875520D03*
D14*
X179274680Y-31675520D03*
D15*
X170624992Y-52875520D03*
X159624992Y-52875520D03*
D11*
X170624992Y-52875520D03*
X159624992Y-52875520D03*
D16*
X160124992Y-56675520D03*
X165124992Y-58775520D03*
D13*
X165124992Y-52875520D03*
D14*
X170344992Y-48675520D03*
D15*
X170624992Y-69875520D03*
X159624992Y-69875520D03*
D11*
X170624992Y-69875520D03*
X159624992Y-69875520D03*
D16*
X160124992Y-73675520D03*
X165124992Y-75775520D03*
D13*
X165124992Y-69875520D03*
D14*
X170344992Y-65675520D03*
D15*
X179554680Y-86875520D03*
X168554680Y-86875520D03*
D11*
X179554680Y-86875520D03*
X168554680Y-86875520D03*
D16*
X169054680Y-90675520D03*
X174054680Y-92775520D03*
D13*
X174054680Y-86875520D03*
D14*
X179274680Y-82675520D03*
D15*
X197414056Y-35875520D03*
X186414056Y-35875520D03*
D11*
X197414056Y-35875520D03*
X186414056Y-35875520D03*
D16*
X186914056Y-39675520D03*
X191914056Y-41775520D03*
D13*
X191914056Y-35875520D03*
D14*
X197134056Y-31675520D03*
D15*
X188484368Y-52875520D03*
X177484368Y-52875520D03*
D11*
X188484368Y-52875520D03*
X177484368Y-52875520D03*
D16*
X177984368Y-56675520D03*
X182984368Y-58775520D03*
D13*
X182984368Y-52875520D03*
D14*
X188204368Y-48675520D03*
D15*
X188484368Y-69875520D03*
X177484368Y-69875520D03*
D11*
X188484368Y-69875520D03*
X177484368Y-69875520D03*
D16*
X177984368Y-73675520D03*
X182984368Y-75775520D03*
D13*
X182984368Y-69875520D03*
D14*
X188204368Y-65675520D03*
D15*
X197414056Y-86875520D03*
X186414056Y-86875520D03*
D11*
X197414056Y-86875520D03*
X186414056Y-86875520D03*
D16*
X186914056Y-90675520D03*
X191914056Y-92775520D03*
D13*
X191914056Y-86875520D03*
D14*
X197134056Y-82675520D03*
D15*
X188484368Y-103875520D03*
X177484368Y-103875520D03*
D11*
X188484368Y-103875520D03*
X177484368Y-103875520D03*
D16*
X177984368Y-107675520D03*
X182984368Y-109775520D03*
D13*
X182984368Y-103875520D03*
D14*
X188204368Y-99675520D03*
D15*
X215273432Y-35875520D03*
X204273432Y-35875520D03*
D11*
X215273432Y-35875520D03*
X204273432Y-35875520D03*
D16*
X204773432Y-39675520D03*
X209773432Y-41775520D03*
D13*
X209773432Y-35875520D03*
D14*
X214993432Y-31675520D03*
D15*
X206343744Y-52875520D03*
X195343744Y-52875520D03*
D11*
X206343744Y-52875520D03*
X195343744Y-52875520D03*
D16*
X195843744Y-56675520D03*
X200843744Y-58775520D03*
D13*
X200843744Y-52875520D03*
D14*
X206063744Y-48675520D03*
D15*
X206343744Y-69875520D03*
X195343744Y-69875520D03*
D11*
X206343744Y-69875520D03*
X195343744Y-69875520D03*
D16*
X195843744Y-73675520D03*
X200843744Y-75775520D03*
D13*
X200843744Y-69875520D03*
D14*
X206063744Y-65675520D03*
D15*
X215273432Y-86875520D03*
X204273432Y-86875520D03*
D11*
X215273432Y-86875520D03*
X204273432Y-86875520D03*
D16*
X204773432Y-90675520D03*
X209773432Y-92775520D03*
D13*
X209773432Y-86875520D03*
D14*
X214993432Y-82675520D03*
D15*
X233132808Y-35875520D03*
X222132808Y-35875520D03*
D11*
X233132808Y-35875520D03*
X222132808Y-35875520D03*
D16*
X222632808Y-39675520D03*
X227632808Y-41775520D03*
D13*
X227632808Y-35875520D03*
D14*
X232852808Y-31675520D03*
D15*
X224203120Y-52875520D03*
X213203120Y-52875520D03*
D11*
X224203120Y-52875520D03*
X213203120Y-52875520D03*
D16*
X213703120Y-56675520D03*
X218703120Y-58775520D03*
D13*
X218703120Y-52875520D03*
D14*
X223923120Y-48675520D03*
D15*
X224203120Y-69875520D03*
X213203120Y-69875520D03*
D11*
X224203120Y-69875520D03*
X213203120Y-69875520D03*
D16*
X213703120Y-73675520D03*
X218703120Y-75775520D03*
D13*
X218703120Y-69875520D03*
D14*
X223923120Y-65675520D03*
D15*
X233132808Y-86875520D03*
X222132808Y-86875520D03*
D11*
X233132808Y-86875520D03*
X222132808Y-86875520D03*
D16*
X222632808Y-90675520D03*
X227632808Y-92775520D03*
D13*
X227632808Y-86875520D03*
D14*
X232852808Y-82675520D03*
D15*
X233132808Y-108125520D03*
X222132808Y-108125520D03*
D11*
X233132808Y-108125520D03*
X222132808Y-108125520D03*
D16*
X222632808Y-111925520D03*
X227632808Y-114025520D03*
D13*
X227632808Y-108125520D03*
D14*
X232852808Y-103925520D03*
D15*
X250992187Y-35875520D03*
X239992187Y-35875520D03*
D11*
X250992187Y-35875520D03*
X239992187Y-35875520D03*
D16*
X240492187Y-39675520D03*
X245492187Y-41775520D03*
D13*
X245492187Y-35875520D03*
D14*
X250712187Y-31675520D03*
D15*
X250992184Y-91125520D03*
X239992184Y-91125520D03*
D11*
X250992184Y-91125520D03*
X239992184Y-91125520D03*
D16*
X240492184Y-94925520D03*
X245492184Y-97025520D03*
D13*
X245492184Y-91125520D03*
D14*
X250712184Y-86925520D03*
D15*
X250992184Y-108125520D03*
X239992184Y-108125520D03*
D11*
X250992184Y-108125520D03*
X239992184Y-108125520D03*
D16*
X240492184Y-111925520D03*
X245492184Y-114025520D03*
D13*
X245492184Y-108125520D03*
D14*
X250712184Y-103925520D03*
D15*
X268851560Y-35875520D03*
X257851560Y-35875520D03*
D11*
X268851560Y-35875520D03*
X257851560Y-35875520D03*
D16*
X258351560Y-39675520D03*
X263351560Y-41775520D03*
D13*
X263351560Y-35875520D03*
D14*
X268571560Y-31675520D03*
D15*
X268851560Y-52875520D03*
X257851560Y-52875520D03*
D11*
X268851560Y-52875520D03*
X257851560Y-52875520D03*
D16*
X258351560Y-56675520D03*
X263351560Y-58775520D03*
D13*
X263351560Y-52875520D03*
D14*
X268571560Y-48675520D03*
D15*
X268851560Y-69875520D03*
X257851560Y-69875520D03*
D11*
X268851560Y-69875520D03*
X257851560Y-69875520D03*
D16*
X258351560Y-73675520D03*
X263351560Y-75775520D03*
D13*
X263351560Y-69875520D03*
D14*
X268571560Y-65675520D03*
D15*
X268851560Y-86875520D03*
X257851560Y-86875520D03*
D11*
X268851560Y-86875520D03*
X257851560Y-86875520D03*
D16*
X258351560Y-90675520D03*
X263351560Y-92775520D03*
D13*
X263351560Y-86875520D03*
D14*
X268571560Y-82675520D03*
D15*
X268851560Y-108125520D03*
X257851560Y-108125520D03*
D11*
X268851560Y-108125520D03*
X257851560Y-108125520D03*
D16*
X258351560Y-111925520D03*
X263351560Y-114025520D03*
D13*
X263351560Y-108125520D03*
D14*
X268571560Y-103925520D03*
D15*
X286710936Y-69875520D03*
X275710936Y-69875520D03*
D11*
X286710936Y-69875520D03*
X275710936Y-69875520D03*
D16*
X276210936Y-73675520D03*
X281210936Y-75775520D03*
D13*
X281210936Y-69875520D03*
D14*
X286430936Y-65675520D03*
D15*
X286710936Y-86875520D03*
X275710936Y-86875520D03*
D11*
X286710936Y-86875520D03*
X275710936Y-86875520D03*
D16*
X276210936Y-90675520D03*
X281210936Y-92775520D03*
D13*
X281210936Y-86875520D03*
D14*
X286430936Y-82675520D03*
D15*
X286710936Y-103875520D03*
X275710936Y-103875520D03*
D11*
X286710936Y-103875520D03*
X275710936Y-103875520D03*
D16*
X276210936Y-107675520D03*
X281210936Y-109775520D03*
D13*
X281210936Y-103875520D03*
D14*
X286430936Y-99675520D03*
D15*
X304570312Y-52875520D03*
X293570312Y-52875520D03*
D11*
X304570312Y-52875520D03*
X293570312Y-52875520D03*
D16*
X294070312Y-56675520D03*
X299070312Y-58775520D03*
D13*
X299070312Y-52875520D03*
D14*
X304290312Y-48675520D03*
D15*
X304570312Y-103875520D03*
X293570312Y-103875520D03*
D11*
X304570312Y-103875520D03*
X293570312Y-103875520D03*
D16*
X294070312Y-107675520D03*
X299070312Y-109775520D03*
D13*
X299070312Y-103875520D03*
D14*
X304290312Y-99675520D03*
D11*
X76863268Y-103875520D03*
X65863268Y-103875520D03*
D16*
X66363268Y-107675520D03*
X71363268Y-109775520D03*
D13*
X71363268Y-103875520D03*
D14*
X76583268Y-99675520D03*
D11*
X246527340Y-52875520D03*
X235527340Y-52875520D03*
D16*
X236027340Y-56675520D03*
X241027340Y-58775520D03*
D13*
X241027340Y-52875520D03*
D14*
X246247340Y-48675520D03*
D11*
X246527340Y-69875520D03*
X235527340Y-69875520D03*
D16*
X236027340Y-73675520D03*
X241027340Y-75775520D03*
D13*
X241027340Y-69875520D03*
D14*
X246247340Y-65675520D03*
D18*
X150800000Y-69550000D03*
X213100000Y-107750000D03*
X282650000Y-50450000D03*
D17*
X49050000Y-51800000D03*
X46450000Y-51750000D03*
X49050000Y-49100000D03*
X46450000Y-49100000D03*
X47800000Y-52350000D03*
X49700000Y-50450000D03*
X45900000Y-50450000D03*
X47800000Y-48550000D03*
D19*
X47800000Y-50450000D03*
G36*
G01*
X58600000Y-92745520D02*
X58600000Y-93245520D01*
G75*
G02*
X58350000Y-93495520I-250000J0D01*
G01*
X56700000Y-93495520D01*
G75*
G02*
X56450000Y-93245520I0J250000D01*
G01*
X56450000Y-92745520D01*
G75*
G02*
X56700000Y-92495520I250000J0D01*
G01*
X58350000Y-92495520D01*
G75*
G02*
X58600000Y-92745520I0J-250000D01*
G01*
G37*
G36*
G01*
X58600000Y-94015520D02*
X58600000Y-94515520D01*
G75*
G02*
X58350000Y-94765520I-250000J0D01*
G01*
X56700000Y-94765520D01*
G75*
G02*
X56450000Y-94515520I0J250000D01*
G01*
X56450000Y-94015520D01*
G75*
G02*
X56700000Y-93765520I250000J0D01*
G01*
X58350000Y-93765520D01*
G75*
G02*
X58600000Y-94015520I0J-250000D01*
G01*
G37*
G36*
G01*
X58600000Y-95285520D02*
X58600000Y-95785520D01*
G75*
G02*
X58350000Y-96035520I-250000J0D01*
G01*
X56700000Y-96035520D01*
G75*
G02*
X56450000Y-95785520I0J250000D01*
G01*
X56450000Y-95285520D01*
G75*
G02*
X56700000Y-95035520I250000J0D01*
G01*
X58350000Y-95035520D01*
G75*
G02*
X58600000Y-95285520I0J-250000D01*
G01*
G37*
G36*
G01*
X58600000Y-96555520D02*
X58600000Y-97055520D01*
G75*
G02*
X58350000Y-97305520I-250000J0D01*
G01*
X56700000Y-97305520D01*
G75*
G02*
X56450000Y-97055520I0J250000D01*
G01*
X56450000Y-96555520D01*
G75*
G02*
X56700000Y-96305520I250000J0D01*
G01*
X58350000Y-96305520D01*
G75*
G02*
X58600000Y-96555520I0J-250000D01*
G01*
G37*
G36*
G01*
X63750000Y-96555520D02*
X63750000Y-97055520D01*
G75*
G02*
X63500000Y-97305520I-250000J0D01*
G01*
X61850000Y-97305520D01*
G75*
G02*
X61600000Y-97055520I0J250000D01*
G01*
X61600000Y-96555520D01*
G75*
G02*
X61850000Y-96305520I250000J0D01*
G01*
X63500000Y-96305520D01*
G75*
G02*
X63750000Y-96555520I0J-250000D01*
G01*
G37*
G36*
G01*
X63750000Y-95285520D02*
X63750000Y-95785520D01*
G75*
G02*
X63500000Y-96035520I-250000J0D01*
G01*
X61850000Y-96035520D01*
G75*
G02*
X61600000Y-95785520I0J250000D01*
G01*
X61600000Y-95285520D01*
G75*
G02*
X61850000Y-95035520I250000J0D01*
G01*
X63500000Y-95035520D01*
G75*
G02*
X63750000Y-95285520I0J-250000D01*
G01*
G37*
G36*
G01*
X63750000Y-94015520D02*
X63750000Y-94515520D01*
G75*
G02*
X63500000Y-94765520I-250000J0D01*
G01*
X61850000Y-94765520D01*
G75*
G02*
X61600000Y-94515520I0J250000D01*
G01*
X61600000Y-94015520D01*
G75*
G02*
X61850000Y-93765520I250000J0D01*
G01*
X63500000Y-93765520D01*
G75*
G02*
X63750000Y-94015520I0J-250000D01*
G01*
G37*
G36*
G01*
X63750000Y-92745520D02*
X63750000Y-93245520D01*
G75*
G02*
X63500000Y-93495520I-250000J0D01*
G01*
X61850000Y-93495520D01*
G75*
G02*
X61600000Y-93245520I0J250000D01*
G01*
X61600000Y-92745520D01*
G75*
G02*
X61850000Y-92495520I250000J0D01*
G01*
X63500000Y-92495520D01*
G75*
G02*
X63750000Y-92745520I0J-250000D01*
G01*
G37*
G36*
G01*
X56850000Y-66200520D02*
X55050000Y-66200520D01*
G75*
G02*
X54850000Y-66000520I0J200000D01*
G01*
X54850000Y-63900520D01*
G75*
G02*
X55050000Y-63700520I200000J0D01*
G01*
X56850000Y-63700520D01*
G75*
G02*
X57050000Y-63900520I0J-200000D01*
G01*
X57050000Y-66000520D01*
G75*
G02*
X56850000Y-66200520I-200000J0D01*
G01*
G37*
G36*
G01*
X56850000Y-63300520D02*
X55050000Y-63300520D01*
G75*
G02*
X54850000Y-63100520I0J200000D01*
G01*
X54850000Y-61000520D01*
G75*
G02*
X55050000Y-60800520I200000J0D01*
G01*
X56850000Y-60800520D01*
G75*
G02*
X57050000Y-61000520I0J-200000D01*
G01*
X57050000Y-63100520D01*
G75*
G02*
X56850000Y-63300520I-200000J0D01*
G01*
G37*
G36*
G01*
X54550000Y-63300520D02*
X52750000Y-63300520D01*
G75*
G02*
X52550000Y-63100520I0J200000D01*
G01*
X52550000Y-61000520D01*
G75*
G02*
X52750000Y-60800520I200000J0D01*
G01*
X54550000Y-60800520D01*
G75*
G02*
X54750000Y-61000520I0J-200000D01*
G01*
X54750000Y-63100520D01*
G75*
G02*
X54550000Y-63300520I-200000J0D01*
G01*
G37*
G36*
G01*
X54550000Y-66200520D02*
X52750000Y-66200520D01*
G75*
G02*
X52550000Y-66000520I0J200000D01*
G01*
X52550000Y-63900520D01*
G75*
G02*
X52750000Y-63700520I200000J0D01*
G01*
X54550000Y-63700520D01*
G75*
G02*
X54750000Y-63900520I0J-200000D01*
G01*
X54750000Y-66000520D01*
G75*
G02*
X54550000Y-66200520I-200000J0D01*
G01*
G37*
G36*
G01*
X49850000Y-75200520D02*
X50850000Y-75200520D01*
G75*
G02*
X51050000Y-75400520I0J-200000D01*
G01*
X51050000Y-77100520D01*
G75*
G02*
X50850000Y-77300520I-200000J0D01*
G01*
X49850000Y-77300520D01*
G75*
G02*
X49650000Y-77100520I0J200000D01*
G01*
X49650000Y-75400520D01*
G75*
G02*
X49850000Y-75200520I200000J0D01*
G01*
G37*
G36*
G01*
X49850000Y-68900520D02*
X50850000Y-68900520D01*
G75*
G02*
X51050000Y-69100520I0J-200000D01*
G01*
X51050000Y-70800520D01*
G75*
G02*
X50850000Y-71000520I-200000J0D01*
G01*
X49850000Y-71000520D01*
G75*
G02*
X49650000Y-70800520I0J200000D01*
G01*
X49650000Y-69100520D01*
G75*
G02*
X49850000Y-68900520I200000J0D01*
G01*
G37*
G36*
G01*
X46050000Y-75200520D02*
X47050000Y-75200520D01*
G75*
G02*
X47250000Y-75400520I0J-200000D01*
G01*
X47250000Y-77100520D01*
G75*
G02*
X47050000Y-77300520I-200000J0D01*
G01*
X46050000Y-77300520D01*
G75*
G02*
X45850000Y-77100520I0J200000D01*
G01*
X45850000Y-75400520D01*
G75*
G02*
X46050000Y-75200520I200000J0D01*
G01*
G37*
G36*
G01*
X46050000Y-68900520D02*
X47050000Y-68900520D01*
G75*
G02*
X47250000Y-69100520I0J-200000D01*
G01*
X47250000Y-70800520D01*
G75*
G02*
X47050000Y-71000520I-200000J0D01*
G01*
X46050000Y-71000520D01*
G75*
G02*
X45850000Y-70800520I0J200000D01*
G01*
X45850000Y-69100520D01*
G75*
G02*
X46050000Y-68900520I200000J0D01*
G01*
G37*
G36*
G01*
X29700000Y-26900520D02*
X29700000Y-25500520D01*
G75*
G02*
X29900000Y-25300520I200000J0D01*
G01*
X30900000Y-25300520D01*
G75*
G02*
X31100000Y-25500520I0J-200000D01*
G01*
X31100000Y-26900520D01*
G75*
G02*
X30900000Y-27100520I-200000J0D01*
G01*
X29900000Y-27100520D01*
G75*
G02*
X29700000Y-26900520I0J200000D01*
G01*
G37*
G36*
G01*
X31600000Y-26900520D02*
X31600000Y-25500520D01*
G75*
G02*
X31800000Y-25300520I200000J0D01*
G01*
X32800000Y-25300520D01*
G75*
G02*
X33000000Y-25500520I0J-200000D01*
G01*
X33000000Y-26900520D01*
G75*
G02*
X32800000Y-27100520I-200000J0D01*
G01*
X31800000Y-27100520D01*
G75*
G02*
X31600000Y-26900520I0J200000D01*
G01*
G37*
G36*
G01*
X31600000Y-24700520D02*
X31600000Y-23300520D01*
G75*
G02*
X31800000Y-23100520I200000J0D01*
G01*
X32800000Y-23100520D01*
G75*
G02*
X33000000Y-23300520I0J-200000D01*
G01*
X33000000Y-24700520D01*
G75*
G02*
X32800000Y-24900520I-200000J0D01*
G01*
X31800000Y-24900520D01*
G75*
G02*
X31600000Y-24700520I0J200000D01*
G01*
G37*
G36*
G01*
X29780000Y-24700520D02*
X29780000Y-23300520D01*
G75*
G02*
X29980000Y-23100520I200000J0D01*
G01*
X31180000Y-23100520D01*
G75*
G02*
X31380000Y-23300520I0J-200000D01*
G01*
X31380000Y-24700520D01*
G75*
G02*
X31180000Y-24900520I-200000J0D01*
G01*
X29980000Y-24900520D01*
G75*
G02*
X29780000Y-24700520I0J200000D01*
G01*
G37*
G36*
G01*
X50275000Y-25645695D02*
X50275000Y-27155345D01*
G75*
G02*
X49954825Y-27475520I-320175J0D01*
G01*
X48770175Y-27475520D01*
G75*
G02*
X48450000Y-27155345I0J320175D01*
G01*
X48450000Y-25645695D01*
G75*
G02*
X48770175Y-25325520I320175J0D01*
G01*
X49954825Y-25325520D01*
G75*
G02*
X50275000Y-25645695I0J-320175D01*
G01*
G37*
G36*
G01*
X53250000Y-25645695D02*
X53250000Y-27155345D01*
G75*
G02*
X52929825Y-27475520I-320175J0D01*
G01*
X51745175Y-27475520D01*
G75*
G02*
X51425000Y-27155345I0J320175D01*
G01*
X51425000Y-25645695D01*
G75*
G02*
X51745175Y-25325520I320175J0D01*
G01*
X52929825Y-25325520D01*
G75*
G02*
X53250000Y-25645695I0J-320175D01*
G01*
G37*
D10*
X61389984Y-99775520D03*
G36*
G01*
X57999984Y-98725520D02*
X59699984Y-98725520D01*
G75*
G02*
X59899984Y-98925520I0J-200000D01*
G01*
X59899984Y-100625520D01*
G75*
G02*
X59699984Y-100825520I-200000J0D01*
G01*
X57999984Y-100825520D01*
G75*
G02*
X57799984Y-100625520I0J200000D01*
G01*
X57799984Y-98925520D01*
G75*
G02*
X57999984Y-98725520I200000J0D01*
G01*
G37*
X53970000Y-39860520D03*
X53970000Y-42400520D03*
X56510000Y-39860520D03*
X56510000Y-42400520D03*
X59050000Y-39860520D03*
G36*
G01*
X59900000Y-43450520D02*
X58200000Y-43450520D01*
G75*
G02*
X58000000Y-43250520I0J200000D01*
G01*
X58000000Y-41550520D01*
G75*
G02*
X58200000Y-41350520I200000J0D01*
G01*
X59900000Y-41350520D01*
G75*
G02*
X60100000Y-41550520I0J-200000D01*
G01*
X60100000Y-43250520D01*
G75*
G02*
X59900000Y-43450520I-200000J0D01*
G01*
G37*
D20*
X123175000Y-109775520D03*
X230475000Y-114000520D03*
X248100000Y-114025520D03*
X96400000Y-109775520D03*
X185675000Y-109775520D03*
X158775000Y-109775520D03*
X283925000Y-109775520D03*
X35150000Y-109775520D03*
D21*
X117500000Y-26800000D03*
X212750000Y-26800000D03*
X106450000Y-112400000D03*
X208000000Y-112400000D03*
G36*
G01*
X51183332Y-93750520D02*
X52316668Y-93750520D01*
G75*
G02*
X52650000Y-94083852I0J-333332D01*
G01*
X52650000Y-95017188D01*
G75*
G02*
X52316668Y-95350520I-333332J0D01*
G01*
X51183332Y-95350520D01*
G75*
G02*
X50850000Y-95017188I0J333332D01*
G01*
X50850000Y-94083852D01*
G75*
G02*
X51183332Y-93750520I333332J0D01*
G01*
G37*
G36*
G01*
X51183332Y-91750520D02*
X52316668Y-91750520D01*
G75*
G02*
X52650000Y-92083852I0J-333332D01*
G01*
X52650000Y-93017188D01*
G75*
G02*
X52316668Y-93350520I-333332J0D01*
G01*
X51183332Y-93350520D01*
G75*
G02*
X50850000Y-93017188I0J333332D01*
G01*
X50850000Y-92083852D01*
G75*
G02*
X51183332Y-91750520I333332J0D01*
G01*
G37*
G36*
G01*
X53833332Y-93750520D02*
X54966668Y-93750520D01*
G75*
G02*
X55300000Y-94083852I0J-333332D01*
G01*
X55300000Y-95017188D01*
G75*
G02*
X54966668Y-95350520I-333332J0D01*
G01*
X53833332Y-95350520D01*
G75*
G02*
X53500000Y-95017188I0J333332D01*
G01*
X53500000Y-94083852D01*
G75*
G02*
X53833332Y-93750520I333332J0D01*
G01*
G37*
G36*
G01*
X53833332Y-91750520D02*
X54966668Y-91750520D01*
G75*
G02*
X55300000Y-92083852I0J-333332D01*
G01*
X55300000Y-93017188D01*
G75*
G02*
X54966668Y-93350520I-333332J0D01*
G01*
X53833332Y-93350520D01*
G75*
G02*
X53500000Y-93017188I0J333332D01*
G01*
X53500000Y-92083852D01*
G75*
G02*
X53833332Y-91750520I333332J0D01*
G01*
G37*
D22*
X45100000Y-23830000D03*
X36450000Y-23830000D03*
D23*
X45100000Y-27210000D03*
X36450000Y-27210000D03*
D24*
X41200000Y-26840000D03*
X43750000Y-26840000D03*
X42900000Y-26840000D03*
X42050000Y-26840000D03*
X37800000Y-26840000D03*
X39500000Y-26840000D03*
X40350000Y-26840000D03*
X38650000Y-26840000D03*
X43750000Y-28190000D03*
X42900000Y-28190000D03*
X42050000Y-28190000D03*
X41200000Y-28190000D03*
X40350000Y-28190000D03*
X39500000Y-28190000D03*
X38650000Y-28190000D03*
X37800000Y-28190000D03*
G36*
G01*
X41125000Y-58595520D02*
X42412500Y-58595520D01*
G75*
G02*
X42612500Y-58795520I0J-200000D01*
G01*
X42612500Y-60083020D01*
G75*
G02*
X42412500Y-60283020I-200000J0D01*
G01*
X41125000Y-60283020D01*
G75*
G02*
X40925000Y-60083020I0J200000D01*
G01*
X40925000Y-58795520D01*
G75*
G02*
X41125000Y-58595520I200000J0D01*
G01*
G37*
G36*
G01*
X42412500Y-58595520D02*
X43700000Y-58595520D01*
G75*
G02*
X43900000Y-58795520I0J-200000D01*
G01*
X43900000Y-60083020D01*
G75*
G02*
X43700000Y-60283020I-200000J0D01*
G01*
X42412500Y-60283020D01*
G75*
G02*
X42212500Y-60083020I0J200000D01*
G01*
X42212500Y-58795520D01*
G75*
G02*
X42412500Y-58595520I200000J0D01*
G01*
G37*
G36*
G01*
X43700000Y-58595520D02*
X44987500Y-58595520D01*
G75*
G02*
X45187500Y-58795520I0J-200000D01*
G01*
X45187500Y-60083020D01*
G75*
G02*
X44987500Y-60283020I-200000J0D01*
G01*
X43700000Y-60283020D01*
G75*
G02*
X43500000Y-60083020I0J200000D01*
G01*
X43500000Y-58795520D01*
G75*
G02*
X43700000Y-58595520I200000J0D01*
G01*
G37*
G36*
G01*
X44987500Y-58595520D02*
X46275000Y-58595520D01*
G75*
G02*
X46475000Y-58795520I0J-200000D01*
G01*
X46475000Y-60083020D01*
G75*
G02*
X46275000Y-60283020I-200000J0D01*
G01*
X44987500Y-60283020D01*
G75*
G02*
X44787500Y-60083020I0J200000D01*
G01*
X44787500Y-58795520D01*
G75*
G02*
X44987500Y-58595520I200000J0D01*
G01*
G37*
G36*
G01*
X41125000Y-59883020D02*
X42412500Y-59883020D01*
G75*
G02*
X42612500Y-60083020I0J-200000D01*
G01*
X42612500Y-61370520D01*
G75*
G02*
X42412500Y-61570520I-200000J0D01*
G01*
X41125000Y-61570520D01*
G75*
G02*
X40925000Y-61370520I0J200000D01*
G01*
X40925000Y-60083020D01*
G75*
G02*
X41125000Y-59883020I200000J0D01*
G01*
G37*
G36*
G01*
X42412500Y-59883020D02*
X43700000Y-59883020D01*
G75*
G02*
X43900000Y-60083020I0J-200000D01*
G01*
X43900000Y-61370520D01*
G75*
G02*
X43700000Y-61570520I-200000J0D01*
G01*
X42412500Y-61570520D01*
G75*
G02*
X42212500Y-61370520I0J200000D01*
G01*
X42212500Y-60083020D01*
G75*
G02*
X42412500Y-59883020I200000J0D01*
G01*
G37*
G36*
G01*
X43700000Y-59883020D02*
X44987500Y-59883020D01*
G75*
G02*
X45187500Y-60083020I0J-200000D01*
G01*
X45187500Y-61370520D01*
G75*
G02*
X44987500Y-61570520I-200000J0D01*
G01*
X43700000Y-61570520D01*
G75*
G02*
X43500000Y-61370520I0J200000D01*
G01*
X43500000Y-60083020D01*
G75*
G02*
X43700000Y-59883020I200000J0D01*
G01*
G37*
G36*
G01*
X44987500Y-59883020D02*
X46275000Y-59883020D01*
G75*
G02*
X46475000Y-60083020I0J-200000D01*
G01*
X46475000Y-61370520D01*
G75*
G02*
X46275000Y-61570520I-200000J0D01*
G01*
X44987500Y-61570520D01*
G75*
G02*
X44787500Y-61370520I0J200000D01*
G01*
X44787500Y-60083020D01*
G75*
G02*
X44987500Y-59883020I200000J0D01*
G01*
G37*
G36*
G01*
X41125000Y-61170520D02*
X42412500Y-61170520D01*
G75*
G02*
X42612500Y-61370520I0J-200000D01*
G01*
X42612500Y-62658020D01*
G75*
G02*
X42412500Y-62858020I-200000J0D01*
G01*
X41125000Y-62858020D01*
G75*
G02*
X40925000Y-62658020I0J200000D01*
G01*
X40925000Y-61370520D01*
G75*
G02*
X41125000Y-61170520I200000J0D01*
G01*
G37*
G36*
G01*
X42412500Y-61170520D02*
X43700000Y-61170520D01*
G75*
G02*
X43900000Y-61370520I0J-200000D01*
G01*
X43900000Y-62658020D01*
G75*
G02*
X43700000Y-62858020I-200000J0D01*
G01*
X42412500Y-62858020D01*
G75*
G02*
X42212500Y-62658020I0J200000D01*
G01*
X42212500Y-61370520D01*
G75*
G02*
X42412500Y-61170520I200000J0D01*
G01*
G37*
G36*
G01*
X43700000Y-61170520D02*
X44987500Y-61170520D01*
G75*
G02*
X45187500Y-61370520I0J-200000D01*
G01*
X45187500Y-62658020D01*
G75*
G02*
X44987500Y-62858020I-200000J0D01*
G01*
X43700000Y-62858020D01*
G75*
G02*
X43500000Y-62658020I0J200000D01*
G01*
X43500000Y-61370520D01*
G75*
G02*
X43700000Y-61170520I200000J0D01*
G01*
G37*
G36*
G01*
X44987500Y-61170520D02*
X46275000Y-61170520D01*
G75*
G02*
X46475000Y-61370520I0J-200000D01*
G01*
X46475000Y-62658020D01*
G75*
G02*
X46275000Y-62858020I-200000J0D01*
G01*
X44987500Y-62858020D01*
G75*
G02*
X44787500Y-62658020I0J200000D01*
G01*
X44787500Y-61370520D01*
G75*
G02*
X44987500Y-61170520I200000J0D01*
G01*
G37*
G36*
G01*
X41125000Y-62458020D02*
X42412500Y-62458020D01*
G75*
G02*
X42612500Y-62658020I0J-200000D01*
G01*
X42612500Y-63945520D01*
G75*
G02*
X42412500Y-64145520I-200000J0D01*
G01*
X41125000Y-64145520D01*
G75*
G02*
X40925000Y-63945520I0J200000D01*
G01*
X40925000Y-62658020D01*
G75*
G02*
X41125000Y-62458020I200000J0D01*
G01*
G37*
G36*
G01*
X42412500Y-62458020D02*
X43700000Y-62458020D01*
G75*
G02*
X43900000Y-62658020I0J-200000D01*
G01*
X43900000Y-63945520D01*
G75*
G02*
X43700000Y-64145520I-200000J0D01*
G01*
X42412500Y-64145520D01*
G75*
G02*
X42212500Y-63945520I0J200000D01*
G01*
X42212500Y-62658020D01*
G75*
G02*
X42412500Y-62458020I200000J0D01*
G01*
G37*
G36*
G01*
X43700000Y-62458020D02*
X44987500Y-62458020D01*
G75*
G02*
X45187500Y-62658020I0J-200000D01*
G01*
X45187500Y-63945520D01*
G75*
G02*
X44987500Y-64145520I-200000J0D01*
G01*
X43700000Y-64145520D01*
G75*
G02*
X43500000Y-63945520I0J200000D01*
G01*
X43500000Y-62658020D01*
G75*
G02*
X43700000Y-62458020I200000J0D01*
G01*
G37*
G36*
G01*
X44987500Y-62458020D02*
X46275000Y-62458020D01*
G75*
G02*
X46475000Y-62658020I0J-200000D01*
G01*
X46475000Y-63945520D01*
G75*
G02*
X46275000Y-64145520I-200000J0D01*
G01*
X44987500Y-64145520D01*
G75*
G02*
X44787500Y-63945520I0J200000D01*
G01*
X44787500Y-62658020D01*
G75*
G02*
X44987500Y-62458020I200000J0D01*
G01*
G37*
G36*
G01*
X40850000Y-58745520D02*
X40850000Y-58995520D01*
G75*
G02*
X40650000Y-59195520I-200000J0D01*
G01*
X39950000Y-59195520D01*
G75*
G02*
X39750000Y-58995520I0J200000D01*
G01*
X39750000Y-58745520D01*
G75*
G02*
X39950000Y-58545520I200000J0D01*
G01*
X40650000Y-58545520D01*
G75*
G02*
X40850000Y-58745520I0J-200000D01*
G01*
G37*
G36*
G01*
X40850000Y-59245520D02*
X40850000Y-59495520D01*
G75*
G02*
X40650000Y-59695520I-200000J0D01*
G01*
X39950000Y-59695520D01*
G75*
G02*
X39750000Y-59495520I0J200000D01*
G01*
X39750000Y-59245520D01*
G75*
G02*
X39950000Y-59045520I200000J0D01*
G01*
X40650000Y-59045520D01*
G75*
G02*
X40850000Y-59245520I0J-200000D01*
G01*
G37*
G36*
G01*
X40850000Y-59745520D02*
X40850000Y-59995520D01*
G75*
G02*
X40650000Y-60195520I-200000J0D01*
G01*
X39950000Y-60195520D01*
G75*
G02*
X39750000Y-59995520I0J200000D01*
G01*
X39750000Y-59745520D01*
G75*
G02*
X39950000Y-59545520I200000J0D01*
G01*
X40650000Y-59545520D01*
G75*
G02*
X40850000Y-59745520I0J-200000D01*
G01*
G37*
G36*
G01*
X40850000Y-60245520D02*
X40850000Y-60495520D01*
G75*
G02*
X40650000Y-60695520I-200000J0D01*
G01*
X39950000Y-60695520D01*
G75*
G02*
X39750000Y-60495520I0J200000D01*
G01*
X39750000Y-60245520D01*
G75*
G02*
X39950000Y-60045520I200000J0D01*
G01*
X40650000Y-60045520D01*
G75*
G02*
X40850000Y-60245520I0J-200000D01*
G01*
G37*
G36*
G01*
X40850000Y-60745520D02*
X40850000Y-60995520D01*
G75*
G02*
X40650000Y-61195520I-200000J0D01*
G01*
X39950000Y-61195520D01*
G75*
G02*
X39750000Y-60995520I0J200000D01*
G01*
X39750000Y-60745520D01*
G75*
G02*
X39950000Y-60545520I200000J0D01*
G01*
X40650000Y-60545520D01*
G75*
G02*
X40850000Y-60745520I0J-200000D01*
G01*
G37*
G36*
G01*
X40850000Y-61245520D02*
X40850000Y-61495520D01*
G75*
G02*
X40650000Y-61695520I-200000J0D01*
G01*
X39950000Y-61695520D01*
G75*
G02*
X39750000Y-61495520I0J200000D01*
G01*
X39750000Y-61245520D01*
G75*
G02*
X39950000Y-61045520I200000J0D01*
G01*
X40650000Y-61045520D01*
G75*
G02*
X40850000Y-61245520I0J-200000D01*
G01*
G37*
G36*
G01*
X40850000Y-61745520D02*
X40850000Y-61995520D01*
G75*
G02*
X40650000Y-62195520I-200000J0D01*
G01*
X39950000Y-62195520D01*
G75*
G02*
X39750000Y-61995520I0J200000D01*
G01*
X39750000Y-61745520D01*
G75*
G02*
X39950000Y-61545520I200000J0D01*
G01*
X40650000Y-61545520D01*
G75*
G02*
X40850000Y-61745520I0J-200000D01*
G01*
G37*
G36*
G01*
X40850000Y-62245520D02*
X40850000Y-62495520D01*
G75*
G02*
X40650000Y-62695520I-200000J0D01*
G01*
X39950000Y-62695520D01*
G75*
G02*
X39750000Y-62495520I0J200000D01*
G01*
X39750000Y-62245520D01*
G75*
G02*
X39950000Y-62045520I200000J0D01*
G01*
X40650000Y-62045520D01*
G75*
G02*
X40850000Y-62245520I0J-200000D01*
G01*
G37*
G36*
G01*
X40850000Y-62745520D02*
X40850000Y-62995520D01*
G75*
G02*
X40650000Y-63195520I-200000J0D01*
G01*
X39950000Y-63195520D01*
G75*
G02*
X39750000Y-62995520I0J200000D01*
G01*
X39750000Y-62745520D01*
G75*
G02*
X39950000Y-62545520I200000J0D01*
G01*
X40650000Y-62545520D01*
G75*
G02*
X40850000Y-62745520I0J-200000D01*
G01*
G37*
G36*
G01*
X40850000Y-63245520D02*
X40850000Y-63495520D01*
G75*
G02*
X40650000Y-63695520I-200000J0D01*
G01*
X39950000Y-63695520D01*
G75*
G02*
X39750000Y-63495520I0J200000D01*
G01*
X39750000Y-63245520D01*
G75*
G02*
X39950000Y-63045520I200000J0D01*
G01*
X40650000Y-63045520D01*
G75*
G02*
X40850000Y-63245520I0J-200000D01*
G01*
G37*
G36*
G01*
X40850000Y-63745520D02*
X40850000Y-63995520D01*
G75*
G02*
X40650000Y-64195520I-200000J0D01*
G01*
X39950000Y-64195520D01*
G75*
G02*
X39750000Y-63995520I0J200000D01*
G01*
X39750000Y-63745520D01*
G75*
G02*
X39950000Y-63545520I200000J0D01*
G01*
X40650000Y-63545520D01*
G75*
G02*
X40850000Y-63745520I0J-200000D01*
G01*
G37*
G36*
G01*
X41075000Y-64220520D02*
X41325000Y-64220520D01*
G75*
G02*
X41525000Y-64420520I0J-200000D01*
G01*
X41525000Y-65120520D01*
G75*
G02*
X41325000Y-65320520I-200000J0D01*
G01*
X41075000Y-65320520D01*
G75*
G02*
X40875000Y-65120520I0J200000D01*
G01*
X40875000Y-64420520D01*
G75*
G02*
X41075000Y-64220520I200000J0D01*
G01*
G37*
G36*
G01*
X41575000Y-64220520D02*
X41825000Y-64220520D01*
G75*
G02*
X42025000Y-64420520I0J-200000D01*
G01*
X42025000Y-65120520D01*
G75*
G02*
X41825000Y-65320520I-200000J0D01*
G01*
X41575000Y-65320520D01*
G75*
G02*
X41375000Y-65120520I0J200000D01*
G01*
X41375000Y-64420520D01*
G75*
G02*
X41575000Y-64220520I200000J0D01*
G01*
G37*
G36*
G01*
X42075000Y-64220520D02*
X42325000Y-64220520D01*
G75*
G02*
X42525000Y-64420520I0J-200000D01*
G01*
X42525000Y-65120520D01*
G75*
G02*
X42325000Y-65320520I-200000J0D01*
G01*
X42075000Y-65320520D01*
G75*
G02*
X41875000Y-65120520I0J200000D01*
G01*
X41875000Y-64420520D01*
G75*
G02*
X42075000Y-64220520I200000J0D01*
G01*
G37*
G36*
G01*
X42575000Y-64220520D02*
X42825000Y-64220520D01*
G75*
G02*
X43025000Y-64420520I0J-200000D01*
G01*
X43025000Y-65120520D01*
G75*
G02*
X42825000Y-65320520I-200000J0D01*
G01*
X42575000Y-65320520D01*
G75*
G02*
X42375000Y-65120520I0J200000D01*
G01*
X42375000Y-64420520D01*
G75*
G02*
X42575000Y-64220520I200000J0D01*
G01*
G37*
G36*
G01*
X43075000Y-64220520D02*
X43325000Y-64220520D01*
G75*
G02*
X43525000Y-64420520I0J-200000D01*
G01*
X43525000Y-65120520D01*
G75*
G02*
X43325000Y-65320520I-200000J0D01*
G01*
X43075000Y-65320520D01*
G75*
G02*
X42875000Y-65120520I0J200000D01*
G01*
X42875000Y-64420520D01*
G75*
G02*
X43075000Y-64220520I200000J0D01*
G01*
G37*
G36*
G01*
X43575000Y-64220520D02*
X43825000Y-64220520D01*
G75*
G02*
X44025000Y-64420520I0J-200000D01*
G01*
X44025000Y-65120520D01*
G75*
G02*
X43825000Y-65320520I-200000J0D01*
G01*
X43575000Y-65320520D01*
G75*
G02*
X43375000Y-65120520I0J200000D01*
G01*
X43375000Y-64420520D01*
G75*
G02*
X43575000Y-64220520I200000J0D01*
G01*
G37*
G36*
G01*
X44075000Y-64220520D02*
X44325000Y-64220520D01*
G75*
G02*
X44525000Y-64420520I0J-200000D01*
G01*
X44525000Y-65120520D01*
G75*
G02*
X44325000Y-65320520I-200000J0D01*
G01*
X44075000Y-65320520D01*
G75*
G02*
X43875000Y-65120520I0J200000D01*
G01*
X43875000Y-64420520D01*
G75*
G02*
X44075000Y-64220520I200000J0D01*
G01*
G37*
G36*
G01*
X44575000Y-64220520D02*
X44825000Y-64220520D01*
G75*
G02*
X45025000Y-64420520I0J-200000D01*
G01*
X45025000Y-65120520D01*
G75*
G02*
X44825000Y-65320520I-200000J0D01*
G01*
X44575000Y-65320520D01*
G75*
G02*
X44375000Y-65120520I0J200000D01*
G01*
X44375000Y-64420520D01*
G75*
G02*
X44575000Y-64220520I200000J0D01*
G01*
G37*
G36*
G01*
X45075000Y-64220520D02*
X45325000Y-64220520D01*
G75*
G02*
X45525000Y-64420520I0J-200000D01*
G01*
X45525000Y-65120520D01*
G75*
G02*
X45325000Y-65320520I-200000J0D01*
G01*
X45075000Y-65320520D01*
G75*
G02*
X44875000Y-65120520I0J200000D01*
G01*
X44875000Y-64420520D01*
G75*
G02*
X45075000Y-64220520I200000J0D01*
G01*
G37*
G36*
G01*
X45575000Y-64220520D02*
X45825000Y-64220520D01*
G75*
G02*
X46025000Y-64420520I0J-200000D01*
G01*
X46025000Y-65120520D01*
G75*
G02*
X45825000Y-65320520I-200000J0D01*
G01*
X45575000Y-65320520D01*
G75*
G02*
X45375000Y-65120520I0J200000D01*
G01*
X45375000Y-64420520D01*
G75*
G02*
X45575000Y-64220520I200000J0D01*
G01*
G37*
G36*
G01*
X46075000Y-64220520D02*
X46325000Y-64220520D01*
G75*
G02*
X46525000Y-64420520I0J-200000D01*
G01*
X46525000Y-65120520D01*
G75*
G02*
X46325000Y-65320520I-200000J0D01*
G01*
X46075000Y-65320520D01*
G75*
G02*
X45875000Y-65120520I0J200000D01*
G01*
X45875000Y-64420520D01*
G75*
G02*
X46075000Y-64220520I200000J0D01*
G01*
G37*
G36*
G01*
X47650000Y-63745520D02*
X47650000Y-63995520D01*
G75*
G02*
X47450000Y-64195520I-200000J0D01*
G01*
X46750000Y-64195520D01*
G75*
G02*
X46550000Y-63995520I0J200000D01*
G01*
X46550000Y-63745520D01*
G75*
G02*
X46750000Y-63545520I200000J0D01*
G01*
X47450000Y-63545520D01*
G75*
G02*
X47650000Y-63745520I0J-200000D01*
G01*
G37*
G36*
G01*
X47650000Y-63245520D02*
X47650000Y-63495520D01*
G75*
G02*
X47450000Y-63695520I-200000J0D01*
G01*
X46750000Y-63695520D01*
G75*
G02*
X46550000Y-63495520I0J200000D01*
G01*
X46550000Y-63245520D01*
G75*
G02*
X46750000Y-63045520I200000J0D01*
G01*
X47450000Y-63045520D01*
G75*
G02*
X47650000Y-63245520I0J-200000D01*
G01*
G37*
G36*
G01*
X47650000Y-62745520D02*
X47650000Y-62995520D01*
G75*
G02*
X47450000Y-63195520I-200000J0D01*
G01*
X46750000Y-63195520D01*
G75*
G02*
X46550000Y-62995520I0J200000D01*
G01*
X46550000Y-62745520D01*
G75*
G02*
X46750000Y-62545520I200000J0D01*
G01*
X47450000Y-62545520D01*
G75*
G02*
X47650000Y-62745520I0J-200000D01*
G01*
G37*
G36*
G01*
X47650000Y-62245520D02*
X47650000Y-62495520D01*
G75*
G02*
X47450000Y-62695520I-200000J0D01*
G01*
X46750000Y-62695520D01*
G75*
G02*
X46550000Y-62495520I0J200000D01*
G01*
X46550000Y-62245520D01*
G75*
G02*
X46750000Y-62045520I200000J0D01*
G01*
X47450000Y-62045520D01*
G75*
G02*
X47650000Y-62245520I0J-200000D01*
G01*
G37*
G36*
G01*
X47650000Y-61745520D02*
X47650000Y-61995520D01*
G75*
G02*
X47450000Y-62195520I-200000J0D01*
G01*
X46750000Y-62195520D01*
G75*
G02*
X46550000Y-61995520I0J200000D01*
G01*
X46550000Y-61745520D01*
G75*
G02*
X46750000Y-61545520I200000J0D01*
G01*
X47450000Y-61545520D01*
G75*
G02*
X47650000Y-61745520I0J-200000D01*
G01*
G37*
G36*
G01*
X47650000Y-61245520D02*
X47650000Y-61495520D01*
G75*
G02*
X47450000Y-61695520I-200000J0D01*
G01*
X46750000Y-61695520D01*
G75*
G02*
X46550000Y-61495520I0J200000D01*
G01*
X46550000Y-61245520D01*
G75*
G02*
X46750000Y-61045520I200000J0D01*
G01*
X47450000Y-61045520D01*
G75*
G02*
X47650000Y-61245520I0J-200000D01*
G01*
G37*
G36*
G01*
X47650000Y-60745520D02*
X47650000Y-60995520D01*
G75*
G02*
X47450000Y-61195520I-200000J0D01*
G01*
X46750000Y-61195520D01*
G75*
G02*
X46550000Y-60995520I0J200000D01*
G01*
X46550000Y-60745520D01*
G75*
G02*
X46750000Y-60545520I200000J0D01*
G01*
X47450000Y-60545520D01*
G75*
G02*
X47650000Y-60745520I0J-200000D01*
G01*
G37*
G36*
G01*
X47650000Y-60245520D02*
X47650000Y-60495520D01*
G75*
G02*
X47450000Y-60695520I-200000J0D01*
G01*
X46750000Y-60695520D01*
G75*
G02*
X46550000Y-60495520I0J200000D01*
G01*
X46550000Y-60245520D01*
G75*
G02*
X46750000Y-60045520I200000J0D01*
G01*
X47450000Y-60045520D01*
G75*
G02*
X47650000Y-60245520I0J-200000D01*
G01*
G37*
G36*
G01*
X47650000Y-59745520D02*
X47650000Y-59995520D01*
G75*
G02*
X47450000Y-60195520I-200000J0D01*
G01*
X46750000Y-60195520D01*
G75*
G02*
X46550000Y-59995520I0J200000D01*
G01*
X46550000Y-59745520D01*
G75*
G02*
X46750000Y-59545520I200000J0D01*
G01*
X47450000Y-59545520D01*
G75*
G02*
X47650000Y-59745520I0J-200000D01*
G01*
G37*
G36*
G01*
X47650000Y-59245520D02*
X47650000Y-59495520D01*
G75*
G02*
X47450000Y-59695520I-200000J0D01*
G01*
X46750000Y-59695520D01*
G75*
G02*
X46550000Y-59495520I0J200000D01*
G01*
X46550000Y-59245520D01*
G75*
G02*
X46750000Y-59045520I200000J0D01*
G01*
X47450000Y-59045520D01*
G75*
G02*
X47650000Y-59245520I0J-200000D01*
G01*
G37*
G36*
G01*
X47650000Y-58745520D02*
X47650000Y-58995520D01*
G75*
G02*
X47450000Y-59195520I-200000J0D01*
G01*
X46750000Y-59195520D01*
G75*
G02*
X46550000Y-58995520I0J200000D01*
G01*
X46550000Y-58745520D01*
G75*
G02*
X46750000Y-58545520I200000J0D01*
G01*
X47450000Y-58545520D01*
G75*
G02*
X47650000Y-58745520I0J-200000D01*
G01*
G37*
G36*
G01*
X46075000Y-57420520D02*
X46325000Y-57420520D01*
G75*
G02*
X46525000Y-57620520I0J-200000D01*
G01*
X46525000Y-58320520D01*
G75*
G02*
X46325000Y-58520520I-200000J0D01*
G01*
X46075000Y-58520520D01*
G75*
G02*
X45875000Y-58320520I0J200000D01*
G01*
X45875000Y-57620520D01*
G75*
G02*
X46075000Y-57420520I200000J0D01*
G01*
G37*
G36*
G01*
X45575000Y-57420520D02*
X45825000Y-57420520D01*
G75*
G02*
X46025000Y-57620520I0J-200000D01*
G01*
X46025000Y-58320520D01*
G75*
G02*
X45825000Y-58520520I-200000J0D01*
G01*
X45575000Y-58520520D01*
G75*
G02*
X45375000Y-58320520I0J200000D01*
G01*
X45375000Y-57620520D01*
G75*
G02*
X45575000Y-57420520I200000J0D01*
G01*
G37*
G36*
G01*
X45075000Y-57420520D02*
X45325000Y-57420520D01*
G75*
G02*
X45525000Y-57620520I0J-200000D01*
G01*
X45525000Y-58320520D01*
G75*
G02*
X45325000Y-58520520I-200000J0D01*
G01*
X45075000Y-58520520D01*
G75*
G02*
X44875000Y-58320520I0J200000D01*
G01*
X44875000Y-57620520D01*
G75*
G02*
X45075000Y-57420520I200000J0D01*
G01*
G37*
G36*
G01*
X44575000Y-57420520D02*
X44825000Y-57420520D01*
G75*
G02*
X45025000Y-57620520I0J-200000D01*
G01*
X45025000Y-58320520D01*
G75*
G02*
X44825000Y-58520520I-200000J0D01*
G01*
X44575000Y-58520520D01*
G75*
G02*
X44375000Y-58320520I0J200000D01*
G01*
X44375000Y-57620520D01*
G75*
G02*
X44575000Y-57420520I200000J0D01*
G01*
G37*
G36*
G01*
X44075000Y-57420520D02*
X44325000Y-57420520D01*
G75*
G02*
X44525000Y-57620520I0J-200000D01*
G01*
X44525000Y-58320520D01*
G75*
G02*
X44325000Y-58520520I-200000J0D01*
G01*
X44075000Y-58520520D01*
G75*
G02*
X43875000Y-58320520I0J200000D01*
G01*
X43875000Y-57620520D01*
G75*
G02*
X44075000Y-57420520I200000J0D01*
G01*
G37*
G36*
G01*
X43575000Y-57420520D02*
X43825000Y-57420520D01*
G75*
G02*
X44025000Y-57620520I0J-200000D01*
G01*
X44025000Y-58320520D01*
G75*
G02*
X43825000Y-58520520I-200000J0D01*
G01*
X43575000Y-58520520D01*
G75*
G02*
X43375000Y-58320520I0J200000D01*
G01*
X43375000Y-57620520D01*
G75*
G02*
X43575000Y-57420520I200000J0D01*
G01*
G37*
G36*
G01*
X43075000Y-57420520D02*
X43325000Y-57420520D01*
G75*
G02*
X43525000Y-57620520I0J-200000D01*
G01*
X43525000Y-58320520D01*
G75*
G02*
X43325000Y-58520520I-200000J0D01*
G01*
X43075000Y-58520520D01*
G75*
G02*
X42875000Y-58320520I0J200000D01*
G01*
X42875000Y-57620520D01*
G75*
G02*
X43075000Y-57420520I200000J0D01*
G01*
G37*
G36*
G01*
X42575000Y-57420520D02*
X42825000Y-57420520D01*
G75*
G02*
X43025000Y-57620520I0J-200000D01*
G01*
X43025000Y-58320520D01*
G75*
G02*
X42825000Y-58520520I-200000J0D01*
G01*
X42575000Y-58520520D01*
G75*
G02*
X42375000Y-58320520I0J200000D01*
G01*
X42375000Y-57620520D01*
G75*
G02*
X42575000Y-57420520I200000J0D01*
G01*
G37*
G36*
G01*
X42075000Y-57420520D02*
X42325000Y-57420520D01*
G75*
G02*
X42525000Y-57620520I0J-200000D01*
G01*
X42525000Y-58320520D01*
G75*
G02*
X42325000Y-58520520I-200000J0D01*
G01*
X42075000Y-58520520D01*
G75*
G02*
X41875000Y-58320520I0J200000D01*
G01*
X41875000Y-57620520D01*
G75*
G02*
X42075000Y-57420520I200000J0D01*
G01*
G37*
G36*
G01*
X41575000Y-57420520D02*
X41825000Y-57420520D01*
G75*
G02*
X42025000Y-57620520I0J-200000D01*
G01*
X42025000Y-58320520D01*
G75*
G02*
X41825000Y-58520520I-200000J0D01*
G01*
X41575000Y-58520520D01*
G75*
G02*
X41375000Y-58320520I0J200000D01*
G01*
X41375000Y-57620520D01*
G75*
G02*
X41575000Y-57420520I200000J0D01*
G01*
G37*
G36*
G01*
X41075000Y-57420520D02*
X41325000Y-57420520D01*
G75*
G02*
X41525000Y-57620520I0J-200000D01*
G01*
X41525000Y-58320520D01*
G75*
G02*
X41325000Y-58520520I-200000J0D01*
G01*
X41075000Y-58520520D01*
G75*
G02*
X40875000Y-58320520I0J200000D01*
G01*
X40875000Y-57620520D01*
G75*
G02*
X41075000Y-57420520I200000J0D01*
G01*
G37*
G36*
G01*
X34400000Y-56452914D02*
X34400000Y-55273126D01*
G75*
G02*
X34735106Y-54938020I335106J0D01*
G01*
X35639894Y-54938020D01*
G75*
G02*
X35975000Y-55273126I0J-335106D01*
G01*
X35975000Y-56452914D01*
G75*
G02*
X35639894Y-56788020I-335106J0D01*
G01*
X34735106Y-56788020D01*
G75*
G02*
X34400000Y-56452914I0J335106D01*
G01*
G37*
G36*
G01*
X32325000Y-56452914D02*
X32325000Y-55273126D01*
G75*
G02*
X32660106Y-54938020I335106J0D01*
G01*
X33564894Y-54938020D01*
G75*
G02*
X33900000Y-55273126I0J-335106D01*
G01*
X33900000Y-56452914D01*
G75*
G02*
X33564894Y-56788020I-335106J0D01*
G01*
X32660106Y-56788020D01*
G75*
G02*
X32325000Y-56452914I0J335106D01*
G01*
G37*
G36*
G01*
X59937500Y-65940414D02*
X59937500Y-64760626D01*
G75*
G02*
X60272606Y-64425520I335106J0D01*
G01*
X61177394Y-64425520D01*
G75*
G02*
X61512500Y-64760626I0J-335106D01*
G01*
X61512500Y-65940414D01*
G75*
G02*
X61177394Y-66275520I-335106J0D01*
G01*
X60272606Y-66275520D01*
G75*
G02*
X59937500Y-65940414I0J335106D01*
G01*
G37*
G36*
G01*
X57862500Y-65940414D02*
X57862500Y-64760626D01*
G75*
G02*
X58197606Y-64425520I335106J0D01*
G01*
X59102394Y-64425520D01*
G75*
G02*
X59437500Y-64760626I0J-335106D01*
G01*
X59437500Y-65940414D01*
G75*
G02*
X59102394Y-66275520I-335106J0D01*
G01*
X58197606Y-66275520D01*
G75*
G02*
X57862500Y-65940414I0J335106D01*
G01*
G37*
G36*
G01*
X59937500Y-62640414D02*
X59937500Y-61460626D01*
G75*
G02*
X60272606Y-61125520I335106J0D01*
G01*
X61177394Y-61125520D01*
G75*
G02*
X61512500Y-61460626I0J-335106D01*
G01*
X61512500Y-62640414D01*
G75*
G02*
X61177394Y-62975520I-335106J0D01*
G01*
X60272606Y-62975520D01*
G75*
G02*
X59937500Y-62640414I0J335106D01*
G01*
G37*
G36*
G01*
X57862500Y-62640414D02*
X57862500Y-61460626D01*
G75*
G02*
X58197606Y-61125520I335106J0D01*
G01*
X59102394Y-61125520D01*
G75*
G02*
X59437500Y-61460626I0J-335106D01*
G01*
X59437500Y-62640414D01*
G75*
G02*
X59102394Y-62975520I-335106J0D01*
G01*
X58197606Y-62975520D01*
G75*
G02*
X57862500Y-62640414I0J335106D01*
G01*
G37*
G36*
G01*
X43000000Y-71360626D02*
X43000000Y-72540414D01*
G75*
G02*
X42664894Y-72875520I-335106J0D01*
G01*
X41760106Y-72875520D01*
G75*
G02*
X41425000Y-72540414I0J335106D01*
G01*
X41425000Y-71360626D01*
G75*
G02*
X41760106Y-71025520I335106J0D01*
G01*
X42664894Y-71025520D01*
G75*
G02*
X43000000Y-71360626I0J-335106D01*
G01*
G37*
G36*
G01*
X45075000Y-71360626D02*
X45075000Y-72540414D01*
G75*
G02*
X44739894Y-72875520I-335106J0D01*
G01*
X43835106Y-72875520D01*
G75*
G02*
X43500000Y-72540414I0J335106D01*
G01*
X43500000Y-71360626D01*
G75*
G02*
X43835106Y-71025520I335106J0D01*
G01*
X44739894Y-71025520D01*
G75*
G02*
X45075000Y-71360626I0J-335106D01*
G01*
G37*
G36*
G01*
X33560106Y-65350520D02*
X34739894Y-65350520D01*
G75*
G02*
X35075000Y-65685626I0J-335106D01*
G01*
X35075000Y-66590414D01*
G75*
G02*
X34739894Y-66925520I-335106J0D01*
G01*
X33560106Y-66925520D01*
G75*
G02*
X33225000Y-66590414I0J335106D01*
G01*
X33225000Y-65685626D01*
G75*
G02*
X33560106Y-65350520I335106J0D01*
G01*
G37*
G36*
G01*
X33560106Y-63275520D02*
X34739894Y-63275520D01*
G75*
G02*
X35075000Y-63610626I0J-335106D01*
G01*
X35075000Y-64515414D01*
G75*
G02*
X34739894Y-64850520I-335106J0D01*
G01*
X33560106Y-64850520D01*
G75*
G02*
X33225000Y-64515414I0J335106D01*
G01*
X33225000Y-63610626D01*
G75*
G02*
X33560106Y-63275520I335106J0D01*
G01*
G37*
G36*
G01*
X43390000Y-46420626D02*
X43390000Y-47600414D01*
G75*
G02*
X43054894Y-47935520I-335106J0D01*
G01*
X42150106Y-47935520D01*
G75*
G02*
X41815000Y-47600414I0J335106D01*
G01*
X41815000Y-46420626D01*
G75*
G02*
X42150106Y-46085520I335106J0D01*
G01*
X43054894Y-46085520D01*
G75*
G02*
X43390000Y-46420626I0J-335106D01*
G01*
G37*
G36*
G01*
X45465000Y-46420626D02*
X45465000Y-47600414D01*
G75*
G02*
X45129894Y-47935520I-335106J0D01*
G01*
X44225106Y-47935520D01*
G75*
G02*
X43890000Y-47600414I0J335106D01*
G01*
X43890000Y-46420626D01*
G75*
G02*
X44225106Y-46085520I335106J0D01*
G01*
X45129894Y-46085520D01*
G75*
G02*
X45465000Y-46420626I0J-335106D01*
G01*
G37*
G36*
G01*
X56129894Y-56300520D02*
X54950106Y-56300520D01*
G75*
G02*
X54615000Y-55965414I0J335106D01*
G01*
X54615000Y-55060626D01*
G75*
G02*
X54950106Y-54725520I335106J0D01*
G01*
X56129894Y-54725520D01*
G75*
G02*
X56465000Y-55060626I0J-335106D01*
G01*
X56465000Y-55965414D01*
G75*
G02*
X56129894Y-56300520I-335106J0D01*
G01*
G37*
G36*
G01*
X56129894Y-58375520D02*
X54950106Y-58375520D01*
G75*
G02*
X54615000Y-58040414I0J335106D01*
G01*
X54615000Y-57135626D01*
G75*
G02*
X54950106Y-56800520I335106J0D01*
G01*
X56129894Y-56800520D01*
G75*
G02*
X56465000Y-57135626I0J-335106D01*
G01*
X56465000Y-58040414D01*
G75*
G02*
X56129894Y-58375520I-335106J0D01*
G01*
G37*
G36*
G01*
X50450000Y-24567188D02*
X50450000Y-23433852D01*
G75*
G02*
X50783332Y-23100520I333332J0D01*
G01*
X51716668Y-23100520D01*
G75*
G02*
X52050000Y-23433852I0J-333332D01*
G01*
X52050000Y-24567188D01*
G75*
G02*
X51716668Y-24900520I-333332J0D01*
G01*
X50783332Y-24900520D01*
G75*
G02*
X50450000Y-24567188I0J333332D01*
G01*
G37*
G36*
G01*
X48450000Y-24567188D02*
X48450000Y-23433852D01*
G75*
G02*
X48783332Y-23100520I333332J0D01*
G01*
X49716668Y-23100520D01*
G75*
G02*
X50050000Y-23433852I0J-333332D01*
G01*
X50050000Y-24567188D01*
G75*
G02*
X49716668Y-24900520I-333332J0D01*
G01*
X48783332Y-24900520D01*
G75*
G02*
X48450000Y-24567188I0J333332D01*
G01*
G37*
G36*
G01*
X31550000Y-29067188D02*
X31550000Y-27933852D01*
G75*
G02*
X31883332Y-27600520I333332J0D01*
G01*
X32816668Y-27600520D01*
G75*
G02*
X33150000Y-27933852I0J-333332D01*
G01*
X33150000Y-29067188D01*
G75*
G02*
X32816668Y-29400520I-333332J0D01*
G01*
X31883332Y-29400520D01*
G75*
G02*
X31550000Y-29067188I0J333332D01*
G01*
G37*
G36*
G01*
X29550000Y-29067188D02*
X29550000Y-27933852D01*
G75*
G02*
X29883332Y-27600520I333332J0D01*
G01*
X30816668Y-27600520D01*
G75*
G02*
X31150000Y-27933852I0J-333332D01*
G01*
X31150000Y-29067188D01*
G75*
G02*
X30816668Y-29400520I-333332J0D01*
G01*
X29883332Y-29400520D01*
G75*
G02*
X29550000Y-29067188I0J333332D01*
G01*
G37*
G36*
G01*
X41316668Y-34000520D02*
X40183332Y-34000520D01*
G75*
G02*
X39850000Y-33667188I0J333332D01*
G01*
X39850000Y-32733852D01*
G75*
G02*
X40183332Y-32400520I333332J0D01*
G01*
X41316668Y-32400520D01*
G75*
G02*
X41650000Y-32733852I0J-333332D01*
G01*
X41650000Y-33667188D01*
G75*
G02*
X41316668Y-34000520I-333332J0D01*
G01*
G37*
G36*
G01*
X41316668Y-36000520D02*
X40183332Y-36000520D01*
G75*
G02*
X39850000Y-35667188I0J333332D01*
G01*
X39850000Y-34733852D01*
G75*
G02*
X40183332Y-34400520I333332J0D01*
G01*
X41316668Y-34400520D01*
G75*
G02*
X41650000Y-34733852I0J-333332D01*
G01*
X41650000Y-35667188D01*
G75*
G02*
X41316668Y-36000520I-333332J0D01*
G01*
G37*
G36*
G01*
X41010000Y-31867188D02*
X41010000Y-30733852D01*
G75*
G02*
X41343332Y-30400520I333332J0D01*
G01*
X42276668Y-30400520D01*
G75*
G02*
X42610000Y-30733852I0J-333332D01*
G01*
X42610000Y-31867188D01*
G75*
G02*
X42276668Y-32200520I-333332J0D01*
G01*
X41343332Y-32200520D01*
G75*
G02*
X41010000Y-31867188I0J333332D01*
G01*
G37*
G36*
G01*
X39010000Y-31867188D02*
X39010000Y-30733852D01*
G75*
G02*
X39343332Y-30400520I333332J0D01*
G01*
X40276668Y-30400520D01*
G75*
G02*
X40610000Y-30733852I0J-333332D01*
G01*
X40610000Y-31867188D01*
G75*
G02*
X40276668Y-32200520I-333332J0D01*
G01*
X39343332Y-32200520D01*
G75*
G02*
X39010000Y-31867188I0J333332D01*
G01*
G37*
G36*
G01*
X43450000Y-74667188D02*
X43450000Y-73533852D01*
G75*
G02*
X43783332Y-73200520I333332J0D01*
G01*
X44716668Y-73200520D01*
G75*
G02*
X45050000Y-73533852I0J-333332D01*
G01*
X45050000Y-74667188D01*
G75*
G02*
X44716668Y-75000520I-333332J0D01*
G01*
X43783332Y-75000520D01*
G75*
G02*
X43450000Y-74667188I0J333332D01*
G01*
G37*
G36*
G01*
X41450000Y-74667188D02*
X41450000Y-73533852D01*
G75*
G02*
X41783332Y-73200520I333332J0D01*
G01*
X42716668Y-73200520D01*
G75*
G02*
X43050000Y-73533852I0J-333332D01*
G01*
X43050000Y-74667188D01*
G75*
G02*
X42716668Y-75000520I-333332J0D01*
G01*
X41783332Y-75000520D01*
G75*
G02*
X41450000Y-74667188I0J333332D01*
G01*
G37*
G36*
G01*
X31333332Y-65300520D02*
X32466668Y-65300520D01*
G75*
G02*
X32800000Y-65633852I0J-333332D01*
G01*
X32800000Y-66567188D01*
G75*
G02*
X32466668Y-66900520I-333332J0D01*
G01*
X31333332Y-66900520D01*
G75*
G02*
X31000000Y-66567188I0J333332D01*
G01*
X31000000Y-65633852D01*
G75*
G02*
X31333332Y-65300520I333332J0D01*
G01*
G37*
G36*
G01*
X31333332Y-63300520D02*
X32466668Y-63300520D01*
G75*
G02*
X32800000Y-63633852I0J-333332D01*
G01*
X32800000Y-64567188D01*
G75*
G02*
X32466668Y-64900520I-333332J0D01*
G01*
X31333332Y-64900520D01*
G75*
G02*
X31000000Y-64567188I0J333332D01*
G01*
X31000000Y-63633852D01*
G75*
G02*
X31333332Y-63300520I333332J0D01*
G01*
G37*
G36*
G01*
X32575000Y-32335521D02*
X32575000Y-31515519D01*
G75*
G02*
X32774999Y-31315520I199999J0D01*
G01*
X34575001Y-31315520D01*
G75*
G02*
X34775000Y-31515519I0J-199999D01*
G01*
X34775000Y-32335521D01*
G75*
G02*
X34575001Y-32535520I-199999J0D01*
G01*
X32774999Y-32535520D01*
G75*
G02*
X32575000Y-32335521I0J199999D01*
G01*
G37*
G36*
G01*
X32575000Y-30835521D02*
X32575000Y-30015519D01*
G75*
G02*
X32774999Y-29815520I199999J0D01*
G01*
X34575001Y-29815520D01*
G75*
G02*
X34775000Y-30015519I0J-199999D01*
G01*
X34775000Y-30835521D01*
G75*
G02*
X34575001Y-31035520I-199999J0D01*
G01*
X32774999Y-31035520D01*
G75*
G02*
X32575000Y-30835521I0J199999D01*
G01*
G37*
G36*
G01*
X27575000Y-30835521D02*
X27575000Y-30015519D01*
G75*
G02*
X27774999Y-29815520I199999J0D01*
G01*
X29575001Y-29815520D01*
G75*
G02*
X29775000Y-30015519I0J-199999D01*
G01*
X29775000Y-30835521D01*
G75*
G02*
X29575001Y-31035520I-199999J0D01*
G01*
X27774999Y-31035520D01*
G75*
G02*
X27575000Y-30835521I0J199999D01*
G01*
G37*
G36*
G01*
X27575000Y-32335521D02*
X27575000Y-31515519D01*
G75*
G02*
X27774999Y-31315520I199999J0D01*
G01*
X29575001Y-31315520D01*
G75*
G02*
X29775000Y-31515519I0J-199999D01*
G01*
X29775000Y-32335521D01*
G75*
G02*
X29575001Y-32535520I-199999J0D01*
G01*
X27774999Y-32535520D01*
G75*
G02*
X27575000Y-32335521I0J199999D01*
G01*
G37*
G36*
G01*
X50434333Y-32335521D02*
X50434333Y-31515519D01*
G75*
G02*
X50634332Y-31315520I199999J0D01*
G01*
X52434334Y-31315520D01*
G75*
G02*
X52634333Y-31515519I0J-199999D01*
G01*
X52634333Y-32335521D01*
G75*
G02*
X52434334Y-32535520I-199999J0D01*
G01*
X50634332Y-32535520D01*
G75*
G02*
X50434333Y-32335521I0J199999D01*
G01*
G37*
G36*
G01*
X50434333Y-30835521D02*
X50434333Y-30015519D01*
G75*
G02*
X50634332Y-29815520I199999J0D01*
G01*
X52434334Y-29815520D01*
G75*
G02*
X52634333Y-30015519I0J-199999D01*
G01*
X52634333Y-30835521D01*
G75*
G02*
X52434334Y-31035520I-199999J0D01*
G01*
X50634332Y-31035520D01*
G75*
G02*
X50434333Y-30835521I0J199999D01*
G01*
G37*
G36*
G01*
X45434333Y-30835521D02*
X45434333Y-30015519D01*
G75*
G02*
X45634332Y-29815520I199999J0D01*
G01*
X47434334Y-29815520D01*
G75*
G02*
X47634333Y-30015519I0J-199999D01*
G01*
X47634333Y-30835521D01*
G75*
G02*
X47434334Y-31035520I-199999J0D01*
G01*
X45634332Y-31035520D01*
G75*
G02*
X45434333Y-30835521I0J199999D01*
G01*
G37*
G36*
G01*
X45434333Y-32335521D02*
X45434333Y-31515519D01*
G75*
G02*
X45634332Y-31315520I199999J0D01*
G01*
X47434334Y-31315520D01*
G75*
G02*
X47634333Y-31515519I0J-199999D01*
G01*
X47634333Y-32335521D01*
G75*
G02*
X47434334Y-32535520I-199999J0D01*
G01*
X45634332Y-32535520D01*
G75*
G02*
X45434333Y-32335521I0J199999D01*
G01*
G37*
G36*
G01*
X68293666Y-32335521D02*
X68293666Y-31515519D01*
G75*
G02*
X68493665Y-31315520I199999J0D01*
G01*
X70293667Y-31315520D01*
G75*
G02*
X70493666Y-31515519I0J-199999D01*
G01*
X70493666Y-32335521D01*
G75*
G02*
X70293667Y-32535520I-199999J0D01*
G01*
X68493665Y-32535520D01*
G75*
G02*
X68293666Y-32335521I0J199999D01*
G01*
G37*
G36*
G01*
X68293666Y-30835521D02*
X68293666Y-30015519D01*
G75*
G02*
X68493665Y-29815520I199999J0D01*
G01*
X70293667Y-29815520D01*
G75*
G02*
X70493666Y-30015519I0J-199999D01*
G01*
X70493666Y-30835521D01*
G75*
G02*
X70293667Y-31035520I-199999J0D01*
G01*
X68493665Y-31035520D01*
G75*
G02*
X68293666Y-30835521I0J199999D01*
G01*
G37*
G36*
G01*
X63293666Y-30835521D02*
X63293666Y-30015519D01*
G75*
G02*
X63493665Y-29815520I199999J0D01*
G01*
X65293667Y-29815520D01*
G75*
G02*
X65493666Y-30015519I0J-199999D01*
G01*
X65493666Y-30835521D01*
G75*
G02*
X65293667Y-31035520I-199999J0D01*
G01*
X63493665Y-31035520D01*
G75*
G02*
X63293666Y-30835521I0J199999D01*
G01*
G37*
G36*
G01*
X63293666Y-32335521D02*
X63293666Y-31515519D01*
G75*
G02*
X63493665Y-31315520I199999J0D01*
G01*
X65293667Y-31315520D01*
G75*
G02*
X65493666Y-31515519I0J-199999D01*
G01*
X65493666Y-32335521D01*
G75*
G02*
X65293667Y-32535520I-199999J0D01*
G01*
X63493665Y-32535520D01*
G75*
G02*
X63293666Y-32335521I0J199999D01*
G01*
G37*
G36*
G01*
X86152999Y-32335521D02*
X86152999Y-31515519D01*
G75*
G02*
X86352998Y-31315520I199999J0D01*
G01*
X88153000Y-31315520D01*
G75*
G02*
X88352999Y-31515519I0J-199999D01*
G01*
X88352999Y-32335521D01*
G75*
G02*
X88153000Y-32535520I-199999J0D01*
G01*
X86352998Y-32535520D01*
G75*
G02*
X86152999Y-32335521I0J199999D01*
G01*
G37*
G36*
G01*
X86152999Y-30835521D02*
X86152999Y-30015519D01*
G75*
G02*
X86352998Y-29815520I199999J0D01*
G01*
X88153000Y-29815520D01*
G75*
G02*
X88352999Y-30015519I0J-199999D01*
G01*
X88352999Y-30835521D01*
G75*
G02*
X88153000Y-31035520I-199999J0D01*
G01*
X86352998Y-31035520D01*
G75*
G02*
X86152999Y-30835521I0J199999D01*
G01*
G37*
G36*
G01*
X81152999Y-30835521D02*
X81152999Y-30015519D01*
G75*
G02*
X81352998Y-29815520I199999J0D01*
G01*
X83153000Y-29815520D01*
G75*
G02*
X83352999Y-30015519I0J-199999D01*
G01*
X83352999Y-30835521D01*
G75*
G02*
X83153000Y-31035520I-199999J0D01*
G01*
X81352998Y-31035520D01*
G75*
G02*
X81152999Y-30835521I0J199999D01*
G01*
G37*
G36*
G01*
X81152999Y-32335521D02*
X81152999Y-31515519D01*
G75*
G02*
X81352998Y-31315520I199999J0D01*
G01*
X83153000Y-31315520D01*
G75*
G02*
X83352999Y-31515519I0J-199999D01*
G01*
X83352999Y-32335521D01*
G75*
G02*
X83153000Y-32535520I-199999J0D01*
G01*
X81352998Y-32535520D01*
G75*
G02*
X81152999Y-32335521I0J199999D01*
G01*
G37*
G36*
G01*
X104012332Y-32335521D02*
X104012332Y-31515519D01*
G75*
G02*
X104212331Y-31315520I199999J0D01*
G01*
X106012333Y-31315520D01*
G75*
G02*
X106212332Y-31515519I0J-199999D01*
G01*
X106212332Y-32335521D01*
G75*
G02*
X106012333Y-32535520I-199999J0D01*
G01*
X104212331Y-32535520D01*
G75*
G02*
X104012332Y-32335521I0J199999D01*
G01*
G37*
G36*
G01*
X104012332Y-30835521D02*
X104012332Y-30015519D01*
G75*
G02*
X104212331Y-29815520I199999J0D01*
G01*
X106012333Y-29815520D01*
G75*
G02*
X106212332Y-30015519I0J-199999D01*
G01*
X106212332Y-30835521D01*
G75*
G02*
X106012333Y-31035520I-199999J0D01*
G01*
X104212331Y-31035520D01*
G75*
G02*
X104012332Y-30835521I0J199999D01*
G01*
G37*
G36*
G01*
X99012332Y-30835521D02*
X99012332Y-30015519D01*
G75*
G02*
X99212331Y-29815520I199999J0D01*
G01*
X101012333Y-29815520D01*
G75*
G02*
X101212332Y-30015519I0J-199999D01*
G01*
X101212332Y-30835521D01*
G75*
G02*
X101012333Y-31035520I-199999J0D01*
G01*
X99212331Y-31035520D01*
G75*
G02*
X99012332Y-30835521I0J199999D01*
G01*
G37*
G36*
G01*
X99012332Y-32335521D02*
X99012332Y-31515519D01*
G75*
G02*
X99212331Y-31315520I199999J0D01*
G01*
X101012333Y-31315520D01*
G75*
G02*
X101212332Y-31515519I0J-199999D01*
G01*
X101212332Y-32335521D01*
G75*
G02*
X101012333Y-32535520I-199999J0D01*
G01*
X99212331Y-32535520D01*
G75*
G02*
X99012332Y-32335521I0J199999D01*
G01*
G37*
G36*
G01*
X121871665Y-32335521D02*
X121871665Y-31515519D01*
G75*
G02*
X122071664Y-31315520I199999J0D01*
G01*
X123871666Y-31315520D01*
G75*
G02*
X124071665Y-31515519I0J-199999D01*
G01*
X124071665Y-32335521D01*
G75*
G02*
X123871666Y-32535520I-199999J0D01*
G01*
X122071664Y-32535520D01*
G75*
G02*
X121871665Y-32335521I0J199999D01*
G01*
G37*
G36*
G01*
X121871665Y-30835521D02*
X121871665Y-30015519D01*
G75*
G02*
X122071664Y-29815520I199999J0D01*
G01*
X123871666Y-29815520D01*
G75*
G02*
X124071665Y-30015519I0J-199999D01*
G01*
X124071665Y-30835521D01*
G75*
G02*
X123871666Y-31035520I-199999J0D01*
G01*
X122071664Y-31035520D01*
G75*
G02*
X121871665Y-30835521I0J199999D01*
G01*
G37*
G36*
G01*
X116871665Y-30835521D02*
X116871665Y-30015519D01*
G75*
G02*
X117071664Y-29815520I199999J0D01*
G01*
X118871666Y-29815520D01*
G75*
G02*
X119071665Y-30015519I0J-199999D01*
G01*
X119071665Y-30835521D01*
G75*
G02*
X118871666Y-31035520I-199999J0D01*
G01*
X117071664Y-31035520D01*
G75*
G02*
X116871665Y-30835521I0J199999D01*
G01*
G37*
G36*
G01*
X116871665Y-32335521D02*
X116871665Y-31515519D01*
G75*
G02*
X117071664Y-31315520I199999J0D01*
G01*
X118871666Y-31315520D01*
G75*
G02*
X119071665Y-31515519I0J-199999D01*
G01*
X119071665Y-32335521D01*
G75*
G02*
X118871666Y-32535520I-199999J0D01*
G01*
X117071664Y-32535520D01*
G75*
G02*
X116871665Y-32335521I0J199999D01*
G01*
G37*
G36*
G01*
X139730998Y-32335521D02*
X139730998Y-31515519D01*
G75*
G02*
X139930997Y-31315520I199999J0D01*
G01*
X141730999Y-31315520D01*
G75*
G02*
X141930998Y-31515519I0J-199999D01*
G01*
X141930998Y-32335521D01*
G75*
G02*
X141730999Y-32535520I-199999J0D01*
G01*
X139930997Y-32535520D01*
G75*
G02*
X139730998Y-32335521I0J199999D01*
G01*
G37*
G36*
G01*
X139730998Y-30835521D02*
X139730998Y-30015519D01*
G75*
G02*
X139930997Y-29815520I199999J0D01*
G01*
X141730999Y-29815520D01*
G75*
G02*
X141930998Y-30015519I0J-199999D01*
G01*
X141930998Y-30835521D01*
G75*
G02*
X141730999Y-31035520I-199999J0D01*
G01*
X139930997Y-31035520D01*
G75*
G02*
X139730998Y-30835521I0J199999D01*
G01*
G37*
G36*
G01*
X134730998Y-30835521D02*
X134730998Y-30015519D01*
G75*
G02*
X134930997Y-29815520I199999J0D01*
G01*
X136730999Y-29815520D01*
G75*
G02*
X136930998Y-30015519I0J-199999D01*
G01*
X136930998Y-30835521D01*
G75*
G02*
X136730999Y-31035520I-199999J0D01*
G01*
X134930997Y-31035520D01*
G75*
G02*
X134730998Y-30835521I0J199999D01*
G01*
G37*
G36*
G01*
X134730998Y-32335521D02*
X134730998Y-31515519D01*
G75*
G02*
X134930997Y-31315520I199999J0D01*
G01*
X136730999Y-31315520D01*
G75*
G02*
X136930998Y-31515519I0J-199999D01*
G01*
X136930998Y-32335521D01*
G75*
G02*
X136730999Y-32535520I-199999J0D01*
G01*
X134930997Y-32535520D01*
G75*
G02*
X134730998Y-32335521I0J199999D01*
G01*
G37*
G36*
G01*
X157590331Y-32335521D02*
X157590331Y-31515519D01*
G75*
G02*
X157790330Y-31315520I199999J0D01*
G01*
X159590332Y-31315520D01*
G75*
G02*
X159790331Y-31515519I0J-199999D01*
G01*
X159790331Y-32335521D01*
G75*
G02*
X159590332Y-32535520I-199999J0D01*
G01*
X157790330Y-32535520D01*
G75*
G02*
X157590331Y-32335521I0J199999D01*
G01*
G37*
G36*
G01*
X157590331Y-30835521D02*
X157590331Y-30015519D01*
G75*
G02*
X157790330Y-29815520I199999J0D01*
G01*
X159590332Y-29815520D01*
G75*
G02*
X159790331Y-30015519I0J-199999D01*
G01*
X159790331Y-30835521D01*
G75*
G02*
X159590332Y-31035520I-199999J0D01*
G01*
X157790330Y-31035520D01*
G75*
G02*
X157590331Y-30835521I0J199999D01*
G01*
G37*
G36*
G01*
X152590331Y-30835521D02*
X152590331Y-30015519D01*
G75*
G02*
X152790330Y-29815520I199999J0D01*
G01*
X154590332Y-29815520D01*
G75*
G02*
X154790331Y-30015519I0J-199999D01*
G01*
X154790331Y-30835521D01*
G75*
G02*
X154590332Y-31035520I-199999J0D01*
G01*
X152790330Y-31035520D01*
G75*
G02*
X152590331Y-30835521I0J199999D01*
G01*
G37*
G36*
G01*
X152590331Y-32335521D02*
X152590331Y-31515519D01*
G75*
G02*
X152790330Y-31315520I199999J0D01*
G01*
X154590332Y-31315520D01*
G75*
G02*
X154790331Y-31515519I0J-199999D01*
G01*
X154790331Y-32335521D01*
G75*
G02*
X154590332Y-32535520I-199999J0D01*
G01*
X152790330Y-32535520D01*
G75*
G02*
X152590331Y-32335521I0J199999D01*
G01*
G37*
G36*
G01*
X175449664Y-32335521D02*
X175449664Y-31515519D01*
G75*
G02*
X175649663Y-31315520I199999J0D01*
G01*
X177449665Y-31315520D01*
G75*
G02*
X177649664Y-31515519I0J-199999D01*
G01*
X177649664Y-32335521D01*
G75*
G02*
X177449665Y-32535520I-199999J0D01*
G01*
X175649663Y-32535520D01*
G75*
G02*
X175449664Y-32335521I0J199999D01*
G01*
G37*
G36*
G01*
X175449664Y-30835521D02*
X175449664Y-30015519D01*
G75*
G02*
X175649663Y-29815520I199999J0D01*
G01*
X177449665Y-29815520D01*
G75*
G02*
X177649664Y-30015519I0J-199999D01*
G01*
X177649664Y-30835521D01*
G75*
G02*
X177449665Y-31035520I-199999J0D01*
G01*
X175649663Y-31035520D01*
G75*
G02*
X175449664Y-30835521I0J199999D01*
G01*
G37*
G36*
G01*
X170449664Y-30835521D02*
X170449664Y-30015519D01*
G75*
G02*
X170649663Y-29815520I199999J0D01*
G01*
X172449665Y-29815520D01*
G75*
G02*
X172649664Y-30015519I0J-199999D01*
G01*
X172649664Y-30835521D01*
G75*
G02*
X172449665Y-31035520I-199999J0D01*
G01*
X170649663Y-31035520D01*
G75*
G02*
X170449664Y-30835521I0J199999D01*
G01*
G37*
G36*
G01*
X170449664Y-32335521D02*
X170449664Y-31515519D01*
G75*
G02*
X170649663Y-31315520I199999J0D01*
G01*
X172449665Y-31315520D01*
G75*
G02*
X172649664Y-31515519I0J-199999D01*
G01*
X172649664Y-32335521D01*
G75*
G02*
X172449665Y-32535520I-199999J0D01*
G01*
X170649663Y-32535520D01*
G75*
G02*
X170449664Y-32335521I0J199999D01*
G01*
G37*
G36*
G01*
X193308997Y-32335521D02*
X193308997Y-31515519D01*
G75*
G02*
X193508996Y-31315520I199999J0D01*
G01*
X195308998Y-31315520D01*
G75*
G02*
X195508997Y-31515519I0J-199999D01*
G01*
X195508997Y-32335521D01*
G75*
G02*
X195308998Y-32535520I-199999J0D01*
G01*
X193508996Y-32535520D01*
G75*
G02*
X193308997Y-32335521I0J199999D01*
G01*
G37*
G36*
G01*
X193308997Y-30835521D02*
X193308997Y-30015519D01*
G75*
G02*
X193508996Y-29815520I199999J0D01*
G01*
X195308998Y-29815520D01*
G75*
G02*
X195508997Y-30015519I0J-199999D01*
G01*
X195508997Y-30835521D01*
G75*
G02*
X195308998Y-31035520I-199999J0D01*
G01*
X193508996Y-31035520D01*
G75*
G02*
X193308997Y-30835521I0J199999D01*
G01*
G37*
G36*
G01*
X188308997Y-30835521D02*
X188308997Y-30015519D01*
G75*
G02*
X188508996Y-29815520I199999J0D01*
G01*
X190308998Y-29815520D01*
G75*
G02*
X190508997Y-30015519I0J-199999D01*
G01*
X190508997Y-30835521D01*
G75*
G02*
X190308998Y-31035520I-199999J0D01*
G01*
X188508996Y-31035520D01*
G75*
G02*
X188308997Y-30835521I0J199999D01*
G01*
G37*
G36*
G01*
X188308997Y-32335521D02*
X188308997Y-31515519D01*
G75*
G02*
X188508996Y-31315520I199999J0D01*
G01*
X190308998Y-31315520D01*
G75*
G02*
X190508997Y-31515519I0J-199999D01*
G01*
X190508997Y-32335521D01*
G75*
G02*
X190308998Y-32535520I-199999J0D01*
G01*
X188508996Y-32535520D01*
G75*
G02*
X188308997Y-32335521I0J199999D01*
G01*
G37*
G36*
G01*
X211168330Y-32335521D02*
X211168330Y-31515519D01*
G75*
G02*
X211368329Y-31315520I199999J0D01*
G01*
X213168331Y-31315520D01*
G75*
G02*
X213368330Y-31515519I0J-199999D01*
G01*
X213368330Y-32335521D01*
G75*
G02*
X213168331Y-32535520I-199999J0D01*
G01*
X211368329Y-32535520D01*
G75*
G02*
X211168330Y-32335521I0J199999D01*
G01*
G37*
G36*
G01*
X211168330Y-30835521D02*
X211168330Y-30015519D01*
G75*
G02*
X211368329Y-29815520I199999J0D01*
G01*
X213168331Y-29815520D01*
G75*
G02*
X213368330Y-30015519I0J-199999D01*
G01*
X213368330Y-30835521D01*
G75*
G02*
X213168331Y-31035520I-199999J0D01*
G01*
X211368329Y-31035520D01*
G75*
G02*
X211168330Y-30835521I0J199999D01*
G01*
G37*
G36*
G01*
X206168330Y-30835521D02*
X206168330Y-30015519D01*
G75*
G02*
X206368329Y-29815520I199999J0D01*
G01*
X208168331Y-29815520D01*
G75*
G02*
X208368330Y-30015519I0J-199999D01*
G01*
X208368330Y-30835521D01*
G75*
G02*
X208168331Y-31035520I-199999J0D01*
G01*
X206368329Y-31035520D01*
G75*
G02*
X206168330Y-30835521I0J199999D01*
G01*
G37*
G36*
G01*
X206168330Y-32335521D02*
X206168330Y-31515519D01*
G75*
G02*
X206368329Y-31315520I199999J0D01*
G01*
X208168331Y-31315520D01*
G75*
G02*
X208368330Y-31515519I0J-199999D01*
G01*
X208368330Y-32335521D01*
G75*
G02*
X208168331Y-32535520I-199999J0D01*
G01*
X206368329Y-32535520D01*
G75*
G02*
X206168330Y-32335521I0J199999D01*
G01*
G37*
G36*
G01*
X229027663Y-32335521D02*
X229027663Y-31515519D01*
G75*
G02*
X229227662Y-31315520I199999J0D01*
G01*
X231027664Y-31315520D01*
G75*
G02*
X231227663Y-31515519I0J-199999D01*
G01*
X231227663Y-32335521D01*
G75*
G02*
X231027664Y-32535520I-199999J0D01*
G01*
X229227662Y-32535520D01*
G75*
G02*
X229027663Y-32335521I0J199999D01*
G01*
G37*
G36*
G01*
X229027663Y-30835521D02*
X229027663Y-30015519D01*
G75*
G02*
X229227662Y-29815520I199999J0D01*
G01*
X231027664Y-29815520D01*
G75*
G02*
X231227663Y-30015519I0J-199999D01*
G01*
X231227663Y-30835521D01*
G75*
G02*
X231027664Y-31035520I-199999J0D01*
G01*
X229227662Y-31035520D01*
G75*
G02*
X229027663Y-30835521I0J199999D01*
G01*
G37*
G36*
G01*
X224027663Y-30835521D02*
X224027663Y-30015519D01*
G75*
G02*
X224227662Y-29815520I199999J0D01*
G01*
X226027664Y-29815520D01*
G75*
G02*
X226227663Y-30015519I0J-199999D01*
G01*
X226227663Y-30835521D01*
G75*
G02*
X226027664Y-31035520I-199999J0D01*
G01*
X224227662Y-31035520D01*
G75*
G02*
X224027663Y-30835521I0J199999D01*
G01*
G37*
G36*
G01*
X224027663Y-32335521D02*
X224027663Y-31515519D01*
G75*
G02*
X224227662Y-31315520I199999J0D01*
G01*
X226027664Y-31315520D01*
G75*
G02*
X226227663Y-31515519I0J-199999D01*
G01*
X226227663Y-32335521D01*
G75*
G02*
X226027664Y-32535520I-199999J0D01*
G01*
X224227662Y-32535520D01*
G75*
G02*
X224027663Y-32335521I0J199999D01*
G01*
G37*
G36*
G01*
X246886996Y-32335521D02*
X246886996Y-31515519D01*
G75*
G02*
X247086995Y-31315520I199999J0D01*
G01*
X248886997Y-31315520D01*
G75*
G02*
X249086996Y-31515519I0J-199999D01*
G01*
X249086996Y-32335521D01*
G75*
G02*
X248886997Y-32535520I-199999J0D01*
G01*
X247086995Y-32535520D01*
G75*
G02*
X246886996Y-32335521I0J199999D01*
G01*
G37*
G36*
G01*
X246886996Y-30835521D02*
X246886996Y-30015519D01*
G75*
G02*
X247086995Y-29815520I199999J0D01*
G01*
X248886997Y-29815520D01*
G75*
G02*
X249086996Y-30015519I0J-199999D01*
G01*
X249086996Y-30835521D01*
G75*
G02*
X248886997Y-31035520I-199999J0D01*
G01*
X247086995Y-31035520D01*
G75*
G02*
X246886996Y-30835521I0J199999D01*
G01*
G37*
G36*
G01*
X241886996Y-30835521D02*
X241886996Y-30015519D01*
G75*
G02*
X242086995Y-29815520I199999J0D01*
G01*
X243886997Y-29815520D01*
G75*
G02*
X244086996Y-30015519I0J-199999D01*
G01*
X244086996Y-30835521D01*
G75*
G02*
X243886997Y-31035520I-199999J0D01*
G01*
X242086995Y-31035520D01*
G75*
G02*
X241886996Y-30835521I0J199999D01*
G01*
G37*
G36*
G01*
X241886996Y-32335521D02*
X241886996Y-31515519D01*
G75*
G02*
X242086995Y-31315520I199999J0D01*
G01*
X243886997Y-31315520D01*
G75*
G02*
X244086996Y-31515519I0J-199999D01*
G01*
X244086996Y-32335521D01*
G75*
G02*
X243886997Y-32535520I-199999J0D01*
G01*
X242086995Y-32535520D01*
G75*
G02*
X241886996Y-32335521I0J199999D01*
G01*
G37*
G36*
G01*
X264746329Y-32335521D02*
X264746329Y-31515519D01*
G75*
G02*
X264946328Y-31315520I199999J0D01*
G01*
X266746330Y-31315520D01*
G75*
G02*
X266946329Y-31515519I0J-199999D01*
G01*
X266946329Y-32335521D01*
G75*
G02*
X266746330Y-32535520I-199999J0D01*
G01*
X264946328Y-32535520D01*
G75*
G02*
X264746329Y-32335521I0J199999D01*
G01*
G37*
G36*
G01*
X264746329Y-30835521D02*
X264746329Y-30015519D01*
G75*
G02*
X264946328Y-29815520I199999J0D01*
G01*
X266746330Y-29815520D01*
G75*
G02*
X266946329Y-30015519I0J-199999D01*
G01*
X266946329Y-30835521D01*
G75*
G02*
X266746330Y-31035520I-199999J0D01*
G01*
X264946328Y-31035520D01*
G75*
G02*
X264746329Y-30835521I0J199999D01*
G01*
G37*
G36*
G01*
X259746329Y-30835521D02*
X259746329Y-30015519D01*
G75*
G02*
X259946328Y-29815520I199999J0D01*
G01*
X261746330Y-29815520D01*
G75*
G02*
X261946329Y-30015519I0J-199999D01*
G01*
X261946329Y-30835521D01*
G75*
G02*
X261746330Y-31035520I-199999J0D01*
G01*
X259946328Y-31035520D01*
G75*
G02*
X259746329Y-30835521I0J199999D01*
G01*
G37*
G36*
G01*
X259746329Y-32335521D02*
X259746329Y-31515519D01*
G75*
G02*
X259946328Y-31315520I199999J0D01*
G01*
X261746330Y-31315520D01*
G75*
G02*
X261946329Y-31515519I0J-199999D01*
G01*
X261946329Y-32335521D01*
G75*
G02*
X261746330Y-32535520I-199999J0D01*
G01*
X259946328Y-32535520D01*
G75*
G02*
X259746329Y-32335521I0J199999D01*
G01*
G37*
G36*
G01*
X282605662Y-32335521D02*
X282605662Y-31515519D01*
G75*
G02*
X282805661Y-31315520I199999J0D01*
G01*
X284605663Y-31315520D01*
G75*
G02*
X284805662Y-31515519I0J-199999D01*
G01*
X284805662Y-32335521D01*
G75*
G02*
X284605663Y-32535520I-199999J0D01*
G01*
X282805661Y-32535520D01*
G75*
G02*
X282605662Y-32335521I0J199999D01*
G01*
G37*
G36*
G01*
X282605662Y-30835521D02*
X282605662Y-30015519D01*
G75*
G02*
X282805661Y-29815520I199999J0D01*
G01*
X284605663Y-29815520D01*
G75*
G02*
X284805662Y-30015519I0J-199999D01*
G01*
X284805662Y-30835521D01*
G75*
G02*
X284605663Y-31035520I-199999J0D01*
G01*
X282805661Y-31035520D01*
G75*
G02*
X282605662Y-30835521I0J199999D01*
G01*
G37*
G36*
G01*
X277605662Y-30835521D02*
X277605662Y-30015519D01*
G75*
G02*
X277805661Y-29815520I199999J0D01*
G01*
X279605663Y-29815520D01*
G75*
G02*
X279805662Y-30015519I0J-199999D01*
G01*
X279805662Y-30835521D01*
G75*
G02*
X279605663Y-31035520I-199999J0D01*
G01*
X277805661Y-31035520D01*
G75*
G02*
X277605662Y-30835521I0J199999D01*
G01*
G37*
G36*
G01*
X277605662Y-32335521D02*
X277605662Y-31515519D01*
G75*
G02*
X277805661Y-31315520I199999J0D01*
G01*
X279605663Y-31315520D01*
G75*
G02*
X279805662Y-31515519I0J-199999D01*
G01*
X279805662Y-32335521D01*
G75*
G02*
X279605663Y-32535520I-199999J0D01*
G01*
X277805661Y-32535520D01*
G75*
G02*
X277605662Y-32335521I0J199999D01*
G01*
G37*
G36*
G01*
X300465000Y-32335521D02*
X300465000Y-31515519D01*
G75*
G02*
X300664999Y-31315520I199999J0D01*
G01*
X302465001Y-31315520D01*
G75*
G02*
X302665000Y-31515519I0J-199999D01*
G01*
X302665000Y-32335521D01*
G75*
G02*
X302465001Y-32535520I-199999J0D01*
G01*
X300664999Y-32535520D01*
G75*
G02*
X300465000Y-32335521I0J199999D01*
G01*
G37*
G36*
G01*
X300465000Y-30835521D02*
X300465000Y-30015519D01*
G75*
G02*
X300664999Y-29815520I199999J0D01*
G01*
X302465001Y-29815520D01*
G75*
G02*
X302665000Y-30015519I0J-199999D01*
G01*
X302665000Y-30835521D01*
G75*
G02*
X302465001Y-31035520I-199999J0D01*
G01*
X300664999Y-31035520D01*
G75*
G02*
X300465000Y-30835521I0J199999D01*
G01*
G37*
G36*
G01*
X295465000Y-30835521D02*
X295465000Y-30015519D01*
G75*
G02*
X295664999Y-29815520I199999J0D01*
G01*
X297465001Y-29815520D01*
G75*
G02*
X297665000Y-30015519I0J-199999D01*
G01*
X297665000Y-30835521D01*
G75*
G02*
X297465001Y-31035520I-199999J0D01*
G01*
X295664999Y-31035520D01*
G75*
G02*
X295465000Y-30835521I0J199999D01*
G01*
G37*
G36*
G01*
X295465000Y-32335521D02*
X295465000Y-31515519D01*
G75*
G02*
X295664999Y-31315520I199999J0D01*
G01*
X297465001Y-31315520D01*
G75*
G02*
X297665000Y-31515519I0J-199999D01*
G01*
X297665000Y-32335521D01*
G75*
G02*
X297465001Y-32535520I-199999J0D01*
G01*
X295664999Y-32535520D01*
G75*
G02*
X295465000Y-32335521I0J199999D01*
G01*
G37*
D20*
X304550000Y-38500520D03*
X304550000Y-55500520D03*
X304550000Y-63325520D03*
X304550000Y-89300520D03*
X304550000Y-106400520D03*
X304550000Y-41100520D03*
X304550000Y-58100520D03*
X304550000Y-72675520D03*
X304550000Y-91900520D03*
X304550000Y-109000520D03*
D13*
X35644516Y-69875520D03*
D16*
X35644516Y-75775520D03*
X30644516Y-73675520D03*
D11*
X30144516Y-69875520D03*
X41144516Y-69875520D03*
D25*
G36*
X51756096Y-96426122D02*
G01*
X51774518Y-96426122D01*
X51794124Y-96427085D01*
X51842955Y-96431895D01*
X51862364Y-96434774D01*
X51910489Y-96444346D01*
X51929532Y-96449116D01*
X51976487Y-96463360D01*
X51994964Y-96469971D01*
X52040297Y-96488748D01*
X52058045Y-96497143D01*
X52101318Y-96520274D01*
X52118146Y-96530360D01*
X52158945Y-96557620D01*
X52174714Y-96569315D01*
X52212643Y-96600443D01*
X52227184Y-96613623D01*
X52261881Y-96648320D01*
X52275061Y-96662861D01*
X52306189Y-96700790D01*
X52317884Y-96716559D01*
X52345144Y-96757358D01*
X52355230Y-96774186D01*
X52378361Y-96817459D01*
X52386756Y-96835207D01*
X52405533Y-96880540D01*
X52412144Y-96899017D01*
X52426388Y-96945972D01*
X52431158Y-96965015D01*
X52440730Y-97013140D01*
X52443609Y-97032549D01*
X52448419Y-97081380D01*
X52449382Y-97100986D01*
X52449382Y-97119408D01*
X52449984Y-97125520D01*
X52449984Y-97625520D01*
X52449382Y-97631632D01*
X52449382Y-97650054D01*
X52448419Y-97669660D01*
X52443609Y-97718491D01*
X52440730Y-97737900D01*
X52431158Y-97786025D01*
X52426388Y-97805068D01*
X52412144Y-97852023D01*
X52405533Y-97870500D01*
X52386756Y-97915833D01*
X52378361Y-97933581D01*
X52355230Y-97976854D01*
X52345144Y-97993682D01*
X52317884Y-98034481D01*
X52306189Y-98050250D01*
X52275061Y-98088179D01*
X52261881Y-98102720D01*
X52227184Y-98137417D01*
X52212643Y-98150597D01*
X52174714Y-98181725D01*
X52158945Y-98193420D01*
X52118146Y-98220680D01*
X52101318Y-98230766D01*
X52058045Y-98253897D01*
X52040297Y-98262292D01*
X51994964Y-98281069D01*
X51976487Y-98287680D01*
X51929532Y-98301924D01*
X51910489Y-98306694D01*
X51862364Y-98316266D01*
X51842955Y-98319145D01*
X51794124Y-98323955D01*
X51774518Y-98324918D01*
X51756096Y-98324918D01*
X51749984Y-98325520D01*
X51249984Y-98325520D01*
X51210966Y-98321677D01*
X51173447Y-98310296D01*
X51138870Y-98291814D01*
X51108563Y-98266941D01*
X51083690Y-98236634D01*
X51065208Y-98202057D01*
X51053827Y-98164538D01*
X51049984Y-98125520D01*
X51049984Y-96625520D01*
X51053827Y-96586502D01*
X51065208Y-96548983D01*
X51083690Y-96514406D01*
X51108563Y-96484099D01*
X51138870Y-96459226D01*
X51173447Y-96440744D01*
X51210966Y-96429363D01*
X51249984Y-96425520D01*
X51749984Y-96425520D01*
X51756096Y-96426122D01*
G37*
G36*
X50989002Y-96429363D02*
G01*
X51026521Y-96440744D01*
X51061098Y-96459226D01*
X51091405Y-96484099D01*
X51116278Y-96514406D01*
X51134760Y-96548983D01*
X51146141Y-96586502D01*
X51149984Y-96625520D01*
X51149984Y-98125520D01*
X51146141Y-98164538D01*
X51134760Y-98202057D01*
X51116278Y-98236634D01*
X51091405Y-98266941D01*
X51061098Y-98291814D01*
X51026521Y-98310296D01*
X50989002Y-98321677D01*
X50949984Y-98325520D01*
X50449984Y-98325520D01*
X50443872Y-98324918D01*
X50425450Y-98324918D01*
X50405844Y-98323955D01*
X50357013Y-98319145D01*
X50337604Y-98316266D01*
X50289479Y-98306694D01*
X50270436Y-98301924D01*
X50223481Y-98287680D01*
X50205004Y-98281069D01*
X50159671Y-98262292D01*
X50141923Y-98253897D01*
X50098650Y-98230766D01*
X50081822Y-98220680D01*
X50041023Y-98193420D01*
X50025254Y-98181725D01*
X49987325Y-98150597D01*
X49972784Y-98137417D01*
X49938087Y-98102720D01*
X49924907Y-98088179D01*
X49893779Y-98050250D01*
X49882084Y-98034481D01*
X49854824Y-97993682D01*
X49844738Y-97976854D01*
X49821607Y-97933581D01*
X49813212Y-97915833D01*
X49794435Y-97870500D01*
X49787824Y-97852023D01*
X49773580Y-97805068D01*
X49768810Y-97786025D01*
X49759238Y-97737900D01*
X49756359Y-97718491D01*
X49751549Y-97669660D01*
X49750586Y-97650054D01*
X49750586Y-97631632D01*
X49749984Y-97625520D01*
X49749984Y-97125520D01*
X49750586Y-97119408D01*
X49750586Y-97100986D01*
X49751549Y-97081380D01*
X49756359Y-97032549D01*
X49759238Y-97013140D01*
X49768810Y-96965015D01*
X49773580Y-96945972D01*
X49787824Y-96899017D01*
X49794435Y-96880540D01*
X49813212Y-96835207D01*
X49821607Y-96817459D01*
X49844738Y-96774186D01*
X49854824Y-96757358D01*
X49882084Y-96716559D01*
X49893779Y-96700790D01*
X49924907Y-96662861D01*
X49938087Y-96648320D01*
X49972784Y-96613623D01*
X49987325Y-96600443D01*
X50025254Y-96569315D01*
X50041023Y-96557620D01*
X50081822Y-96530360D01*
X50098650Y-96520274D01*
X50141923Y-96497143D01*
X50159671Y-96488748D01*
X50205004Y-96469971D01*
X50223481Y-96463360D01*
X50270436Y-96449116D01*
X50289479Y-96444346D01*
X50337604Y-96434774D01*
X50357013Y-96431895D01*
X50405844Y-96427085D01*
X50425450Y-96426122D01*
X50443872Y-96426122D01*
X50449984Y-96425520D01*
X50949984Y-96425520D01*
X50989002Y-96429363D01*
G37*
G36*
X54660966Y-98321677D02*
G01*
X54623447Y-98310296D01*
X54588870Y-98291814D01*
X54558563Y-98266941D01*
X54533690Y-98236634D01*
X54515208Y-98202057D01*
X54503827Y-98164538D01*
X54499984Y-98125520D01*
X54499984Y-96625520D01*
X54503827Y-96586502D01*
X54515208Y-96548983D01*
X54533690Y-96514406D01*
X54558563Y-96484099D01*
X54588870Y-96459226D01*
X54623447Y-96440744D01*
X54660966Y-96429363D01*
X54699984Y-96425520D01*
X55199984Y-96425520D01*
X55206096Y-96426122D01*
X55224518Y-96426122D01*
X55244124Y-96427085D01*
X55292955Y-96431895D01*
X55312364Y-96434774D01*
X55360489Y-96444346D01*
X55379532Y-96449116D01*
X55426487Y-96463360D01*
X55444964Y-96469971D01*
X55490297Y-96488748D01*
X55508045Y-96497143D01*
X55551318Y-96520274D01*
X55568146Y-96530360D01*
X55608945Y-96557620D01*
X55624714Y-96569315D01*
X55662643Y-96600443D01*
X55677184Y-96613623D01*
X55711881Y-96648320D01*
X55725061Y-96662861D01*
X55756189Y-96700790D01*
X55767884Y-96716559D01*
X55795144Y-96757358D01*
X55805230Y-96774186D01*
X55828361Y-96817459D01*
X55836756Y-96835207D01*
X55855533Y-96880540D01*
X55862144Y-96899017D01*
X55876388Y-96945972D01*
X55881158Y-96965015D01*
X55890730Y-97013140D01*
X55893609Y-97032549D01*
X55898419Y-97081380D01*
X55899382Y-97100986D01*
X55899382Y-97119408D01*
X55899984Y-97125520D01*
X55899984Y-97625520D01*
X55899382Y-97631632D01*
X55899382Y-97650054D01*
X55898419Y-97669660D01*
X55893609Y-97718491D01*
X55890730Y-97737900D01*
X55881158Y-97786025D01*
X55876388Y-97805068D01*
X55862144Y-97852023D01*
X55855533Y-97870500D01*
X55836756Y-97915833D01*
X55828361Y-97933581D01*
X55805230Y-97976854D01*
X55795144Y-97993682D01*
X55767884Y-98034481D01*
X55756189Y-98050250D01*
X55725061Y-98088179D01*
X55711881Y-98102720D01*
X55677184Y-98137417D01*
X55662643Y-98150597D01*
X55624714Y-98181725D01*
X55608945Y-98193420D01*
X55568146Y-98220680D01*
X55551318Y-98230766D01*
X55508045Y-98253897D01*
X55490297Y-98262292D01*
X55444964Y-98281069D01*
X55426487Y-98287680D01*
X55379532Y-98301924D01*
X55360489Y-98306694D01*
X55312364Y-98316266D01*
X55292955Y-98319145D01*
X55244124Y-98323955D01*
X55224518Y-98324918D01*
X55206096Y-98324918D01*
X55199984Y-98325520D01*
X54699984Y-98325520D01*
X54660966Y-98321677D01*
G37*
G36*
X53893872Y-98324918D02*
G01*
X53875450Y-98324918D01*
X53855844Y-98323955D01*
X53807013Y-98319145D01*
X53787604Y-98316266D01*
X53739479Y-98306694D01*
X53720436Y-98301924D01*
X53673481Y-98287680D01*
X53655004Y-98281069D01*
X53609671Y-98262292D01*
X53591923Y-98253897D01*
X53548650Y-98230766D01*
X53531822Y-98220680D01*
X53491023Y-98193420D01*
X53475254Y-98181725D01*
X53437325Y-98150597D01*
X53422784Y-98137417D01*
X53388087Y-98102720D01*
X53374907Y-98088179D01*
X53343779Y-98050250D01*
X53332084Y-98034481D01*
X53304824Y-97993682D01*
X53294738Y-97976854D01*
X53271607Y-97933581D01*
X53263212Y-97915833D01*
X53244435Y-97870500D01*
X53237824Y-97852023D01*
X53223580Y-97805068D01*
X53218810Y-97786025D01*
X53209238Y-97737900D01*
X53206359Y-97718491D01*
X53201549Y-97669660D01*
X53200586Y-97650054D01*
X53200586Y-97631632D01*
X53199984Y-97625520D01*
X53199984Y-97125520D01*
X53200586Y-97119408D01*
X53200586Y-97100986D01*
X53201549Y-97081380D01*
X53206359Y-97032549D01*
X53209238Y-97013140D01*
X53218810Y-96965015D01*
X53223580Y-96945972D01*
X53237824Y-96899017D01*
X53244435Y-96880540D01*
X53263212Y-96835207D01*
X53271607Y-96817459D01*
X53294738Y-96774186D01*
X53304824Y-96757358D01*
X53332084Y-96716559D01*
X53343779Y-96700790D01*
X53374907Y-96662861D01*
X53388087Y-96648320D01*
X53422784Y-96613623D01*
X53437325Y-96600443D01*
X53475254Y-96569315D01*
X53491023Y-96557620D01*
X53531822Y-96530360D01*
X53548650Y-96520274D01*
X53591923Y-96497143D01*
X53609671Y-96488748D01*
X53655004Y-96469971D01*
X53673481Y-96463360D01*
X53720436Y-96449116D01*
X53739479Y-96444346D01*
X53787604Y-96434774D01*
X53807013Y-96431895D01*
X53855844Y-96427085D01*
X53875450Y-96426122D01*
X53893872Y-96426122D01*
X53899984Y-96425520D01*
X54399984Y-96425520D01*
X54439002Y-96429363D01*
X54476521Y-96440744D01*
X54511098Y-96459226D01*
X54541405Y-96484099D01*
X54566278Y-96514406D01*
X54584760Y-96548983D01*
X54596141Y-96586502D01*
X54599984Y-96625520D01*
X54599984Y-98125520D01*
X54596141Y-98164538D01*
X54584760Y-98202057D01*
X54566278Y-98236634D01*
X54541405Y-98266941D01*
X54511098Y-98291814D01*
X54476521Y-98310296D01*
X54439002Y-98321677D01*
X54399984Y-98325520D01*
X53899984Y-98325520D01*
X53893872Y-98324918D01*
G37*
G36*
X60960966Y-29421677D02*
G01*
X60923447Y-29410296D01*
X60888870Y-29391814D01*
X60858563Y-29366941D01*
X60833690Y-29336634D01*
X60815208Y-29302057D01*
X60803827Y-29264538D01*
X60799984Y-29225520D01*
X60799984Y-27725520D01*
X60803827Y-27686502D01*
X60815208Y-27648983D01*
X60833690Y-27614406D01*
X60858563Y-27584099D01*
X60888870Y-27559226D01*
X60923447Y-27540744D01*
X60960966Y-27529363D01*
X60999984Y-27525520D01*
X61549984Y-27525520D01*
X61556096Y-27526122D01*
X61574518Y-27526122D01*
X61594124Y-27527085D01*
X61642955Y-27531895D01*
X61662364Y-27534774D01*
X61710489Y-27544346D01*
X61729532Y-27549116D01*
X61776487Y-27563360D01*
X61794964Y-27569971D01*
X61840297Y-27588748D01*
X61858045Y-27597143D01*
X61901318Y-27620274D01*
X61918146Y-27630360D01*
X61958945Y-27657620D01*
X61974714Y-27669315D01*
X62012643Y-27700443D01*
X62027184Y-27713623D01*
X62061881Y-27748320D01*
X62075061Y-27762861D01*
X62106189Y-27800790D01*
X62117884Y-27816559D01*
X62145144Y-27857358D01*
X62155230Y-27874186D01*
X62178361Y-27917459D01*
X62186756Y-27935207D01*
X62205533Y-27980540D01*
X62212144Y-27999017D01*
X62226388Y-28045972D01*
X62231158Y-28065015D01*
X62240730Y-28113140D01*
X62243609Y-28132549D01*
X62248419Y-28181380D01*
X62249382Y-28200986D01*
X62249382Y-28219408D01*
X62249984Y-28225520D01*
X62249984Y-28725520D01*
X62249382Y-28731632D01*
X62249382Y-28750054D01*
X62248419Y-28769660D01*
X62243609Y-28818491D01*
X62240730Y-28837900D01*
X62231158Y-28886025D01*
X62226388Y-28905068D01*
X62212144Y-28952023D01*
X62205533Y-28970500D01*
X62186756Y-29015833D01*
X62178361Y-29033581D01*
X62155230Y-29076854D01*
X62145144Y-29093682D01*
X62117884Y-29134481D01*
X62106189Y-29150250D01*
X62075061Y-29188179D01*
X62061881Y-29202720D01*
X62027184Y-29237417D01*
X62012643Y-29250597D01*
X61974714Y-29281725D01*
X61958945Y-29293420D01*
X61918146Y-29320680D01*
X61901318Y-29330766D01*
X61858045Y-29353897D01*
X61840297Y-29362292D01*
X61794964Y-29381069D01*
X61776487Y-29387680D01*
X61729532Y-29401924D01*
X61710489Y-29406694D01*
X61662364Y-29416266D01*
X61642955Y-29419145D01*
X61594124Y-29423955D01*
X61574518Y-29424918D01*
X61556096Y-29424918D01*
X61549984Y-29425520D01*
X60999984Y-29425520D01*
X60960966Y-29421677D01*
G37*
G36*
X58943872Y-29424918D02*
G01*
X58925450Y-29424918D01*
X58905844Y-29423955D01*
X58857013Y-29419145D01*
X58837604Y-29416266D01*
X58789479Y-29406694D01*
X58770436Y-29401924D01*
X58723481Y-29387680D01*
X58705004Y-29381069D01*
X58659671Y-29362292D01*
X58641923Y-29353897D01*
X58598650Y-29330766D01*
X58581822Y-29320680D01*
X58541023Y-29293420D01*
X58525254Y-29281725D01*
X58487325Y-29250597D01*
X58472784Y-29237417D01*
X58438087Y-29202720D01*
X58424907Y-29188179D01*
X58393779Y-29150250D01*
X58382084Y-29134481D01*
X58354824Y-29093682D01*
X58344738Y-29076854D01*
X58321607Y-29033581D01*
X58313212Y-29015833D01*
X58294435Y-28970500D01*
X58287824Y-28952023D01*
X58273580Y-28905068D01*
X58268810Y-28886025D01*
X58259238Y-28837900D01*
X58256359Y-28818491D01*
X58251549Y-28769660D01*
X58250586Y-28750054D01*
X58250586Y-28731632D01*
X58249984Y-28725520D01*
X58249984Y-28225520D01*
X58250586Y-28219408D01*
X58250586Y-28200986D01*
X58251549Y-28181380D01*
X58256359Y-28132549D01*
X58259238Y-28113140D01*
X58268810Y-28065015D01*
X58273580Y-28045972D01*
X58287824Y-27999017D01*
X58294435Y-27980540D01*
X58313212Y-27935207D01*
X58321607Y-27917459D01*
X58344738Y-27874186D01*
X58354824Y-27857358D01*
X58382084Y-27816559D01*
X58393779Y-27800790D01*
X58424907Y-27762861D01*
X58438087Y-27748320D01*
X58472784Y-27713623D01*
X58487325Y-27700443D01*
X58525254Y-27669315D01*
X58541023Y-27657620D01*
X58581822Y-27630360D01*
X58598650Y-27620274D01*
X58641923Y-27597143D01*
X58659671Y-27588748D01*
X58705004Y-27569971D01*
X58723481Y-27563360D01*
X58770436Y-27549116D01*
X58789479Y-27544346D01*
X58837604Y-27534774D01*
X58857013Y-27531895D01*
X58905844Y-27527085D01*
X58925450Y-27526122D01*
X58943872Y-27526122D01*
X58949984Y-27525520D01*
X59499984Y-27525520D01*
X59539002Y-27529363D01*
X59576521Y-27540744D01*
X59611098Y-27559226D01*
X59641405Y-27584099D01*
X59666278Y-27614406D01*
X59684760Y-27648983D01*
X59696141Y-27686502D01*
X59699984Y-27725520D01*
X59699984Y-29225520D01*
X59696141Y-29264538D01*
X59684760Y-29302057D01*
X59666278Y-29336634D01*
X59641405Y-29366941D01*
X59611098Y-29391814D01*
X59576521Y-29410296D01*
X59539002Y-29421677D01*
X59499984Y-29425520D01*
X58949984Y-29425520D01*
X58943872Y-29424918D01*
G37*
G36*
G01*
X60949984Y-27725520D02*
X60949984Y-29225520D01*
G75*
G02*
X60749984Y-29425520I-200000J0D01*
G01*
X59749984Y-29425520D01*
G75*
G02*
X59549984Y-29225520I0J200000D01*
G01*
X59549984Y-27725520D01*
G75*
G02*
X59749984Y-27525520I200000J0D01*
G01*
X60749984Y-27525520D01*
G75*
G02*
X60949984Y-27725520I0J-200000D01*
G01*
G37*
M02*
