M48
; DRILL file {KiCad (5.1.10-1-10_14)} date Saturday, November 20, 2021 at 06:58:20 PM
; FORMAT={-:-/ absolute / inch / decimal}
; #@! TF.CreationDate,2021-11-20T18:58:20+09:00
; #@! TF.GenerationSoftware,Kicad,Pcbnew,(5.1.10-1-10_14)
FMAT,2
INCH
T1C0.0157
T2C0.0197
T3C0.0236
T4C0.0276
T5C0.0394
T6C0.0402
T7C0.0472
T8C0.0579
T9C0.0984
T10C0.0472
T11C0.0669
T12C0.0670
T13C0.0866
T14C0.0945
T15C0.1339
%
G90
G05
T1
X0.9685Y-0.9705
X0.9685Y-1.4823
X0.9685Y-1.9744
X0.9685Y-2.4469
X0.9685Y-2.9783
X0.9685Y-3.2343
X0.9685Y-3.8839
X0.9685Y-4.5335
X1.1319Y-1.313
X1.1417Y-3.1102
X1.1555Y-0.9725
X1.1594Y-1.6162
X1.2323Y-3.5354
X1.3219Y-1.0069
X1.3258Y-1.0748
X1.3258Y-1.126
X1.3484Y-0.9685
X1.3543Y-1.5984
X1.3543Y-2.3858
X1.3545Y-3.5175
X1.3661Y-3.2343
X1.373Y-2.4479
X1.3868Y-1.2077
X1.3996Y-2.4794
X1.4213Y-2.8878
X1.4331Y-2.5108
X1.4587Y-3.4803
X1.4665Y-3.3602
X1.4764Y-1.8603
X1.4764Y-3.0433
X1.4774Y-1.5492
X1.4774Y-1.6447
X1.4783Y-1.3061
X1.4882Y-1.0567
X1.4882Y-1.1098
X1.498Y-4.1792
X1.5Y-1.4823
X1.5118Y-2.1831
X1.5126Y-1.9573
X1.5197Y-4.5335
X1.5217Y-1.0567
X1.5217Y-1.1098
X1.5394Y-3.8839
X1.5445Y-2.833
X1.5528Y-2.2839
X1.5531Y-2.5738
X1.5551Y-1.0567
X1.5551Y-1.1098
X1.5691Y-2.6979
X1.5886Y-3.0069
X1.5886Y-1.0567
X1.5886Y-1.1098
X1.6017Y-2.2436
X1.6083Y-0.9705
X1.611Y-1.9904
X1.622Y-1.0567
X1.622Y-1.1098
X1.6526Y-1.5492
X1.6555Y-1.0567
X1.6555Y-1.1098
X1.6575Y-1.4823
X1.6634Y-3.5807
X1.6772Y-2.7264
X1.6791Y-1.3061
X1.689Y-1.0567
X1.689Y-1.1098
X1.689Y-1.6447
X1.6969Y-1.7083
X1.7067Y-2.7795
X1.7224Y-1.0567
X1.7224Y-1.1098
X1.7402Y-2.2395
X1.7461Y-2.7795
X1.752Y-2.6959
X1.7539Y-3.3642
X1.7559Y-3.4803
X1.7598Y-1.2579
X1.7898Y-2.6949
X1.7913Y-3.7087
X1.811Y-1.5906
X1.8169Y-3.0758
X1.8193Y-1.7071
X1.8217Y-2.6949
X1.8291Y-2.589
X1.8547Y-2.5402
X1.8604Y-2.6951
X1.8622Y-3.0758
X1.8766Y-1.0128
X1.878Y-1.7067
X1.8935Y-2.3042
X1.9114Y-3.0758
X1.9278Y-2.4794
X1.9302Y-2.5738
X1.9429Y-4.2234
X1.9488Y-3.5571
X1.9547Y-1.5492
X1.9626Y-2.4481
X1.9638Y-2.5429
X1.9646Y-3.0758
X1.9783Y-0.9843
X1.9962Y-1.9912
X2.002Y-1.9321
X2.0059Y-3.9006
X2.0108Y-3.0748
X2.0157Y-1.6063
X2.0214Y-1.4437
X2.0295Y-2.1329
X2.0315Y-3.2343
X2.0492Y-3.7746
X2.0516Y-3.5886
X2.0709Y-0.9705
X2.0709Y-4.5335
X2.0728Y-1.4715
X2.1056Y-1.4754
X2.1201Y-3.7746
X2.1311Y-2.1764
X2.1394Y-3.0374
X2.1575Y-2.7717
X2.1693Y-2.9783
X2.203Y-1.1979
X2.2047Y-3.5906
X2.2087Y-1.9744
X2.2713Y-1.7144
X2.2776Y-1.814
X2.2785Y-1.8603
X2.3248Y-1.1689
X2.3248Y-1.3612
X2.3317Y-3.7116
X2.3406Y-2.2717
X2.372Y-1.1683
X2.372Y-1.3061
X2.4016Y-2.7717
X2.4744Y-1.1211
X2.5256Y-1.7668
X2.563Y-1.4675
X2.565Y-3.7087
X2.622Y-0.9705
X2.622Y-1.9744
X2.622Y-2.4469
X2.622Y-2.9518
X2.622Y-3.2343
X2.622Y-3.8839
X2.622Y-4.5335
X2.6594Y-1.8603
X3.0Y-2.2205
X3.1732Y-0.9705
X3.1732Y-1.4823
X3.1732Y-1.9744
X3.1732Y-2.4469
X3.1732Y-2.9783
X3.1732Y-3.2343
X3.1732Y-3.8839
X3.1732Y-4.5335
X3.4035Y-1.6447
X3.7244Y-0.9705
X3.7244Y-1.4823
X3.7244Y-1.9744
X3.7244Y-2.4469
X3.7244Y-3.8839
X3.7244Y-4.5335
X3.7638Y-3.0148
X3.8031Y-3.2343
X3.9705Y-1.6447
X4.1122Y-1.6447
X4.126Y-4.0778
X4.2756Y-0.9705
X4.2756Y-1.4823
X4.2756Y-1.9744
X4.2756Y-3.0148
X4.2756Y-4.5335
X4.315Y-3.2343
X4.6713Y-1.6447
X4.813Y-1.6447
X4.8268Y-0.9705
X4.8268Y-1.4823
X4.8268Y-1.9744
X4.8268Y-2.9783
X4.8268Y-3.2343
X4.8268Y-4.5335
X5.0709Y-4.0738
X5.2972Y-3.9183
X5.3681Y-3.8888
X5.378Y-0.9705
X5.378Y-1.4823
X5.378Y-1.9744
X5.378Y-2.4469
X5.378Y-3.0148
X5.378Y-3.2343
X5.378Y-4.5335
X5.3799Y-1.6447
X5.4094Y-3.8829
X5.5138Y-1.6447
X5.9291Y-0.9705
X5.9291Y-1.4823
X5.9291Y-1.9744
X5.9291Y-2.4469
X5.9291Y-2.9783
X5.9291Y-3.2343
X5.9291Y-3.8839
X5.9547Y-1.6447
X5.9862Y-4.5345
X5.9902Y-1.6841
X6.0571Y-1.6545
X6.0669Y-1.3357
X6.4213Y-2.9783
X6.4606Y-3.2343
X6.4803Y-0.9705
X6.4803Y-1.4823
X6.4803Y-1.9744
X6.4803Y-2.4469
X6.4803Y-3.8839
X6.4803Y-4.5335
X6.6124Y-2.2193
X6.7018Y-1.5098
X6.7291Y-1.5923
X6.8039Y-2.2616
X6.8642Y-0.9715
X6.9921Y-3.2343
X7.0315Y-1.4823
X7.0315Y-1.9744
X7.0315Y-2.4469
X7.0315Y-3.0148
X7.0315Y-3.8839
X7.0315Y-4.5335
X7.0661Y-2.8482
X7.1027Y-2.953
X7.3091Y-1.9715
X7.5118Y-2.4469
X7.5827Y-0.9705
X7.5827Y-2.9783
X7.5827Y-3.2343
X7.5827Y-4.5335
X7.6024Y-3.8839
X7.622Y-1.4823
X7.6543Y-3.5175
X7.6713Y-1.9715
X7.6791Y-3.5571
X7.936Y-4.1811
X7.9608Y-4.2646
X8.1339Y-0.9705
X8.1339Y-1.4823
X8.1339Y-1.9744
X8.1339Y-2.4469
X8.1339Y-3.0148
X8.1339Y-3.2343
X8.1339Y-3.8839
X8.1339Y-4.5335
X8.685Y-0.9705
X8.685Y-1.4823
X8.685Y-1.9744
X8.685Y-2.4469
X8.685Y-2.9783
X8.685Y-3.8839
X8.685Y-4.5335
X8.7047Y-3.2343
X9.2362Y-0.9705
X9.2362Y-1.4823
X9.2362Y-1.9744
X9.2362Y-2.4469
X9.2362Y-2.9783
X9.2362Y-3.2343
X9.2362Y-3.8839
X9.2362Y-4.5335
X9.8071Y-0.9705
X9.8071Y-1.4823
X9.8071Y-1.9744
X9.8071Y-2.4469
X9.8071Y-3.0148
X9.8071Y-3.2343
X9.8071Y-3.8839
X9.8071Y-4.5335
X10.4173Y-0.9705
X10.4173Y-1.9744
X10.4173Y-2.4469
X10.4173Y-3.2343
X10.4173Y-3.8839
X10.4173Y-4.5335
X10.437Y-1.4823
X10.437Y-2.9783
X10.9094Y-1.9744
X10.9291Y-0.9705
X10.9291Y-1.4823
X10.9291Y-2.4469
X10.9291Y-2.9783
X10.9291Y-3.2343
X10.9291Y-3.8839
X10.9291Y-4.5335
X11.4803Y-0.9705
X11.4803Y-1.4823
X11.4803Y-1.9744
X11.4803Y-2.4469
X11.4803Y-3.0227
X11.4803Y-3.2343
X11.4803Y-3.8839
X11.4803Y-4.5335
X11.8504Y-3.1102
X11.8898Y-2.8268
X12.0315Y-0.9705
X12.0315Y-1.4823
X12.0315Y-1.9744
X12.0315Y-2.4469
X12.0315Y-2.9783
X12.0315Y-3.2343
X12.0315Y-3.8839
X12.0315Y-4.5335
T2
X1.2579Y-2.6811
X1.8071Y-1.9862
X1.8287Y-1.9331
X1.8287Y-2.0374
X1.8819Y-1.9114
X1.8819Y-2.061
X1.9311Y-1.9331
X1.9311Y-2.0394
X1.9567Y-1.9862
T4
X1.3839Y-4.3219
X3.7953Y-4.3219
X4.8494Y-4.3219
X6.251Y-4.3219
X7.31Y-4.3219
X9.0738Y-4.4882
X9.7677Y-4.4892
X11.1781Y-4.3219
X11.9902Y-1.5158
X11.9902Y-1.6181
X11.9902Y-2.1851
X11.9902Y-2.2874
X11.9902Y-2.4931
X11.9902Y-2.8612
X11.9902Y-3.5158
X11.9902Y-3.6181
X11.9902Y-4.189
X11.9902Y-4.2914
T5
X2.1248Y-1.5693
X2.1248Y-1.6693
X2.2248Y-1.5693
X2.2248Y-1.6693
X2.3169Y-3.9282
X2.3248Y-1.5693
X2.3248Y-1.6693
X2.4169Y-3.9282
X6.9508Y-0.9597
X7.0508Y-0.9597
X7.1508Y-0.9597
X7.2508Y-0.9597
T6
X5.9024Y-1.0664
X5.9024Y-1.7664
X6.0024Y-1.0664
X6.0024Y-1.7664
X6.1024Y-1.0664
X6.1024Y-1.7664
X6.2024Y-1.0664
X6.2024Y-1.7664
X6.3024Y-1.0664
X6.3024Y-1.7664
X6.4024Y-1.0664
X6.4024Y-1.7664
X6.5024Y-1.0664
X6.5024Y-1.7664
X6.6024Y-1.0664
X6.6024Y-1.7664
X6.7024Y-1.0664
X6.7024Y-1.7664
X6.8024Y-1.0664
X6.8024Y-1.7664
X6.9024Y-1.0664
X6.9024Y-1.7664
X7.0024Y-1.0664
X7.0024Y-1.7664
X7.1024Y-1.0664
X7.1024Y-1.7664
X7.2024Y-1.0664
X7.2024Y-1.7664
X7.3024Y-1.0664
X7.3024Y-1.7664
X7.4024Y-1.0664
X7.4024Y-1.7664
X7.5024Y-1.0664
X7.5024Y-1.7664
X7.6024Y-1.0664
X7.6024Y-1.7664
X7.7024Y-1.0664
X7.7024Y-1.7664
X7.8024Y-1.0664
X7.8024Y-1.7664
T7
X1.0307Y-1.562
X1.0307Y-4.2392
X1.2065Y-2.2313
X1.2065Y-2.9006
X1.2275Y-1.6447
X1.2275Y-4.3219
X1.3823Y-3.5699
X1.4033Y-2.314
X1.4033Y-2.9833
X1.5791Y-3.6526
X1.7338Y-1.562
X1.7338Y-3.5699
X1.7338Y-4.2392
X1.9307Y-1.6447
X1.9307Y-3.6526
X1.9307Y-4.3219
X2.0854Y-2.2313
X2.0854Y-2.9006
X2.2822Y-2.314
X2.2822Y-2.9833
X2.4369Y-1.562
X2.4369Y-3.5699
X2.6127Y-4.2392
X2.6338Y-1.6447
X2.6338Y-3.6526
X2.7885Y-2.2313
X2.7885Y-2.9006
X2.8096Y-4.3219
X2.9854Y-2.314
X2.9854Y-2.9833
X3.1401Y-1.562
X3.1401Y-3.5699
X3.3369Y-1.6447
X3.3369Y-3.6526
X3.4916Y-2.2313
X3.4916Y-2.9006
X3.4916Y-4.2392
X3.6885Y-2.314
X3.6885Y-2.9833
X3.6885Y-4.3219
X3.8432Y-1.562
X3.8432Y-3.5699
X4.04Y-1.6447
X4.04Y-3.6526
X4.1948Y-2.2313
X4.1948Y-2.9006
X4.3916Y-2.314
X4.3916Y-2.9833
X4.5463Y-1.562
X4.5463Y-3.5699
X4.5463Y-4.2392
X4.7432Y-1.6447
X4.7432Y-3.6526
X4.7432Y-4.3219
X4.8979Y-2.2313
X4.8979Y-2.9006
X5.0947Y-2.314
X5.0947Y-2.9833
X5.2494Y-1.562
X5.2494Y-3.5699
X5.4463Y-1.6447
X5.4463Y-3.6526
X5.601Y-2.2313
X5.7979Y-2.314
X5.9526Y-1.562
X5.9526Y-4.2392
X5.9526Y-3.5699
X6.1494Y-1.6447
X6.1494Y-4.3219
X6.1494Y-3.6526
X6.3041Y-2.2313
X6.3041Y-2.9006
X6.501Y-2.314
X6.501Y-2.9833
X6.6557Y-1.562
X6.6557Y-3.5699
X6.8525Y-1.6447
X6.8525Y-3.6526
X7.0073Y-2.2313
X7.0073Y-2.9006
X7.0073Y-4.2392
X7.2041Y-2.314
X7.2041Y-2.9833
X7.2041Y-4.3219
X7.3588Y-1.562
X7.3588Y-3.5699
X7.5557Y-1.6447
X7.5557Y-3.6526
X7.7104Y-2.2313
X7.7104Y-2.9006
X7.9072Y-2.314
X7.9072Y-2.9833
X8.0619Y-1.562
X8.0619Y-3.5699
X8.2588Y-1.6447
X8.2588Y-3.6526
X8.4135Y-2.2313
X8.4135Y-2.9006
X8.6104Y-2.314
X8.6104Y-2.9833
X8.7651Y-1.562
X8.7651Y-3.5699
X8.7651Y-4.4065
X8.9619Y-1.6447
X8.9619Y-3.6526
X8.9619Y-4.4892
X9.2924Y-2.2313
X9.2924Y-2.9006
X9.4682Y-3.7372
X9.4682Y-4.4065
X9.4682Y-1.562
X9.4893Y-2.314
X9.4893Y-2.9833
X9.665Y-3.8199
X9.665Y-4.4892
X9.665Y-1.6447
X10.1713Y-1.562
X10.1713Y-2.2313
X10.1713Y-2.9006
X10.1713Y-3.5699
X10.1713Y-4.4065
X10.3682Y-1.6447
X10.3682Y-2.314
X10.3682Y-2.9833
X10.3682Y-3.6526
X10.3682Y-4.4892
X10.8744Y-2.9006
X10.8744Y-3.5699
X10.8744Y-4.2392
X10.8744Y-1.562
X11.0713Y-2.9833
X11.0713Y-3.6526
X11.0713Y-4.3219
X11.0713Y-1.6447
X11.5776Y-1.562
X11.5776Y-2.2313
X11.5776Y-4.2392
X11.7744Y-1.6447
X11.7744Y-2.314
X11.7744Y-4.3219
T8
X1.0307Y-3.5699
X1.2275Y-3.6526
X5.2494Y-4.4114
X5.4463Y-4.4941
X5.601Y-2.9006
X5.7979Y-2.9833
X6.4799Y-4.4114
X6.6768Y-4.4941
X7.8862Y-4.2392
X8.083Y-4.3219
X10.8744Y-2.2313
X11.0713Y-2.314
X11.5776Y-2.9006
X11.5776Y-3.5699
X11.7744Y-2.9833
X11.7744Y-3.6526
T9
X1.8819Y-1.9862
T10
X1.4331Y-1.2471
X1.4331Y-3.2549
X1.4331Y-3.9242
X1.6088Y-1.9164
X1.7846Y-3.2549
X2.1362Y-1.2471
X2.1362Y-3.2549
X2.1362Y-3.9242
X2.4877Y-1.9164
X2.4877Y-2.5857
X2.8393Y-1.2471
X2.8393Y-3.2549
X3.0151Y-3.9242
X3.1909Y-1.9164
X3.1909Y-2.5857
X3.5424Y-1.2471
X3.5424Y-3.2549
X3.894Y-1.9164
X3.894Y-2.5857
X3.894Y-3.9242
X4.2456Y-1.2471
X4.2456Y-3.2549
X4.5971Y-1.9164
X4.5971Y-2.5857
X4.9487Y-1.2471
X4.9487Y-3.2549
X4.9487Y-3.9242
X5.3002Y-1.9164
X5.3002Y-2.5857
X5.6518Y-4.0965
X5.6518Y-1.2471
X5.6518Y-3.2549
X6.0034Y-1.9164
X6.0034Y-2.5857
X6.3549Y-1.2471
X6.3549Y-3.9242
X6.3549Y-3.2549
X6.7065Y-1.9164
X6.7065Y-2.5857
X6.8823Y-4.0965
X7.0581Y-1.2471
X7.0581Y-3.2549
X7.4096Y-1.9164
X7.4096Y-2.5857
X7.4096Y-3.9242
X7.7612Y-1.2471
X7.7612Y-3.2549
X8.1127Y-1.9164
X8.1127Y-2.5857
X8.2885Y-3.9242
X8.4643Y-1.2471
X8.4643Y-3.2549
X8.8159Y-1.9164
X8.8159Y-2.5857
X9.1674Y-1.2471
X9.1674Y-3.2549
X9.1674Y-4.0916
X9.6948Y-1.9164
X9.6948Y-2.5857
X9.8706Y-3.4223
X9.8706Y-4.0916
X9.8706Y-1.2471
X10.5737Y-1.2471
X10.5737Y-1.9164
X10.5737Y-2.5857
X10.5737Y-3.2549
X10.5737Y-4.0916
X11.2768Y-1.9164
X11.2768Y-2.5857
X11.2768Y-3.2549
X11.2768Y-3.9242
X11.2768Y-1.2471
X11.9799Y-1.2471
X11.9799Y-1.9164
X11.9799Y-2.5857
X11.9799Y-3.2549
X11.9799Y-3.9242
T11
X1.011Y-1.4124
X1.011Y-3.4203
X1.011Y-4.0896
X1.1868Y-2.0817
X1.1868Y-2.751
X1.3626Y-3.4203
X1.4441Y-1.4124
X1.4441Y-3.4203
X1.4441Y-4.0896
X1.6199Y-2.0817
X1.6199Y-2.751
X1.7141Y-1.4124
X1.7141Y-3.4203
X1.7141Y-4.0896
X1.7956Y-3.4203
X2.0657Y-2.0817
X2.0657Y-2.751
X2.1472Y-1.4124
X2.1472Y-3.4203
X2.1472Y-4.0896
X2.4173Y-1.4124
X2.4173Y-3.4203
X2.4988Y-2.0817
X2.4988Y-2.751
X2.593Y-4.0896
X2.7688Y-2.0817
X2.7688Y-2.751
X2.8503Y-1.4124
X2.8503Y-3.4203
X3.0261Y-4.0896
X3.1204Y-1.4124
X3.1204Y-3.4203
X3.2019Y-2.0817
X3.2019Y-2.751
X3.4719Y-2.0817
X3.4719Y-2.751
X3.4719Y-4.0896
X3.5535Y-1.4124
X3.5535Y-3.4203
X3.8235Y-1.4124
X3.8235Y-3.4203
X3.905Y-2.0817
X3.905Y-2.751
X3.905Y-4.0896
X4.1751Y-2.0817
X4.1751Y-2.751
X4.2566Y-1.4124
X4.2566Y-3.4203
X4.5266Y-1.4124
X4.5266Y-3.4203
X4.5266Y-4.0896
X4.6081Y-2.0817
X4.6081Y-2.751
X4.8782Y-2.0817
X4.8782Y-2.751
X4.9597Y-1.4124
X4.9597Y-3.4203
X4.9597Y-4.0896
X5.2298Y-4.2618
X5.2298Y-1.4124
X5.2298Y-3.4203
X5.3113Y-2.0817
X5.3113Y-2.751
X5.5813Y-2.0817
X5.5813Y-2.751
X5.6628Y-4.2618
X5.6628Y-1.4124
X5.6628Y-3.4203
X5.9329Y-1.4124
X5.9329Y-4.0896
X5.9329Y-3.4203
X6.0144Y-2.0817
X6.0144Y-2.751
X6.2844Y-2.0817
X6.2844Y-2.751
X6.366Y-1.4124
X6.366Y-4.0896
X6.366Y-3.4203
X6.4602Y-4.2618
X6.636Y-1.4124
X6.636Y-3.4203
X6.7175Y-2.0817
X6.7175Y-2.751
X6.8933Y-4.2618
X6.9876Y-2.0817
X6.9876Y-2.751
X6.9876Y-4.0896
X7.0691Y-1.4124
X7.0691Y-3.4203
X7.3391Y-1.4124
X7.3391Y-3.4203
X7.4206Y-2.0817
X7.4206Y-2.751
X7.4206Y-4.0896
X7.6907Y-2.0817
X7.6907Y-2.751
X7.7722Y-1.4124
X7.7722Y-3.4203
X7.8665Y-4.0896
X8.0423Y-1.4124
X8.0423Y-3.4203
X8.1238Y-2.0817
X8.1238Y-2.751
X8.2996Y-4.0896
X8.3938Y-2.0817
X8.3938Y-2.751
X8.4753Y-1.4124
X8.4753Y-3.4203
X8.7454Y-1.4124
X8.7454Y-3.4203
X8.7454Y-4.2569
X8.8269Y-2.0817
X8.8269Y-2.751
X9.1785Y-1.4124
X9.1785Y-3.4203
X9.1785Y-4.2569
X9.2727Y-2.0817
X9.2727Y-2.751
X9.4485Y-3.5876
X9.4485Y-4.2569
X9.4485Y-1.4124
X9.7058Y-2.0817
X9.7058Y-2.751
X9.8816Y-3.5876
X9.8816Y-4.2569
X9.8816Y-1.4124
X10.1516Y-1.4124
X10.1516Y-2.0817
X10.1516Y-2.751
X10.1516Y-3.4203
X10.1516Y-4.2569
X10.5847Y-1.4124
X10.5847Y-2.0817
X10.5847Y-2.751
X10.5847Y-3.4203
X10.5847Y-4.2569
X10.8548Y-2.0817
X10.8548Y-2.751
X10.8548Y-3.4203
X10.8548Y-4.0896
X10.8548Y-1.4124
X11.2878Y-2.0817
X11.2878Y-2.751
X11.2878Y-3.4203
X11.2878Y-4.0896
X11.2878Y-1.4124
X11.5579Y-1.4124
X11.5579Y-2.0817
X11.5579Y-2.751
X11.5579Y-3.4203
X11.5579Y-4.0896
X11.991Y-1.4124
X11.991Y-2.0817
X11.991Y-2.751
X11.991Y-3.4203
X11.991Y-4.0896
T12
X1.011Y-1.4124
X1.011Y-3.4203
X1.011Y-4.0896
X1.3626Y-3.4203
X1.4441Y-1.4124
X1.4441Y-3.4203
X1.4441Y-4.0896
X1.7141Y-1.4124
X1.7141Y-3.4203
X1.7141Y-4.0896
X1.7956Y-3.4203
X2.0657Y-2.0817
X2.0657Y-2.751
X2.1472Y-1.4124
X2.1472Y-3.4203
X2.1472Y-4.0896
X2.4173Y-1.4124
X2.4173Y-3.4203
X2.4988Y-2.0817
X2.4988Y-2.751
X2.7688Y-2.0817
X2.7688Y-2.751
X2.8503Y-1.4124
X2.8503Y-3.4203
X3.1204Y-1.4124
X3.1204Y-3.4203
X3.2019Y-2.0817
X3.2019Y-2.751
X3.4719Y-2.0817
X3.4719Y-2.751
X3.4719Y-4.0896
X3.5535Y-1.4124
X3.5535Y-3.4203
X3.8235Y-1.4124
X3.8235Y-3.4203
X3.905Y-2.0817
X3.905Y-2.751
X3.905Y-4.0896
X4.1751Y-2.0817
X4.1751Y-2.751
X4.2566Y-1.4124
X4.2566Y-3.4203
X4.5266Y-1.4124
X4.5266Y-3.4203
X4.6081Y-2.0817
X4.6081Y-2.751
X4.8782Y-2.0817
X4.8782Y-2.751
X4.9597Y-1.4124
X4.9597Y-3.4203
X5.2298Y-4.2618
X5.2298Y-1.4124
X5.2298Y-3.4203
X5.3113Y-2.0817
X5.3113Y-2.751
X5.5813Y-2.0817
X5.5813Y-2.751
X5.6628Y-4.2618
X5.6628Y-1.4124
X5.6628Y-3.4203
X5.9329Y-1.4124
X5.9329Y-3.4203
X6.0144Y-2.0817
X6.0144Y-2.751
X6.2844Y-2.0817
X6.2844Y-2.751
X6.366Y-1.4124
X6.366Y-3.4203
X6.4602Y-4.2618
X6.636Y-1.4124
X6.636Y-3.4203
X6.7175Y-2.0817
X6.7175Y-2.751
X6.8933Y-4.2618
X6.9876Y-2.0817
X6.9876Y-2.751
X6.9876Y-4.0896
X7.0691Y-1.4124
X7.0691Y-3.4203
X7.3391Y-1.4124
X7.3391Y-3.4203
X7.4206Y-2.0817
X7.4206Y-2.751
X7.4206Y-4.0896
X7.6907Y-2.0817
X7.6907Y-2.751
X7.7722Y-1.4124
X7.7722Y-3.4203
X8.0423Y-1.4124
X8.0423Y-3.4203
X8.1238Y-2.0817
X8.1238Y-2.751
X8.3938Y-2.0817
X8.3938Y-2.751
X8.4753Y-1.4124
X8.4753Y-3.4203
X8.7454Y-1.4124
X8.7454Y-3.4203
X8.7454Y-4.2569
X8.8269Y-2.0817
X8.8269Y-2.751
X9.1785Y-1.4124
X9.1785Y-3.4203
X9.1785Y-4.2569
X9.4485Y-3.5876
X9.4485Y-4.2569
X9.4485Y-1.4124
X9.8816Y-3.5876
X9.8816Y-4.2569
X9.8816Y-1.4124
X10.1516Y-1.4124
X10.1516Y-2.0817
X10.1516Y-2.751
X10.1516Y-3.4203
X10.1516Y-4.2569
X10.5847Y-1.4124
X10.5847Y-2.0817
X10.5847Y-2.751
X10.5847Y-3.4203
X10.5847Y-4.2569
X10.8548Y-2.0817
X10.8548Y-2.751
X10.8548Y-3.4203
X10.8548Y-4.0896
X10.8548Y-1.4124
X11.2878Y-2.0817
X11.2878Y-2.751
X11.2878Y-3.4203
X11.2878Y-4.0896
X11.2878Y-1.4124
X11.5579Y-1.4124
X11.5579Y-2.0817
X11.5579Y-2.751
X11.5579Y-3.4203
X11.5579Y-4.0896
X11.991Y-1.4124
X11.991Y-2.0817
X11.991Y-2.751
X11.991Y-3.4203
X11.991Y-4.0896
T13
X4.1909Y-4.4252
X4.626Y-1.0551
X8.189Y-4.4252
X8.376Y-1.0551
T15
X1.2275Y-1.4124
X1.2275Y-3.4203
X1.2275Y-4.0896
X1.4033Y-2.0817
X1.4033Y-2.751
X1.5791Y-3.4203
X1.9307Y-1.4124
X1.9307Y-3.4203
X1.9307Y-4.0896
X2.2822Y-2.0817
X2.2822Y-2.751
X2.6338Y-1.4124
X2.6338Y-3.4203
X2.8096Y-4.0896
X2.9854Y-2.0817
X2.9854Y-2.751
X3.3369Y-1.4124
X3.3369Y-3.4203
X3.6885Y-2.0817
X3.6885Y-2.751
X3.6885Y-4.0896
X4.04Y-1.4124
X4.04Y-3.4203
X4.3916Y-2.0817
X4.3916Y-2.751
X4.7432Y-1.4124
X4.7432Y-3.4203
X4.7432Y-4.0896
X5.0947Y-2.0817
X5.0947Y-2.751
X5.4463Y-4.2618
X5.4463Y-1.4124
X5.4463Y-3.4203
X5.7979Y-2.0817
X5.7979Y-2.751
X6.1494Y-1.4124
X6.1494Y-4.0896
X6.1494Y-3.4203
X6.501Y-2.0817
X6.501Y-2.751
X6.6768Y-4.2618
X6.8525Y-1.4124
X6.8525Y-3.4203
X7.2041Y-2.0817
X7.2041Y-2.751
X7.2041Y-4.0896
X7.5557Y-1.4124
X7.5557Y-3.4203
X7.9072Y-2.0817
X7.9072Y-2.751
X8.083Y-4.0896
X8.2588Y-1.4124
X8.2588Y-3.4203
X8.6104Y-2.0817
X8.6104Y-2.751
X8.9619Y-1.4124
X8.9619Y-3.4203
X8.9619Y-4.2569
X9.4893Y-2.0817
X9.4893Y-2.751
X9.665Y-3.5876
X9.665Y-4.2569
X9.665Y-1.4124
X10.3682Y-1.4124
X10.3682Y-2.0817
X10.3682Y-2.751
X10.3682Y-3.4203
X10.3682Y-4.2569
X11.0713Y-2.0817
X11.0713Y-2.751
X11.0713Y-3.4203
X11.0713Y-4.0896
X11.0713Y-1.4124
X11.7744Y-1.4124
X11.7744Y-2.0817
X11.7744Y-2.751
X11.7744Y-3.4203
X11.7744Y-4.0896
T3
G00X1.435Y-0.9224
M15
G01X1.435Y-0.9539
M16
G05
G00X1.435Y-1.0417
M15
G01X1.435Y-1.1008
M16
G05
G00X1.7756Y-0.9224
M15
G01X1.7756Y-0.9539
M16
G05
G00X1.7756Y-1.0417
M15
G01X1.7756Y-1.1008
M16
G05
T14
G00X5.8819Y-2.7382
M15
G01X5.9921Y-2.7382
M16
G05
G00X8.3346Y-4.2421
M15
G01X8.4449Y-4.2421
M16
G05
G00X11.0728Y-1.9862
M15
G01X11.1831Y-1.9862
M16
G05
T0
M30
