G04 #@! TF.GenerationSoftware,KiCad,Pcbnew,(5.1.10-1-10_14)*
G04 #@! TF.CreationDate,2021-12-13T21:26:31+09:00*
G04 #@! TF.ProjectId,nora,6e6f7261-2e6b-4696-9361-645f70636258,DN:0020*
G04 #@! TF.SameCoordinates,Original*
G04 #@! TF.FileFunction,Paste,Bot*
G04 #@! TF.FilePolarity,Positive*
%FSLAX46Y46*%
G04 Gerber Fmt 4.6, Leading zero omitted, Abs format (unit mm)*
G04 Created by KiCad (PCBNEW (5.1.10-1-10_14)) date 2021-12-13 21:26:31*
%MOMM*%
%LPD*%
G01*
G04 APERTURE LIST*
%ADD10R,1.800000X0.820000*%
%ADD11R,2.600000X2.600000*%
%ADD12R,1.800000X2.100000*%
%ADD13R,1.000000X1.700000*%
%ADD14R,1.400000X1.200000*%
%ADD15R,1.400000X1.000000*%
%ADD16R,0.772500X0.772500*%
%ADD17R,0.700000X0.250000*%
%ADD18R,0.250000X0.700000*%
%ADD19R,1.200000X0.900000*%
G04 APERTURE END LIST*
D10*
X301565000Y-31925520D03*
X301565000Y-30425520D03*
X296565000Y-30425520D03*
X296565000Y-31925520D03*
D11*
X123751552Y-109825520D03*
X112201552Y-107625520D03*
X159470304Y-109825520D03*
X147920304Y-107625520D03*
X43384360Y-92825520D03*
X31834360Y-90625520D03*
X38919516Y-58825520D03*
X27369516Y-56625520D03*
X38919516Y-75825520D03*
X27369516Y-73625520D03*
X74638268Y-109825520D03*
X63088268Y-107625520D03*
X208583588Y-109825520D03*
X197033588Y-107625520D03*
X244302340Y-58825520D03*
X232752340Y-56625520D03*
X244302340Y-75825520D03*
X232752340Y-73625520D03*
X27904672Y-29925520D03*
X39454672Y-32125520D03*
X27904672Y-80925520D03*
X39454672Y-83125520D03*
X27904672Y-97925520D03*
X39454672Y-100125520D03*
X52314048Y-41825520D03*
X40764048Y-39625520D03*
X45764048Y-80925520D03*
X57314048Y-83125520D03*
X52314048Y-109825520D03*
X40764048Y-107625520D03*
X70173424Y-41825520D03*
X58623424Y-39625520D03*
X61243736Y-58825520D03*
X49693736Y-56625520D03*
X61243736Y-75825520D03*
X49693736Y-73625520D03*
X70173424Y-92825520D03*
X58623424Y-90625520D03*
X88032800Y-41825520D03*
X76482800Y-39625520D03*
X79103112Y-58825520D03*
X67553112Y-56625520D03*
X79103112Y-75825520D03*
X67553112Y-73625520D03*
X88032800Y-92825520D03*
X76482800Y-90625520D03*
X96962488Y-109825520D03*
X85412488Y-107625520D03*
X105892176Y-41825520D03*
X94342176Y-39625520D03*
X96962488Y-58825520D03*
X85412488Y-56625520D03*
X96962488Y-75825520D03*
X85412488Y-73625520D03*
X105892176Y-92825520D03*
X94342176Y-90625520D03*
X123751552Y-41825520D03*
X112201552Y-39625520D03*
X114821864Y-58825520D03*
X103271864Y-56625520D03*
X114821864Y-75825520D03*
X103271864Y-73625520D03*
X123751552Y-92825520D03*
X112201552Y-90625520D03*
X141610928Y-41825520D03*
X130060928Y-39625520D03*
X132681240Y-58825520D03*
X121131240Y-56625520D03*
X132681240Y-75825520D03*
X121131240Y-73625520D03*
X141610928Y-92825520D03*
X130060928Y-90625520D03*
X159470304Y-41825520D03*
X147920304Y-39625520D03*
X150540616Y-58825520D03*
X138990616Y-56625520D03*
X150540616Y-75825520D03*
X138990616Y-73625520D03*
X159470320Y-92825520D03*
X147920320Y-90625520D03*
X177329680Y-41825520D03*
X165779680Y-39625520D03*
X168399992Y-58825520D03*
X156849992Y-56625520D03*
X168399992Y-75825520D03*
X156849992Y-73625520D03*
X177329680Y-92825520D03*
X165779680Y-90625520D03*
X195189056Y-41825520D03*
X183639056Y-39625520D03*
X186259368Y-58825520D03*
X174709368Y-56625520D03*
X186259368Y-75825520D03*
X174709368Y-73625520D03*
X195189056Y-92825520D03*
X183639056Y-90625520D03*
X186259368Y-109825520D03*
X174709368Y-107625520D03*
X213048432Y-41825520D03*
X201498432Y-39625520D03*
X204118744Y-58825520D03*
X192568744Y-56625520D03*
X204118744Y-75825520D03*
X192568744Y-73625520D03*
X213048432Y-92825520D03*
X201498432Y-90625520D03*
X230907808Y-41825520D03*
X219357808Y-39625520D03*
X221978120Y-58825520D03*
X210428120Y-56625520D03*
X221978120Y-75825520D03*
X210428120Y-73625520D03*
X230907808Y-92825520D03*
X219357808Y-90625520D03*
X230907808Y-114075520D03*
X219357808Y-111875520D03*
X248767187Y-41825520D03*
X237217187Y-39625520D03*
X248767184Y-97075520D03*
X237217184Y-94875520D03*
X248767184Y-114075520D03*
X237217184Y-111875520D03*
X266626560Y-41825520D03*
X255076560Y-39625520D03*
X266626560Y-58825520D03*
X255076560Y-56625520D03*
X266626560Y-75825520D03*
X255076560Y-73625520D03*
X266626560Y-92825520D03*
X255076560Y-90625520D03*
X266626560Y-114075520D03*
X255076560Y-111875520D03*
X284485937Y-41825520D03*
X272935937Y-39625520D03*
X284485936Y-58825520D03*
X272935936Y-56625520D03*
X284485936Y-75825520D03*
X272935936Y-73625520D03*
X284485936Y-92825520D03*
X272935936Y-90625520D03*
X284485936Y-109825520D03*
X272935936Y-107625520D03*
X302345312Y-41825520D03*
X290795312Y-39625520D03*
X302345312Y-58825520D03*
X290795312Y-56625520D03*
X302345312Y-75825520D03*
X290795312Y-73625520D03*
X302345312Y-92825520D03*
X290795312Y-90625520D03*
X302345312Y-109825520D03*
X290795312Y-107625520D03*
G36*
G01*
X79600000Y-62245000D02*
X79600000Y-62545000D01*
G75*
G02*
X79450000Y-62695000I-150000J0D01*
G01*
X78000000Y-62695000D01*
G75*
G02*
X77850000Y-62545000I0J150000D01*
G01*
X77850000Y-62245000D01*
G75*
G02*
X78000000Y-62095000I150000J0D01*
G01*
X79450000Y-62095000D01*
G75*
G02*
X79600000Y-62245000I0J-150000D01*
G01*
G37*
G36*
G01*
X79600000Y-63515000D02*
X79600000Y-63815000D01*
G75*
G02*
X79450000Y-63965000I-150000J0D01*
G01*
X78000000Y-63965000D01*
G75*
G02*
X77850000Y-63815000I0J150000D01*
G01*
X77850000Y-63515000D01*
G75*
G02*
X78000000Y-63365000I150000J0D01*
G01*
X79450000Y-63365000D01*
G75*
G02*
X79600000Y-63515000I0J-150000D01*
G01*
G37*
G36*
G01*
X79600000Y-64785000D02*
X79600000Y-65085000D01*
G75*
G02*
X79450000Y-65235000I-150000J0D01*
G01*
X78000000Y-65235000D01*
G75*
G02*
X77850000Y-65085000I0J150000D01*
G01*
X77850000Y-64785000D01*
G75*
G02*
X78000000Y-64635000I150000J0D01*
G01*
X79450000Y-64635000D01*
G75*
G02*
X79600000Y-64785000I0J-150000D01*
G01*
G37*
G36*
G01*
X79600000Y-66055000D02*
X79600000Y-66355000D01*
G75*
G02*
X79450000Y-66505000I-150000J0D01*
G01*
X78000000Y-66505000D01*
G75*
G02*
X77850000Y-66355000I0J150000D01*
G01*
X77850000Y-66055000D01*
G75*
G02*
X78000000Y-65905000I150000J0D01*
G01*
X79450000Y-65905000D01*
G75*
G02*
X79600000Y-66055000I0J-150000D01*
G01*
G37*
G36*
G01*
X84750000Y-66055000D02*
X84750000Y-66355000D01*
G75*
G02*
X84600000Y-66505000I-150000J0D01*
G01*
X83150000Y-66505000D01*
G75*
G02*
X83000000Y-66355000I0J150000D01*
G01*
X83000000Y-66055000D01*
G75*
G02*
X83150000Y-65905000I150000J0D01*
G01*
X84600000Y-65905000D01*
G75*
G02*
X84750000Y-66055000I0J-150000D01*
G01*
G37*
G36*
G01*
X84750000Y-64785000D02*
X84750000Y-65085000D01*
G75*
G02*
X84600000Y-65235000I-150000J0D01*
G01*
X83150000Y-65235000D01*
G75*
G02*
X83000000Y-65085000I0J150000D01*
G01*
X83000000Y-64785000D01*
G75*
G02*
X83150000Y-64635000I150000J0D01*
G01*
X84600000Y-64635000D01*
G75*
G02*
X84750000Y-64785000I0J-150000D01*
G01*
G37*
G36*
G01*
X84750000Y-63515000D02*
X84750000Y-63815000D01*
G75*
G02*
X84600000Y-63965000I-150000J0D01*
G01*
X83150000Y-63965000D01*
G75*
G02*
X83000000Y-63815000I0J150000D01*
G01*
X83000000Y-63515000D01*
G75*
G02*
X83150000Y-63365000I150000J0D01*
G01*
X84600000Y-63365000D01*
G75*
G02*
X84750000Y-63515000I0J-150000D01*
G01*
G37*
G36*
G01*
X84750000Y-62245000D02*
X84750000Y-62545000D01*
G75*
G02*
X84600000Y-62695000I-150000J0D01*
G01*
X83150000Y-62695000D01*
G75*
G02*
X83000000Y-62545000I0J150000D01*
G01*
X83000000Y-62245000D01*
G75*
G02*
X83150000Y-62095000I150000J0D01*
G01*
X84600000Y-62095000D01*
G75*
G02*
X84750000Y-62245000I0J-150000D01*
G01*
G37*
D12*
X56750000Y-65550000D03*
X56750000Y-62650000D03*
X54450000Y-62650000D03*
X54450000Y-65550000D03*
D13*
X43349984Y-69950520D03*
X43349984Y-76250520D03*
X47149984Y-69950520D03*
X47149984Y-76250520D03*
D14*
X32765000Y-24705520D03*
D15*
X32765000Y-26425520D03*
X30565000Y-26425520D03*
X30565000Y-24525520D03*
G36*
G01*
X50075000Y-26550520D02*
X50075000Y-27800520D01*
G75*
G02*
X49825000Y-28050520I-250000J0D01*
G01*
X48900000Y-28050520D01*
G75*
G02*
X48650000Y-27800520I0J250000D01*
G01*
X48650000Y-26550520D01*
G75*
G02*
X48900000Y-26300520I250000J0D01*
G01*
X49825000Y-26300520D01*
G75*
G02*
X50075000Y-26550520I0J-250000D01*
G01*
G37*
G36*
G01*
X53050000Y-26550520D02*
X53050000Y-27800520D01*
G75*
G02*
X52800000Y-28050520I-250000J0D01*
G01*
X51875000Y-28050520D01*
G75*
G02*
X51625000Y-27800520I0J250000D01*
G01*
X51625000Y-26550520D01*
G75*
G02*
X51875000Y-26300520I250000J0D01*
G01*
X52800000Y-26300520D01*
G75*
G02*
X53050000Y-26550520I0J-250000D01*
G01*
G37*
G36*
G01*
X71000000Y-66249999D02*
X71000000Y-67150001D01*
G75*
G02*
X70750001Y-67400000I-249999J0D01*
G01*
X70049999Y-67400000D01*
G75*
G02*
X69800000Y-67150001I0J249999D01*
G01*
X69800000Y-66249999D01*
G75*
G02*
X70049999Y-66000000I249999J0D01*
G01*
X70750001Y-66000000D01*
G75*
G02*
X71000000Y-66249999I0J-249999D01*
G01*
G37*
G36*
G01*
X73000000Y-66249999D02*
X73000000Y-67150001D01*
G75*
G02*
X72750001Y-67400000I-249999J0D01*
G01*
X72049999Y-67400000D01*
G75*
G02*
X71800000Y-67150001I0J249999D01*
G01*
X71800000Y-66249999D01*
G75*
G02*
X72049999Y-66000000I249999J0D01*
G01*
X72750001Y-66000000D01*
G75*
G02*
X73000000Y-66249999I0J-249999D01*
G01*
G37*
G36*
G01*
X71000000Y-61149999D02*
X71000000Y-62050001D01*
G75*
G02*
X70750001Y-62300000I-249999J0D01*
G01*
X70049999Y-62300000D01*
G75*
G02*
X69800000Y-62050001I0J249999D01*
G01*
X69800000Y-61149999D01*
G75*
G02*
X70049999Y-60900000I249999J0D01*
G01*
X70750001Y-60900000D01*
G75*
G02*
X71000000Y-61149999I0J-249999D01*
G01*
G37*
G36*
G01*
X73000000Y-61149999D02*
X73000000Y-62050001D01*
G75*
G02*
X72750001Y-62300000I-249999J0D01*
G01*
X72049999Y-62300000D01*
G75*
G02*
X71800000Y-62050001I0J249999D01*
G01*
X71800000Y-61149999D01*
G75*
G02*
X72049999Y-60900000I249999J0D01*
G01*
X72750001Y-60900000D01*
G75*
G02*
X73000000Y-61149999I0J-249999D01*
G01*
G37*
D16*
X44218734Y-61344270D03*
X45506234Y-61344270D03*
X46793734Y-61344270D03*
X48081234Y-61344270D03*
X44218734Y-62631770D03*
X45506234Y-62631770D03*
X46793734Y-62631770D03*
X48081234Y-62631770D03*
X44218734Y-63919270D03*
X45506234Y-63919270D03*
X46793734Y-63919270D03*
X48081234Y-63919270D03*
X44218734Y-65206770D03*
X45506234Y-65206770D03*
X46793734Y-65206770D03*
X48081234Y-65206770D03*
D17*
X42749984Y-60775520D03*
X42749984Y-61275520D03*
X42749984Y-61775520D03*
X42749984Y-62275520D03*
X42749984Y-62775520D03*
X42749984Y-63275520D03*
X42749984Y-63775520D03*
X42749984Y-64275520D03*
X42749984Y-64775520D03*
X42749984Y-65275520D03*
X42749984Y-65775520D03*
D18*
X43649984Y-66675520D03*
X44149984Y-66675520D03*
X44649984Y-66675520D03*
X45149984Y-66675520D03*
X45649984Y-66675520D03*
X46149984Y-66675520D03*
X46649984Y-66675520D03*
X47149984Y-66675520D03*
X47649984Y-66675520D03*
X48149984Y-66675520D03*
X48649984Y-66675520D03*
D17*
X49549984Y-65775520D03*
X49549984Y-65275520D03*
X49549984Y-64775520D03*
X49549984Y-64275520D03*
X49549984Y-63775520D03*
X49549984Y-63275520D03*
X49549984Y-62775520D03*
X49549984Y-62275520D03*
X49549984Y-61775520D03*
X49549984Y-61275520D03*
X49549984Y-60775520D03*
D18*
X48649984Y-59875520D03*
X48149984Y-59875520D03*
X47649984Y-59875520D03*
X47149984Y-59875520D03*
X46649984Y-59875520D03*
X46149984Y-59875520D03*
X45649984Y-59875520D03*
X45149984Y-59875520D03*
X44649984Y-59875520D03*
X44149984Y-59875520D03*
X43649984Y-59875520D03*
G36*
G01*
X41474984Y-57425520D02*
X42424984Y-57425520D01*
G75*
G02*
X42674984Y-57675520I0J-250000D01*
G01*
X42674984Y-58350520D01*
G75*
G02*
X42424984Y-58600520I-250000J0D01*
G01*
X41474984Y-58600520D01*
G75*
G02*
X41224984Y-58350520I0J250000D01*
G01*
X41224984Y-57675520D01*
G75*
G02*
X41474984Y-57425520I250000J0D01*
G01*
G37*
G36*
G01*
X41474984Y-55350520D02*
X42424984Y-55350520D01*
G75*
G02*
X42674984Y-55600520I0J-250000D01*
G01*
X42674984Y-56275520D01*
G75*
G02*
X42424984Y-56525520I-250000J0D01*
G01*
X41474984Y-56525520D01*
G75*
G02*
X41224984Y-56275520I0J250000D01*
G01*
X41224984Y-55600520D01*
G75*
G02*
X41474984Y-55350520I250000J0D01*
G01*
G37*
G36*
G01*
X60950000Y-66075000D02*
X60950000Y-65125000D01*
G75*
G02*
X61200000Y-64875000I250000J0D01*
G01*
X61875000Y-64875000D01*
G75*
G02*
X62125000Y-65125000I0J-250000D01*
G01*
X62125000Y-66075000D01*
G75*
G02*
X61875000Y-66325000I-250000J0D01*
G01*
X61200000Y-66325000D01*
G75*
G02*
X60950000Y-66075000I0J250000D01*
G01*
G37*
G36*
G01*
X58875000Y-66075000D02*
X58875000Y-65125000D01*
G75*
G02*
X59125000Y-64875000I250000J0D01*
G01*
X59800000Y-64875000D01*
G75*
G02*
X60050000Y-65125000I0J-250000D01*
G01*
X60050000Y-66075000D01*
G75*
G02*
X59800000Y-66325000I-250000J0D01*
G01*
X59125000Y-66325000D01*
G75*
G02*
X58875000Y-66075000I0J250000D01*
G01*
G37*
G36*
G01*
X61000000Y-63175000D02*
X61000000Y-62225000D01*
G75*
G02*
X61250000Y-61975000I250000J0D01*
G01*
X61925000Y-61975000D01*
G75*
G02*
X62175000Y-62225000I0J-250000D01*
G01*
X62175000Y-63175000D01*
G75*
G02*
X61925000Y-63425000I-250000J0D01*
G01*
X61250000Y-63425000D01*
G75*
G02*
X61000000Y-63175000I0J250000D01*
G01*
G37*
G36*
G01*
X58925000Y-63175000D02*
X58925000Y-62225000D01*
G75*
G02*
X59175000Y-61975000I250000J0D01*
G01*
X59850000Y-61975000D01*
G75*
G02*
X60100000Y-62225000I0J-250000D01*
G01*
X60100000Y-63175000D01*
G75*
G02*
X59850000Y-63425000I-250000J0D01*
G01*
X59175000Y-63425000D01*
G75*
G02*
X58925000Y-63175000I0J250000D01*
G01*
G37*
G36*
G01*
X49775000Y-69250000D02*
X48825000Y-69250000D01*
G75*
G02*
X48575000Y-69000000I0J250000D01*
G01*
X48575000Y-68325000D01*
G75*
G02*
X48825000Y-68075000I250000J0D01*
G01*
X49775000Y-68075000D01*
G75*
G02*
X50025000Y-68325000I0J-250000D01*
G01*
X50025000Y-69000000D01*
G75*
G02*
X49775000Y-69250000I-250000J0D01*
G01*
G37*
G36*
G01*
X49775000Y-71325000D02*
X48825000Y-71325000D01*
G75*
G02*
X48575000Y-71075000I0J250000D01*
G01*
X48575000Y-70400000D01*
G75*
G02*
X48825000Y-70150000I250000J0D01*
G01*
X49775000Y-70150000D01*
G75*
G02*
X50025000Y-70400000I0J-250000D01*
G01*
X50025000Y-71075000D01*
G75*
G02*
X49775000Y-71325000I-250000J0D01*
G01*
G37*
G36*
G01*
X38452500Y-66450520D02*
X38452500Y-65500520D01*
G75*
G02*
X38702500Y-65250520I250000J0D01*
G01*
X39377500Y-65250520D01*
G75*
G02*
X39627500Y-65500520I0J-250000D01*
G01*
X39627500Y-66450520D01*
G75*
G02*
X39377500Y-66700520I-250000J0D01*
G01*
X38702500Y-66700520D01*
G75*
G02*
X38452500Y-66450520I0J250000D01*
G01*
G37*
G36*
G01*
X36377500Y-66450520D02*
X36377500Y-65500520D01*
G75*
G02*
X36627500Y-65250520I250000J0D01*
G01*
X37302500Y-65250520D01*
G75*
G02*
X37552500Y-65500520I0J-250000D01*
G01*
X37552500Y-66450520D01*
G75*
G02*
X37302500Y-66700520I-250000J0D01*
G01*
X36627500Y-66700520D01*
G75*
G02*
X36377500Y-66450520I0J250000D01*
G01*
G37*
G36*
G01*
X44650000Y-55800520D02*
X44650000Y-56750520D01*
G75*
G02*
X44400000Y-57000520I-250000J0D01*
G01*
X43725000Y-57000520D01*
G75*
G02*
X43475000Y-56750520I0J250000D01*
G01*
X43475000Y-55800520D01*
G75*
G02*
X43725000Y-55550520I250000J0D01*
G01*
X44400000Y-55550520D01*
G75*
G02*
X44650000Y-55800520I0J-250000D01*
G01*
G37*
G36*
G01*
X46725000Y-55800520D02*
X46725000Y-56750520D01*
G75*
G02*
X46475000Y-57000520I-250000J0D01*
G01*
X45800000Y-57000520D01*
G75*
G02*
X45550000Y-56750520I0J250000D01*
G01*
X45550000Y-55800520D01*
G75*
G02*
X45800000Y-55550520I250000J0D01*
G01*
X46475000Y-55550520D01*
G75*
G02*
X46725000Y-55800520I0J-250000D01*
G01*
G37*
G36*
G01*
X52200000Y-59625000D02*
X52200000Y-60575000D01*
G75*
G02*
X51950000Y-60825000I-250000J0D01*
G01*
X51275000Y-60825000D01*
G75*
G02*
X51025000Y-60575000I0J250000D01*
G01*
X51025000Y-59625000D01*
G75*
G02*
X51275000Y-59375000I250000J0D01*
G01*
X51950000Y-59375000D01*
G75*
G02*
X52200000Y-59625000I0J-250000D01*
G01*
G37*
G36*
G01*
X54275000Y-59625000D02*
X54275000Y-60575000D01*
G75*
G02*
X54025000Y-60825000I-250000J0D01*
G01*
X53350000Y-60825000D01*
G75*
G02*
X53100000Y-60575000I0J250000D01*
G01*
X53100000Y-59625000D01*
G75*
G02*
X53350000Y-59375000I250000J0D01*
G01*
X54025000Y-59375000D01*
G75*
G02*
X54275000Y-59625000I0J-250000D01*
G01*
G37*
G36*
G01*
X50650000Y-25225521D02*
X50650000Y-24325519D01*
G75*
G02*
X50899999Y-24075520I249999J0D01*
G01*
X51600001Y-24075520D01*
G75*
G02*
X51850000Y-24325519I0J-249999D01*
G01*
X51850000Y-25225521D01*
G75*
G02*
X51600001Y-25475520I-249999J0D01*
G01*
X50899999Y-25475520D01*
G75*
G02*
X50650000Y-25225521I0J249999D01*
G01*
G37*
G36*
G01*
X48650000Y-25225521D02*
X48650000Y-24325519D01*
G75*
G02*
X48899999Y-24075520I249999J0D01*
G01*
X49600001Y-24075520D01*
G75*
G02*
X49850000Y-24325519I0J-249999D01*
G01*
X49850000Y-25225521D01*
G75*
G02*
X49600001Y-25475520I-249999J0D01*
G01*
X48899999Y-25475520D01*
G75*
G02*
X48650000Y-25225521I0J249999D01*
G01*
G37*
G36*
G01*
X26799983Y-25875520D02*
X27699985Y-25875520D01*
G75*
G02*
X27949984Y-26125519I0J-249999D01*
G01*
X27949984Y-26825521D01*
G75*
G02*
X27699985Y-27075520I-249999J0D01*
G01*
X26799983Y-27075520D01*
G75*
G02*
X26549984Y-26825521I0J249999D01*
G01*
X26549984Y-26125519D01*
G75*
G02*
X26799983Y-25875520I249999J0D01*
G01*
G37*
G36*
G01*
X26799983Y-23875520D02*
X27699985Y-23875520D01*
G75*
G02*
X27949984Y-24125519I0J-249999D01*
G01*
X27949984Y-24825521D01*
G75*
G02*
X27699985Y-25075520I-249999J0D01*
G01*
X26799983Y-25075520D01*
G75*
G02*
X26549984Y-24825521I0J249999D01*
G01*
X26549984Y-24125519D01*
G75*
G02*
X26799983Y-23875520I249999J0D01*
G01*
G37*
G36*
G01*
X42749984Y-30525519D02*
X42749984Y-31425521D01*
G75*
G02*
X42499985Y-31675520I-249999J0D01*
G01*
X41799983Y-31675520D01*
G75*
G02*
X41549984Y-31425521I0J249999D01*
G01*
X41549984Y-30525519D01*
G75*
G02*
X41799983Y-30275520I249999J0D01*
G01*
X42499985Y-30275520D01*
G75*
G02*
X42749984Y-30525519I0J-249999D01*
G01*
G37*
G36*
G01*
X44749984Y-30525519D02*
X44749984Y-31425521D01*
G75*
G02*
X44499985Y-31675520I-249999J0D01*
G01*
X43799983Y-31675520D01*
G75*
G02*
X43549984Y-31425521I0J249999D01*
G01*
X43549984Y-30525519D01*
G75*
G02*
X43799983Y-30275520I249999J0D01*
G01*
X44499985Y-30275520D01*
G75*
G02*
X44749984Y-30525519I0J-249999D01*
G01*
G37*
G36*
G01*
X43550000Y-34025521D02*
X43550000Y-33125519D01*
G75*
G02*
X43799999Y-32875520I249999J0D01*
G01*
X44500001Y-32875520D01*
G75*
G02*
X44750000Y-33125519I0J-249999D01*
G01*
X44750000Y-34025521D01*
G75*
G02*
X44500001Y-34275520I-249999J0D01*
G01*
X43799999Y-34275520D01*
G75*
G02*
X43550000Y-34025521I0J249999D01*
G01*
G37*
G36*
G01*
X41550000Y-34025521D02*
X41550000Y-33125519D01*
G75*
G02*
X41799999Y-32875520I249999J0D01*
G01*
X42500001Y-32875520D01*
G75*
G02*
X42750000Y-33125519I0J-249999D01*
G01*
X42750000Y-34025521D01*
G75*
G02*
X42500001Y-34275520I-249999J0D01*
G01*
X41799999Y-34275520D01*
G75*
G02*
X41550000Y-34025521I0J249999D01*
G01*
G37*
G36*
G01*
X38149999Y-70075520D02*
X39050001Y-70075520D01*
G75*
G02*
X39300000Y-70325519I0J-249999D01*
G01*
X39300000Y-71025521D01*
G75*
G02*
X39050001Y-71275520I-249999J0D01*
G01*
X38149999Y-71275520D01*
G75*
G02*
X37900000Y-71025521I0J249999D01*
G01*
X37900000Y-70325519D01*
G75*
G02*
X38149999Y-70075520I249999J0D01*
G01*
G37*
G36*
G01*
X38149999Y-68075520D02*
X39050001Y-68075520D01*
G75*
G02*
X39300000Y-68325519I0J-249999D01*
G01*
X39300000Y-69025521D01*
G75*
G02*
X39050001Y-69275520I-249999J0D01*
G01*
X38149999Y-69275520D01*
G75*
G02*
X37900000Y-69025521I0J249999D01*
G01*
X37900000Y-68325519D01*
G75*
G02*
X38149999Y-68075520I249999J0D01*
G01*
G37*
G36*
G01*
X34549984Y-66425521D02*
X34549984Y-65525519D01*
G75*
G02*
X34799983Y-65275520I249999J0D01*
G01*
X35499985Y-65275520D01*
G75*
G02*
X35749984Y-65525519I0J-249999D01*
G01*
X35749984Y-66425521D01*
G75*
G02*
X35499985Y-66675520I-249999J0D01*
G01*
X34799983Y-66675520D01*
G75*
G02*
X34549984Y-66425521I0J249999D01*
G01*
G37*
G36*
G01*
X32549984Y-66425521D02*
X32549984Y-65525519D01*
G75*
G02*
X32799983Y-65275520I249999J0D01*
G01*
X33499985Y-65275520D01*
G75*
G02*
X33749984Y-65525519I0J-249999D01*
G01*
X33749984Y-66425521D01*
G75*
G02*
X33499985Y-66675520I-249999J0D01*
G01*
X32799983Y-66675520D01*
G75*
G02*
X32549984Y-66425521I0J249999D01*
G01*
G37*
D19*
X36649984Y-46125520D03*
X36649984Y-42825520D03*
X46249984Y-88825520D03*
X46249984Y-92125520D03*
X38100000Y-110850000D03*
X38100000Y-114150000D03*
X40749984Y-47025520D03*
X40749984Y-43725520D03*
X25100000Y-53900000D03*
X25100000Y-50600000D03*
X24200000Y-71450000D03*
X24200000Y-74750000D03*
X54649984Y-88825520D03*
X54649984Y-92125520D03*
X40750000Y-111900000D03*
X40750000Y-115200000D03*
X58549984Y-42825520D03*
X58549984Y-46125520D03*
X54749984Y-52925520D03*
X54749984Y-49625520D03*
X64700000Y-76825000D03*
X64700000Y-80125000D03*
X63749984Y-87125520D03*
X63749984Y-83825520D03*
X63100000Y-114150000D03*
X63100000Y-110850000D03*
X76449984Y-43725520D03*
X76449984Y-47025520D03*
X66249984Y-53925520D03*
X66249984Y-50625520D03*
X67549984Y-77925520D03*
X67549984Y-81225520D03*
X75349984Y-88125520D03*
X75349984Y-84825520D03*
X85400000Y-115225000D03*
X85400000Y-111925000D03*
X94349984Y-46125520D03*
X94349984Y-42825520D03*
X84149984Y-49625520D03*
X84149984Y-52925520D03*
X85349984Y-80125520D03*
X85349984Y-76825520D03*
X93149984Y-87125520D03*
X93149984Y-83825520D03*
X112149984Y-47025520D03*
X112149984Y-43725520D03*
X101949984Y-50625520D03*
X101949984Y-53925520D03*
X102949984Y-77925520D03*
X102949984Y-81225520D03*
X110950000Y-88150000D03*
X110950000Y-84850000D03*
X112200000Y-111925000D03*
X112200000Y-115225000D03*
X130049984Y-42825520D03*
X130049984Y-46125520D03*
X119849984Y-52925520D03*
X119849984Y-49625520D03*
X121149984Y-80125520D03*
X121149984Y-76825520D03*
X128850000Y-83850000D03*
X128850000Y-87150000D03*
X147849984Y-43725520D03*
X147849984Y-47025520D03*
X137649984Y-50625520D03*
X137649984Y-53925520D03*
X138949984Y-81250000D03*
X138949984Y-77950000D03*
X146750000Y-84850000D03*
X146750000Y-88150000D03*
X147900000Y-115225000D03*
X147900000Y-111925000D03*
X162649984Y-43225520D03*
X162649984Y-39925520D03*
X155549984Y-49625520D03*
X155549984Y-52925520D03*
X156849984Y-80125520D03*
X156849984Y-76825520D03*
X164600000Y-83850000D03*
X164600000Y-87150000D03*
X180849984Y-43425520D03*
X180849984Y-40125520D03*
X173449984Y-50625520D03*
X173449984Y-53925520D03*
X174700000Y-81250000D03*
X174700000Y-77950000D03*
X182450000Y-84850000D03*
X182450000Y-88150000D03*
X174700000Y-111925000D03*
X174700000Y-115225000D03*
X198349984Y-43325520D03*
X198349984Y-40025520D03*
X191349984Y-52925520D03*
X191349984Y-49625520D03*
X192500000Y-76850000D03*
X192500000Y-80150000D03*
X200300000Y-87150000D03*
X200300000Y-83850000D03*
X197050000Y-110850000D03*
X197050000Y-114150000D03*
X219349984Y-43825520D03*
X219349984Y-47125520D03*
X209249984Y-53925520D03*
X209249984Y-50625520D03*
X210400000Y-81250000D03*
X210400000Y-77950000D03*
X218200000Y-84850000D03*
X218200000Y-88150000D03*
X216175000Y-115225000D03*
X216175000Y-111925000D03*
X237149984Y-42825520D03*
X237149984Y-46125520D03*
X231549984Y-52925520D03*
X231549984Y-49625520D03*
X232700000Y-76850000D03*
X232700000Y-80150000D03*
X236050000Y-87150000D03*
X236050000Y-83850000D03*
X234100000Y-113350000D03*
X234100000Y-110050000D03*
X255049984Y-47125520D03*
X255049984Y-43825520D03*
X253849984Y-50625520D03*
X253849984Y-53925520D03*
X255000000Y-81225000D03*
X255000000Y-77925000D03*
X253900000Y-84850000D03*
X253900000Y-88150000D03*
X251975000Y-115225000D03*
X251975000Y-111925000D03*
X272849984Y-42825520D03*
X272849984Y-46125520D03*
X272349984Y-52925520D03*
X272349984Y-49625520D03*
X272900000Y-76850000D03*
X272900000Y-80150000D03*
X271700000Y-87150000D03*
X271700000Y-83850000D03*
X266550000Y-107750000D03*
X266550000Y-111050000D03*
X290749984Y-47125520D03*
X290749984Y-43825520D03*
X289549984Y-50725520D03*
X289549984Y-54025520D03*
X290800000Y-81225000D03*
X290800000Y-77925000D03*
X289550000Y-84850000D03*
X289550000Y-88150000D03*
X290800000Y-115225000D03*
X290800000Y-111925000D03*
D10*
X33675000Y-41325520D03*
X33675000Y-39825520D03*
X28675000Y-39825520D03*
X28675000Y-41325520D03*
X46534333Y-31925520D03*
X46534333Y-30425520D03*
X51534333Y-30425520D03*
X51534333Y-31925520D03*
X69393666Y-31925520D03*
X69393666Y-30425520D03*
X64393666Y-30425520D03*
X64393666Y-31925520D03*
X82252999Y-31925520D03*
X82252999Y-30425520D03*
X87252999Y-30425520D03*
X87252999Y-31925520D03*
X105112332Y-31925520D03*
X105112332Y-30425520D03*
X100112332Y-30425520D03*
X100112332Y-31925520D03*
X117971665Y-31925520D03*
X117971665Y-30425520D03*
X122971665Y-30425520D03*
X122971665Y-31925520D03*
X140830998Y-31925520D03*
X140830998Y-30425520D03*
X135830998Y-30425520D03*
X135830998Y-31925520D03*
X153690331Y-31925520D03*
X153690331Y-30425520D03*
X158690331Y-30425520D03*
X158690331Y-31925520D03*
X176549664Y-31925520D03*
X176549664Y-30425520D03*
X171549664Y-30425520D03*
X171549664Y-31925520D03*
X189408997Y-31925520D03*
X189408997Y-30425520D03*
X194408997Y-30425520D03*
X194408997Y-31925520D03*
X212268330Y-31925520D03*
X212268330Y-30425520D03*
X207268330Y-30425520D03*
X207268330Y-31925520D03*
X225127663Y-31925520D03*
X225127663Y-30425520D03*
X230127663Y-30425520D03*
X230127663Y-31925520D03*
X247986996Y-31925520D03*
X247986996Y-30425520D03*
X242986996Y-30425520D03*
X242986996Y-31925520D03*
X260846329Y-31925520D03*
X260846329Y-30425520D03*
X265846329Y-30425520D03*
X265846329Y-31925520D03*
X278705662Y-31925520D03*
X278705662Y-30425520D03*
X283705662Y-30425520D03*
X283705662Y-31925520D03*
X296565000Y-98425520D03*
X296565000Y-99925520D03*
X301565000Y-99925520D03*
X301565000Y-98425520D03*
X278705624Y-98425520D03*
X278705624Y-99925520D03*
X283705624Y-99925520D03*
X283705624Y-98425520D03*
X260846248Y-102675520D03*
X260846248Y-104175520D03*
X265846248Y-104175520D03*
X265846248Y-102675520D03*
X247986872Y-85675520D03*
X247986872Y-87175520D03*
X242986872Y-87175520D03*
X242986872Y-85675520D03*
X242986872Y-102675520D03*
X242986872Y-104175520D03*
X247986872Y-104175520D03*
X247986872Y-102675520D03*
X230127512Y-102675520D03*
X230127512Y-104175520D03*
X225127512Y-104175520D03*
X225127512Y-102675520D03*
X202803312Y-98425520D03*
X202803312Y-99925520D03*
X207803312Y-99925520D03*
X207803312Y-98425520D03*
X185479112Y-98425520D03*
X185479112Y-99925520D03*
X180479112Y-99925520D03*
X180479112Y-98425520D03*
X153690072Y-98425520D03*
X153690072Y-99925520D03*
X158690072Y-99925520D03*
X158690072Y-98425520D03*
X122971352Y-98425520D03*
X122971352Y-99925520D03*
X117971352Y-99925520D03*
X117971352Y-98425520D03*
X91182312Y-98425520D03*
X91182312Y-99925520D03*
X96182312Y-99925520D03*
X96182312Y-98425520D03*
X73858112Y-98425520D03*
X73858112Y-99925520D03*
X68858112Y-99925520D03*
X68858112Y-98425520D03*
X51533912Y-98425520D03*
X51533912Y-99925520D03*
X46533912Y-99925520D03*
X46533912Y-98425520D03*
X33679672Y-107825520D03*
X33679672Y-109325520D03*
X28679672Y-109325520D03*
X28679672Y-107825520D03*
M02*
