<?xml version="1.0" encoding="UTF-8" standalone="no"?>
<!DOCTYPE svg PUBLIC "-//W3C//DTD SVG 1.1//EN" "http://www.w3.org/Graphics/SVG/1.1/DTD/svg11.dtd">
<svg width="100%" height="100%" viewBox="0 0 1118 474" version="1.1" xmlns="http://www.w3.org/2000/svg" xmlns:xlink="http://www.w3.org/1999/xlink" xml:space="preserve" xmlns:serif="http://www.serif.com/" style="fill-rule:evenodd;clip-rule:evenodd;">
    <g transform="matrix(1.33333,0,0,1.33333,0,0)">
        <g id="位置合わせ指標">
        </g>
        <g id="Nora-DN0032-2--RE-W14mm" serif:id="Nora DN0032(2) RE W14mm">
            <path d="M31.845,177.983C30.146,177.983 28.769,176.606 28.769,174.907C28.769,174.906 28.769,174.906 28.769,174.905C28.769,172.976 28.002,171.127 26.636,169.765C25.271,168.402 23.42,167.639 21.492,167.643C20.932,167.644 20.326,167.645 19.715,167.646C18.388,167.649 17.114,167.123 16.174,166.185C15.234,165.247 14.706,163.974 14.706,162.646C14.707,136.865 14.709,20.305 14.709,20.305L14.726,19.86L14.777,19.417L14.865,18.981L14.984,18.55L15.14,18.133L15.324,17.731L15.542,17.342L15.789,16.971L16.067,16.622L16.367,16.294L16.696,15.993L17.045,15.715L17.416,15.469L17.804,15.25L18.207,15.066L18.624,14.91L19.054,14.791L19.491,14.703L19.933,14.652L20.378,14.632L817.977,14.635L818.419,14.652L818.861,14.703L819.298,14.791L819.731,14.91L820.145,15.066L820.548,15.25L820.936,15.469L821.307,15.715L821.656,15.993L821.985,16.294L822.285,16.622L822.566,16.971L822.81,17.342L823.028,17.731L823.212,18.133L823.368,18.55L823.487,18.981L823.575,19.417L823.629,19.86L823.646,20.305C823.646,20.305 823.646,136.861 823.646,162.645C823.646,163.972 823.119,165.244 822.18,166.182C821.242,167.12 819.969,167.646 818.642,167.645C817.883,167.644 817.229,167.643 816.854,167.643C814.926,167.643 813.077,168.409 811.713,169.772C810.35,171.136 809.584,172.985 809.584,174.913C809.584,174.917 809.584,174.922 809.584,174.926C809.584,175.737 809.262,176.514 808.688,177.088C808.115,177.661 807.338,177.983 806.527,177.983C798.441,177.983 778.961,177.983 778.961,177.983L778.961,217.101L818.646,217.101C819.972,217.101 821.244,217.627 822.182,218.565C823.119,219.503 823.646,220.775 823.646,222.101C823.646,236.668 823.646,278.05 823.646,278.05L823.629,278.49L823.575,278.932L823.487,279.369L823.368,279.799L823.212,280.219L823.028,280.619L822.81,281.007L822.566,281.378L822.285,281.73L821.985,282.059L821.656,282.356L821.307,282.634L820.936,282.881L820.548,283.099L820.145,283.283L819.731,283.442L819.298,283.561L818.861,283.646L818.419,283.697L817.977,283.714L20.378,283.72L19.933,283.697L19.491,283.646L19.054,283.561L18.624,283.442L18.207,283.283L17.804,283.099L17.416,282.881L17.045,282.634L16.696,282.356L16.367,282.059L16.067,281.73L15.789,281.378L15.542,281.007L15.324,280.619L15.14,280.219L14.984,279.799L14.865,279.369L14.777,278.932L14.726,278.49L14.706,278.05L14.706,222.101C14.706,220.775 15.233,219.503 16.171,218.565C17.108,217.627 18.38,217.101 19.706,217.101C39.286,217.101 59.244,217.101 59.244,217.101L59.244,177.983L31.845,177.983ZM628.879,226.188L628.879,265.305L589.194,265.305L589.194,226.188L628.879,226.188ZM502.303,226.183L502.303,265.3L462.618,265.3L462.618,226.183L502.303,226.183ZM565.584,226.183L565.584,265.3L525.899,265.3L525.899,226.183L565.584,226.183ZM692.138,226.183L692.138,265.3L652.453,265.3L652.453,226.183L692.138,226.183ZM375.749,226.183L375.749,265.3L336.064,265.3L336.064,226.183L375.749,226.183ZM249.165,226.178L249.165,265.295L209.48,265.295L209.48,226.178L249.165,226.178ZM185.892,226.178L185.892,265.295L146.207,265.295L146.207,226.178L185.892,226.178ZM312.439,226.178L312.439,265.295L272.754,265.295L272.754,226.178L312.439,226.178ZM666.823,177.983L666.823,217.101L627.131,217.101L627.131,177.983L666.823,177.983ZM109.939,177.983L109.939,217.101L70.254,217.101L70.254,177.983L109.939,177.983ZM363.077,177.983L363.077,217.101L323.392,217.101L323.392,177.983L363.077,177.983ZM616.2,177.983L616.2,217.101L576.515,217.101L576.515,177.983L616.2,177.983ZM717.475,177.983L717.475,217.101L677.79,217.101L677.79,177.983L717.475,177.983ZM211.2,177.983L211.2,217.101L171.515,217.101L171.515,177.983L211.2,177.983ZM565.577,177.983L565.577,217.101L525.892,217.101L525.892,177.983L565.577,177.983ZM768.098,177.983L768.098,217.101L728.413,217.101L728.413,177.983L768.098,177.983ZM514.953,177.983L514.953,217.101L475.261,217.101L475.261,177.983L514.953,177.983ZM160.577,177.983L160.577,217.101L120.892,217.101L120.892,177.983L160.577,177.983ZM312.446,177.983L312.446,217.101L272.761,217.101L272.761,177.983L312.446,177.983ZM261.823,177.983L261.823,217.101L222.138,217.101L222.138,177.983L261.823,177.983ZM439.798,197.575L439.798,151.937L398.696,151.937L398.696,197.575L439.798,197.575ZM806.023,129.793L806.023,168.911L766.338,168.911L766.338,129.793L806.023,129.793ZM692.163,129.793L692.163,168.911L652.478,168.911L652.478,129.793L692.163,129.793ZM742.787,129.793L742.787,168.911L703.102,168.911L703.102,129.793L742.787,129.793ZM641.522,129.793L641.522,168.911L601.837,168.911L601.837,129.793L641.522,129.793ZM590.892,129.793L590.892,168.911L551.207,168.911L551.207,129.793L590.892,129.793ZM185.892,129.793L185.892,168.911L146.207,168.911L146.207,129.793L185.892,129.793ZM337.769,129.793L337.769,168.911L298.084,168.911L298.084,129.793L337.769,129.793ZM287.138,129.793L287.138,168.911L247.453,168.911L247.453,129.793L287.138,129.793ZM135.269,129.793L135.269,168.911L95.584,168.911L95.584,129.793L135.269,129.793ZM236.515,129.793L236.515,168.911L196.83,168.911L196.83,129.793L236.515,129.793ZM540.269,129.793L540.269,168.911L500.584,168.911L500.584,129.793L540.269,129.793ZM71.995,129.793L71.995,168.911L32.31,168.911L32.31,129.793L71.995,129.793ZM742.643,86.482C742.643,86.721 743.138,86.95 743.307,87.118C743.476,87.287 743.705,87.382 743.944,87.382C747.748,87.382 761.349,87.382 765.154,87.382C765.392,87.382 765.621,87.287 765.79,87.118C765.959,86.95 766.454,86.721 766.454,86.482C766.454,84.857 766.454,81.604 766.454,81.604L805.89,81.604L805.89,120.721L766.454,120.721L766.454,101.929C766.454,101.68 765.955,101.44 765.779,101.264C765.602,101.088 765.363,100.989 765.114,100.989C761.261,100.989 747.837,100.989 743.984,100.989C743.734,100.989 743.495,101.088 743.319,101.264C743.142,101.44 742.643,101.68 742.643,101.929C742.643,105.853 742.643,120.721 742.643,120.721L702.992,120.721L702.992,81.604L742.643,81.604L742.643,86.482ZM692.163,81.604L692.163,120.721L652.478,120.721L652.478,81.604L692.163,81.604ZM641.522,81.604L641.522,120.721L601.837,120.721L601.837,81.604L641.522,81.604ZM287.138,81.604L287.138,120.721L247.453,120.721L247.453,81.604L287.138,81.604ZM236.515,81.604L236.515,120.721L196.83,120.721L196.83,81.604L236.515,81.604ZM185.892,81.604L185.892,120.721L146.207,120.721L146.207,81.604L185.892,81.604ZM337.769,81.604L337.769,120.721L298.084,120.721L298.084,81.604L337.769,81.604ZM590.892,81.604L590.892,120.721L551.207,120.721L551.207,81.604L590.892,81.604ZM388.392,81.604L388.392,120.721L348.707,120.721L348.707,81.604L388.392,81.604ZM489.645,81.604L489.645,120.721L449.953,120.721L449.953,81.604L489.645,81.604ZM540.269,81.604L540.269,120.721L500.584,120.721L500.584,81.604L540.269,81.604ZM86.674,100.989C82.919,100.989 79.87,97.94 79.87,94.185C79.87,90.431 82.919,87.382 86.674,87.382L95.494,87.382L95.494,81.604L135.213,81.604L135.213,120.721L95.494,120.721L95.494,100.989L86.674,100.989ZM71.995,81.604L71.995,120.721L32.31,120.721L32.31,81.604L71.995,81.604ZM363.084,33.414L363.084,72.532L323.399,72.532L323.399,33.414L363.084,33.414ZM717.461,33.414L717.461,72.532L677.776,72.532L677.776,33.414L717.461,33.414ZM211.207,33.414L211.207,72.532L171.522,72.532L171.522,33.414L211.207,33.414ZM514.961,33.414L514.961,72.532L475.276,72.532L475.276,33.414L514.961,33.414ZM261.83,33.414L261.83,72.532L222.145,72.532L222.145,33.414L261.83,33.414ZM59.33,33.414L59.33,72.532L19.645,72.532L19.645,33.414L59.33,33.414ZM109.961,33.414L109.961,72.532L70.276,72.532L70.276,33.414L109.961,33.414ZM818.707,33.414L818.707,72.532L779.022,72.532L779.022,33.414L818.707,33.414ZM666.837,33.414L666.837,72.532L627.145,72.532L627.145,33.414L666.837,33.414ZM616.207,33.414L616.207,72.532L576.522,72.532L576.522,33.414L616.207,33.414ZM768.084,33.414L768.084,72.532L728.399,72.532L728.399,33.414L768.084,33.414ZM565.512,33.414L565.512,72.532L525.827,72.532L525.827,33.414L546.989,33.414L546.989,26.016C546.989,24.69 547.531,23.418 548.496,22.481C549.461,21.543 550.77,21.016 552.134,21.016L556.637,21.016C558.002,21.016 559.311,21.543 560.276,22.481C561.24,23.418 561.783,24.69 561.783,26.016C561.783,29.459 561.783,33.414 561.783,33.414L565.512,33.414ZM312.378,33.414L312.378,72.532L272.693,72.532L272.693,33.414L276.557,33.414L276.557,26.016C276.557,23.255 278.86,21.016 281.702,21.016L286.102,21.016C288.943,21.016 291.247,23.255 291.247,26.016C291.247,29.459 291.247,33.414 291.247,33.414L312.378,33.414ZM160.584,33.414L160.584,72.532L120.899,72.532L120.899,33.414L160.584,33.414Z" style="fill:rgb(26,122,230);stroke:rgb(57,183,255);stroke-width:1px;"/>
        </g>
    </g>
</svg>
