%TF.GenerationSoftware,KiCad,Pcbnew,(6.0.1-0)*%
%TF.CreationDate,2022-03-20T09:12:24+09:00*%
%TF.ProjectId,keyplate,6b657970-6c61-4746-952e-6b696361645f,rev?*%
%TF.SameCoordinates,Original*%
%TF.FileFunction,Profile,NP*%
%FSLAX46Y46*%
G04 Gerber Fmt 4.6, Leading zero omitted, Abs format (unit mm)*
G04 Created by KiCad (PCBNEW (6.0.1-0)) date 2022-03-20 09:12:24*
%MOMM*%
%LPD*%
G01*
G04 APERTURE LIST*
%TA.AperFunction,Profile*%
%ADD10C,0.352776*%
%TD*%
G04 APERTURE END LIST*
D10*
X20971245Y-75199615D02*
X20915399Y-75198203D01*
X20915399Y-75198203D02*
X20860286Y-75194013D01*
X20860286Y-75194013D02*
X20805975Y-75187113D01*
X20805975Y-75187113D02*
X20752534Y-75177571D01*
X20752534Y-75177571D02*
X20700032Y-75165455D01*
X20700032Y-75165455D02*
X20648535Y-75150834D01*
X20648535Y-75150834D02*
X20598113Y-75133775D01*
X20598113Y-75133775D02*
X20548834Y-75114347D01*
X20548834Y-75114347D02*
X20500765Y-75092618D01*
X20500765Y-75092618D02*
X20453976Y-75068656D01*
X20453976Y-75068656D02*
X20408533Y-75042529D01*
X20408533Y-75042529D02*
X20364506Y-75014305D01*
X20364506Y-75014305D02*
X20321962Y-74984053D01*
X20321962Y-74984053D02*
X20280970Y-74951840D01*
X20280970Y-74951840D02*
X20241597Y-74917735D01*
X20241597Y-74917735D02*
X20203912Y-74881806D01*
X20203912Y-74881806D02*
X20167983Y-74844121D01*
X20167983Y-74844121D02*
X20133878Y-74804748D01*
X20133878Y-74804748D02*
X20101665Y-74763756D01*
X20101665Y-74763756D02*
X20071413Y-74721212D01*
X20071413Y-74721212D02*
X20043189Y-74677184D01*
X20043189Y-74677184D02*
X20017062Y-74631742D01*
X20017062Y-74631742D02*
X19993100Y-74584952D01*
X19993100Y-74584952D02*
X19971371Y-74536883D01*
X19971371Y-74536883D02*
X19951943Y-74487604D01*
X19951943Y-74487604D02*
X19934884Y-74437182D01*
X19934884Y-74437182D02*
X19920263Y-74385685D01*
X19920263Y-74385685D02*
X19908147Y-74333183D01*
X19908147Y-74333183D02*
X19898605Y-74279742D01*
X19898605Y-74279742D02*
X19891705Y-74225431D01*
X19891705Y-74225431D02*
X19887515Y-74170318D01*
X19887515Y-74170318D02*
X19886103Y-74114471D01*
X19886103Y-74114471D02*
X19886103Y-74113761D01*
X19886103Y-74113761D02*
X19882947Y-73986533D01*
X19882947Y-73986533D02*
X19873536Y-73860176D01*
X19873536Y-73860176D02*
X19857956Y-73734900D01*
X19857956Y-73734900D02*
X19836296Y-73610918D01*
X19836296Y-73610918D02*
X19808641Y-73488438D01*
X19808641Y-73488438D02*
X19775078Y-73367671D01*
X19775078Y-73367671D02*
X19735695Y-73248827D01*
X19735695Y-73248827D02*
X19690577Y-73132117D01*
X19690577Y-73132117D02*
X19639812Y-73017751D01*
X19639812Y-73017751D02*
X19583487Y-72905940D01*
X19583487Y-72905940D02*
X19521689Y-72796893D01*
X19521689Y-72796893D02*
X19454504Y-72690821D01*
X19454504Y-72690821D02*
X19382018Y-72587935D01*
X19382018Y-72587935D02*
X19304320Y-72488444D01*
X19304320Y-72488444D02*
X19221496Y-72392559D01*
X19221496Y-72392559D02*
X19133631Y-72300491D01*
X19133631Y-72300491D02*
X19041369Y-72212828D01*
X19041369Y-72212828D02*
X18945299Y-72130214D01*
X18945299Y-72130214D02*
X18845633Y-72052733D01*
X18845633Y-72052733D02*
X18742584Y-71980471D01*
X18742584Y-71980471D02*
X18636361Y-71913517D01*
X18636361Y-71913517D02*
X18527177Y-71851954D01*
X18527177Y-71851954D02*
X18415242Y-71795871D01*
X18415242Y-71795871D02*
X18300769Y-71745352D01*
X18300769Y-71745352D02*
X18183968Y-71700485D01*
X18183968Y-71700485D02*
X18065051Y-71661355D01*
X18065051Y-71661355D02*
X17944230Y-71628050D01*
X17944230Y-71628050D02*
X17821715Y-71600654D01*
X17821715Y-71600654D02*
X17697717Y-71579255D01*
X17697717Y-71579255D02*
X17572449Y-71563938D01*
X17572449Y-71563938D02*
X17446122Y-71554791D01*
X17446122Y-71554791D02*
X17318947Y-71551898D01*
X17318947Y-71551898D02*
X16692063Y-71552955D01*
X16692063Y-71552955D02*
X16604531Y-71550977D01*
X16604531Y-71550977D02*
X16517582Y-71544686D01*
X16517582Y-71544686D02*
X16431362Y-71534141D01*
X16431362Y-71534141D02*
X16346016Y-71519404D01*
X16346016Y-71519404D02*
X16261689Y-71500535D01*
X16261689Y-71500535D02*
X16178526Y-71477595D01*
X16178526Y-71477595D02*
X16096673Y-71450643D01*
X16096673Y-71450643D02*
X16016274Y-71419741D01*
X16016274Y-71419741D02*
X15937475Y-71384948D01*
X15937475Y-71384948D02*
X15860422Y-71346326D01*
X15860422Y-71346326D02*
X15785259Y-71303934D01*
X15785259Y-71303934D02*
X15712131Y-71257833D01*
X15712131Y-71257833D02*
X15641184Y-71208084D01*
X15641184Y-71208084D02*
X15572563Y-71154747D01*
X15572563Y-71154747D02*
X15506413Y-71097883D01*
X15506413Y-71097883D02*
X15442879Y-71037551D01*
X15442879Y-71037551D02*
X15382415Y-70974145D01*
X15382415Y-70974145D02*
X15325418Y-70908114D01*
X15325418Y-70908114D02*
X15271947Y-70839602D01*
X15271947Y-70839602D02*
X15222063Y-70768755D01*
X15222063Y-70768755D02*
X15175825Y-70695717D01*
X15175825Y-70695717D02*
X15133293Y-70620633D01*
X15133293Y-70620633D02*
X15094527Y-70543647D01*
X15094527Y-70543647D02*
X15059587Y-70464904D01*
X15059587Y-70464904D02*
X15028534Y-70384549D01*
X15028534Y-70384549D02*
X15001426Y-70302726D01*
X15001426Y-70302726D02*
X14978325Y-70219580D01*
X14978325Y-70219580D02*
X14959289Y-70135257D01*
X14959289Y-70135257D02*
X14944379Y-70049900D01*
X14944379Y-70049900D02*
X14933655Y-69963653D01*
X14933655Y-69963653D02*
X14927176Y-69876663D01*
X14927176Y-69876663D02*
X14925003Y-69789073D01*
X14925003Y-69789073D02*
X14926061Y-19574458D01*
X14926061Y-19574458D02*
X14932059Y-19417472D01*
X14932059Y-19417472D02*
X14950050Y-19261192D01*
X14950050Y-19261192D02*
X14981094Y-19107382D01*
X14981094Y-19107382D02*
X15023075Y-18955334D01*
X15023075Y-18955334D02*
X15078108Y-18808226D01*
X15078108Y-18808226D02*
X15143019Y-18666410D01*
X15143019Y-18666410D02*
X15219924Y-18529180D01*
X15219924Y-18529180D02*
X15307060Y-18398300D01*
X15307060Y-18398300D02*
X15405132Y-18275180D01*
X15405132Y-18275180D02*
X15510966Y-18159470D01*
X15510966Y-18159470D02*
X15627028Y-18053284D01*
X15627028Y-18053284D02*
X15750148Y-17955212D01*
X15750148Y-17955212D02*
X15881028Y-17868429D01*
X15881028Y-17868429D02*
X16017906Y-17791171D01*
X16017906Y-17791171D02*
X16160075Y-17726260D01*
X16160075Y-17726260D02*
X16307183Y-17671226D01*
X16307183Y-17671226D02*
X16458877Y-17629246D01*
X16458877Y-17629246D02*
X16613040Y-17598202D01*
X16613040Y-17598202D02*
X16768968Y-17580210D01*
X16768968Y-17580210D02*
X16925953Y-17573154D01*
X16925953Y-17573154D02*
X298300451Y-17574212D01*
X298300451Y-17574212D02*
X298456365Y-17580210D01*
X298456365Y-17580210D02*
X298612310Y-17598202D01*
X298612310Y-17598202D02*
X298766454Y-17629246D01*
X298766454Y-17629246D02*
X298919225Y-17671226D01*
X298919225Y-17671226D02*
X299065283Y-17726260D01*
X299065283Y-17726260D02*
X299207433Y-17791171D01*
X299207433Y-17791171D02*
X299344305Y-17868429D01*
X299344305Y-17868429D02*
X299475195Y-17955212D01*
X299475195Y-17955212D02*
X299598303Y-18053284D01*
X299598303Y-18053284D02*
X299714391Y-18159470D01*
X299714391Y-18159470D02*
X299820196Y-18275180D01*
X299820196Y-18275180D02*
X299919347Y-18398300D01*
X299919347Y-18398300D02*
X300005407Y-18529180D01*
X300005407Y-18529180D02*
X300082311Y-18666410D01*
X300082311Y-18666410D02*
X300147222Y-18808226D01*
X300147222Y-18808226D02*
X300202276Y-18955334D01*
X300202276Y-18955334D02*
X300244268Y-19107382D01*
X300244268Y-19107382D02*
X300275305Y-19261192D01*
X300275305Y-19261192D02*
X300294347Y-19417472D01*
X300294347Y-19417472D02*
X300300329Y-19574458D01*
X300300329Y-19574458D02*
X300300329Y-69788719D01*
X300300329Y-69788719D02*
X300298160Y-69876243D01*
X300298160Y-69876243D02*
X300291694Y-69963169D01*
X300291694Y-69963169D02*
X300280988Y-70049351D01*
X300280988Y-70049351D02*
X300266104Y-70134646D01*
X300266104Y-70134646D02*
X300247101Y-70218910D01*
X300247101Y-70218910D02*
X300224037Y-70301997D01*
X300224037Y-70301997D02*
X300196973Y-70383765D01*
X300196973Y-70383765D02*
X300165968Y-70464069D01*
X300165968Y-70464069D02*
X300131081Y-70542764D01*
X300131081Y-70542764D02*
X300092371Y-70619707D01*
X300092371Y-70619707D02*
X300049899Y-70694754D01*
X300049899Y-70694754D02*
X300003724Y-70767759D01*
X300003724Y-70767759D02*
X299953905Y-70838580D01*
X299953905Y-70838580D02*
X299900501Y-70907072D01*
X299900501Y-70907072D02*
X299843572Y-70973090D01*
X299843572Y-70973090D02*
X299783178Y-71036491D01*
X299783178Y-71036491D02*
X299719768Y-71096823D01*
X299719768Y-71096823D02*
X299653734Y-71153688D01*
X299653734Y-71153688D02*
X299585222Y-71207028D01*
X299585222Y-71207028D02*
X299514377Y-71256784D01*
X299514377Y-71256784D02*
X299441343Y-71302895D01*
X299441343Y-71302895D02*
X299366267Y-71345303D01*
X299366267Y-71345303D02*
X299289292Y-71383947D01*
X299289292Y-71383947D02*
X299210565Y-71418769D01*
X299210565Y-71418769D02*
X299130231Y-71449709D01*
X299130231Y-71449709D02*
X299048434Y-71476708D01*
X299048434Y-71476708D02*
X298965319Y-71499707D01*
X298965319Y-71499707D02*
X298881033Y-71518645D01*
X298881033Y-71518645D02*
X298795720Y-71533463D01*
X298795720Y-71533463D02*
X298709525Y-71544103D01*
X298709525Y-71544103D02*
X298622593Y-71550504D01*
X298622593Y-71550504D02*
X298535070Y-71552608D01*
X298535070Y-71552608D02*
X297904272Y-71551898D01*
X297904272Y-71551898D02*
X297777106Y-71555051D01*
X297777106Y-71555051D02*
X297650803Y-71564449D01*
X297650803Y-71564449D02*
X297525573Y-71580006D01*
X297525573Y-71580006D02*
X297401625Y-71601634D01*
X297401625Y-71601634D02*
X297279170Y-71629247D01*
X297279170Y-71629247D02*
X297158417Y-71662756D01*
X297158417Y-71662756D02*
X297039576Y-71702075D01*
X297039576Y-71702075D02*
X296922857Y-71747116D01*
X296922857Y-71747116D02*
X296808470Y-71797791D01*
X296808470Y-71797791D02*
X296696624Y-71854014D01*
X296696624Y-71854014D02*
X296587530Y-71915697D01*
X296587530Y-71915697D02*
X296481396Y-71982753D01*
X296481396Y-71982753D02*
X296378434Y-72055095D01*
X296378434Y-72055095D02*
X296278853Y-72132635D01*
X296278853Y-72132635D02*
X296182863Y-72215285D01*
X296182863Y-72215285D02*
X296090673Y-72302959D01*
X296090673Y-72302959D02*
X296002994Y-72395152D01*
X296002994Y-72395152D02*
X295920338Y-72491145D01*
X295920338Y-72491145D02*
X295842794Y-72590729D01*
X295842794Y-72590729D02*
X295770449Y-72693694D01*
X295770449Y-72693694D02*
X295703389Y-72799829D01*
X295703389Y-72799829D02*
X295641703Y-72908925D01*
X295641703Y-72908925D02*
X295585477Y-73020773D01*
X295585477Y-73020773D02*
X295534799Y-73135162D01*
X295534799Y-73135162D02*
X295489757Y-73251882D01*
X295489757Y-73251882D02*
X295450436Y-73370724D01*
X295450436Y-73370724D02*
X295416926Y-73491478D01*
X295416926Y-73491478D02*
X295389312Y-73613935D01*
X295389312Y-73613935D02*
X295367683Y-73737883D01*
X295367683Y-73737883D02*
X295352125Y-73863114D01*
X295352125Y-73863114D02*
X295342727Y-73989418D01*
X295342727Y-73989418D02*
X295339575Y-74116584D01*
X295339575Y-74116584D02*
X295339575Y-74121173D01*
X295339575Y-74121173D02*
X295338249Y-74174662D01*
X295338249Y-74174662D02*
X295334298Y-74227782D01*
X295334298Y-74227782D02*
X295327757Y-74280446D01*
X295327757Y-74280446D02*
X295318662Y-74332568D01*
X295318662Y-74332568D02*
X295307050Y-74384059D01*
X295307050Y-74384059D02*
X295292956Y-74434833D01*
X295292956Y-74434833D02*
X295276416Y-74484801D01*
X295276416Y-74484801D02*
X295257467Y-74533877D01*
X295257467Y-74533877D02*
X295236145Y-74581974D01*
X295236145Y-74581974D02*
X295212486Y-74629003D01*
X295212486Y-74629003D02*
X295186525Y-74674877D01*
X295186525Y-74674877D02*
X295158300Y-74719510D01*
X295158300Y-74719510D02*
X295127846Y-74762814D01*
X295127846Y-74762814D02*
X295095200Y-74804701D01*
X295095200Y-74804701D02*
X295060397Y-74845084D01*
X295060397Y-74845084D02*
X295023473Y-74883876D01*
X295023473Y-74883876D02*
X294984747Y-74920733D01*
X294984747Y-74920733D02*
X294944422Y-74955479D01*
X294944422Y-74955479D02*
X294902585Y-74988075D01*
X294902585Y-74988075D02*
X294859324Y-75018487D01*
X294859324Y-75018487D02*
X294814728Y-75046677D01*
X294814728Y-75046677D02*
X294768884Y-75072608D01*
X294768884Y-75072608D02*
X294721879Y-75096243D01*
X294721879Y-75096243D02*
X294673803Y-75117547D01*
X294673803Y-75117547D02*
X294624743Y-75136482D01*
X294624743Y-75136482D02*
X294574786Y-75153011D01*
X294574786Y-75153011D02*
X294524021Y-75167098D01*
X294524021Y-75167098D02*
X294472535Y-75178706D01*
X294472535Y-75178706D02*
X294420416Y-75187799D01*
X294420416Y-75187799D02*
X294367753Y-75194339D01*
X294367753Y-75194339D02*
X294314633Y-75198290D01*
X294314633Y-75198290D02*
X294261144Y-75199615D01*
X294261144Y-75199615D02*
X284536504Y-75199615D01*
X284536504Y-75199615D02*
X284536504Y-88999542D01*
X284536504Y-88999542D02*
X298536443Y-88999542D01*
X298536443Y-88999542D02*
X298623909Y-89001706D01*
X298623909Y-89001706D02*
X298710782Y-89008161D01*
X298710782Y-89008161D02*
X298796918Y-89018847D01*
X298796918Y-89018847D02*
X298882173Y-89033705D01*
X298882173Y-89033705D02*
X298966402Y-89052677D01*
X298966402Y-89052677D02*
X299049460Y-89075703D01*
X299049460Y-89075703D02*
X299131204Y-89102724D01*
X299131204Y-89102724D02*
X299211488Y-89133683D01*
X299211488Y-89133683D02*
X299290169Y-89168519D01*
X299290169Y-89168519D02*
X299367101Y-89207174D01*
X299367101Y-89207174D02*
X299442139Y-89249589D01*
X299442139Y-89249589D02*
X299515141Y-89295706D01*
X299515141Y-89295706D02*
X299585960Y-89345465D01*
X299585960Y-89345465D02*
X299654453Y-89398807D01*
X299654453Y-89398807D02*
X299720474Y-89455674D01*
X299720474Y-89455674D02*
X299783880Y-89516006D01*
X299783880Y-89516006D02*
X299844151Y-89579407D01*
X299844151Y-89579407D02*
X299900971Y-89645425D01*
X299900971Y-89645425D02*
X299954281Y-89713914D01*
X299954281Y-89713914D02*
X300004020Y-89784732D01*
X300004020Y-89784732D02*
X300050127Y-89857732D01*
X300050127Y-89857732D02*
X300092543Y-89932771D01*
X300092543Y-89932771D02*
X300131206Y-90009703D01*
X300131206Y-90009703D02*
X300166055Y-90088384D01*
X300166055Y-90088384D02*
X300197032Y-90168669D01*
X300197032Y-90168669D02*
X300224074Y-90250414D01*
X300224074Y-90250414D02*
X300247122Y-90333473D01*
X300247122Y-90333473D02*
X300266115Y-90417702D01*
X300266115Y-90417702D02*
X300280993Y-90502957D01*
X300280993Y-90502957D02*
X300291695Y-90589093D01*
X300291695Y-90589093D02*
X300298160Y-90675964D01*
X300298160Y-90675964D02*
X300300329Y-90763427D01*
X300300329Y-90763427D02*
X300300329Y-110500930D01*
X300300329Y-110500930D02*
X300294347Y-110656150D01*
X300294347Y-110656150D02*
X300275305Y-110812087D01*
X300275305Y-110812087D02*
X300244268Y-110966247D01*
X300244268Y-110966247D02*
X300202276Y-111117950D01*
X300202276Y-111117950D02*
X300147222Y-111266105D01*
X300147222Y-111266105D02*
X300082311Y-111407211D01*
X300082311Y-111407211D02*
X300005407Y-111544090D01*
X300005407Y-111544090D02*
X299919347Y-111674980D01*
X299919347Y-111674980D02*
X299820196Y-111799163D01*
X299820196Y-111799163D02*
X299714391Y-111915214D01*
X299714391Y-111915214D02*
X299598303Y-112019988D01*
X299598303Y-112019988D02*
X299475195Y-112118064D01*
X299475195Y-112118064D02*
X299344305Y-112205200D01*
X299344305Y-112205200D02*
X299207433Y-112282104D01*
X299207433Y-112282104D02*
X299065283Y-112347015D01*
X299065283Y-112347015D02*
X298919225Y-112403106D01*
X298919225Y-112403106D02*
X298766454Y-112445091D01*
X298766454Y-112445091D02*
X298612310Y-112475074D01*
X298612310Y-112475074D02*
X298456365Y-112493064D01*
X298456365Y-112493064D02*
X298300451Y-112499061D01*
X298300451Y-112499061D02*
X16925953Y-112501182D01*
X16925953Y-112501182D02*
X16768968Y-112493064D01*
X16768968Y-112493064D02*
X16613040Y-112475074D01*
X16613040Y-112475074D02*
X16458877Y-112445091D01*
X16458877Y-112445091D02*
X16307183Y-112403106D01*
X16307183Y-112403106D02*
X16160075Y-112347015D01*
X16160075Y-112347015D02*
X16017906Y-112282104D01*
X16017906Y-112282104D02*
X15881028Y-112205200D01*
X15881028Y-112205200D02*
X15750148Y-112118064D01*
X15750148Y-112118064D02*
X15627028Y-112019988D01*
X15627028Y-112019988D02*
X15510966Y-111915214D01*
X15510966Y-111915214D02*
X15405132Y-111799163D01*
X15405132Y-111799163D02*
X15307060Y-111674980D01*
X15307060Y-111674980D02*
X15219924Y-111544090D01*
X15219924Y-111544090D02*
X15143019Y-111407211D01*
X15143019Y-111407211D02*
X15078108Y-111266105D01*
X15078108Y-111266105D02*
X15023075Y-111117950D01*
X15023075Y-111117950D02*
X14981094Y-110966247D01*
X14981094Y-110966247D02*
X14950050Y-110812087D01*
X14950050Y-110812087D02*
X14932059Y-110656150D01*
X14932059Y-110656150D02*
X14925003Y-110500930D01*
X14925003Y-110500930D02*
X14925003Y-90763427D01*
X14925003Y-90763427D02*
X14927172Y-90675964D01*
X14927172Y-90675964D02*
X14933638Y-90589093D01*
X14933638Y-90589093D02*
X14944341Y-90502957D01*
X14944341Y-90502957D02*
X14959222Y-90417702D01*
X14959222Y-90417702D02*
X14978221Y-90333473D01*
X14978221Y-90333473D02*
X15001277Y-90250414D01*
X15001277Y-90250414D02*
X15028331Y-90168669D01*
X15028331Y-90168669D02*
X15059323Y-90088384D01*
X15059323Y-90088384D02*
X15094192Y-90009703D01*
X15094192Y-90009703D02*
X15132879Y-89932771D01*
X15132879Y-89932771D02*
X15175324Y-89857732D01*
X15175324Y-89857732D02*
X15221468Y-89784732D01*
X15221468Y-89784732D02*
X15271249Y-89713914D01*
X15271249Y-89713914D02*
X15324608Y-89645425D01*
X15324608Y-89645425D02*
X15381485Y-89579407D01*
X15381485Y-89579407D02*
X15441821Y-89516006D01*
X15441821Y-89516006D02*
X15505160Y-89455674D01*
X15505160Y-89455674D02*
X15571124Y-89398807D01*
X15571124Y-89398807D02*
X15639567Y-89345465D01*
X15639567Y-89345465D02*
X15710345Y-89295706D01*
X15710345Y-89295706D02*
X15783311Y-89249589D01*
X15783311Y-89249589D02*
X15858322Y-89207174D01*
X15858322Y-89207174D02*
X15935230Y-89168519D01*
X15935230Y-89168519D02*
X16013893Y-89133683D01*
X16013893Y-89133683D02*
X16094163Y-89102724D01*
X16094163Y-89102724D02*
X16175897Y-89075703D01*
X16175897Y-89075703D02*
X16258948Y-89052677D01*
X16258948Y-89052677D02*
X16343171Y-89033705D01*
X16343171Y-89033705D02*
X16428422Y-89018847D01*
X16428422Y-89018847D02*
X16514555Y-89008161D01*
X16514555Y-89008161D02*
X16601426Y-89001706D01*
X16601426Y-89001706D02*
X16688887Y-88999542D01*
X16688887Y-88999542D02*
X30636980Y-88999542D01*
X30636980Y-88999542D02*
X30636980Y-75199615D01*
X30636980Y-75199615D02*
X20971245Y-75199615D01*
X20971245Y-75199615D02*
X20971245Y-75199615D01*
X231591055Y-92205223D02*
X231591055Y-106004791D01*
X231591055Y-106004791D02*
X217591085Y-106004791D01*
X217591085Y-106004791D02*
X217591085Y-92205223D01*
X217591085Y-92205223D02*
X231591055Y-92205223D01*
X231591055Y-92205223D02*
X231591055Y-92205223D01*
X186937963Y-92203460D02*
X186937963Y-106003028D01*
X186937963Y-106003028D02*
X172938009Y-106003028D01*
X172938009Y-106003028D02*
X172938009Y-92203460D01*
X172938009Y-92203460D02*
X186937963Y-92203460D01*
X186937963Y-92203460D02*
X186937963Y-92203460D01*
X209262014Y-92203460D02*
X209262014Y-106003028D01*
X209262014Y-106003028D02*
X195262075Y-106003028D01*
X195262075Y-106003028D02*
X195262075Y-92203460D01*
X195262075Y-92203460D02*
X209262014Y-92203460D01*
X209262014Y-92203460D02*
X209262014Y-92203460D01*
X253907354Y-92203460D02*
X253907354Y-106003028D01*
X253907354Y-106003028D02*
X239907400Y-106003028D01*
X239907400Y-106003028D02*
X239907400Y-92203460D01*
X239907400Y-92203460D02*
X253907354Y-92203460D01*
X253907354Y-92203460D02*
X253907354Y-92203460D01*
X142292623Y-92203460D02*
X142292623Y-106003028D01*
X142292623Y-106003028D02*
X128292677Y-106003028D01*
X128292677Y-106003028D02*
X128292677Y-92203460D01*
X128292677Y-92203460D02*
X142292623Y-92203460D01*
X142292623Y-92203460D02*
X142292623Y-92203460D01*
X97636717Y-92201690D02*
X97636717Y-106001266D01*
X97636717Y-106001266D02*
X83636770Y-106001266D01*
X83636770Y-106001266D02*
X83636770Y-92201690D01*
X83636770Y-92201690D02*
X97636717Y-92201690D01*
X97636717Y-92201690D02*
X97636717Y-92201690D01*
X75315466Y-92201690D02*
X75315466Y-106001266D01*
X75315466Y-106001266D02*
X61315515Y-106001266D01*
X61315515Y-106001266D02*
X61315515Y-92201690D01*
X61315515Y-92201690D02*
X75315466Y-92201690D01*
X75315466Y-92201690D02*
X75315466Y-92201690D01*
X119958318Y-92201690D02*
X119958318Y-106001266D01*
X119958318Y-106001266D02*
X105958379Y-106001266D01*
X105958379Y-106001266D02*
X105958379Y-92201690D01*
X105958379Y-92201690D02*
X119958318Y-92201690D01*
X119958318Y-92201690D02*
X119958318Y-92201690D01*
X244976812Y-75199615D02*
X244976812Y-88999542D01*
X244976812Y-88999542D02*
X230974371Y-88999542D01*
X230974371Y-88999542D02*
X230974371Y-75199615D01*
X230974371Y-75199615D02*
X244976812Y-75199615D01*
X244976812Y-75199615D02*
X244976812Y-75199615D01*
X48521005Y-75199615D02*
X48521005Y-88999542D01*
X48521005Y-88999542D02*
X34521053Y-88999542D01*
X34521053Y-88999542D02*
X34521053Y-75199615D01*
X34521053Y-75199615D02*
X48521005Y-75199615D01*
X48521005Y-75199615D02*
X48521005Y-75199615D01*
X280704290Y-75199615D02*
X280704290Y-88999542D01*
X280704290Y-88999542D02*
X266704351Y-88999542D01*
X266704351Y-88999542D02*
X266704351Y-75199615D01*
X266704351Y-75199615D02*
X280704290Y-75199615D01*
X280704290Y-75199615D02*
X280704290Y-75199615D01*
X191400579Y-75199615D02*
X191400579Y-88999542D01*
X191400579Y-88999542D02*
X177398153Y-88999542D01*
X177398153Y-88999542D02*
X177398153Y-75199615D01*
X177398153Y-75199615D02*
X191400579Y-75199615D01*
X191400579Y-75199615D02*
X191400579Y-75199615D01*
X209259573Y-75199615D02*
X209259573Y-88999542D01*
X209259573Y-88999542D02*
X195259618Y-88999542D01*
X195259618Y-88999542D02*
X195259618Y-75199615D01*
X195259618Y-75199615D02*
X209259573Y-75199615D01*
X209259573Y-75199615D02*
X209259573Y-75199615D01*
X119960798Y-75199615D02*
X119960798Y-88999542D01*
X119960798Y-88999542D02*
X105960836Y-88999542D01*
X105960836Y-88999542D02*
X105960836Y-75199615D01*
X105960836Y-75199615D02*
X119960798Y-75199615D01*
X119960798Y-75199615D02*
X119960798Y-75199615D01*
X227118185Y-75199615D02*
X227118185Y-88999542D01*
X227118185Y-88999542D02*
X213118246Y-88999542D01*
X213118246Y-88999542D02*
X213118246Y-75199615D01*
X213118246Y-75199615D02*
X227118185Y-75199615D01*
X227118185Y-75199615D02*
X227118185Y-75199615D01*
X137822241Y-75199615D02*
X137822241Y-88999542D01*
X137822241Y-88999542D02*
X123822286Y-88999542D01*
X123822286Y-88999542D02*
X123822286Y-75199615D01*
X123822286Y-75199615D02*
X137822241Y-75199615D01*
X137822241Y-75199615D02*
X137822241Y-75199615D01*
X84243543Y-75199615D02*
X84243543Y-88999542D01*
X84243543Y-88999542D02*
X70243593Y-88999542D01*
X70243593Y-88999542D02*
X70243593Y-75199615D01*
X70243593Y-75199615D02*
X84243543Y-75199615D01*
X84243543Y-75199615D02*
X84243543Y-75199615D01*
X102102171Y-75199615D02*
X102102171Y-88999542D01*
X102102171Y-88999542D02*
X88102216Y-88999542D01*
X88102216Y-88999542D02*
X88102216Y-75199615D01*
X88102216Y-75199615D02*
X102102171Y-75199615D01*
X102102171Y-75199615D02*
X102102171Y-75199615D01*
X262845648Y-75199615D02*
X262845648Y-88999542D01*
X262845648Y-88999542D02*
X248845693Y-88999542D01*
X248845693Y-88999542D02*
X248845693Y-75199615D01*
X248845693Y-75199615D02*
X262845648Y-75199615D01*
X262845648Y-75199615D02*
X262845648Y-75199615D01*
X66384916Y-75199615D02*
X66384916Y-88999542D01*
X66384916Y-88999542D02*
X52384969Y-88999542D01*
X52384969Y-88999542D02*
X52384969Y-75199615D01*
X52384969Y-75199615D02*
X66384916Y-75199615D01*
X66384916Y-75199615D02*
X66384916Y-75199615D01*
X294083349Y-58199291D02*
X294083349Y-71999217D01*
X294083349Y-71999217D02*
X280083410Y-71999217D01*
X280083410Y-71999217D02*
X280083410Y-58199291D01*
X280083410Y-58199291D02*
X294083349Y-58199291D01*
X294083349Y-58199291D02*
X294083349Y-58199291D01*
X253916189Y-58199291D02*
X253916189Y-71999217D01*
X253916189Y-71999217D02*
X239916235Y-71999217D01*
X239916235Y-71999217D02*
X239916235Y-58199291D01*
X239916235Y-58199291D02*
X253916189Y-58199291D01*
X253916189Y-58199291D02*
X253916189Y-58199291D01*
X271775152Y-58199291D02*
X271775152Y-71999217D01*
X271775152Y-71999217D02*
X257775198Y-71999217D01*
X257775198Y-71999217D02*
X257775198Y-58199291D01*
X257775198Y-58199291D02*
X271775152Y-58199291D01*
X271775152Y-58199291D02*
X271775152Y-58199291D01*
X236051199Y-58199291D02*
X236051199Y-71999217D01*
X236051199Y-71999217D02*
X222051244Y-71999217D01*
X222051244Y-71999217D02*
X222051244Y-58199291D01*
X222051244Y-58199291D02*
X236051199Y-58199291D01*
X236051199Y-58199291D02*
X236051199Y-58199291D01*
X200331472Y-58199291D02*
X200331472Y-71999217D01*
X200331472Y-71999217D02*
X186331548Y-71999217D01*
X186331548Y-71999217D02*
X186331548Y-58199291D01*
X186331548Y-58199291D02*
X200331472Y-58199291D01*
X200331472Y-58199291D02*
X200331472Y-58199291D01*
X128894170Y-58199291D02*
X128894170Y-71999217D01*
X128894170Y-71999217D02*
X114894216Y-71999217D01*
X114894216Y-71999217D02*
X114894216Y-58199291D01*
X114894216Y-58199291D02*
X128894170Y-58199291D01*
X128894170Y-58199291D02*
X128894170Y-58199291D01*
X75315466Y-58199291D02*
X75315466Y-71999217D01*
X75315466Y-71999217D02*
X61315515Y-71999217D01*
X61315515Y-71999217D02*
X61315515Y-58199291D01*
X61315515Y-58199291D02*
X75315466Y-58199291D01*
X75315466Y-58199291D02*
X75315466Y-58199291D01*
X93174085Y-58199291D02*
X93174085Y-71999217D01*
X93174085Y-71999217D02*
X79174146Y-71999217D01*
X79174146Y-71999217D02*
X79174146Y-58199291D01*
X79174146Y-58199291D02*
X93174085Y-58199291D01*
X93174085Y-58199291D02*
X93174085Y-58199291D01*
X57456842Y-58199291D02*
X57456842Y-71999217D01*
X57456842Y-71999217D02*
X43456892Y-71999217D01*
X43456892Y-71999217D02*
X43456892Y-58199291D01*
X43456892Y-58199291D02*
X57456842Y-58199291D01*
X57456842Y-58199291D02*
X57456842Y-58199291D01*
X218190115Y-58199291D02*
X218190115Y-71999217D01*
X218190115Y-71999217D02*
X204190145Y-71999217D01*
X204190145Y-71999217D02*
X204190145Y-58199291D01*
X204190145Y-58199291D02*
X218190115Y-58199291D01*
X218190115Y-58199291D02*
X218190115Y-58199291D01*
X182472509Y-58199291D02*
X182472509Y-71999217D01*
X182472509Y-71999217D02*
X168470083Y-71999217D01*
X168470083Y-71999217D02*
X168470083Y-58199291D01*
X168470083Y-58199291D02*
X182472509Y-58199291D01*
X182472509Y-58199291D02*
X182472509Y-58199291D01*
X146752798Y-58199291D02*
X146752798Y-71999217D01*
X146752798Y-71999217D02*
X132752836Y-71999217D01*
X132752836Y-71999217D02*
X132752836Y-58199291D01*
X132752836Y-58199291D02*
X146752798Y-58199291D01*
X146752798Y-58199291D02*
X146752798Y-58199291D01*
X111032720Y-58199291D02*
X111032720Y-71999217D01*
X111032720Y-71999217D02*
X97032766Y-71999217D01*
X97032766Y-71999217D02*
X97032766Y-58199291D01*
X97032766Y-58199291D02*
X111032720Y-58199291D01*
X111032720Y-58199291D02*
X111032720Y-58199291D01*
X35135240Y-58199291D02*
X35135240Y-71999217D01*
X35135240Y-71999217D02*
X21135288Y-71999217D01*
X21135288Y-71999217D02*
X21135288Y-58199291D01*
X21135288Y-58199291D02*
X35135240Y-58199291D01*
X35135240Y-58199291D02*
X35135240Y-58199291D01*
X271724340Y-42920175D02*
X271724843Y-42928068D01*
X271724843Y-42928068D02*
X271726316Y-42935938D01*
X271726316Y-42935938D02*
X271728706Y-42943780D01*
X271728706Y-42943780D02*
X271731960Y-42951592D01*
X271731960Y-42951592D02*
X271736025Y-42959370D01*
X271736025Y-42959370D02*
X271740848Y-42967110D01*
X271740848Y-42967110D02*
X271746376Y-42974810D01*
X271746376Y-42974810D02*
X271752557Y-42982467D01*
X271752557Y-42982467D02*
X271759336Y-42990076D01*
X271759336Y-42990076D02*
X271766661Y-42997636D01*
X271766661Y-42997636D02*
X271782736Y-43012590D01*
X271782736Y-43012590D02*
X271800359Y-43027303D01*
X271800359Y-43027303D02*
X271819105Y-43041749D01*
X271819105Y-43041749D02*
X271838550Y-43055902D01*
X271838550Y-43055902D02*
X271858269Y-43069735D01*
X271858269Y-43069735D02*
X271896834Y-43096336D01*
X271896834Y-43096336D02*
X271914832Y-43109051D01*
X271914832Y-43109051D02*
X271931407Y-43121340D01*
X271931407Y-43121340D02*
X271946135Y-43133178D01*
X271946135Y-43133178D02*
X271958593Y-43144538D01*
X271958593Y-43144538D02*
X271970018Y-43155410D01*
X271970018Y-43155410D02*
X271981912Y-43165658D01*
X271981912Y-43165658D02*
X271994250Y-43175273D01*
X271994250Y-43175273D02*
X272007006Y-43184244D01*
X272007006Y-43184244D02*
X272020155Y-43192559D01*
X272020155Y-43192559D02*
X272033670Y-43200208D01*
X272033670Y-43200208D02*
X272047526Y-43207180D01*
X272047526Y-43207180D02*
X272061697Y-43213464D01*
X272061697Y-43213464D02*
X272076156Y-43219050D01*
X272076156Y-43219050D02*
X272090879Y-43223926D01*
X272090879Y-43223926D02*
X272105839Y-43228082D01*
X272105839Y-43228082D02*
X272121011Y-43231506D01*
X272121011Y-43231506D02*
X272136368Y-43234188D01*
X272136368Y-43234188D02*
X272151884Y-43236118D01*
X272151884Y-43236118D02*
X272167535Y-43237283D01*
X272167535Y-43237283D02*
X272183294Y-43237674D01*
X272183294Y-43237674D02*
X279665716Y-43237674D01*
X279665716Y-43237674D02*
X279681421Y-43237283D01*
X279681421Y-43237283D02*
X279697023Y-43236118D01*
X279697023Y-43236118D02*
X279712498Y-43234188D01*
X279712498Y-43234188D02*
X279727818Y-43231506D01*
X279727818Y-43231506D02*
X279742958Y-43228082D01*
X279742958Y-43228082D02*
X279757891Y-43223926D01*
X279757891Y-43223926D02*
X279772590Y-43219050D01*
X279772590Y-43219050D02*
X279787031Y-43213464D01*
X279787031Y-43213464D02*
X279801186Y-43207180D01*
X279801186Y-43207180D02*
X279815030Y-43200208D01*
X279815030Y-43200208D02*
X279828536Y-43192559D01*
X279828536Y-43192559D02*
X279841677Y-43184244D01*
X279841677Y-43184244D02*
X279854429Y-43175273D01*
X279854429Y-43175273D02*
X279866764Y-43165658D01*
X279866764Y-43165658D02*
X279878657Y-43155410D01*
X279878657Y-43155410D02*
X279890081Y-43144538D01*
X279890081Y-43144538D02*
X279902533Y-43133178D01*
X279902533Y-43133178D02*
X279917257Y-43121340D01*
X279917257Y-43121340D02*
X279933828Y-43109051D01*
X279933828Y-43109051D02*
X279951822Y-43096336D01*
X279951822Y-43096336D02*
X279990382Y-43069735D01*
X279990382Y-43069735D02*
X280029543Y-43041749D01*
X280029543Y-43041749D02*
X280048287Y-43027303D01*
X280048287Y-43027303D02*
X280065909Y-43012590D01*
X280065909Y-43012590D02*
X280081984Y-42997636D01*
X280081984Y-42997636D02*
X280096088Y-42982467D01*
X280096088Y-42982467D02*
X280102268Y-42974810D01*
X280102268Y-42974810D02*
X280107796Y-42967110D01*
X280107796Y-42967110D02*
X280112619Y-42959370D01*
X280112619Y-42959370D02*
X280116684Y-42951592D01*
X280116684Y-42951592D02*
X280119938Y-42943780D01*
X280119938Y-42943780D02*
X280122328Y-42935938D01*
X280122328Y-42935938D02*
X280123801Y-42928068D01*
X280123801Y-42928068D02*
X280124304Y-42920175D01*
X280124304Y-42920175D02*
X280124304Y-41199327D01*
X280124304Y-41199327D02*
X294036443Y-41199327D01*
X294036443Y-41199327D02*
X294036443Y-54998901D01*
X294036443Y-54998901D02*
X280124304Y-54998901D01*
X280124304Y-54998901D02*
X280124304Y-48369518D01*
X280124304Y-48369518D02*
X280123797Y-48361293D01*
X280123797Y-48361293D02*
X280122312Y-48353090D01*
X280122312Y-48353090D02*
X280119901Y-48344912D01*
X280119901Y-48344912D02*
X280116619Y-48336764D01*
X280116619Y-48336764D02*
X280112517Y-48328649D01*
X280112517Y-48328649D02*
X280107650Y-48320570D01*
X280107650Y-48320570D02*
X280102070Y-48312531D01*
X280102070Y-48312531D02*
X280095830Y-48304536D01*
X280095830Y-48304536D02*
X280088983Y-48296587D01*
X280088983Y-48296587D02*
X280081583Y-48288690D01*
X280081583Y-48288690D02*
X280065335Y-48273060D01*
X280065335Y-48273060D02*
X280047509Y-48257675D01*
X280047509Y-48257675D02*
X280028532Y-48242564D01*
X280028532Y-48242564D02*
X280008827Y-48227754D01*
X280008827Y-48227754D02*
X279988819Y-48213274D01*
X279988819Y-48213274D02*
X279949595Y-48185419D01*
X279949595Y-48185419D02*
X279931228Y-48172101D01*
X279931228Y-48172101D02*
X279914258Y-48159226D01*
X279914258Y-48159226D02*
X279899109Y-48146823D01*
X279899109Y-48146823D02*
X279886205Y-48134921D01*
X279886205Y-48134921D02*
X279874241Y-48123600D01*
X279874241Y-48123600D02*
X279861792Y-48112926D01*
X279861792Y-48112926D02*
X279848885Y-48102912D01*
X279848885Y-48102912D02*
X279835547Y-48093568D01*
X279835547Y-48093568D02*
X279821805Y-48084907D01*
X279821805Y-48084907D02*
X279807684Y-48076940D01*
X279807684Y-48076940D02*
X279793213Y-48069677D01*
X279793213Y-48069677D02*
X279778417Y-48063131D01*
X279778417Y-48063131D02*
X279763324Y-48057313D01*
X279763324Y-48057313D02*
X279747960Y-48052233D01*
X279747960Y-48052233D02*
X279732352Y-48047904D01*
X279732352Y-48047904D02*
X279716527Y-48044336D01*
X279716527Y-48044336D02*
X279700511Y-48041542D01*
X279700511Y-48041542D02*
X279684331Y-48039532D01*
X279684331Y-48039532D02*
X279668014Y-48038317D01*
X279668014Y-48038317D02*
X279651586Y-48037910D01*
X279651586Y-48037910D02*
X272197424Y-48037910D01*
X272197424Y-48037910D02*
X272180937Y-48038317D01*
X272180937Y-48038317D02*
X272164568Y-48039532D01*
X272164568Y-48039532D02*
X272148343Y-48041542D01*
X272148343Y-48041542D02*
X272132291Y-48044336D01*
X272132291Y-48044336D02*
X272116436Y-48047904D01*
X272116436Y-48047904D02*
X272100807Y-48052233D01*
X272100807Y-48052233D02*
X272085431Y-48057313D01*
X272085431Y-48057313D02*
X272070333Y-48063131D01*
X272070333Y-48063131D02*
X272055542Y-48069677D01*
X272055542Y-48069677D02*
X272041084Y-48076940D01*
X272041084Y-48076940D02*
X272026985Y-48084907D01*
X272026985Y-48084907D02*
X272013274Y-48093568D01*
X272013274Y-48093568D02*
X271999976Y-48102912D01*
X271999976Y-48102912D02*
X271987119Y-48112926D01*
X271987119Y-48112926D02*
X271974730Y-48123600D01*
X271974730Y-48123600D02*
X271962835Y-48134921D01*
X271962835Y-48134921D02*
X271949867Y-48146823D01*
X271949867Y-48146823D02*
X271934660Y-48159226D01*
X271934660Y-48159226D02*
X271899229Y-48185419D01*
X271899229Y-48185419D02*
X271859935Y-48213274D01*
X271859935Y-48213274D02*
X271820173Y-48242564D01*
X271820173Y-48242564D02*
X271801178Y-48257675D01*
X271801178Y-48257675D02*
X271783338Y-48273060D01*
X271783338Y-48273060D02*
X271767079Y-48288690D01*
X271767079Y-48288690D02*
X271752825Y-48304536D01*
X271752825Y-48304536D02*
X271746582Y-48312531D01*
X271746582Y-48312531D02*
X271740999Y-48320570D01*
X271740999Y-48320570D02*
X271736130Y-48328649D01*
X271736130Y-48328649D02*
X271732027Y-48336764D01*
X271732027Y-48336764D02*
X271728744Y-48344912D01*
X271728744Y-48344912D02*
X271726333Y-48353090D01*
X271726333Y-48353090D02*
X271724847Y-48361293D01*
X271724847Y-48361293D02*
X271724340Y-48369518D01*
X271724340Y-48369518D02*
X271724340Y-54998901D01*
X271724340Y-54998901D02*
X257736395Y-54998901D01*
X257736395Y-54998901D02*
X257736395Y-41199327D01*
X257736395Y-41199327D02*
X271724340Y-41199327D01*
X271724340Y-41199327D02*
X271724340Y-42920175D01*
X271724340Y-42920175D02*
X271724340Y-42920175D01*
X253916189Y-41199327D02*
X253916189Y-54998901D01*
X253916189Y-54998901D02*
X239916235Y-54998901D01*
X239916235Y-54998901D02*
X239916235Y-41199327D01*
X239916235Y-41199327D02*
X253916189Y-41199327D01*
X253916189Y-41199327D02*
X253916189Y-41199327D01*
X236051199Y-41199327D02*
X236051199Y-54998901D01*
X236051199Y-54998901D02*
X222051244Y-54998901D01*
X222051244Y-54998901D02*
X222051244Y-41199327D01*
X222051244Y-41199327D02*
X236051199Y-41199327D01*
X236051199Y-41199327D02*
X236051199Y-41199327D01*
X128894170Y-41199327D02*
X128894170Y-54998901D01*
X128894170Y-54998901D02*
X114894216Y-54998901D01*
X114894216Y-54998901D02*
X114894216Y-41199327D01*
X114894216Y-41199327D02*
X128894170Y-41199327D01*
X128894170Y-41199327D02*
X128894170Y-41199327D01*
X93174085Y-41199327D02*
X93174085Y-54998901D01*
X93174085Y-54998901D02*
X79174146Y-54998901D01*
X79174146Y-54998901D02*
X79174146Y-41199327D01*
X79174146Y-41199327D02*
X93174085Y-41199327D01*
X93174085Y-41199327D02*
X93174085Y-41199327D01*
X75315466Y-41199327D02*
X75315466Y-54998901D01*
X75315466Y-54998901D02*
X61315515Y-54998901D01*
X61315515Y-54998901D02*
X61315515Y-41199327D01*
X61315515Y-41199327D02*
X75315466Y-41199327D01*
X75315466Y-41199327D02*
X75315466Y-41199327D01*
X111032720Y-41199327D02*
X111032720Y-54998901D01*
X111032720Y-54998901D02*
X97032766Y-54998901D01*
X97032766Y-54998901D02*
X97032766Y-41199327D01*
X97032766Y-41199327D02*
X111032720Y-41199327D01*
X111032720Y-41199327D02*
X111032720Y-41199327D01*
X218190115Y-41199327D02*
X218190115Y-54998901D01*
X218190115Y-54998901D02*
X204190145Y-54998901D01*
X204190145Y-54998901D02*
X204190145Y-41199327D01*
X204190145Y-41199327D02*
X218190115Y-41199327D01*
X218190115Y-41199327D02*
X218190115Y-41199327D01*
X200331472Y-41199327D02*
X200331472Y-54998901D01*
X200331472Y-54998901D02*
X186331548Y-54998901D01*
X186331548Y-54998901D02*
X186331548Y-41199327D01*
X186331548Y-41199327D02*
X200331472Y-41199327D01*
X200331472Y-41199327D02*
X200331472Y-41199327D01*
X146752798Y-41199327D02*
X146752798Y-54998901D01*
X146752798Y-54998901D02*
X132752836Y-54998901D01*
X132752836Y-54998901D02*
X132752836Y-41199327D01*
X132752836Y-41199327D02*
X146752798Y-41199327D01*
X146752798Y-41199327D02*
X146752798Y-41199327D01*
X182472509Y-41199327D02*
X182472509Y-54998901D01*
X182472509Y-54998901D02*
X168470083Y-54998901D01*
X168470083Y-54998901D02*
X168470083Y-41199327D01*
X168470083Y-41199327D02*
X182472509Y-41199327D01*
X182472509Y-41199327D02*
X182472509Y-41199327D01*
X40313652Y-48037910D02*
X40190218Y-48034784D01*
X40190218Y-48034784D02*
X40068395Y-48025507D01*
X40068395Y-48025507D02*
X39948334Y-48010230D01*
X39948334Y-48010230D02*
X39830186Y-47989105D01*
X39830186Y-47989105D02*
X39714103Y-47962282D01*
X39714103Y-47962282D02*
X39600236Y-47929914D01*
X39600236Y-47929914D02*
X39488737Y-47892152D01*
X39488737Y-47892152D02*
X39379756Y-47849146D01*
X39379756Y-47849146D02*
X39273446Y-47801049D01*
X39273446Y-47801049D02*
X39169957Y-47748012D01*
X39169957Y-47748012D02*
X39069440Y-47690185D01*
X39069440Y-47690185D02*
X38972048Y-47627721D01*
X38972048Y-47627721D02*
X38877932Y-47560771D01*
X38877932Y-47560771D02*
X38787242Y-47489486D01*
X38787242Y-47489486D02*
X38700131Y-47414017D01*
X38700131Y-47414017D02*
X38616749Y-47334516D01*
X38616749Y-47334516D02*
X38537248Y-47251134D01*
X38537248Y-47251134D02*
X38461779Y-47164023D01*
X38461779Y-47164023D02*
X38390494Y-47073333D01*
X38390494Y-47073333D02*
X38323544Y-46979216D01*
X38323544Y-46979216D02*
X38261080Y-46881824D01*
X38261080Y-46881824D02*
X38203254Y-46781308D01*
X38203254Y-46781308D02*
X38150216Y-46677819D01*
X38150216Y-46677819D02*
X38102119Y-46571509D01*
X38102119Y-46571509D02*
X38059114Y-46462528D01*
X38059114Y-46462528D02*
X38021352Y-46351029D01*
X38021352Y-46351029D02*
X37988984Y-46237162D01*
X37988984Y-46237162D02*
X37962162Y-46121079D01*
X37962162Y-46121079D02*
X37941036Y-46002932D01*
X37941036Y-46002932D02*
X37925760Y-45882871D01*
X37925760Y-45882871D02*
X37916483Y-45761048D01*
X37916483Y-45761048D02*
X37913357Y-45637615D01*
X37913357Y-45637615D02*
X37916483Y-45514213D01*
X37916483Y-45514213D02*
X37925760Y-45392420D01*
X37925760Y-45392420D02*
X37941036Y-45272388D01*
X37941036Y-45272388D02*
X37962162Y-45154266D01*
X37962162Y-45154266D02*
X37988984Y-45038208D01*
X37988984Y-45038208D02*
X38021352Y-44924364D01*
X38021352Y-44924364D02*
X38059114Y-44812886D01*
X38059114Y-44812886D02*
X38102119Y-44703925D01*
X38102119Y-44703925D02*
X38150216Y-44597632D01*
X38150216Y-44597632D02*
X38203254Y-44494160D01*
X38203254Y-44494160D02*
X38261080Y-44393659D01*
X38261080Y-44393659D02*
X38323544Y-44296280D01*
X38323544Y-44296280D02*
X38390494Y-44202176D01*
X38390494Y-44202176D02*
X38461779Y-44111498D01*
X38461779Y-44111498D02*
X38537248Y-44024396D01*
X38537248Y-44024396D02*
X38616749Y-43941023D01*
X38616749Y-43941023D02*
X38700131Y-43861530D01*
X38700131Y-43861530D02*
X38787242Y-43786068D01*
X38787242Y-43786068D02*
X38877932Y-43714789D01*
X38877932Y-43714789D02*
X38972048Y-43647843D01*
X38972048Y-43647843D02*
X39069440Y-43585384D01*
X39069440Y-43585384D02*
X39169957Y-43527561D01*
X39169957Y-43527561D02*
X39273446Y-43474527D01*
X39273446Y-43474527D02*
X39379756Y-43426432D01*
X39379756Y-43426432D02*
X39488737Y-43383428D01*
X39488737Y-43383428D02*
X39600236Y-43345667D01*
X39600236Y-43345667D02*
X39714103Y-43313300D01*
X39714103Y-43313300D02*
X39830186Y-43286479D01*
X39830186Y-43286479D02*
X39948334Y-43265354D01*
X39948334Y-43265354D02*
X40068395Y-43250077D01*
X40068395Y-43250077D02*
X40190218Y-43240800D01*
X40190218Y-43240800D02*
X40313652Y-43237674D01*
X40313652Y-43237674D02*
X43425142Y-43237674D01*
X43425142Y-43237674D02*
X43425142Y-41199327D01*
X43425142Y-41199327D02*
X57437086Y-41199327D01*
X57437086Y-41199327D02*
X57437086Y-54998901D01*
X57437086Y-54998901D02*
X43425142Y-54998901D01*
X43425142Y-54998901D02*
X43425142Y-48037910D01*
X43425142Y-48037910D02*
X40313652Y-48037910D01*
X40313652Y-48037910D02*
X40313652Y-48037910D01*
X35135240Y-41199327D02*
X35135240Y-54998901D01*
X35135240Y-54998901D02*
X21135288Y-54998901D01*
X21135288Y-54998901D02*
X21135288Y-41199327D01*
X21135288Y-41199327D02*
X35135240Y-41199327D01*
X35135240Y-41199327D02*
X35135240Y-41199327D01*
X137824712Y-24199010D02*
X137824712Y-37998935D01*
X137824712Y-37998935D02*
X123824751Y-37998935D01*
X123824751Y-37998935D02*
X123824751Y-24199010D01*
X123824751Y-24199010D02*
X137824712Y-24199010D01*
X137824712Y-24199010D02*
X137824712Y-24199010D01*
X298557958Y-24199010D02*
X298557958Y-37998935D01*
X298557958Y-37998935D02*
X284557989Y-37998935D01*
X284557989Y-37998935D02*
X284557989Y-24199010D01*
X284557989Y-24199010D02*
X298557958Y-24199010D01*
X298557958Y-24199010D02*
X298557958Y-24199010D01*
X262840719Y-24199010D02*
X262840719Y-37998935D01*
X262840719Y-37998935D02*
X248840780Y-37998935D01*
X248840780Y-37998935D02*
X248840780Y-24199010D01*
X248840780Y-24199010D02*
X262840719Y-24199010D01*
X262840719Y-24199010D02*
X262840719Y-24199010D01*
X84246015Y-24199010D02*
X84246015Y-37998935D01*
X84246015Y-37998935D02*
X70246065Y-37998935D01*
X70246065Y-37998935D02*
X70246065Y-24199010D01*
X70246065Y-24199010D02*
X84246015Y-24199010D01*
X84246015Y-24199010D02*
X84246015Y-24199010D01*
X191403402Y-24199010D02*
X191403402Y-37998935D01*
X191403402Y-37998935D02*
X177403448Y-37998935D01*
X177403448Y-37998935D02*
X177403448Y-24199010D01*
X177403448Y-24199010D02*
X191403402Y-24199010D01*
X191403402Y-24199010D02*
X191403402Y-24199010D01*
X30667320Y-24199010D02*
X30667320Y-37998935D01*
X30667320Y-37998935D02*
X16667368Y-37998935D01*
X16667368Y-37998935D02*
X16667368Y-24199010D01*
X16667368Y-24199010D02*
X30667320Y-24199010D01*
X30667320Y-24199010D02*
X30667320Y-24199010D01*
X66387388Y-24199010D02*
X66387388Y-37998935D01*
X66387388Y-37998935D02*
X52387441Y-37998935D01*
X52387441Y-37998935D02*
X52387441Y-24199010D01*
X52387441Y-24199010D02*
X66387388Y-24199010D01*
X66387388Y-24199010D02*
X66387388Y-24199010D01*
X48528764Y-24199010D02*
X48528764Y-37998935D01*
X48528764Y-37998935D02*
X34528814Y-37998935D01*
X34528814Y-37998935D02*
X34528814Y-24199010D01*
X34528814Y-24199010D02*
X48528764Y-24199010D01*
X48528764Y-24199010D02*
X48528764Y-24199010D01*
X244981741Y-24199010D02*
X244981741Y-37998935D01*
X244981741Y-37998935D02*
X230979330Y-37998935D01*
X230979330Y-37998935D02*
X230979330Y-24199010D01*
X230979330Y-24199010D02*
X244981741Y-24199010D01*
X244981741Y-24199010D02*
X244981741Y-24199010D01*
X227120641Y-24199010D02*
X227120641Y-37998935D01*
X227120641Y-37998935D02*
X213120702Y-37998935D01*
X213120702Y-37998935D02*
X213120702Y-24199010D01*
X213120702Y-24199010D02*
X227120641Y-24199010D01*
X227120641Y-24199010D02*
X227120641Y-24199010D01*
X280699346Y-24199010D02*
X280699346Y-37998935D01*
X280699346Y-37998935D02*
X266699377Y-37998935D01*
X266699377Y-37998935D02*
X266699377Y-24199010D01*
X266699377Y-24199010D02*
X280699346Y-24199010D01*
X280699346Y-24199010D02*
X280699346Y-24199010D01*
X209236639Y-24199010D02*
X209236639Y-37998935D01*
X209236639Y-37998935D02*
X195236685Y-37998935D01*
X195236685Y-37998935D02*
X195236685Y-24199010D01*
X195236685Y-24199010D02*
X202702154Y-24199010D01*
X202702154Y-24199010D02*
X202702154Y-21589167D01*
X202702154Y-21589167D02*
X202704384Y-21501705D01*
X202704384Y-21501705D02*
X202711034Y-21414835D01*
X202711034Y-21414835D02*
X202722042Y-21328702D01*
X202722042Y-21328702D02*
X202737347Y-21243451D01*
X202737347Y-21243451D02*
X202756887Y-21159227D01*
X202756887Y-21159227D02*
X202780600Y-21076176D01*
X202780600Y-21076176D02*
X202808426Y-20994442D01*
X202808426Y-20994442D02*
X202840303Y-20914172D01*
X202840303Y-20914172D02*
X202876169Y-20835510D01*
X202876169Y-20835510D02*
X202915963Y-20758601D01*
X202915963Y-20758601D02*
X202959624Y-20683590D01*
X202959624Y-20683590D02*
X203007089Y-20610624D01*
X203007089Y-20610624D02*
X203058298Y-20539847D01*
X203058298Y-20539847D02*
X203113188Y-20471403D01*
X203113188Y-20471403D02*
X203171700Y-20405440D01*
X203171700Y-20405440D02*
X203233770Y-20342101D01*
X203233770Y-20342101D02*
X203299000Y-20281765D01*
X203299000Y-20281765D02*
X203366924Y-20224887D01*
X203366924Y-20224887D02*
X203437394Y-20171528D01*
X203437394Y-20171528D02*
X203510260Y-20121747D01*
X203510260Y-20121747D02*
X203585372Y-20075604D01*
X203585372Y-20075604D02*
X203662582Y-20033159D01*
X203662582Y-20033159D02*
X203741740Y-19994471D01*
X203741740Y-19994471D02*
X203822696Y-19959602D01*
X203822696Y-19959602D02*
X203905302Y-19928610D01*
X203905302Y-19928610D02*
X203989408Y-19901557D01*
X203989408Y-19901557D02*
X204074863Y-19878500D01*
X204074863Y-19878500D02*
X204161520Y-19859502D01*
X204161520Y-19859502D02*
X204249229Y-19844621D01*
X204249229Y-19844621D02*
X204337840Y-19833917D01*
X204337840Y-19833917D02*
X204427204Y-19827451D01*
X204427204Y-19827451D02*
X204517172Y-19825283D01*
X204517172Y-19825283D02*
X206105734Y-19825283D01*
X206105734Y-19825283D02*
X206195768Y-19827451D01*
X206195768Y-19827451D02*
X206285190Y-19833917D01*
X206285190Y-19833917D02*
X206373850Y-19844621D01*
X206373850Y-19844621D02*
X206461601Y-19859502D01*
X206461601Y-19859502D02*
X206548293Y-19878500D01*
X206548293Y-19878500D02*
X206633777Y-19901557D01*
X206633777Y-19901557D02*
X206717906Y-19928610D01*
X206717906Y-19928610D02*
X206800529Y-19959602D01*
X206800529Y-19959602D02*
X206881499Y-19994471D01*
X206881499Y-19994471D02*
X206960667Y-20033159D01*
X206960667Y-20033159D02*
X207037884Y-20075604D01*
X207037884Y-20075604D02*
X207113002Y-20121747D01*
X207113002Y-20121747D02*
X207185871Y-20171528D01*
X207185871Y-20171528D02*
X207256343Y-20224887D01*
X207256343Y-20224887D02*
X207324269Y-20281765D01*
X207324269Y-20281765D02*
X207389501Y-20342101D01*
X207389501Y-20342101D02*
X207451512Y-20405440D01*
X207451512Y-20405440D02*
X207509979Y-20471403D01*
X207509979Y-20471403D02*
X207564839Y-20539847D01*
X207564839Y-20539847D02*
X207616030Y-20610624D01*
X207616030Y-20610624D02*
X207663489Y-20683590D01*
X207663489Y-20683590D02*
X207707152Y-20758601D01*
X207707152Y-20758601D02*
X207746956Y-20835510D01*
X207746956Y-20835510D02*
X207782839Y-20914172D01*
X207782839Y-20914172D02*
X207814736Y-20994442D01*
X207814736Y-20994442D02*
X207842585Y-21076176D01*
X207842585Y-21076176D02*
X207866323Y-21159227D01*
X207866323Y-21159227D02*
X207885886Y-21243451D01*
X207885886Y-21243451D02*
X207901212Y-21328702D01*
X207901212Y-21328702D02*
X207912237Y-21414835D01*
X207912237Y-21414835D02*
X207918898Y-21501705D01*
X207918898Y-21501705D02*
X207921133Y-21589167D01*
X207921133Y-21589167D02*
X207921133Y-24199010D01*
X207921133Y-24199010D02*
X209236639Y-24199010D01*
X209236639Y-24199010D02*
X209236639Y-24199010D01*
X119936804Y-24199010D02*
X119936804Y-37998935D01*
X119936804Y-37998935D02*
X105936849Y-37998935D01*
X105936849Y-37998935D02*
X105936849Y-24199010D01*
X105936849Y-24199010D02*
X107299986Y-24199010D01*
X107299986Y-24199010D02*
X107299986Y-21589167D01*
X107299986Y-21589167D02*
X107302347Y-21498411D01*
X107302347Y-21498411D02*
X107309354Y-21408845D01*
X107309354Y-21408845D02*
X107320895Y-21320579D01*
X107320895Y-21320579D02*
X107336853Y-21233725D01*
X107336853Y-21233725D02*
X107357117Y-21148394D01*
X107357117Y-21148394D02*
X107381571Y-21064697D01*
X107381571Y-21064697D02*
X107410101Y-20982744D01*
X107410101Y-20982744D02*
X107442595Y-20902646D01*
X107442595Y-20902646D02*
X107478937Y-20824515D01*
X107478937Y-20824515D02*
X107519014Y-20748461D01*
X107519014Y-20748461D02*
X107562713Y-20674595D01*
X107562713Y-20674595D02*
X107609918Y-20603028D01*
X107609918Y-20603028D02*
X107660516Y-20533871D01*
X107660516Y-20533871D02*
X107714394Y-20467234D01*
X107714394Y-20467234D02*
X107771436Y-20403230D01*
X107771436Y-20403230D02*
X107831530Y-20341968D01*
X107831530Y-20341968D02*
X107894562Y-20283560D01*
X107894562Y-20283560D02*
X107960416Y-20228116D01*
X107960416Y-20228116D02*
X108028980Y-20175748D01*
X108028980Y-20175748D02*
X108100140Y-20126565D01*
X108100140Y-20126565D02*
X108173781Y-20080681D01*
X108173781Y-20080681D02*
X108249789Y-20038204D01*
X108249789Y-20038204D02*
X108328052Y-19999246D01*
X108328052Y-19999246D02*
X108408454Y-19963918D01*
X108408454Y-19963918D02*
X108490881Y-19932331D01*
X108490881Y-19932331D02*
X108575221Y-19904596D01*
X108575221Y-19904596D02*
X108661358Y-19880823D01*
X108661358Y-19880823D02*
X108749180Y-19861124D01*
X108749180Y-19861124D02*
X108838571Y-19845610D01*
X108838571Y-19845610D02*
X108929419Y-19834391D01*
X108929419Y-19834391D02*
X109021608Y-19827578D01*
X109021608Y-19827578D02*
X109115026Y-19825283D01*
X109115026Y-19825283D02*
X110667234Y-19825283D01*
X110667234Y-19825283D02*
X110760620Y-19827578D01*
X110760620Y-19827578D02*
X110852783Y-19834391D01*
X110852783Y-19834391D02*
X110943606Y-19845610D01*
X110943606Y-19845610D02*
X111032978Y-19861124D01*
X111032978Y-19861124D02*
X111120783Y-19880823D01*
X111120783Y-19880823D02*
X111206907Y-19904596D01*
X111206907Y-19904596D02*
X111291236Y-19932331D01*
X111291236Y-19932331D02*
X111373657Y-19963918D01*
X111373657Y-19963918D02*
X111454054Y-19999246D01*
X111454054Y-19999246D02*
X111532314Y-20038204D01*
X111532314Y-20038204D02*
X111608323Y-20080681D01*
X111608323Y-20080681D02*
X111681966Y-20126565D01*
X111681966Y-20126565D02*
X111753129Y-20175748D01*
X111753129Y-20175748D02*
X111821698Y-20228116D01*
X111821698Y-20228116D02*
X111887560Y-20283560D01*
X111887560Y-20283560D02*
X111950599Y-20341968D01*
X111950599Y-20341968D02*
X112010703Y-20403230D01*
X112010703Y-20403230D02*
X112067755Y-20467234D01*
X112067755Y-20467234D02*
X112121644Y-20533871D01*
X112121644Y-20533871D02*
X112172253Y-20603028D01*
X112172253Y-20603028D02*
X112219470Y-20674595D01*
X112219470Y-20674595D02*
X112263180Y-20748461D01*
X112263180Y-20748461D02*
X112303268Y-20824515D01*
X112303268Y-20824515D02*
X112339622Y-20902646D01*
X112339622Y-20902646D02*
X112372125Y-20982744D01*
X112372125Y-20982744D02*
X112400666Y-21064697D01*
X112400666Y-21064697D02*
X112425129Y-21148394D01*
X112425129Y-21148394D02*
X112445400Y-21233725D01*
X112445400Y-21233725D02*
X112461365Y-21320579D01*
X112461365Y-21320579D02*
X112472909Y-21408845D01*
X112472909Y-21408845D02*
X112479920Y-21498411D01*
X112479920Y-21498411D02*
X112482282Y-21589167D01*
X112482282Y-21589167D02*
X112482282Y-24199010D01*
X112482282Y-24199010D02*
X119936804Y-24199010D01*
X119936804Y-24199010D02*
X119936804Y-24199010D01*
X102104627Y-24199010D02*
X102104627Y-37998935D01*
X102104627Y-37998935D02*
X88104688Y-37998935D01*
X88104688Y-37998935D02*
X88104688Y-24199010D01*
X88104688Y-24199010D02*
X102104627Y-24199010D01*
X102104627Y-24199010D02*
X102104627Y-24199010D01*
M02*
