%TF.GenerationSoftware,KiCad,Pcbnew,(6.0.0-0)*%
%TF.CreationDate,2022-01-09T15:50:57+09:00*%
%TF.ProjectId,keyplate,6b657970-6c61-4746-952e-6b696361645f,rev?*%
%TF.SameCoordinates,Original*%
%TF.FileFunction,Soldermask,Top*%
%TF.FilePolarity,Negative*%
%FSLAX46Y46*%
G04 Gerber Fmt 4.6, Leading zero omitted, Abs format (unit mm)*
G04 Created by KiCad (PCBNEW (6.0.0-0)) date 2022-01-09 15:50:57*
%MOMM*%
%LPD*%
G01*
G04 APERTURE LIST*
%ADD10C,5.400000*%
G04 APERTURE END LIST*
%TO.C,G\u002A\u002A\u002A*%
G36*
X294097214Y-96340323D02*
G01*
X294593472Y-96348744D01*
X294955193Y-96362678D01*
X295180300Y-96382040D01*
X295266713Y-96406746D01*
X295267664Y-96409960D01*
X295233805Y-96489279D01*
X295140163Y-96669333D01*
X294998638Y-96929309D01*
X294821134Y-97248395D01*
X294619551Y-97605781D01*
X294405793Y-97980654D01*
X294191760Y-98352201D01*
X293989355Y-98699611D01*
X293810479Y-99002073D01*
X293667035Y-99238774D01*
X293570924Y-99388902D01*
X293541804Y-99427844D01*
X293455717Y-99484186D01*
X293383939Y-99427844D01*
X293315384Y-99324476D01*
X293194132Y-99125149D01*
X293031979Y-98850609D01*
X292840723Y-98521605D01*
X292632160Y-98158883D01*
X292418086Y-97783191D01*
X292210297Y-97415277D01*
X292020591Y-97075888D01*
X291860764Y-96785772D01*
X291742612Y-96565675D01*
X291677933Y-96436346D01*
X291669331Y-96412228D01*
X291733651Y-96386014D01*
X291928301Y-96365551D01*
X292255813Y-96350735D01*
X292718720Y-96341461D01*
X293319555Y-96337622D01*
X293468498Y-96337497D01*
X294097214Y-96340323D01*
G37*
G36*
X14509786Y-21600928D02*
G01*
X14619109Y-21780960D01*
X14778276Y-22049023D01*
X14977131Y-22387917D01*
X15205513Y-22780442D01*
X15400897Y-23118469D01*
X16285396Y-24653053D01*
X14453752Y-24653053D01*
X13962016Y-24651339D01*
X13520177Y-24646513D01*
X13146772Y-24639045D01*
X12860343Y-24629406D01*
X12679426Y-24618067D01*
X12622109Y-24606537D01*
X12656140Y-24520296D01*
X12750489Y-24338192D01*
X12893541Y-24079687D01*
X13073681Y-23764244D01*
X13279295Y-23411324D01*
X13498767Y-23040392D01*
X13720483Y-22670908D01*
X13932827Y-22322334D01*
X14124185Y-22014135D01*
X14282941Y-21765771D01*
X14397481Y-21596705D01*
X14456189Y-21526400D01*
X14460468Y-21526128D01*
X14509786Y-21600928D01*
G37*
G36*
X272329813Y-108827854D02*
G01*
X272772991Y-108833553D01*
X273147828Y-108842374D01*
X273435831Y-108853763D01*
X273618507Y-108867165D01*
X273677664Y-108881026D01*
X273643518Y-108960167D01*
X273548927Y-109139012D01*
X273405662Y-109397414D01*
X273225493Y-109715229D01*
X273020192Y-110072309D01*
X272801529Y-110448510D01*
X272581274Y-110823685D01*
X272371200Y-111177689D01*
X272183075Y-111490376D01*
X272028672Y-111741600D01*
X271919761Y-111911215D01*
X271868113Y-111979076D01*
X271867343Y-111979408D01*
X271815572Y-111926810D01*
X271706678Y-111769544D01*
X271552371Y-111526126D01*
X271364362Y-111215070D01*
X271154363Y-110854893D01*
X271137664Y-110825736D01*
X270908797Y-110425505D01*
X270686467Y-110036524D01*
X270487057Y-109687468D01*
X270326947Y-109407011D01*
X270231647Y-109239858D01*
X269995907Y-108825831D01*
X271836786Y-108825831D01*
X272329813Y-108827854D01*
G37*
G36*
X167456276Y-55863138D02*
G01*
X167501678Y-55925476D01*
X167609269Y-56096004D01*
X167770807Y-56360637D01*
X167978052Y-56705287D01*
X168222764Y-57115867D01*
X168496701Y-57578289D01*
X168791623Y-58078466D01*
X169099288Y-58602312D01*
X169411457Y-59135739D01*
X169719888Y-59664659D01*
X170016341Y-60174986D01*
X170292575Y-60652632D01*
X170540349Y-61083509D01*
X170751423Y-61453532D01*
X170917555Y-61748613D01*
X171030505Y-61954663D01*
X171082033Y-62057597D01*
X171084322Y-62065136D01*
X171018414Y-62079488D01*
X170829935Y-62092559D01*
X170537424Y-62103781D01*
X170159420Y-62112585D01*
X169714461Y-62118405D01*
X169273081Y-62120619D01*
X167456276Y-62123185D01*
X166574331Y-63671947D01*
X166332678Y-64093740D01*
X166113229Y-64471884D01*
X165925733Y-64789975D01*
X165779938Y-65031611D01*
X165685594Y-65180389D01*
X165653321Y-65221603D01*
X165608894Y-65163329D01*
X165504213Y-64998858D01*
X165349104Y-64744473D01*
X165153392Y-64416456D01*
X164926901Y-64031092D01*
X164718460Y-63672227D01*
X164474890Y-63249341D01*
X164256507Y-62867571D01*
X164072746Y-62543627D01*
X163933043Y-62294217D01*
X163846835Y-62136054D01*
X163822664Y-62085918D01*
X163890105Y-62075469D01*
X164079974Y-62064741D01*
X164373592Y-62054303D01*
X164752276Y-62044723D01*
X165197348Y-62036569D01*
X165626674Y-62031049D01*
X167430684Y-62012219D01*
X168270451Y-60565831D01*
X168506677Y-60156962D01*
X168717378Y-59788444D01*
X168892696Y-59477833D01*
X169022774Y-59242685D01*
X169097754Y-59100555D01*
X169112274Y-59066525D01*
X169045486Y-59051922D01*
X168856643Y-59038863D01*
X168564797Y-59027932D01*
X168189003Y-59019712D01*
X167748313Y-59014788D01*
X167385720Y-59013608D01*
X166794982Y-59011382D01*
X166336921Y-59004446D01*
X166003167Y-58992416D01*
X165785353Y-58974907D01*
X165675110Y-58951534D01*
X165657109Y-58934139D01*
X165691002Y-58843159D01*
X165784899Y-58655768D01*
X165927126Y-58391893D01*
X166106009Y-58071459D01*
X166309874Y-57714393D01*
X166527048Y-57340622D01*
X166745855Y-56970071D01*
X166954623Y-56622666D01*
X167141677Y-56318335D01*
X167295344Y-56077003D01*
X167403949Y-55918596D01*
X167455819Y-55863041D01*
X167456276Y-55863138D01*
G37*
G36*
X59971219Y-21480539D02*
G01*
X60430506Y-21487656D01*
X60799477Y-21498889D01*
X61064023Y-21513724D01*
X61210039Y-21531645D01*
X61234887Y-21543656D01*
X61201069Y-21621833D01*
X61107521Y-21800879D01*
X60966100Y-22060059D01*
X60788662Y-22378636D01*
X60587066Y-22735874D01*
X60373167Y-23111040D01*
X60158823Y-23483396D01*
X59955892Y-23832208D01*
X59776230Y-24136739D01*
X59631694Y-24376255D01*
X59534142Y-24530020D01*
X59502626Y-24573010D01*
X59426106Y-24622962D01*
X59351071Y-24564778D01*
X59308929Y-24502454D01*
X59186671Y-24302878D01*
X59023555Y-24027898D01*
X58831253Y-23698099D01*
X58621436Y-23334065D01*
X58405777Y-22956383D01*
X58195947Y-22585635D01*
X58003620Y-22242409D01*
X57840466Y-21947288D01*
X57718159Y-21720857D01*
X57648369Y-21583701D01*
X57636553Y-21553054D01*
X57699702Y-21526829D01*
X57891144Y-21506357D01*
X58213872Y-21491515D01*
X58670879Y-21482176D01*
X59265158Y-21478217D01*
X59435720Y-21478053D01*
X59971219Y-21480539D01*
G37*
G36*
X173345905Y-68257794D02*
G01*
X173788153Y-68261761D01*
X174161992Y-68267899D01*
X174448899Y-68275822D01*
X174630349Y-68285144D01*
X174688220Y-68294671D01*
X174654232Y-68372030D01*
X174559998Y-68548777D01*
X174417111Y-68805119D01*
X174237168Y-69121267D01*
X174031762Y-69477430D01*
X173812488Y-69853815D01*
X173590941Y-70230632D01*
X173378714Y-70588090D01*
X173187404Y-70906398D01*
X173028603Y-71165764D01*
X172913907Y-71346398D01*
X172854911Y-71428509D01*
X172850583Y-71431386D01*
X172801962Y-71372785D01*
X172693606Y-71207901D01*
X172535539Y-70953116D01*
X172337783Y-70624812D01*
X172110361Y-70239369D01*
X171907754Y-69890402D01*
X171665296Y-69468081D01*
X171448046Y-69086274D01*
X171265474Y-68761897D01*
X171127047Y-68511869D01*
X171042232Y-68353106D01*
X171019331Y-68302902D01*
X171086798Y-68290423D01*
X171276849Y-68279209D01*
X171570960Y-68269730D01*
X171950604Y-68262455D01*
X172397259Y-68257854D01*
X172853776Y-68256386D01*
X173345905Y-68257794D01*
G37*
G36*
X202924699Y-105733487D02*
G01*
X203213379Y-105736873D01*
X203396659Y-105742479D01*
X203455550Y-105749086D01*
X203430690Y-105815721D01*
X203345142Y-105983857D01*
X203210290Y-106233677D01*
X203037522Y-106545364D01*
X202838221Y-106899104D01*
X202623773Y-107275080D01*
X202405565Y-107653475D01*
X202194980Y-108014473D01*
X202003406Y-108338259D01*
X201842227Y-108605016D01*
X201722829Y-108794928D01*
X201656597Y-108888179D01*
X201648410Y-108894366D01*
X201603085Y-108835137D01*
X201497929Y-108669441D01*
X201342708Y-108413564D01*
X201147192Y-108083792D01*
X200921146Y-107696412D01*
X200706855Y-107324505D01*
X199808545Y-105756664D01*
X201616985Y-105737812D01*
X202107431Y-105733839D01*
X202549693Y-105732436D01*
X202924699Y-105733487D01*
G37*
G36*
X136922725Y-83974592D02*
G01*
X137029949Y-84154512D01*
X137190719Y-84428282D01*
X137396785Y-84781575D01*
X137639896Y-85200069D01*
X137911800Y-85669438D01*
X138204247Y-86175358D01*
X138508986Y-86703506D01*
X138817765Y-87239557D01*
X139122333Y-87769186D01*
X139414440Y-88278069D01*
X139685835Y-88751883D01*
X139928267Y-89176302D01*
X140133484Y-89537002D01*
X140293235Y-89819660D01*
X140399271Y-90009951D01*
X140443338Y-90093550D01*
X140443561Y-90094112D01*
X140439374Y-90117671D01*
X140400032Y-90137486D01*
X140314759Y-90153871D01*
X140172777Y-90167140D01*
X139963310Y-90177608D01*
X139675582Y-90185588D01*
X139298816Y-90191394D01*
X138822236Y-90195340D01*
X138235064Y-90197739D01*
X137526525Y-90198906D01*
X136836833Y-90199164D01*
X136023407Y-90197921D01*
X135297297Y-90194289D01*
X134666413Y-90188412D01*
X134138667Y-90180431D01*
X133721968Y-90170492D01*
X133424226Y-90158736D01*
X133253353Y-90145309D01*
X133213313Y-90133464D01*
X133263286Y-90031381D01*
X133374565Y-89827154D01*
X133539024Y-89534604D01*
X133748534Y-89167551D01*
X133994968Y-88739816D01*
X134270199Y-88265218D01*
X134566100Y-87757580D01*
X134874544Y-87230720D01*
X135187402Y-86698460D01*
X135496548Y-86174620D01*
X135793855Y-85673021D01*
X136071194Y-85207483D01*
X136320440Y-84791827D01*
X136533464Y-84439873D01*
X136702139Y-84165442D01*
X136818337Y-83982355D01*
X136873933Y-83904431D01*
X136877299Y-83902844D01*
X136922725Y-83974592D01*
G37*
G36*
X130697823Y-68270055D02*
G01*
X131046016Y-68277486D01*
X131279337Y-68291183D01*
X131406498Y-68311436D01*
X131437664Y-68333141D01*
X131403696Y-68413645D01*
X131308129Y-68598704D01*
X131160472Y-68870988D01*
X130970234Y-69213165D01*
X130746922Y-69607905D01*
X130546690Y-69957110D01*
X129655715Y-71501942D01*
X127830301Y-71501942D01*
X127339545Y-71499986D01*
X126898814Y-71494480D01*
X126526656Y-71485959D01*
X126241619Y-71474964D01*
X126062252Y-71462032D01*
X126006497Y-71449025D01*
X126040925Y-71375954D01*
X126136974Y-71197909D01*
X126285155Y-70931798D01*
X126475980Y-70594532D01*
X126699961Y-70203019D01*
X126907197Y-69843886D01*
X127806286Y-68291664D01*
X129621975Y-68272834D01*
X130226047Y-68268600D01*
X130697823Y-68270055D01*
G37*
G36*
X109889167Y-105780666D02*
G01*
X109991939Y-105942586D01*
X110140439Y-106187915D01*
X110323217Y-106496706D01*
X110528826Y-106849013D01*
X110745818Y-107224889D01*
X110962745Y-107604388D01*
X111168159Y-107967563D01*
X111350611Y-108294467D01*
X111498655Y-108565156D01*
X111600841Y-108759681D01*
X111645722Y-108858096D01*
X111646831Y-108864017D01*
X111612985Y-108943071D01*
X111517792Y-109126789D01*
X111370772Y-109397809D01*
X111181443Y-109738771D01*
X110959323Y-110132311D01*
X110766815Y-110469156D01*
X109886799Y-112000831D01*
X106167267Y-112000831D01*
X106307713Y-111771525D01*
X106405924Y-111607529D01*
X106549901Y-111362383D01*
X106727741Y-111056817D01*
X106927542Y-110711562D01*
X107137401Y-110347348D01*
X107345416Y-109984905D01*
X107539684Y-109644966D01*
X107708303Y-109348260D01*
X107839369Y-109115517D01*
X107920981Y-108967469D01*
X107942664Y-108923939D01*
X107875258Y-108916408D01*
X107685633Y-108909661D01*
X107392682Y-108903995D01*
X107015296Y-108899703D01*
X106572368Y-108897082D01*
X106178776Y-108896386D01*
X105696628Y-108894965D01*
X105264730Y-108890966D01*
X104901974Y-108884788D01*
X104627250Y-108876830D01*
X104459451Y-108867490D01*
X104414887Y-108859190D01*
X104448682Y-108784866D01*
X104542382Y-108610622D01*
X104684458Y-108356248D01*
X104863379Y-108041531D01*
X105067618Y-107686262D01*
X105285644Y-107310229D01*
X105505928Y-106933222D01*
X105716941Y-106575029D01*
X105907154Y-106255440D01*
X106065037Y-105994242D01*
X106179062Y-105811227D01*
X106237698Y-105726182D01*
X106242326Y-105722546D01*
X106287594Y-105781467D01*
X106392640Y-105946556D01*
X106547524Y-106201295D01*
X106742309Y-106529165D01*
X106967054Y-106913649D01*
X107157318Y-107243192D01*
X107429867Y-107715477D01*
X107642255Y-108076870D01*
X107803003Y-108339749D01*
X107920631Y-108516490D01*
X108003658Y-108619471D01*
X108060605Y-108661070D01*
X108099991Y-108653663D01*
X108115726Y-108635504D01*
X108174697Y-108539267D01*
X108292553Y-108339927D01*
X108458016Y-108056817D01*
X108659809Y-107709265D01*
X108886656Y-107316604D01*
X109002810Y-107114858D01*
X109233712Y-106716262D01*
X109442013Y-106362198D01*
X109617322Y-106069879D01*
X109749249Y-105856519D01*
X109827400Y-105739332D01*
X109843569Y-105722100D01*
X109889167Y-105780666D01*
G37*
G36*
X160273570Y-18456876D02*
G01*
X160377365Y-18610172D01*
X160527407Y-18847181D01*
X160712171Y-19148297D01*
X160920131Y-19493915D01*
X161139761Y-19864431D01*
X161359535Y-20240240D01*
X161567927Y-20601736D01*
X161753412Y-20929315D01*
X161904463Y-21203371D01*
X162009554Y-21404300D01*
X162057160Y-21512496D01*
X162058776Y-21521720D01*
X162024716Y-21603784D01*
X161930361Y-21785336D01*
X161787451Y-22046180D01*
X161607722Y-22366117D01*
X161402914Y-22724949D01*
X161184765Y-23102480D01*
X160965013Y-23478511D01*
X160755396Y-23832845D01*
X160567653Y-24145284D01*
X160413522Y-24395631D01*
X160304741Y-24563687D01*
X160253048Y-24629255D01*
X160252699Y-24629376D01*
X160191270Y-24581051D01*
X160083190Y-24436003D01*
X159948369Y-24221936D01*
X159900377Y-24139063D01*
X159761484Y-23895359D01*
X159572621Y-23565688D01*
X159354542Y-23186189D01*
X159127998Y-22793004D01*
X159028402Y-22620510D01*
X158445103Y-21611022D01*
X157580766Y-23111086D01*
X157339221Y-23526788D01*
X157118583Y-23899866D01*
X156929159Y-24213424D01*
X156781260Y-24450567D01*
X156685191Y-24594399D01*
X156653574Y-24630812D01*
X156602985Y-24577515D01*
X156493148Y-24417268D01*
X156334018Y-24166099D01*
X156135548Y-23840035D01*
X155907693Y-23455103D01*
X155691640Y-23081903D01*
X154792559Y-21513331D01*
X156608862Y-21494484D01*
X158425164Y-21475637D01*
X159299235Y-19958029D01*
X159541894Y-19539062D01*
X159763034Y-19161716D01*
X159952498Y-18842964D01*
X160100126Y-18599779D01*
X160195761Y-18449134D01*
X160227549Y-18406897D01*
X160273570Y-18456876D01*
G37*
G36*
X185924292Y-27688423D02*
G01*
X186364674Y-27692593D01*
X186738010Y-27699038D01*
X187024982Y-27707344D01*
X187206272Y-27717097D01*
X187262687Y-27726038D01*
X187237607Y-27792232D01*
X187152816Y-27960534D01*
X187019515Y-28211051D01*
X186848904Y-28523893D01*
X186652186Y-28879168D01*
X186440562Y-29256985D01*
X186225232Y-29637452D01*
X186017397Y-30000678D01*
X185828260Y-30326771D01*
X185669020Y-30595840D01*
X185550880Y-30787993D01*
X185485041Y-30883339D01*
X185484304Y-30884155D01*
X185436482Y-30841498D01*
X185329233Y-30691518D01*
X185172437Y-30449809D01*
X184975973Y-30131965D01*
X184749723Y-29753582D01*
X184540257Y-29394073D01*
X184297019Y-28968784D01*
X184079063Y-28581876D01*
X183895882Y-28250677D01*
X183756970Y-27992519D01*
X183671821Y-27824730D01*
X183648776Y-27766720D01*
X183696037Y-27739942D01*
X183843548Y-27719077D01*
X184099899Y-27703740D01*
X184473679Y-27693548D01*
X184973479Y-27688119D01*
X185436183Y-27686942D01*
X185924292Y-27688423D01*
G37*
G36*
X10876220Y-59051264D02*
G01*
X10988859Y-59215999D01*
X11150835Y-59470694D01*
X11351933Y-59798998D01*
X11581940Y-60184564D01*
X11788040Y-60537319D01*
X12682583Y-62082431D01*
X12554316Y-62294270D01*
X12481066Y-62418109D01*
X12350053Y-62642482D01*
X12173914Y-62945628D01*
X11965288Y-63305785D01*
X11736811Y-63701193D01*
X11673237Y-63811386D01*
X11447493Y-64200866D01*
X11243210Y-64549669D01*
X11071605Y-64838938D01*
X10943895Y-65049816D01*
X10871296Y-65163446D01*
X10861212Y-65176524D01*
X10801347Y-65148663D01*
X10694659Y-65021665D01*
X10561287Y-64820605D01*
X10521172Y-64753191D01*
X10389971Y-64526970D01*
X10207073Y-64210959D01*
X9991249Y-63837624D01*
X9761271Y-63439432D01*
X9607283Y-63172593D01*
X8974220Y-62075188D01*
X9863494Y-60534328D01*
X10108773Y-60113946D01*
X10333699Y-59737202D01*
X10528057Y-59420505D01*
X10681632Y-59180263D01*
X10784209Y-59032885D01*
X10823133Y-58992838D01*
X10876220Y-59051264D01*
G37*
G36*
X95479824Y-18413334D02*
G01*
X95556193Y-18529072D01*
X95678671Y-18729520D01*
X95851100Y-19021238D01*
X96077321Y-19410784D01*
X96361177Y-19904716D01*
X96706509Y-20509592D01*
X97063556Y-21137544D01*
X97296947Y-21548608D01*
X95458417Y-21548608D01*
X94965716Y-21547042D01*
X94522876Y-21542631D01*
X94148403Y-21535804D01*
X93860800Y-21526990D01*
X93678572Y-21516619D01*
X93619887Y-21505940D01*
X93653716Y-21430259D01*
X93747503Y-21254938D01*
X93889695Y-20999783D01*
X94068740Y-20684599D01*
X94273085Y-20329191D01*
X94491178Y-19953364D01*
X94711467Y-19576924D01*
X94922399Y-19219676D01*
X95112421Y-18901425D01*
X95269983Y-18641976D01*
X95383530Y-18461136D01*
X95441511Y-18378708D01*
X95445722Y-18375749D01*
X95479824Y-18413334D01*
G37*
G36*
X52239053Y-99537418D02*
G01*
X52292878Y-99602147D01*
X52403926Y-99769490D01*
X52560250Y-100019064D01*
X52749904Y-100330489D01*
X52960940Y-100683382D01*
X53181412Y-101057363D01*
X53399370Y-101432049D01*
X53602870Y-101787059D01*
X53779963Y-102102011D01*
X53918703Y-102356524D01*
X54007141Y-102530217D01*
X54033854Y-102599303D01*
X54004318Y-102627544D01*
X53904043Y-102649505D01*
X53720222Y-102665817D01*
X53440046Y-102677107D01*
X53050707Y-102684006D01*
X52539397Y-102687143D01*
X52239053Y-102687497D01*
X51635646Y-102685376D01*
X51164965Y-102678768D01*
X50818685Y-102667306D01*
X50588481Y-102650620D01*
X50466027Y-102628345D01*
X50439887Y-102608028D01*
X50473780Y-102517000D01*
X50567676Y-102329586D01*
X50709901Y-102065708D01*
X50888783Y-101745290D01*
X51092646Y-101388255D01*
X51309818Y-101014527D01*
X51528624Y-100644030D01*
X51737391Y-100296686D01*
X51924445Y-99992420D01*
X52078112Y-99751154D01*
X52186719Y-99592812D01*
X52238591Y-99537318D01*
X52239053Y-99537418D01*
G37*
G36*
X39238677Y-18386472D02*
G01*
X39668344Y-18390035D01*
X41476783Y-18408886D01*
X40578474Y-19976728D01*
X40333759Y-20401043D01*
X40111016Y-20781943D01*
X39920021Y-21103139D01*
X39770548Y-21348346D01*
X39672373Y-21501276D01*
X39636278Y-21546589D01*
X39590601Y-21488578D01*
X39484861Y-21324241D01*
X39328900Y-21069830D01*
X39132562Y-20741596D01*
X38905693Y-20355791D01*
X38694412Y-19991631D01*
X38452174Y-19568364D01*
X38237160Y-19186381D01*
X38058408Y-18862263D01*
X37924957Y-18612585D01*
X37845848Y-18453928D01*
X37828169Y-18402919D01*
X37904453Y-18395037D01*
X38102740Y-18389318D01*
X38403936Y-18385895D01*
X38788947Y-18384902D01*
X39238677Y-18386472D01*
G37*
G36*
X39664460Y-96399404D02*
G01*
X39727989Y-96488437D01*
X39844576Y-96675707D01*
X40002872Y-96941118D01*
X40191530Y-97264575D01*
X40399201Y-97625986D01*
X40614538Y-98005254D01*
X40826192Y-98382286D01*
X41022816Y-98736987D01*
X41193061Y-99049263D01*
X41325579Y-99299019D01*
X41409023Y-99466161D01*
X41432494Y-99530136D01*
X41356104Y-99544488D01*
X41157752Y-99557361D01*
X40856585Y-99568203D01*
X40471749Y-99576460D01*
X40022392Y-99581580D01*
X39600271Y-99583053D01*
X39036071Y-99581853D01*
X38598846Y-99577753D01*
X38274477Y-99570001D01*
X38048845Y-99557847D01*
X37907832Y-99540539D01*
X37837316Y-99517327D01*
X37822908Y-99488505D01*
X37870066Y-99376928D01*
X37975115Y-99174134D01*
X38126485Y-98899530D01*
X38312606Y-98572526D01*
X38521907Y-98212531D01*
X38742818Y-97838952D01*
X38963767Y-97471200D01*
X39173186Y-97128682D01*
X39359502Y-96830807D01*
X39511147Y-96596985D01*
X39616549Y-96446624D01*
X39664138Y-96399132D01*
X39664460Y-96399404D01*
G37*
G36*
X97294988Y-102701990D02*
G01*
X97401811Y-102868051D01*
X97554506Y-103116629D01*
X97741312Y-103427546D01*
X97950471Y-103780628D01*
X98170222Y-104155696D01*
X98388806Y-104532573D01*
X98594462Y-104891084D01*
X98775432Y-105211050D01*
X98919955Y-105472296D01*
X99016272Y-105654644D01*
X99052623Y-105737917D01*
X99052664Y-105738768D01*
X98985193Y-105753013D01*
X98795111Y-105765817D01*
X98500916Y-105776645D01*
X98121105Y-105784964D01*
X97674176Y-105790238D01*
X97212832Y-105791942D01*
X95372999Y-105791942D01*
X95642971Y-105312956D01*
X96066925Y-104564482D01*
X96425274Y-103939858D01*
X96718510Y-103438264D01*
X96947125Y-103058878D01*
X97111613Y-102800877D01*
X97212464Y-102663439D01*
X97245796Y-102638624D01*
X97294988Y-102701990D01*
G37*
G36*
X253898150Y-18434044D02*
G01*
X254003539Y-18603137D01*
X254164891Y-18870401D01*
X254375048Y-19223742D01*
X254626846Y-19651066D01*
X254913124Y-20140278D01*
X255226722Y-20679285D01*
X255513944Y-21175403D01*
X255852941Y-21762254D01*
X256176434Y-22322249D01*
X256476280Y-22841289D01*
X256744332Y-23305275D01*
X256972447Y-23700111D01*
X257152478Y-24011696D01*
X257276280Y-24225934D01*
X257327842Y-24315125D01*
X257523297Y-24653053D01*
X253888258Y-24653053D01*
X253186952Y-24652263D01*
X252530165Y-24649994D01*
X251931055Y-24646399D01*
X251402784Y-24641630D01*
X250958510Y-24635838D01*
X250611395Y-24629176D01*
X250374599Y-24621795D01*
X250261281Y-24613849D01*
X250253220Y-24611047D01*
X250287276Y-24540504D01*
X250384041Y-24362835D01*
X250535409Y-24092072D01*
X250733273Y-23742245D01*
X250969529Y-23327385D01*
X251236069Y-22861521D01*
X251524788Y-22358685D01*
X251827580Y-21832907D01*
X252136339Y-21298217D01*
X252442959Y-20768646D01*
X252739334Y-20258225D01*
X253017358Y-19780983D01*
X253268926Y-19350953D01*
X253485931Y-18982163D01*
X253660268Y-18688645D01*
X253783829Y-18484429D01*
X253848511Y-18383545D01*
X253855888Y-18375218D01*
X253898150Y-18434044D01*
G37*
G36*
X149451834Y-71378273D02*
G01*
X151273503Y-71396108D01*
X152187268Y-72975399D01*
X153101034Y-74554689D01*
X152196743Y-76115121D01*
X151292453Y-77675553D01*
X149436935Y-77694376D01*
X147581417Y-77713200D01*
X147829950Y-77271043D01*
X147949764Y-77059738D01*
X148122479Y-76757593D01*
X148330184Y-76395822D01*
X148554965Y-76005642D01*
X148711177Y-75735275D01*
X149343872Y-74641664D01*
X147582497Y-74622803D01*
X147017079Y-74615270D01*
X146579653Y-74605699D01*
X146257101Y-74593273D01*
X146036311Y-74577176D01*
X145904165Y-74556589D01*
X145847550Y-74530696D01*
X145843698Y-74514480D01*
X145883894Y-74430854D01*
X145985053Y-74242756D01*
X146137357Y-73967790D01*
X146330989Y-73623559D01*
X146556130Y-73227666D01*
X146748220Y-72892727D01*
X147630164Y-71360437D01*
X149451834Y-71378273D01*
G37*
G36*
X136320172Y-58954027D02*
G01*
X136607702Y-58956643D01*
X136789714Y-58961343D01*
X136847416Y-58967063D01*
X136821379Y-59032486D01*
X136734854Y-59199564D01*
X136599216Y-59448513D01*
X136425841Y-59759548D01*
X136226104Y-60112883D01*
X136011381Y-60488734D01*
X135793048Y-60867315D01*
X135582480Y-61228841D01*
X135391052Y-61553528D01*
X135230141Y-61821589D01*
X135111122Y-62013241D01*
X135045370Y-62108697D01*
X135037072Y-62115721D01*
X134993683Y-62056396D01*
X134890404Y-61890597D01*
X134736912Y-61634619D01*
X134542887Y-61304756D01*
X134318006Y-60917306D01*
X134104678Y-60545860D01*
X133208636Y-58978331D01*
X135014808Y-58959479D01*
X135504692Y-58955367D01*
X135946158Y-58953576D01*
X136320172Y-58954027D01*
G37*
G36*
X135037316Y-24679051D02*
G01*
X135116159Y-24760900D01*
X135236197Y-24928856D01*
X135403430Y-25192029D01*
X135623859Y-25559530D01*
X135903484Y-26040468D01*
X135970859Y-26157724D01*
X136214512Y-26584392D01*
X136433116Y-26970866D01*
X136617308Y-27300296D01*
X136757727Y-27555831D01*
X136845011Y-27720621D01*
X136870442Y-27776994D01*
X136802975Y-27790692D01*
X136612925Y-27803001D01*
X136318815Y-27813406D01*
X135939171Y-27821392D01*
X135492518Y-27826442D01*
X135035998Y-27828053D01*
X134543868Y-27826598D01*
X134101621Y-27822501D01*
X133727781Y-27816161D01*
X133440874Y-27807977D01*
X133259424Y-27798348D01*
X133201553Y-27788507D01*
X133235335Y-27716326D01*
X133328924Y-27542674D01*
X133470686Y-27287768D01*
X133648986Y-26971826D01*
X133852190Y-26615067D01*
X134068664Y-26237708D01*
X134286773Y-25859969D01*
X134494883Y-25502066D01*
X134681359Y-25184218D01*
X134834567Y-24926643D01*
X134942872Y-24749560D01*
X134993667Y-24674200D01*
X135037316Y-24679051D01*
G37*
G36*
X240377370Y-19901052D02*
G01*
X240619823Y-20322619D01*
X240838588Y-20704414D01*
X241023862Y-21029214D01*
X241165841Y-21279791D01*
X241254719Y-21438921D01*
X241280905Y-21488552D01*
X241219920Y-21504630D01*
X241036023Y-21519083D01*
X240747410Y-21531309D01*
X240372278Y-21540706D01*
X239928822Y-21546670D01*
X239467212Y-21548608D01*
X237630000Y-21548608D01*
X237351949Y-21072358D01*
X236969828Y-20415866D01*
X236637730Y-19841221D01*
X236359460Y-19355148D01*
X236138818Y-18964374D01*
X235979609Y-18675626D01*
X235885634Y-18495629D01*
X235859887Y-18433152D01*
X235927340Y-18417112D01*
X236117296Y-18402708D01*
X236411150Y-18390549D01*
X236790300Y-18381244D01*
X237236139Y-18375402D01*
X237678620Y-18373608D01*
X239497354Y-18373608D01*
X240377370Y-19901052D01*
G37*
G36*
X219709894Y-15355737D02*
G01*
X219816918Y-15521470D01*
X219969780Y-15769731D01*
X220156713Y-16080341D01*
X220365948Y-16433123D01*
X220585717Y-16807902D01*
X220804252Y-17184501D01*
X221009784Y-17542742D01*
X221190547Y-17862449D01*
X221334770Y-18123446D01*
X221430687Y-18305554D01*
X221466529Y-18388599D01*
X221466553Y-18389258D01*
X221399083Y-18403972D01*
X221209009Y-18417197D01*
X220914835Y-18428380D01*
X220535065Y-18436969D01*
X220088203Y-18442411D01*
X219628023Y-18444164D01*
X217789493Y-18444164D01*
X218022884Y-18033100D01*
X218411566Y-17349851D01*
X218736764Y-16781363D01*
X219003590Y-16319079D01*
X219217157Y-15954443D01*
X219382579Y-15678900D01*
X219504966Y-15483894D01*
X219589434Y-15360869D01*
X219641093Y-15301268D01*
X219660477Y-15292706D01*
X219709894Y-15355737D01*
G37*
G36*
X49094054Y-108828046D02*
G01*
X49536892Y-108834287D01*
X49911364Y-108843947D01*
X50198967Y-108856418D01*
X50381198Y-108871091D01*
X50439887Y-108886202D01*
X50405697Y-108966792D01*
X50310997Y-109146835D01*
X50167588Y-109406152D01*
X49987271Y-109724563D01*
X49781846Y-110081887D01*
X49563117Y-110457946D01*
X49342883Y-110832558D01*
X49132947Y-111185545D01*
X48945109Y-111496725D01*
X48791172Y-111745920D01*
X48682936Y-111912949D01*
X48632203Y-111977633D01*
X48631945Y-111977719D01*
X48579520Y-111925027D01*
X48470171Y-111767558D01*
X48315611Y-111523826D01*
X48127551Y-111212349D01*
X47917706Y-110851642D01*
X47899887Y-110820440D01*
X47671525Y-110419980D01*
X47449875Y-110031256D01*
X47251195Y-109682781D01*
X47091743Y-109403070D01*
X46996217Y-109235458D01*
X46762826Y-108825831D01*
X48601356Y-108825831D01*
X49094054Y-108828046D01*
G37*
G36*
X23904181Y-21479758D02*
G01*
X24347280Y-21484563D01*
X24722031Y-21491999D01*
X25009939Y-21501599D01*
X25192509Y-21512896D01*
X25251553Y-21524568D01*
X25217712Y-21601296D01*
X25123899Y-21777583D01*
X24981681Y-22033583D01*
X24802626Y-22349452D01*
X24598300Y-22705345D01*
X24380270Y-23081416D01*
X24160103Y-23457820D01*
X23949367Y-23814712D01*
X23759628Y-24132247D01*
X23602453Y-24390580D01*
X23489409Y-24569866D01*
X23432063Y-24650260D01*
X23428269Y-24652725D01*
X23381718Y-24594111D01*
X23275164Y-24429415D01*
X23118610Y-24175078D01*
X22922057Y-23847538D01*
X22695509Y-23463237D01*
X22499887Y-23126826D01*
X22256841Y-22705604D01*
X22037554Y-22324017D01*
X21851859Y-21999301D01*
X21709588Y-21748693D01*
X21620575Y-21589429D01*
X21594424Y-21539653D01*
X21655406Y-21523023D01*
X21839703Y-21508134D01*
X22129522Y-21495591D01*
X22507070Y-21485997D01*
X22954556Y-21479955D01*
X23411229Y-21478053D01*
X23904181Y-21479758D01*
G37*
G36*
X256425465Y-99443387D02*
G01*
X256802106Y-99449219D01*
X257115132Y-99458608D01*
X257341799Y-99471663D01*
X257459361Y-99488489D01*
X257470321Y-99494858D01*
X257442665Y-99563583D01*
X257355149Y-99734144D01*
X257219120Y-99986552D01*
X257045925Y-100300816D01*
X256846911Y-100656945D01*
X256633426Y-101034950D01*
X256416816Y-101414839D01*
X256208429Y-101776622D01*
X256019611Y-102100309D01*
X255861709Y-102365909D01*
X255746072Y-102553431D01*
X255684045Y-102642887D01*
X255682537Y-102644443D01*
X255638346Y-102596524D01*
X255534101Y-102441768D01*
X255379565Y-102195967D01*
X255184503Y-101874914D01*
X254958677Y-101494402D01*
X254747676Y-101132287D01*
X254503608Y-100707373D01*
X254284840Y-100321415D01*
X254100863Y-99991573D01*
X253961166Y-99735007D01*
X253875239Y-99568875D01*
X253851553Y-99511929D01*
X253918306Y-99493163D01*
X254103402Y-99477096D01*
X254384095Y-99463835D01*
X254737641Y-99453489D01*
X255141296Y-99446163D01*
X255572315Y-99441966D01*
X256007953Y-99441005D01*
X256425465Y-99443387D01*
G37*
G36*
X285400942Y-18388582D02*
G01*
X285773769Y-18393958D01*
X286059198Y-18402893D01*
X286239120Y-18414999D01*
X286295744Y-18429327D01*
X286255261Y-18504106D01*
X286153974Y-18683882D01*
X286001684Y-18951474D01*
X285808193Y-19289703D01*
X285583299Y-19681387D01*
X285389887Y-20017297D01*
X284507942Y-21547180D01*
X282652885Y-21547894D01*
X280797827Y-21548608D01*
X280971802Y-21248747D01*
X281060419Y-21095674D01*
X281205648Y-20844423D01*
X281393595Y-20519051D01*
X281610364Y-20143613D01*
X281842061Y-19742167D01*
X281878576Y-19678886D01*
X282611374Y-18408886D01*
X284465516Y-18390063D01*
X284958821Y-18387155D01*
X285400942Y-18388582D01*
G37*
G36*
X216033776Y-108867324D02*
G01*
X216067513Y-108791100D01*
X216161058Y-108615134D01*
X216302909Y-108359229D01*
X216481564Y-108043186D01*
X216685522Y-107686807D01*
X216903281Y-107309894D01*
X217123340Y-106932250D01*
X217334198Y-106573676D01*
X217524352Y-106253973D01*
X217682301Y-105992945D01*
X217796544Y-105810393D01*
X217855579Y-105726118D01*
X217860252Y-105722716D01*
X217905756Y-105781706D01*
X218010961Y-105946899D01*
X218165925Y-106201770D01*
X218360708Y-106529794D01*
X218585368Y-106914446D01*
X218775580Y-107244256D01*
X219047762Y-107716507D01*
X219259826Y-108077875D01*
X219420306Y-108340762D01*
X219537739Y-108517569D01*
X219620661Y-108620698D01*
X219677607Y-108662549D01*
X219717112Y-108655524D01*
X219733781Y-108636399D01*
X219792796Y-108539822D01*
X219910509Y-108340071D01*
X220075659Y-108056521D01*
X220276983Y-107708544D01*
X220503217Y-107315513D01*
X220618317Y-107114858D01*
X220848618Y-106716092D01*
X221056626Y-106361966D01*
X221231928Y-106069711D01*
X221364116Y-105856561D01*
X221442779Y-105739747D01*
X221459283Y-105722788D01*
X221503715Y-105781934D01*
X221609328Y-105948789D01*
X221767263Y-106208562D01*
X221968663Y-106546458D01*
X222204671Y-106947686D01*
X222466429Y-107397451D01*
X222589344Y-107610150D01*
X222904086Y-108155940D01*
X223235917Y-108731305D01*
X223567232Y-109305725D01*
X223880428Y-109848681D01*
X224157903Y-110329656D01*
X224377191Y-110709705D01*
X224589216Y-111084501D01*
X224770828Y-111419795D01*
X224912027Y-111695918D01*
X225002815Y-111893200D01*
X225033193Y-111991972D01*
X225031764Y-111997344D01*
X225014633Y-112012036D01*
X224976532Y-112024532D01*
X224908102Y-112034868D01*
X224799980Y-112043081D01*
X224642806Y-112049209D01*
X224427220Y-112053288D01*
X224143860Y-112055354D01*
X223783365Y-112055446D01*
X223336375Y-112053599D01*
X222793529Y-112049851D01*
X222145465Y-112044238D01*
X221382824Y-112036798D01*
X220496243Y-112027567D01*
X219655981Y-112018533D01*
X217810132Y-111998512D01*
X216921954Y-110456672D01*
X216679590Y-110034129D01*
X216462421Y-109652043D01*
X216279909Y-109327345D01*
X216141516Y-109076967D01*
X216060964Y-108925834D01*
X219790809Y-108925834D01*
X219815528Y-108993217D01*
X219902168Y-109165171D01*
X220041374Y-109424479D01*
X220223793Y-109753924D01*
X220440072Y-110136288D01*
X220594696Y-110405595D01*
X220831091Y-110808742D01*
X221046324Y-111163939D01*
X221230072Y-111455109D01*
X221372015Y-111666176D01*
X221461831Y-111781065D01*
X221487602Y-111796337D01*
X221537790Y-111721106D01*
X221647272Y-111541418D01*
X221805355Y-111275346D01*
X222001345Y-110940965D01*
X222224550Y-110556349D01*
X222351836Y-110335517D01*
X223159103Y-108931664D01*
X221490982Y-108912723D01*
X221020484Y-108908695D01*
X220598676Y-108907592D01*
X220245482Y-108909263D01*
X219980826Y-108913553D01*
X219824631Y-108920308D01*
X219790809Y-108925834D01*
X216060964Y-108925834D01*
X216056703Y-108917839D01*
X216033776Y-108867324D01*
G37*
G36*
X138655834Y-37182318D02*
G01*
X138762431Y-37327143D01*
X138914123Y-37556817D01*
X139099519Y-37851905D01*
X139307231Y-38192975D01*
X139525871Y-38560591D01*
X139744049Y-38935320D01*
X139950376Y-39297729D01*
X140133463Y-39628382D01*
X140281922Y-39907848D01*
X140384363Y-40116690D01*
X140429398Y-40235476D01*
X140429033Y-40253054D01*
X140350530Y-40270815D01*
X140154285Y-40285684D01*
X139863620Y-40297606D01*
X139501855Y-40306528D01*
X139092312Y-40312394D01*
X138658310Y-40315149D01*
X138223171Y-40314739D01*
X137810215Y-40311110D01*
X137442764Y-40304207D01*
X137144138Y-40293974D01*
X136937658Y-40280358D01*
X136846645Y-40263304D01*
X136844818Y-40261450D01*
X136870565Y-40190959D01*
X136956251Y-40018839D01*
X137090507Y-39765232D01*
X137261966Y-39450278D01*
X137459260Y-39094117D01*
X137671019Y-38716889D01*
X137885875Y-38338736D01*
X138092461Y-37979798D01*
X138279407Y-37660215D01*
X138435346Y-37400128D01*
X138548909Y-37219678D01*
X138605719Y-37141776D01*
X138655834Y-37182318D01*
G37*
G36*
X117083651Y-18431841D02*
G01*
X117183575Y-18592335D01*
X117330672Y-18835617D01*
X117513363Y-19141913D01*
X117720067Y-19491451D01*
X117939203Y-19864457D01*
X118159190Y-20241159D01*
X118368448Y-20601784D01*
X118555397Y-20926560D01*
X118708456Y-21195713D01*
X118816044Y-21389470D01*
X118866580Y-21488058D01*
X118867016Y-21489142D01*
X118806209Y-21505348D01*
X118622822Y-21519872D01*
X118335382Y-21532085D01*
X117962416Y-21541353D01*
X117522452Y-21547048D01*
X117120766Y-21548608D01*
X116637780Y-21550111D01*
X116205011Y-21554339D01*
X115841321Y-21560872D01*
X115565569Y-21569289D01*
X115396616Y-21579171D01*
X115350998Y-21588062D01*
X115384836Y-21657804D01*
X115479732Y-21831860D01*
X115625759Y-22092583D01*
X115812990Y-22422332D01*
X116031498Y-22803460D01*
X116164205Y-23033419D01*
X116398854Y-23440601D01*
X116610574Y-23810872D01*
X116788767Y-24125460D01*
X116922831Y-24365593D01*
X117002169Y-24512501D01*
X117018420Y-24546187D01*
X117016969Y-24578803D01*
X116974587Y-24604135D01*
X116876312Y-24623074D01*
X116707183Y-24636508D01*
X116452238Y-24645328D01*
X116096516Y-24650423D01*
X115625055Y-24652682D01*
X115221043Y-24653053D01*
X113382657Y-24653053D01*
X114268727Y-23118469D01*
X114576367Y-22585546D01*
X114928665Y-21975060D01*
X115299833Y-21331715D01*
X115664078Y-20700215D01*
X115995611Y-20125264D01*
X116080076Y-19978747D01*
X116328743Y-19549730D01*
X116554943Y-19163983D01*
X116749068Y-18837524D01*
X116901511Y-18586374D01*
X117002666Y-18426553D01*
X117042482Y-18373906D01*
X117083651Y-18431841D01*
G37*
G36*
X122487104Y-102718295D02*
G01*
X122597748Y-102886649D01*
X122764249Y-103154037D01*
X122979543Y-103508710D01*
X123236565Y-103938919D01*
X123528249Y-104432916D01*
X123847529Y-104978952D01*
X124187341Y-105565279D01*
X124216343Y-105615553D01*
X124558360Y-106208517D01*
X124880012Y-106765924D01*
X125174203Y-107275491D01*
X125433836Y-107724938D01*
X125651814Y-108101986D01*
X125821040Y-108394352D01*
X125934417Y-108589758D01*
X125984849Y-108675921D01*
X125985717Y-108677346D01*
X126030329Y-108668415D01*
X126121460Y-108563598D01*
X126263187Y-108356694D01*
X126459589Y-108041503D01*
X126714742Y-107611825D01*
X126925147Y-107248893D01*
X127167232Y-106830799D01*
X127386768Y-106456366D01*
X127573890Y-106142042D01*
X127718730Y-105904270D01*
X127811423Y-105759495D01*
X127841393Y-105721684D01*
X127883568Y-105779572D01*
X127984240Y-105940213D01*
X128131878Y-106183850D01*
X128314948Y-106490729D01*
X128521919Y-106841093D01*
X128741256Y-107215189D01*
X128961427Y-107593260D01*
X129170900Y-107955552D01*
X129358142Y-108282309D01*
X129511619Y-108553775D01*
X129619800Y-108750197D01*
X129671150Y-108851817D01*
X129673776Y-108860486D01*
X129606331Y-108870242D01*
X129416437Y-108880346D01*
X129122752Y-108890259D01*
X128743934Y-108899439D01*
X128298642Y-108907346D01*
X127865569Y-108912834D01*
X126057363Y-108931664D01*
X125170574Y-110466247D01*
X124926838Y-110885279D01*
X124705413Y-111260706D01*
X124516213Y-111576148D01*
X124369150Y-111815222D01*
X124274136Y-111961545D01*
X124242064Y-112000831D01*
X124196840Y-111942301D01*
X124091649Y-111777710D01*
X123936460Y-111523559D01*
X123741245Y-111196347D01*
X123515973Y-110812573D01*
X123326458Y-110485701D01*
X123051983Y-110012388D01*
X122837778Y-109650237D01*
X122675509Y-109387098D01*
X122556843Y-109210822D01*
X122473446Y-109109259D01*
X122416987Y-109070257D01*
X122379131Y-109081668D01*
X122370739Y-109092229D01*
X122312925Y-109186803D01*
X122196151Y-109384571D01*
X122031630Y-109666299D01*
X121830572Y-110012754D01*
X121604190Y-110404703D01*
X121487518Y-110607358D01*
X121256420Y-111006050D01*
X121047645Y-111360245D01*
X120871636Y-111652714D01*
X120738838Y-111866223D01*
X120659694Y-111983541D01*
X120642972Y-112000831D01*
X120597418Y-111942294D01*
X120491707Y-111777550D01*
X120335712Y-111522902D01*
X120139305Y-111194649D01*
X119912359Y-110809092D01*
X119704015Y-110450560D01*
X119460446Y-110027675D01*
X119242062Y-109645905D01*
X119058301Y-109321960D01*
X118918598Y-109072551D01*
X118832391Y-108914387D01*
X118808220Y-108864252D01*
X118875669Y-108853829D01*
X119065593Y-108843128D01*
X119359361Y-108832713D01*
X119738338Y-108823147D01*
X120183892Y-108814994D01*
X120621428Y-108809383D01*
X122434636Y-108790553D01*
X123299633Y-107291247D01*
X124164629Y-105791942D01*
X122403647Y-105791942D01*
X121834291Y-105790385D01*
X121393098Y-105785284D01*
X121067149Y-105775988D01*
X120843527Y-105761850D01*
X120709312Y-105742221D01*
X120651585Y-105716453D01*
X120647036Y-105703747D01*
X120682904Y-105614460D01*
X120779200Y-105427801D01*
X120923993Y-105164022D01*
X121105357Y-104843376D01*
X121311360Y-104486118D01*
X121530075Y-104112498D01*
X121749573Y-103742770D01*
X121957924Y-103397187D01*
X122143200Y-103096002D01*
X122293471Y-102859467D01*
X122396809Y-102707836D01*
X122439385Y-102660723D01*
X122487104Y-102718295D01*
G37*
G36*
X147259126Y-105734277D02*
G01*
X147687104Y-105737812D01*
X149493748Y-105756664D01*
X148627049Y-107257905D01*
X148383812Y-107677115D01*
X148160956Y-108057204D01*
X147969015Y-108380526D01*
X147818525Y-108629433D01*
X147720020Y-108786278D01*
X147687155Y-108832340D01*
X147633480Y-108807786D01*
X147526471Y-108675701D01*
X147363516Y-108432086D01*
X147142002Y-108072945D01*
X146859315Y-107594279D01*
X146714810Y-107344648D01*
X146472530Y-106920738D01*
X146257483Y-106538069D01*
X146078682Y-106213213D01*
X145945144Y-105962741D01*
X145865882Y-105803225D01*
X145848060Y-105751361D01*
X145924533Y-105743296D01*
X146122989Y-105737414D01*
X146424315Y-105733856D01*
X146809398Y-105732763D01*
X147259126Y-105734277D01*
G37*
G36*
X162556077Y-37073068D02*
G01*
X162996251Y-37079373D01*
X163366996Y-37089132D01*
X163650132Y-37101734D01*
X163827478Y-37116565D01*
X163881461Y-37132034D01*
X163829890Y-37235533D01*
X163721182Y-37433303D01*
X163566965Y-37705571D01*
X163378868Y-38032563D01*
X163168520Y-38394505D01*
X162947550Y-38771624D01*
X162727586Y-39144145D01*
X162520258Y-39492295D01*
X162337193Y-39796301D01*
X162190023Y-40036388D01*
X162090373Y-40192783D01*
X162050253Y-40245831D01*
X162003098Y-40187248D01*
X161896076Y-40022415D01*
X161739148Y-39767706D01*
X161542276Y-39439494D01*
X161315419Y-39054151D01*
X161112754Y-38704846D01*
X160870296Y-38282526D01*
X160653046Y-37900718D01*
X160470474Y-37576341D01*
X160332047Y-37326313D01*
X160247232Y-37167551D01*
X160224331Y-37117346D01*
X160291803Y-37104886D01*
X160481889Y-37093687D01*
X160776093Y-37084215D01*
X161155920Y-37076937D01*
X161602876Y-37072323D01*
X162064655Y-37070831D01*
X162556077Y-37073068D01*
G37*
G36*
X17159091Y-107271656D02*
G01*
X17402676Y-107694613D01*
X17621070Y-108076529D01*
X17804837Y-108400680D01*
X17944538Y-108650339D01*
X18030734Y-108808780D01*
X18054887Y-108859156D01*
X17987422Y-108869152D01*
X17797388Y-108878133D01*
X17503326Y-108885724D01*
X17123776Y-108891545D01*
X16677280Y-108895222D01*
X16223554Y-108896386D01*
X14392222Y-108896386D01*
X14116732Y-108420136D01*
X13750840Y-107787228D01*
X13449833Y-107265608D01*
X13207640Y-106844588D01*
X13018189Y-106513481D01*
X12875409Y-106261602D01*
X12773229Y-106078264D01*
X12705578Y-105952779D01*
X12666385Y-105874462D01*
X12653696Y-105844858D01*
X12647293Y-105807365D01*
X12670189Y-105778314D01*
X12737817Y-105756637D01*
X12865612Y-105741264D01*
X13069008Y-105731124D01*
X13363440Y-105725148D01*
X13764342Y-105722266D01*
X14287149Y-105721409D01*
X14435154Y-105721386D01*
X16263296Y-105721386D01*
X17159091Y-107271656D01*
G37*
G36*
X110344966Y-21480290D02*
G01*
X110785140Y-21486595D01*
X111155885Y-21496354D01*
X111439021Y-21508956D01*
X111616366Y-21523787D01*
X111670350Y-21539257D01*
X111619525Y-21640935D01*
X111511512Y-21837233D01*
X111357926Y-22108374D01*
X111170382Y-22434577D01*
X110960497Y-22796065D01*
X110739885Y-23173057D01*
X110520163Y-23545776D01*
X110312946Y-23894442D01*
X110129850Y-24199277D01*
X109982491Y-24440501D01*
X109882484Y-24598336D01*
X109841693Y-24653053D01*
X109795244Y-24594481D01*
X109688832Y-24429665D01*
X109532376Y-24174951D01*
X109335797Y-23846684D01*
X109109014Y-23461212D01*
X108904195Y-23108221D01*
X108661390Y-22685609D01*
X108443776Y-22303736D01*
X108260805Y-21979443D01*
X108121930Y-21729572D01*
X108036603Y-21570965D01*
X108013220Y-21520721D01*
X108080692Y-21509292D01*
X108270778Y-21499018D01*
X108564983Y-21490330D01*
X108944811Y-21483655D01*
X109391768Y-21479422D01*
X109853544Y-21478053D01*
X110344966Y-21480290D01*
G37*
G36*
X147682652Y-27833391D02*
G01*
X147787098Y-27989909D01*
X147938706Y-28229463D01*
X148125772Y-28532471D01*
X148336587Y-28879356D01*
X148559447Y-29250536D01*
X148782645Y-29626433D01*
X148994475Y-29987465D01*
X149183231Y-30314055D01*
X149337208Y-30586621D01*
X149444698Y-30785585D01*
X149488127Y-30875595D01*
X149427134Y-30890816D01*
X149243214Y-30904501D01*
X148954548Y-30916080D01*
X148579317Y-30924985D01*
X148135703Y-30930644D01*
X147671322Y-30932497D01*
X147178372Y-30930484D01*
X146735274Y-30924813D01*
X146360523Y-30916036D01*
X146072615Y-30904704D01*
X145890044Y-30891369D01*
X145830998Y-30877592D01*
X145865116Y-30797591D01*
X145959625Y-30617894D01*
X146102752Y-30358693D01*
X146282729Y-30040178D01*
X146487785Y-29682540D01*
X146706148Y-29305969D01*
X146926049Y-28930657D01*
X147135718Y-28576794D01*
X147323383Y-28264572D01*
X147477274Y-28014180D01*
X147585621Y-27845810D01*
X147636653Y-27779652D01*
X147637074Y-27779489D01*
X147682652Y-27833391D01*
G37*
G36*
X142234935Y-68351991D02*
G01*
X142314436Y-68434134D01*
X142435574Y-68603006D01*
X142604409Y-68867730D01*
X142826999Y-69237430D01*
X143109403Y-69721229D01*
X143149887Y-69791353D01*
X143393062Y-70214973D01*
X143612390Y-70600822D01*
X143798027Y-70931274D01*
X143940126Y-71188700D01*
X144028843Y-71355474D01*
X144054643Y-71411257D01*
X144035238Y-71439665D01*
X143952164Y-71461813D01*
X143792106Y-71478364D01*
X143541749Y-71489983D01*
X143187775Y-71497337D01*
X142716870Y-71501087D01*
X142237838Y-71501942D01*
X141744984Y-71500525D01*
X141301986Y-71496536D01*
X140927344Y-71490360D01*
X140639556Y-71482388D01*
X140457121Y-71473007D01*
X140398220Y-71463328D01*
X140431984Y-71391588D01*
X140525527Y-71218335D01*
X140667226Y-70963768D01*
X140845459Y-70648088D01*
X141048604Y-70291494D01*
X141265038Y-69914187D01*
X141483139Y-69536367D01*
X141691283Y-69178233D01*
X141877849Y-68859985D01*
X142031213Y-68601824D01*
X142139754Y-68423949D01*
X142191012Y-68347454D01*
X142234935Y-68351991D01*
G37*
G36*
X163870536Y-68346102D02*
G01*
X163971622Y-68497371D01*
X164119087Y-68732666D01*
X164301541Y-69032499D01*
X164507595Y-69377380D01*
X164725859Y-69747823D01*
X164944945Y-70124338D01*
X165153461Y-70487437D01*
X165340019Y-70817632D01*
X165493230Y-71095435D01*
X165601704Y-71301357D01*
X165654051Y-71415911D01*
X165657109Y-71429434D01*
X165590356Y-71448766D01*
X165405260Y-71465389D01*
X165124566Y-71479179D01*
X164771019Y-71490015D01*
X164367363Y-71497771D01*
X163936343Y-71502326D01*
X163500704Y-71503556D01*
X163083190Y-71501339D01*
X162706546Y-71495550D01*
X162393516Y-71486067D01*
X162166846Y-71472766D01*
X162049279Y-71455526D01*
X162038342Y-71449025D01*
X162065973Y-71380240D01*
X162153487Y-71209627D01*
X162289535Y-70957172D01*
X162462772Y-70642862D01*
X162661848Y-70286683D01*
X162875416Y-69908620D01*
X163092129Y-69528660D01*
X163300639Y-69166790D01*
X163489598Y-68842994D01*
X163647660Y-68577259D01*
X163763475Y-68389572D01*
X163825697Y-68299918D01*
X163827218Y-68298346D01*
X163870536Y-68346102D01*
G37*
G36*
X69373419Y-16819468D02*
G01*
X69616232Y-17242612D01*
X69833918Y-17624669D01*
X70017062Y-17948891D01*
X70156247Y-18198529D01*
X70242056Y-18356836D01*
X70265998Y-18406968D01*
X70197636Y-18414146D01*
X70001326Y-18420867D01*
X69690231Y-18426999D01*
X69277514Y-18432405D01*
X68776336Y-18436951D01*
X68199861Y-18440502D01*
X67561251Y-18442924D01*
X66873670Y-18444082D01*
X66632387Y-18444164D01*
X65931222Y-18443463D01*
X65274578Y-18441452D01*
X64675618Y-18438265D01*
X64147504Y-18434036D01*
X63703398Y-18428901D01*
X63356463Y-18422994D01*
X63119863Y-18416451D01*
X63006760Y-18409406D01*
X62998776Y-18406934D01*
X63032644Y-18338197D01*
X63127958Y-18164170D01*
X63275278Y-17901579D01*
X63465167Y-17567149D01*
X63688187Y-17177606D01*
X63894571Y-16819434D01*
X64790366Y-15269164D01*
X68480841Y-15269164D01*
X69373419Y-16819468D01*
G37*
G36*
X142287363Y-43408247D02*
G01*
X142390304Y-43568853D01*
X142539710Y-43812132D01*
X142723878Y-44118119D01*
X142931106Y-44466851D01*
X143149690Y-44838365D01*
X143367926Y-45212699D01*
X143574112Y-45569888D01*
X143756545Y-45889970D01*
X143903521Y-46152982D01*
X144003337Y-46338959D01*
X144041101Y-46418157D01*
X144039789Y-46450769D01*
X143997852Y-46476116D01*
X143900352Y-46495083D01*
X143732351Y-46508557D01*
X143478910Y-46517423D01*
X143125092Y-46522566D01*
X142655959Y-46524873D01*
X142234333Y-46525275D01*
X141741852Y-46523088D01*
X141300576Y-46516925D01*
X140928649Y-46507384D01*
X140644218Y-46495062D01*
X140465426Y-46480556D01*
X140409979Y-46465219D01*
X140462355Y-46360550D01*
X140571740Y-46161839D01*
X140726506Y-45888849D01*
X140915026Y-45561345D01*
X141125672Y-45199091D01*
X141346816Y-44821849D01*
X141566832Y-44449384D01*
X141774091Y-44101459D01*
X141956966Y-43797838D01*
X142103829Y-43558284D01*
X142203054Y-43402562D01*
X142242591Y-43350275D01*
X142287363Y-43408247D01*
G37*
G36*
X157912116Y-108839485D02*
G01*
X158201847Y-108843941D01*
X158386277Y-108850805D01*
X158446177Y-108858603D01*
X158422870Y-108926835D01*
X158338577Y-109096254D01*
X158204746Y-109346943D01*
X158032820Y-109658985D01*
X157834245Y-110012461D01*
X157620466Y-110387455D01*
X157402929Y-110764048D01*
X157193077Y-111122325D01*
X157002357Y-111442367D01*
X156842213Y-111704257D01*
X156724091Y-111888077D01*
X156659436Y-111973910D01*
X156653932Y-111977564D01*
X156603244Y-111924047D01*
X156493329Y-111763589D01*
X156334150Y-111512233D01*
X156135667Y-111186026D01*
X155907840Y-110801011D01*
X155692410Y-110428774D01*
X154794101Y-108861108D01*
X156602541Y-108842257D01*
X157093321Y-108838473D01*
X157536227Y-108837605D01*
X157912116Y-108839485D01*
G37*
G36*
X23904181Y-108827462D02*
G01*
X24347280Y-108832059D01*
X24722032Y-108839173D01*
X25009940Y-108848357D01*
X25192509Y-108859165D01*
X25251553Y-108870331D01*
X25217727Y-108946645D01*
X25123953Y-109122596D01*
X24981788Y-109378346D01*
X24802792Y-109694059D01*
X24598521Y-110049896D01*
X24380533Y-110426019D01*
X24160386Y-110802592D01*
X23949638Y-111159776D01*
X23759847Y-111477733D01*
X23602569Y-111736627D01*
X23489364Y-111916619D01*
X23431788Y-111997871D01*
X23427846Y-112000533D01*
X23381454Y-111941907D01*
X23275107Y-111777155D01*
X23118787Y-111522714D01*
X22922475Y-111195019D01*
X22696152Y-110810506D01*
X22499887Y-110472499D01*
X22256993Y-110051029D01*
X22037821Y-109669343D01*
X21852183Y-109344643D01*
X21709895Y-109094131D01*
X21620769Y-108935012D01*
X21594424Y-108885297D01*
X21655417Y-108869390D01*
X21839337Y-108855088D01*
X22128002Y-108842987D01*
X22503232Y-108833682D01*
X22946845Y-108827767D01*
X23411229Y-108825831D01*
X23904181Y-108827462D01*
G37*
G36*
X28871059Y-102692597D02*
G01*
X28976963Y-102849291D01*
X29128462Y-103089603D01*
X29313999Y-103393717D01*
X29522014Y-103741818D01*
X29740949Y-104114089D01*
X29959243Y-104490715D01*
X30165340Y-104851878D01*
X30347679Y-105177764D01*
X30494702Y-105448555D01*
X30594850Y-105644436D01*
X30636564Y-105745591D01*
X30637095Y-105750538D01*
X30603152Y-105830716D01*
X30509325Y-106011745D01*
X30367437Y-106272941D01*
X30189310Y-106593620D01*
X29986770Y-106953101D01*
X29771638Y-107330700D01*
X29555738Y-107705733D01*
X29350893Y-108057518D01*
X29168926Y-108365372D01*
X29021661Y-108608611D01*
X28920921Y-108766552D01*
X28886243Y-108813406D01*
X28846771Y-108821978D01*
X28784723Y-108774094D01*
X28692386Y-108658294D01*
X28562049Y-108463119D01*
X28386001Y-108177108D01*
X28156530Y-107788802D01*
X27907292Y-107358601D01*
X27664220Y-106934269D01*
X27446372Y-106549424D01*
X27263212Y-106221159D01*
X27124204Y-105966567D01*
X27038815Y-105802741D01*
X27015442Y-105747991D01*
X27049500Y-105666830D01*
X27143851Y-105486031D01*
X27286759Y-105225781D01*
X27466491Y-104906271D01*
X27671310Y-104547690D01*
X27889483Y-104170227D01*
X28109274Y-103794072D01*
X28318949Y-103439414D01*
X28506772Y-103126443D01*
X28661009Y-102875348D01*
X28769924Y-102706318D01*
X28821784Y-102639543D01*
X28822310Y-102639339D01*
X28871059Y-102692597D01*
G37*
G36*
X49983828Y-18386589D02*
G01*
X50445313Y-18390076D01*
X52285183Y-18408886D01*
X53161498Y-19925831D01*
X53402494Y-20345042D01*
X53618162Y-20724092D01*
X53798932Y-21045844D01*
X53935237Y-21293162D01*
X54017508Y-21448908D01*
X54038016Y-21495692D01*
X53970618Y-21509939D01*
X53780703Y-21522734D01*
X53486865Y-21533538D01*
X53107695Y-21541808D01*
X52661786Y-21547005D01*
X52217626Y-21548608D01*
X50397033Y-21548608D01*
X49501237Y-19998338D01*
X49257638Y-19575312D01*
X49039233Y-19193251D01*
X48855461Y-18868898D01*
X48715762Y-18618993D01*
X48629577Y-18460279D01*
X48605442Y-18409667D01*
X48672907Y-18400069D01*
X48862973Y-18392766D01*
X49157145Y-18387954D01*
X49536928Y-18385829D01*
X49983828Y-18386589D01*
G37*
G36*
X157914548Y-58955311D02*
G01*
X158202076Y-58958821D01*
X158384062Y-58964575D01*
X158441575Y-58971223D01*
X158415072Y-59035901D01*
X158329188Y-59202658D01*
X158195232Y-59451439D01*
X158024509Y-59762194D01*
X157828326Y-60114870D01*
X157617991Y-60489414D01*
X157404811Y-60865776D01*
X157200092Y-61223901D01*
X157015141Y-61543739D01*
X156861266Y-61805237D01*
X156749772Y-61988343D01*
X156693528Y-62071284D01*
X156619185Y-62075543D01*
X156581518Y-62036006D01*
X156530464Y-61950498D01*
X156419393Y-61760819D01*
X156258807Y-61485026D01*
X156059208Y-61141176D01*
X155831097Y-60747326D01*
X155664959Y-60459997D01*
X154808807Y-58978331D01*
X156609893Y-58959479D01*
X157099338Y-58955518D01*
X157540596Y-58954170D01*
X157914548Y-58955311D01*
G37*
G36*
X184141022Y-18375839D02*
G01*
X184582055Y-18382125D01*
X184953721Y-18391856D01*
X185237866Y-18404424D01*
X185416338Y-18419218D01*
X185471461Y-18434812D01*
X185423128Y-18530408D01*
X185317441Y-18721776D01*
X185165969Y-18989122D01*
X184980284Y-19312654D01*
X184771956Y-19672576D01*
X184552556Y-20049094D01*
X184333656Y-20422416D01*
X184126825Y-20772746D01*
X183943635Y-21080292D01*
X183795657Y-21325259D01*
X183694462Y-21487853D01*
X183651620Y-21548280D01*
X183651413Y-21548311D01*
X183607257Y-21489713D01*
X183502943Y-21325041D01*
X183348358Y-21070715D01*
X183153387Y-20743161D01*
X182927919Y-20358800D01*
X182731553Y-20020277D01*
X182488660Y-19598807D01*
X182269487Y-19217121D01*
X182083850Y-18892420D01*
X181941561Y-18641909D01*
X181852435Y-18482790D01*
X181826090Y-18433075D01*
X181887099Y-18417192D01*
X182071062Y-18402908D01*
X182359826Y-18390816D01*
X182735239Y-18381508D01*
X183179147Y-18375577D01*
X183648776Y-18373608D01*
X184141022Y-18375839D01*
G37*
G36*
X281802940Y-93248383D02*
G01*
X282175695Y-93254166D01*
X282461043Y-93263629D01*
X282640877Y-93276355D01*
X282697411Y-93291335D01*
X282656879Y-93366822D01*
X282555468Y-93547213D01*
X282402999Y-93815286D01*
X282209292Y-94153824D01*
X281984168Y-94545605D01*
X281791553Y-94879721D01*
X280909609Y-96407457D01*
X279054551Y-96407755D01*
X277199494Y-96408053D01*
X277374219Y-96108192D01*
X277463061Y-95955101D01*
X277608471Y-95703820D01*
X277796543Y-95378409D01*
X278013373Y-95002931D01*
X278245053Y-94601447D01*
X278281460Y-94538331D01*
X279013977Y-93268331D01*
X280867650Y-93249508D01*
X281360889Y-93246692D01*
X281802940Y-93248383D01*
G37*
G36*
X212935334Y-18375344D02*
G01*
X213376268Y-18380233D01*
X213748703Y-18387797D01*
X214034070Y-18397558D01*
X214213796Y-18409039D01*
X214269887Y-18420578D01*
X214235742Y-18493163D01*
X214138728Y-18672584D01*
X213986973Y-18944810D01*
X213788604Y-19295814D01*
X213551750Y-19711567D01*
X213284540Y-20178040D01*
X212995102Y-20681206D01*
X212691564Y-21207036D01*
X212382054Y-21741502D01*
X212074700Y-22270574D01*
X211777632Y-22780226D01*
X211498977Y-23256428D01*
X211246864Y-23685151D01*
X211029420Y-24052369D01*
X210854775Y-24344051D01*
X210731056Y-24546170D01*
X210666391Y-24644698D01*
X210659224Y-24652113D01*
X210609843Y-24594442D01*
X210503561Y-24434288D01*
X210353060Y-24191932D01*
X210171023Y-23887651D01*
X210031028Y-23647636D01*
X209806102Y-23258345D01*
X209578168Y-22864230D01*
X209368669Y-22502336D01*
X209199044Y-22209714D01*
X209143774Y-22114528D01*
X209005052Y-21869098D01*
X208899015Y-21668692D01*
X208842283Y-21545256D01*
X208837109Y-21525054D01*
X208871015Y-21449412D01*
X208966413Y-21268903D01*
X209113820Y-21000625D01*
X209303755Y-20661674D01*
X209526738Y-20269149D01*
X209728084Y-19918440D01*
X210619058Y-18373608D01*
X212444472Y-18373608D01*
X212935334Y-18375344D01*
G37*
G36*
X177754575Y-105732655D02*
G01*
X178043217Y-105735349D01*
X178226619Y-105740113D01*
X178286553Y-105746412D01*
X178252360Y-105813479D01*
X178155227Y-105988316D01*
X178003323Y-106256807D01*
X177804818Y-106604835D01*
X177567880Y-107018287D01*
X177300679Y-107483046D01*
X177011384Y-107984997D01*
X176708164Y-108510025D01*
X176399189Y-109044015D01*
X176092627Y-109572851D01*
X175796649Y-110082417D01*
X175519423Y-110558599D01*
X175269118Y-110987280D01*
X175053904Y-111354346D01*
X174881949Y-111645681D01*
X174761424Y-111847170D01*
X174700497Y-111944697D01*
X174695607Y-111951110D01*
X174614468Y-111949675D01*
X174525522Y-111849623D01*
X174471212Y-111758622D01*
X174358989Y-111566951D01*
X174201360Y-111296225D01*
X174010831Y-110968058D01*
X173799910Y-110604064D01*
X173581103Y-110225858D01*
X173366917Y-109855053D01*
X173169859Y-109513265D01*
X173002436Y-109222107D01*
X172877154Y-109003194D01*
X172816671Y-108896386D01*
X172845227Y-108828330D01*
X172935873Y-108655147D01*
X173079386Y-108393472D01*
X173266538Y-108059939D01*
X173488105Y-107671184D01*
X173697104Y-107308886D01*
X174597277Y-105756664D01*
X176441915Y-105737853D01*
X176935452Y-105733822D01*
X177379162Y-105732118D01*
X177754575Y-105732655D01*
G37*
G36*
X262918596Y-108910567D02*
G01*
X262977557Y-108997517D01*
X263094213Y-109187423D01*
X263256773Y-109460426D01*
X263453440Y-109796670D01*
X263672421Y-110176295D01*
X263727310Y-110272219D01*
X263955004Y-110670201D01*
X264167317Y-111040230D01*
X264351214Y-111359672D01*
X264493662Y-111605896D01*
X264581627Y-111756269D01*
X264590738Y-111771525D01*
X264728618Y-112000831D01*
X262888419Y-112000831D01*
X262395484Y-111999427D01*
X261952402Y-111995472D01*
X261577670Y-111989351D01*
X261289783Y-111981449D01*
X261107238Y-111972150D01*
X261048220Y-111962545D01*
X261081991Y-111893458D01*
X261177033Y-111718988D01*
X261323936Y-111455885D01*
X261513291Y-111120903D01*
X261735690Y-110730791D01*
X261941826Y-110371587D01*
X262226674Y-109880289D01*
X262451339Y-109502008D01*
X262623118Y-109225831D01*
X262749307Y-109040845D01*
X262837203Y-108936135D01*
X262894101Y-108900788D01*
X262918596Y-108910567D01*
G37*
G36*
X43728858Y-24583769D02*
G01*
X44172200Y-24587351D01*
X44547210Y-24592895D01*
X44835402Y-24600053D01*
X45018288Y-24608477D01*
X45077664Y-24617206D01*
X45043590Y-24693235D01*
X44949106Y-24868760D01*
X44805820Y-25124044D01*
X44625343Y-25439347D01*
X44419282Y-25794931D01*
X44199247Y-26171059D01*
X43976845Y-26547992D01*
X43763687Y-26905991D01*
X43571380Y-27225318D01*
X43411534Y-27486234D01*
X43295757Y-27669002D01*
X43235658Y-27753883D01*
X43230755Y-27757497D01*
X43173445Y-27700743D01*
X43068171Y-27550308D01*
X42935373Y-27335931D01*
X42903399Y-27281247D01*
X42537507Y-26648339D01*
X42236500Y-26126719D01*
X41994307Y-25705699D01*
X41804856Y-25374592D01*
X41662076Y-25122713D01*
X41559896Y-24939375D01*
X41492245Y-24813890D01*
X41453051Y-24735573D01*
X41440363Y-24705969D01*
X41433986Y-24668601D01*
X41456805Y-24639616D01*
X41524199Y-24617957D01*
X41651548Y-24602566D01*
X41854233Y-24592385D01*
X42147633Y-24586357D01*
X42547129Y-24583423D01*
X43068102Y-24582527D01*
X43235671Y-24582497D01*
X43728858Y-24583769D01*
G37*
G36*
X266541334Y-96465842D02*
G01*
X266651484Y-96647641D01*
X266814435Y-96922579D01*
X267022041Y-97276497D01*
X267266156Y-97695236D01*
X267538634Y-98164635D01*
X267831329Y-98670536D01*
X268136094Y-99198779D01*
X268444783Y-99735205D01*
X268749251Y-100265653D01*
X269041350Y-100775966D01*
X269312935Y-101251982D01*
X269555860Y-101679543D01*
X269761978Y-102044489D01*
X269923143Y-102332661D01*
X270031210Y-102529898D01*
X270078031Y-102622043D01*
X270079331Y-102626526D01*
X270045550Y-102710219D01*
X269951865Y-102891324D01*
X269809768Y-103150265D01*
X269630747Y-103467469D01*
X269426293Y-103823358D01*
X269207895Y-104198357D01*
X268987044Y-104572891D01*
X268775229Y-104927384D01*
X268583940Y-105242261D01*
X268424667Y-105497946D01*
X268308900Y-105674863D01*
X268248129Y-105753437D01*
X268242839Y-105755398D01*
X268195437Y-105688167D01*
X268088578Y-105515631D01*
X267932583Y-105255138D01*
X267737774Y-104924036D01*
X267514469Y-104539673D01*
X267361619Y-104274179D01*
X267125606Y-103864955D01*
X266911610Y-103497971D01*
X266729928Y-103190559D01*
X266590857Y-102960046D01*
X266504696Y-102823762D01*
X266482080Y-102793999D01*
X266435164Y-102844061D01*
X266328921Y-103000254D01*
X266173686Y-103245996D01*
X265979795Y-103564701D01*
X265757583Y-103939785D01*
X265611919Y-104190263D01*
X265328949Y-104680575D01*
X265108738Y-105061720D01*
X264942875Y-105346377D01*
X264822949Y-105547229D01*
X264740546Y-105676956D01*
X264687256Y-105748239D01*
X264654668Y-105773758D01*
X264634369Y-105766195D01*
X264617947Y-105738231D01*
X264602977Y-105711280D01*
X264551591Y-105625443D01*
X264440005Y-105435557D01*
X264278756Y-105159670D01*
X264078383Y-104815834D01*
X263849424Y-104422099D01*
X263682095Y-104133886D01*
X262822428Y-102652219D01*
X264630509Y-102616942D01*
X266438590Y-102581664D01*
X267303554Y-101082358D01*
X268168518Y-99583053D01*
X266407536Y-99583053D01*
X265819953Y-99580297D01*
X265343333Y-99572218D01*
X264984785Y-99559098D01*
X264751418Y-99541220D01*
X264650341Y-99518867D01*
X264646553Y-99513066D01*
X264680358Y-99425175D01*
X264774123Y-99241308D01*
X264916379Y-98980868D01*
X265095654Y-98663258D01*
X265300478Y-98307879D01*
X265519379Y-97934136D01*
X265740886Y-97561430D01*
X265953528Y-97209165D01*
X266145835Y-96896742D01*
X266306335Y-96643566D01*
X266423557Y-96469038D01*
X266486031Y-96392562D01*
X266492132Y-96391343D01*
X266541334Y-96465842D01*
G37*
G36*
X24363009Y-94801374D02*
G01*
X25269507Y-96369696D01*
X25118258Y-96653458D01*
X25037347Y-96799818D01*
X24898589Y-97044959D01*
X24715214Y-97365759D01*
X24500449Y-97739094D01*
X24267526Y-98141844D01*
X24209122Y-98242497D01*
X23451236Y-99547775D01*
X21641488Y-99566592D01*
X19831741Y-99585409D01*
X19692047Y-99354925D01*
X19616102Y-99226771D01*
X19482158Y-98997797D01*
X19302683Y-98689441D01*
X19090146Y-98323138D01*
X18857016Y-97920327D01*
X18763985Y-97759315D01*
X17975618Y-96394188D01*
X18734540Y-95078204D01*
X18968787Y-94671437D01*
X19187778Y-94290085D01*
X19378552Y-93956803D01*
X19528149Y-93694243D01*
X19623610Y-93525057D01*
X19638480Y-93498218D01*
X19783498Y-93234217D01*
X21620004Y-93233635D01*
X23456511Y-93233053D01*
X24363009Y-94801374D01*
G37*
G36*
X190690778Y-21887680D02*
G01*
X190579746Y-22082507D01*
X190415070Y-22371405D01*
X190213004Y-22725861D01*
X189989802Y-23117362D01*
X189787109Y-23472864D01*
X189576358Y-23838191D01*
X189387474Y-24157498D01*
X189232025Y-24411888D01*
X189121577Y-24582459D01*
X189067697Y-24650314D01*
X189066222Y-24650737D01*
X189012165Y-24594551D01*
X188905167Y-24440697D01*
X188761897Y-24214252D01*
X188633962Y-24000414D01*
X188253667Y-23348823D01*
X187941378Y-22810813D01*
X187692802Y-22378780D01*
X187503644Y-22045124D01*
X187369611Y-21802242D01*
X187286409Y-21642532D01*
X187249743Y-21558393D01*
X187247109Y-21545201D01*
X187315725Y-21524604D01*
X187513869Y-21507243D01*
X187829986Y-21493540D01*
X188252523Y-21483918D01*
X188769924Y-21478797D01*
X189085639Y-21478053D01*
X190924169Y-21478053D01*
X190690778Y-21887680D01*
G37*
G36*
X288563245Y-105723460D02*
G01*
X289004279Y-105729304D01*
X289375945Y-105738352D01*
X289660090Y-105750036D01*
X289838562Y-105763790D01*
X289893683Y-105778289D01*
X289842713Y-105877491D01*
X289734776Y-106071773D01*
X289581448Y-106341370D01*
X289394299Y-106666516D01*
X289184903Y-107027447D01*
X288964834Y-107404398D01*
X288745664Y-107777603D01*
X288538967Y-108127298D01*
X288356314Y-108433717D01*
X288209280Y-108677096D01*
X288109437Y-108837669D01*
X288068360Y-108895672D01*
X288024255Y-108837330D01*
X287920100Y-108672852D01*
X287765774Y-108418668D01*
X287571156Y-108091208D01*
X287346124Y-107706902D01*
X287151138Y-107370090D01*
X286908776Y-106948613D01*
X286690106Y-106566836D01*
X286504939Y-106242010D01*
X286363083Y-105991382D01*
X286274349Y-105832202D01*
X286248313Y-105782590D01*
X286309321Y-105766243D01*
X286493284Y-105751542D01*
X286782048Y-105739097D01*
X287157460Y-105729517D01*
X287601367Y-105723412D01*
X288070998Y-105721386D01*
X288563245Y-105723460D01*
G37*
G36*
X82869125Y-108885552D02*
G01*
X82969782Y-109045736D01*
X83117392Y-109288957D01*
X83300427Y-109595473D01*
X83507359Y-109945543D01*
X83726662Y-110319425D01*
X83946806Y-110697377D01*
X84156263Y-111059659D01*
X84343507Y-111386528D01*
X84497009Y-111658243D01*
X84605241Y-111855062D01*
X84656676Y-111957244D01*
X84659331Y-111966121D01*
X84591860Y-111975423D01*
X84401784Y-111983783D01*
X84107606Y-111990853D01*
X83727832Y-111996282D01*
X83280965Y-111999723D01*
X82820801Y-112000831D01*
X80982271Y-112000831D01*
X81215662Y-111591203D01*
X81595393Y-110925103D01*
X81911296Y-110371924D01*
X82169113Y-109921818D01*
X82374586Y-109564937D01*
X82533460Y-109291432D01*
X82651475Y-109091457D01*
X82734376Y-108955163D01*
X82787906Y-108872703D01*
X82817806Y-108834228D01*
X82826949Y-108828146D01*
X82869125Y-108885552D01*
G37*
G36*
X142285619Y-18433650D02*
G01*
X142390810Y-18597886D01*
X142545831Y-18851867D01*
X142740741Y-19179121D01*
X142965597Y-19563177D01*
X143156365Y-19893297D01*
X143432864Y-20371399D01*
X143649348Y-20737618D01*
X143813787Y-21003728D01*
X143934149Y-21181502D01*
X144018405Y-21282713D01*
X144074524Y-21319133D01*
X144110388Y-21302653D01*
X144167495Y-21211442D01*
X144283175Y-21016490D01*
X144446375Y-20736795D01*
X144646041Y-20391352D01*
X144871121Y-19999159D01*
X144993393Y-19785055D01*
X145223934Y-19383763D01*
X145432334Y-19026850D01*
X145608254Y-18731549D01*
X145741353Y-18515094D01*
X145821293Y-18394718D01*
X145838966Y-18375699D01*
X145891898Y-18433655D01*
X145999727Y-18596296D01*
X146151270Y-18843622D01*
X146335344Y-19155635D01*
X146540764Y-19512337D01*
X146756349Y-19893728D01*
X146970913Y-20279811D01*
X147173276Y-20650587D01*
X147352252Y-20986057D01*
X147496659Y-21266223D01*
X147595313Y-21471086D01*
X147637032Y-21580648D01*
X147637107Y-21591235D01*
X147592149Y-21678608D01*
X147486635Y-21869913D01*
X147330806Y-22147014D01*
X147134901Y-22491778D01*
X146909161Y-22886068D01*
X146744158Y-23172670D01*
X145889985Y-24653053D01*
X144061325Y-24653053D01*
X143570006Y-24651594D01*
X143128599Y-24647485D01*
X142755658Y-24641126D01*
X142469738Y-24632920D01*
X142289391Y-24623267D01*
X142232664Y-24613507D01*
X142266468Y-24543877D01*
X142361414Y-24369470D01*
X142507802Y-24107549D01*
X142695932Y-23775377D01*
X142916106Y-23390218D01*
X143079331Y-23106587D01*
X143315825Y-22694953D01*
X143526862Y-22324254D01*
X143702735Y-22011819D01*
X143833736Y-21774977D01*
X143910159Y-21631057D01*
X143925998Y-21595122D01*
X143858593Y-21582345D01*
X143668977Y-21569518D01*
X143376049Y-21557316D01*
X142998708Y-21546415D01*
X142555851Y-21537487D01*
X142163381Y-21532181D01*
X140400765Y-21513331D01*
X141299076Y-19945489D01*
X141543743Y-19521187D01*
X141766368Y-19140297D01*
X141957186Y-18819105D01*
X142106434Y-18573897D01*
X142204350Y-18420957D01*
X142240203Y-18375628D01*
X142285619Y-18433650D01*
G37*
G36*
X142223734Y-80844729D02*
G01*
X142288638Y-80918588D01*
X142390159Y-81061273D01*
X142531955Y-81278825D01*
X142717687Y-81577285D01*
X142951012Y-81962692D01*
X143235591Y-82441089D01*
X143575080Y-83018514D01*
X143973141Y-83701009D01*
X144433431Y-84494614D01*
X144931467Y-85356589D01*
X145359281Y-86098599D01*
X145766961Y-86806670D01*
X146148939Y-87471068D01*
X146499647Y-88082063D01*
X146813514Y-88629921D01*
X147084974Y-89104911D01*
X147308457Y-89497301D01*
X147478394Y-89797359D01*
X147589216Y-89995353D01*
X147635356Y-90081550D01*
X147635989Y-90083068D01*
X147639427Y-90118283D01*
X147609267Y-90145612D01*
X147530255Y-90166041D01*
X147387138Y-90180555D01*
X147164662Y-90190139D01*
X146847573Y-90195778D01*
X146420618Y-90198458D01*
X145868543Y-90199163D01*
X145838546Y-90199164D01*
X145345359Y-90198119D01*
X144902017Y-90195174D01*
X144527006Y-90190617D01*
X144238814Y-90184733D01*
X144055929Y-90177809D01*
X143996553Y-90170634D01*
X144030420Y-90104275D01*
X144125636Y-89932777D01*
X144272626Y-89672990D01*
X144461816Y-89341767D01*
X144683632Y-88955959D01*
X144868463Y-88636050D01*
X145740373Y-87129997D01*
X143986518Y-87111147D01*
X143495923Y-87103426D01*
X143060892Y-87091841D01*
X142699485Y-87077243D01*
X142429761Y-87060479D01*
X142269780Y-87042398D01*
X142232664Y-87028725D01*
X142266523Y-86952194D01*
X142361617Y-86771295D01*
X142508224Y-86503633D01*
X142696622Y-86166810D01*
X142917088Y-85778432D01*
X143079506Y-85495353D01*
X143926348Y-84025553D01*
X142179923Y-83990275D01*
X141612694Y-83977193D01*
X141173990Y-83963029D01*
X140851224Y-83946885D01*
X140631809Y-83927860D01*
X140503159Y-83905056D01*
X140452688Y-83877575D01*
X140451143Y-83866782D01*
X140490616Y-83781115D01*
X140589628Y-83594905D01*
X140736104Y-83329196D01*
X140917966Y-83005031D01*
X141123138Y-82643456D01*
X141339544Y-82265513D01*
X141555105Y-81892247D01*
X141757747Y-81544702D01*
X141935391Y-81243922D01*
X142075962Y-81010950D01*
X142167383Y-80866831D01*
X142191789Y-80833657D01*
X142223734Y-80844729D01*
G37*
G36*
X290435779Y-52666966D02*
G01*
X290916901Y-52674298D01*
X291287018Y-52686367D01*
X291537261Y-52702842D01*
X291658759Y-52723394D01*
X291669331Y-52732413D01*
X291635210Y-52805019D01*
X291538304Y-52985335D01*
X291386798Y-53259107D01*
X291188876Y-53612078D01*
X290952723Y-54029994D01*
X290686523Y-54498599D01*
X290398462Y-55003637D01*
X290096724Y-55530853D01*
X289789493Y-56065993D01*
X289484955Y-56594800D01*
X289191294Y-57103019D01*
X288916695Y-57576395D01*
X288669342Y-58000673D01*
X288457421Y-58361597D01*
X288289115Y-58644911D01*
X288172610Y-58836362D01*
X288116089Y-58921692D01*
X288115180Y-58922710D01*
X288047170Y-58948678D01*
X287965333Y-58869495D01*
X287890702Y-58746321D01*
X287812306Y-58607265D01*
X287676219Y-58368543D01*
X287495341Y-58052671D01*
X287282574Y-57682169D01*
X287050817Y-57279554D01*
X286982415Y-57160899D01*
X286219144Y-55837357D01*
X288035720Y-52665795D01*
X289852526Y-52664701D01*
X290435779Y-52666966D01*
G37*
G36*
X87074178Y-18376256D02*
G01*
X87573041Y-18384232D01*
X87933441Y-18397589D01*
X88156654Y-18416378D01*
X88243955Y-18440651D01*
X88245078Y-18446646D01*
X88201643Y-18533386D01*
X88096476Y-18725120D01*
X87937722Y-19007803D01*
X87733527Y-19367385D01*
X87492037Y-19789821D01*
X87221397Y-20261064D01*
X86929753Y-20767065D01*
X86625251Y-21293778D01*
X86316036Y-21827156D01*
X86010254Y-22353152D01*
X85716051Y-22857718D01*
X85441572Y-23326808D01*
X85194964Y-23746373D01*
X84984371Y-24102368D01*
X84817939Y-24380744D01*
X84703815Y-24567455D01*
X84650143Y-24648453D01*
X84647447Y-24650733D01*
X84584239Y-24597802D01*
X84487005Y-24463763D01*
X84462153Y-24423747D01*
X84323895Y-24190975D01*
X84146872Y-23888121D01*
X83944024Y-23537846D01*
X83728292Y-23162809D01*
X83512617Y-22785670D01*
X83309938Y-22429088D01*
X83133196Y-22115724D01*
X82995333Y-21868238D01*
X82909288Y-21709288D01*
X82890276Y-21671278D01*
X82868930Y-21607180D01*
X82867591Y-21531416D01*
X82893554Y-21428386D01*
X82954113Y-21282487D01*
X83056563Y-21078116D01*
X83208197Y-20799671D01*
X83416311Y-20431550D01*
X83688199Y-19958150D01*
X83704124Y-19930526D01*
X84601733Y-18373608D01*
X86435578Y-18373608D01*
X87074178Y-18376256D01*
G37*
G36*
X157545148Y-100970171D02*
G01*
X157787965Y-101393969D01*
X158006948Y-101780226D01*
X158192252Y-102111246D01*
X158334030Y-102369331D01*
X158422438Y-102536783D01*
X158447977Y-102592949D01*
X158432311Y-102622433D01*
X158360020Y-102645351D01*
X158217058Y-102662438D01*
X157989379Y-102674431D01*
X157662936Y-102682066D01*
X157223685Y-102686077D01*
X156657578Y-102687201D01*
X156648810Y-102687199D01*
X154826831Y-102686902D01*
X153944887Y-101158250D01*
X153701638Y-100734537D01*
X153482255Y-100348387D01*
X153296590Y-100017472D01*
X153154500Y-99759464D01*
X153065838Y-99592036D01*
X153040130Y-99535770D01*
X153056443Y-99506478D01*
X153130613Y-99483691D01*
X153276569Y-99466684D01*
X153508241Y-99454731D01*
X153839558Y-99447107D01*
X154284451Y-99443086D01*
X154841225Y-99441942D01*
X156665132Y-99441942D01*
X157545148Y-100970171D01*
G37*
G36*
X71973339Y-109064879D02*
G01*
X71895376Y-109198745D01*
X71760513Y-109432143D01*
X71581955Y-109742141D01*
X71372910Y-110105807D01*
X71146582Y-110500208D01*
X71109906Y-110564184D01*
X70887116Y-110950078D01*
X70683393Y-111297737D01*
X70510714Y-111587136D01*
X70381055Y-111798251D01*
X70306395Y-111911057D01*
X70298533Y-111920701D01*
X70247251Y-111944368D01*
X70179504Y-111901664D01*
X70081712Y-111776428D01*
X69940298Y-111552498D01*
X69824320Y-111356256D01*
X69459285Y-110729480D01*
X69160217Y-110214218D01*
X68921436Y-109800421D01*
X68737259Y-109478034D01*
X68602006Y-109237007D01*
X68509996Y-109067286D01*
X68455546Y-108958820D01*
X68432975Y-108901556D01*
X68431553Y-108892012D01*
X68499929Y-108872208D01*
X68696378Y-108855315D01*
X69007886Y-108841800D01*
X69421434Y-108832132D01*
X69924009Y-108826778D01*
X70272967Y-108825831D01*
X72114381Y-108825831D01*
X71973339Y-109064879D01*
G37*
G36*
X259290200Y-15329336D02*
G01*
X259369827Y-15448423D01*
X259497463Y-15652885D01*
X259674936Y-15945850D01*
X259904071Y-16330447D01*
X260186696Y-16809803D01*
X260524638Y-17387047D01*
X260919724Y-18065308D01*
X261373780Y-18847713D01*
X261888633Y-19737392D01*
X262466111Y-20737472D01*
X263108039Y-21851082D01*
X263816246Y-23081350D01*
X264524508Y-24313011D01*
X264719963Y-24653053D01*
X262884092Y-24653053D01*
X262391762Y-24651603D01*
X261949308Y-24647518D01*
X261575247Y-24641197D01*
X261288096Y-24633038D01*
X261106374Y-24623437D01*
X261048220Y-24613599D01*
X261082058Y-24543857D01*
X261176954Y-24369801D01*
X261322981Y-24109078D01*
X261510212Y-23779329D01*
X261728720Y-23398201D01*
X261861427Y-23168242D01*
X262096036Y-22761147D01*
X262307686Y-22391047D01*
X262485786Y-22076695D01*
X262619745Y-21836842D01*
X262698972Y-21690238D01*
X262715172Y-21656700D01*
X262712700Y-21623707D01*
X262666910Y-21597744D01*
X262562681Y-21577723D01*
X262384896Y-21562555D01*
X262118436Y-21551153D01*
X261748181Y-21542430D01*
X261259014Y-21535297D01*
X260984801Y-21532196D01*
X259213893Y-21513331D01*
X260092443Y-19996386D01*
X260970993Y-18479442D01*
X259210440Y-18460591D01*
X258728769Y-18453445D01*
X258297365Y-18443229D01*
X257935139Y-18430706D01*
X257661000Y-18416636D01*
X257493857Y-18401779D01*
X257449887Y-18389778D01*
X257483991Y-18310236D01*
X257578463Y-18131032D01*
X257721543Y-17872327D01*
X257901470Y-17554280D01*
X258106483Y-17197050D01*
X258324822Y-16820799D01*
X258544726Y-16445684D01*
X258754435Y-16091866D01*
X258942187Y-15779505D01*
X259096224Y-15528760D01*
X259204782Y-15359791D01*
X259256104Y-15292758D01*
X259256755Y-15292495D01*
X259290200Y-15329336D01*
G37*
%TD*%
D10*
%TO.C,REF\u002A\u002A*%
X98971553Y-107624719D03*
%TD*%
M02*
