%TF.GenerationSoftware,KiCad,Pcbnew,(5.1.10-1-10_14)*%
%TF.CreationDate,2021-12-19T10:45:12+09:00*%
%TF.ProjectId,keyplate,6b657970-6c61-4746-952e-6b696361645f,rev?*%
%TF.SameCoordinates,Original*%
%TF.FileFunction,Soldermask,Top*%
%TF.FilePolarity,Negative*%
%FSLAX46Y46*%
G04 Gerber Fmt 4.6, Leading zero omitted, Abs format (unit mm)*
G04 Created by KiCad (PCBNEW (5.1.10-1-10_14)) date 2021-12-19 10:45:12*
%MOMM*%
%LPD*%
G01*
G04 APERTURE LIST*
%ADD10C,0.010000*%
%ADD11C,5.400000*%
G04 APERTURE END LIST*
D10*
%TO.C,G\u002A\u002A\u002A*%
G36*
X171887633Y-13496170D02*
G01*
X171986197Y-13665211D01*
X172131118Y-13915667D01*
X172310594Y-14226972D01*
X172512825Y-14578562D01*
X172726007Y-14949869D01*
X172938341Y-15320328D01*
X173138024Y-15669373D01*
X173313254Y-15976437D01*
X173452231Y-16220955D01*
X173543153Y-16382361D01*
X173570284Y-16431805D01*
X173653854Y-16590555D01*
X169982557Y-16590555D01*
X170323670Y-16008472D01*
X170482779Y-15735952D01*
X170689649Y-15380158D01*
X170921637Y-14980109D01*
X171156100Y-14574822D01*
X171247290Y-14416889D01*
X171441867Y-14082649D01*
X171610978Y-13797782D01*
X171742697Y-13581928D01*
X171825095Y-13454727D01*
X171847228Y-13429112D01*
X171887633Y-13496170D01*
G37*
X171887633Y-13496170D02*
X171986197Y-13665211D01*
X172131118Y-13915667D01*
X172310594Y-14226972D01*
X172512825Y-14578562D01*
X172726007Y-14949869D01*
X172938341Y-15320328D01*
X173138024Y-15669373D01*
X173313254Y-15976437D01*
X173452231Y-16220955D01*
X173543153Y-16382361D01*
X173570284Y-16431805D01*
X173653854Y-16590555D01*
X169982557Y-16590555D01*
X170323670Y-16008472D01*
X170482779Y-15735952D01*
X170689649Y-15380158D01*
X170921637Y-14980109D01*
X171156100Y-14574822D01*
X171247290Y-14416889D01*
X171441867Y-14082649D01*
X171610978Y-13797782D01*
X171742697Y-13581928D01*
X171825095Y-13454727D01*
X171847228Y-13429112D01*
X171887633Y-13496170D01*
G36*
X139195573Y-13522110D02*
G01*
X139312276Y-13672642D01*
X139492364Y-13947236D01*
X139735342Y-14345134D01*
X140040720Y-14865582D01*
X140089004Y-14949186D01*
X140332064Y-15372541D01*
X140549938Y-15755409D01*
X140733181Y-16080916D01*
X140872348Y-16332188D01*
X140957993Y-16492348D01*
X140981667Y-16544040D01*
X140914230Y-16556635D01*
X140724390Y-16567936D01*
X140430852Y-16577458D01*
X140052322Y-16584720D01*
X139607505Y-16589236D01*
X139182500Y-16590555D01*
X138695335Y-16589607D01*
X138258234Y-16586938D01*
X137889903Y-16582810D01*
X137609046Y-16577487D01*
X137434371Y-16571233D01*
X137383333Y-16565257D01*
X137417159Y-16499757D01*
X137512190Y-16329236D01*
X137658754Y-16070696D01*
X137847181Y-15741135D01*
X138067800Y-15357555D01*
X138236243Y-15065951D01*
X138477104Y-14649576D01*
X138696079Y-14270812D01*
X138882710Y-13947766D01*
X139026539Y-13698546D01*
X139117109Y-13541258D01*
X139142747Y-13496396D01*
X139195573Y-13522110D01*
G37*
X139195573Y-13522110D02*
X139312276Y-13672642D01*
X139492364Y-13947236D01*
X139735342Y-14345134D01*
X140040720Y-14865582D01*
X140089004Y-14949186D01*
X140332064Y-15372541D01*
X140549938Y-15755409D01*
X140733181Y-16080916D01*
X140872348Y-16332188D01*
X140957993Y-16492348D01*
X140981667Y-16544040D01*
X140914230Y-16556635D01*
X140724390Y-16567936D01*
X140430852Y-16577458D01*
X140052322Y-16584720D01*
X139607505Y-16589236D01*
X139182500Y-16590555D01*
X138695335Y-16589607D01*
X138258234Y-16586938D01*
X137889903Y-16582810D01*
X137609046Y-16577487D01*
X137434371Y-16571233D01*
X137383333Y-16565257D01*
X137417159Y-16499757D01*
X137512190Y-16329236D01*
X137658754Y-16070696D01*
X137847181Y-15741135D01*
X138067800Y-15357555D01*
X138236243Y-15065951D01*
X138477104Y-14649576D01*
X138696079Y-14270812D01*
X138882710Y-13947766D01*
X139026539Y-13698546D01*
X139117109Y-13541258D01*
X139142747Y-13496396D01*
X139195573Y-13522110D01*
G36*
X106605921Y-13544495D02*
G01*
X106710282Y-13708121D01*
X106864206Y-13959697D01*
X107057482Y-14281934D01*
X107279896Y-14657541D01*
X107521238Y-15069227D01*
X107771294Y-15499701D01*
X108019854Y-15931674D01*
X108256703Y-16347855D01*
X108363628Y-16537639D01*
X108304352Y-16551810D01*
X108122093Y-16564549D01*
X107834979Y-16575323D01*
X107461137Y-16583602D01*
X107018692Y-16588854D01*
X106558809Y-16590555D01*
X104724289Y-16590555D01*
X105618709Y-15038333D01*
X105863555Y-14616574D01*
X106086598Y-14238380D01*
X106277932Y-13920069D01*
X106427649Y-13677954D01*
X106525840Y-13528351D01*
X106561336Y-13486111D01*
X106605921Y-13544495D01*
G37*
X106605921Y-13544495D02*
X106710282Y-13708121D01*
X106864206Y-13959697D01*
X107057482Y-14281934D01*
X107279896Y-14657541D01*
X107521238Y-15069227D01*
X107771294Y-15499701D01*
X108019854Y-15931674D01*
X108256703Y-16347855D01*
X108363628Y-16537639D01*
X108304352Y-16551810D01*
X108122093Y-16564549D01*
X107834979Y-16575323D01*
X107461137Y-16583602D01*
X107018692Y-16588854D01*
X106558809Y-16590555D01*
X104724289Y-16590555D01*
X105618709Y-15038333D01*
X105863555Y-14616574D01*
X106086598Y-14238380D01*
X106277932Y-13920069D01*
X106427649Y-13677954D01*
X106525840Y-13528351D01*
X106561336Y-13486111D01*
X106605921Y-13544495D01*
G36*
X293088906Y-17003398D02*
G01*
X292976646Y-17200283D01*
X292810708Y-17490944D01*
X292607488Y-17846679D01*
X292383384Y-18238782D01*
X292182222Y-18590591D01*
X291511945Y-19762572D01*
X289695139Y-19764064D01*
X289205490Y-19762416D01*
X288765813Y-19757007D01*
X288394721Y-19748385D01*
X288110829Y-19737101D01*
X287932750Y-19723706D01*
X287878333Y-19710360D01*
X287912295Y-19636495D01*
X288007786Y-19457921D01*
X288155220Y-19191806D01*
X288345008Y-18855320D01*
X288567562Y-18465631D01*
X288755005Y-18140499D01*
X289631676Y-16625833D01*
X293325312Y-16588185D01*
X293088906Y-17003398D01*
G37*
X293088906Y-17003398D02*
X292976646Y-17200283D01*
X292810708Y-17490944D01*
X292607488Y-17846679D01*
X292383384Y-18238782D01*
X292182222Y-18590591D01*
X291511945Y-19762572D01*
X289695139Y-19764064D01*
X289205490Y-19762416D01*
X288765813Y-19757007D01*
X288394721Y-19748385D01*
X288110829Y-19737101D01*
X287932750Y-19723706D01*
X287878333Y-19710360D01*
X287912295Y-19636495D01*
X288007786Y-19457921D01*
X288155220Y-19191806D01*
X288345008Y-18855320D01*
X288567562Y-18465631D01*
X288755005Y-18140499D01*
X289631676Y-16625833D01*
X293325312Y-16588185D01*
X293088906Y-17003398D01*
G36*
X245608204Y-16602513D02*
G01*
X245900809Y-16605923D01*
X246088163Y-16611586D01*
X246148803Y-16617636D01*
X246205504Y-16685157D01*
X246320165Y-16857067D01*
X246481324Y-17114904D01*
X246677520Y-17440203D01*
X246897291Y-17814502D01*
X246970832Y-17941799D01*
X247203533Y-18345853D01*
X247422028Y-18724630D01*
X247613030Y-19055142D01*
X247763250Y-19314397D01*
X247859399Y-19479408D01*
X247872089Y-19500972D01*
X248028383Y-19765555D01*
X244350172Y-19765555D01*
X243969690Y-19112917D01*
X243786918Y-18799077D01*
X243560538Y-18409866D01*
X243317707Y-17991997D01*
X243085581Y-17592183D01*
X243057077Y-17543055D01*
X242524944Y-16625833D01*
X244298341Y-16606948D01*
X244787025Y-16602911D01*
X245230294Y-16601471D01*
X245608204Y-16602513D01*
G37*
X245608204Y-16602513D02*
X245900809Y-16605923D01*
X246088163Y-16611586D01*
X246148803Y-16617636D01*
X246205504Y-16685157D01*
X246320165Y-16857067D01*
X246481324Y-17114904D01*
X246677520Y-17440203D01*
X246897291Y-17814502D01*
X246970832Y-17941799D01*
X247203533Y-18345853D01*
X247422028Y-18724630D01*
X247613030Y-19055142D01*
X247763250Y-19314397D01*
X247859399Y-19479408D01*
X247872089Y-19500972D01*
X248028383Y-19765555D01*
X244350172Y-19765555D01*
X243969690Y-19112917D01*
X243786918Y-18799077D01*
X243560538Y-18409866D01*
X243317707Y-17991997D01*
X243085581Y-17592183D01*
X243057077Y-17543055D01*
X242524944Y-16625833D01*
X244298341Y-16606948D01*
X244787025Y-16602911D01*
X245230294Y-16601471D01*
X245608204Y-16602513D01*
G36*
X191702673Y-16749305D02*
G01*
X191643160Y-16856365D01*
X191524797Y-17064893D01*
X191359404Y-17354224D01*
X191158805Y-17703689D01*
X190934823Y-18092620D01*
X190865168Y-18213333D01*
X190637442Y-18608118D01*
X190430352Y-18967739D01*
X190255495Y-19272007D01*
X190124470Y-19500731D01*
X190048874Y-19633723D01*
X190038520Y-19652333D01*
X189994359Y-19705474D01*
X189940103Y-19689824D01*
X189858771Y-19588490D01*
X189733378Y-19384580D01*
X189683864Y-19299555D01*
X189552987Y-19073342D01*
X189370082Y-18757101D01*
X189153736Y-18382977D01*
X188922537Y-17983112D01*
X188759908Y-17701805D01*
X188117507Y-16590555D01*
X191786632Y-16590555D01*
X191702673Y-16749305D01*
G37*
X191702673Y-16749305D02*
X191643160Y-16856365D01*
X191524797Y-17064893D01*
X191359404Y-17354224D01*
X191158805Y-17703689D01*
X190934823Y-18092620D01*
X190865168Y-18213333D01*
X190637442Y-18608118D01*
X190430352Y-18967739D01*
X190255495Y-19272007D01*
X190124470Y-19500731D01*
X190048874Y-19633723D01*
X190038520Y-19652333D01*
X189994359Y-19705474D01*
X189940103Y-19689824D01*
X189858771Y-19588490D01*
X189733378Y-19384580D01*
X189683864Y-19299555D01*
X189552987Y-19073342D01*
X189370082Y-18757101D01*
X189153736Y-18382977D01*
X188922537Y-17983112D01*
X188759908Y-17701805D01*
X188117507Y-16590555D01*
X191786632Y-16590555D01*
X191702673Y-16749305D01*
G36*
X58530599Y-18133554D02*
G01*
X58773020Y-18556080D01*
X58990259Y-18937961D01*
X59172863Y-19262314D01*
X59311378Y-19512254D01*
X59396351Y-19670897D01*
X59419445Y-19721054D01*
X59351992Y-19733037D01*
X59162046Y-19743775D01*
X58868220Y-19752817D01*
X58489128Y-19759708D01*
X58043385Y-19763997D01*
X57602639Y-19765258D01*
X55785833Y-19764960D01*
X54903889Y-18237224D01*
X54660996Y-17815754D01*
X54441823Y-17434068D01*
X54256186Y-17109367D01*
X54113897Y-16858856D01*
X54024771Y-16699737D01*
X53998426Y-16650022D01*
X54059402Y-16634086D01*
X54243271Y-16619763D01*
X54531819Y-16607651D01*
X54906833Y-16598349D01*
X55350098Y-16592454D01*
X55808330Y-16590555D01*
X57641753Y-16590555D01*
X58530599Y-18133554D01*
G37*
X58530599Y-18133554D02*
X58773020Y-18556080D01*
X58990259Y-18937961D01*
X59172863Y-19262314D01*
X59311378Y-19512254D01*
X59396351Y-19670897D01*
X59419445Y-19721054D01*
X59351992Y-19733037D01*
X59162046Y-19743775D01*
X58868220Y-19752817D01*
X58489128Y-19759708D01*
X58043385Y-19763997D01*
X57602639Y-19765258D01*
X55785833Y-19764960D01*
X54903889Y-18237224D01*
X54660996Y-17815754D01*
X54441823Y-17434068D01*
X54256186Y-17109367D01*
X54113897Y-16858856D01*
X54024771Y-16699737D01*
X53998426Y-16650022D01*
X54059402Y-16634086D01*
X54243271Y-16619763D01*
X54531819Y-16607651D01*
X54906833Y-16598349D01*
X55350098Y-16592454D01*
X55808330Y-16590555D01*
X57641753Y-16590555D01*
X58530599Y-18133554D01*
G36*
X45407441Y-16591949D02*
G01*
X45844541Y-16595873D01*
X46212872Y-16601940D01*
X46493729Y-16609763D01*
X46668405Y-16618957D01*
X46719445Y-16627741D01*
X46685927Y-16695447D01*
X46593176Y-16864723D01*
X46452897Y-17115152D01*
X46276795Y-17426319D01*
X46076573Y-17777809D01*
X45863936Y-18149205D01*
X45650589Y-18520092D01*
X45448236Y-18870055D01*
X45268581Y-19178678D01*
X45123330Y-19425545D01*
X45024186Y-19590241D01*
X44992570Y-19639850D01*
X44958544Y-19662815D01*
X44908329Y-19639316D01*
X44833671Y-19557300D01*
X44726315Y-19404709D01*
X44578007Y-19169490D01*
X44380493Y-18839587D01*
X44125519Y-18402945D01*
X44015616Y-18213052D01*
X43772214Y-17790410D01*
X43554010Y-17408816D01*
X43370447Y-17085010D01*
X43230970Y-16835730D01*
X43145026Y-16677714D01*
X43121111Y-16627785D01*
X43188548Y-16617704D01*
X43378390Y-16608660D01*
X43671929Y-16601038D01*
X44050461Y-16595226D01*
X44495280Y-16591612D01*
X44920278Y-16590555D01*
X45407441Y-16591949D01*
G37*
X45407441Y-16591949D02*
X45844541Y-16595873D01*
X46212872Y-16601940D01*
X46493729Y-16609763D01*
X46668405Y-16618957D01*
X46719445Y-16627741D01*
X46685927Y-16695447D01*
X46593176Y-16864723D01*
X46452897Y-17115152D01*
X46276795Y-17426319D01*
X46076573Y-17777809D01*
X45863936Y-18149205D01*
X45650589Y-18520092D01*
X45448236Y-18870055D01*
X45268581Y-19178678D01*
X45123330Y-19425545D01*
X45024186Y-19590241D01*
X44992570Y-19639850D01*
X44958544Y-19662815D01*
X44908329Y-19639316D01*
X44833671Y-19557300D01*
X44726315Y-19404709D01*
X44578007Y-19169490D01*
X44380493Y-18839587D01*
X44125519Y-18402945D01*
X44015616Y-18213052D01*
X43772214Y-17790410D01*
X43554010Y-17408816D01*
X43370447Y-17085010D01*
X43230970Y-16835730D01*
X43145026Y-16677714D01*
X43121111Y-16627785D01*
X43188548Y-16617704D01*
X43378390Y-16608660D01*
X43671929Y-16601038D01*
X44050461Y-16595226D01*
X44495280Y-16591612D01*
X44920278Y-16590555D01*
X45407441Y-16591949D01*
G36*
X219443620Y-16591576D02*
G01*
X219884866Y-16594450D01*
X220257633Y-16598898D01*
X220543363Y-16604637D01*
X220723495Y-16611388D01*
X220780000Y-16618201D01*
X220745805Y-16684605D01*
X220648666Y-16858789D01*
X220496751Y-17126650D01*
X220298226Y-17474082D01*
X220061262Y-17886985D01*
X219794024Y-18351253D01*
X219504681Y-18852784D01*
X219201402Y-19377474D01*
X218892353Y-19911220D01*
X218585703Y-20439919D01*
X218289619Y-20949468D01*
X218012270Y-21425762D01*
X217761824Y-21854699D01*
X217546447Y-22222175D01*
X217374309Y-22514087D01*
X217253577Y-22716332D01*
X217192419Y-22814807D01*
X217187298Y-22821658D01*
X217138231Y-22778987D01*
X217029849Y-22628966D01*
X216872084Y-22387194D01*
X216674867Y-22069274D01*
X216448131Y-21690806D01*
X216238703Y-21331575D01*
X215995793Y-20907853D01*
X215778080Y-20524172D01*
X215595017Y-20197514D01*
X215456059Y-19944858D01*
X215370658Y-19783185D01*
X215347222Y-19730278D01*
X215381068Y-19656863D01*
X215476294Y-19478420D01*
X215623431Y-19211956D01*
X215813013Y-18874478D01*
X216035571Y-18482996D01*
X216236068Y-18133554D01*
X217124914Y-16590555D01*
X218952457Y-16590555D01*
X219443620Y-16591576D01*
G37*
X219443620Y-16591576D02*
X219884866Y-16594450D01*
X220257633Y-16598898D01*
X220543363Y-16604637D01*
X220723495Y-16611388D01*
X220780000Y-16618201D01*
X220745805Y-16684605D01*
X220648666Y-16858789D01*
X220496751Y-17126650D01*
X220298226Y-17474082D01*
X220061262Y-17886985D01*
X219794024Y-18351253D01*
X219504681Y-18852784D01*
X219201402Y-19377474D01*
X218892353Y-19911220D01*
X218585703Y-20439919D01*
X218289619Y-20949468D01*
X218012270Y-21425762D01*
X217761824Y-21854699D01*
X217546447Y-22222175D01*
X217374309Y-22514087D01*
X217253577Y-22716332D01*
X217192419Y-22814807D01*
X217187298Y-22821658D01*
X217138231Y-22778987D01*
X217029849Y-22628966D01*
X216872084Y-22387194D01*
X216674867Y-22069274D01*
X216448131Y-21690806D01*
X216238703Y-21331575D01*
X215995793Y-20907853D01*
X215778080Y-20524172D01*
X215595017Y-20197514D01*
X215456059Y-19944858D01*
X215370658Y-19783185D01*
X215347222Y-19730278D01*
X215381068Y-19656863D01*
X215476294Y-19478420D01*
X215623431Y-19211956D01*
X215813013Y-18874478D01*
X216035571Y-18482996D01*
X216236068Y-18133554D01*
X217124914Y-16590555D01*
X218952457Y-16590555D01*
X219443620Y-16591576D01*
G36*
X199520272Y-19697391D02*
G01*
X199966557Y-19704164D01*
X200335500Y-19714721D01*
X200610133Y-19728462D01*
X200773489Y-19744789D01*
X200812778Y-19758518D01*
X200779003Y-19834168D01*
X200685530Y-20010930D01*
X200544135Y-20268246D01*
X200366598Y-20585558D01*
X200164694Y-20942306D01*
X199950201Y-21317934D01*
X199734896Y-21691883D01*
X199530557Y-22043595D01*
X199348961Y-22352511D01*
X199201886Y-22598074D01*
X199101109Y-22759725D01*
X199062088Y-22814467D01*
X199010541Y-22773734D01*
X198899082Y-22622947D01*
X198736275Y-22375434D01*
X198530684Y-22044524D01*
X198290873Y-21643546D01*
X198107278Y-21328391D01*
X197864209Y-20905325D01*
X197646322Y-20522986D01*
X197463057Y-20198198D01*
X197323859Y-19947782D01*
X197238168Y-19788561D01*
X197214445Y-19737668D01*
X197281881Y-19726115D01*
X197471722Y-19715749D01*
X197765261Y-19707014D01*
X198143792Y-19700353D01*
X198588610Y-19696210D01*
X199013611Y-19695000D01*
X199520272Y-19697391D01*
G37*
X199520272Y-19697391D02*
X199966557Y-19704164D01*
X200335500Y-19714721D01*
X200610133Y-19728462D01*
X200773489Y-19744789D01*
X200812778Y-19758518D01*
X200779003Y-19834168D01*
X200685530Y-20010930D01*
X200544135Y-20268246D01*
X200366598Y-20585558D01*
X200164694Y-20942306D01*
X199950201Y-21317934D01*
X199734896Y-21691883D01*
X199530557Y-22043595D01*
X199348961Y-22352511D01*
X199201886Y-22598074D01*
X199101109Y-22759725D01*
X199062088Y-22814467D01*
X199010541Y-22773734D01*
X198899082Y-22622947D01*
X198736275Y-22375434D01*
X198530684Y-22044524D01*
X198290873Y-21643546D01*
X198107278Y-21328391D01*
X197864209Y-20905325D01*
X197646322Y-20522986D01*
X197463057Y-20198198D01*
X197323859Y-19947782D01*
X197238168Y-19788561D01*
X197214445Y-19737668D01*
X197281881Y-19726115D01*
X197471722Y-19715749D01*
X197765261Y-19707014D01*
X198143792Y-19700353D01*
X198588610Y-19696210D01*
X199013611Y-19695000D01*
X199520272Y-19697391D01*
G36*
X164625128Y-13495315D02*
G01*
X164726710Y-13668862D01*
X164885461Y-13941608D01*
X165094705Y-14302040D01*
X165347767Y-14738645D01*
X165637968Y-15239910D01*
X165958635Y-15794321D01*
X166303089Y-16390366D01*
X166415888Y-16585659D01*
X166851665Y-17342698D01*
X167218404Y-17985434D01*
X167519707Y-18520547D01*
X167759171Y-18954716D01*
X167940395Y-19294619D01*
X168066978Y-19546936D01*
X168142519Y-19718346D01*
X168170618Y-19815526D01*
X168168291Y-19837808D01*
X168093668Y-19977676D01*
X167966566Y-20204125D01*
X167798708Y-20497248D01*
X167601820Y-20837141D01*
X167387629Y-21203896D01*
X167167860Y-21577607D01*
X166954238Y-21938368D01*
X166758490Y-22266273D01*
X166592340Y-22541415D01*
X166467515Y-22743888D01*
X166395739Y-22853786D01*
X166383491Y-22867810D01*
X166339858Y-22808521D01*
X166236503Y-22642854D01*
X166083191Y-22387246D01*
X165889689Y-22058133D01*
X165665765Y-21671952D01*
X165465899Y-21323534D01*
X164585409Y-19781449D01*
X164472700Y-19967530D01*
X164404029Y-20084164D01*
X164277835Y-20301601D01*
X164106641Y-20598140D01*
X163902968Y-20952086D01*
X163679337Y-21341739D01*
X163632421Y-21423611D01*
X163409261Y-21810569D01*
X163205573Y-22158924D01*
X163033176Y-22448848D01*
X162903890Y-22660514D01*
X162829533Y-22774095D01*
X162821087Y-22784652D01*
X162780825Y-22789746D01*
X162714633Y-22733093D01*
X162615194Y-22603752D01*
X162475188Y-22390781D01*
X162287296Y-22083238D01*
X162044201Y-21670181D01*
X161843106Y-21322542D01*
X161600062Y-20898998D01*
X161382134Y-20516529D01*
X161198732Y-20191869D01*
X161059262Y-19941748D01*
X160973133Y-19782899D01*
X160948889Y-19732196D01*
X161016342Y-19722128D01*
X161206289Y-19713005D01*
X161500118Y-19705220D01*
X161879212Y-19699166D01*
X162324958Y-19695235D01*
X162765695Y-19693840D01*
X164582500Y-19692680D01*
X165446806Y-18187780D01*
X165685483Y-17770402D01*
X165898903Y-17393738D01*
X166077508Y-17074943D01*
X166211738Y-16831170D01*
X166292033Y-16679574D01*
X166311111Y-16636718D01*
X166243705Y-16624100D01*
X166054083Y-16612797D01*
X165761134Y-16603303D01*
X165383752Y-16596113D01*
X164940827Y-16591722D01*
X164547222Y-16590555D01*
X164065075Y-16589134D01*
X163633177Y-16585135D01*
X163270420Y-16578958D01*
X162995697Y-16571000D01*
X162827898Y-16561660D01*
X162783333Y-16553360D01*
X162816670Y-16482993D01*
X162909101Y-16312641D01*
X163049256Y-16061974D01*
X163225765Y-15750659D01*
X163427258Y-15398366D01*
X163642365Y-15024763D01*
X163859717Y-14649521D01*
X164067944Y-14292307D01*
X164255675Y-13972791D01*
X164411541Y-13710642D01*
X164524173Y-13525528D01*
X164582199Y-13437120D01*
X164587393Y-13432480D01*
X164625128Y-13495315D01*
G37*
X164625128Y-13495315D02*
X164726710Y-13668862D01*
X164885461Y-13941608D01*
X165094705Y-14302040D01*
X165347767Y-14738645D01*
X165637968Y-15239910D01*
X165958635Y-15794321D01*
X166303089Y-16390366D01*
X166415888Y-16585659D01*
X166851665Y-17342698D01*
X167218404Y-17985434D01*
X167519707Y-18520547D01*
X167759171Y-18954716D01*
X167940395Y-19294619D01*
X168066978Y-19546936D01*
X168142519Y-19718346D01*
X168170618Y-19815526D01*
X168168291Y-19837808D01*
X168093668Y-19977676D01*
X167966566Y-20204125D01*
X167798708Y-20497248D01*
X167601820Y-20837141D01*
X167387629Y-21203896D01*
X167167860Y-21577607D01*
X166954238Y-21938368D01*
X166758490Y-22266273D01*
X166592340Y-22541415D01*
X166467515Y-22743888D01*
X166395739Y-22853786D01*
X166383491Y-22867810D01*
X166339858Y-22808521D01*
X166236503Y-22642854D01*
X166083191Y-22387246D01*
X165889689Y-22058133D01*
X165665765Y-21671952D01*
X165465899Y-21323534D01*
X164585409Y-19781449D01*
X164472700Y-19967530D01*
X164404029Y-20084164D01*
X164277835Y-20301601D01*
X164106641Y-20598140D01*
X163902968Y-20952086D01*
X163679337Y-21341739D01*
X163632421Y-21423611D01*
X163409261Y-21810569D01*
X163205573Y-22158924D01*
X163033176Y-22448848D01*
X162903890Y-22660514D01*
X162829533Y-22774095D01*
X162821087Y-22784652D01*
X162780825Y-22789746D01*
X162714633Y-22733093D01*
X162615194Y-22603752D01*
X162475188Y-22390781D01*
X162287296Y-22083238D01*
X162044201Y-21670181D01*
X161843106Y-21322542D01*
X161600062Y-20898998D01*
X161382134Y-20516529D01*
X161198732Y-20191869D01*
X161059262Y-19941748D01*
X160973133Y-19782899D01*
X160948889Y-19732196D01*
X161016342Y-19722128D01*
X161206289Y-19713005D01*
X161500118Y-19705220D01*
X161879212Y-19699166D01*
X162324958Y-19695235D01*
X162765695Y-19693840D01*
X164582500Y-19692680D01*
X165446806Y-18187780D01*
X165685483Y-17770402D01*
X165898903Y-17393738D01*
X166077508Y-17074943D01*
X166211738Y-16831170D01*
X166292033Y-16679574D01*
X166311111Y-16636718D01*
X166243705Y-16624100D01*
X166054083Y-16612797D01*
X165761134Y-16603303D01*
X165383752Y-16596113D01*
X164940827Y-16591722D01*
X164547222Y-16590555D01*
X164065075Y-16589134D01*
X163633177Y-16585135D01*
X163270420Y-16578958D01*
X162995697Y-16571000D01*
X162827898Y-16561660D01*
X162783333Y-16553360D01*
X162816670Y-16482993D01*
X162909101Y-16312641D01*
X163049256Y-16061974D01*
X163225765Y-15750659D01*
X163427258Y-15398366D01*
X163642365Y-15024763D01*
X163859717Y-14649521D01*
X164067944Y-14292307D01*
X164255675Y-13972791D01*
X164411541Y-13710642D01*
X164524173Y-13525528D01*
X164582199Y-13437120D01*
X164587393Y-13432480D01*
X164625128Y-13495315D01*
G36*
X151980703Y-16723632D02*
G01*
X152094398Y-16908703D01*
X152251255Y-17173174D01*
X152439607Y-17496508D01*
X152647787Y-17858168D01*
X152864128Y-18237618D01*
X153076964Y-18614320D01*
X153274628Y-18967739D01*
X153445452Y-19277336D01*
X153577770Y-19522576D01*
X153659915Y-19682921D01*
X153681667Y-19736262D01*
X153647620Y-19817233D01*
X153551910Y-20002419D01*
X153404181Y-20274268D01*
X153214079Y-20615228D01*
X152991248Y-21007747D01*
X152808345Y-21325591D01*
X151935022Y-22834722D01*
X150086101Y-22853544D01*
X148237179Y-22872366D01*
X148469473Y-22465488D01*
X148582007Y-22269222D01*
X148748372Y-21980160D01*
X148951671Y-21627612D01*
X149175003Y-21240887D01*
X149354929Y-20929722D01*
X150008092Y-19800833D01*
X148214304Y-19765555D01*
X146420517Y-19730278D01*
X147287250Y-18229037D01*
X147530188Y-17810211D01*
X147752404Y-17430827D01*
X147943434Y-17108448D01*
X148092816Y-16860641D01*
X148190085Y-16704972D01*
X148222070Y-16659708D01*
X148279532Y-16696209D01*
X148399388Y-16853284D01*
X148578704Y-17126428D01*
X148814550Y-17511135D01*
X149103991Y-18002900D01*
X149164782Y-18108032D01*
X149406523Y-18524465D01*
X149625820Y-18897103D01*
X149812734Y-19209472D01*
X149957326Y-19445099D01*
X150049657Y-19587511D01*
X150079008Y-19623284D01*
X150123530Y-19564372D01*
X150227903Y-19399302D01*
X150382224Y-19144580D01*
X150576591Y-18816715D01*
X150801099Y-18432212D01*
X150992053Y-18101365D01*
X151233297Y-17687313D01*
X151453485Y-17320757D01*
X151642616Y-17017434D01*
X151790688Y-16793081D01*
X151887698Y-16663434D01*
X151921837Y-16638498D01*
X151980703Y-16723632D01*
G37*
X151980703Y-16723632D02*
X152094398Y-16908703D01*
X152251255Y-17173174D01*
X152439607Y-17496508D01*
X152647787Y-17858168D01*
X152864128Y-18237618D01*
X153076964Y-18614320D01*
X153274628Y-18967739D01*
X153445452Y-19277336D01*
X153577770Y-19522576D01*
X153659915Y-19682921D01*
X153681667Y-19736262D01*
X153647620Y-19817233D01*
X153551910Y-20002419D01*
X153404181Y-20274268D01*
X153214079Y-20615228D01*
X152991248Y-21007747D01*
X152808345Y-21325591D01*
X151935022Y-22834722D01*
X150086101Y-22853544D01*
X148237179Y-22872366D01*
X148469473Y-22465488D01*
X148582007Y-22269222D01*
X148748372Y-21980160D01*
X148951671Y-21627612D01*
X149175003Y-21240887D01*
X149354929Y-20929722D01*
X150008092Y-19800833D01*
X148214304Y-19765555D01*
X146420517Y-19730278D01*
X147287250Y-18229037D01*
X147530188Y-17810211D01*
X147752404Y-17430827D01*
X147943434Y-17108448D01*
X148092816Y-16860641D01*
X148190085Y-16704972D01*
X148222070Y-16659708D01*
X148279532Y-16696209D01*
X148399388Y-16853284D01*
X148578704Y-17126428D01*
X148814550Y-17511135D01*
X149103991Y-18002900D01*
X149164782Y-18108032D01*
X149406523Y-18524465D01*
X149625820Y-18897103D01*
X149812734Y-19209472D01*
X149957326Y-19445099D01*
X150049657Y-19587511D01*
X150079008Y-19623284D01*
X150123530Y-19564372D01*
X150227903Y-19399302D01*
X150382224Y-19144580D01*
X150576591Y-18816715D01*
X150801099Y-18432212D01*
X150992053Y-18101365D01*
X151233297Y-17687313D01*
X151453485Y-17320757D01*
X151642616Y-17017434D01*
X151790688Y-16793081D01*
X151887698Y-16663434D01*
X151921837Y-16638498D01*
X151980703Y-16723632D01*
G36*
X124737840Y-19824368D02*
G01*
X124844257Y-19990718D01*
X125002534Y-20249476D01*
X125203727Y-20585511D01*
X125438893Y-20983693D01*
X125699086Y-21428893D01*
X125975363Y-21905979D01*
X126258779Y-22399822D01*
X126496136Y-22817083D01*
X126436931Y-22831251D01*
X126254737Y-22843987D01*
X125967673Y-22854761D01*
X125593857Y-22863040D01*
X125151409Y-22868294D01*
X124690758Y-22870000D01*
X122855411Y-22870000D01*
X123749899Y-21317778D01*
X123994744Y-20896026D01*
X124217762Y-20517839D01*
X124409048Y-20199531D01*
X124558698Y-19957414D01*
X124656808Y-19807805D01*
X124692228Y-19765555D01*
X124737840Y-19824368D01*
G37*
X124737840Y-19824368D02*
X124844257Y-19990718D01*
X125002534Y-20249476D01*
X125203727Y-20585511D01*
X125438893Y-20983693D01*
X125699086Y-21428893D01*
X125975363Y-21905979D01*
X126258779Y-22399822D01*
X126496136Y-22817083D01*
X126436931Y-22831251D01*
X126254737Y-22843987D01*
X125967673Y-22854761D01*
X125593857Y-22863040D01*
X125151409Y-22868294D01*
X124690758Y-22870000D01*
X122855411Y-22870000D01*
X123749899Y-21317778D01*
X123994744Y-20896026D01*
X124217762Y-20517839D01*
X124409048Y-20199531D01*
X124558698Y-19957414D01*
X124656808Y-19807805D01*
X124692228Y-19765555D01*
X124737840Y-19824368D01*
G36*
X113270046Y-19707252D02*
G01*
X113558132Y-19710751D01*
X113740743Y-19716491D01*
X113798911Y-19723170D01*
X113772408Y-19787849D01*
X113686524Y-19954605D01*
X113552567Y-20203386D01*
X113381844Y-20514141D01*
X113185662Y-20866817D01*
X112975327Y-21241361D01*
X112762147Y-21617723D01*
X112557427Y-21975848D01*
X112372477Y-22295686D01*
X112218601Y-22557184D01*
X112107108Y-22740290D01*
X112050863Y-22823231D01*
X111976213Y-22827667D01*
X111938380Y-22788409D01*
X111887126Y-22703086D01*
X111775727Y-22513649D01*
X111614705Y-22238125D01*
X111414582Y-21894543D01*
X111185879Y-21500929D01*
X111018540Y-21212400D01*
X110159580Y-19730278D01*
X111963948Y-19711426D01*
X112453853Y-19707468D01*
X112895586Y-19706117D01*
X113270046Y-19707252D01*
G37*
X113270046Y-19707252D02*
X113558132Y-19710751D01*
X113740743Y-19716491D01*
X113798911Y-19723170D01*
X113772408Y-19787849D01*
X113686524Y-19954605D01*
X113552567Y-20203386D01*
X113381844Y-20514141D01*
X113185662Y-20866817D01*
X112975327Y-21241361D01*
X112762147Y-21617723D01*
X112557427Y-21975848D01*
X112372477Y-22295686D01*
X112218601Y-22557184D01*
X112107108Y-22740290D01*
X112050863Y-22823231D01*
X111976213Y-22827667D01*
X111938380Y-22788409D01*
X111887126Y-22703086D01*
X111775727Y-22513649D01*
X111614705Y-22238125D01*
X111414582Y-21894543D01*
X111185879Y-21500929D01*
X111018540Y-21212400D01*
X110159580Y-19730278D01*
X111963948Y-19711426D01*
X112453853Y-19707468D01*
X112895586Y-19706117D01*
X113270046Y-19707252D01*
G36*
X89845399Y-19707707D02*
G01*
X90275679Y-19711426D01*
X92084119Y-19730278D01*
X91185810Y-21298119D01*
X90941430Y-21722342D01*
X90719523Y-22103172D01*
X90529778Y-22424334D01*
X90381884Y-22669553D01*
X90285534Y-22822551D01*
X90251148Y-22867980D01*
X90207568Y-22809977D01*
X90103763Y-22645645D01*
X89949468Y-22391202D01*
X89754418Y-22062866D01*
X89528348Y-21676855D01*
X89314582Y-21307723D01*
X89071933Y-20883909D01*
X88856101Y-20501720D01*
X88676158Y-20177650D01*
X88541174Y-19928190D01*
X88460221Y-19769836D01*
X88440804Y-19719010D01*
X88515610Y-19712564D01*
X88712493Y-19708132D01*
X89012432Y-19705793D01*
X89396408Y-19705625D01*
X89845399Y-19707707D01*
G37*
X89845399Y-19707707D02*
X90275679Y-19711426D01*
X92084119Y-19730278D01*
X91185810Y-21298119D01*
X90941430Y-21722342D01*
X90719523Y-22103172D01*
X90529778Y-22424334D01*
X90381884Y-22669553D01*
X90285534Y-22822551D01*
X90251148Y-22867980D01*
X90207568Y-22809977D01*
X90103763Y-22645645D01*
X89949468Y-22391202D01*
X89754418Y-22062866D01*
X89528348Y-21676855D01*
X89314582Y-21307723D01*
X89071933Y-20883909D01*
X88856101Y-20501720D01*
X88676158Y-20177650D01*
X88541174Y-19928190D01*
X88460221Y-19769836D01*
X88440804Y-19719010D01*
X88515610Y-19712564D01*
X88712493Y-19708132D01*
X89012432Y-19705793D01*
X89396408Y-19705625D01*
X89845399Y-19707707D01*
G36*
X66137276Y-19706708D02*
G01*
X66425302Y-19709828D01*
X66607856Y-19715123D01*
X66666035Y-19721405D01*
X66640397Y-19787258D01*
X66554116Y-19954663D01*
X66418585Y-20203832D01*
X66245198Y-20514979D01*
X66045349Y-20868317D01*
X65830433Y-21244059D01*
X65611844Y-21622419D01*
X65400975Y-21983610D01*
X65209220Y-22307844D01*
X65047974Y-22575336D01*
X64928630Y-22766299D01*
X64862583Y-22860945D01*
X64854284Y-22867668D01*
X64810626Y-22808340D01*
X64707101Y-22642531D01*
X64553399Y-22386539D01*
X64359210Y-22056660D01*
X64134223Y-21669191D01*
X63920903Y-21297807D01*
X63024861Y-19730278D01*
X64831033Y-19711426D01*
X65321075Y-19707403D01*
X65762845Y-19705865D01*
X66137276Y-19706708D01*
G37*
X66137276Y-19706708D02*
X66425302Y-19709828D01*
X66607856Y-19715123D01*
X66666035Y-19721405D01*
X66640397Y-19787258D01*
X66554116Y-19954663D01*
X66418585Y-20203832D01*
X66245198Y-20514979D01*
X66045349Y-20868317D01*
X65830433Y-21244059D01*
X65611844Y-21622419D01*
X65400975Y-21983610D01*
X65209220Y-22307844D01*
X65047974Y-22575336D01*
X64928630Y-22766299D01*
X64862583Y-22860945D01*
X64854284Y-22867668D01*
X64810626Y-22808340D01*
X64707101Y-22642531D01*
X64553399Y-22386539D01*
X64359210Y-22056660D01*
X64134223Y-21669191D01*
X63920903Y-21297807D01*
X63024861Y-19730278D01*
X64831033Y-19711426D01*
X65321075Y-19707403D01*
X65762845Y-19705865D01*
X66137276Y-19706708D01*
G36*
X29872739Y-19707146D02*
G01*
X30160910Y-19710571D01*
X30343620Y-19716223D01*
X30401906Y-19722831D01*
X30375423Y-19787550D01*
X30289490Y-19954328D01*
X30155414Y-20203138D01*
X29984500Y-20513950D01*
X29788056Y-20866736D01*
X29577387Y-21241466D01*
X29363802Y-21618111D01*
X29158606Y-21976644D01*
X28973106Y-22297033D01*
X28818609Y-22559252D01*
X28706422Y-22743270D01*
X28649295Y-22827455D01*
X28585065Y-22811556D01*
X28485060Y-22699103D01*
X28431656Y-22616926D01*
X28347527Y-22473489D01*
X28206271Y-22230798D01*
X28021228Y-21911852D01*
X27805739Y-21539654D01*
X27573146Y-21137204D01*
X27515119Y-21036693D01*
X26761071Y-19730278D01*
X28566360Y-19711426D01*
X29056373Y-19707456D01*
X29498196Y-19706069D01*
X29872739Y-19707146D01*
G37*
X29872739Y-19707146D02*
X30160910Y-19710571D01*
X30343620Y-19716223D01*
X30401906Y-19722831D01*
X30375423Y-19787550D01*
X30289490Y-19954328D01*
X30155414Y-20203138D01*
X29984500Y-20513950D01*
X29788056Y-20866736D01*
X29577387Y-21241466D01*
X29363802Y-21618111D01*
X29158606Y-21976644D01*
X28973106Y-22297033D01*
X28818609Y-22559252D01*
X28706422Y-22743270D01*
X28649295Y-22827455D01*
X28585065Y-22811556D01*
X28485060Y-22699103D01*
X28431656Y-22616926D01*
X28347527Y-22473489D01*
X28206271Y-22230798D01*
X28021228Y-21911852D01*
X27805739Y-21539654D01*
X27573146Y-21137204D01*
X27515119Y-21036693D01*
X26761071Y-19730278D01*
X28566360Y-19711426D01*
X29056373Y-19707456D01*
X29498196Y-19706069D01*
X29872739Y-19707146D01*
G36*
X19579241Y-19840651D02*
G01*
X19689259Y-20000611D01*
X19848656Y-20251231D01*
X20047392Y-20576423D01*
X20275433Y-20960099D01*
X20484084Y-21318929D01*
X21377335Y-22870000D01*
X17708966Y-22870000D01*
X17956837Y-22429028D01*
X18243854Y-21921920D01*
X18522872Y-21435476D01*
X18784996Y-20984643D01*
X19021333Y-20584369D01*
X19222988Y-20249601D01*
X19381068Y-19995286D01*
X19486679Y-19836371D01*
X19528637Y-19787439D01*
X19579241Y-19840651D01*
G37*
X19579241Y-19840651D02*
X19689259Y-20000611D01*
X19848656Y-20251231D01*
X20047392Y-20576423D01*
X20275433Y-20960099D01*
X20484084Y-21318929D01*
X21377335Y-22870000D01*
X17708966Y-22870000D01*
X17956837Y-22429028D01*
X18243854Y-21921920D01*
X18522872Y-21435476D01*
X18784996Y-20984643D01*
X19021333Y-20584369D01*
X19222988Y-20249601D01*
X19381068Y-19995286D01*
X19486679Y-19836371D01*
X19528637Y-19787439D01*
X19579241Y-19840651D01*
G36*
X262523169Y-13580606D02*
G01*
X262629125Y-13750636D01*
X262792244Y-14020046D01*
X263005864Y-14377405D01*
X263263324Y-14811281D01*
X263557961Y-15310241D01*
X263883112Y-15862854D01*
X264232116Y-16457687D01*
X264598311Y-17083308D01*
X264975034Y-17728286D01*
X265355623Y-18381187D01*
X265733416Y-19030581D01*
X266101751Y-19665035D01*
X266453965Y-20273116D01*
X266783397Y-20843393D01*
X267083383Y-21364435D01*
X267347263Y-21824807D01*
X267568374Y-22213080D01*
X267740054Y-22517820D01*
X267855640Y-22727595D01*
X267908470Y-22830974D01*
X267911111Y-22839210D01*
X267843676Y-22847553D01*
X267653853Y-22855039D01*
X267360361Y-22861344D01*
X266981923Y-22866150D01*
X266537260Y-22869135D01*
X266114912Y-22870000D01*
X264318713Y-22870000D01*
X265062020Y-24157639D01*
X265296312Y-24563437D01*
X265517730Y-24946812D01*
X265712524Y-25283966D01*
X265866945Y-25551104D01*
X265967244Y-25724429D01*
X265979250Y-25745139D01*
X266153171Y-26045000D01*
X264308203Y-26045000D01*
X263729145Y-26043630D01*
X263278437Y-26039107D01*
X262943343Y-26030810D01*
X262711124Y-26018119D01*
X262569042Y-26000412D01*
X262504361Y-25977069D01*
X262498409Y-25956805D01*
X262542306Y-25873162D01*
X262646802Y-25685367D01*
X262801728Y-25411349D01*
X262996913Y-25069036D01*
X263222185Y-24676359D01*
X263388968Y-24386944D01*
X264244353Y-22905278D01*
X260644955Y-22886998D01*
X259947195Y-22882969D01*
X259294018Y-22878258D01*
X258698649Y-22873026D01*
X258174313Y-22867434D01*
X257734235Y-22861643D01*
X257391639Y-22855815D01*
X257159752Y-22850110D01*
X257051798Y-22844690D01*
X257045556Y-22843150D01*
X257080077Y-22771339D01*
X257179200Y-22589981D01*
X257336261Y-22310502D01*
X257544600Y-21944327D01*
X257797552Y-21502882D01*
X258088458Y-20997593D01*
X258410653Y-20439884D01*
X258757477Y-19841182D01*
X258780904Y-19800833D01*
X262550695Y-19800833D01*
X263414097Y-21300077D01*
X263690093Y-21776080D01*
X263906070Y-22140003D01*
X264069906Y-22403473D01*
X264189475Y-22578115D01*
X264272654Y-22675553D01*
X264327318Y-22707414D01*
X264357047Y-22691890D01*
X264414255Y-22601404D01*
X264530343Y-22407581D01*
X264694080Y-22129545D01*
X264894232Y-21786419D01*
X265119567Y-21397326D01*
X265229467Y-21206640D01*
X265455990Y-20809181D01*
X265654382Y-20453725D01*
X265815106Y-20157978D01*
X265928625Y-19939643D01*
X265985400Y-19816426D01*
X265989429Y-19795910D01*
X265912635Y-19787495D01*
X265714470Y-19781421D01*
X265414656Y-19777848D01*
X265032914Y-19776935D01*
X264588967Y-19778841D01*
X264253606Y-19781916D01*
X262550695Y-19800833D01*
X258780904Y-19800833D01*
X259122266Y-19212912D01*
X259498358Y-18566499D01*
X259879092Y-17913370D01*
X260257805Y-17264950D01*
X260627835Y-16632665D01*
X260631842Y-16625833D01*
X260716079Y-16625833D01*
X261579567Y-18124748D01*
X261819549Y-18538795D01*
X262036940Y-18909040D01*
X262221767Y-19218886D01*
X262364056Y-19451740D01*
X262453832Y-19591005D01*
X262480662Y-19624054D01*
X262524729Y-19565628D01*
X262628689Y-19401187D01*
X262782580Y-19147319D01*
X262976436Y-18820616D01*
X263200293Y-18437666D01*
X263380951Y-18125139D01*
X264243633Y-16625833D01*
X263360983Y-16606086D01*
X262901995Y-16599579D01*
X262380037Y-16598027D01*
X261872783Y-16601431D01*
X261597206Y-16606086D01*
X260716079Y-16625833D01*
X260631842Y-16625833D01*
X260982520Y-16027939D01*
X261315197Y-15462199D01*
X261619204Y-14946871D01*
X261887879Y-14493379D01*
X262114560Y-14113150D01*
X262292584Y-13817608D01*
X262415290Y-13618180D01*
X262476015Y-13526292D01*
X262481039Y-13521389D01*
X262523169Y-13580606D01*
G37*
X262523169Y-13580606D02*
X262629125Y-13750636D01*
X262792244Y-14020046D01*
X263005864Y-14377405D01*
X263263324Y-14811281D01*
X263557961Y-15310241D01*
X263883112Y-15862854D01*
X264232116Y-16457687D01*
X264598311Y-17083308D01*
X264975034Y-17728286D01*
X265355623Y-18381187D01*
X265733416Y-19030581D01*
X266101751Y-19665035D01*
X266453965Y-20273116D01*
X266783397Y-20843393D01*
X267083383Y-21364435D01*
X267347263Y-21824807D01*
X267568374Y-22213080D01*
X267740054Y-22517820D01*
X267855640Y-22727595D01*
X267908470Y-22830974D01*
X267911111Y-22839210D01*
X267843676Y-22847553D01*
X267653853Y-22855039D01*
X267360361Y-22861344D01*
X266981923Y-22866150D01*
X266537260Y-22869135D01*
X266114912Y-22870000D01*
X264318713Y-22870000D01*
X265062020Y-24157639D01*
X265296312Y-24563437D01*
X265517730Y-24946812D01*
X265712524Y-25283966D01*
X265866945Y-25551104D01*
X265967244Y-25724429D01*
X265979250Y-25745139D01*
X266153171Y-26045000D01*
X264308203Y-26045000D01*
X263729145Y-26043630D01*
X263278437Y-26039107D01*
X262943343Y-26030810D01*
X262711124Y-26018119D01*
X262569042Y-26000412D01*
X262504361Y-25977069D01*
X262498409Y-25956805D01*
X262542306Y-25873162D01*
X262646802Y-25685367D01*
X262801728Y-25411349D01*
X262996913Y-25069036D01*
X263222185Y-24676359D01*
X263388968Y-24386944D01*
X264244353Y-22905278D01*
X260644955Y-22886998D01*
X259947195Y-22882969D01*
X259294018Y-22878258D01*
X258698649Y-22873026D01*
X258174313Y-22867434D01*
X257734235Y-22861643D01*
X257391639Y-22855815D01*
X257159752Y-22850110D01*
X257051798Y-22844690D01*
X257045556Y-22843150D01*
X257080077Y-22771339D01*
X257179200Y-22589981D01*
X257336261Y-22310502D01*
X257544600Y-21944327D01*
X257797552Y-21502882D01*
X258088458Y-20997593D01*
X258410653Y-20439884D01*
X258757477Y-19841182D01*
X258780904Y-19800833D01*
X262550695Y-19800833D01*
X263414097Y-21300077D01*
X263690093Y-21776080D01*
X263906070Y-22140003D01*
X264069906Y-22403473D01*
X264189475Y-22578115D01*
X264272654Y-22675553D01*
X264327318Y-22707414D01*
X264357047Y-22691890D01*
X264414255Y-22601404D01*
X264530343Y-22407581D01*
X264694080Y-22129545D01*
X264894232Y-21786419D01*
X265119567Y-21397326D01*
X265229467Y-21206640D01*
X265455990Y-20809181D01*
X265654382Y-20453725D01*
X265815106Y-20157978D01*
X265928625Y-19939643D01*
X265985400Y-19816426D01*
X265989429Y-19795910D01*
X265912635Y-19787495D01*
X265714470Y-19781421D01*
X265414656Y-19777848D01*
X265032914Y-19776935D01*
X264588967Y-19778841D01*
X264253606Y-19781916D01*
X262550695Y-19800833D01*
X258780904Y-19800833D01*
X259122266Y-19212912D01*
X259498358Y-18566499D01*
X259879092Y-17913370D01*
X260257805Y-17264950D01*
X260627835Y-16632665D01*
X260631842Y-16625833D01*
X260716079Y-16625833D01*
X261579567Y-18124748D01*
X261819549Y-18538795D01*
X262036940Y-18909040D01*
X262221767Y-19218886D01*
X262364056Y-19451740D01*
X262453832Y-19591005D01*
X262480662Y-19624054D01*
X262524729Y-19565628D01*
X262628689Y-19401187D01*
X262782580Y-19147319D01*
X262976436Y-18820616D01*
X263200293Y-18437666D01*
X263380951Y-18125139D01*
X264243633Y-16625833D01*
X263360983Y-16606086D01*
X262901995Y-16599579D01*
X262380037Y-16598027D01*
X261872783Y-16601431D01*
X261597206Y-16606086D01*
X260716079Y-16625833D01*
X260631842Y-16625833D01*
X260982520Y-16027939D01*
X261315197Y-15462199D01*
X261619204Y-14946871D01*
X261887879Y-14493379D01*
X262114560Y-14113150D01*
X262292584Y-13817608D01*
X262415290Y-13618180D01*
X262476015Y-13526292D01*
X262481039Y-13521389D01*
X262523169Y-13580606D01*
G36*
X173681070Y-22910000D02*
G01*
X173757006Y-23028074D01*
X173880398Y-23232346D01*
X174054945Y-23529150D01*
X174284348Y-23924821D01*
X174572305Y-24425694D01*
X174922516Y-25038101D01*
X175260462Y-25630972D01*
X175496202Y-26045000D01*
X173649444Y-26045000D01*
X173157119Y-26042833D01*
X172716005Y-26036727D01*
X172344252Y-26027275D01*
X172060012Y-26015067D01*
X171881434Y-26000697D01*
X171826204Y-25985533D01*
X171874822Y-25890378D01*
X171980782Y-25699457D01*
X172132513Y-25432538D01*
X172318444Y-25109386D01*
X172527005Y-24749769D01*
X172746624Y-24373454D01*
X172965730Y-24000208D01*
X173172753Y-23649798D01*
X173356122Y-23341990D01*
X173504266Y-23096551D01*
X173605613Y-22933249D01*
X173648594Y-22871850D01*
X173648889Y-22871789D01*
X173681070Y-22910000D01*
G37*
X173681070Y-22910000D02*
X173757006Y-23028074D01*
X173880398Y-23232346D01*
X174054945Y-23529150D01*
X174284348Y-23924821D01*
X174572305Y-24425694D01*
X174922516Y-25038101D01*
X175260462Y-25630972D01*
X175496202Y-26045000D01*
X173649444Y-26045000D01*
X173157119Y-26042833D01*
X172716005Y-26036727D01*
X172344252Y-26027275D01*
X172060012Y-26015067D01*
X171881434Y-26000697D01*
X171826204Y-25985533D01*
X171874822Y-25890378D01*
X171980782Y-25699457D01*
X172132513Y-25432538D01*
X172318444Y-25109386D01*
X172527005Y-24749769D01*
X172746624Y-24373454D01*
X172965730Y-24000208D01*
X173172753Y-23649798D01*
X173356122Y-23341990D01*
X173504266Y-23096551D01*
X173605613Y-22933249D01*
X173648594Y-22871850D01*
X173648889Y-22871789D01*
X173681070Y-22910000D01*
G36*
X141021922Y-22964398D02*
G01*
X141125043Y-23113503D01*
X141274964Y-23346194D01*
X141460073Y-23643011D01*
X141668759Y-23984490D01*
X141889410Y-24351168D01*
X142110414Y-24723585D01*
X142320159Y-25082277D01*
X142507033Y-25407782D01*
X142659426Y-25680638D01*
X142765724Y-25881383D01*
X142814317Y-25990554D01*
X142816111Y-26000499D01*
X142748674Y-26012548D01*
X142558834Y-26023360D01*
X142265296Y-26032470D01*
X141886765Y-26039417D01*
X141441947Y-26043737D01*
X141016945Y-26045000D01*
X140529785Y-26042729D01*
X140092688Y-26036338D01*
X139724359Y-26026455D01*
X139443502Y-26013710D01*
X139268822Y-25998733D01*
X139217778Y-25984423D01*
X139251543Y-25910334D01*
X139345011Y-25735019D01*
X139486440Y-25478939D01*
X139664088Y-25162557D01*
X139866214Y-24806335D01*
X140081074Y-24430734D01*
X140296929Y-24056216D01*
X140502035Y-23703243D01*
X140684651Y-23392277D01*
X140833036Y-23143781D01*
X140935446Y-22978215D01*
X140977212Y-22918342D01*
X141021922Y-22964398D01*
G37*
X141021922Y-22964398D02*
X141125043Y-23113503D01*
X141274964Y-23346194D01*
X141460073Y-23643011D01*
X141668759Y-23984490D01*
X141889410Y-24351168D01*
X142110414Y-24723585D01*
X142320159Y-25082277D01*
X142507033Y-25407782D01*
X142659426Y-25680638D01*
X142765724Y-25881383D01*
X142814317Y-25990554D01*
X142816111Y-26000499D01*
X142748674Y-26012548D01*
X142558834Y-26023360D01*
X142265296Y-26032470D01*
X141886765Y-26039417D01*
X141441947Y-26043737D01*
X141016945Y-26045000D01*
X140529785Y-26042729D01*
X140092688Y-26036338D01*
X139724359Y-26026455D01*
X139443502Y-26013710D01*
X139268822Y-25998733D01*
X139217778Y-25984423D01*
X139251543Y-25910334D01*
X139345011Y-25735019D01*
X139486440Y-25478939D01*
X139664088Y-25162557D01*
X139866214Y-24806335D01*
X140081074Y-24430734D01*
X140296929Y-24056216D01*
X140502035Y-23703243D01*
X140684651Y-23392277D01*
X140833036Y-23143781D01*
X140935446Y-22978215D01*
X140977212Y-22918342D01*
X141021922Y-22964398D01*
G36*
X191374904Y-25987167D02*
G01*
X191805124Y-25990871D01*
X193613563Y-26009722D01*
X192715254Y-27577564D01*
X192470841Y-28001796D01*
X192248849Y-28382633D01*
X192058978Y-28703799D01*
X191910925Y-28949016D01*
X191814391Y-29102007D01*
X191779832Y-29147425D01*
X191736041Y-29089421D01*
X191632043Y-28925088D01*
X191477581Y-28670647D01*
X191282404Y-28342319D01*
X191056256Y-27956328D01*
X190842741Y-27587693D01*
X190600136Y-27163933D01*
X190384387Y-26781764D01*
X190204564Y-26457688D01*
X190069734Y-26208207D01*
X189988966Y-26049824D01*
X189969723Y-25998981D01*
X190044675Y-25992392D01*
X190241698Y-25987832D01*
X190541762Y-25985386D01*
X190925840Y-25985136D01*
X191374904Y-25987167D01*
G37*
X191374904Y-25987167D02*
X191805124Y-25990871D01*
X193613563Y-26009722D01*
X192715254Y-27577564D01*
X192470841Y-28001796D01*
X192248849Y-28382633D01*
X192058978Y-28703799D01*
X191910925Y-28949016D01*
X191814391Y-29102007D01*
X191779832Y-29147425D01*
X191736041Y-29089421D01*
X191632043Y-28925088D01*
X191477581Y-28670647D01*
X191282404Y-28342319D01*
X191056256Y-27956328D01*
X190842741Y-27587693D01*
X190600136Y-27163933D01*
X190384387Y-26781764D01*
X190204564Y-26457688D01*
X190069734Y-26208207D01*
X189988966Y-26049824D01*
X189969723Y-25998981D01*
X190044675Y-25992392D01*
X190241698Y-25987832D01*
X190541762Y-25985386D01*
X190925840Y-25985136D01*
X191374904Y-25987167D01*
G36*
X153762355Y-26132831D02*
G01*
X153876208Y-26306515D01*
X154041282Y-26573539D01*
X154248715Y-26919011D01*
X154489644Y-27328040D01*
X154755208Y-27785735D01*
X155036544Y-28277205D01*
X155280386Y-28708472D01*
X155528256Y-29149444D01*
X151860474Y-29149444D01*
X152753432Y-27598866D01*
X152998408Y-27178275D01*
X153222581Y-26802510D01*
X153415913Y-26487670D01*
X153568362Y-26249853D01*
X153669891Y-26105154D01*
X153708586Y-26067376D01*
X153762355Y-26132831D01*
G37*
X153762355Y-26132831D02*
X153876208Y-26306515D01*
X154041282Y-26573539D01*
X154248715Y-26919011D01*
X154489644Y-27328040D01*
X154755208Y-27785735D01*
X155036544Y-28277205D01*
X155280386Y-28708472D01*
X155528256Y-29149444D01*
X151860474Y-29149444D01*
X152753432Y-27598866D01*
X152998408Y-27178275D01*
X153222581Y-26802510D01*
X153415913Y-26487670D01*
X153568362Y-26249853D01*
X153669891Y-26105154D01*
X153708586Y-26067376D01*
X153762355Y-26132831D01*
G36*
X48005110Y-25986436D02*
G01*
X48293245Y-25989752D01*
X48475915Y-25995278D01*
X48534179Y-26001772D01*
X48508856Y-26067951D01*
X48422829Y-26235634D01*
X48287496Y-26485026D01*
X48114256Y-26796332D01*
X47914507Y-27149757D01*
X47699647Y-27525505D01*
X47481077Y-27903781D01*
X47270193Y-28264791D01*
X47078395Y-28588738D01*
X46917081Y-28855828D01*
X46797650Y-29046266D01*
X46731500Y-29140257D01*
X46723233Y-29146731D01*
X46679108Y-29087287D01*
X46575172Y-28921354D01*
X46421135Y-28665239D01*
X46226705Y-28335251D01*
X46001592Y-27947698D01*
X45788614Y-27576870D01*
X44893060Y-26009722D01*
X46698744Y-25990871D01*
X47188778Y-25986881D01*
X47630594Y-25985441D01*
X48005110Y-25986436D01*
G37*
X48005110Y-25986436D02*
X48293245Y-25989752D01*
X48475915Y-25995278D01*
X48534179Y-26001772D01*
X48508856Y-26067951D01*
X48422829Y-26235634D01*
X48287496Y-26485026D01*
X48114256Y-26796332D01*
X47914507Y-27149757D01*
X47699647Y-27525505D01*
X47481077Y-27903781D01*
X47270193Y-28264791D01*
X47078395Y-28588738D01*
X46917081Y-28855828D01*
X46797650Y-29046266D01*
X46731500Y-29140257D01*
X46723233Y-29146731D01*
X46679108Y-29087287D01*
X46575172Y-28921354D01*
X46421135Y-28665239D01*
X46226705Y-28335251D01*
X46001592Y-27947698D01*
X45788614Y-27576870D01*
X44893060Y-26009722D01*
X46698744Y-25990871D01*
X47188778Y-25986881D01*
X47630594Y-25985441D01*
X48005110Y-25986436D01*
G36*
X240766809Y-70078176D02*
G01*
X240871208Y-70234930D01*
X241021736Y-70474475D01*
X241206628Y-70776848D01*
X241414119Y-71122085D01*
X241632444Y-71490223D01*
X241849838Y-71861296D01*
X242054536Y-72215342D01*
X242234773Y-72532397D01*
X242378784Y-72792497D01*
X242474804Y-72975677D01*
X242511069Y-73061975D01*
X242511111Y-73062979D01*
X242443669Y-73074489D01*
X242253792Y-73084819D01*
X241960153Y-73093528D01*
X241581428Y-73100177D01*
X241136290Y-73104324D01*
X240705872Y-73105555D01*
X238900633Y-73105555D01*
X239148503Y-72664583D01*
X239437300Y-72154337D01*
X239717443Y-71665974D01*
X239980115Y-71214308D01*
X240216497Y-70814149D01*
X240417773Y-70480311D01*
X240575125Y-70227606D01*
X240679735Y-70070846D01*
X240720303Y-70024177D01*
X240766809Y-70078176D01*
G37*
X240766809Y-70078176D02*
X240871208Y-70234930D01*
X241021736Y-70474475D01*
X241206628Y-70776848D01*
X241414119Y-71122085D01*
X241632444Y-71490223D01*
X241849838Y-71861296D01*
X242054536Y-72215342D01*
X242234773Y-72532397D01*
X242378784Y-72792497D01*
X242474804Y-72975677D01*
X242511069Y-73061975D01*
X242511111Y-73062979D01*
X242443669Y-73074489D01*
X242253792Y-73084819D01*
X241960153Y-73093528D01*
X241581428Y-73100177D01*
X241136290Y-73104324D01*
X240705872Y-73105555D01*
X238900633Y-73105555D01*
X239148503Y-72664583D01*
X239437300Y-72154337D01*
X239717443Y-71665974D01*
X239980115Y-71214308D01*
X240216497Y-70814149D01*
X240417773Y-70480311D01*
X240575125Y-70227606D01*
X240679735Y-70070846D01*
X240720303Y-70024177D01*
X240766809Y-70078176D01*
G36*
X233505429Y-70074500D02*
G01*
X233609884Y-70238818D01*
X233768170Y-70497447D01*
X233972090Y-70836345D01*
X234213447Y-71241469D01*
X234484045Y-71698777D01*
X234775685Y-72194227D01*
X235080172Y-72713776D01*
X235389308Y-73243383D01*
X235694895Y-73769004D01*
X235988738Y-74276598D01*
X236262638Y-74752122D01*
X236508399Y-75181533D01*
X236717824Y-75550790D01*
X236882716Y-75845850D01*
X236994877Y-76052671D01*
X237045608Y-76155878D01*
X237051553Y-76193237D01*
X237026986Y-76222458D01*
X236956451Y-76244774D01*
X236824490Y-76261421D01*
X236615646Y-76273632D01*
X236314463Y-76282642D01*
X235905484Y-76289685D01*
X235373251Y-76295995D01*
X235278594Y-76296989D01*
X233464683Y-76315833D01*
X232569136Y-77868055D01*
X231673589Y-79420278D01*
X229860406Y-79439108D01*
X229301665Y-79442399D01*
X228831038Y-79440038D01*
X228460264Y-79432334D01*
X228201083Y-79419595D01*
X228065234Y-79402128D01*
X228047222Y-79391522D01*
X228081590Y-79319513D01*
X228180275Y-79137430D01*
X228336646Y-78856746D01*
X228544074Y-78488935D01*
X228795929Y-78045471D01*
X229085582Y-77537826D01*
X229406403Y-76977476D01*
X229751763Y-76375894D01*
X230115032Y-75744554D01*
X230489579Y-75094929D01*
X230868776Y-74438493D01*
X231245994Y-73786721D01*
X231614601Y-73151085D01*
X231967969Y-72543060D01*
X232299468Y-71974119D01*
X232602468Y-71455737D01*
X232870341Y-70999387D01*
X233096455Y-70616542D01*
X233274181Y-70318677D01*
X233396891Y-70117266D01*
X233457953Y-70023782D01*
X233463003Y-70018536D01*
X233505429Y-70074500D01*
G37*
X233505429Y-70074500D02*
X233609884Y-70238818D01*
X233768170Y-70497447D01*
X233972090Y-70836345D01*
X234213447Y-71241469D01*
X234484045Y-71698777D01*
X234775685Y-72194227D01*
X235080172Y-72713776D01*
X235389308Y-73243383D01*
X235694895Y-73769004D01*
X235988738Y-74276598D01*
X236262638Y-74752122D01*
X236508399Y-75181533D01*
X236717824Y-75550790D01*
X236882716Y-75845850D01*
X236994877Y-76052671D01*
X237045608Y-76155878D01*
X237051553Y-76193237D01*
X237026986Y-76222458D01*
X236956451Y-76244774D01*
X236824490Y-76261421D01*
X236615646Y-76273632D01*
X236314463Y-76282642D01*
X235905484Y-76289685D01*
X235373251Y-76295995D01*
X235278594Y-76296989D01*
X233464683Y-76315833D01*
X232569136Y-77868055D01*
X231673589Y-79420278D01*
X229860406Y-79439108D01*
X229301665Y-79442399D01*
X228831038Y-79440038D01*
X228460264Y-79432334D01*
X228201083Y-79419595D01*
X228065234Y-79402128D01*
X228047222Y-79391522D01*
X228081590Y-79319513D01*
X228180275Y-79137430D01*
X228336646Y-78856746D01*
X228544074Y-78488935D01*
X228795929Y-78045471D01*
X229085582Y-77537826D01*
X229406403Y-76977476D01*
X229751763Y-76375894D01*
X230115032Y-75744554D01*
X230489579Y-75094929D01*
X230868776Y-74438493D01*
X231245994Y-73786721D01*
X231614601Y-73151085D01*
X231967969Y-72543060D01*
X232299468Y-71974119D01*
X232602468Y-71455737D01*
X232870341Y-70999387D01*
X233096455Y-70616542D01*
X233274181Y-70318677D01*
X233396891Y-70117266D01*
X233457953Y-70023782D01*
X233463003Y-70018536D01*
X233505429Y-70074500D01*
G36*
X251061445Y-88780865D02*
G01*
X251350345Y-88784162D01*
X251533874Y-88789662D01*
X251593044Y-88796192D01*
X251568036Y-88862675D01*
X251482358Y-89030675D01*
X251347396Y-89280379D01*
X251174536Y-89591977D01*
X250975163Y-89945656D01*
X250760662Y-90321604D01*
X250542418Y-90700011D01*
X250331817Y-91061065D01*
X250140244Y-91384953D01*
X249979084Y-91651865D01*
X249859722Y-91841988D01*
X249793544Y-91935511D01*
X249785338Y-91941800D01*
X249740227Y-91882583D01*
X249635164Y-91716956D01*
X249479918Y-91461192D01*
X249284257Y-91131566D01*
X249057952Y-90744350D01*
X248842964Y-90371938D01*
X247942872Y-88804167D01*
X249753094Y-88785315D01*
X250243764Y-88781328D01*
X250686233Y-88779882D01*
X251061445Y-88780865D01*
G37*
X251061445Y-88780865D02*
X251350345Y-88784162D01*
X251533874Y-88789662D01*
X251593044Y-88796192D01*
X251568036Y-88862675D01*
X251482358Y-89030675D01*
X251347396Y-89280379D01*
X251174536Y-89591977D01*
X250975163Y-89945656D01*
X250760662Y-90321604D01*
X250542418Y-90700011D01*
X250331817Y-91061065D01*
X250140244Y-91384953D01*
X249979084Y-91651865D01*
X249859722Y-91841988D01*
X249793544Y-91935511D01*
X249785338Y-91941800D01*
X249740227Y-91882583D01*
X249635164Y-91716956D01*
X249479918Y-91461192D01*
X249284257Y-91131566D01*
X249057952Y-90744350D01*
X248842964Y-90371938D01*
X247942872Y-88804167D01*
X249753094Y-88785315D01*
X250243764Y-88781328D01*
X250686233Y-88779882D01*
X251061445Y-88780865D01*
G36*
X219880417Y-90340790D02*
G01*
X220123884Y-90768030D01*
X220342349Y-91155062D01*
X220526472Y-91485041D01*
X220666915Y-91741123D01*
X220754338Y-91906462D01*
X220780000Y-91963386D01*
X220712132Y-91974371D01*
X220519266Y-91983988D01*
X220217506Y-91992241D01*
X219822960Y-91999134D01*
X219351734Y-92004671D01*
X218819931Y-92008858D01*
X218243660Y-92011696D01*
X217639026Y-92013192D01*
X217022134Y-92013349D01*
X216409090Y-92012170D01*
X215816000Y-92009661D01*
X215258971Y-92005826D01*
X214754108Y-92000667D01*
X214317517Y-91994191D01*
X213965303Y-91986400D01*
X213713573Y-91977300D01*
X213578432Y-91966893D01*
X213559758Y-91961528D01*
X213584938Y-91888546D01*
X213672427Y-91710725D01*
X213813135Y-91444937D01*
X213997974Y-91108057D01*
X214217852Y-90716959D01*
X214424419Y-90356389D01*
X215320983Y-88804167D01*
X218980833Y-88769253D01*
X219880417Y-90340790D01*
G37*
X219880417Y-90340790D02*
X220123884Y-90768030D01*
X220342349Y-91155062D01*
X220526472Y-91485041D01*
X220666915Y-91741123D01*
X220754338Y-91906462D01*
X220780000Y-91963386D01*
X220712132Y-91974371D01*
X220519266Y-91983988D01*
X220217506Y-91992241D01*
X219822960Y-91999134D01*
X219351734Y-92004671D01*
X218819931Y-92008858D01*
X218243660Y-92011696D01*
X217639026Y-92013192D01*
X217022134Y-92013349D01*
X216409090Y-92012170D01*
X215816000Y-92009661D01*
X215258971Y-92005826D01*
X214754108Y-92000667D01*
X214317517Y-91994191D01*
X213965303Y-91986400D01*
X213713573Y-91977300D01*
X213578432Y-91966893D01*
X213559758Y-91961528D01*
X213584938Y-91888546D01*
X213672427Y-91710725D01*
X213813135Y-91444937D01*
X213997974Y-91108057D01*
X214217852Y-90716959D01*
X214424419Y-90356389D01*
X215320983Y-88804167D01*
X218980833Y-88769253D01*
X219880417Y-90340790D01*
G36*
X287039219Y-91956874D02*
G01*
X287430804Y-91960282D01*
X289203346Y-91979167D01*
X287400152Y-95083611D01*
X285550185Y-95102436D01*
X283700217Y-95121262D01*
X283835562Y-94890770D01*
X283910671Y-94761629D01*
X284043481Y-94532014D01*
X284221374Y-94223794D01*
X284431730Y-93858838D01*
X284661932Y-93459013D01*
X284735472Y-93331196D01*
X284963391Y-92939732D01*
X285171564Y-92591114D01*
X285348681Y-92303567D01*
X285483431Y-92095314D01*
X285564506Y-91984580D01*
X285579150Y-91971755D01*
X285668893Y-91964162D01*
X285879752Y-91958754D01*
X286191746Y-91955654D01*
X286584895Y-91954986D01*
X287039219Y-91956874D01*
G37*
X287039219Y-91956874D02*
X287430804Y-91960282D01*
X289203346Y-91979167D01*
X287400152Y-95083611D01*
X285550185Y-95102436D01*
X283700217Y-95121262D01*
X283835562Y-94890770D01*
X283910671Y-94761629D01*
X284043481Y-94532014D01*
X284221374Y-94223794D01*
X284431730Y-93858838D01*
X284661932Y-93459013D01*
X284735472Y-93331196D01*
X284963391Y-92939732D01*
X285171564Y-92591114D01*
X285348681Y-92303567D01*
X285483431Y-92095314D01*
X285564506Y-91984580D01*
X285579150Y-91971755D01*
X285668893Y-91964162D01*
X285879752Y-91958754D01*
X286191746Y-91955654D01*
X286584895Y-91954986D01*
X287039219Y-91956874D01*
G36*
X93883666Y-92045335D02*
G01*
X93986111Y-92195409D01*
X94135716Y-92428836D01*
X94320835Y-92726160D01*
X94529824Y-93067925D01*
X94751036Y-93434675D01*
X94972827Y-93806952D01*
X95183551Y-94165301D01*
X95371563Y-94490266D01*
X95525217Y-94762389D01*
X95632868Y-94962215D01*
X95682871Y-95070287D01*
X95685000Y-95080539D01*
X95617528Y-95090812D01*
X95427442Y-95100045D01*
X95133239Y-95107855D01*
X94753413Y-95113855D01*
X94306462Y-95117659D01*
X93844801Y-95118889D01*
X92004602Y-95118889D01*
X92145048Y-94889583D01*
X92222106Y-94760186D01*
X92356608Y-94530572D01*
X92535686Y-94222868D01*
X92746469Y-93859201D01*
X92976088Y-93461698D01*
X93037595Y-93355000D01*
X93262568Y-92966165D01*
X93465426Y-92618598D01*
X93635109Y-92330999D01*
X93760560Y-92122070D01*
X93830717Y-92010514D01*
X93840026Y-91998072D01*
X93883666Y-92045335D01*
G37*
X93883666Y-92045335D02*
X93986111Y-92195409D01*
X94135716Y-92428836D01*
X94320835Y-92726160D01*
X94529824Y-93067925D01*
X94751036Y-93434675D01*
X94972827Y-93806952D01*
X95183551Y-94165301D01*
X95371563Y-94490266D01*
X95525217Y-94762389D01*
X95632868Y-94962215D01*
X95682871Y-95070287D01*
X95685000Y-95080539D01*
X95617528Y-95090812D01*
X95427442Y-95100045D01*
X95133239Y-95107855D01*
X94753413Y-95113855D01*
X94306462Y-95117659D01*
X93844801Y-95118889D01*
X92004602Y-95118889D01*
X92145048Y-94889583D01*
X92222106Y-94760186D01*
X92356608Y-94530572D01*
X92535686Y-94222868D01*
X92746469Y-93859201D01*
X92976088Y-93461698D01*
X93037595Y-93355000D01*
X93262568Y-92966165D01*
X93465426Y-92618598D01*
X93635109Y-92330999D01*
X93760560Y-92122070D01*
X93830717Y-92010514D01*
X93840026Y-91998072D01*
X93883666Y-92045335D01*
G36*
X28663157Y-92102194D02*
G01*
X28774264Y-92253001D01*
X28929955Y-92494376D01*
X29136939Y-92836383D01*
X29401928Y-93289091D01*
X29506483Y-93470110D01*
X29748852Y-93891598D01*
X29967528Y-94273385D01*
X30152702Y-94598223D01*
X30294565Y-94848864D01*
X30383307Y-95008058D01*
X30409352Y-95057685D01*
X30348344Y-95074032D01*
X30164382Y-95088734D01*
X29875620Y-95101179D01*
X29500212Y-95110759D01*
X29056311Y-95116863D01*
X28586792Y-95118889D01*
X26740713Y-95118889D01*
X26879182Y-94889583D01*
X26956036Y-94759033D01*
X27089714Y-94528516D01*
X27267172Y-94220668D01*
X27475369Y-93858123D01*
X27701261Y-93463516D01*
X27743109Y-93390278D01*
X27965424Y-93003447D01*
X28167970Y-92655452D01*
X28339022Y-92366080D01*
X28466857Y-92155118D01*
X28539751Y-92042354D01*
X28547851Y-92032009D01*
X28589923Y-92031885D01*
X28663157Y-92102194D01*
G37*
X28663157Y-92102194D02*
X28774264Y-92253001D01*
X28929955Y-92494376D01*
X29136939Y-92836383D01*
X29401928Y-93289091D01*
X29506483Y-93470110D01*
X29748852Y-93891598D01*
X29967528Y-94273385D01*
X30152702Y-94598223D01*
X30294565Y-94848864D01*
X30383307Y-95008058D01*
X30409352Y-95057685D01*
X30348344Y-95074032D01*
X30164382Y-95088734D01*
X29875620Y-95101179D01*
X29500212Y-95110759D01*
X29056311Y-95116863D01*
X28586792Y-95118889D01*
X26740713Y-95118889D01*
X26879182Y-94889583D01*
X26956036Y-94759033D01*
X27089714Y-94528516D01*
X27267172Y-94220668D01*
X27475369Y-93858123D01*
X27701261Y-93463516D01*
X27743109Y-93390278D01*
X27965424Y-93003447D01*
X28167970Y-92655452D01*
X28339022Y-92366080D01*
X28466857Y-92155118D01*
X28539751Y-92042354D01*
X28547851Y-92032009D01*
X28589923Y-92031885D01*
X28663157Y-92102194D01*
G36*
X44965016Y-95218125D02*
G01*
X45071813Y-95377211D01*
X45224420Y-95619212D01*
X45411079Y-95924130D01*
X45620035Y-96271970D01*
X45839529Y-96642733D01*
X46057805Y-97016424D01*
X46263106Y-97373044D01*
X46443675Y-97692598D01*
X46587754Y-97955087D01*
X46683588Y-98140516D01*
X46719419Y-98228887D01*
X46719445Y-98229727D01*
X46651581Y-98248114D01*
X46458736Y-98264176D01*
X46157028Y-98277338D01*
X45762577Y-98287024D01*
X45291502Y-98292660D01*
X44920278Y-98293889D01*
X44404680Y-98291469D01*
X43954290Y-98284591D01*
X43585225Y-98273832D01*
X43313607Y-98259765D01*
X43155552Y-98242966D01*
X43121111Y-98229727D01*
X43155212Y-98146038D01*
X43249646Y-97963843D01*
X43392613Y-97703313D01*
X43572312Y-97384622D01*
X43776942Y-97027941D01*
X43994702Y-96653442D01*
X44213791Y-96281299D01*
X44422408Y-95931683D01*
X44608752Y-95624766D01*
X44761023Y-95380721D01*
X44867418Y-95219720D01*
X44915786Y-95161952D01*
X44965016Y-95218125D01*
G37*
X44965016Y-95218125D02*
X45071813Y-95377211D01*
X45224420Y-95619212D01*
X45411079Y-95924130D01*
X45620035Y-96271970D01*
X45839529Y-96642733D01*
X46057805Y-97016424D01*
X46263106Y-97373044D01*
X46443675Y-97692598D01*
X46587754Y-97955087D01*
X46683588Y-98140516D01*
X46719419Y-98228887D01*
X46719445Y-98229727D01*
X46651581Y-98248114D01*
X46458736Y-98264176D01*
X46157028Y-98277338D01*
X45762577Y-98287024D01*
X45291502Y-98292660D01*
X44920278Y-98293889D01*
X44404680Y-98291469D01*
X43954290Y-98284591D01*
X43585225Y-98273832D01*
X43313607Y-98259765D01*
X43155552Y-98242966D01*
X43121111Y-98229727D01*
X43155212Y-98146038D01*
X43249646Y-97963843D01*
X43392613Y-97703313D01*
X43572312Y-97384622D01*
X43776942Y-97027941D01*
X43994702Y-96653442D01*
X44213791Y-96281299D01*
X44422408Y-95931683D01*
X44608752Y-95624766D01*
X44761023Y-95380721D01*
X44867418Y-95219720D01*
X44915786Y-95161952D01*
X44965016Y-95218125D01*
G36*
X263081069Y-98233986D02*
G01*
X263392395Y-98238924D01*
X264306457Y-98258611D01*
X263396437Y-99839355D01*
X262486416Y-101420098D01*
X262323625Y-101145770D01*
X262239397Y-101002173D01*
X262098043Y-100759335D01*
X261912911Y-100440265D01*
X261697347Y-100067974D01*
X261464699Y-99665474D01*
X261406703Y-99565027D01*
X260652572Y-98258611D01*
X261565453Y-98238924D01*
X262031444Y-98232507D01*
X262562104Y-98230861D01*
X263081069Y-98233986D01*
G37*
X263081069Y-98233986D02*
X263392395Y-98238924D01*
X264306457Y-98258611D01*
X263396437Y-99839355D01*
X262486416Y-101420098D01*
X262323625Y-101145770D01*
X262239397Y-101002173D01*
X262098043Y-100759335D01*
X261912911Y-100440265D01*
X261697347Y-100067974D01*
X261464699Y-99665474D01*
X261406703Y-99565027D01*
X260652572Y-98258611D01*
X261565453Y-98238924D01*
X262031444Y-98232507D01*
X262562104Y-98230861D01*
X263081069Y-98233986D01*
G36*
X273397452Y-95179097D02*
G01*
X273504022Y-95349068D01*
X273667290Y-95618512D01*
X273880475Y-95975977D01*
X274136793Y-96410013D01*
X274429464Y-96909170D01*
X274751704Y-97461996D01*
X275096730Y-98057041D01*
X275206666Y-98247267D01*
X277013214Y-101375646D01*
X276113412Y-102938152D01*
X275868345Y-103361324D01*
X275645783Y-103741077D01*
X275455474Y-104061150D01*
X275307165Y-104305279D01*
X275210602Y-104457204D01*
X275176305Y-104501718D01*
X275132222Y-104443552D01*
X275027913Y-104279427D01*
X274873324Y-104025814D01*
X274678398Y-103699182D01*
X274453079Y-103316000D01*
X274263449Y-102989872D01*
X274021233Y-102575746D01*
X273800817Y-102207278D01*
X273612232Y-101900562D01*
X273465509Y-101671691D01*
X273370681Y-101536756D01*
X273339138Y-101507103D01*
X273291269Y-101574534D01*
X273184295Y-101746636D01*
X273028937Y-102005458D01*
X272835917Y-102333047D01*
X272615958Y-102711450D01*
X272509315Y-102896536D01*
X272276539Y-103299982D01*
X272062264Y-103668246D01*
X271878158Y-103981527D01*
X271735884Y-104220022D01*
X271647110Y-104363931D01*
X271628831Y-104391070D01*
X271574586Y-104449492D01*
X271520517Y-104447838D01*
X271447461Y-104368520D01*
X271336254Y-104193947D01*
X271244489Y-104038292D01*
X270859877Y-103377547D01*
X270525987Y-102799852D01*
X270246504Y-102311726D01*
X270025114Y-101919687D01*
X269865503Y-101630252D01*
X269771356Y-101449942D01*
X269745556Y-101387321D01*
X269813008Y-101371170D01*
X270002954Y-101356468D01*
X270296780Y-101343854D01*
X270675872Y-101333966D01*
X271121614Y-101327444D01*
X271562361Y-101324983D01*
X273379167Y-101322189D01*
X274234575Y-99825678D01*
X275089984Y-98329167D01*
X273334992Y-98310316D01*
X272739007Y-98301696D01*
X272275829Y-98289812D01*
X271937183Y-98274198D01*
X271714793Y-98254386D01*
X271600383Y-98229908D01*
X271580000Y-98211237D01*
X271613516Y-98129158D01*
X271706356Y-97948018D01*
X271846957Y-97687964D01*
X272023754Y-97369138D01*
X272225185Y-97011687D01*
X272439687Y-96635756D01*
X272655695Y-96261488D01*
X272861647Y-95909030D01*
X273045980Y-95598526D01*
X273197129Y-95350121D01*
X273303533Y-95183960D01*
X273353626Y-95120188D01*
X273354365Y-95120049D01*
X273397452Y-95179097D01*
G37*
X273397452Y-95179097D02*
X273504022Y-95349068D01*
X273667290Y-95618512D01*
X273880475Y-95975977D01*
X274136793Y-96410013D01*
X274429464Y-96909170D01*
X274751704Y-97461996D01*
X275096730Y-98057041D01*
X275206666Y-98247267D01*
X277013214Y-101375646D01*
X276113412Y-102938152D01*
X275868345Y-103361324D01*
X275645783Y-103741077D01*
X275455474Y-104061150D01*
X275307165Y-104305279D01*
X275210602Y-104457204D01*
X275176305Y-104501718D01*
X275132222Y-104443552D01*
X275027913Y-104279427D01*
X274873324Y-104025814D01*
X274678398Y-103699182D01*
X274453079Y-103316000D01*
X274263449Y-102989872D01*
X274021233Y-102575746D01*
X273800817Y-102207278D01*
X273612232Y-101900562D01*
X273465509Y-101671691D01*
X273370681Y-101536756D01*
X273339138Y-101507103D01*
X273291269Y-101574534D01*
X273184295Y-101746636D01*
X273028937Y-102005458D01*
X272835917Y-102333047D01*
X272615958Y-102711450D01*
X272509315Y-102896536D01*
X272276539Y-103299982D01*
X272062264Y-103668246D01*
X271878158Y-103981527D01*
X271735884Y-104220022D01*
X271647110Y-104363931D01*
X271628831Y-104391070D01*
X271574586Y-104449492D01*
X271520517Y-104447838D01*
X271447461Y-104368520D01*
X271336254Y-104193947D01*
X271244489Y-104038292D01*
X270859877Y-103377547D01*
X270525987Y-102799852D01*
X270246504Y-102311726D01*
X270025114Y-101919687D01*
X269865503Y-101630252D01*
X269771356Y-101449942D01*
X269745556Y-101387321D01*
X269813008Y-101371170D01*
X270002954Y-101356468D01*
X270296780Y-101343854D01*
X270675872Y-101333966D01*
X271121614Y-101327444D01*
X271562361Y-101324983D01*
X273379167Y-101322189D01*
X274234575Y-99825678D01*
X275089984Y-98329167D01*
X273334992Y-98310316D01*
X272739007Y-98301696D01*
X272275829Y-98289812D01*
X271937183Y-98274198D01*
X271714793Y-98254386D01*
X271600383Y-98229908D01*
X271580000Y-98211237D01*
X271613516Y-98129158D01*
X271706356Y-97948018D01*
X271846957Y-97687964D01*
X272023754Y-97369138D01*
X272225185Y-97011687D01*
X272439687Y-96635756D01*
X272655695Y-96261488D01*
X272861647Y-95909030D01*
X273045980Y-95598526D01*
X273197129Y-95350121D01*
X273303533Y-95183960D01*
X273353626Y-95120188D01*
X273354365Y-95120049D01*
X273397452Y-95179097D01*
G36*
X135621723Y-101483259D02*
G01*
X135728026Y-101648558D01*
X135880355Y-101896387D01*
X136066954Y-102206613D01*
X136276071Y-102559108D01*
X136495951Y-102933739D01*
X136714840Y-103310377D01*
X136920983Y-103668890D01*
X137102628Y-103989148D01*
X137248020Y-104251020D01*
X137345404Y-104434376D01*
X137383027Y-104519085D01*
X137383129Y-104520417D01*
X137315745Y-104534725D01*
X137125929Y-104547566D01*
X136832355Y-104558392D01*
X136453701Y-104566655D01*
X136008642Y-104571807D01*
X135578993Y-104573333D01*
X135021798Y-104572413D01*
X134590623Y-104569065D01*
X134270384Y-104562403D01*
X134045999Y-104551544D01*
X133902385Y-104535604D01*
X133824459Y-104513699D01*
X133797137Y-104484944D01*
X133797466Y-104468911D01*
X133840982Y-104366205D01*
X133942377Y-104169298D01*
X134089992Y-103898204D01*
X134272167Y-103572938D01*
X134477243Y-103213515D01*
X134693562Y-102839950D01*
X134909463Y-102472257D01*
X135113287Y-102130452D01*
X135293376Y-101834548D01*
X135438070Y-101604562D01*
X135535709Y-101460506D01*
X135573199Y-101420620D01*
X135621723Y-101483259D01*
G37*
X135621723Y-101483259D02*
X135728026Y-101648558D01*
X135880355Y-101896387D01*
X136066954Y-102206613D01*
X136276071Y-102559108D01*
X136495951Y-102933739D01*
X136714840Y-103310377D01*
X136920983Y-103668890D01*
X137102628Y-103989148D01*
X137248020Y-104251020D01*
X137345404Y-104434376D01*
X137383027Y-104519085D01*
X137383129Y-104520417D01*
X137315745Y-104534725D01*
X137125929Y-104547566D01*
X136832355Y-104558392D01*
X136453701Y-104566655D01*
X136008642Y-104571807D01*
X135578993Y-104573333D01*
X135021798Y-104572413D01*
X134590623Y-104569065D01*
X134270384Y-104562403D01*
X134045999Y-104551544D01*
X133902385Y-104535604D01*
X133824459Y-104513699D01*
X133797137Y-104484944D01*
X133797466Y-104468911D01*
X133840982Y-104366205D01*
X133942377Y-104169298D01*
X134089992Y-103898204D01*
X134272167Y-103572938D01*
X134477243Y-103213515D01*
X134693562Y-102839950D01*
X134909463Y-102472257D01*
X135113287Y-102130452D01*
X135293376Y-101834548D01*
X135438070Y-101604562D01*
X135535709Y-101460506D01*
X135573199Y-101420620D01*
X135621723Y-101483259D01*
G36*
X102988406Y-101458463D02*
G01*
X103092551Y-101620572D01*
X103241942Y-101865847D01*
X103425024Y-102174148D01*
X103630244Y-102525332D01*
X103846046Y-102899258D01*
X104060875Y-103275785D01*
X104263178Y-103634770D01*
X104441399Y-103956073D01*
X104583984Y-104219551D01*
X104679379Y-104405064D01*
X104716028Y-104492469D01*
X104716111Y-104493864D01*
X104668094Y-104520517D01*
X104518491Y-104541307D01*
X104258977Y-104556602D01*
X103881229Y-104566770D01*
X103376920Y-104572179D01*
X102916945Y-104573333D01*
X102429782Y-104571590D01*
X101992683Y-104566682D01*
X101624353Y-104559092D01*
X101343496Y-104549306D01*
X101168819Y-104537806D01*
X101117778Y-104526818D01*
X101151618Y-104449968D01*
X101245427Y-104273621D01*
X101387639Y-104017616D01*
X101566688Y-103701789D01*
X101771007Y-103345978D01*
X101989031Y-102970021D01*
X102209193Y-102593755D01*
X102419926Y-102237017D01*
X102609665Y-101919646D01*
X102766844Y-101661477D01*
X102879895Y-101482350D01*
X102937254Y-101402101D01*
X102941062Y-101399663D01*
X102988406Y-101458463D01*
G37*
X102988406Y-101458463D02*
X103092551Y-101620572D01*
X103241942Y-101865847D01*
X103425024Y-102174148D01*
X103630244Y-102525332D01*
X103846046Y-102899258D01*
X104060875Y-103275785D01*
X104263178Y-103634770D01*
X104441399Y-103956073D01*
X104583984Y-104219551D01*
X104679379Y-104405064D01*
X104716028Y-104492469D01*
X104716111Y-104493864D01*
X104668094Y-104520517D01*
X104518491Y-104541307D01*
X104258977Y-104556602D01*
X103881229Y-104566770D01*
X103376920Y-104572179D01*
X102916945Y-104573333D01*
X102429782Y-104571590D01*
X101992683Y-104566682D01*
X101624353Y-104559092D01*
X101343496Y-104549306D01*
X101168819Y-104537806D01*
X101117778Y-104526818D01*
X101151618Y-104449968D01*
X101245427Y-104273621D01*
X101387639Y-104017616D01*
X101566688Y-103701789D01*
X101771007Y-103345978D01*
X101989031Y-102970021D01*
X102209193Y-102593755D01*
X102419926Y-102237017D01*
X102609665Y-101919646D01*
X102766844Y-101661477D01*
X102879895Y-101482350D01*
X102937254Y-101402101D01*
X102941062Y-101399663D01*
X102988406Y-101458463D01*
G36*
X70341228Y-101457316D02*
G01*
X70443774Y-101617614D01*
X70592800Y-101860600D01*
X70776616Y-102166316D01*
X70983528Y-102514805D01*
X71201845Y-102886110D01*
X71419874Y-103260275D01*
X71625923Y-103617341D01*
X71808300Y-103937352D01*
X71955313Y-104200350D01*
X72055270Y-104386379D01*
X72093437Y-104466215D01*
X72092180Y-104499154D01*
X72049986Y-104524673D01*
X71951763Y-104543688D01*
X71782417Y-104557115D01*
X71526855Y-104565869D01*
X71169983Y-104570866D01*
X70696710Y-104573022D01*
X70327826Y-104573333D01*
X69723078Y-104571223D01*
X69251060Y-104564648D01*
X68903455Y-104553243D01*
X68671941Y-104536642D01*
X68548199Y-104514478D01*
X68521111Y-104493864D01*
X68554628Y-104411556D01*
X68647472Y-104230198D01*
X68788086Y-103969932D01*
X68964910Y-103650897D01*
X69166386Y-103293234D01*
X69380955Y-102917085D01*
X69597060Y-102542588D01*
X69803141Y-102189885D01*
X69987641Y-101879116D01*
X70138999Y-101630422D01*
X70245659Y-101463944D01*
X70296061Y-101399820D01*
X70296855Y-101399663D01*
X70341228Y-101457316D01*
G37*
X70341228Y-101457316D02*
X70443774Y-101617614D01*
X70592800Y-101860600D01*
X70776616Y-102166316D01*
X70983528Y-102514805D01*
X71201845Y-102886110D01*
X71419874Y-103260275D01*
X71625923Y-103617341D01*
X71808300Y-103937352D01*
X71955313Y-104200350D01*
X72055270Y-104386379D01*
X72093437Y-104466215D01*
X72092180Y-104499154D01*
X72049986Y-104524673D01*
X71951763Y-104543688D01*
X71782417Y-104557115D01*
X71526855Y-104565869D01*
X71169983Y-104570866D01*
X70696710Y-104573022D01*
X70327826Y-104573333D01*
X69723078Y-104571223D01*
X69251060Y-104564648D01*
X68903455Y-104553243D01*
X68671941Y-104536642D01*
X68548199Y-104514478D01*
X68521111Y-104493864D01*
X68554628Y-104411556D01*
X68647472Y-104230198D01*
X68788086Y-103969932D01*
X68964910Y-103650897D01*
X69166386Y-103293234D01*
X69380955Y-102917085D01*
X69597060Y-102542588D01*
X69803141Y-102189885D01*
X69987641Y-101879116D01*
X70138999Y-101630422D01*
X70245659Y-101463944D01*
X70296061Y-101399820D01*
X70296855Y-101399663D01*
X70341228Y-101457316D01*
G36*
X295597440Y-104504521D02*
G01*
X296034539Y-104509429D01*
X296402869Y-104517018D01*
X296683726Y-104526805D01*
X296858403Y-104538305D01*
X296909445Y-104549293D01*
X296876089Y-104618914D01*
X296783629Y-104789506D01*
X296643476Y-105041181D01*
X296467039Y-105354054D01*
X296265728Y-105708238D01*
X296050953Y-106083846D01*
X295834125Y-106460992D01*
X295626654Y-106819790D01*
X295439950Y-107140353D01*
X295285424Y-107402794D01*
X295174484Y-107587227D01*
X295118542Y-107673766D01*
X295114433Y-107677778D01*
X295075817Y-107619278D01*
X294976599Y-107454634D01*
X294826347Y-107200132D01*
X294634626Y-106872057D01*
X294411004Y-106486694D01*
X294203689Y-106127473D01*
X293960877Y-105704329D01*
X293743191Y-105322273D01*
X293560047Y-104998051D01*
X293420862Y-104748412D01*
X293335053Y-104590105D01*
X293311111Y-104539973D01*
X293378548Y-104529902D01*
X293568390Y-104520865D01*
X293861929Y-104513250D01*
X294240461Y-104507444D01*
X294685280Y-104503833D01*
X295110278Y-104502778D01*
X295597440Y-104504521D01*
G37*
X295597440Y-104504521D02*
X296034539Y-104509429D01*
X296402869Y-104517018D01*
X296683726Y-104526805D01*
X296858403Y-104538305D01*
X296909445Y-104549293D01*
X296876089Y-104618914D01*
X296783629Y-104789506D01*
X296643476Y-105041181D01*
X296467039Y-105354054D01*
X296265728Y-105708238D01*
X296050953Y-106083846D01*
X295834125Y-106460992D01*
X295626654Y-106819790D01*
X295439950Y-107140353D01*
X295285424Y-107402794D01*
X295174484Y-107587227D01*
X295118542Y-107673766D01*
X295114433Y-107677778D01*
X295075817Y-107619278D01*
X294976599Y-107454634D01*
X294826347Y-107200132D01*
X294634626Y-106872057D01*
X294411004Y-106486694D01*
X294203689Y-106127473D01*
X293960877Y-105704329D01*
X293743191Y-105322273D01*
X293560047Y-104998051D01*
X293420862Y-104748412D01*
X293335053Y-104590105D01*
X293311111Y-104539973D01*
X293378548Y-104529902D01*
X293568390Y-104520865D01*
X293861929Y-104513250D01*
X294240461Y-104507444D01*
X294685280Y-104503833D01*
X295110278Y-104502778D01*
X295597440Y-104504521D01*
G36*
X208680574Y-104513370D02*
G01*
X208998399Y-104518369D01*
X209916799Y-104538055D01*
X209062717Y-106019722D01*
X208821957Y-106437498D01*
X208602940Y-106817743D01*
X208416085Y-107142353D01*
X208271811Y-107393222D01*
X208180537Y-107552244D01*
X208154081Y-107598644D01*
X208096971Y-107660588D01*
X208037321Y-107598644D01*
X207985742Y-107512292D01*
X207874172Y-107321816D01*
X207713141Y-107045318D01*
X207513177Y-106700901D01*
X207284812Y-106306665D01*
X207118879Y-106019722D01*
X206262643Y-104538055D01*
X207171322Y-104518369D01*
X207634078Y-104511966D01*
X208162338Y-104510300D01*
X208680574Y-104513370D01*
G37*
X208680574Y-104513370D02*
X208998399Y-104518369D01*
X209916799Y-104538055D01*
X209062717Y-106019722D01*
X208821957Y-106437498D01*
X208602940Y-106817743D01*
X208416085Y-107142353D01*
X208271811Y-107393222D01*
X208180537Y-107552244D01*
X208154081Y-107598644D01*
X208096971Y-107660588D01*
X208037321Y-107598644D01*
X207985742Y-107512292D01*
X207874172Y-107321816D01*
X207713141Y-107045318D01*
X207513177Y-106700901D01*
X207284812Y-106306665D01*
X207118879Y-106019722D01*
X206262643Y-104538055D01*
X207171322Y-104518369D01*
X207634078Y-104511966D01*
X208162338Y-104510300D01*
X208680574Y-104513370D01*
G36*
X154175944Y-104503847D02*
G01*
X154617829Y-104506858D01*
X154991282Y-104511518D01*
X155277764Y-104517532D01*
X155458737Y-104524607D01*
X155516111Y-104531805D01*
X155482631Y-104596681D01*
X155389831Y-104763681D01*
X155249169Y-105012851D01*
X155072103Y-105324238D01*
X154870092Y-105677890D01*
X154654595Y-106053853D01*
X154437069Y-106432174D01*
X154228974Y-106792900D01*
X154041767Y-107116077D01*
X153886908Y-107381754D01*
X153775855Y-107569977D01*
X153720065Y-107660792D01*
X153716465Y-107665598D01*
X153673586Y-107620405D01*
X153579432Y-107479872D01*
X153452135Y-107271519D01*
X153414307Y-107206986D01*
X153284069Y-106982422D01*
X153101879Y-106667633D01*
X152886254Y-106294646D01*
X152655715Y-105895493D01*
X152493281Y-105614028D01*
X151852214Y-104502778D01*
X153684163Y-104502778D01*
X154175944Y-104503847D01*
G37*
X154175944Y-104503847D02*
X154617829Y-104506858D01*
X154991282Y-104511518D01*
X155277764Y-104517532D01*
X155458737Y-104524607D01*
X155516111Y-104531805D01*
X155482631Y-104596681D01*
X155389831Y-104763681D01*
X155249169Y-105012851D01*
X155072103Y-105324238D01*
X154870092Y-105677890D01*
X154654595Y-106053853D01*
X154437069Y-106432174D01*
X154228974Y-106792900D01*
X154041767Y-107116077D01*
X153886908Y-107381754D01*
X153775855Y-107569977D01*
X153720065Y-107660792D01*
X153716465Y-107665598D01*
X153673586Y-107620405D01*
X153579432Y-107479872D01*
X153452135Y-107271519D01*
X153414307Y-107206986D01*
X153284069Y-106982422D01*
X153101879Y-106667633D01*
X152886254Y-106294646D01*
X152655715Y-105895493D01*
X152493281Y-105614028D01*
X151852214Y-104502778D01*
X153684163Y-104502778D01*
X154175944Y-104503847D01*
G36*
X22262914Y-106047609D02*
G01*
X22505719Y-106470222D01*
X22723333Y-106852095D01*
X22906304Y-107176387D01*
X23045179Y-107426258D01*
X23130506Y-107584865D01*
X23153889Y-107635109D01*
X23086437Y-107646598D01*
X22896490Y-107656893D01*
X22602663Y-107665560D01*
X22223571Y-107672165D01*
X21777828Y-107676274D01*
X21337083Y-107677480D01*
X19520278Y-107677182D01*
X18638333Y-106149446D01*
X18395440Y-105727976D01*
X18176268Y-105346290D01*
X17990630Y-105021590D01*
X17848341Y-104771079D01*
X17759215Y-104611959D01*
X17732870Y-104562244D01*
X17793841Y-104546300D01*
X17977694Y-104531970D01*
X18266206Y-104519855D01*
X18641153Y-104510553D01*
X19084311Y-104504665D01*
X19540646Y-104502778D01*
X21371940Y-104502778D01*
X22262914Y-106047609D01*
G37*
X22262914Y-106047609D02*
X22505719Y-106470222D01*
X22723333Y-106852095D01*
X22906304Y-107176387D01*
X23045179Y-107426258D01*
X23130506Y-107584865D01*
X23153889Y-107635109D01*
X23086437Y-107646598D01*
X22896490Y-107656893D01*
X22602663Y-107665560D01*
X22223571Y-107672165D01*
X21777828Y-107676274D01*
X21337083Y-107677480D01*
X19520278Y-107677182D01*
X18638333Y-106149446D01*
X18395440Y-105727976D01*
X18176268Y-105346290D01*
X17990630Y-105021590D01*
X17848341Y-104771079D01*
X17759215Y-104611959D01*
X17732870Y-104562244D01*
X17793841Y-104546300D01*
X17977694Y-104531970D01*
X18266206Y-104519855D01*
X18641153Y-104510553D01*
X19084311Y-104504665D01*
X19540646Y-104502778D01*
X21371940Y-104502778D01*
X22262914Y-106047609D01*
G36*
X279299107Y-107608966D02*
G01*
X279736206Y-107613874D01*
X280104536Y-107621463D01*
X280385393Y-107631249D01*
X280560070Y-107642750D01*
X280611111Y-107653738D01*
X280577721Y-107723861D01*
X280485166Y-107894857D01*
X280344867Y-108146840D01*
X280168245Y-108459928D01*
X279966722Y-108814236D01*
X279751718Y-109189881D01*
X279534656Y-109566978D01*
X279326955Y-109925646D01*
X279140038Y-110245998D01*
X278985326Y-110508153D01*
X278874240Y-110692225D01*
X278818201Y-110778332D01*
X278814105Y-110782222D01*
X278759602Y-110735600D01*
X278724447Y-110694028D01*
X278656279Y-110591040D01*
X278535392Y-110392049D01*
X278373582Y-110117812D01*
X278182645Y-109789084D01*
X277974376Y-109426624D01*
X277760570Y-109051188D01*
X277553023Y-108683532D01*
X277363530Y-108344413D01*
X277203887Y-108054588D01*
X277085888Y-107834815D01*
X277021331Y-107705849D01*
X277012778Y-107681953D01*
X277077098Y-107655739D01*
X277271748Y-107635276D01*
X277599260Y-107620460D01*
X278062167Y-107611186D01*
X278663002Y-107607347D01*
X278811945Y-107607222D01*
X279299107Y-107608966D01*
G37*
X279299107Y-107608966D02*
X279736206Y-107613874D01*
X280104536Y-107621463D01*
X280385393Y-107631249D01*
X280560070Y-107642750D01*
X280611111Y-107653738D01*
X280577721Y-107723861D01*
X280485166Y-107894857D01*
X280344867Y-108146840D01*
X280168245Y-108459928D01*
X279966722Y-108814236D01*
X279751718Y-109189881D01*
X279534656Y-109566978D01*
X279326955Y-109925646D01*
X279140038Y-110245998D01*
X278985326Y-110508153D01*
X278874240Y-110692225D01*
X278818201Y-110778332D01*
X278814105Y-110782222D01*
X278759602Y-110735600D01*
X278724447Y-110694028D01*
X278656279Y-110591040D01*
X278535392Y-110392049D01*
X278373582Y-110117812D01*
X278182645Y-109789084D01*
X277974376Y-109426624D01*
X277760570Y-109051188D01*
X277553023Y-108683532D01*
X277363530Y-108344413D01*
X277203887Y-108054588D01*
X277085888Y-107834815D01*
X277021331Y-107705849D01*
X277012778Y-107681953D01*
X277077098Y-107655739D01*
X277271748Y-107635276D01*
X277599260Y-107620460D01*
X278062167Y-107611186D01*
X278663002Y-107607347D01*
X278811945Y-107607222D01*
X279299107Y-107608966D01*
G36*
X183285392Y-104505338D02*
G01*
X183765590Y-104512811D01*
X184132615Y-104524888D01*
X184378280Y-104541259D01*
X184494400Y-104561614D01*
X184502685Y-104570978D01*
X184458967Y-104657668D01*
X184353582Y-104849376D01*
X184194671Y-105132059D01*
X183990373Y-105491670D01*
X183748826Y-105914166D01*
X183478171Y-106385501D01*
X183186547Y-106891630D01*
X182882093Y-107418508D01*
X182572949Y-107952090D01*
X182267254Y-108478331D01*
X181973148Y-108983185D01*
X181698770Y-109452609D01*
X181452259Y-109872556D01*
X181241755Y-110228981D01*
X181075397Y-110507841D01*
X180961325Y-110695089D01*
X180907677Y-110776681D01*
X180904951Y-110779083D01*
X180858588Y-110721369D01*
X180752251Y-110557288D01*
X180595809Y-110303085D01*
X180399134Y-109975008D01*
X180172097Y-109589301D01*
X179961186Y-109225793D01*
X179670966Y-108718071D01*
X179448733Y-108318499D01*
X179288514Y-108015049D01*
X179184337Y-107795693D01*
X179130229Y-107648405D01*
X179120217Y-107561157D01*
X179125679Y-107543272D01*
X179177458Y-107448369D01*
X179289389Y-107250128D01*
X179450780Y-106967247D01*
X179650938Y-106618429D01*
X179879175Y-106222374D01*
X180030856Y-105959979D01*
X180874212Y-104502778D01*
X182700208Y-104502778D01*
X183285392Y-104505338D01*
G37*
X183285392Y-104505338D02*
X183765590Y-104512811D01*
X184132615Y-104524888D01*
X184378280Y-104541259D01*
X184494400Y-104561614D01*
X184502685Y-104570978D01*
X184458967Y-104657668D01*
X184353582Y-104849376D01*
X184194671Y-105132059D01*
X183990373Y-105491670D01*
X183748826Y-105914166D01*
X183478171Y-106385501D01*
X183186547Y-106891630D01*
X182882093Y-107418508D01*
X182572949Y-107952090D01*
X182267254Y-108478331D01*
X181973148Y-108983185D01*
X181698770Y-109452609D01*
X181452259Y-109872556D01*
X181241755Y-110228981D01*
X181075397Y-110507841D01*
X180961325Y-110695089D01*
X180907677Y-110776681D01*
X180904951Y-110779083D01*
X180858588Y-110721369D01*
X180752251Y-110557288D01*
X180595809Y-110303085D01*
X180399134Y-109975008D01*
X180172097Y-109589301D01*
X179961186Y-109225793D01*
X179670966Y-108718071D01*
X179448733Y-108318499D01*
X179288514Y-108015049D01*
X179184337Y-107795693D01*
X179130229Y-107648405D01*
X179120217Y-107561157D01*
X179125679Y-107543272D01*
X179177458Y-107448369D01*
X179289389Y-107250128D01*
X179450780Y-106967247D01*
X179650938Y-106618429D01*
X179879175Y-106222374D01*
X180030856Y-105959979D01*
X180874212Y-104502778D01*
X182700208Y-104502778D01*
X183285392Y-104505338D01*
G36*
X163310424Y-107608142D02*
G01*
X163741599Y-107611491D01*
X164061838Y-107618152D01*
X164286223Y-107629011D01*
X164429837Y-107644951D01*
X164507764Y-107666856D01*
X164535085Y-107695611D01*
X164534757Y-107711644D01*
X164493663Y-107804694D01*
X164394663Y-107994630D01*
X164249356Y-108261255D01*
X164069341Y-108584373D01*
X163866216Y-108943787D01*
X163651580Y-109319302D01*
X163437033Y-109690719D01*
X163234172Y-110037844D01*
X163054598Y-110340480D01*
X162909909Y-110578429D01*
X162811704Y-110731496D01*
X162772596Y-110779992D01*
X162726319Y-110722029D01*
X162620144Y-110557764D01*
X162463981Y-110303531D01*
X162267740Y-109975664D01*
X162041331Y-109590496D01*
X161837735Y-109239223D01*
X161595314Y-108816697D01*
X161378075Y-108434816D01*
X161195471Y-108110463D01*
X161056955Y-107860523D01*
X160971983Y-107701880D01*
X160948889Y-107651723D01*
X161016330Y-107639690D01*
X161206202Y-107628891D01*
X161499825Y-107619787D01*
X161878521Y-107612838D01*
X162323612Y-107608505D01*
X162753229Y-107607222D01*
X163310424Y-107608142D01*
G37*
X163310424Y-107608142D02*
X163741599Y-107611491D01*
X164061838Y-107618152D01*
X164286223Y-107629011D01*
X164429837Y-107644951D01*
X164507764Y-107666856D01*
X164535085Y-107695611D01*
X164534757Y-107711644D01*
X164493663Y-107804694D01*
X164394663Y-107994630D01*
X164249356Y-108261255D01*
X164069341Y-108584373D01*
X163866216Y-108943787D01*
X163651580Y-109319302D01*
X163437033Y-109690719D01*
X163234172Y-110037844D01*
X163054598Y-110340480D01*
X162909909Y-110578429D01*
X162811704Y-110731496D01*
X162772596Y-110779992D01*
X162726319Y-110722029D01*
X162620144Y-110557764D01*
X162463981Y-110303531D01*
X162267740Y-109975664D01*
X162041331Y-109590496D01*
X161837735Y-109239223D01*
X161595314Y-108816697D01*
X161378075Y-108434816D01*
X161195471Y-108110463D01*
X161056955Y-107860523D01*
X160971983Y-107701880D01*
X160948889Y-107651723D01*
X161016330Y-107639690D01*
X161206202Y-107628891D01*
X161499825Y-107619787D01*
X161878521Y-107612838D01*
X162323612Y-107608505D01*
X162753229Y-107607222D01*
X163310424Y-107608142D01*
G36*
X128367323Y-101500029D02*
G01*
X128472589Y-101667937D01*
X128632033Y-101930049D01*
X128837452Y-102272373D01*
X129080640Y-102680916D01*
X129353392Y-103141687D01*
X129647505Y-103640695D01*
X129954772Y-104163947D01*
X130266990Y-104697451D01*
X130575953Y-105227216D01*
X130873457Y-105739250D01*
X131151298Y-106219561D01*
X131401270Y-106654157D01*
X131615168Y-107029047D01*
X131784789Y-107330239D01*
X131884936Y-107512139D01*
X131903629Y-107570697D01*
X131897911Y-107650920D01*
X131860610Y-107767831D01*
X131784551Y-107936452D01*
X131662559Y-108171806D01*
X131487461Y-108488914D01*
X131252080Y-108902800D01*
X131067817Y-109223111D01*
X130822440Y-109645629D01*
X130599157Y-110024518D01*
X130407803Y-110343539D01*
X130258214Y-110586449D01*
X130160229Y-110737009D01*
X130124720Y-110780243D01*
X130078756Y-110721091D01*
X129973681Y-110556232D01*
X129819814Y-110302808D01*
X129627475Y-109977962D01*
X129406981Y-109598836D01*
X129269445Y-109359400D01*
X129034252Y-108949316D01*
X128819087Y-108576406D01*
X128634909Y-108259485D01*
X128492678Y-108017366D01*
X128403354Y-107868861D01*
X128380919Y-107834140D01*
X128344081Y-107821890D01*
X128283422Y-107868377D01*
X128191378Y-107984877D01*
X128060382Y-108182664D01*
X127882870Y-108473011D01*
X127651277Y-108867194D01*
X127428419Y-109253653D01*
X127186848Y-109671907D01*
X126967368Y-110046497D01*
X126779898Y-110360927D01*
X126634361Y-110598705D01*
X126540677Y-110743337D01*
X126509810Y-110780892D01*
X126464332Y-110722669D01*
X126358901Y-110558124D01*
X126203370Y-110303570D01*
X126007590Y-109975321D01*
X125781415Y-109589690D01*
X125574949Y-109233007D01*
X125332292Y-108809932D01*
X125114762Y-108427885D01*
X124931777Y-108103635D01*
X124792757Y-107853954D01*
X124707121Y-107695614D01*
X124683333Y-107645507D01*
X124750788Y-107635195D01*
X124940749Y-107625935D01*
X125234614Y-107618117D01*
X125613781Y-107612134D01*
X126059647Y-107608377D01*
X126502467Y-107607222D01*
X128321601Y-107607222D01*
X129184195Y-106107917D01*
X130046790Y-104608611D01*
X128282284Y-104589761D01*
X127766312Y-104581734D01*
X127318826Y-104569797D01*
X126955540Y-104554701D01*
X126692167Y-104537194D01*
X126544421Y-104518025D01*
X126517778Y-104505600D01*
X126551919Y-104420921D01*
X126646487Y-104238568D01*
X126789702Y-103978529D01*
X126969784Y-103660792D01*
X127174951Y-103305345D01*
X127393422Y-102932175D01*
X127613417Y-102561272D01*
X127823155Y-102212622D01*
X128010854Y-101906214D01*
X128164736Y-101662035D01*
X128273017Y-101500074D01*
X128323919Y-101440319D01*
X128324441Y-101440315D01*
X128367323Y-101500029D01*
G37*
X128367323Y-101500029D02*
X128472589Y-101667937D01*
X128632033Y-101930049D01*
X128837452Y-102272373D01*
X129080640Y-102680916D01*
X129353392Y-103141687D01*
X129647505Y-103640695D01*
X129954772Y-104163947D01*
X130266990Y-104697451D01*
X130575953Y-105227216D01*
X130873457Y-105739250D01*
X131151298Y-106219561D01*
X131401270Y-106654157D01*
X131615168Y-107029047D01*
X131784789Y-107330239D01*
X131884936Y-107512139D01*
X131903629Y-107570697D01*
X131897911Y-107650920D01*
X131860610Y-107767831D01*
X131784551Y-107936452D01*
X131662559Y-108171806D01*
X131487461Y-108488914D01*
X131252080Y-108902800D01*
X131067817Y-109223111D01*
X130822440Y-109645629D01*
X130599157Y-110024518D01*
X130407803Y-110343539D01*
X130258214Y-110586449D01*
X130160229Y-110737009D01*
X130124720Y-110780243D01*
X130078756Y-110721091D01*
X129973681Y-110556232D01*
X129819814Y-110302808D01*
X129627475Y-109977962D01*
X129406981Y-109598836D01*
X129269445Y-109359400D01*
X129034252Y-108949316D01*
X128819087Y-108576406D01*
X128634909Y-108259485D01*
X128492678Y-108017366D01*
X128403354Y-107868861D01*
X128380919Y-107834140D01*
X128344081Y-107821890D01*
X128283422Y-107868377D01*
X128191378Y-107984877D01*
X128060382Y-108182664D01*
X127882870Y-108473011D01*
X127651277Y-108867194D01*
X127428419Y-109253653D01*
X127186848Y-109671907D01*
X126967368Y-110046497D01*
X126779898Y-110360927D01*
X126634361Y-110598705D01*
X126540677Y-110743337D01*
X126509810Y-110780892D01*
X126464332Y-110722669D01*
X126358901Y-110558124D01*
X126203370Y-110303570D01*
X126007590Y-109975321D01*
X125781415Y-109589690D01*
X125574949Y-109233007D01*
X125332292Y-108809932D01*
X125114762Y-108427885D01*
X124931777Y-108103635D01*
X124792757Y-107853954D01*
X124707121Y-107695614D01*
X124683333Y-107645507D01*
X124750788Y-107635195D01*
X124940749Y-107625935D01*
X125234614Y-107618117D01*
X125613781Y-107612134D01*
X126059647Y-107608377D01*
X126502467Y-107607222D01*
X128321601Y-107607222D01*
X129184195Y-106107917D01*
X130046790Y-104608611D01*
X128282284Y-104589761D01*
X127766312Y-104581734D01*
X127318826Y-104569797D01*
X126955540Y-104554701D01*
X126692167Y-104537194D01*
X126544421Y-104518025D01*
X126517778Y-104505600D01*
X126551919Y-104420921D01*
X126646487Y-104238568D01*
X126789702Y-103978529D01*
X126969784Y-103660792D01*
X127174951Y-103305345D01*
X127393422Y-102932175D01*
X127613417Y-102561272D01*
X127823155Y-102212622D01*
X128010854Y-101906214D01*
X128164736Y-101662035D01*
X128273017Y-101500074D01*
X128323919Y-101440319D01*
X128324441Y-101440315D01*
X128367323Y-101500029D01*
G36*
X76315853Y-107608046D02*
G01*
X76745089Y-107611128D01*
X77063407Y-107617384D01*
X77285900Y-107627730D01*
X77427660Y-107643081D01*
X77503781Y-107664353D01*
X77529356Y-107692462D01*
X77526215Y-107714340D01*
X77480355Y-107804621D01*
X77377497Y-107991707D01*
X77229194Y-108255577D01*
X77046998Y-108576209D01*
X76842464Y-108933582D01*
X76627145Y-109307675D01*
X76412593Y-109678466D01*
X76210362Y-110025933D01*
X76032005Y-110330056D01*
X75889076Y-110570813D01*
X75793127Y-110728182D01*
X75755911Y-110782222D01*
X75700839Y-110735513D01*
X75665791Y-110694028D01*
X75598310Y-110591747D01*
X75478030Y-110393349D01*
X75316728Y-110119574D01*
X75126183Y-109791161D01*
X74918174Y-109428850D01*
X74704480Y-109053382D01*
X74496880Y-108685497D01*
X74307151Y-108345934D01*
X74147072Y-108055433D01*
X74028423Y-107834735D01*
X73962982Y-107704580D01*
X73953889Y-107679685D01*
X74024054Y-107654404D01*
X74233185Y-107634439D01*
X74579233Y-107619873D01*
X75060148Y-107610789D01*
X75673883Y-107607267D01*
X75760604Y-107607222D01*
X76315853Y-107608046D01*
G37*
X76315853Y-107608046D02*
X76745089Y-107611128D01*
X77063407Y-107617384D01*
X77285900Y-107627730D01*
X77427660Y-107643081D01*
X77503781Y-107664353D01*
X77529356Y-107692462D01*
X77526215Y-107714340D01*
X77480355Y-107804621D01*
X77377497Y-107991707D01*
X77229194Y-108255577D01*
X77046998Y-108576209D01*
X76842464Y-108933582D01*
X76627145Y-109307675D01*
X76412593Y-109678466D01*
X76210362Y-110025933D01*
X76032005Y-110330056D01*
X75889076Y-110570813D01*
X75793127Y-110728182D01*
X75755911Y-110782222D01*
X75700839Y-110735513D01*
X75665791Y-110694028D01*
X75598310Y-110591747D01*
X75478030Y-110393349D01*
X75316728Y-110119574D01*
X75126183Y-109791161D01*
X74918174Y-109428850D01*
X74704480Y-109053382D01*
X74496880Y-108685497D01*
X74307151Y-108345934D01*
X74147072Y-108055433D01*
X74028423Y-107834735D01*
X73962982Y-107704580D01*
X73953889Y-107679685D01*
X74024054Y-107654404D01*
X74233185Y-107634439D01*
X74579233Y-107619873D01*
X75060148Y-107610789D01*
X75673883Y-107607267D01*
X75760604Y-107607222D01*
X76315853Y-107608046D01*
G36*
X54478914Y-107609411D02*
G01*
X54919947Y-107615579D01*
X55291612Y-107625128D01*
X55575758Y-107637460D01*
X55754230Y-107651976D01*
X55809352Y-107667278D01*
X55759828Y-107765094D01*
X55653082Y-107958262D01*
X55500694Y-108227002D01*
X55314244Y-108551529D01*
X55105312Y-108912062D01*
X54885477Y-109288818D01*
X54666321Y-109662015D01*
X54459424Y-110011869D01*
X54276364Y-110318600D01*
X54128723Y-110562423D01*
X54028081Y-110723557D01*
X53986017Y-110782219D01*
X53985958Y-110782222D01*
X53941316Y-110723673D01*
X53836670Y-110558990D01*
X53681921Y-110304613D01*
X53486971Y-109976986D01*
X53261722Y-109592553D01*
X53066807Y-109255926D01*
X52824445Y-108834449D01*
X52605775Y-108452672D01*
X52420608Y-108127846D01*
X52278752Y-107877218D01*
X52190018Y-107718038D01*
X52163982Y-107668426D01*
X52224990Y-107652079D01*
X52408953Y-107637378D01*
X52697717Y-107624933D01*
X53073129Y-107615353D01*
X53517036Y-107609248D01*
X53986667Y-107607222D01*
X54478914Y-107609411D01*
G37*
X54478914Y-107609411D02*
X54919947Y-107615579D01*
X55291612Y-107625128D01*
X55575758Y-107637460D01*
X55754230Y-107651976D01*
X55809352Y-107667278D01*
X55759828Y-107765094D01*
X55653082Y-107958262D01*
X55500694Y-108227002D01*
X55314244Y-108551529D01*
X55105312Y-108912062D01*
X54885477Y-109288818D01*
X54666321Y-109662015D01*
X54459424Y-110011869D01*
X54276364Y-110318600D01*
X54128723Y-110562423D01*
X54028081Y-110723557D01*
X53986017Y-110782219D01*
X53985958Y-110782222D01*
X53941316Y-110723673D01*
X53836670Y-110558990D01*
X53681921Y-110304613D01*
X53486971Y-109976986D01*
X53261722Y-109592553D01*
X53066807Y-109255926D01*
X52824445Y-108834449D01*
X52605775Y-108452672D01*
X52420608Y-108127846D01*
X52278752Y-107877218D01*
X52190018Y-107718038D01*
X52163982Y-107668426D01*
X52224990Y-107652079D01*
X52408953Y-107637378D01*
X52697717Y-107624933D01*
X53073129Y-107615353D01*
X53517036Y-107609248D01*
X53986667Y-107607222D01*
X54478914Y-107609411D01*
G36*
X29109107Y-107608944D02*
G01*
X29546206Y-107613793D01*
X29914536Y-107621290D01*
X30195393Y-107630958D01*
X30370070Y-107642319D01*
X30421111Y-107653174D01*
X30387248Y-107729322D01*
X30293370Y-107904969D01*
X30151047Y-108160310D01*
X29971848Y-108475539D01*
X29767342Y-108830852D01*
X29549098Y-109206442D01*
X29328685Y-109582505D01*
X29117672Y-109939235D01*
X28927628Y-110256827D01*
X28770122Y-110515475D01*
X28656723Y-110695374D01*
X28599000Y-110776720D01*
X28594952Y-110779425D01*
X28549306Y-110720031D01*
X28444007Y-110554534D01*
X28289055Y-110299555D01*
X28094448Y-109971715D01*
X27870182Y-109587636D01*
X27687083Y-109270138D01*
X27448090Y-108850511D01*
X27234437Y-108469511D01*
X27055723Y-108144737D01*
X26921547Y-107893789D01*
X26841509Y-107734266D01*
X26822778Y-107685435D01*
X26874381Y-107658943D01*
X27033968Y-107638271D01*
X27308706Y-107623106D01*
X27705763Y-107613139D01*
X28232304Y-107608057D01*
X28621945Y-107607222D01*
X29109107Y-107608944D01*
G37*
X29109107Y-107608944D02*
X29546206Y-107613793D01*
X29914536Y-107621290D01*
X30195393Y-107630958D01*
X30370070Y-107642319D01*
X30421111Y-107653174D01*
X30387248Y-107729322D01*
X30293370Y-107904969D01*
X30151047Y-108160310D01*
X29971848Y-108475539D01*
X29767342Y-108830852D01*
X29549098Y-109206442D01*
X29328685Y-109582505D01*
X29117672Y-109939235D01*
X28927628Y-110256827D01*
X28770122Y-110515475D01*
X28656723Y-110695374D01*
X28599000Y-110776720D01*
X28594952Y-110779425D01*
X28549306Y-110720031D01*
X28444007Y-110554534D01*
X28289055Y-110299555D01*
X28094448Y-109971715D01*
X27870182Y-109587636D01*
X27687083Y-109270138D01*
X27448090Y-108850511D01*
X27234437Y-108469511D01*
X27055723Y-108144737D01*
X26921547Y-107893789D01*
X26841509Y-107734266D01*
X26822778Y-107685435D01*
X26874381Y-107658943D01*
X27033968Y-107638271D01*
X27308706Y-107623106D01*
X27705763Y-107613139D01*
X28232304Y-107608057D01*
X28621945Y-107607222D01*
X29109107Y-107608944D01*
G36*
X269785929Y-107738071D02*
G01*
X269890681Y-107899962D01*
X270040169Y-108145042D01*
X270223036Y-108453388D01*
X270427924Y-108805078D01*
X270643475Y-109180189D01*
X270858333Y-109558799D01*
X271061140Y-109920985D01*
X271240539Y-110246825D01*
X271385171Y-110516397D01*
X271483680Y-110709779D01*
X271524708Y-110807047D01*
X271524457Y-110814247D01*
X271445343Y-110826468D01*
X271250082Y-110836259D01*
X270961437Y-110843667D01*
X270602173Y-110848738D01*
X270195052Y-110851519D01*
X269762839Y-110852056D01*
X269328297Y-110850397D01*
X268914190Y-110846589D01*
X268543282Y-110840677D01*
X268238336Y-110832709D01*
X268022116Y-110822732D01*
X267917386Y-110810792D01*
X267911111Y-110806825D01*
X267944977Y-110730834D01*
X268038859Y-110555263D01*
X268181190Y-110299929D01*
X268360397Y-109984645D01*
X268564912Y-109629227D01*
X268783165Y-109253491D01*
X269003584Y-108877252D01*
X269214601Y-108520324D01*
X269404645Y-108202523D01*
X269562147Y-107943664D01*
X269675535Y-107763562D01*
X269733241Y-107682033D01*
X269737270Y-107679290D01*
X269785929Y-107738071D01*
G37*
X269785929Y-107738071D02*
X269890681Y-107899962D01*
X270040169Y-108145042D01*
X270223036Y-108453388D01*
X270427924Y-108805078D01*
X270643475Y-109180189D01*
X270858333Y-109558799D01*
X271061140Y-109920985D01*
X271240539Y-110246825D01*
X271385171Y-110516397D01*
X271483680Y-110709779D01*
X271524708Y-110807047D01*
X271524457Y-110814247D01*
X271445343Y-110826468D01*
X271250082Y-110836259D01*
X270961437Y-110843667D01*
X270602173Y-110848738D01*
X270195052Y-110851519D01*
X269762839Y-110852056D01*
X269328297Y-110850397D01*
X268914190Y-110846589D01*
X268543282Y-110840677D01*
X268238336Y-110832709D01*
X268022116Y-110822732D01*
X267917386Y-110810792D01*
X267911111Y-110806825D01*
X267944977Y-110730834D01*
X268038859Y-110555263D01*
X268181190Y-110299929D01*
X268360397Y-109984645D01*
X268564912Y-109629227D01*
X268783165Y-109253491D01*
X269003584Y-108877252D01*
X269214601Y-108520324D01*
X269404645Y-108202523D01*
X269562147Y-107943664D01*
X269675535Y-107763562D01*
X269733241Y-107682033D01*
X269737270Y-107679290D01*
X269785929Y-107738071D01*
G36*
X226272665Y-101478676D02*
G01*
X226379124Y-101652004D01*
X226542415Y-101924865D01*
X226755907Y-102285789D01*
X227012971Y-102723305D01*
X227306980Y-103225943D01*
X227631305Y-103782232D01*
X227979317Y-104380702D01*
X228344386Y-105009882D01*
X228719885Y-105658301D01*
X229099184Y-106314489D01*
X229475656Y-106966976D01*
X229842670Y-107604290D01*
X230193599Y-108214961D01*
X230521814Y-108787520D01*
X230820685Y-109310494D01*
X231083585Y-109772414D01*
X231303884Y-110161808D01*
X231474954Y-110467207D01*
X231590167Y-110677140D01*
X231642892Y-110780136D01*
X231645556Y-110788190D01*
X231576273Y-110799742D01*
X231373514Y-110810403D01*
X231044911Y-110820080D01*
X230598096Y-110828684D01*
X230040701Y-110836123D01*
X229380358Y-110842307D01*
X228624700Y-110847145D01*
X227781360Y-110850547D01*
X226857968Y-110852421D01*
X226212778Y-110852778D01*
X225351040Y-110852154D01*
X224531424Y-110850350D01*
X223764696Y-110847462D01*
X223061621Y-110843588D01*
X222432962Y-110838826D01*
X221889484Y-110833272D01*
X221441953Y-110827025D01*
X221101134Y-110820182D01*
X220877790Y-110812841D01*
X220782686Y-110805099D01*
X220780000Y-110803546D01*
X220814358Y-110730685D01*
X220913028Y-110548387D01*
X221069406Y-110268030D01*
X221276885Y-109900991D01*
X221528862Y-109458648D01*
X221818729Y-108952378D01*
X222139884Y-108393560D01*
X222485719Y-107793570D01*
X222552627Y-107677778D01*
X226271269Y-107677778D01*
X226439245Y-107977639D01*
X226842698Y-108693245D01*
X227184074Y-109288446D01*
X227466367Y-109768047D01*
X227692573Y-110136854D01*
X227865686Y-110399673D01*
X227988702Y-110561309D01*
X228064617Y-110626569D01*
X228087724Y-110622750D01*
X228144299Y-110538577D01*
X228259713Y-110350171D01*
X228423046Y-110075961D01*
X228623377Y-109734375D01*
X228849786Y-109343841D01*
X228986247Y-109106528D01*
X229805395Y-107677778D01*
X226271269Y-107677778D01*
X222552627Y-107677778D01*
X222849630Y-107163786D01*
X223225012Y-106515587D01*
X223605259Y-105860350D01*
X223983767Y-105209452D01*
X224336576Y-104604047D01*
X224535768Y-104604047D01*
X224558469Y-104672774D01*
X224642430Y-104841485D01*
X224775739Y-105089678D01*
X224946482Y-105396849D01*
X225142745Y-105742495D01*
X225352616Y-106106115D01*
X225564181Y-106467204D01*
X225765526Y-106805260D01*
X225944739Y-107099780D01*
X226089906Y-107330261D01*
X226189113Y-107476201D01*
X226229154Y-107518355D01*
X226277587Y-107455016D01*
X226385724Y-107286347D01*
X226543155Y-107029480D01*
X226739474Y-106701547D01*
X226964272Y-106319677D01*
X227118216Y-106055000D01*
X227955625Y-104608611D01*
X226262332Y-104589694D01*
X225788088Y-104585739D01*
X225362338Y-104584756D01*
X225004869Y-104586581D01*
X224735466Y-104591048D01*
X224573918Y-104597993D01*
X224535768Y-104604047D01*
X224336576Y-104604047D01*
X224353929Y-104574271D01*
X224709142Y-103966184D01*
X225042799Y-103396571D01*
X225348296Y-102876807D01*
X225619026Y-102418271D01*
X225848386Y-102032340D01*
X226029769Y-101730393D01*
X226156571Y-101523806D01*
X226222187Y-101423957D01*
X226229664Y-101416353D01*
X226272665Y-101478676D01*
G37*
X226272665Y-101478676D02*
X226379124Y-101652004D01*
X226542415Y-101924865D01*
X226755907Y-102285789D01*
X227012971Y-102723305D01*
X227306980Y-103225943D01*
X227631305Y-103782232D01*
X227979317Y-104380702D01*
X228344386Y-105009882D01*
X228719885Y-105658301D01*
X229099184Y-106314489D01*
X229475656Y-106966976D01*
X229842670Y-107604290D01*
X230193599Y-108214961D01*
X230521814Y-108787520D01*
X230820685Y-109310494D01*
X231083585Y-109772414D01*
X231303884Y-110161808D01*
X231474954Y-110467207D01*
X231590167Y-110677140D01*
X231642892Y-110780136D01*
X231645556Y-110788190D01*
X231576273Y-110799742D01*
X231373514Y-110810403D01*
X231044911Y-110820080D01*
X230598096Y-110828684D01*
X230040701Y-110836123D01*
X229380358Y-110842307D01*
X228624700Y-110847145D01*
X227781360Y-110850547D01*
X226857968Y-110852421D01*
X226212778Y-110852778D01*
X225351040Y-110852154D01*
X224531424Y-110850350D01*
X223764696Y-110847462D01*
X223061621Y-110843588D01*
X222432962Y-110838826D01*
X221889484Y-110833272D01*
X221441953Y-110827025D01*
X221101134Y-110820182D01*
X220877790Y-110812841D01*
X220782686Y-110805099D01*
X220780000Y-110803546D01*
X220814358Y-110730685D01*
X220913028Y-110548387D01*
X221069406Y-110268030D01*
X221276885Y-109900991D01*
X221528862Y-109458648D01*
X221818729Y-108952378D01*
X222139884Y-108393560D01*
X222485719Y-107793570D01*
X222552627Y-107677778D01*
X226271269Y-107677778D01*
X226439245Y-107977639D01*
X226842698Y-108693245D01*
X227184074Y-109288446D01*
X227466367Y-109768047D01*
X227692573Y-110136854D01*
X227865686Y-110399673D01*
X227988702Y-110561309D01*
X228064617Y-110626569D01*
X228087724Y-110622750D01*
X228144299Y-110538577D01*
X228259713Y-110350171D01*
X228423046Y-110075961D01*
X228623377Y-109734375D01*
X228849786Y-109343841D01*
X228986247Y-109106528D01*
X229805395Y-107677778D01*
X226271269Y-107677778D01*
X222552627Y-107677778D01*
X222849630Y-107163786D01*
X223225012Y-106515587D01*
X223605259Y-105860350D01*
X223983767Y-105209452D01*
X224336576Y-104604047D01*
X224535768Y-104604047D01*
X224558469Y-104672774D01*
X224642430Y-104841485D01*
X224775739Y-105089678D01*
X224946482Y-105396849D01*
X225142745Y-105742495D01*
X225352616Y-106106115D01*
X225564181Y-106467204D01*
X225765526Y-106805260D01*
X225944739Y-107099780D01*
X226089906Y-107330261D01*
X226189113Y-107476201D01*
X226229154Y-107518355D01*
X226277587Y-107455016D01*
X226385724Y-107286347D01*
X226543155Y-107029480D01*
X226739474Y-106701547D01*
X226964272Y-106319677D01*
X227118216Y-106055000D01*
X227955625Y-104608611D01*
X226262332Y-104589694D01*
X225788088Y-104585739D01*
X225362338Y-104584756D01*
X225004869Y-104586581D01*
X224735466Y-104591048D01*
X224573918Y-104597993D01*
X224535768Y-104604047D01*
X224336576Y-104604047D01*
X224353929Y-104574271D01*
X224709142Y-103966184D01*
X225042799Y-103396571D01*
X225348296Y-102876807D01*
X225619026Y-102418271D01*
X225848386Y-102032340D01*
X226029769Y-101730393D01*
X226156571Y-101523806D01*
X226222187Y-101423957D01*
X226229664Y-101416353D01*
X226272665Y-101478676D01*
G36*
X115708550Y-104628729D02*
G01*
X115816760Y-104807581D01*
X115974883Y-105074468D01*
X116172781Y-105412196D01*
X116400318Y-105803572D01*
X116591214Y-106133922D01*
X117470362Y-107659233D01*
X116545411Y-109256005D01*
X115620461Y-110852778D01*
X113801897Y-110852778D01*
X113311997Y-110851371D01*
X112872060Y-110847409D01*
X112500692Y-110841281D01*
X112216499Y-110833373D01*
X112038086Y-110824075D01*
X111983333Y-110814851D01*
X112017228Y-110745876D01*
X112112561Y-110571812D01*
X112259803Y-110309534D01*
X112449425Y-109975922D01*
X112671899Y-109587851D01*
X112865278Y-109252724D01*
X113106848Y-108834308D01*
X113323164Y-108457854D01*
X113504720Y-108140053D01*
X113642007Y-107897597D01*
X113725519Y-107747176D01*
X113747222Y-107704342D01*
X113679794Y-107697070D01*
X113490008Y-107689189D01*
X113196614Y-107681147D01*
X112818362Y-107673397D01*
X112374002Y-107666387D01*
X111956597Y-107661330D01*
X110165972Y-107642500D01*
X111043499Y-106125555D01*
X111287107Y-105705853D01*
X111508828Y-105326550D01*
X111698484Y-105004836D01*
X111845901Y-104757902D01*
X111940903Y-104602938D01*
X111971861Y-104557179D01*
X112019423Y-104601301D01*
X112126487Y-104752424D01*
X112283052Y-104994741D01*
X112479118Y-105312444D01*
X112704682Y-105689726D01*
X112898139Y-106021207D01*
X113140209Y-106437513D01*
X113359891Y-106810109D01*
X113547216Y-107122508D01*
X113692215Y-107358223D01*
X113784919Y-107500767D01*
X113814504Y-107536667D01*
X113859536Y-107478160D01*
X113964641Y-107313623D01*
X114119856Y-107059532D01*
X114315220Y-106732361D01*
X114540771Y-106348588D01*
X114732067Y-106019132D01*
X114974112Y-105605617D01*
X115194662Y-105239252D01*
X115383719Y-104935806D01*
X115531282Y-104711051D01*
X115627351Y-104580755D01*
X115660388Y-104555104D01*
X115708550Y-104628729D01*
G37*
X115708550Y-104628729D02*
X115816760Y-104807581D01*
X115974883Y-105074468D01*
X116172781Y-105412196D01*
X116400318Y-105803572D01*
X116591214Y-106133922D01*
X117470362Y-107659233D01*
X116545411Y-109256005D01*
X115620461Y-110852778D01*
X113801897Y-110852778D01*
X113311997Y-110851371D01*
X112872060Y-110847409D01*
X112500692Y-110841281D01*
X112216499Y-110833373D01*
X112038086Y-110824075D01*
X111983333Y-110814851D01*
X112017228Y-110745876D01*
X112112561Y-110571812D01*
X112259803Y-110309534D01*
X112449425Y-109975922D01*
X112671899Y-109587851D01*
X112865278Y-109252724D01*
X113106848Y-108834308D01*
X113323164Y-108457854D01*
X113504720Y-108140053D01*
X113642007Y-107897597D01*
X113725519Y-107747176D01*
X113747222Y-107704342D01*
X113679794Y-107697070D01*
X113490008Y-107689189D01*
X113196614Y-107681147D01*
X112818362Y-107673397D01*
X112374002Y-107666387D01*
X111956597Y-107661330D01*
X110165972Y-107642500D01*
X111043499Y-106125555D01*
X111287107Y-105705853D01*
X111508828Y-105326550D01*
X111698484Y-105004836D01*
X111845901Y-104757902D01*
X111940903Y-104602938D01*
X111971861Y-104557179D01*
X112019423Y-104601301D01*
X112126487Y-104752424D01*
X112283052Y-104994741D01*
X112479118Y-105312444D01*
X112704682Y-105689726D01*
X112898139Y-106021207D01*
X113140209Y-106437513D01*
X113359891Y-106810109D01*
X113547216Y-107122508D01*
X113692215Y-107358223D01*
X113784919Y-107500767D01*
X113814504Y-107536667D01*
X113859536Y-107478160D01*
X113964641Y-107313623D01*
X114119856Y-107059532D01*
X114315220Y-106732361D01*
X114540771Y-106348588D01*
X114732067Y-106019132D01*
X114974112Y-105605617D01*
X115194662Y-105239252D01*
X115383719Y-104935806D01*
X115531282Y-104711051D01*
X115627351Y-104580755D01*
X115660388Y-104555104D01*
X115708550Y-104628729D01*
G36*
X88472895Y-107736713D02*
G01*
X88575338Y-107897399D01*
X88724287Y-108141163D01*
X88908184Y-108448175D01*
X89115473Y-108798602D01*
X89334596Y-109172615D01*
X89553996Y-109550382D01*
X89762116Y-109912072D01*
X89947399Y-110237853D01*
X90098287Y-110507894D01*
X90203223Y-110702364D01*
X90250651Y-110801432D01*
X90252222Y-110808277D01*
X90184785Y-110820326D01*
X89994945Y-110831138D01*
X89701407Y-110840248D01*
X89322876Y-110847195D01*
X88878058Y-110851515D01*
X88453056Y-110852778D01*
X87857662Y-110850824D01*
X87393544Y-110844669D01*
X87050915Y-110833868D01*
X86819989Y-110817979D01*
X86690980Y-110796560D01*
X86653889Y-110771337D01*
X86687402Y-110688996D01*
X86780235Y-110507623D01*
X86920827Y-110247363D01*
X87097617Y-109928360D01*
X87299044Y-109570762D01*
X87513548Y-109194712D01*
X87729568Y-108820356D01*
X87935544Y-108467839D01*
X88119913Y-108157308D01*
X88271117Y-107908906D01*
X88377593Y-107742779D01*
X88427782Y-107679073D01*
X88428515Y-107678938D01*
X88472895Y-107736713D01*
G37*
X88472895Y-107736713D02*
X88575338Y-107897399D01*
X88724287Y-108141163D01*
X88908184Y-108448175D01*
X89115473Y-108798602D01*
X89334596Y-109172615D01*
X89553996Y-109550382D01*
X89762116Y-109912072D01*
X89947399Y-110237853D01*
X90098287Y-110507894D01*
X90203223Y-110702364D01*
X90250651Y-110801432D01*
X90252222Y-110808277D01*
X90184785Y-110820326D01*
X89994945Y-110831138D01*
X89701407Y-110840248D01*
X89322876Y-110847195D01*
X88878058Y-110851515D01*
X88453056Y-110852778D01*
X87857662Y-110850824D01*
X87393544Y-110844669D01*
X87050915Y-110833868D01*
X86819989Y-110817979D01*
X86690980Y-110796560D01*
X86653889Y-110771337D01*
X86687402Y-110688996D01*
X86780235Y-110507623D01*
X86920827Y-110247363D01*
X87097617Y-109928360D01*
X87299044Y-109570762D01*
X87513548Y-109194712D01*
X87729568Y-108820356D01*
X87935544Y-108467839D01*
X88119913Y-108157308D01*
X88271117Y-107908906D01*
X88377593Y-107742779D01*
X88427782Y-107679073D01*
X88428515Y-107678938D01*
X88472895Y-107736713D01*
%TD*%
D11*
%TO.C,REF\u002A\u002A*%
X103200000Y-106105000D03*
%TD*%
M02*
