%TF.GenerationSoftware,KiCad,Pcbnew,(6.0.1-0)*%
%TF.CreationDate,2022-02-13T11:10:19+09:00*%
%TF.ProjectId,keyplate,6b657970-6c61-4746-952e-6b696361645f,rev?*%
%TF.SameCoordinates,Original*%
%TF.FileFunction,Profile,NP*%
%FSLAX46Y46*%
G04 Gerber Fmt 4.6, Leading zero omitted, Abs format (unit mm)*
G04 Created by KiCad (PCBNEW (6.0.1-0)) date 2022-02-13 11:10:19*
%MOMM*%
%LPD*%
G01*
G04 APERTURE LIST*
%TA.AperFunction,Profile*%
%ADD10C,0.352776*%
%TD*%
G04 APERTURE END LIST*
D10*
X40313652Y-48037910D02*
X40190218Y-48034784D01*
X40190218Y-48034784D02*
X40068395Y-48025507D01*
X40068395Y-48025507D02*
X39948334Y-48010230D01*
X39948334Y-48010230D02*
X39830186Y-47989105D01*
X39830186Y-47989105D02*
X39714103Y-47962282D01*
X39714103Y-47962282D02*
X39600236Y-47929914D01*
X39600236Y-47929914D02*
X39488737Y-47892152D01*
X39488737Y-47892152D02*
X39379756Y-47849146D01*
X39379756Y-47849146D02*
X39273446Y-47801049D01*
X39273446Y-47801049D02*
X39169957Y-47748012D01*
X39169957Y-47748012D02*
X39069440Y-47690185D01*
X39069440Y-47690185D02*
X38972048Y-47627721D01*
X38972048Y-47627721D02*
X38877932Y-47560771D01*
X38877932Y-47560771D02*
X38787242Y-47489486D01*
X38787242Y-47489486D02*
X38700131Y-47414017D01*
X38700131Y-47414017D02*
X38616749Y-47334516D01*
X38616749Y-47334516D02*
X38537248Y-47251134D01*
X38537248Y-47251134D02*
X38461779Y-47164023D01*
X38461779Y-47164023D02*
X38390494Y-47073333D01*
X38390494Y-47073333D02*
X38323544Y-46979216D01*
X38323544Y-46979216D02*
X38261080Y-46881824D01*
X38261080Y-46881824D02*
X38203254Y-46781308D01*
X38203254Y-46781308D02*
X38150216Y-46677819D01*
X38150216Y-46677819D02*
X38102119Y-46571509D01*
X38102119Y-46571509D02*
X38059114Y-46462528D01*
X38059114Y-46462528D02*
X38021352Y-46351029D01*
X38021352Y-46351029D02*
X37988984Y-46237162D01*
X37988984Y-46237162D02*
X37962162Y-46121079D01*
X37962162Y-46121079D02*
X37941036Y-46002932D01*
X37941036Y-46002932D02*
X37925760Y-45882871D01*
X37925760Y-45882871D02*
X37916483Y-45761048D01*
X37916483Y-45761048D02*
X37913357Y-45637615D01*
X37913357Y-45637615D02*
X37916483Y-45514213D01*
X37916483Y-45514213D02*
X37925760Y-45392420D01*
X37925760Y-45392420D02*
X37941036Y-45272388D01*
X37941036Y-45272388D02*
X37962162Y-45154266D01*
X37962162Y-45154266D02*
X37988984Y-45038208D01*
X37988984Y-45038208D02*
X38021352Y-44924364D01*
X38021352Y-44924364D02*
X38059114Y-44812886D01*
X38059114Y-44812886D02*
X38102119Y-44703925D01*
X38102119Y-44703925D02*
X38150216Y-44597632D01*
X38150216Y-44597632D02*
X38203254Y-44494160D01*
X38203254Y-44494160D02*
X38261080Y-44393659D01*
X38261080Y-44393659D02*
X38323544Y-44296280D01*
X38323544Y-44296280D02*
X38390494Y-44202176D01*
X38390494Y-44202176D02*
X38461779Y-44111498D01*
X38461779Y-44111498D02*
X38537248Y-44024396D01*
X38537248Y-44024396D02*
X38616749Y-43941023D01*
X38616749Y-43941023D02*
X38700131Y-43861530D01*
X38700131Y-43861530D02*
X38787242Y-43786068D01*
X38787242Y-43786068D02*
X38877932Y-43714789D01*
X38877932Y-43714789D02*
X38972048Y-43647843D01*
X38972048Y-43647843D02*
X39069440Y-43585384D01*
X39069440Y-43585384D02*
X39169957Y-43527561D01*
X39169957Y-43527561D02*
X39273446Y-43474527D01*
X39273446Y-43474527D02*
X39379756Y-43426432D01*
X39379756Y-43426432D02*
X39488737Y-43383428D01*
X39488737Y-43383428D02*
X39600236Y-43345667D01*
X39600236Y-43345667D02*
X39714103Y-43313300D01*
X39714103Y-43313300D02*
X39830186Y-43286479D01*
X39830186Y-43286479D02*
X39948334Y-43265354D01*
X39948334Y-43265354D02*
X40068395Y-43250077D01*
X40068395Y-43250077D02*
X40190218Y-43240800D01*
X40190218Y-43240800D02*
X40313652Y-43237674D01*
X40313652Y-43237674D02*
X43324953Y-43237674D01*
X43324953Y-43237674D02*
X43324953Y-41199327D01*
X43324953Y-41199327D02*
X57536924Y-41199327D01*
X57536924Y-41199327D02*
X57536924Y-54998901D01*
X57536924Y-54998901D02*
X43324953Y-54998901D01*
X43324953Y-54998901D02*
X43324953Y-48037910D01*
X43324953Y-48037910D02*
X40313652Y-48037910D01*
X40313652Y-48037910D02*
X40313652Y-48037910D01*
X111132910Y-58199291D02*
X111132910Y-71999217D01*
X111132910Y-71999217D02*
X96932928Y-71999217D01*
X96932928Y-71999217D02*
X96932928Y-58199291D01*
X96932928Y-58199291D02*
X111132910Y-58199291D01*
X111132910Y-58199291D02*
X111132910Y-58199291D01*
X75415304Y-41199327D02*
X75415304Y-54998901D01*
X75415304Y-54998901D02*
X61215330Y-54998901D01*
X61215330Y-54998901D02*
X61215330Y-41199327D01*
X61215330Y-41199327D02*
X75415304Y-41199327D01*
X75415304Y-41199327D02*
X75415304Y-41199327D01*
X227218008Y-75199615D02*
X227218008Y-88999542D01*
X227218008Y-88999542D02*
X213018057Y-88999542D01*
X213018057Y-88999542D02*
X213018057Y-75199615D01*
X213018057Y-75199615D02*
X227218008Y-75199615D01*
X227218008Y-75199615D02*
X227218008Y-75199615D01*
X254016378Y-41199327D02*
X254016378Y-54998901D01*
X254016378Y-54998901D02*
X239816381Y-54998901D01*
X239816381Y-54998901D02*
X239816381Y-41199327D01*
X239816381Y-41199327D02*
X254016378Y-41199327D01*
X254016378Y-41199327D02*
X254016378Y-41199327D01*
X236151403Y-58199291D02*
X236151403Y-71999217D01*
X236151403Y-71999217D02*
X221951406Y-71999217D01*
X221951406Y-71999217D02*
X221951406Y-58199291D01*
X221951406Y-58199291D02*
X236151403Y-58199291D01*
X236151403Y-58199291D02*
X236151403Y-58199291D01*
X75415304Y-58199291D02*
X75415304Y-71999217D01*
X75415304Y-71999217D02*
X61215330Y-71999217D01*
X61215330Y-71999217D02*
X61215330Y-58199291D01*
X61215330Y-58199291D02*
X75415304Y-58199291D01*
X75415304Y-58199291D02*
X75415304Y-58199291D01*
X245081930Y-24199010D02*
X245081930Y-37998935D01*
X245081930Y-37998935D02*
X230879476Y-37998935D01*
X230879476Y-37998935D02*
X230879476Y-24199010D01*
X230879476Y-24199010D02*
X245081930Y-24199010D01*
X245081930Y-24199010D02*
X245081930Y-24199010D01*
X146852621Y-58199291D02*
X146852621Y-71999217D01*
X146852621Y-71999217D02*
X132652654Y-71999217D01*
X132652654Y-71999217D02*
X132652654Y-58199291D01*
X132652654Y-58199291D02*
X146852621Y-58199291D01*
X146852621Y-58199291D02*
X146852621Y-58199291D01*
X200431310Y-41199327D02*
X200431310Y-54998901D01*
X200431310Y-54998901D02*
X186231344Y-54998901D01*
X186231344Y-54998901D02*
X186231344Y-41199327D01*
X186231344Y-41199327D02*
X200431310Y-41199327D01*
X200431310Y-41199327D02*
X200431310Y-41199327D01*
X48620844Y-75199615D02*
X48620844Y-88999542D01*
X48620844Y-88999542D02*
X34420866Y-88999542D01*
X34420866Y-88999542D02*
X34420866Y-75199615D01*
X34420866Y-75199615D02*
X48620844Y-75199615D01*
X48620844Y-75199615D02*
X48620844Y-75199615D01*
X75415304Y-92201690D02*
X75415304Y-106001266D01*
X75415304Y-106001266D02*
X61215330Y-106001266D01*
X61215330Y-106001266D02*
X61215330Y-92201690D01*
X61215330Y-92201690D02*
X75415304Y-92201690D01*
X75415304Y-92201690D02*
X75415304Y-92201690D01*
X137924551Y-24199010D02*
X137924551Y-37998935D01*
X137924551Y-37998935D02*
X123724561Y-37998935D01*
X123724561Y-37998935D02*
X123724561Y-24199010D01*
X123724561Y-24199010D02*
X137924551Y-24199010D01*
X137924551Y-24199010D02*
X137924551Y-24199010D01*
X254007543Y-92203460D02*
X254007543Y-106003028D01*
X254007543Y-106003028D02*
X239807562Y-106003028D01*
X239807562Y-106003028D02*
X239807562Y-92203460D01*
X239807562Y-92203460D02*
X254007543Y-92203460D01*
X254007543Y-92203460D02*
X254007543Y-92203460D01*
X48628603Y-24199010D02*
X48628603Y-37998935D01*
X48628603Y-37998935D02*
X34428625Y-37998935D01*
X34428625Y-37998935D02*
X34428625Y-24199010D01*
X34428625Y-24199010D02*
X48628603Y-24199010D01*
X48628603Y-24199010D02*
X48628603Y-24199010D01*
X271865484Y-42920175D02*
X271865874Y-42935938D01*
X271865874Y-42935938D02*
X271867039Y-42951592D01*
X271867039Y-42951592D02*
X271868967Y-42967110D01*
X271868967Y-42967110D02*
X271871647Y-42982467D01*
X271871647Y-42982467D02*
X271875068Y-42997636D01*
X271875068Y-42997636D02*
X271879221Y-43012590D01*
X271879221Y-43012590D02*
X271884094Y-43027303D01*
X271884094Y-43027303D02*
X271889677Y-43041749D01*
X271889677Y-43041749D02*
X271895958Y-43055902D01*
X271895958Y-43055902D02*
X271902928Y-43069735D01*
X271902928Y-43069735D02*
X271910574Y-43083222D01*
X271910574Y-43083222D02*
X271918888Y-43096336D01*
X271918888Y-43096336D02*
X271927857Y-43109051D01*
X271927857Y-43109051D02*
X271937472Y-43121340D01*
X271937472Y-43121340D02*
X271947720Y-43133178D01*
X271947720Y-43133178D02*
X271958593Y-43144538D01*
X271958593Y-43144538D02*
X271970018Y-43155410D01*
X271970018Y-43155410D02*
X271981912Y-43165658D01*
X271981912Y-43165658D02*
X271994250Y-43175273D01*
X271994250Y-43175273D02*
X272007006Y-43184244D01*
X272007006Y-43184244D02*
X272020155Y-43192559D01*
X272020155Y-43192559D02*
X272033670Y-43200208D01*
X272033670Y-43200208D02*
X272047526Y-43207180D01*
X272047526Y-43207180D02*
X272061697Y-43213464D01*
X272061697Y-43213464D02*
X272076156Y-43219050D01*
X272076156Y-43219050D02*
X272090879Y-43223926D01*
X272090879Y-43223926D02*
X272105839Y-43228082D01*
X272105839Y-43228082D02*
X272121011Y-43231506D01*
X272121011Y-43231506D02*
X272136368Y-43234188D01*
X272136368Y-43234188D02*
X272151884Y-43236118D01*
X272151884Y-43236118D02*
X272167535Y-43237283D01*
X272167535Y-43237283D02*
X272183294Y-43237674D01*
X272183294Y-43237674D02*
X279665716Y-43237674D01*
X279665716Y-43237674D02*
X279681421Y-43237283D01*
X279681421Y-43237283D02*
X279697023Y-43236118D01*
X279697023Y-43236118D02*
X279712498Y-43234188D01*
X279712498Y-43234188D02*
X279727818Y-43231506D01*
X279727818Y-43231506D02*
X279742958Y-43228082D01*
X279742958Y-43228082D02*
X279757891Y-43223926D01*
X279757891Y-43223926D02*
X279772590Y-43219050D01*
X279772590Y-43219050D02*
X279787031Y-43213464D01*
X279787031Y-43213464D02*
X279801186Y-43207180D01*
X279801186Y-43207180D02*
X279815030Y-43200208D01*
X279815030Y-43200208D02*
X279828536Y-43192559D01*
X279828536Y-43192559D02*
X279841677Y-43184244D01*
X279841677Y-43184244D02*
X279854429Y-43175273D01*
X279854429Y-43175273D02*
X279866764Y-43165658D01*
X279866764Y-43165658D02*
X279878657Y-43155410D01*
X279878657Y-43155410D02*
X279890081Y-43144538D01*
X279890081Y-43144538D02*
X279900949Y-43133178D01*
X279900949Y-43133178D02*
X279911195Y-43121340D01*
X279911195Y-43121340D02*
X279920809Y-43109051D01*
X279920809Y-43109051D02*
X279929778Y-43096336D01*
X279929778Y-43096336D02*
X279938093Y-43083222D01*
X279938093Y-43083222D02*
X279945743Y-43069735D01*
X279945743Y-43069735D02*
X279952716Y-43055902D01*
X279952716Y-43055902D02*
X279959001Y-43041749D01*
X279959001Y-43041749D02*
X279964588Y-43027303D01*
X279964588Y-43027303D02*
X279969466Y-43012590D01*
X279969466Y-43012590D02*
X279973623Y-42997636D01*
X279973623Y-42997636D02*
X279977049Y-42982467D01*
X279977049Y-42982467D02*
X279979733Y-42967110D01*
X279979733Y-42967110D02*
X279981663Y-42951592D01*
X279981663Y-42951592D02*
X279982830Y-42935938D01*
X279982830Y-42935938D02*
X279983221Y-42920175D01*
X279983221Y-42920175D02*
X279983221Y-41199327D01*
X279983221Y-41199327D02*
X294183202Y-41199327D01*
X294183202Y-41199327D02*
X294183202Y-54998901D01*
X294183202Y-54998901D02*
X279983221Y-54998901D01*
X279983221Y-54998901D02*
X279983221Y-48369518D01*
X279983221Y-48369518D02*
X279982813Y-48353090D01*
X279982813Y-48353090D02*
X279981598Y-48336764D01*
X279981598Y-48336764D02*
X279979587Y-48320570D01*
X279979587Y-48320570D02*
X279976791Y-48304536D01*
X279976791Y-48304536D02*
X279973222Y-48288690D01*
X279973222Y-48288690D02*
X279968891Y-48273060D01*
X279968891Y-48273060D02*
X279963810Y-48257675D01*
X279963810Y-48257675D02*
X279957990Y-48242564D01*
X279957990Y-48242564D02*
X279951443Y-48227754D01*
X279951443Y-48227754D02*
X279944180Y-48213274D01*
X279944180Y-48213274D02*
X279936212Y-48199153D01*
X279936212Y-48199153D02*
X279927551Y-48185419D01*
X279927551Y-48185419D02*
X279918208Y-48172101D01*
X279918208Y-48172101D02*
X279908196Y-48159226D01*
X279908196Y-48159226D02*
X279897524Y-48146823D01*
X279897524Y-48146823D02*
X279886205Y-48134921D01*
X279886205Y-48134921D02*
X279874241Y-48123600D01*
X279874241Y-48123600D02*
X279861792Y-48112926D01*
X279861792Y-48112926D02*
X279848885Y-48102912D01*
X279848885Y-48102912D02*
X279835547Y-48093568D01*
X279835547Y-48093568D02*
X279821805Y-48084907D01*
X279821805Y-48084907D02*
X279807684Y-48076940D01*
X279807684Y-48076940D02*
X279793213Y-48069677D01*
X279793213Y-48069677D02*
X279778417Y-48063131D01*
X279778417Y-48063131D02*
X279763324Y-48057313D01*
X279763324Y-48057313D02*
X279747960Y-48052233D01*
X279747960Y-48052233D02*
X279732352Y-48047904D01*
X279732352Y-48047904D02*
X279716527Y-48044336D01*
X279716527Y-48044336D02*
X279700511Y-48041542D01*
X279700511Y-48041542D02*
X279684331Y-48039532D01*
X279684331Y-48039532D02*
X279668014Y-48038317D01*
X279668014Y-48038317D02*
X279651586Y-48037910D01*
X279651586Y-48037910D02*
X272197424Y-48037910D01*
X272197424Y-48037910D02*
X272180937Y-48038317D01*
X272180937Y-48038317D02*
X272164568Y-48039532D01*
X272164568Y-48039532D02*
X272148343Y-48041542D01*
X272148343Y-48041542D02*
X272132291Y-48044336D01*
X272132291Y-48044336D02*
X272116436Y-48047904D01*
X272116436Y-48047904D02*
X272100807Y-48052233D01*
X272100807Y-48052233D02*
X272085431Y-48057313D01*
X272085431Y-48057313D02*
X272070333Y-48063131D01*
X272070333Y-48063131D02*
X272055542Y-48069677D01*
X272055542Y-48069677D02*
X272041084Y-48076940D01*
X272041084Y-48076940D02*
X272026985Y-48084907D01*
X272026985Y-48084907D02*
X272013274Y-48093568D01*
X272013274Y-48093568D02*
X271999976Y-48102912D01*
X271999976Y-48102912D02*
X271987119Y-48112926D01*
X271987119Y-48112926D02*
X271974730Y-48123600D01*
X271974730Y-48123600D02*
X271962835Y-48134921D01*
X271962835Y-48134921D02*
X271951452Y-48146823D01*
X271951452Y-48146823D02*
X271940725Y-48159226D01*
X271940725Y-48159226D02*
X271930665Y-48172101D01*
X271930665Y-48172101D02*
X271921282Y-48185419D01*
X271921282Y-48185419D02*
X271912588Y-48199153D01*
X271912588Y-48199153D02*
X271904594Y-48213274D01*
X271904594Y-48213274D02*
X271897309Y-48227754D01*
X271897309Y-48227754D02*
X271890745Y-48242564D01*
X271890745Y-48242564D02*
X271884913Y-48257675D01*
X271884913Y-48257675D02*
X271879823Y-48273060D01*
X271879823Y-48273060D02*
X271875487Y-48288690D01*
X271875487Y-48288690D02*
X271871915Y-48304536D01*
X271871915Y-48304536D02*
X271869117Y-48320570D01*
X271869117Y-48320570D02*
X271867106Y-48336764D01*
X271867106Y-48336764D02*
X271865891Y-48353090D01*
X271865891Y-48353090D02*
X271865484Y-48369518D01*
X271865484Y-48369518D02*
X271865484Y-54998901D01*
X271865484Y-54998901D02*
X257665487Y-54998901D01*
X257665487Y-54998901D02*
X257665487Y-41199327D01*
X257665487Y-41199327D02*
X271865484Y-41199327D01*
X271865484Y-41199327D02*
X271865484Y-42920175D01*
X271865484Y-42920175D02*
X271865484Y-42920175D01*
X66484758Y-75199615D02*
X66484758Y-88999542D01*
X66484758Y-88999542D02*
X52284780Y-88999542D01*
X52284780Y-88999542D02*
X52284780Y-75199615D01*
X52284780Y-75199615D02*
X66484758Y-75199615D01*
X66484758Y-75199615D02*
X66484758Y-75199615D01*
X271875005Y-58199291D02*
X271875005Y-71999217D01*
X271875005Y-71999217D02*
X257675009Y-71999217D01*
X257675009Y-71999217D02*
X257675009Y-58199291D01*
X257675009Y-58199291D02*
X271875005Y-58199291D01*
X271875005Y-58199291D02*
X271875005Y-58199291D01*
X236151403Y-41199327D02*
X236151403Y-54998901D01*
X236151403Y-54998901D02*
X221951406Y-54998901D01*
X221951406Y-54998901D02*
X221951406Y-41199327D01*
X221951406Y-41199327D02*
X236151403Y-41199327D01*
X236151403Y-41199327D02*
X236151403Y-41199327D01*
X298657812Y-24199010D02*
X298657812Y-37998935D01*
X298657812Y-37998935D02*
X284457830Y-37998935D01*
X284457830Y-37998935D02*
X284457830Y-24199010D01*
X284457830Y-24199010D02*
X298657812Y-24199010D01*
X298657812Y-24199010D02*
X298657812Y-24199010D01*
X84343374Y-75199615D02*
X84343374Y-88999542D01*
X84343374Y-88999542D02*
X70143404Y-88999542D01*
X70143404Y-88999542D02*
X70143404Y-75199615D01*
X70143404Y-75199615D02*
X84343374Y-75199615D01*
X84343374Y-75199615D02*
X84343374Y-75199615D01*
X218289938Y-41199327D02*
X218289938Y-54998901D01*
X218289938Y-54998901D02*
X204089956Y-54998901D01*
X204089956Y-54998901D02*
X204089956Y-41199327D01*
X204089956Y-41199327D02*
X218289938Y-41199327D01*
X218289938Y-41199327D02*
X218289938Y-41199327D01*
X120060987Y-75199615D02*
X120060987Y-88999542D01*
X120060987Y-88999542D02*
X105861006Y-88999542D01*
X105861006Y-88999542D02*
X105861006Y-75199615D01*
X105861006Y-75199615D02*
X120060987Y-75199615D01*
X120060987Y-75199615D02*
X120060987Y-75199615D01*
X84345846Y-24199010D02*
X84345846Y-37998935D01*
X84345846Y-37998935D02*
X70145876Y-37998935D01*
X70145876Y-37998935D02*
X70145876Y-24199010D01*
X70145876Y-24199010D02*
X84345846Y-24199010D01*
X84345846Y-24199010D02*
X84345846Y-24199010D01*
X182572698Y-41199327D02*
X182572698Y-54998901D01*
X182572698Y-54998901D02*
X168370260Y-54998901D01*
X168370260Y-54998901D02*
X168370260Y-41199327D01*
X168370260Y-41199327D02*
X182572698Y-41199327D01*
X182572698Y-41199327D02*
X182572698Y-41199327D01*
X137922079Y-75199615D02*
X137922079Y-88999542D01*
X137922079Y-88999542D02*
X123722097Y-88999542D01*
X123722097Y-88999542D02*
X123722097Y-75199615D01*
X123722097Y-75199615D02*
X137922079Y-75199615D01*
X137922079Y-75199615D02*
X137922079Y-75199615D01*
X128994001Y-41199327D02*
X128994001Y-54998901D01*
X128994001Y-54998901D02*
X114794019Y-54998901D01*
X114794019Y-54998901D02*
X114794019Y-41199327D01*
X114794019Y-41199327D02*
X128994001Y-41199327D01*
X128994001Y-41199327D02*
X128994001Y-41199327D01*
X200431310Y-58199291D02*
X200431310Y-71999217D01*
X200431310Y-71999217D02*
X186231344Y-71999217D01*
X186231344Y-71999217D02*
X186231344Y-58199291D01*
X186231344Y-58199291D02*
X200431310Y-58199291D01*
X200431310Y-58199291D02*
X200431310Y-58199291D01*
X294183202Y-58199291D02*
X294183202Y-71999217D01*
X294183202Y-71999217D02*
X279983221Y-71999217D01*
X279983221Y-71999217D02*
X279983221Y-58199291D01*
X279983221Y-58199291D02*
X294183202Y-58199291D01*
X294183202Y-58199291D02*
X294183202Y-58199291D01*
X254016378Y-58199291D02*
X254016378Y-71999217D01*
X254016378Y-71999217D02*
X239816381Y-71999217D01*
X239816381Y-71999217D02*
X239816381Y-58199291D01*
X239816381Y-58199291D02*
X254016378Y-58199291D01*
X254016378Y-58199291D02*
X254016378Y-58199291D01*
X182572698Y-58199291D02*
X182572698Y-71999217D01*
X182572698Y-71999217D02*
X168370260Y-71999217D01*
X168370260Y-71999217D02*
X168370260Y-58199291D01*
X168370260Y-58199291D02*
X182572698Y-58199291D01*
X182572698Y-58199291D02*
X182572698Y-58199291D01*
X35235075Y-58199291D02*
X35235075Y-71999217D01*
X35235075Y-71999217D02*
X21035099Y-71999217D01*
X21035099Y-71999217D02*
X21035099Y-58199291D01*
X21035099Y-58199291D02*
X35235075Y-58199291D01*
X35235075Y-58199291D02*
X35235075Y-58199291D01*
X245077001Y-75199615D02*
X245077001Y-88999542D01*
X245077001Y-88999542D02*
X230874181Y-88999542D01*
X230874181Y-88999542D02*
X230874181Y-75199615D01*
X230874181Y-75199615D02*
X245077001Y-75199615D01*
X245077001Y-75199615D02*
X245077001Y-75199615D01*
X218289938Y-58199291D02*
X218289938Y-71999217D01*
X218289938Y-71999217D02*
X204089956Y-71999217D01*
X204089956Y-71999217D02*
X204089956Y-58199291D01*
X204089956Y-58199291D02*
X218289938Y-58199291D01*
X218289938Y-58199291D02*
X218289938Y-58199291D01*
X111132910Y-41199327D02*
X111132910Y-54998901D01*
X111132910Y-54998901D02*
X96932928Y-54998901D01*
X96932928Y-54998901D02*
X96932928Y-41199327D01*
X96932928Y-41199327D02*
X111132910Y-41199327D01*
X111132910Y-41199327D02*
X111132910Y-41199327D01*
X30767507Y-24199010D02*
X30767507Y-37998935D01*
X30767507Y-37998935D02*
X16567532Y-37998935D01*
X16567532Y-37998935D02*
X16567532Y-24199010D01*
X16567532Y-24199010D02*
X30767507Y-24199010D01*
X30767507Y-24199010D02*
X30767507Y-24199010D01*
X102204832Y-24199010D02*
X102204832Y-37998935D01*
X102204832Y-37998935D02*
X88004858Y-37998935D01*
X88004858Y-37998935D02*
X88004858Y-24199010D01*
X88004858Y-24199010D02*
X102204832Y-24199010D01*
X102204832Y-24199010D02*
X102204832Y-24199010D01*
X128994001Y-58199291D02*
X128994001Y-71999217D01*
X128994001Y-71999217D02*
X114794019Y-71999217D01*
X114794019Y-71999217D02*
X114794019Y-58199291D01*
X114794019Y-58199291D02*
X128994001Y-58199291D01*
X128994001Y-58199291D02*
X128994001Y-58199291D01*
X227220480Y-24199010D02*
X227220480Y-37998935D01*
X227220480Y-37998935D02*
X213020513Y-37998935D01*
X213020513Y-37998935D02*
X213020513Y-24199010D01*
X213020513Y-24199010D02*
X227220480Y-24199010D01*
X227220480Y-24199010D02*
X227220480Y-24199010D01*
X280804479Y-75199615D02*
X280804479Y-88999542D01*
X280804479Y-88999542D02*
X266604498Y-88999542D01*
X266604498Y-88999542D02*
X266604498Y-75199615D01*
X266604498Y-75199615D02*
X280804479Y-75199615D01*
X280804479Y-75199615D02*
X280804479Y-75199615D01*
X57556677Y-58199291D02*
X57556677Y-71999217D01*
X57556677Y-71999217D02*
X43356703Y-71999217D01*
X43356703Y-71999217D02*
X43356703Y-58199291D01*
X43356703Y-58199291D02*
X57556677Y-58199291D01*
X57556677Y-58199291D02*
X57556677Y-58199291D01*
X120058149Y-92201690D02*
X120058149Y-106001266D01*
X120058149Y-106001266D02*
X105858190Y-106001266D01*
X105858190Y-106001266D02*
X105858190Y-92201690D01*
X105858190Y-92201690D02*
X120058149Y-92201690D01*
X120058149Y-92201690D02*
X120058149Y-92201690D01*
X66487230Y-24199010D02*
X66487230Y-37998935D01*
X66487230Y-37998935D02*
X52287248Y-37998935D01*
X52287248Y-37998935D02*
X52287248Y-24199010D01*
X52287248Y-24199010D02*
X66487230Y-24199010D01*
X66487230Y-24199010D02*
X66487230Y-24199010D01*
X142392477Y-92203460D02*
X142392477Y-106003028D01*
X142392477Y-106003028D02*
X128192487Y-106003028D01*
X128192487Y-106003028D02*
X128192487Y-92203460D01*
X128192487Y-92203460D02*
X142392477Y-92203460D01*
X142392477Y-92203460D02*
X142392477Y-92203460D01*
X97736906Y-92201690D02*
X97736906Y-106001266D01*
X97736906Y-106001266D02*
X83536932Y-106001266D01*
X83536932Y-106001266D02*
X83536932Y-92201690D01*
X83536932Y-92201690D02*
X97736906Y-92201690D01*
X97736906Y-92201690D02*
X97736906Y-92201690D01*
X280799200Y-24199010D02*
X280799200Y-37998935D01*
X280799200Y-37998935D02*
X266599188Y-37998935D01*
X266599188Y-37998935D02*
X266599188Y-24199010D01*
X266599188Y-24199010D02*
X280799200Y-24199010D01*
X280799200Y-24199010D02*
X280799200Y-24199010D01*
X93273931Y-41199327D02*
X93273931Y-54998901D01*
X93273931Y-54998901D02*
X79073957Y-54998901D01*
X79073957Y-54998901D02*
X79073957Y-41199327D01*
X79073957Y-41199327D02*
X93273931Y-41199327D01*
X93273931Y-41199327D02*
X93273931Y-41199327D01*
X146852621Y-41199327D02*
X146852621Y-54998901D01*
X146852621Y-54998901D02*
X132652654Y-54998901D01*
X132652654Y-54998901D02*
X132652654Y-41199327D01*
X132652654Y-41199327D02*
X146852621Y-41199327D01*
X146852621Y-41199327D02*
X146852621Y-41199327D01*
X191500768Y-75199615D02*
X191500768Y-88999542D01*
X191500768Y-88999542D02*
X177298330Y-88999542D01*
X177298330Y-88999542D02*
X177298330Y-75199615D01*
X177298330Y-75199615D02*
X191500768Y-75199615D01*
X191500768Y-75199615D02*
X191500768Y-75199615D01*
X209359380Y-75199615D02*
X209359380Y-88999542D01*
X209359380Y-88999542D02*
X195159414Y-88999542D01*
X195159414Y-88999542D02*
X195159414Y-75199615D01*
X195159414Y-75199615D02*
X209359380Y-75199615D01*
X209359380Y-75199615D02*
X209359380Y-75199615D01*
X262945501Y-75199615D02*
X262945501Y-88999542D01*
X262945501Y-88999542D02*
X248745504Y-88999542D01*
X248745504Y-88999542D02*
X248745504Y-75199615D01*
X248745504Y-75199615D02*
X262945501Y-75199615D01*
X262945501Y-75199615D02*
X262945501Y-75199615D01*
X20971245Y-75199615D02*
X20915399Y-75198203D01*
X20915399Y-75198203D02*
X20860286Y-75194013D01*
X20860286Y-75194013D02*
X20805975Y-75187113D01*
X20805975Y-75187113D02*
X20752534Y-75177571D01*
X20752534Y-75177571D02*
X20700032Y-75165455D01*
X20700032Y-75165455D02*
X20648535Y-75150834D01*
X20648535Y-75150834D02*
X20598113Y-75133775D01*
X20598113Y-75133775D02*
X20548834Y-75114347D01*
X20548834Y-75114347D02*
X20500765Y-75092618D01*
X20500765Y-75092618D02*
X20453976Y-75068656D01*
X20453976Y-75068656D02*
X20408533Y-75042529D01*
X20408533Y-75042529D02*
X20364506Y-75014305D01*
X20364506Y-75014305D02*
X20321962Y-74984053D01*
X20321962Y-74984053D02*
X20280970Y-74951840D01*
X20280970Y-74951840D02*
X20241597Y-74917735D01*
X20241597Y-74917735D02*
X20203912Y-74881806D01*
X20203912Y-74881806D02*
X20167983Y-74844121D01*
X20167983Y-74844121D02*
X20133878Y-74804748D01*
X20133878Y-74804748D02*
X20101665Y-74763756D01*
X20101665Y-74763756D02*
X20071413Y-74721212D01*
X20071413Y-74721212D02*
X20043189Y-74677184D01*
X20043189Y-74677184D02*
X20017062Y-74631742D01*
X20017062Y-74631742D02*
X19993100Y-74584952D01*
X19993100Y-74584952D02*
X19971371Y-74536883D01*
X19971371Y-74536883D02*
X19951943Y-74487604D01*
X19951943Y-74487604D02*
X19934884Y-74437182D01*
X19934884Y-74437182D02*
X19920263Y-74385685D01*
X19920263Y-74385685D02*
X19908147Y-74333183D01*
X19908147Y-74333183D02*
X19898605Y-74279742D01*
X19898605Y-74279742D02*
X19891705Y-74225431D01*
X19891705Y-74225431D02*
X19887515Y-74170318D01*
X19887515Y-74170318D02*
X19886103Y-74114471D01*
X19886103Y-74114471D02*
X19886103Y-74113761D01*
X19886103Y-74113761D02*
X19882947Y-73986533D01*
X19882947Y-73986533D02*
X19873536Y-73860176D01*
X19873536Y-73860176D02*
X19857956Y-73734900D01*
X19857956Y-73734900D02*
X19836296Y-73610918D01*
X19836296Y-73610918D02*
X19808641Y-73488438D01*
X19808641Y-73488438D02*
X19775078Y-73367671D01*
X19775078Y-73367671D02*
X19735695Y-73248827D01*
X19735695Y-73248827D02*
X19690577Y-73132117D01*
X19690577Y-73132117D02*
X19639812Y-73017751D01*
X19639812Y-73017751D02*
X19583487Y-72905940D01*
X19583487Y-72905940D02*
X19521689Y-72796893D01*
X19521689Y-72796893D02*
X19454504Y-72690821D01*
X19454504Y-72690821D02*
X19382018Y-72587935D01*
X19382018Y-72587935D02*
X19304320Y-72488444D01*
X19304320Y-72488444D02*
X19221496Y-72392559D01*
X19221496Y-72392559D02*
X19133631Y-72300491D01*
X19133631Y-72300491D02*
X19041369Y-72212828D01*
X19041369Y-72212828D02*
X18945299Y-72130214D01*
X18945299Y-72130214D02*
X18845633Y-72052733D01*
X18845633Y-72052733D02*
X18742584Y-71980471D01*
X18742584Y-71980471D02*
X18636361Y-71913517D01*
X18636361Y-71913517D02*
X18527177Y-71851954D01*
X18527177Y-71851954D02*
X18415242Y-71795871D01*
X18415242Y-71795871D02*
X18300769Y-71745352D01*
X18300769Y-71745352D02*
X18183968Y-71700485D01*
X18183968Y-71700485D02*
X18065051Y-71661355D01*
X18065051Y-71661355D02*
X17944230Y-71628050D01*
X17944230Y-71628050D02*
X17821715Y-71600654D01*
X17821715Y-71600654D02*
X17697717Y-71579255D01*
X17697717Y-71579255D02*
X17572449Y-71563938D01*
X17572449Y-71563938D02*
X17446122Y-71554791D01*
X17446122Y-71554791D02*
X17318947Y-71551898D01*
X17318947Y-71551898D02*
X15424887Y-71555782D01*
X15424887Y-71555782D02*
X15071405Y-71409378D01*
X15071405Y-71409378D02*
X14925003Y-71055896D01*
X14925003Y-71055896D02*
X14926061Y-19574458D01*
X14926061Y-19574458D02*
X14932059Y-19417472D01*
X14932059Y-19417472D02*
X14950050Y-19261192D01*
X14950050Y-19261192D02*
X14981094Y-19107382D01*
X14981094Y-19107382D02*
X15023075Y-18955334D01*
X15023075Y-18955334D02*
X15078108Y-18808226D01*
X15078108Y-18808226D02*
X15143019Y-18666410D01*
X15143019Y-18666410D02*
X15219924Y-18529180D01*
X15219924Y-18529180D02*
X15307060Y-18398300D01*
X15307060Y-18398300D02*
X15405132Y-18275180D01*
X15405132Y-18275180D02*
X15510966Y-18159470D01*
X15510966Y-18159470D02*
X15627028Y-18053284D01*
X15627028Y-18053284D02*
X15750148Y-17955212D01*
X15750148Y-17955212D02*
X15881028Y-17868429D01*
X15881028Y-17868429D02*
X16017906Y-17791171D01*
X16017906Y-17791171D02*
X16160075Y-17726260D01*
X16160075Y-17726260D02*
X16307183Y-17671226D01*
X16307183Y-17671226D02*
X16458877Y-17629246D01*
X16458877Y-17629246D02*
X16613040Y-17598202D01*
X16613040Y-17598202D02*
X16768968Y-17580210D01*
X16768968Y-17580210D02*
X16925953Y-17573154D01*
X16925953Y-17573154D02*
X298300451Y-17574212D01*
X298300451Y-17574212D02*
X298456365Y-17580210D01*
X298456365Y-17580210D02*
X298612310Y-17598202D01*
X298612310Y-17598202D02*
X298766454Y-17629246D01*
X298766454Y-17629246D02*
X298919225Y-17671226D01*
X298919225Y-17671226D02*
X299065283Y-17726260D01*
X299065283Y-17726260D02*
X299207433Y-17791171D01*
X299207433Y-17791171D02*
X299344305Y-17868429D01*
X299344305Y-17868429D02*
X299475195Y-17955212D01*
X299475195Y-17955212D02*
X299598303Y-18053284D01*
X299598303Y-18053284D02*
X299714391Y-18159470D01*
X299714391Y-18159470D02*
X299820196Y-18275180D01*
X299820196Y-18275180D02*
X299919347Y-18398300D01*
X299919347Y-18398300D02*
X300005407Y-18529180D01*
X300005407Y-18529180D02*
X300082311Y-18666410D01*
X300082311Y-18666410D02*
X300147222Y-18808226D01*
X300147222Y-18808226D02*
X300202276Y-18955334D01*
X300202276Y-18955334D02*
X300244268Y-19107382D01*
X300244268Y-19107382D02*
X300275305Y-19261192D01*
X300275305Y-19261192D02*
X300294347Y-19417472D01*
X300294347Y-19417472D02*
X300300329Y-19574458D01*
X300300329Y-19574458D02*
X300300329Y-71042491D01*
X300300329Y-71042491D02*
X300299703Y-71067751D01*
X300299703Y-71067751D02*
X300297838Y-71092838D01*
X300297838Y-71092838D02*
X300294750Y-71117710D01*
X300294750Y-71117710D02*
X300290457Y-71142325D01*
X300290457Y-71142325D02*
X300284975Y-71166644D01*
X300284975Y-71166644D02*
X300278321Y-71190623D01*
X300278321Y-71190623D02*
X300270513Y-71214222D01*
X300270513Y-71214222D02*
X300261568Y-71237399D01*
X300261568Y-71237399D02*
X300251502Y-71260113D01*
X300251502Y-71260113D02*
X300240332Y-71282323D01*
X300240332Y-71282323D02*
X300228077Y-71303988D01*
X300228077Y-71303988D02*
X300214751Y-71325065D01*
X300214751Y-71325065D02*
X300200374Y-71345513D01*
X300200374Y-71345513D02*
X300184961Y-71365292D01*
X300184961Y-71365292D02*
X300168530Y-71384360D01*
X300168530Y-71384360D02*
X300151098Y-71402675D01*
X300151098Y-71402675D02*
X300132786Y-71420105D01*
X300132786Y-71420105D02*
X300113722Y-71436535D01*
X300113722Y-71436535D02*
X300093947Y-71451946D01*
X300093947Y-71451946D02*
X300073501Y-71466323D01*
X300073501Y-71466323D02*
X300052427Y-71479647D01*
X300052427Y-71479647D02*
X300030766Y-71491902D01*
X300030766Y-71491902D02*
X300008558Y-71503071D01*
X300008558Y-71503071D02*
X299985845Y-71513137D01*
X299985845Y-71513137D02*
X299962669Y-71522082D01*
X299962669Y-71522082D02*
X299939071Y-71529890D01*
X299939071Y-71529890D02*
X299915092Y-71536544D01*
X299915092Y-71536544D02*
X299890774Y-71542026D01*
X299890774Y-71542026D02*
X299866157Y-71546320D01*
X299866157Y-71546320D02*
X299841283Y-71549408D01*
X299841283Y-71549408D02*
X299816193Y-71551273D01*
X299816193Y-71551273D02*
X299790930Y-71551898D01*
X299790930Y-71551898D02*
X297904272Y-71551898D01*
X297904272Y-71551898D02*
X297777106Y-71555051D01*
X297777106Y-71555051D02*
X297650803Y-71564449D01*
X297650803Y-71564449D02*
X297525573Y-71580006D01*
X297525573Y-71580006D02*
X297401625Y-71601634D01*
X297401625Y-71601634D02*
X297279170Y-71629247D01*
X297279170Y-71629247D02*
X297158417Y-71662756D01*
X297158417Y-71662756D02*
X297039576Y-71702075D01*
X297039576Y-71702075D02*
X296922857Y-71747116D01*
X296922857Y-71747116D02*
X296808470Y-71797791D01*
X296808470Y-71797791D02*
X296696624Y-71854014D01*
X296696624Y-71854014D02*
X296587530Y-71915697D01*
X296587530Y-71915697D02*
X296481396Y-71982753D01*
X296481396Y-71982753D02*
X296378434Y-72055095D01*
X296378434Y-72055095D02*
X296278853Y-72132635D01*
X296278853Y-72132635D02*
X296182863Y-72215285D01*
X296182863Y-72215285D02*
X296090673Y-72302959D01*
X296090673Y-72302959D02*
X296002994Y-72395152D01*
X296002994Y-72395152D02*
X295920338Y-72491145D01*
X295920338Y-72491145D02*
X295842794Y-72590729D01*
X295842794Y-72590729D02*
X295770449Y-72693694D01*
X295770449Y-72693694D02*
X295703389Y-72799829D01*
X295703389Y-72799829D02*
X295641703Y-72908925D01*
X295641703Y-72908925D02*
X295585477Y-73020773D01*
X295585477Y-73020773D02*
X295534799Y-73135162D01*
X295534799Y-73135162D02*
X295489757Y-73251882D01*
X295489757Y-73251882D02*
X295450436Y-73370724D01*
X295450436Y-73370724D02*
X295416926Y-73491478D01*
X295416926Y-73491478D02*
X295389312Y-73613935D01*
X295389312Y-73613935D02*
X295367683Y-73737883D01*
X295367683Y-73737883D02*
X295352125Y-73863114D01*
X295352125Y-73863114D02*
X295342727Y-73989418D01*
X295342727Y-73989418D02*
X295339575Y-74116584D01*
X295339575Y-74116584D02*
X295339575Y-74121173D01*
X295339575Y-74121173D02*
X295338249Y-74174662D01*
X295338249Y-74174662D02*
X295334298Y-74227782D01*
X295334298Y-74227782D02*
X295327757Y-74280446D01*
X295327757Y-74280446D02*
X295318662Y-74332568D01*
X295318662Y-74332568D02*
X295307050Y-74384059D01*
X295307050Y-74384059D02*
X295292956Y-74434833D01*
X295292956Y-74434833D02*
X295276416Y-74484801D01*
X295276416Y-74484801D02*
X295257467Y-74533877D01*
X295257467Y-74533877D02*
X295236145Y-74581974D01*
X295236145Y-74581974D02*
X295212486Y-74629003D01*
X295212486Y-74629003D02*
X295186525Y-74674877D01*
X295186525Y-74674877D02*
X295158300Y-74719510D01*
X295158300Y-74719510D02*
X295127846Y-74762814D01*
X295127846Y-74762814D02*
X295095200Y-74804701D01*
X295095200Y-74804701D02*
X295060397Y-74845084D01*
X295060397Y-74845084D02*
X295023473Y-74883876D01*
X295023473Y-74883876D02*
X294984747Y-74920733D01*
X294984747Y-74920733D02*
X294944422Y-74955479D01*
X294944422Y-74955479D02*
X294902585Y-74988075D01*
X294902585Y-74988075D02*
X294859324Y-75018487D01*
X294859324Y-75018487D02*
X294814728Y-75046677D01*
X294814728Y-75046677D02*
X294768884Y-75072608D01*
X294768884Y-75072608D02*
X294721879Y-75096243D01*
X294721879Y-75096243D02*
X294673803Y-75117547D01*
X294673803Y-75117547D02*
X294624743Y-75136482D01*
X294624743Y-75136482D02*
X294574786Y-75153011D01*
X294574786Y-75153011D02*
X294524021Y-75167098D01*
X294524021Y-75167098D02*
X294472535Y-75178706D01*
X294472535Y-75178706D02*
X294420416Y-75187799D01*
X294420416Y-75187799D02*
X294367753Y-75194339D01*
X294367753Y-75194339D02*
X294314633Y-75198290D01*
X294314633Y-75198290D02*
X294261144Y-75199615D01*
X294261144Y-75199615D02*
X284459600Y-75199615D01*
X284459600Y-75199615D02*
X284459600Y-88999542D01*
X284459600Y-88999542D02*
X298536443Y-88999542D01*
X298536443Y-88999542D02*
X298623909Y-89001706D01*
X298623909Y-89001706D02*
X298710782Y-89008161D01*
X298710782Y-89008161D02*
X298796918Y-89018847D01*
X298796918Y-89018847D02*
X298882173Y-89033705D01*
X298882173Y-89033705D02*
X298966402Y-89052677D01*
X298966402Y-89052677D02*
X299049460Y-89075703D01*
X299049460Y-89075703D02*
X299131204Y-89102724D01*
X299131204Y-89102724D02*
X299211488Y-89133683D01*
X299211488Y-89133683D02*
X299290169Y-89168519D01*
X299290169Y-89168519D02*
X299367101Y-89207174D01*
X299367101Y-89207174D02*
X299442139Y-89249589D01*
X299442139Y-89249589D02*
X299515141Y-89295706D01*
X299515141Y-89295706D02*
X299585960Y-89345465D01*
X299585960Y-89345465D02*
X299654453Y-89398807D01*
X299654453Y-89398807D02*
X299720474Y-89455674D01*
X299720474Y-89455674D02*
X299783880Y-89516006D01*
X299783880Y-89516006D02*
X299844151Y-89579407D01*
X299844151Y-89579407D02*
X299900971Y-89645425D01*
X299900971Y-89645425D02*
X299954281Y-89713914D01*
X299954281Y-89713914D02*
X300004020Y-89784732D01*
X300004020Y-89784732D02*
X300050127Y-89857732D01*
X300050127Y-89857732D02*
X300092543Y-89932771D01*
X300092543Y-89932771D02*
X300131206Y-90009703D01*
X300131206Y-90009703D02*
X300166055Y-90088384D01*
X300166055Y-90088384D02*
X300197032Y-90168669D01*
X300197032Y-90168669D02*
X300224074Y-90250414D01*
X300224074Y-90250414D02*
X300247122Y-90333473D01*
X300247122Y-90333473D02*
X300266115Y-90417702D01*
X300266115Y-90417702D02*
X300280993Y-90502957D01*
X300280993Y-90502957D02*
X300291695Y-90589093D01*
X300291695Y-90589093D02*
X300298160Y-90675964D01*
X300298160Y-90675964D02*
X300300329Y-90763427D01*
X300300329Y-90763427D02*
X300300329Y-110500930D01*
X300300329Y-110500930D02*
X300294347Y-110656150D01*
X300294347Y-110656150D02*
X300275305Y-110812087D01*
X300275305Y-110812087D02*
X300244268Y-110966247D01*
X300244268Y-110966247D02*
X300202276Y-111117950D01*
X300202276Y-111117950D02*
X300147222Y-111266105D01*
X300147222Y-111266105D02*
X300082311Y-111407211D01*
X300082311Y-111407211D02*
X300005407Y-111544090D01*
X300005407Y-111544090D02*
X299919347Y-111674980D01*
X299919347Y-111674980D02*
X299820196Y-111799163D01*
X299820196Y-111799163D02*
X299714391Y-111915214D01*
X299714391Y-111915214D02*
X299598303Y-112019988D01*
X299598303Y-112019988D02*
X299475195Y-112118064D01*
X299475195Y-112118064D02*
X299344305Y-112205200D01*
X299344305Y-112205200D02*
X299207433Y-112282104D01*
X299207433Y-112282104D02*
X299065283Y-112347015D01*
X299065283Y-112347015D02*
X298919225Y-112403106D01*
X298919225Y-112403106D02*
X298766454Y-112445091D01*
X298766454Y-112445091D02*
X298612310Y-112475074D01*
X298612310Y-112475074D02*
X298456365Y-112493064D01*
X298456365Y-112493064D02*
X298300451Y-112499061D01*
X298300451Y-112499061D02*
X16925953Y-112501182D01*
X16925953Y-112501182D02*
X16768968Y-112493064D01*
X16768968Y-112493064D02*
X16613040Y-112475074D01*
X16613040Y-112475074D02*
X16458877Y-112445091D01*
X16458877Y-112445091D02*
X16307183Y-112403106D01*
X16307183Y-112403106D02*
X16160075Y-112347015D01*
X16160075Y-112347015D02*
X16017906Y-112282104D01*
X16017906Y-112282104D02*
X15881028Y-112205200D01*
X15881028Y-112205200D02*
X15750148Y-112118064D01*
X15750148Y-112118064D02*
X15627028Y-112019988D01*
X15627028Y-112019988D02*
X15510966Y-111915214D01*
X15510966Y-111915214D02*
X15405132Y-111799163D01*
X15405132Y-111799163D02*
X15307060Y-111674980D01*
X15307060Y-111674980D02*
X15219924Y-111544090D01*
X15219924Y-111544090D02*
X15143019Y-111407211D01*
X15143019Y-111407211D02*
X15078108Y-111266105D01*
X15078108Y-111266105D02*
X15023075Y-111117950D01*
X15023075Y-111117950D02*
X14981094Y-110966247D01*
X14981094Y-110966247D02*
X14950050Y-110812087D01*
X14950050Y-110812087D02*
X14932059Y-110656150D01*
X14932059Y-110656150D02*
X14925003Y-110500930D01*
X14925003Y-110500930D02*
X14925003Y-90763427D01*
X14925003Y-90763427D02*
X14927172Y-90675964D01*
X14927172Y-90675964D02*
X14933638Y-90589093D01*
X14933638Y-90589093D02*
X14944341Y-90502957D01*
X14944341Y-90502957D02*
X14959222Y-90417702D01*
X14959222Y-90417702D02*
X14978221Y-90333473D01*
X14978221Y-90333473D02*
X15001277Y-90250414D01*
X15001277Y-90250414D02*
X15028331Y-90168669D01*
X15028331Y-90168669D02*
X15059323Y-90088384D01*
X15059323Y-90088384D02*
X15094192Y-90009703D01*
X15094192Y-90009703D02*
X15132879Y-89932771D01*
X15132879Y-89932771D02*
X15175324Y-89857732D01*
X15175324Y-89857732D02*
X15221468Y-89784732D01*
X15221468Y-89784732D02*
X15271249Y-89713914D01*
X15271249Y-89713914D02*
X15324608Y-89645425D01*
X15324608Y-89645425D02*
X15381485Y-89579407D01*
X15381485Y-89579407D02*
X15441821Y-89516006D01*
X15441821Y-89516006D02*
X15505160Y-89455674D01*
X15505160Y-89455674D02*
X15571124Y-89398807D01*
X15571124Y-89398807D02*
X15639567Y-89345465D01*
X15639567Y-89345465D02*
X15710345Y-89295706D01*
X15710345Y-89295706D02*
X15783311Y-89249589D01*
X15783311Y-89249589D02*
X15858322Y-89207174D01*
X15858322Y-89207174D02*
X15935230Y-89168519D01*
X15935230Y-89168519D02*
X16013893Y-89133683D01*
X16013893Y-89133683D02*
X16094163Y-89102724D01*
X16094163Y-89102724D02*
X16175897Y-89075703D01*
X16175897Y-89075703D02*
X16258948Y-89052677D01*
X16258948Y-89052677D02*
X16343171Y-89033705D01*
X16343171Y-89033705D02*
X16428422Y-89018847D01*
X16428422Y-89018847D02*
X16514555Y-89008161D01*
X16514555Y-89008161D02*
X16601426Y-89001706D01*
X16601426Y-89001706D02*
X16688887Y-88999542D01*
X16688887Y-88999542D02*
X30737167Y-88999542D01*
X30737167Y-88999542D02*
X30737167Y-75199615D01*
X30737167Y-75199615D02*
X20971245Y-75199615D01*
X20971245Y-75199615D02*
X20971245Y-75199615D01*
X102202001Y-75199615D02*
X102202001Y-88999542D01*
X102202001Y-88999542D02*
X88002027Y-88999542D01*
X88002027Y-88999542D02*
X88002027Y-75199615D01*
X88002027Y-75199615D02*
X102202001Y-75199615D01*
X102202001Y-75199615D02*
X102202001Y-75199615D01*
X120065923Y-24199010D02*
X120065923Y-37998935D01*
X120065923Y-37998935D02*
X105865949Y-37998935D01*
X105865949Y-37998935D02*
X105865949Y-24199010D01*
X105865949Y-24199010D02*
X107299986Y-24199010D01*
X107299986Y-24199010D02*
X107299986Y-21589167D01*
X107299986Y-21589167D02*
X107302347Y-21498411D01*
X107302347Y-21498411D02*
X107309354Y-21408845D01*
X107309354Y-21408845D02*
X107320895Y-21320579D01*
X107320895Y-21320579D02*
X107336853Y-21233725D01*
X107336853Y-21233725D02*
X107357117Y-21148394D01*
X107357117Y-21148394D02*
X107381571Y-21064697D01*
X107381571Y-21064697D02*
X107410101Y-20982744D01*
X107410101Y-20982744D02*
X107442595Y-20902646D01*
X107442595Y-20902646D02*
X107478937Y-20824515D01*
X107478937Y-20824515D02*
X107519014Y-20748461D01*
X107519014Y-20748461D02*
X107562713Y-20674595D01*
X107562713Y-20674595D02*
X107609918Y-20603028D01*
X107609918Y-20603028D02*
X107660516Y-20533871D01*
X107660516Y-20533871D02*
X107714394Y-20467234D01*
X107714394Y-20467234D02*
X107771436Y-20403230D01*
X107771436Y-20403230D02*
X107831530Y-20341968D01*
X107831530Y-20341968D02*
X107894562Y-20283560D01*
X107894562Y-20283560D02*
X107960416Y-20228116D01*
X107960416Y-20228116D02*
X108028980Y-20175748D01*
X108028980Y-20175748D02*
X108100140Y-20126565D01*
X108100140Y-20126565D02*
X108173781Y-20080681D01*
X108173781Y-20080681D02*
X108249789Y-20038204D01*
X108249789Y-20038204D02*
X108328052Y-19999246D01*
X108328052Y-19999246D02*
X108408454Y-19963918D01*
X108408454Y-19963918D02*
X108490881Y-19932331D01*
X108490881Y-19932331D02*
X108575221Y-19904596D01*
X108575221Y-19904596D02*
X108661358Y-19880823D01*
X108661358Y-19880823D02*
X108749180Y-19861124D01*
X108749180Y-19861124D02*
X108838571Y-19845610D01*
X108838571Y-19845610D02*
X108929419Y-19834391D01*
X108929419Y-19834391D02*
X109021608Y-19827578D01*
X109021608Y-19827578D02*
X109115026Y-19825283D01*
X109115026Y-19825283D02*
X110667234Y-19825283D01*
X110667234Y-19825283D02*
X110760620Y-19827578D01*
X110760620Y-19827578D02*
X110852783Y-19834391D01*
X110852783Y-19834391D02*
X110943606Y-19845610D01*
X110943606Y-19845610D02*
X111032978Y-19861124D01*
X111032978Y-19861124D02*
X111120783Y-19880823D01*
X111120783Y-19880823D02*
X111206907Y-19904596D01*
X111206907Y-19904596D02*
X111291236Y-19932331D01*
X111291236Y-19932331D02*
X111373657Y-19963918D01*
X111373657Y-19963918D02*
X111454054Y-19999246D01*
X111454054Y-19999246D02*
X111532314Y-20038204D01*
X111532314Y-20038204D02*
X111608323Y-20080681D01*
X111608323Y-20080681D02*
X111681966Y-20126565D01*
X111681966Y-20126565D02*
X111753129Y-20175748D01*
X111753129Y-20175748D02*
X111821698Y-20228116D01*
X111821698Y-20228116D02*
X111887560Y-20283560D01*
X111887560Y-20283560D02*
X111950599Y-20341968D01*
X111950599Y-20341968D02*
X112010703Y-20403230D01*
X112010703Y-20403230D02*
X112067755Y-20467234D01*
X112067755Y-20467234D02*
X112121644Y-20533871D01*
X112121644Y-20533871D02*
X112172253Y-20603028D01*
X112172253Y-20603028D02*
X112219470Y-20674595D01*
X112219470Y-20674595D02*
X112263180Y-20748461D01*
X112263180Y-20748461D02*
X112303268Y-20824515D01*
X112303268Y-20824515D02*
X112339622Y-20902646D01*
X112339622Y-20902646D02*
X112372125Y-20982744D01*
X112372125Y-20982744D02*
X112400666Y-21064697D01*
X112400666Y-21064697D02*
X112425129Y-21148394D01*
X112425129Y-21148394D02*
X112445400Y-21233725D01*
X112445400Y-21233725D02*
X112461365Y-21320579D01*
X112461365Y-21320579D02*
X112472909Y-21408845D01*
X112472909Y-21408845D02*
X112479920Y-21498411D01*
X112479920Y-21498411D02*
X112482282Y-21589167D01*
X112482282Y-21589167D02*
X112482282Y-24199010D01*
X112482282Y-24199010D02*
X120065923Y-24199010D01*
X120065923Y-24199010D02*
X120065923Y-24199010D01*
X209361868Y-92203460D02*
X209361868Y-106003028D01*
X209361868Y-106003028D02*
X195161886Y-106003028D01*
X195161886Y-106003028D02*
X195161886Y-92203460D01*
X195161886Y-92203460D02*
X209361868Y-92203460D01*
X209361868Y-92203460D02*
X209361868Y-92203460D01*
X231690862Y-92205223D02*
X231690862Y-106004791D01*
X231690862Y-106004791D02*
X217490896Y-106004791D01*
X217490896Y-106004791D02*
X217490896Y-92205223D01*
X217490896Y-92205223D02*
X231690862Y-92205223D01*
X231690862Y-92205223D02*
X231690862Y-92205223D01*
X35235075Y-41199327D02*
X35235075Y-54998901D01*
X35235075Y-54998901D02*
X21035099Y-54998901D01*
X21035099Y-54998901D02*
X21035099Y-41199327D01*
X21035099Y-41199327D02*
X35235075Y-41199327D01*
X35235075Y-41199327D02*
X35235075Y-41199327D01*
X209361868Y-24199010D02*
X209361868Y-37998935D01*
X209361868Y-37998935D02*
X195161886Y-37998935D01*
X195161886Y-37998935D02*
X195161886Y-24199010D01*
X195161886Y-24199010D02*
X202702154Y-24199010D01*
X202702154Y-24199010D02*
X202702154Y-21589167D01*
X202702154Y-21589167D02*
X202704384Y-21501705D01*
X202704384Y-21501705D02*
X202711034Y-21414835D01*
X202711034Y-21414835D02*
X202722042Y-21328702D01*
X202722042Y-21328702D02*
X202737347Y-21243451D01*
X202737347Y-21243451D02*
X202756887Y-21159227D01*
X202756887Y-21159227D02*
X202780600Y-21076176D01*
X202780600Y-21076176D02*
X202808426Y-20994442D01*
X202808426Y-20994442D02*
X202840303Y-20914172D01*
X202840303Y-20914172D02*
X202876169Y-20835510D01*
X202876169Y-20835510D02*
X202915963Y-20758601D01*
X202915963Y-20758601D02*
X202959624Y-20683590D01*
X202959624Y-20683590D02*
X203007089Y-20610624D01*
X203007089Y-20610624D02*
X203058298Y-20539847D01*
X203058298Y-20539847D02*
X203113188Y-20471403D01*
X203113188Y-20471403D02*
X203171700Y-20405440D01*
X203171700Y-20405440D02*
X203233770Y-20342101D01*
X203233770Y-20342101D02*
X203299000Y-20281765D01*
X203299000Y-20281765D02*
X203366924Y-20224887D01*
X203366924Y-20224887D02*
X203437394Y-20171528D01*
X203437394Y-20171528D02*
X203510260Y-20121747D01*
X203510260Y-20121747D02*
X203585372Y-20075604D01*
X203585372Y-20075604D02*
X203662582Y-20033159D01*
X203662582Y-20033159D02*
X203741740Y-19994471D01*
X203741740Y-19994471D02*
X203822696Y-19959602D01*
X203822696Y-19959602D02*
X203905302Y-19928610D01*
X203905302Y-19928610D02*
X203989408Y-19901557D01*
X203989408Y-19901557D02*
X204074863Y-19878500D01*
X204074863Y-19878500D02*
X204161520Y-19859502D01*
X204161520Y-19859502D02*
X204249229Y-19844621D01*
X204249229Y-19844621D02*
X204337840Y-19833917D01*
X204337840Y-19833917D02*
X204427204Y-19827451D01*
X204427204Y-19827451D02*
X204517172Y-19825283D01*
X204517172Y-19825283D02*
X206105734Y-19825283D01*
X206105734Y-19825283D02*
X206195768Y-19827451D01*
X206195768Y-19827451D02*
X206285190Y-19833917D01*
X206285190Y-19833917D02*
X206373850Y-19844621D01*
X206373850Y-19844621D02*
X206461601Y-19859502D01*
X206461601Y-19859502D02*
X206548293Y-19878500D01*
X206548293Y-19878500D02*
X206633777Y-19901557D01*
X206633777Y-19901557D02*
X206717906Y-19928610D01*
X206717906Y-19928610D02*
X206800529Y-19959602D01*
X206800529Y-19959602D02*
X206881499Y-19994471D01*
X206881499Y-19994471D02*
X206960667Y-20033159D01*
X206960667Y-20033159D02*
X207037884Y-20075604D01*
X207037884Y-20075604D02*
X207113002Y-20121747D01*
X207113002Y-20121747D02*
X207185871Y-20171528D01*
X207185871Y-20171528D02*
X207256343Y-20224887D01*
X207256343Y-20224887D02*
X207324269Y-20281765D01*
X207324269Y-20281765D02*
X207389501Y-20342101D01*
X207389501Y-20342101D02*
X207451512Y-20405440D01*
X207451512Y-20405440D02*
X207509979Y-20471403D01*
X207509979Y-20471403D02*
X207564839Y-20539847D01*
X207564839Y-20539847D02*
X207616030Y-20610624D01*
X207616030Y-20610624D02*
X207663489Y-20683590D01*
X207663489Y-20683590D02*
X207707152Y-20758601D01*
X207707152Y-20758601D02*
X207746956Y-20835510D01*
X207746956Y-20835510D02*
X207782839Y-20914172D01*
X207782839Y-20914172D02*
X207814736Y-20994442D01*
X207814736Y-20994442D02*
X207842585Y-21076176D01*
X207842585Y-21076176D02*
X207866323Y-21159227D01*
X207866323Y-21159227D02*
X207885886Y-21243451D01*
X207885886Y-21243451D02*
X207901212Y-21328702D01*
X207901212Y-21328702D02*
X207912237Y-21414835D01*
X207912237Y-21414835D02*
X207918898Y-21501705D01*
X207918898Y-21501705D02*
X207921133Y-21589167D01*
X207921133Y-21589167D02*
X207921133Y-24199010D01*
X207921133Y-24199010D02*
X209361868Y-24199010D01*
X209361868Y-24199010D02*
X209361868Y-24199010D01*
X262940572Y-24199010D02*
X262940572Y-37998935D01*
X262940572Y-37998935D02*
X248740591Y-37998935D01*
X248740591Y-37998935D02*
X248740591Y-24199010D01*
X248740591Y-24199010D02*
X262940572Y-24199010D01*
X262940572Y-24199010D02*
X262940572Y-24199010D01*
X187037801Y-92203460D02*
X187037801Y-106003028D01*
X187037801Y-106003028D02*
X172837820Y-106003028D01*
X172837820Y-106003028D02*
X172837820Y-92203460D01*
X172837820Y-92203460D02*
X187037801Y-92203460D01*
X187037801Y-92203460D02*
X187037801Y-92203460D01*
X191503240Y-24199010D02*
X191503240Y-37998935D01*
X191503240Y-37998935D02*
X177303274Y-37998935D01*
X177303274Y-37998935D02*
X177303274Y-24199010D01*
X177303274Y-24199010D02*
X191503240Y-24199010D01*
X191503240Y-24199010D02*
X191503240Y-24199010D01*
X93273931Y-58199291D02*
X93273931Y-71999217D01*
X93273931Y-71999217D02*
X79073957Y-71999217D01*
X79073957Y-71999217D02*
X79073957Y-58199291D01*
X79073957Y-58199291D02*
X93273931Y-58199291D01*
X93273931Y-58199291D02*
X93273931Y-58199291D01*
M02*
