%TF.GenerationSoftware,KiCad,Pcbnew,(5.1.10-1-10_14)*%
%TF.CreationDate,2021-12-19T10:45:12+09:00*%
%TF.ProjectId,keyplate,6b657970-6c61-4746-952e-6b696361645f,rev?*%
%TF.SameCoordinates,Original*%
%TF.FileFunction,Profile,NP*%
%FSLAX46Y46*%
G04 Gerber Fmt 4.6, Leading zero omitted, Abs format (unit mm)*
G04 Created by KiCad (PCBNEW (5.1.10-1-10_14)) date 2021-12-19 10:45:12*
%MOMM*%
%LPD*%
G01*
G04 APERTURE LIST*
%TA.AperFunction,Profile*%
%ADD10C,0.200000*%
%TD*%
G04 APERTURE END LIST*
D10*
%TO.C,REF\u002A\u002A*%
X24150000Y-72605000D02*
X24137432Y-72351413D01*
X24137432Y-72351413D02*
X24100192Y-72102154D01*
X24100192Y-72102154D02*
X24038974Y-71858907D01*
X24038974Y-71858907D02*
X23954473Y-71623354D01*
X23954473Y-71623354D02*
X23847383Y-71397176D01*
X23847383Y-71397176D02*
X23718399Y-71182057D01*
X23718399Y-71182057D02*
X23568215Y-70979680D01*
X23568215Y-70979680D02*
X23397527Y-70791727D01*
X23397527Y-70791727D02*
X23209194Y-70621450D01*
X23209194Y-70621450D02*
X23006479Y-70471708D01*
X23006479Y-70471708D02*
X22791072Y-70343191D01*
X22791072Y-70343191D02*
X22564664Y-70236589D01*
X22564664Y-70236589D02*
X22328946Y-70152592D01*
X22328946Y-70152592D02*
X22085610Y-70091891D01*
X22085610Y-70091891D02*
X21836345Y-70055176D01*
X21836345Y-70055176D02*
X21582843Y-70043137D01*
X19688783Y-70047018D02*
X19335301Y-69900612D01*
X24150000Y-72605705D02*
X24150000Y-72605000D01*
X19335301Y-69900612D02*
X19188899Y-69547130D01*
X19188899Y-69547130D02*
X19189957Y-18065692D01*
X25235142Y-73690848D02*
X25016430Y-73668804D01*
X25016430Y-73668804D02*
X24812730Y-73605580D01*
X24812730Y-73605580D02*
X24628402Y-73505538D01*
X24628402Y-73505538D02*
X24467808Y-73373040D01*
X24467808Y-73373040D02*
X24335309Y-73212446D01*
X24335309Y-73212446D02*
X24235267Y-73028117D01*
X24235267Y-73028117D02*
X24172043Y-72824416D01*
X24172043Y-72824416D02*
X24150000Y-72605705D01*
X19189957Y-18065692D02*
X19195954Y-17908707D01*
X19195954Y-17908707D02*
X19213946Y-17752426D01*
X19213946Y-17752426D02*
X19244990Y-17598616D01*
X19244990Y-17598616D02*
X19286971Y-17446569D01*
X19286971Y-17446569D02*
X19342004Y-17299461D01*
X19342004Y-17299461D02*
X19406915Y-17157645D01*
X19406915Y-17157645D02*
X19483820Y-17020414D01*
X19483820Y-17020414D02*
X19570956Y-16889534D01*
X19570956Y-16889534D02*
X19669028Y-16766415D01*
X19669028Y-16766415D02*
X19774861Y-16650704D01*
X19774861Y-16650704D02*
X19890924Y-16544518D01*
X19890924Y-16544518D02*
X20014044Y-16446446D01*
X20014044Y-16446446D02*
X20144924Y-16359663D01*
X20144924Y-16359663D02*
X20281802Y-16282405D01*
X20281802Y-16282405D02*
X20423971Y-16217494D01*
X20423971Y-16217494D02*
X20571079Y-16162461D01*
X20571079Y-16162461D02*
X20722773Y-16120481D01*
X20722773Y-16120481D02*
X20876936Y-16089436D01*
X20876936Y-16089436D02*
X21032864Y-16071445D01*
X21032864Y-16071445D02*
X21189849Y-16064389D01*
X21189849Y-16064389D02*
X302564345Y-16065447D01*
X302564345Y-16065447D02*
X302720278Y-16071445D01*
X302720278Y-16071445D02*
X302876211Y-16089436D01*
X302876211Y-16089436D02*
X303030357Y-16120481D01*
X303030357Y-16120481D02*
X303183125Y-16162461D01*
X303183125Y-16162461D02*
X303329176Y-16217494D01*
X303329176Y-16217494D02*
X303471329Y-16282405D01*
X303471329Y-16282405D02*
X303608206Y-16359663D01*
X303608206Y-16359663D02*
X303739098Y-16446446D01*
X303739098Y-16446446D02*
X303862217Y-16544518D01*
X303862217Y-16544518D02*
X303978273Y-16650704D01*
X303978273Y-16650704D02*
X304084102Y-16766415D01*
X304084102Y-16766415D02*
X304183234Y-16889534D01*
X304183234Y-16889534D02*
X304269318Y-17020414D01*
X304269318Y-17020414D02*
X304346230Y-17157645D01*
X304346230Y-17157645D02*
X304411127Y-17299461D01*
X304411127Y-17299461D02*
X304466162Y-17446569D01*
X304466162Y-17446569D02*
X304508149Y-17598616D01*
X304508149Y-17598616D02*
X304539198Y-17752426D01*
X304539198Y-17752426D02*
X304558253Y-17908707D01*
X304558253Y-17908707D02*
X304564239Y-18065692D01*
X304564239Y-18065692D02*
X304564239Y-64291106D01*
X304564239Y-64291106D02*
X304543911Y-64559693D01*
X304543911Y-64559693D02*
X304484925Y-64815576D01*
X304484925Y-64815576D02*
X304390274Y-65055758D01*
X304390274Y-65055758D02*
X304262954Y-65277245D01*
X304262954Y-65277245D02*
X304105959Y-65477043D01*
X304105959Y-65477043D02*
X303922284Y-65652157D01*
X303922284Y-65652157D02*
X303714924Y-65799592D01*
X303714924Y-65799592D02*
X303486873Y-65916355D01*
X303486873Y-65916355D02*
X303241125Y-65999450D01*
X303241125Y-65999450D02*
X302980676Y-66045882D01*
X302980676Y-66045882D02*
X302800355Y-66054991D01*
X302800355Y-66054991D02*
X302557019Y-66054991D01*
X302557019Y-66054991D02*
X302284099Y-66054991D01*
X302284099Y-66054991D02*
X302042076Y-66054991D01*
X302042076Y-66054991D02*
X301773990Y-66054991D01*
X301773990Y-66054991D02*
X301485184Y-66054991D01*
X301485184Y-66054991D02*
X301283774Y-66054991D01*
X301283774Y-66054991D02*
X301077114Y-66054991D01*
X301077114Y-66054991D02*
X300866787Y-66054991D01*
X300866787Y-66054991D02*
X300654375Y-66054991D01*
X300654375Y-66054991D02*
X300441463Y-66054991D01*
X300441463Y-66054991D02*
X300229634Y-66054991D01*
X300229634Y-66054991D02*
X300020471Y-66054991D01*
X300020471Y-66054991D02*
X299802972Y-66041530D01*
X299802972Y-66041530D02*
X299590525Y-66001773D01*
X299590525Y-66001773D02*
X299385389Y-65936656D01*
X299385389Y-65936656D02*
X299189825Y-65847115D01*
X299189825Y-65847115D02*
X299006092Y-65734088D01*
X299006092Y-65734088D02*
X298836452Y-65598509D01*
X298836452Y-65598509D02*
X298773048Y-65538174D01*
X298773048Y-65538174D02*
X298628737Y-65374950D01*
X298628737Y-65374950D02*
X298506636Y-65196684D01*
X298506636Y-65196684D02*
X298407667Y-65005643D01*
X298407667Y-65005643D02*
X298332749Y-64804098D01*
X298332749Y-64804098D02*
X298282804Y-64594316D01*
X298282804Y-64594316D02*
X298258751Y-64378568D01*
X298258751Y-64378568D02*
X298256587Y-64291106D01*
X298256587Y-56690884D02*
X284456667Y-56691234D01*
X284456667Y-56691234D02*
X284456667Y-70491159D01*
X297845243Y-70489399D02*
X298071580Y-70511800D01*
X298071580Y-70511800D02*
X298287196Y-70577329D01*
X298287196Y-70577329D02*
X298486006Y-70683470D01*
X298486006Y-70683470D02*
X298661923Y-70827712D01*
X298661923Y-70827712D02*
X298806168Y-71003587D01*
X298806168Y-71003587D02*
X298912315Y-71202316D01*
X298912315Y-71202316D02*
X298977848Y-71417913D01*
X298977848Y-71417913D02*
X299000252Y-71644391D01*
X299000252Y-71644391D02*
X299000252Y-71865238D01*
X299000252Y-71865238D02*
X299000252Y-72090121D01*
X299000252Y-72090121D02*
X299000252Y-72315005D01*
X299000252Y-72315005D02*
X299000252Y-72535856D01*
X299000252Y-72535856D02*
X298976783Y-72768608D01*
X298976783Y-72768608D02*
X298909477Y-72985403D01*
X298909477Y-72985403D02*
X298802979Y-73181594D01*
X298802979Y-73181594D02*
X298661936Y-73352534D01*
X298661936Y-73352534D02*
X298490994Y-73493576D01*
X298490994Y-73493576D02*
X298294800Y-73600073D01*
X298294800Y-73600073D02*
X298078001Y-73667380D01*
X298078001Y-73667380D02*
X297845243Y-73690848D01*
X288927055Y-73690848D02*
X288927055Y-87490774D01*
X288927055Y-87490774D02*
X302800355Y-87490774D01*
X302800355Y-87490774D02*
X303017854Y-87504211D01*
X303017854Y-87504211D02*
X303230305Y-87543910D01*
X303230305Y-87543910D02*
X303435443Y-87608949D01*
X303435443Y-87608949D02*
X303631009Y-87698409D01*
X303631009Y-87698409D02*
X303814741Y-87811369D01*
X303814741Y-87811369D02*
X303984377Y-87946909D01*
X303984377Y-87946909D02*
X304047778Y-88007241D01*
X304047778Y-88007241D02*
X304191974Y-88170605D01*
X304191974Y-88170605D02*
X304314037Y-88348969D01*
X304314037Y-88348969D02*
X304413022Y-88540070D01*
X304413022Y-88540070D02*
X304487985Y-88741649D01*
X304487985Y-88741649D02*
X304537983Y-88951444D01*
X304537983Y-88951444D02*
X304562070Y-89167196D01*
X304562070Y-89167196D02*
X304564239Y-89254658D01*
X304564239Y-108992169D02*
X304558253Y-109147392D01*
X304558253Y-109147392D02*
X304539198Y-109303325D01*
X304539198Y-109303325D02*
X304508149Y-109457482D01*
X304508149Y-109457482D02*
X304466162Y-109609184D01*
X304466162Y-109609184D02*
X304411127Y-109757344D01*
X304411127Y-109757344D02*
X304346230Y-109898453D01*
X304346230Y-109898453D02*
X304269318Y-110035331D01*
X304269318Y-110035331D02*
X304183234Y-110166212D01*
X304183234Y-110166212D02*
X304084102Y-110290396D01*
X304084102Y-110290396D02*
X303978273Y-110406453D01*
X303978273Y-110406453D02*
X303862217Y-110511226D01*
X303862217Y-110511226D02*
X303739098Y-110609304D01*
X303739098Y-110609304D02*
X303608206Y-110696443D01*
X303608206Y-110696443D02*
X303471329Y-110773344D01*
X303471329Y-110773344D02*
X303329176Y-110838251D01*
X303329176Y-110838251D02*
X303183125Y-110894341D01*
X303183125Y-110894341D02*
X303030357Y-110936328D01*
X303030357Y-110936328D02*
X302876211Y-110966312D01*
X302876211Y-110966312D02*
X302720278Y-110984301D01*
X302720278Y-110984301D02*
X302564345Y-110990298D01*
X302564345Y-110990298D02*
X21189849Y-110992419D01*
X21189849Y-110992419D02*
X21032864Y-110984301D01*
X21032864Y-110984301D02*
X20876936Y-110966312D01*
X20876936Y-110966312D02*
X20722773Y-110936328D01*
X20722773Y-110936328D02*
X20571079Y-110894341D01*
X20571079Y-110894341D02*
X20423971Y-110838251D01*
X20423971Y-110838251D02*
X20281802Y-110773344D01*
X20281802Y-110773344D02*
X20144924Y-110696443D01*
X20144924Y-110696443D02*
X20014044Y-110609304D01*
X20014044Y-110609304D02*
X19890924Y-110511226D01*
X19890924Y-110511226D02*
X19774861Y-110406453D01*
X19774861Y-110406453D02*
X19669028Y-110290396D01*
X19669028Y-110290396D02*
X19570956Y-110166212D01*
X19570956Y-110166212D02*
X19483820Y-110035331D01*
X19483820Y-110035331D02*
X19406915Y-109898453D01*
X19406915Y-109898453D02*
X19342004Y-109757344D01*
X19342004Y-109757344D02*
X19286971Y-109609184D01*
X19286971Y-109609184D02*
X19244990Y-109457482D01*
X19244990Y-109457482D02*
X19213946Y-109303325D01*
X19213946Y-109303325D02*
X19195954Y-109147392D01*
X19195954Y-109147392D02*
X19188899Y-108992169D01*
X19188899Y-108992169D02*
X19188899Y-89254658D01*
X19188899Y-89254658D02*
X19202359Y-89037157D01*
X19202359Y-89037157D02*
X19242116Y-88824708D01*
X19242116Y-88824708D02*
X19307234Y-88619571D01*
X19307234Y-88619571D02*
X19396775Y-88424007D01*
X19396775Y-88424007D02*
X19509803Y-88240278D01*
X19509803Y-88240278D02*
X19645381Y-88070642D01*
X19645381Y-88070642D02*
X19705717Y-88007241D01*
X19705717Y-88007241D02*
X19868940Y-87862927D01*
X19868940Y-87862927D02*
X20047207Y-87740825D01*
X20047207Y-87740825D02*
X20238247Y-87641855D01*
X20238247Y-87641855D02*
X20439792Y-87566936D01*
X20439792Y-87566936D02*
X20649573Y-87516991D01*
X20649573Y-87516991D02*
X20865321Y-87492938D01*
X20865321Y-87492938D02*
X20952783Y-87490774D01*
X34818326Y-87490774D02*
X34818326Y-73690848D01*
X34818326Y-73690848D02*
X25235142Y-73690848D01*
X106273641Y-104490743D02*
X92473710Y-104490743D01*
X92473710Y-104490743D02*
X92473710Y-90691168D01*
X92473710Y-90691168D02*
X106273641Y-90691168D01*
X106273641Y-90691168D02*
X106273641Y-104490743D01*
X150924260Y-104492509D02*
X150924260Y-90692928D01*
X150924260Y-90692928D02*
X137124329Y-90692928D01*
X137124329Y-90692928D02*
X137124329Y-104492509D01*
X137124329Y-104492509D02*
X150924260Y-104492509D01*
X168785356Y-104492509D02*
X168785356Y-90692928D01*
X168785356Y-90692928D02*
X154985425Y-90692928D01*
X154985425Y-90692928D02*
X154985425Y-104492509D01*
X154985425Y-104492509D02*
X168785356Y-104492509D01*
X231289653Y-104492509D02*
X231289653Y-90692928D01*
X231289653Y-90692928D02*
X217489733Y-90692928D01*
X217489733Y-90692928D02*
X217489733Y-104492509D01*
X217489733Y-104492509D02*
X231289653Y-104492509D01*
X128589955Y-104490743D02*
X128589955Y-90691168D01*
X128589955Y-90691168D02*
X114790025Y-90691168D01*
X114790025Y-90691168D02*
X114790025Y-104490743D01*
X114790025Y-104490743D02*
X128589955Y-104490743D01*
X83947093Y-104490743D02*
X83947093Y-90691168D01*
X83947093Y-90691168D02*
X70147168Y-90691168D01*
X70147168Y-90691168D02*
X70147168Y-104490743D01*
X70147168Y-104490743D02*
X83947093Y-104490743D01*
X208960301Y-90691168D02*
X208960301Y-98695321D01*
X211462188Y-98694616D02*
X211679709Y-98708075D01*
X211679709Y-98708075D02*
X211892207Y-98747822D01*
X211892207Y-98747822D02*
X212097397Y-98812914D01*
X212097397Y-98812914D02*
X212292994Y-98902405D01*
X212292994Y-98902405D02*
X212476712Y-99015352D01*
X212476712Y-99015352D02*
X212646266Y-99150808D01*
X212646266Y-99150808D02*
X212709611Y-99211083D01*
X212709611Y-99211083D02*
X212853944Y-99374446D01*
X212853944Y-99374446D02*
X212976102Y-99552809D01*
X212976102Y-99552809D02*
X213075148Y-99743910D01*
X213075148Y-99743910D02*
X213150145Y-99945490D01*
X213150145Y-99945490D02*
X213200157Y-100155286D01*
X213200157Y-100155286D02*
X213224248Y-100371038D01*
X213224248Y-100371038D02*
X213226417Y-100458500D01*
X213226417Y-100458500D02*
X213226417Y-101983904D01*
X213226417Y-101983904D02*
X213206106Y-102249109D01*
X213206106Y-102249109D02*
X213147168Y-102495744D01*
X213147168Y-102495744D02*
X213052589Y-102722166D01*
X213052589Y-102722166D02*
X212925357Y-102926736D01*
X212925357Y-102926736D02*
X212768459Y-103107812D01*
X212768459Y-103107812D02*
X212584884Y-103263752D01*
X212584884Y-103263752D02*
X212377618Y-103392916D01*
X212377618Y-103392916D02*
X212149650Y-103493663D01*
X212149650Y-103493663D02*
X211903967Y-103564351D01*
X211903967Y-103564351D02*
X211643556Y-103603339D01*
X211643556Y-103603339D02*
X211463243Y-103610911D01*
X208960301Y-103611977D02*
X208960301Y-104490743D01*
X208960301Y-104490743D02*
X195160726Y-104490743D01*
X195160726Y-104490743D02*
X195160726Y-90691168D01*
X195160726Y-90691168D02*
X208960301Y-90691168D01*
X186636569Y-104490743D02*
X186636569Y-90691168D01*
X186636569Y-90691168D02*
X172836638Y-90691168D01*
X172836638Y-90691168D02*
X172836638Y-104490743D01*
X172836638Y-104490743D02*
X186636569Y-104490743D01*
X253605978Y-104490743D02*
X253605978Y-90691168D01*
X253605978Y-90691168D02*
X239806037Y-90691168D01*
X239806037Y-90691168D02*
X239806037Y-104490743D01*
X239806037Y-104490743D02*
X253605978Y-104490743D01*
X249140521Y-87490774D02*
X249140521Y-73690848D01*
X249140521Y-73690848D02*
X235338125Y-73690848D01*
X235338125Y-73690848D02*
X235338125Y-87490774D01*
X235338125Y-87490774D02*
X249140521Y-87490774D01*
X52684712Y-87490774D02*
X52684712Y-73690848D01*
X52684712Y-73690848D02*
X38885139Y-73690848D01*
X38885139Y-73690848D02*
X38885139Y-87490774D01*
X38885139Y-87490774D02*
X52684712Y-87490774D01*
X195564640Y-87490774D02*
X195564640Y-73690848D01*
X195564640Y-73690848D02*
X181762255Y-73690848D01*
X181762255Y-73690848D02*
X181762255Y-87490774D01*
X181762255Y-87490774D02*
X195564640Y-87490774D01*
X70548628Y-87490774D02*
X70548628Y-73690848D01*
X70548628Y-73690848D02*
X56748703Y-73690848D01*
X56748703Y-73690848D02*
X56748703Y-87490774D01*
X56748703Y-87490774D02*
X70548628Y-87490774D01*
X106265879Y-87490774D02*
X106265879Y-73690848D01*
X106265879Y-73690848D02*
X92466303Y-73690848D01*
X92466303Y-73690848D02*
X92466303Y-87490774D01*
X92466303Y-87490774D02*
X106265879Y-87490774D01*
X88407253Y-87490774D02*
X88407253Y-73690848D01*
X88407253Y-73690848D02*
X74607328Y-73690848D01*
X74607328Y-73690848D02*
X74607328Y-87490774D01*
X74607328Y-87490774D02*
X88407253Y-87490774D01*
X267009369Y-87490774D02*
X267009369Y-73690848D01*
X267009369Y-73690848D02*
X253209793Y-73690848D01*
X253209793Y-73690848D02*
X253209793Y-87490774D01*
X253209793Y-87490774D02*
X267009369Y-87490774D01*
X213423282Y-87490774D02*
X213423282Y-73690848D01*
X213423282Y-73690848D02*
X199623340Y-73690848D01*
X199623340Y-73690848D02*
X199623340Y-87490774D01*
X199623340Y-87490774D02*
X213423282Y-87490774D01*
X177703200Y-87490774D02*
X177703200Y-73690848D01*
X177703200Y-73690848D02*
X163903625Y-73690848D01*
X163903625Y-73690848D02*
X163903625Y-87490774D01*
X163903625Y-87490774D02*
X177703200Y-87490774D01*
X141985950Y-87490774D02*
X141985950Y-73690848D01*
X141985950Y-73690848D02*
X128186019Y-73690848D01*
X128186019Y-73690848D02*
X128186019Y-87490774D01*
X128186019Y-87490774D02*
X141985950Y-87490774D01*
X159844569Y-87490774D02*
X159844569Y-73690848D01*
X159844569Y-73690848D02*
X146044650Y-73690848D01*
X146044650Y-73690848D02*
X146044650Y-87490774D01*
X146044650Y-87490774D02*
X159844569Y-87490774D01*
X124124498Y-87490774D02*
X124124498Y-73690848D01*
X124124498Y-73690848D02*
X110324934Y-73690848D01*
X110324934Y-73690848D02*
X110324934Y-87490774D01*
X110324934Y-87490774D02*
X124124498Y-87490774D01*
X284868010Y-87490774D02*
X284868010Y-73690848D01*
X284868010Y-73690848D02*
X271068435Y-73690848D01*
X271068435Y-73690848D02*
X271068435Y-87490774D01*
X271068435Y-87490774D02*
X284868010Y-87490774D01*
X231281902Y-87490774D02*
X231281902Y-73690848D01*
X231281902Y-73690848D02*
X217481960Y-73690848D01*
X217481960Y-73690848D02*
X217481960Y-87490774D01*
X217481960Y-87490774D02*
X231281902Y-87490774D01*
X275938862Y-70490454D02*
X275938862Y-56690529D01*
X275938862Y-56690529D02*
X262138942Y-56690529D01*
X262138942Y-56690529D02*
X262138942Y-70490454D01*
X262138942Y-70490454D02*
X275938862Y-70490454D01*
X258080242Y-70490454D02*
X258080242Y-56690529D01*
X258080242Y-56690529D02*
X244280322Y-56690529D01*
X244280322Y-56690529D02*
X244280322Y-70490454D01*
X244280322Y-70490454D02*
X258080242Y-70490454D01*
X240214904Y-70490454D02*
X240214904Y-56690529D01*
X240214904Y-56690529D02*
X226415329Y-56690529D01*
X226415329Y-56690529D02*
X226415329Y-70490454D01*
X226415329Y-70490454D02*
X240214904Y-70490454D01*
X150916498Y-70490454D02*
X150916498Y-56690529D01*
X150916498Y-56690529D02*
X137116567Y-56690529D01*
X137116567Y-56690529D02*
X137116567Y-70490454D01*
X137116567Y-70490454D02*
X150916498Y-70490454D01*
X97337801Y-70490454D02*
X97337801Y-56690529D01*
X97337801Y-56690529D02*
X83538226Y-56690529D01*
X83538226Y-56690529D02*
X83538226Y-70490454D01*
X83538226Y-70490454D02*
X97337801Y-70490454D01*
X61620551Y-70490454D02*
X61620551Y-56690529D01*
X61620551Y-56690529D02*
X47820623Y-56690529D01*
X47820623Y-56690529D02*
X47820623Y-70490454D01*
X47820623Y-70490454D02*
X61620551Y-70490454D01*
X186636569Y-70490454D02*
X186636569Y-56690529D01*
X186636569Y-56690529D02*
X172834173Y-56690529D01*
X172834173Y-56690529D02*
X172834173Y-70490454D01*
X172834173Y-70490454D02*
X186636569Y-70490454D01*
X79479176Y-70490454D02*
X79479176Y-56690529D01*
X79479176Y-56690529D02*
X65679251Y-56690529D01*
X65679251Y-56690529D02*
X65679251Y-70490454D01*
X65679251Y-70490454D02*
X79479176Y-70490454D01*
X204495188Y-70490454D02*
X204495188Y-56690529D01*
X204495188Y-56690529D02*
X190695269Y-56690529D01*
X190695269Y-56690529D02*
X190695269Y-70490454D01*
X190695269Y-70490454D02*
X204495188Y-70490454D01*
X168775117Y-70490454D02*
X168775117Y-56690529D01*
X168775117Y-56690529D02*
X154975553Y-56690529D01*
X154975553Y-56690529D02*
X154975553Y-70490454D01*
X154975553Y-70490454D02*
X168775117Y-70490454D01*
X115196427Y-70490454D02*
X115196427Y-56690529D01*
X115196427Y-56690529D02*
X101396851Y-56690529D01*
X101396851Y-56690529D02*
X101396851Y-70490454D01*
X101396851Y-70490454D02*
X115196427Y-70490454D01*
X133057867Y-70490454D02*
X133057867Y-56690529D01*
X133057867Y-56690529D02*
X119257947Y-56690529D01*
X119257947Y-56690529D02*
X119257947Y-70490454D01*
X119257947Y-70490454D02*
X133057867Y-70490454D01*
X222353808Y-70490454D02*
X222353808Y-56690529D01*
X222353808Y-56690529D02*
X208553888Y-56690529D01*
X208553888Y-56690529D02*
X208553888Y-70490454D01*
X208553888Y-70490454D02*
X222353808Y-70490454D01*
X39298945Y-70490454D02*
X39298945Y-56690529D01*
X39298945Y-56690529D02*
X25499372Y-56690529D01*
X25499372Y-56690529D02*
X25499372Y-70490454D01*
X25499372Y-70490454D02*
X39298945Y-70490454D01*
X258080242Y-53490137D02*
X258080242Y-39690562D01*
X258080242Y-39690562D02*
X244280322Y-39690562D01*
X244280322Y-39690562D02*
X244280322Y-53490137D01*
X244280322Y-53490137D02*
X258080242Y-53490137D01*
X240214904Y-53490137D02*
X240214904Y-39690562D01*
X240214904Y-39690562D02*
X226415329Y-39690562D01*
X226415329Y-39690562D02*
X226415329Y-53490137D01*
X226415329Y-53490137D02*
X240214904Y-53490137D01*
X44577547Y-46529143D02*
X44332290Y-46516739D01*
X44332290Y-46516739D02*
X44094081Y-46480337D01*
X44094081Y-46480337D02*
X43864131Y-46421147D01*
X43864131Y-46421147D02*
X43643652Y-46340380D01*
X43643652Y-46340380D02*
X43433852Y-46239245D01*
X43433852Y-46239245D02*
X43235944Y-46118955D01*
X43235944Y-46118955D02*
X43051138Y-45980720D01*
X43051138Y-45980720D02*
X42880645Y-45825750D01*
X42880645Y-45825750D02*
X42725675Y-45655257D01*
X42725675Y-45655257D02*
X42587440Y-45470451D01*
X42587440Y-45470451D02*
X42467150Y-45272543D01*
X42467150Y-45272543D02*
X42366015Y-45062743D01*
X42366015Y-45062743D02*
X42285248Y-44842264D01*
X42285248Y-44842264D02*
X42226058Y-44612314D01*
X42226058Y-44612314D02*
X42189656Y-44374105D01*
X42189656Y-44374105D02*
X42177253Y-44128849D01*
X42177253Y-44128849D02*
X42189656Y-43883654D01*
X42189656Y-43883654D02*
X42226058Y-43645500D01*
X42226058Y-43645500D02*
X42285248Y-43415598D01*
X42285248Y-43415598D02*
X42366015Y-43195159D01*
X42366015Y-43195159D02*
X42467150Y-42985394D01*
X42467150Y-42985394D02*
X42587440Y-42787514D01*
X42587440Y-42787514D02*
X42725675Y-42602732D01*
X42725675Y-42602732D02*
X42880645Y-42432258D01*
X42880645Y-42432258D02*
X43051138Y-42277302D01*
X43051138Y-42277302D02*
X43235944Y-42139078D01*
X43235944Y-42139078D02*
X43433852Y-42018796D01*
X43433852Y-42018796D02*
X43643652Y-41917667D01*
X43643652Y-41917667D02*
X43864131Y-41836902D01*
X43864131Y-41836902D02*
X44094081Y-41777714D01*
X44094081Y-41777714D02*
X44332290Y-41741312D01*
X44332290Y-41741312D02*
X44577547Y-41728910D01*
X44577547Y-41728910D02*
X47820623Y-41728910D01*
X47820623Y-41728910D02*
X47820623Y-39690562D01*
X47820623Y-39690562D02*
X61620551Y-39690562D01*
X61620551Y-39690562D02*
X61620551Y-53490137D01*
X61620551Y-53490137D02*
X47820623Y-53490137D01*
X47820623Y-53490137D02*
X47820623Y-46529143D01*
X47820623Y-46529143D02*
X44577547Y-46529143D01*
X222353808Y-53490137D02*
X222353808Y-39690562D01*
X222353808Y-39690562D02*
X208553888Y-39690562D01*
X208553888Y-39690562D02*
X208553888Y-53490137D01*
X208553888Y-53490137D02*
X222353808Y-53490137D01*
X133057867Y-53490137D02*
X133057867Y-39690562D01*
X133057867Y-39690562D02*
X119257947Y-39690562D01*
X119257947Y-39690562D02*
X119257947Y-53490137D01*
X119257947Y-53490137D02*
X133057867Y-53490137D01*
X150916498Y-53490137D02*
X150916498Y-39690562D01*
X150916498Y-39690562D02*
X137116567Y-39690562D01*
X137116567Y-39690562D02*
X137116567Y-53490137D01*
X137116567Y-53490137D02*
X150916498Y-53490137D01*
X168775117Y-53490137D02*
X168775117Y-39690562D01*
X168775117Y-39690562D02*
X154975553Y-39690562D01*
X154975553Y-39690562D02*
X154975553Y-53490137D01*
X154975553Y-53490137D02*
X168775117Y-53490137D01*
X204495188Y-53490137D02*
X204495188Y-39690562D01*
X204495188Y-39690562D02*
X190695269Y-39690562D01*
X190695269Y-39690562D02*
X190695269Y-53490137D01*
X190695269Y-53490137D02*
X204495188Y-53490137D01*
X79479176Y-53490137D02*
X79479176Y-39690562D01*
X79479176Y-39690562D02*
X65679251Y-39690562D01*
X65679251Y-39690562D02*
X65679251Y-53490137D01*
X65679251Y-53490137D02*
X79479176Y-53490137D01*
X115196427Y-53490137D02*
X115196427Y-39690562D01*
X115196427Y-39690562D02*
X101396851Y-39690562D01*
X101396851Y-39690562D02*
X101396851Y-53490137D01*
X101396851Y-53490137D02*
X115196427Y-53490137D01*
X97337801Y-53490137D02*
X97337801Y-39690562D01*
X97337801Y-39690562D02*
X83538226Y-39690562D01*
X83538226Y-39690562D02*
X83538226Y-53490137D01*
X83538226Y-53490137D02*
X97337801Y-53490137D01*
X186636569Y-53490137D02*
X186636569Y-39690562D01*
X186636569Y-39690562D02*
X172834173Y-39690562D01*
X172834173Y-39690562D02*
X172834173Y-53490137D01*
X172834173Y-53490137D02*
X186636569Y-53490137D01*
X39298945Y-53490137D02*
X39298945Y-39690562D01*
X39298945Y-39690562D02*
X25499372Y-39690562D01*
X25499372Y-39690562D02*
X25499372Y-53490137D01*
X25499372Y-53490137D02*
X39298945Y-53490137D01*
X275938862Y-41411410D02*
X276006000Y-41606485D01*
X276006000Y-41606485D02*
X276032008Y-41635774D01*
X276032008Y-41635774D02*
X276217172Y-41726483D01*
X276217172Y-41726483D02*
X276256370Y-41728910D01*
X276256370Y-41728910D02*
X276551356Y-41728910D01*
X276551356Y-41728910D02*
X276925418Y-41728910D01*
X276925418Y-41728910D02*
X277138572Y-41728910D01*
X277138572Y-41728910D02*
X277367258Y-41728910D01*
X277367258Y-41728910D02*
X277610065Y-41728910D01*
X277610065Y-41728910D02*
X277865581Y-41728910D01*
X277865581Y-41728910D02*
X278132393Y-41728910D01*
X278132393Y-41728910D02*
X278409089Y-41728910D01*
X278409089Y-41728910D02*
X278694258Y-41728910D01*
X278694258Y-41728910D02*
X278986486Y-41728910D01*
X278986486Y-41728910D02*
X279284364Y-41728910D01*
X279284364Y-41728910D02*
X279586477Y-41728910D01*
X279586477Y-41728910D02*
X279891414Y-41728910D01*
X279891414Y-41728910D02*
X280197764Y-41728910D01*
X280197764Y-41728910D02*
X280504113Y-41728910D01*
X280504113Y-41728910D02*
X280809050Y-41728910D01*
X280809050Y-41728910D02*
X281111164Y-41728910D01*
X281111164Y-41728910D02*
X281409041Y-41728910D01*
X281409041Y-41728910D02*
X281701270Y-41728910D01*
X281701270Y-41728910D02*
X281986438Y-41728910D01*
X281986438Y-41728910D02*
X282263135Y-41728910D01*
X282263135Y-41728910D02*
X282529947Y-41728910D01*
X282529947Y-41728910D02*
X282785462Y-41728910D01*
X282785462Y-41728910D02*
X283028269Y-41728910D01*
X283028269Y-41728910D02*
X283256956Y-41728910D01*
X283256956Y-41728910D02*
X283470110Y-41728910D01*
X283470110Y-41728910D02*
X283844172Y-41728910D01*
X283844172Y-41728910D02*
X284139159Y-41728910D01*
X284139159Y-41728910D02*
X284334099Y-41661781D01*
X284334099Y-41661781D02*
X284363520Y-41635774D01*
X284363520Y-41635774D02*
X284454239Y-41450604D01*
X284454239Y-41450604D02*
X284456667Y-41411410D01*
X284456667Y-39690562D02*
X298256587Y-39690562D01*
X298256587Y-39690562D02*
X298256587Y-53490137D01*
X298256587Y-53490137D02*
X284456667Y-53490137D01*
X284456667Y-53490137D02*
X284456667Y-46860754D01*
X284456667Y-46860754D02*
X284396413Y-46669941D01*
X284396413Y-46669941D02*
X284359644Y-46626157D01*
X284359644Y-46626157D02*
X284181997Y-46534075D01*
X284181997Y-46534075D02*
X284125056Y-46529143D01*
X284125056Y-46529143D02*
X283827722Y-46529143D01*
X283827722Y-46529143D02*
X283452950Y-46529143D01*
X283452950Y-46529143D02*
X283239981Y-46529143D01*
X283239981Y-46529143D02*
X283011801Y-46529143D01*
X283011801Y-46529143D02*
X282769793Y-46529143D01*
X282769793Y-46529143D02*
X282515340Y-46529143D01*
X282515340Y-46529143D02*
X282249824Y-46529143D01*
X282249824Y-46529143D02*
X281974629Y-46529143D01*
X281974629Y-46529143D02*
X281691138Y-46529143D01*
X281691138Y-46529143D02*
X281400732Y-46529143D01*
X281400732Y-46529143D02*
X281104797Y-46529143D01*
X281104797Y-46529143D02*
X280804713Y-46529143D01*
X280804713Y-46529143D02*
X280501865Y-46529143D01*
X280501865Y-46529143D02*
X280197635Y-46529143D01*
X280197635Y-46529143D02*
X279893405Y-46529143D01*
X279893405Y-46529143D02*
X279590560Y-46529143D01*
X279590560Y-46529143D02*
X279290482Y-46529143D01*
X279290482Y-46529143D02*
X278994553Y-46529143D01*
X278994553Y-46529143D02*
X278704157Y-46529143D01*
X278704157Y-46529143D02*
X278420677Y-46529143D01*
X278420677Y-46529143D02*
X278145495Y-46529143D01*
X278145495Y-46529143D02*
X277879994Y-46529143D01*
X277879994Y-46529143D02*
X277625558Y-46529143D01*
X277625558Y-46529143D02*
X277383569Y-46529143D01*
X277383569Y-46529143D02*
X277155411Y-46529143D01*
X277155411Y-46529143D02*
X276942465Y-46529143D01*
X276942465Y-46529143D02*
X276567745Y-46529143D01*
X276567745Y-46529143D02*
X276270473Y-46529143D01*
X276270473Y-46529143D02*
X276073192Y-46594147D01*
X276073192Y-46594147D02*
X276035884Y-46626157D01*
X276035884Y-46626157D02*
X275943794Y-46803766D01*
X275943794Y-46803766D02*
X275938862Y-46860754D01*
X275938862Y-53490137D02*
X262138942Y-53490137D01*
X262138942Y-53490137D02*
X262138942Y-39690562D01*
X262138942Y-39690562D02*
X275938862Y-39690562D01*
X275938862Y-39690562D02*
X275938862Y-41411410D01*
X195567117Y-36490170D02*
X195567117Y-22690245D01*
X195567117Y-22690245D02*
X181767186Y-22690245D01*
X181767186Y-22690245D02*
X181767186Y-36490170D01*
X181767186Y-36490170D02*
X195567117Y-36490170D01*
X141988415Y-36490170D02*
X141988415Y-22690245D01*
X141988415Y-22690245D02*
X128188495Y-22690245D01*
X128188495Y-22690245D02*
X128188495Y-36490170D01*
X128188495Y-36490170D02*
X141988415Y-36490170D01*
X284863058Y-36490170D02*
X284863058Y-22690245D01*
X284863058Y-22690245D02*
X271063138Y-22690245D01*
X271063138Y-22690245D02*
X271063138Y-36490170D01*
X271063138Y-36490170D02*
X284863058Y-36490170D01*
X249145818Y-36490170D02*
X249145818Y-22690245D01*
X249145818Y-22690245D02*
X235343422Y-22690245D01*
X235343422Y-22690245D02*
X235343422Y-36490170D01*
X235343422Y-36490170D02*
X249145818Y-36490170D01*
X177708486Y-36490170D02*
X177708486Y-22690245D01*
X177708486Y-22690245D02*
X163906090Y-22690245D01*
X163906090Y-22690245D02*
X163906090Y-36490170D01*
X163906090Y-36490170D02*
X177708486Y-36490170D01*
X231284356Y-36490170D02*
X231284356Y-22690245D01*
X231284356Y-22690245D02*
X217484802Y-22690245D01*
X217484802Y-22690245D02*
X217484802Y-36490170D01*
X217484802Y-36490170D02*
X231284356Y-36490170D01*
X52692474Y-36490170D02*
X52692474Y-22690245D01*
X52692474Y-22690245D02*
X38892546Y-22690245D01*
X38892546Y-22690245D02*
X38892546Y-36490170D01*
X38892546Y-36490170D02*
X52692474Y-36490170D01*
X34831027Y-36490170D02*
X34831027Y-22690245D01*
X34831027Y-22690245D02*
X21031453Y-22690245D01*
X21031453Y-22690245D02*
X21031453Y-36490170D01*
X21031453Y-36490170D02*
X34831027Y-36490170D01*
X302721678Y-36490170D02*
X302721678Y-22690245D01*
X302721678Y-22690245D02*
X288922124Y-22690245D01*
X288922124Y-22690245D02*
X288922124Y-36490170D01*
X288922124Y-36490170D02*
X302721678Y-36490170D01*
X70551099Y-36490170D02*
X70551099Y-22690245D01*
X70551099Y-22690245D02*
X56751171Y-22690245D01*
X56751171Y-22690245D02*
X56751171Y-36490170D01*
X56751171Y-36490170D02*
X70551099Y-36490170D01*
X267004438Y-36490170D02*
X267004438Y-22690245D01*
X267004438Y-22690245D02*
X253204518Y-22690245D01*
X253204518Y-22690245D02*
X253204518Y-36490170D01*
X253204518Y-36490170D02*
X267004438Y-36490170D01*
X213425736Y-22690245D02*
X213425736Y-36490170D01*
X213425736Y-36490170D02*
X199625817Y-36490170D01*
X199625817Y-36490170D02*
X199625817Y-22690245D01*
X199625817Y-22690245D02*
X206953689Y-22690245D01*
X206953689Y-22690245D02*
X206953689Y-20080401D01*
X206953689Y-20080401D02*
X206967150Y-19862901D01*
X206967150Y-19862901D02*
X207006909Y-19650461D01*
X207006909Y-19650461D02*
X207072030Y-19445350D01*
X207072030Y-19445350D02*
X207161573Y-19249835D01*
X207161573Y-19249835D02*
X207274603Y-19066187D01*
X207274603Y-19066187D02*
X207410181Y-18896674D01*
X207410181Y-18896674D02*
X207470516Y-18833335D01*
X207470516Y-18833335D02*
X207633740Y-18688998D01*
X207633740Y-18688998D02*
X207812006Y-18566838D01*
X207812006Y-18566838D02*
X208003045Y-18467790D01*
X208003045Y-18467790D02*
X208204588Y-18392791D01*
X208204588Y-18392791D02*
X208414366Y-18342777D01*
X208414366Y-18342777D02*
X208630112Y-18318685D01*
X208630112Y-18318685D02*
X208717573Y-18316517D01*
X208717573Y-18316517D02*
X210261338Y-18316517D01*
X210261338Y-18316517D02*
X210478951Y-18329977D01*
X210478951Y-18329977D02*
X210691436Y-18369734D01*
X210691436Y-18369734D02*
X210896556Y-18434852D01*
X210896556Y-18434852D02*
X211092074Y-18524393D01*
X211092074Y-18524393D02*
X211275754Y-18637421D01*
X211275754Y-18637421D02*
X211445360Y-18772999D01*
X211445360Y-18772999D02*
X211508761Y-18833335D01*
X211508761Y-18833335D02*
X211653071Y-18996558D01*
X211653071Y-18996558D02*
X211775172Y-19174825D01*
X211775172Y-19174825D02*
X211874141Y-19365865D01*
X211874141Y-19365865D02*
X211949059Y-19567410D01*
X211949059Y-19567410D02*
X211999004Y-19777191D01*
X211999004Y-19777191D02*
X212023057Y-19992939D01*
X212023057Y-19992939D02*
X212025222Y-20080401D01*
X212025222Y-22690245D02*
X213425736Y-22690245D01*
X124129795Y-22690245D02*
X124129795Y-36490170D01*
X124129795Y-36490170D02*
X110329865Y-36490170D01*
X110329865Y-36490170D02*
X110329865Y-22690245D01*
X110329865Y-22690245D02*
X111723338Y-22690245D01*
X111723338Y-22690245D02*
X111723338Y-20080401D01*
X111723338Y-20080401D02*
X111743665Y-19811813D01*
X111743665Y-19811813D02*
X111802651Y-19555931D01*
X111802651Y-19555931D02*
X111897300Y-19315749D01*
X111897300Y-19315749D02*
X112024619Y-19094262D01*
X112024619Y-19094262D02*
X112181613Y-18894464D01*
X112181613Y-18894464D02*
X112365287Y-18719350D01*
X112365287Y-18719350D02*
X112572647Y-18571915D01*
X112572647Y-18571915D02*
X112800699Y-18455152D01*
X112800699Y-18455152D02*
X113046447Y-18372057D01*
X113046447Y-18372057D02*
X113306898Y-18325625D01*
X113306898Y-18325625D02*
X113487222Y-18316517D01*
X113487222Y-18316517D02*
X114995696Y-18316517D01*
X114995696Y-18316517D02*
X115264364Y-18336844D01*
X115264364Y-18336844D02*
X115520296Y-18395830D01*
X115520296Y-18395830D02*
X115760500Y-18490480D01*
X115760500Y-18490480D02*
X115981989Y-18617800D01*
X115981989Y-18617800D02*
X116181772Y-18774794D01*
X116181772Y-18774794D02*
X116356860Y-18958468D01*
X116356860Y-18958468D02*
X116504264Y-19165829D01*
X116504264Y-19165829D02*
X116620994Y-19393880D01*
X116620994Y-19393880D02*
X116704061Y-19639628D01*
X116704061Y-19639628D02*
X116750476Y-19900078D01*
X116750476Y-19900078D02*
X116759581Y-20080401D01*
X116759581Y-22690245D02*
X124129795Y-22690245D01*
X159847046Y-36490170D02*
X159847046Y-22690245D01*
X159847046Y-22690245D02*
X146047470Y-22690245D01*
X146047470Y-22690245D02*
X146047470Y-36490170D01*
X146047470Y-36490170D02*
X159847046Y-36490170D01*
X106268344Y-36490170D02*
X106268344Y-22690245D01*
X106268344Y-22690245D02*
X92468774Y-22690245D01*
X92468774Y-22690245D02*
X92468774Y-36490170D01*
X92468774Y-36490170D02*
X106268344Y-36490170D01*
X88409724Y-36490170D02*
X88409724Y-22690245D01*
X88409724Y-22690245D02*
X74610149Y-22690245D01*
X74610149Y-22690245D02*
X74610149Y-36490170D01*
X74610149Y-36490170D02*
X88409724Y-36490170D01*
X19688783Y-70047018D02*
X21582843Y-70043137D01*
X20952783Y-87490774D02*
X34818326Y-87490774D01*
X116759581Y-20080401D02*
X116759581Y-22690245D01*
X212025222Y-20080401D02*
X212025222Y-22690245D01*
X284456667Y-41411410D02*
X284456667Y-39690562D01*
X275938862Y-46860754D02*
X275938862Y-53490137D01*
X298256587Y-56690884D02*
X298256587Y-64291106D01*
X284456667Y-70491159D02*
X297845243Y-70489399D01*
X288927055Y-73690848D02*
X297845243Y-73690848D01*
X304564239Y-89254658D02*
X304564239Y-108992169D01*
X208960301Y-98695321D02*
X211462188Y-98694616D01*
X208960301Y-103611977D02*
X211463243Y-103610911D01*
%TD*%
M02*
